<?xml version="1.0" standalone="no"?>
<!DOCTYPE svg PUBLIC "-//W3C//DTD SVG 1.1//EN" "http://www.w3.org/Graphics/SVG/1.1/DTD/svg11.dtd" >
<svg xmlns="http://www.w3.org/2000/svg" xmlns:xlink="http://www.w3.org/1999/xlink" version="1.1">
<metadata>
Created by FontForge 20201107 at Fri Sep 22 12:28:06 2023
 By 
(c)rajeshrajput
</metadata>
<defs>
<font id="Nohemi-SemiBold" horiz-adv-x="2352" >
  <font-face 
    font-family="Nohemi SemBd"
    font-weight="600"
    font-stretch="normal"
    units-per-em="4000"
    panose-1="0 0 0 0 0 0 0 0 0 0"
    ascent="3200"
    descent="-800"
    x-height="2205"
    cap-height="2860"
    bbox="-266 -971 4985 3882"
    underline-thickness="100"
    underline-position="-250"
    unicode-range="U+000D-FB02"
  />
<missing-glyph horiz-adv-x="3123" 
d="M138 2860h2847v-2860h-2847v2860zM1561 1679l744 816h-1486zM553 574l781 856l-781 857v-1713zM2570 571v1715l-781 -856zM818 365h1484l-741 815z" />
    <glyph glyph-name="fi" unicode="fi" horiz-adv-x="2540" 
d="M345 1729h-297v476h297v62q0 201 55.5 354.5t163.5 257.5t267 157.5t367 53.5q91 0 190.5 -9.5t202.5 -29.5v-462q-160 29 -284 29q-201 0 -296 -87.5t-95 -270.5v-55h676v-476h-648v-1729h-599v1729zM2418 2436h-611v524h611v-524zM2412 0h-599v2205h599v-2205z" />
    <glyph glyph-name="fl" unicode="fl" horiz-adv-x="2540" 
d="M345 1729h-297v476h297v62q0 201 55.5 354.5t163.5 257.5t267 157.5t367 53.5q91 0 190.5 -9.5t202.5 -29.5v-462q-160 29 -284 29q-201 0 -296 -87.5t-95 -270.5v-55h676v-476h-648v-1729h-599v1729zM2412 0h-599v2960h599v-2960z" />
    <glyph glyph-name=".notdef" horiz-adv-x="3123" 
d="M138 2860h2847v-2860h-2847v2860zM1561 1679l744 816h-1486zM553 574l781 856l-781 857v-1713zM2570 571v1715l-781 -856zM818 365h1484l-741 815z" />
    <glyph glyph-name=".null" horiz-adv-x="0" 
 />
    <glyph glyph-name="uni000D" unicode="&#xd;" horiz-adv-x="500" 
 />
    <glyph glyph-name="space" unicode=" " horiz-adv-x="932" 
 />
    <glyph glyph-name="exclam" unicode="!" horiz-adv-x="902" 
d="M737 2860v-495l-47 -1445h-480l-45 1445v495h572zM760 0h-618v644h618v-644z" />
    <glyph glyph-name="quotedbl" unicode="&#x22;" horiz-adv-x="1545" 
d="M632 1523h-420l-74 1337h572zM1329 1523h-420l-74 1337h572z" />
    <glyph glyph-name="numbersign" unicode="#" horiz-adv-x="3068" 
d="M1713 644h-554l-80 -644h-474l80 644h-565v451h621l84 671h-596v457h653l79 637h473l-79 -637h555l79 637h474l-79 -637h564v-457h-621l-84 -671h596v-451h-652l-80 -644h-474zM1769 1095l84 671h-555l-83 -671h554z" />
    <glyph glyph-name="dollar" unicode="$" horiz-adv-x="2677" 
d="M1119 -50q-255 24 -451 101t-330 202t-203 295t-69 380h606q0 -111 46.5 -199t134 -149t212.5 -93.5t281 -32.5q133 0 249.5 24t203 73t136.5 122t50 171q0 93 -42 150.5t-122.5 92.5t-196 55.5t-262.5 41.5l-151 22q-118 17 -245 37.5t-249 55.5t-232 89t-193 138
t-131.5 202t-48.5 281q0 200 75.5 358t209.5 271.5t319 182t404 89.5l-39 450h516l-40 -453q224 -27 401.5 -103.5t301.5 -198t189.5 -284.5t65.5 -363h-606q0 104 -42.5 186.5t-120.5 141t-187 89.5t-243 31q-111 0 -215.5 -22.5t-185 -67.5t-129 -113t-48.5 -158
q0 -85 41.5 -138.5t123 -87.5t202 -56t277.5 -45l117 -17q90 -13 185 -28.5t190 -38t186.5 -53t173.5 -74.5t151 -103.5t119.5 -138.5t78.5 -180t28 -228q0 -204 -73.5 -364t-210.5 -274.5t-332 -182.5t-437 -88l39 -449h-516z" />
    <glyph glyph-name="percent" unicode="%" horiz-adv-x="3541" 
d="M139 2154q0 173 51.5 314t145.5 241.5t226.5 155.5t294.5 55q161 0 293 -54.5t225.5 -155t144.5 -242t51 -314.5q0 -172 -50.5 -311t-144 -237.5t-225.5 -151.5t-295 -53t-295.5 53.5t-226.5 151.5t-144.5 237t-50.5 311zM2908 2860l-1771 -2860h-489l1766 2860h494z
M584 2149q0 -168 69.5 -257t201.5 -89q131 0 200 89t69 257q0 86 -18.5 154.5t-53 116t-85 73t-113.5 25.5t-113 -25.5t-85 -73t-53.5 -116t-18.5 -154.5zM1971 693q0 173 51.5 314t145.5 241.5t226.5 155.5t294.5 55t293.5 -54.5t225 -155t144.5 -242t51 -314.5
q0 -172 -50.5 -311t-144 -237.5t-225.5 -151.5t-295 -53t-295.5 53.5t-226 151.5t-144.5 237t-51 311zM2416 688q0 -168 69.5 -257t201.5 -89q131 0 200 89t69 257q0 86 -18.5 154.5t-53 116t-85 73t-113.5 25.5t-113 -25.5t-85 -73t-53.5 -116t-18.5 -154.5z" />
    <glyph glyph-name="ampersand" unicode="&#x26;" horiz-adv-x="2903" 
d="M2500 871q0 -136 -40 -257.5t-114 -225t-179.5 -186.5t-237 -141t-286.5 -89.5t-328 -31.5q-172 0 -328.5 31t-290.5 88t-242.5 137.5t-185.5 180.5t-118.5 216.5t-41.5 244.5q0 125 39 228t112 180t176 124.5t230 59.5q-129 12 -232 58t-175.5 121.5t-111 178.5
t-38.5 227q0 129 41 246t116.5 217.5t182 182t238 139t284 89t320.5 31.5q167 0 317 -31t279.5 -88.5t236 -140.5t185 -186.5t126.5 -226t61 -259.5h-617q-17 96 -65 172.5t-123.5 129.5t-176 81.5t-222.5 28.5q-126 0 -229 -30t-176.5 -84.5t-114 -131.5t-40.5 -171
q0 -162 132 -240.5t412 -78.5h1520v-462h-295v-331zM1292 1202q-283 0 -421 -82.5t-138 -248.5q0 -94 41 -170t117 -129.5t183.5 -82.5t239.5 -29q134 0 240 31t180.5 88.5t114 140.5t39.5 186v296h-596z" />
    <glyph glyph-name="quotesingle" unicode="'" horiz-adv-x="849" 
d="M632 1523h-420l-74 1337h572z" />
    <glyph glyph-name="parenleft" unicode="(" horiz-adv-x="1409" 
d="M1351 2960q-155 -205 -271.5 -417.5t-194.5 -427t-117.5 -430t-39.5 -427.5q0 -213 39.5 -426t117.5 -423.5t194.5 -416t271.5 -401.5l-259 -202q-245 204 -429.5 429t-307.5 464t-185 489.5t-62 506.5q0 257 62 508t185.5 490t308 462.5t428.5 424.5z" />
    <glyph glyph-name="parenright" unicode=")" horiz-adv-x="1409" 
d="M59.082 -407.819q154.991 204.987 271.483 417.475q116.493 212.487 194.488 426.974q77.9951 214.487 117.493 429.974q39.498 215.487 39.498 427.475q0 212.986 -39.498 425.974t-117.493 423.475q-77.9951 210.486 -194.488 415.975
q-116.492 205.487 -271.483 401.475l258.984 201.988q244.985 -203.987 429.474 -428.974q184.489 -224.986 307.481 -463.972t184.989 -489.471q61.9961 -250.484 61.9961 -506.469q0 -256.984 -61.9961 -507.969q-61.9971 -250.985 -185.489 -489.971t-307.981 -462.472
q-184.488 -223.486 -428.474 -424.474z" />
    <glyph glyph-name="asterisk" unicode="*" horiz-adv-x="1869" 
d="M650 2109l-523 72l165 510l470 -251l-93 521h536l-94 -525l466 249l166 -510l-527 -73l380 -365l-433 -315l-233 478l-230 -475l-433 315z" />
    <glyph glyph-name="plus" unicode="+" horiz-adv-x="2152" 
d="M822 508v704h-684v468h684v704h508v-704h684v-468h-684v-704h-508z" />
    <glyph glyph-name="comma" unicode="," horiz-adv-x="894" 
d="M434 -758h-414l140 1402h630z" />
    <glyph glyph-name="hyphen" unicode="-" horiz-adv-x="2077" 
d="M1938 897h-1800v522h1800v-522z" />
    <glyph glyph-name="period" unicode="." horiz-adv-x="894" 
d="M756 0h-618v644h618v-644z" />
    <glyph glyph-name="slash" unicode="/" horiz-adv-x="1807" 
d="M142 -758l951 3718h585l-951 -3718h-585z" />
    <glyph glyph-name="zero" unicode="0" horiz-adv-x="2856" 
d="M108 1430q0 225 44 422.5t126 363t199.5 296.5t264 221.5t319.5 138.5t367 48t367 -48t319.5 -138.5t264 -221.5t199.5 -296.5t126 -363.5t44 -422t-44 -422t-126 -363.5t-199.5 -296.5t-264 -221.5t-319.5 -138.5t-367 -48t-367 48t-319.5 138.5t-264 221.5
t-199.5 296.5t-126 363.5t-44 422zM744 1430q0 -229 45.5 -406t133 -297.5t215 -182.5t290.5 -62t290.5 62t215 182.5t133 297.5t45.5 406t-45.5 406t-133 297.5t-215 182.5t-290.5 62t-290.5 -62t-215 -182.5t-133 -297.5t-45.5 -406z" />
    <glyph glyph-name="one" unicode="1" horiz-adv-x="1846" 
d="M1268 534h440v-534h-1511v534h439v1452h-558v500h207q123 0 205 19.5t130.5 68.5t69 133.5t20.5 213.5h558v-2387z" />
    <glyph glyph-name="two" unicode="2" horiz-adv-x="2606" 
d="M138 0v423q0 174 43.5 307t117.5 233t171.5 172t206.5 125t222 91t218 70l108 33q131 40 246 80t200.5 94t135 130.5t49.5 188.5q0 92 -38 170.5t-108 136t-169.5 90.5t-222.5 33q-131 0 -234 -38t-174.5 -109t-109 -174t-37.5 -233v-56h-612v64q0 251 83 452t238 343
t376 218t498 76q264 0 472.5 -69.5t353 -197.5t220.5 -309t76 -404q0 -172 -43 -301.5t-116 -225.5t-169.5 -163t-202.5 -114.5t-215 -79.5t-208 -59l-156 -42q-67 -18 -135 -37.5t-132 -44t-121 -55.5t-101.5 -72t-74.5 -93t-39 -119h1704v-534h-2321z" />
    <glyph glyph-name="three" unicode="3" horiz-adv-x="2707" 
d="M108 1934q0 235 79 418.5t230.5 309.5t371.5 192t503 66q264 0 480 -56.5t369 -160.5t236.5 -250t83.5 -326q0 -132 -45 -244.5t-126 -197.5t-193.5 -138.5t-248.5 -67.5q176 -10 315.5 -61t236 -138t148 -207t51.5 -269q0 -196 -88 -355.5t-250 -272.5t-390 -174.5
t-509 -61.5q-297 0 -530 70t-394 203t-245.5 326t-84.5 439v5h612v-30q0 -107 44.5 -194t126 -148.5t196.5 -95t257 -33.5q140 0 257.5 32t203 89.5t133.5 136.5t48 173q0 149 -132.5 219.5t-412.5 70.5h-439v498h417q103 0 184.5 20.5t137.5 58.5t86 93.5t30 125.5
q0 85 -42.5 154.5t-119.5 119.5t-184.5 77.5t-238.5 27.5q-132 0 -234.5 -29t-173 -84t-107.5 -135.5t-37 -184.5v-16h-612v5z" />
    <glyph glyph-name="four" unicode="4" horiz-adv-x="2916" 
d="M1778 0v609h-1640v652l1517 1599h743v-1725h380v-526h-380v-609h-620zM1778 1135v1126l-1064 -1126h1064z" />
    <glyph glyph-name="five" unicode="5" horiz-adv-x="2692" 
d="M2584 985q0 -157 -40 -296t-115 -255t-183.5 -207.5t-246.5 -155t-302 -97t-351 -33.5q-178 0 -336.5 30t-292.5 86.5t-241.5 137t-182.5 181.5t-115 220t-40 253v22h628v-17q0 -76 45 -143t123 -116.5t183 -78t225 -28.5q133 0 244.5 36t191.5 100.5t125 154t45 197.5
q0 102 -41 186t-118.5 144t-188 93t-250.5 33q-105 0 -196.5 -19.5t-164.5 -54t-123.5 -81.5t-72.5 -101h-620v1684h2222v-538h-1602v-930q39 107 114.5 195t183.5 150.5t245.5 97t300.5 34.5q223 0 398.5 -63.5t297.5 -179.5t186.5 -279t64.5 -362z" />
    <glyph glyph-name="six" unicode="6" horiz-adv-x="2759" 
d="M1434 2920q257 0 468.5 -67.5t362.5 -190.5t234 -295t83 -381v-43h-612v30q0 89 -39.5 163.5t-110.5 128t-168.5 83.5t-214.5 30q-168 0 -300 -64t-223 -186t-139 -299t-48 -403v-307q25 146 99 258.5t193 190t282 117.5t365 40q237 0 420.5 -54t309 -158.5t190.5 -256.5
t65 -349q0 -225 -84 -404.5t-242 -304t-384 -191t-511 -66.5q-328 0 -575.5 90t-413.5 267t-249.5 439t-83.5 605v26q0 369 89 657.5t259 487.5t416.5 303t561.5 104zM1442 483q139 0 245.5 29t179 86t110 141t37.5 193q0 108 -37 191.5t-108 140t-176 86t-241 29.5
q-145 0 -265 -32.5t-206 -92.5t-133 -144t-47 -186q0 -100 45.5 -181.5t129.5 -139t202.5 -89t263.5 -31.5z" />
    <glyph glyph-name="seven" unicode="7" horiz-adv-x="2458" 
d="M661 0q16 243 51 459t95 413.5t146.5 380.5t205 360t270.5 352t343 357h-1694v538h2242v-562q-171 -177 -305 -341.5t-237.5 -330t-179 -339.5t-128.5 -370.5t-87 -422t-54 -494.5h-668z" />
    <glyph glyph-name="eight" unicode="8" horiz-adv-x="2786" 
d="M1384 -60q-297 0 -533.5 58.5t-401.5 167.5t-253 266t-88 353q0 141 46.5 258t137 206.5t222.5 149.5t303 88q-147 24 -261.5 77t-193 131.5t-119 181t-40.5 226.5q0 183 86 334t243.5 258t378.5 166t490 59q268 0 487.5 -58.5t376 -165.5t242 -257.5t85.5 -334.5
q0 -125 -41 -228t-120 -181.5t-195 -131t-266 -76.5q349 -51 528.5 -223t179.5 -457q0 -201 -89.5 -362t-257 -273t-407 -172t-540.5 -60zM1393 1656q297 0 446.5 92.5t149.5 276.5q0 179 -146.5 266t-446.5 87q-301 0 -448 -88t-147 -267q0 -183 148.5 -275t443.5 -92z
M1393 482q676 0 676 410q0 99 -40.5 172t-124 120.5t-210.5 70.5t-301 23t-301 -23t-210 -70.5t-123.5 -120.5t-40.5 -172q0 -410 675 -410z" />
    <glyph glyph-name="nine" unicode="9" horiz-adv-x="2759" 
d="M1325 -59q-257 0 -468.5 67.5t-362.5 190t-234 294.5t-83 381v44h612v-30q0 -89 39.5 -163.5t110.5 -128t168.5 -83.5t214.5 -30q168 0 300 64t223 186t139 299t48 403v306q-25 -145 -98.5 -258t-193 -190t-282 -117t-365.5 -40q-237 0 -420.5 54t-309 158.5t-190.5 257
t-65 348.5q0 225 84 404.5t242 304t384 191t511 66.5q328 0 575.5 -90t413.5 -267t249.5 -439t83.5 -605v-26q0 -369 -89 -658t-259 -487.5t-416.5 -302.5t-561.5 -104zM1317 2378q-139 0 -245.5 -29t-179 -86t-110 -141t-37.5 -193q0 -108 37 -191.5t108 -140.5t176 -86
t241 -29q146 0 265.5 32.5t205.5 92.5t133 143.5t47 185.5q0 101 -45.5 182.5t-129.5 139t-202 89t-264 31.5z" />
    <glyph glyph-name="colon" unicode=":" horiz-adv-x="894" 
d="M756 0h-618v644h618v-644zM756 1579h-618v644h618v-644z" />
    <glyph glyph-name="semicolon" unicode=";" horiz-adv-x="895" 
d="M756 1579h-618v644h618v-644zM434 -758h-414l140 1402h630z" />
    <glyph glyph-name="less" unicode="&#x3c;" horiz-adv-x="2257" 
d="M2119 1726l-1641 -463l1641 -462v-572l-1981 778v514l1981 777v-572z" />
    <glyph glyph-name="equal" unicode="=" horiz-adv-x="2152" 
d="M138 1618v468h1876v-468h-1876zM138 806v468h1876v-468h-1876z" />
    <glyph glyph-name="greater" unicode="&#x3e;" horiz-adv-x="2257" 
d="M138.129 801.105l1640.9 462.972l-1640.9 461.972v571.965l1980.88 -777.952v-513.969l-1980.88 -776.952v571.965z" />
    <glyph glyph-name="question" unicode="?" horiz-adv-x="2498" 
d="M1419 860h-548v150q0 98 21 175.5t57 138.5t84 108.5t101 84.5t108.5 66.5t107.5 55.5l79 40q60 30 117 61t101 71t70.5 93.5t26.5 128.5q0 83 -38 150.5t-107 115t-166.5 73.5t-216.5 26q-130 0 -230.5 -33t-169 -100.5t-104 -171t-35.5 -244.5v-46h-608v60
q0 265 75.5 463.5t222.5 330.5t364 197.5t500 65.5q269 0 479 -58t354.5 -170t220 -274t75.5 -371q0 -125 -26 -223t-69 -173.5t-99.5 -131.5t-118.5 -98.5t-124.5 -74t-117.5 -56.5l-75 -35q-59 -27 -115 -55.5t-99.5 -64t-70 -79.5t-26.5 -103v-93zM1454 0h-618v644h618
v-644z" />
    <glyph glyph-name="at" unicode="@" horiz-adv-x="3831" 
d="M1981 -577q-278 0 -525.5 58t-455.5 167t-373.5 265t-280.5 351.5t-176.5 427.5t-61.5 492t61 492.5t174 430t275 355.5t363.5 269t439 170.5t502.5 59.5q260 0 494.5 -57t434.5 -163t361 -257t274.5 -338t174.5 -406.5t61 -462.5t-61 -439.5t-173 -335t-270 -213
t-352 -74.5q-139 0 -253.5 39t-199 115t-138 186.5t-71.5 252.5q-27 -142 -77 -252.5t-121.5 -186.5t-162.5 -115.5t-199 -39.5q-97 0 -184 31.5t-160.5 90.5t-132.5 143t-100.5 189t-63.5 228.5t-22 262.5t22 262.5t63 228.5t100 189t132.5 142.5t161 90t184.5 31.5
q105 0 193.5 -37.5t158.5 -109t120.5 -176t79.5 -239.5v501h517v-1074q0 -157 49.5 -232t158.5 -75q79 0 138 38.5t98.5 110.5t59.5 175.5t20 232.5q0 195 -43 367t-123 316.5t-195.5 258.5t-260.5 193.5t-317.5 121.5t-366.5 42q-198 0 -373.5 -43.5t-323.5 -125
t-266 -198.5t-200 -263.5t-126 -320.5t-44 -370q0 -197 44.5 -372.5t128 -323t203.5 -265t270.5 -199.5t328.5 -125.5t378 -43.5q191 0 379 40t386 122l146 -424q-76 -42 -175 -76t-213 -57.5t-239.5 -36t-254.5 -12.5zM2196 1159q0 117 -23 207t-67 152t-108.5 94
t-147.5 32q-165 0 -249 -123t-84 -362q0 -240 84 -362.5t249 -122.5q168 0 257 125t89 360z" />
    <glyph glyph-name="A" unicode="A" horiz-adv-x="2850" 
d="M3 0l986 2860h886l972 -2860h-674l-191 629h-1125l-194 -629h-660zM1825 1145l-401 1317l-407 -1317h808z" />
    <glyph glyph-name="B" unicode="B" horiz-adv-x="2733" 
d="M1569 2860q221 0 401 -50.5t307.5 -144.5t196.5 -228t69 -301q0 -135 -44 -248.5t-122.5 -199t-186.5 -139.5t-236 -69q155 -14 285 -72t224.5 -151t147.5 -216.5t53 -270.5q0 -177 -77.5 -319t-217.5 -242.5t-335 -154.5t-430 -54h-1466v2860h1431zM1504 1671
q93 0 169.5 24t130.5 70t83.5 111.5t29.5 147.5q0 80 -28.5 141.5t-81.5 103.5t-130 63.5t-174 21.5h-733v-683h734zM1559 506q237 0 355 85.5t118 266.5q0 180 -118 265.5t-354 85.5h-790v-703h789z" />
    <glyph glyph-name="C" unicode="C" horiz-adv-x="2940" 
d="M744 1430q0 -229 50.5 -406t146.5 -297.5t236.5 -182.5t320.5 -62q289 0 463 167t231 501h628q-27 -188 -85.5 -351t-146 -297.5t-201.5 -239t-252 -176t-298.5 -109t-339.5 -37.5q-204 0 -386 48t-336.5 138.5t-278 221.5t-209.5 296.5t-132.5 363.5t-46.5 422
q0 225 46.5 422.5t132.5 363t209.5 296.5t278 221.5t336.5 138.5t386 48q179 0 339.5 -37.5t298.5 -109t252 -176t201.5 -239t146 -297.5t85.5 -351h-628q-57 333 -232 500.5t-462 167.5q-180 0 -320.5 -62t-236.5 -182.5t-146.5 -297.5t-50.5 -406z" />
    <glyph glyph-name="D" unicode="D" horiz-adv-x="2736" 
d="M138 2860h1043q216 0 406.5 -45.5t351.5 -132.5t288.5 -212t216.5 -284t136.5 -349t47.5 -407t-47.5 -407t-136.5 -349t-216.5 -284t-288.5 -212t-352 -132.5t-406 -45.5h-1043v2860zM1167 542q196 0 349.5 58.5t259 171.5t161 278.5t55.5 379.5t-55.5 379.5t-161 278.5
t-259 171.5t-349.5 58.5h-403v-1776h403z" />
    <glyph glyph-name="E" unicode="E" horiz-adv-x="2219" 
d="M2114 2860v-538h-1344v-639h1228v-510h-1228v-635h1380v-538h-2012v2860h1976z" />
    <glyph glyph-name="F" unicode="F" horiz-adv-x="2183" 
d="M2114 2322h-1344v-679h1228v-522h-1228v-1121h-632v2860h1976v-538z" />
    <glyph glyph-name="G" unicode="G" horiz-adv-x="2991" 
d="M744 1430q0 -231 49 -410t143.5 -301t232.5 -185t317 -63q159 0 295.5 45.5t238 128.5t162.5 199t70 258h-797v428h1398v-1530h-592v711q-57 -177 -152.5 -320t-223 -243t-283 -154t-333.5 -54q-168 0 -319.5 49t-280.5 140.5t-232.5 223.5t-176.5 297.5t-112.5 362
t-39.5 417.5q0 225 46.5 422.5t132.5 363t209.5 296.5t278 221.5t336.5 138.5t386 48q169 0 324.5 -34t293 -99t254 -159.5t208 -215.5t154.5 -267.5t93 -314.5h-628q-31 135 -94.5 237.5t-153.5 171.5t-204 104t-247 35q-180 0 -320 -62t-236 -182.5t-146.5 -297.5
t-50.5 -406z" />
    <glyph glyph-name="H" unicode="H" horiz-adv-x="2736" 
d="M2598 0h-632v1156h-1196v-1156h-632v2860h632v-1162h1196v1162h632v-2860z" />
    <glyph glyph-name="I" unicode="I" horiz-adv-x="909" 
d="M770 0h-632v2860h632v-2860z" />
    <glyph glyph-name="J" unicode="J" horiz-adv-x="2507" 
d="M69 1286h632v-233q0 -123 36.5 -228t104.5 -181t164 -119t214 -43q119 0 215 43.5t163 120.5t103 182.5t36 229.5v1802h632v-1810q0 -172 -38 -321t-109 -272t-173 -219.5t-230 -162.5t-279 -100.5t-321 -34.5q-169 0 -320.5 34.5t-279 100.5t-229.5 162.5t-173.5 219.5
t-109.5 272t-38 321v236z" />
    <glyph glyph-name="K" unicode="K" horiz-adv-x="2709" 
d="M1291 1419l1415 -1419h-835l-1101 1117v-1117h-632v2860h632v-1223l1065 1223h777z" />
    <glyph glyph-name="L" unicode="L" horiz-adv-x="2133" 
d="M770 2860v-2322h1300v-538h-1932v2860h632z" />
    <glyph glyph-name="M" unicode="M" horiz-adv-x="3678" 
d="M3540 2860v-2860h-632v2329l-741 -2329h-690l-733 2330v-2330h-606v2860h1014l698 -2215l705 2215h985z" />
    <glyph glyph-name="N" unicode="N" horiz-adv-x="2895" 
d="M2757 0h-897l-1116 2294v-2294h-606v2860h956l1057 -2159v2159h606v-2860z" />
    <glyph glyph-name="O" unicode="O" horiz-adv-x="2997" 
d="M108 1430q0 225 46.5 422.5t132.5 363t210 296.5t278 221.5t336.5 138.5t386.5 48t386.5 -48t337 -138.5t278 -221.5t210 -296.5t133 -363.5t46.5 -422t-46.5 -422t-133 -363.5t-210 -296.5t-278 -221.5t-337 -138.5t-386.5 -48t-386.5 48t-336.5 138.5t-278 221.5
t-210 296.5t-132.5 363.5t-46.5 422zM744 1430q0 -229 50.5 -406t146.5 -297.5t236.5 -182.5t320.5 -62t320.5 62t237 182.5t147 297.5t50.5 406t-50.5 406t-147 297.5t-237 182.5t-320.5 62t-320.5 -62t-236.5 -182.5t-146.5 -297.5t-50.5 -406z" />
    <glyph glyph-name="P" unicode="P" horiz-adv-x="2693" 
d="M138 2860h1354q161 0 305 -31.5t265 -90.5t218 -143.5t165 -190.5t104 -231.5t36 -266.5t-36.5 -266.5t-104 -232t-164.5 -191.5t-218.5 -144.5t-265 -91t-304.5 -31.5h-722v-949h-632v2860zM1458 1471q115 0 207 30t156 86t98 136.5t34 182.5q0 101 -34 181t-97 136
t-154 85.5t-205 29.5h-693v-867h688z" />
    <glyph glyph-name="Q" unicode="Q" horiz-adv-x="2996" 
d="M108 1430q0 225 46.5 422.5t132.5 363t210 296.5t278 221.5t336.5 138.5t386.5 48t386.5 -48t336.5 -138.5t278 -221.5t210 -296.5t132.5 -363.5t46.5 -422q0 -213 -42 -402t-120 -349.5t-190 -289.5t-253 -223l536 -590h-650l-327 402q-166 -38 -344 -38
q-204 0 -386.5 48t-336.5 138.5t-278 221.5t-210 296.5t-132.5 363.5t-46.5 422zM732 1430q0 -229 52 -406t151 -297.5t241 -182.5t322 -62t322 62t241 182.5t151 297.5t52 406t-52 406t-151 297.5t-241 182.5t-322 62t-322 -62t-241 -182.5t-151 -297.5t-52 -406z" />
    <glyph glyph-name="R" unicode="R" horiz-adv-x="2741" 
d="M138 0v2861h1415q241 0 432.5 -61t325 -173.5t204.5 -272.5t71 -358q0 -173 -56 -314.5t-159.5 -243t-250 -159t-327.5 -63.5q171 -12 301.5 -125.5t224.5 -324.5l344 -766h-701l-347 765q-38 84 -77 139.5t-88 88.5t-112.5 46t-152.5 13h-415v-1052h-632zM1480 1562
q112 0 200 26.5t148.5 77t92.5 124t32 167.5q0 186 -122 284t-352 98h-709v-777h710z" />
    <glyph glyph-name="S" unicode="S" horiz-adv-x="2677" 
d="M1323 2920q276 0 496.5 -66t375 -190.5t237.5 -303t83 -402.5h-606q0 104 -42.5 186.5t-120.5 141t-187 89.5t-243 31q-111 0 -215.5 -22.5t-185 -67.5t-129 -113t-48.5 -158q0 -85 41.5 -138.5t123 -87.5t202 -56t277.5 -45l117 -17q90 -13 185 -28.5t190 -38t186.5 -53
t173.5 -74.5t151 -103.5t119.5 -138.5t78.5 -180t28 -228q0 -225 -89.5 -396.5t-254 -287t-397.5 -174.5t-520 -59q-309 0 -548 67t-402.5 194t-248.5 310.5t-85 416.5h606q0 -111 46.5 -199t134 -149t212.5 -93.5t281 -32.5q133 0 249.5 24t203 73t136.5 122t50 171
q0 93 -42 150.5t-122.5 92.5t-196 55.5t-262.5 41.5l-151 22q-118 17 -245 37.5t-249 55.5t-232 89t-193 138t-131.5 202t-48.5 281q0 149 42 274t119.5 226.5t187 178t244 128.5t291 78t327.5 26z" />
    <glyph glyph-name="T" unicode="T" horiz-adv-x="2474" 
d="M2441 2322h-888v-2322h-632v2322h-888v538h2408v-538z" />
    <glyph glyph-name="U" unicode="U" horiz-adv-x="2772" 
d="M138 2860h632v-1656q0 -365 159 -543.5t457 -178.5q149 0 263.5 44.5t193 134t119 225t40.5 318.5v1656h632v-1700q0 -192 -41 -357.5t-118 -301t-187.5 -240t-249 -176t-303 -108.5t-349.5 -37t-349.5 37t-303.5 108.5t-249 176t-187 240t-118 301t-41 357.5v1700z" />
    <glyph glyph-name="V" unicode="V" horiz-adv-x="2754" 
d="M2751 2860l-938 -2860h-886l-924 2860h674l701 -2400l713 2400h660z" />
    <glyph glyph-name="W" unicode="W" horiz-adv-x="4370" 
d="M2611 2860l495 -2451l537 2451h649l-714 -2860h-894l-499 2360l-507 -2360h-894l-705 2860h674l530 -2451l503 2451h825z" />
    <glyph glyph-name="X" unicode="X" horiz-adv-x="2786" 
d="M1802 1456l961 -1456h-742l-661 1056l-642 -1056h-695l922 1454l-872 1406h738l585 -1011l605 1011h695z" />
    <glyph glyph-name="Y" unicode="Y" horiz-adv-x="2735" 
d="M2742 2860l-1062 -1820v-1040h-632v1039l-1055 1821h698l679 -1236l689 1236h683z" />
    <glyph glyph-name="Z" unicode="Z" horiz-adv-x="2541" 
d="M871 538h1532v-538h-2265v568l1433 1754h-1383v538h2115v-568z" />
    <glyph glyph-name="bracketleft" unicode="[" horiz-adv-x="1168" 
d="M1100 3012v-452h-402v-2546h401v-452h-991v3450h992z" />
    <glyph glyph-name="backslash" unicode="\" horiz-adv-x="1807" 
d="M1665.01 -758l-950.942 3718h-584.964l950.941 -3718h584.965z" />
    <glyph glyph-name="bracketright" unicode="]" horiz-adv-x="1168" 
d="M68.0674 -437.816v451.973h401.976v2545.84h-400.976v451.973h990.939v-3449.79h-991.939z" />
    <glyph glyph-name="asciicircum" unicode="^" horiz-adv-x="1747" 
d="M873 2513l-312 -983h-423l452 1330h566l452 -1330h-423z" />
    <glyph glyph-name="underscore" unicode="_" horiz-adv-x="2279" 
d="M2141 -420h-2003v420h2003v-420z" />
    <glyph glyph-name="grave" unicode="`" horiz-adv-x="1106" 
d="M138 2934h528l302 -639h-384z" />
    <glyph glyph-name="a" unicode="a" horiz-adv-x="2382" 
d="M133 1397q0 201 73.5 361.5t211 273t333.5 173t442 60.5q252 0 451 -64.5t337 -187.5t210.5 -301t72.5 -404v-1308h-599v564q-37 -145 -113.5 -260.5t-185 -196.5t-247 -124t-300.5 -43q-169 0 -307.5 46.5t-237 132t-152.5 205.5t-54 267q0 157 62.5 280.5t180 209
t287.5 131t386 45.5h681v51q0 114 -33 204t-95 152.5t-152.5 95.5t-205.5 33q-116 0 -200.5 -27.5t-140 -78.5t-82 -124.5t-26.5 -165.5h-597zM1046 893q-187 0 -283 -62.5t-96 -183.5q0 -126 100.5 -193.5t287.5 -67.5q132 0 243.5 33.5t193 92.5t127.5 140t46 176v65h-619
z" />
    <glyph glyph-name="b" unicode="b" horiz-adv-x="2442" 
d="M727 1537q37 174 104 309.5t161.5 228.5t215 141.5t262.5 48.5q131 0 248 -38.5t216 -110.5t177.5 -175.5t134 -232.5t85 -281.5t29.5 -323.5t-29.5 -323.5t-85 -282t-134.5 -232.5t-178 -175.5t-215.5 -111t-247.5 -38.5q-142 0 -262.5 49t-215 142t-161.5 228.5
t-104 309.5v-669h-599v2960h599v-1423zM727 1103q0 -155 34.5 -275.5t101 -203t163.5 -125.5t221 -43q251 0 380.5 164t129.5 483t-130 482.5t-381 163.5q-124 0 -220.5 -43t-163 -125.5t-101 -202.5t-34.5 -275z" />
    <glyph glyph-name="c" unicode="c" horiz-adv-x="2341" 
d="M685 1103q0 -153 35 -272.5t101 -201t162 -124.5t218 -43q102 0 180.5 30.5t135 84.5t92 129t52.5 165h598q-26 -205 -111.5 -376t-222.5 -294.5t-320.5 -192t-404.5 -68.5q-165 0 -312 37.5t-271 108t-223 172t-168.5 231t-106.5 284t-37 330.5t37 330.5t106.5 283.5
t168.5 231t223 172.5t271 107.5t312 37q221 0 404.5 -68.5t320.5 -192t222.5 -294.5t111.5 -376h-597q-17 90 -53 165t-92.5 129.5t-135 84.5t-180.5 30q-122 0 -218 -42.5t-162 -124.5t-101 -201t-35 -272z" />
    <glyph glyph-name="d" unicode="d" horiz-adv-x="2442" 
d="M2314 2960v-2960h-599v669q-37 -174 -104 -309.5t-161.5 -228.5t-214.5 -142t-262 -49q-131 0 -248 38.5t-216 111t-178 175.5t-134.5 232.5t-85 282t-29.5 323.5t29.5 323.5t85 281.5t134.5 232.5t178 175.5t216 110.5t248 38.5q142 0 262 -48.5t214.5 -141.5
t161.5 -228.5t104 -309.5v1423h599zM1715 1103q0 155 -34.5 275t-101 202.5t-163 125.5t-220.5 43q-251 0 -381 -163.5t-130 -482.5t130 -483t381 -164q124 0 220.5 43t163 125.5t101 203t34.5 275.5z" />
    <glyph glyph-name="e" unicode="e" horiz-adv-x="2346" 
d="M2254 747q-45 -188 -140.5 -337.5t-232.5 -254t-310.5 -160t-374.5 -55.5q-166 0 -313.5 38t-271 109.5t-222 174.5t-166.5 232.5t-104.5 283t-36.5 327.5q0 173 36 326.5t103.5 282.5t164.5 231t219.5 173t268.5 109t310 38q245 0 444 -82.5t340.5 -234t218.5 -365
t77 -475.5q0 -40 -1.5 -80.5t-6.5 -82.5h-1596q15 -124 59 -221.5t115 -165t166.5 -103.5t212.5 -36q347 0 478 328h563zM1689 1315q-38 238 -164.5 358.5t-337.5 120.5q-108 0 -196 -32t-154 -93t-109 -150.5t-61 -203.5h1022z" />
    <glyph glyph-name="f" unicode="f" horiz-adv-x="1685" 
d="M345 1729h-297v476h297v62q0 201 55.5 354.5t163.5 257.5t267 157.5t367 53.5q91 0 190.5 -9.5t202.5 -29.5v-462q-160 29 -284 29q-201 0 -296 -87.5t-95 -270.5v-55h676v-476h-648v-1729h-599v1729z" />
    <glyph glyph-name="g" unicode="g" horiz-adv-x="2442" 
d="M2314 2205v-1909q0 -255 -76 -461t-217 -351t-342 -223.5t-452 -78.5q-153 0 -290 28.5t-252.5 82t-208 130t-157.5 172.5t-99.5 210t-34.5 241h597q0 -89 32.5 -162.5t91 -126t138.5 -81.5t176 -29q116 0 208 44.5t155.5 128t97.5 203t34 269.5v492
q-37 -163 -104.5 -290t-162.5 -214.5t-216.5 -133.5t-265.5 -46q-129 0 -245 36t-214 104t-177 165t-134 218t-84.5 264.5t-29.5 303.5q0 161 29.5 302.5t84.5 261t134 214t177 160.5t214 101t245 35q144 0 265.5 -44t216.5 -129.5t162.5 -210.5t104.5 -286v610h599z
M1715 1191q0 137 -35 241t-102 174.5t-165 106.5t-224 36q-246 0 -375 -137.5t-129 -420.5q0 -284 128 -429.5t376 -145.5q126 0 224 38.5t165 112t102 180.5t35 244z" />
    <glyph glyph-name="h" unicode="h" 
d="M727 0h-599v2960h599v-1418q35 175 103 310t166 226.5t225.5 139t280.5 47.5q178 0 314.5 -64t229.5 -189t140.5 -308.5t47.5 -422.5v-1281h-599v1181q0 562 -428 562q-115 0 -204 -38.5t-150.5 -112.5t-93.5 -183.5t-32 -251.5v-1157z" />
    <glyph glyph-name="i" unicode="i" horiz-adv-x="855" 
d="M733 2436h-611v524h611v-524zM727 0h-599v2205h599v-2205z" />
    <glyph glyph-name="j" unicode="j" horiz-adv-x="855" 
d="M733 2436h-611v524h611v-524zM727 156q0 -258 -52 -442.5t-163 -302.5t-283.5 -173.5t-414.5 -55.5h-80v496h65q78 0 132.5 18t91 49t57.5 72t31.5 87t13.5 94t3 92v2115h599v-2049z" />
    <glyph glyph-name="k" unicode="k" horiz-adv-x="2369" 
d="M1225 1093l1111 -1093h-764l-845 849v-849h-599v2960h599v-1684l817 929h707z" />
    <glyph glyph-name="l" unicode="l" horiz-adv-x="855" 
d="M727 0h-599v2960h599v-2960z" />
    <glyph glyph-name="m" unicode="m" horiz-adv-x="3703" 
d="M727 0h-599v2205h599v-649q34 172 98.5 304t157.5 222t213 136.5t265 46.5q299 0 471.5 -196t211.5 -574q30 186 93.5 329.5t158 241.5t219 148.5t275.5 50.5q170 0 299.5 -64t217.5 -189t133 -308.5t45 -422.5v-1281h-599v1181q0 562 -392 562q-105 0 -186.5 -38.5
t-137.5 -112.5t-85 -183.5t-29 -251.5v-1157h-599v1181q0 562 -392 562q-105 0 -186.5 -38.5t-137.5 -112.5t-85 -183.5t-29 -251.5v-1157z" />
    <glyph glyph-name="n" unicode="n" 
d="M727 0h-599v2205h599v-663q35 175 103 310t166 226.5t225.5 139t280.5 47.5q178 0 314.5 -64t229.5 -189t140.5 -308.5t47.5 -422.5v-1281h-599v1181q0 562 -428 562q-115 0 -204 -38.5t-150.5 -112.5t-93.5 -183.5t-32 -251.5v-1157z" />
    <glyph glyph-name="o" unicode="o" horiz-adv-x="2400" 
d="M82 1103q0 176 37 330.5t106.5 283.5t168.5 231t223 172.5t271 107.5t312 37t312 -37t271 -107.5t223 -172.5t168.5 -231t106.5 -283.5t37 -330.5t-37 -330.5t-106.5 -284t-168.5 -231t-223 -172t-271 -108t-312 -37.5t-312 37.5t-271 108t-223 172t-168.5 231
t-106.5 284t-37 330.5zM685 1103q0 -153 35 -272.5t101 -201t162 -124.5t217 -43q122 0 217.5 42.5t161.5 124.5t101 201.5t35 272.5t-35 272.5t-101 201t-161.5 124t-217.5 42.5q-121 0 -217 -42.5t-162 -124.5t-101 -201t-35 -272z" />
    <glyph glyph-name="p" unicode="p" horiz-adv-x="2442" 
d="M727 1537q37 174 104 309.5t161.5 228.5t215 141.5t262.5 48.5q131 0 248 -38.5t216 -110.5t177.5 -175.5t134 -232.5t85 -281.5t29.5 -323.5t-29.5 -323.5t-85 -282t-134.5 -232.5t-178 -175.5t-215.5 -111t-247.5 -38.5q-142 0 -262.5 49t-215 142t-161.5 228.5
t-104 309.5v-1425h-599v2961h599v-668zM727 1103q0 -155 34.5 -275.5t101 -203t163.5 -125.5t221 -43q251 0 380.5 164t129.5 483t-130 482.5t-381 163.5q-124 0 -220.5 -43t-163 -125.5t-101 -202.5t-34.5 -275z" />
    <glyph glyph-name="q" unicode="q" horiz-adv-x="2442" 
d="M2314 2205v-2961h-599v1425q-37 -174 -104 -309.5t-161.5 -228.5t-214.5 -142t-262 -49q-131 0 -248 38.5t-216 111t-178 175.5t-134.5 232.5t-85 282t-29.5 323.5t29.5 323.5t85 281.5t134.5 232.5t178 175.5t216 110.5t248 38.5q142 0 262 -48.5t214.5 -141.5
t161.5 -228.5t104 -309.5v668h599zM1715 1103q0 155 -34.5 275t-101 202.5t-163 125.5t-220.5 43q-251 0 -381 -163.5t-130 -482.5t130 -483t381 -164q124 0 220.5 43t163 125.5t101 203t34.5 275.5z" />
    <glyph glyph-name="r" unicode="r" horiz-adv-x="1669" 
d="M727 0h-599v2205h599v-766q30 177 88.5 319t148.5 241t214 152.5t286 53.5h132v-564h-232q-184 0 -306.5 -38t-196 -116t-104 -197.5t-30.5 -282.5v-1007z" />
    <glyph glyph-name="s" unicode="s" horiz-adv-x="2242" 
d="M1084 2265q243 0 433.5 -53t322 -152.5t200 -241.5t68.5 -321h-591q0 77 -27 138t-80.5 104t-132 65.5t-180.5 22.5q-90 0 -165 -17t-128 -48t-82.5 -75t-29.5 -97q0 -65 38 -106.5t101.5 -68.5t146.5 -43.5t174 -31.5l147 -26q89 -15 188.5 -34.5t196.5 -50.5t186 -78
t157 -117t108 -167t40 -229q0 -166 -68.5 -296t-201 -219.5t-326 -136t-444.5 -46.5q-264 0 -464.5 52t-336 151.5t-204.5 246t-69 335.5h591q0 -166 118 -254.5t360 -88.5q106 0 190.5 16.5t143 48.5t90 78t31.5 104q0 71 -38 115.5t-104.5 74t-157.5 48.5t-197 38l-147 26
q-81 14 -175 33t-187 49t-179.5 75t-152.5 112.5t-105.5 160t-39.5 218.5q0 159 67 286t193.5 216t309 136.5t412.5 47.5z" />
    <glyph glyph-name="t" unicode="t" horiz-adv-x="1650" 
d="M1557 17q-277 -76 -494 -76q-364 0 -551.5 213.5t-187.5 634.5v940h-276v476h276v508h599v-508h634v-476h-634v-941q0 -190 70 -277.5t223 -87.5q62 0 145 13.5t196 42.5v-462z" />
    <glyph glyph-name="u" unicode="u" 
d="M1625 2205h599v-2205h-599v663q-35 -175 -103 -310t-166 -226.5t-225.5 -139t-280.5 -47.5q-178 0 -314.5 64t-229.5 189t-140.5 308.5t-47.5 422.5v1281h599v-1181q0 -282 106.5 -422t322.5 -140q114 0 203.5 38.5t150.5 113t93 183.5t32 251v1157z" />
    <glyph glyph-name="v" unicode="v" horiz-adv-x="2353" 
d="M2329 2205l-742 -2205h-830l-734 2205h630l527 -1823l533 1823h616z" />
    <glyph glyph-name="w" unicode="w" horiz-adv-x="3700" 
d="M2245 2205l401 -1794l424 1794h590l-574 -2205h-834l-403 1767l-403 -1767h-834l-574 2205h614l423 -1812l403 1812h767z" />
    <glyph glyph-name="x" unicode="x" horiz-adv-x="2505" 
d="M1697 1119l775 -1119h-696l-541 824l-526 -824h-658l741 1111l-733 1094h696l500 -807l491 807h658z" />
    <glyph glyph-name="y" unicode="y" 
d="M2329 2205l-841 -2267q-72 -197 -169.5 -339.5t-225.5 -235t-288 -137t-357 -44.5q-152 0 -316 28v484q69 -10 127 -14.5t109 -4.5q89 0 162 14.5t133 44.5t107.5 77t85.5 112l-833 2282h630l526 -1739l534 1739h616z" />
    <glyph glyph-name="z" unicode="z" horiz-adv-x="2153" 
d="M746 476h1324v-476h-1987v506l1228 1223h-1190v476h1872v-506z" />
    <glyph glyph-name="braceleft" unicode="{" horiz-adv-x="1528" 
d="M1460 2560h-110q-174 0 -257 -94t-83 -286v-298q0 -109 -19 -211t-64.5 -183t-121 -134.5t-188.5 -67.5q115 -13 190.5 -65.5t120.5 -133.5t63.5 -183.5t18.5 -216.5v-298q0 -187 83.5 -281t256.5 -94h110v-452h-203q-417 0 -627 207.5t-210 621.5v324q0 85 -15 146
t-47 100.5t-81.5 58t-118.5 18.5h-50v498h50q70 0 119.5 18t81 57t46.5 100.5t15 147.5v324q0 418 208 623.5t629 205.5h203v-452z" />
    <glyph glyph-name="bar" unicode="|" horiz-adv-x="831" 
d="M138 -370v3600h554v-3600h-554z" />
    <glyph glyph-name="braceright" unicode="}" horiz-adv-x="1528" 
d="M68.0889 14.1562h109.993q173.99 0 256.984 93.9941q82.9951 93.9941 82.9951 285.982v297.982q0 108.993 18.999 210.986q18.999 101.994 64.4961 182.989t120.992 134.492q75.4961 53.4961 188.489 67.4951q-114.993 13 -190.489 65.4961
q-75.4951 52.4971 -120.492 133.492t-63.4961 183.488q-18.499 102.494 -18.499 216.487v297.981q0 186.989 -83.4951 280.983q-83.4941 93.9941 -256.484 93.9941h-109.993v451.973h202.988q416.974 0 626.961 -207.487t209.987 -621.463v-323.979
q0 -84.9951 14.999 -145.991t46.9971 -100.494q31.998 -39.4971 81.4951 -57.9961t118.493 -18.499h49.9971v-497.97h-49.9971q-69.9961 0 -119.493 -17.999t-80.9951 -56.9961q-31.498 -38.998 -46.4971 -100.494t-14.999 -147.491v-323.98q0 -417.974 -207.987 -623.462
q-207.987 -205.487 -628.961 -205.487h-202.988v451.973z" />
    <glyph glyph-name="asciitilde" unicode="~" horiz-adv-x="2371" 
d="M2233 2286q0 -259 -27 -439t-87.5 -292.5t-157 -163.5t-235.5 -51q-97 0 -186 22t-167 54t-144 69.5t-118 68.5l-85 50q-40 24 -82.5 49t-87 45.5t-89 33t-88.5 12.5q-50 0 -85.5 -20.5t-58 -65.5t-33 -115t-10.5 -169v-14h-354v18q0 246 30.5 424.5t94 294t161 171
t232.5 55.5q84 0 161.5 -19.5t146.5 -49t129.5 -65t111.5 -67.5l87 -53q40 -24 85.5 -50t95.5 -48t102.5 -36.5t106.5 -14.5q55 0 92.5 18.5t61 59.5t34 108t10.5 164v34h353v-18z" />
    <glyph glyph-name="exclamdown" unicode="&#xa1;" horiz-adv-x="902" 
d="M737 -654.825v494.97l-47 1444.91h-480l-45 -1444.91v-494.97h572zM760 2205h-618v-643.961h618v643.961z" />
    <glyph glyph-name="cent" unicode="&#xa2;" horiz-adv-x="2341" 
d="M685 1103q0 -153 35 -272.5t101 -201t162 -124.5t218 -43q102 0 180.5 30.5t135 84.5t92 129t52.5 165h598q-22 -178 -90 -330.5t-175.5 -271t-251.5 -198.5t-319 -111l35 -461h-516l36 459q-202 34 -367 130t-282.5 244t-182 343t-64.5 428t64.5 428t182 342.5
t283 243.5t367.5 130l-37 458h516l-36 -459q175 -32 319.5 -111.5t252 -198t175.5 -271.5t90 -331h-597q-17 90 -53 165t-92.5 129.5t-135 84.5t-180.5 30q-122 0 -218 -42.5t-162 -124.5t-101 -201t-35 -272z" />
    <glyph glyph-name="sterling" unicode="&#xa3;" horiz-adv-x="2741" 
d="M1999 1958v64q0 85 -38 155t-107 119.5t-166 76.5t-216 27q-125 0 -222.5 -30.5t-165 -89t-102.5 -143t-35 -192.5q0 -87 21.5 -186.5t56.5 -213.5l8 -25h1118v-432h-1008q2 -24 3.5 -48t1.5 -49q0 -88 -21 -167.5t-61 -144t-98.5 -110t-132.5 -65.5h1798v-504h-2495v504
h256q134 0 198 65t64 202q0 68 -16 144t-49 173h-453v432h295q-38 112 -63.5 233.5t-25.5 243.5q0 137 37 258.5t106.5 224t169 184t224.5 138.5t273.5 87.5t314.5 30.5t314 -30t274 -86t227 -135.5t172 -179t109 -216.5t38 -248v-67h-604z" />
    <glyph glyph-name="currency" unicode="&#xa4;" horiz-adv-x="3123" 
d="M138 2860h2847v-2860h-2847v2860zM1561 1679l744 816h-1486zM553 574l781 856l-781 857v-1713zM2570 571v1715l-781 -856zM818 365h1484l-741 815z" />
    <glyph glyph-name="yen" unicode="&#xa5;" horiz-adv-x="2735" 
d="M2377 1310h-540l-140 -240h680v-398h-697v-672h-632v672h-696v398h678l-139 240h-539v398h308l-667 1152h698l679 -1236l689 1236h683l-672 -1152h307v-398z" />
    <glyph glyph-name="brokenbar" unicode="&#xa6;" horiz-adv-x="831" 
d="M138 1670v1560h554v-1560h-554zM138 -370v1560h554v-1560h-554z" />
    <glyph glyph-name="section" unicode="&#xa7;" horiz-adv-x="2242" 
d="M1085 2920q243 0 433.5 -53t321.5 -152.5t200 -241.5t69 -320h-592q0 77 -27 137.5t-80 103.5t-131.5 65.5t-181.5 22.5q-90 0 -164.5 -17t-128 -48t-83 -75t-29.5 -97q0 -65 38 -106.5t101.5 -68t146.5 -43.5t174 -32l148 -25q89 -15 188 -34.5t196.5 -51t186 -78
t156.5 -117t108 -167.5t40 -228q0 -137 -47 -247t-139 -195q84 -72 135 -177.5t51 -254.5q0 -167 -68.5 -297t-200.5 -219t-326 -135.5t-445 -46.5q-264 0 -464.5 51.5t-336 151.5t-204.5 246t-69 335h591q0 -166 118 -254t361 -88q106 0 190.5 16.5t143 48.5t89.5 78
t31 104q0 70 -37.5 115t-104 74.5t-157.5 48.5t-197 38l-148 26q-81 14 -175 33t-187 49t-179.5 75t-152.5 112t-105.5 160t-39.5 218q0 138 51 250t149 197q-45 35 -81.5 78t-63 95.5t-41 115.5t-14.5 138q0 159 67.5 286t194 216t309 136.5t412.5 47.5zM927 1589
q-108 -25 -171.5 -81.5t-63.5 -136.5q0 -65 38 -106.5t101.5 -68t146.5 -43.5t174 -32l148 -25q24 -4 48.5 -8t50.5 -9q88 29 137 81t49 124q0 71 -37.5 116t-104 74.5t-157.5 48.5t-197 37l-148 26q-4 1 -14 3z" />
    <glyph glyph-name="dieresis" unicode="&#xa8;" horiz-adv-x="1441" 
d="M633 2338h-495v515h495v-515zM1302 2338h-495v515h495v-515z" />
    <glyph glyph-name="copyright" unicode="&#xa9;" horiz-adv-x="3797" 
d="M1913 3218q252 0 481.5 -61.5t426.5 -174.5t357.5 -273t273.5 -357t174.5 -426.5t61.5 -481.5q0 -254 -62.5 -487t-178 -433.5t-277.5 -364t-361.5 -279t-431 -178.5t-484.5 -63q-251 0 -481 62.5t-428.5 177t-360 276t-275.5 359.5t-176.5 428.5t-62.5 481.5
q0 253 63 484.5t178.5 430.5t278.5 361.5t363.5 277.5t433.5 177.5t487 62.5zM1910 2849q-202 0 -384.5 -48t-338.5 -137.5t-281 -217t-213 -285.5t-135.5 -343t-47.5 -390q0 -204 47 -388.5t134 -342.5t210.5 -285.5t276.5 -217t332 -138t377 -48.5q200 0 381.5 49.5
t337.5 141t281.5 221.5t214.5 290.5t137 347.5t48 394q0 203 -46.5 385t-133 337.5t-209 280t-275.5 212.5t-333 135t-380 47zM1529 1428q0 -123 27 -219t78 -161.5t125.5 -99.5t169.5 -34q81 0 143.5 24t108.5 68t75 106.5t42 138.5h442q-18 -159 -83.5 -292t-171 -228.5
t-247 -149t-312.5 -53.5q-186 0 -341.5 64t-267 181.5t-173.5 284t-62 370.5t62 370.5t173.5 284t266.5 181.5t342 64q171 0 312.5 -53.5t247 -149t171 -228.5t83.5 -292h-442q-13 77 -42 139t-75 106t-108.5 68t-143.5 24q-95 0 -169.5 -34t-125.5 -99.5t-78 -161
t-27 -219.5z" />
    <glyph glyph-name="ordfeminine" unicode="&#xaa;" horiz-adv-x="1704" 
d="M180 2356q0 131 48 235.5t137 177.5t217 112.5t287 39.5q164 0 293.5 -42t219 -122t136.5 -195.5t47 -262.5v-851h-407v366q-24 -94 -73 -169t-118.5 -127.5t-157.5 -80.5t-191 -28q-108 0 -196.5 30.5t-151.5 86t-97.5 133.5t-34.5 173q0 102 40.5 182.5t117 136t187 85
t250.5 29.5h425v18q0 73 -20 131t-58 98.5t-93 62t-126 21.5q-142 0 -208 -64.5t-66 -175.5h-407zM786 2011q-118 0 -179 -36.5t-61 -107.5q0 -72 61 -111t174 -39q82 0 151 20t119.5 56t78.5 85t28 107v26h-372z" />
    <glyph glyph-name="guillemotleft" unicode="&#xab;" horiz-adv-x="3083" 
d="M1150 2098h680l-1034 -995l1034 -994h-680l-1011 992zM2334 2098h680l-1034 -995l1034 -994h-680l-1011 992z" />
    <glyph glyph-name="logicalnot" unicode="&#xac;" horiz-adv-x="3123" 
d="M138 2860h2847v-2860h-2847v2860zM1561 1679l744 816h-1486zM553 574l781 856l-781 857v-1713zM2570 571v1715l-781 -856zM818 365h1484l-741 815z" />
    <glyph glyph-name="registered" unicode="&#xae;" horiz-adv-x="3797" 
d="M1913 3218q252 0 481.5 -61.5t426.5 -174.5t357.5 -273t273.5 -357.5t174.5 -426.5t61.5 -481q0 -254 -62.5 -487t-178 -433.5t-277.5 -364t-361.5 -279t-431 -178.5t-484.5 -63q-251 0 -481 62.5t-428.5 177t-360 276t-275.5 360t-176.5 428.5t-62.5 482q0 253 63 484
t178.5 430t278.5 361.5t363.5 277.5t433.5 177.5t487 62.5zM1910 2849q-202 0 -384.5 -48t-338 -137.5t-281 -217t-213.5 -285.5t-135.5 -343t-47.5 -390q0 -204 47 -388.5t134 -342.5t210.5 -285.5t276.5 -217t332 -138t377 -48.5q200 0 381.5 49.5t337.5 141t281.5 221.5
t214.5 290.5t137 347.5t48 394q0 203 -46.5 385t-133 337.5t-209 280t-275.5 212.5t-333 135t-380 47zM1214 585v1668h856q141 0 254.5 -35t193 -101t122.5 -159.5t43 -210.5q0 -100 -34 -182.5t-95.5 -143t-148.5 -95.5t-193 -39q206 -14 317 -259l198 -443h-483l-200 419
q-23 48 -44.5 79t-47 48.5t-57 24t-74.5 6.5h-164v-577h-443zM1976 1518q126 0 195 47t69 134q0 85 -68 130t-196 45h-319v-356h319z" />
    <glyph glyph-name="macron" unicode="&#xaf;" horiz-adv-x="1380" 
d="M1242 2420h-1104v336h1104v-336z" />
    <glyph glyph-name="degree" unicode="&#xb0;" horiz-adv-x="1382" 
d="M109 2346q0 125 43.5 230t121 181.5t184.5 119.5t233 43q127 0 233.5 -43t184 -119.5t121 -181.5t43.5 -230t-43.5 -230t-121 -181.5t-184 -119.5t-233.5 -43q-126 0 -233 43t-184.5 119.5t-121 181.5t-43.5 230zM445 2346q0 -63 17 -113t49 -85t78 -53.5t103 -18.5
q115 0 180 71.5t65 198.5t-65 198.5t-180 71.5q-58 0 -103.5 -18.5t-77.5 -53t-49 -85t-17 -113.5z" />
    <glyph glyph-name="plusminus" unicode="&#xb1;" horiz-adv-x="2152" 
d="M822 508v704h-684v468h684v704h508v-704h684v-468h-684v-704h-508zM138 0v468h1876v-468h-1876z" />
    <glyph glyph-name="twosuperior" unicode="&#xb2;" horiz-adv-x="1464" 
d="M138 1431v213q0 87 21 153.5t56 117t80.5 86t95 61t99.5 43t93 31.5l125 41q45 14 92.5 32t87 45t65 67t25.5 98q0 91 -63 140t-178 49q-125 0 -184.5 -61t-59.5 -188v-27h-348v33q0 128 42 230.5t120.5 174.5t190 111t249.5 39q133 0 240 -36t182.5 -102.5t116 -161
t40.5 -212.5q0 -88 -21.5 -154.5t-57.5 -115.5t-83 -83.5t-97.5 -58.5t-101.5 -40.5t-94 -28.5l-116 -32q-37 -11 -76.5 -24t-75 -31t-63.5 -43t-42 -60h823v-306h-1183z" />
    <glyph glyph-name="threesuperior" unicode="&#xb3;" horiz-adv-x="1540" 
d="M138 2420q0 119 40 212t116.5 157t188.5 97.5t255 33.5q134 0 243.5 -29t187 -81.5t120 -126.5t42.5 -165q0 -67 -23 -124.5t-64 -100.5t-98 -70t-126 -34q89 -5 160 -31t120 -70t75 -105t26 -136q0 -99 -44.5 -179.5t-127 -138t-198 -88.5t-258.5 -31q-150 0 -268 35
t-199.5 102.5t-124.5 165t-43 222.5v4h340v-15q0 -100 72 -151.5t212 -51.5q137 0 214.5 49t77.5 137q0 34 -13 58t-42.5 39t-76.5 21.5t-115 6.5h-216v288h204q100 0 146.5 31.5t46.5 97.5q0 78 -66 119t-193 41q-128 0 -186.5 -44t-58.5 -140v-7h-346v2z" />
    <glyph glyph-name="acute" unicode="&#xb4;" horiz-adv-x="1106" 
d="M968.009 2934h-527.968l-301.982 -639h383.977z" />
    <glyph glyph-name="paragraph" unicode="&#xb6;" horiz-adv-x="2964" 
d="M2826 -758h-594v3618h594v-3618zM1899 -758h-594v1616h-78q-163 0 -307.5 32.5t-265.5 93.5t-216.5 149t-162 199.5t-102 244t-35.5 282.5t35.5 282.5t102 244t162 199.5t216.5 149t265.5 93.5t307.5 32.5h672v-3618z" />
    <glyph glyph-name="periodcentered" unicode="&#xb7;" horiz-adv-x="894" 
d="M756 875h-618v644h618v-644z" />
    <glyph glyph-name="cedilla" unicode="&#xb8;" horiz-adv-x="1057" 
d="M461 8l-29 -161q113 -2 203 -23.5t153 -60.5t97 -94t34 -123q0 -74 -39 -134t-110 -103t-171 -66.5t-222 -23.5q-112 0 -238 21v248q111 -21 202 -21q119 0 184.5 30.5t65.5 79.5q0 60 -96.5 97t-286.5 37l53 297h200z" />
    <glyph glyph-name="onesuperior" unicode="&#xb9;" horiz-adv-x="1110" 
d="M760 1734h211v-303h-773v303h210v663h-270v286h104q62 0 102.5 9t65 29.5t34.5 55t10 85.5h306v-1128z" />
    <glyph glyph-name="ordmasculine" unicode="&#xba;" horiz-adv-x="1730" 
d="M138 2165q0 171 53.5 310.5t149.5 238.5t230 152.5t294 53.5q161 0 294.5 -53.5t229.5 -152.5t149.5 -238.5t53.5 -310.5q0 -172 -53.5 -311.5t-149.5 -238.5t-229.5 -152.5t-294.5 -53.5q-160 0 -294 53.5t-230 152.5t-149.5 238.5t-53.5 311.5zM548 2165
q0 -95 21.5 -169.5t62.5 -125.5t100 -77.5t134 -26.5t133.5 26.5t99 77.5t62 125.5t21.5 169.5t-21 169t-61.5 125t-99.5 77.5t-134 26.5t-134 -26.5t-100 -77.5t-62.5 -125t-21.5 -169z" />
    <glyph glyph-name="guillemotright" unicode="&#xbb;" horiz-adv-x="3083" 
d="M1934.07 109.128h-679.959l1033.94 994.939l-1033.94 993.939h679.959l1010.94 -991.939zM750.143 109.128h-679.959l1033.94 994.939l-1033.94 993.939h679.959l1010.94 -991.939z" />
    <glyph glyph-name="onequarter" unicode="&#xbc;" horiz-adv-x="2902" 
d="M760 1733h211v-303h-773v303h210v663h-270v286h104q62 0 102.5 9t65 29.5t34.5 55t10 85.5h306v-1128zM2216 0v305h-772v326l711 799h419v-826h190v-299h-190v-305h-358zM2216 604v464l-411 -464h411zM251 0l2084 2960h394l-2084 -2960h-394z" />
    <glyph glyph-name="onehalf" unicode="&#xbd;" horiz-adv-x="3041" 
d="M244 0l2084 2960h394l-2084 -2960h-394zM1714 0v213q0 87 21 153.5t56 117t80.5 86t95 61t99.5 43t93 31.5l125 41q45 14 92.5 32t87 45t65 67t25.5 98q0 91 -63 140t-178 49q-125 0 -184.5 -61t-59.5 -188v-27h-348v33q0 128 42 230.5t120.5 174.5t190 111t249.5 39
q133 0 240 -36t182.5 -102.5t116 -161t40.5 -212.5q0 -88 -21.5 -154.5t-57.5 -115.5t-83 -83.5t-97.5 -58.5t-101.5 -40.5t-94 -28.5l-116 -32q-37 -11 -76.5 -24t-75 -31t-63.5 -43t-42 -60h823v-306h-1183zM760 1734h211v-303h-773v303h210v663h-270v286h104
q62 0 102.5 9t65 29.5t34.5 55t10 85.5h306v-1128z" />
    <glyph glyph-name="threequarters" unicode="&#xbe;" horiz-adv-x="3115" 
d="M2428 0v305h-772v326l711 799h419v-826h190v-299h-190v-305h-358zM2428 604v464l-411 -464h411zM138 2420q0 119 40 212t116.5 157t188.5 97.5t255 33.5q134 0 243.5 -29t187 -81.5t120 -126.5t42.5 -165q0 -67 -23 -124.5t-64 -100.5t-98 -70t-126 -34q89 -5 160 -31
t120 -70t75 -105t26 -136q0 -99 -44.5 -179.5t-127 -138t-198 -88.5t-258.5 -31q-150 0 -268 35t-199.5 102.5t-124.5 165t-43 222.5v4h340v-15q0 -100 72 -151.5t212 -51.5q137 0 214.5 49t77.5 137q0 34 -13 58t-42.5 39t-76.5 21.5t-115 6.5h-216v288h204
q100 0 146.5 31.5t46.5 97.5q0 78 -66 119t-193 41q-128 0 -186.5 -44t-58.5 -140v-7h-346v2zM464 0l2084 2960h394l-2084 -2960h-394z" />
    <glyph glyph-name="questiondown" unicode="&#xbf;" horiz-adv-x="2498" 
d="M1079.09 1345.05h547.966v-149.991q0 -97.9941 -20.998 -175.489q-20.999 -77.4951 -56.9971 -138.491q-35.9971 -60.9961 -83.9941 -108.493q-47.9971 -47.498 -100.994 -84.4951q-52.9971 -36.998 -108.493 -66.4961q-55.4971 -29.498 -107.494 -55.4971
l-78.9951 -39.9971q-59.9961 -29.998 -116.992 -60.9961q-56.9971 -30.998 -100.994 -70.9961q-43.9971 -39.9971 -70.4961 -93.4941q-26.498 -53.4971 -26.498 -128.492q0 -82.9951 37.998 -150.491q37.9971 -67.4951 106.993 -114.992t166.49 -73.4961
q97.4932 -25.998 216.486 -25.998q129.992 0 230.486 32.998q100.493 32.998 168.989 100.494q68.4961 67.4951 103.994 170.989q35.4971 103.493 35.4971 244.485v45.9971h607.963v-59.9971q0 -264.983 -75.4951 -463.472q-75.4951 -198.487 -222.486 -330.479
t-363.978 -197.488q-216.987 -65.4961 -499.97 -65.4961q-268.983 0 -478.971 57.9971q-209.987 57.9961 -354.479 169.989t-219.986 273.983t-75.4951 370.978q0 124.992 25.998 222.986t68.9961 173.489q42.9971 75.4951 99.4932 131.492q56.4971 55.9961 118.493 98.4941
q61.9961 42.4971 124.492 73.9951t117.493 56.4971l74.9951 34.9971q58.9961 26.999 114.993 55.4971q55.9961 28.498 99.4941 63.9961q43.4971 35.498 69.9951 79.4951q26.499 43.9971 26.499 102.994v92.9941zM1044.09 2205h617.962v-643.961h-617.962v643.961z" />
    <glyph glyph-name="Agrave" unicode="&#xc0;" horiz-adv-x="2850" 
d="M3 0l986 2860h886l972 -2860h-674l-191 629h-1125l-194 -629h-660zM1825 1145l-401 1317l-407 -1317h808zM787 3649h528l302 -639h-384z" />
    <glyph glyph-name="Aacute" unicode="&#xc1;" horiz-adv-x="2850" 
d="M3 0l986 2860h886l972 -2860h-674l-191 629h-1125l-194 -629h-660zM1825 1145l-401 1317l-407 -1317h808zM2063.01 3649h-527.968l-301.982 -639h383.977z" />
    <glyph glyph-name="Acircumflex" unicode="&#xc2;" horiz-adv-x="2850" 
d="M3 0l986 2860h886l972 -2860h-674l-191 629h-1125l-194 -629h-660zM1825 1145l-401 1317l-407 -1317h808zM1613 3010l-186 341l-190 -341h-360l300 639h496l300 -639h-360z" />
    <glyph glyph-name="Atilde" unicode="&#xc3;" horiz-adv-x="2850" 
d="M3 0l986 2860h886l972 -2860h-674l-191 629h-1125l-194 -629h-660zM1825 1145l-401 1317l-407 -1317h808zM2027 3597q0 -144 -18.5 -249t-58 -172.5t-100 -100t-144.5 -32.5q-50 0 -93 10.5t-79 25.5t-64.5 32.5t-50.5 31.5l-55 34q-15 9 -33.5 20t-39.5 20.5t-44.5 16
t-48.5 6.5q-53 0 -79.5 -38.5t-26.5 -132.5v-7h-223v10q0 284 81.5 421.5t250.5 137.5q46 0 85 -9t71 -22.5t57.5 -29t44.5 -27.5l55 -35q16 -10 37.5 -23t47 -24t53.5 -19t57 -8q49 0 74 36.5t25 126.5v16h219v-16z" />
    <glyph glyph-name="Adieresis" unicode="&#xc4;" horiz-adv-x="2850" 
d="M3 0l986 2860h886l972 -2860h-674l-191 629h-1125l-194 -629h-660zM1825 1145l-401 1317l-407 -1317h808zM1338 3053h-495v515h495v-515zM2007 3053h-495v515h495v-515z" />
    <glyph glyph-name="Aring" unicode="&#xc5;" horiz-adv-x="2850" 
d="M3 0l986 2860h886l972 -2860h-674l-191 629h-1125l-194 -629h-660zM1825 1145l-401 1317l-407 -1317h808zM979 3447q0 98 32.5 178.5t91 137.5t140 88t178.5 31t178 -31.5t139.5 -88.5t91 -137t32.5 -178t-32.5 -178.5t-91 -137.5t-139.5 -88.5t-178 -31.5t-178.5 31
t-140 88t-91 137.5t-32.5 179.5zM1244 3447q0 -93 48.5 -144.5t128.5 -51.5q79 0 128 51.5t49 144.5t-48.5 144t-128.5 51t-128.5 -51.5t-48.5 -143.5z" />
    <glyph glyph-name="AE" unicode="&#xc6;" horiz-adv-x="3708" 
d="M3 0l1204 2860h2395v-538h-1344v-638h1228v-510h-1228v-636h1380v-538h-2012v599h-722l-233 -599h-668zM1626 1115v1339l-521 -1339h521z" />
    <glyph glyph-name="Ccedilla" unicode="&#xc7;" horiz-adv-x="2940" 
d="M744 1430q0 -229 50.5 -406t146.5 -297.5t236.5 -182.5t320.5 -62q289 0 463 167t231 501h628q-27 -188 -85.5 -351t-146 -297.5t-201.5 -239t-252 -176t-298.5 -109t-339.5 -37.5q-204 0 -386 48t-336.5 138.5t-278 221.5t-209.5 296.5t-132.5 363.5t-46.5 422
q0 225 46.5 422.5t132.5 363t209.5 296.5t278 221.5t336.5 138.5t386 48q179 0 339.5 -37.5t298.5 -109t252 -176t201.5 -239t146 -297.5t85.5 -351h-628q-57 333 -232 500.5t-462 167.5q-180 0 -320.5 -62t-236.5 -182.5t-146.5 -297.5t-50.5 -406zM1604 8l-29 -161
q113 -2 203 -23.5t153 -60.5t97 -94t34 -123q0 -74 -39 -134t-110 -103t-171 -66.5t-222 -23.5q-112 0 -238 21v248q111 -21 202 -21q119 0 184.5 30.5t65.5 79.5q0 60 -96.5 97t-286.5 37l53 297h200z" />
    <glyph glyph-name="Egrave" unicode="&#xc8;" horiz-adv-x="2219" 
d="M2114 2860v-538h-1344v-639h1228v-510h-1228v-635h1380v-538h-2012v2860h1976zM495 3649h528l302 -639h-384z" />
    <glyph glyph-name="Eacute" unicode="&#xc9;" horiz-adv-x="2219" 
d="M2114 2860v-538h-1344v-639h1228v-510h-1228v-635h1380v-538h-2012v2860h1976zM1771.01 3649h-527.968l-301.982 -639h383.977z" />
    <glyph glyph-name="Ecircumflex" unicode="&#xca;" horiz-adv-x="2219" 
d="M2114 2860v-538h-1344v-639h1228v-510h-1228v-635h1380v-538h-2012v2860h1976zM1321 3010l-186 341l-190 -341h-360l300 639h496l300 -639h-360z" />
    <glyph glyph-name="Edieresis" unicode="&#xcb;" horiz-adv-x="2219" 
d="M2114 2860v-538h-1344v-639h1228v-510h-1228v-635h1380v-538h-2012v2860h1976zM1046 3053h-495v515h495v-515zM1715 3053h-495v515h495v-515z" />
    <glyph glyph-name="Igrave" unicode="&#xcc;" horiz-adv-x="909" 
d="M770 0h-632v2860h632v-2860zM-184 3649h528l302 -639h-384z" />
    <glyph glyph-name="Iacute" unicode="&#xcd;" horiz-adv-x="909" 
d="M770 0h-632v2860h632v-2860zM1092.01 3649h-527.968l-301.982 -639h383.977z" />
    <glyph glyph-name="Icircumflex" unicode="&#xce;" horiz-adv-x="909" 
d="M770 0h-632v2860h632v-2860zM642 3010l-186 341l-190 -341h-360l300 639h496l300 -639h-360z" />
    <glyph glyph-name="Idieresis" unicode="&#xcf;" horiz-adv-x="909" 
d="M770 0h-632v2860h632v-2860zM367 3053h-495v515h495v-515zM1036 3053h-495v515h495v-515z" />
    <glyph glyph-name="Eth" unicode="&#xd0;" horiz-adv-x="2736" 
d="M138 2860h1043q216 0 406.5 -45.5t351.5 -132.5t288.5 -212t216.5 -284t136.5 -349t47.5 -407t-47.5 -407t-136.5 -349t-216.5 -284t-288.5 -212t-352 -132.5t-406 -45.5h-1043v2860zM1167 542q196 0 349.5 58.5t259 171.5t161 278.5t55.5 379.5t-55.5 379.5t-161 278.5
t-259 171.5t-349.5 58.5h-403v-1776h403zM1394 1231h-1520v418h1520v-418z" />
    <glyph glyph-name="Ntilde" unicode="&#xd1;" horiz-adv-x="2895" 
d="M2757 0h-897l-1116 2294v-2294h-606v2860h956l1057 -2159v2159h606v-2860zM2049 3561q0 -144 -18.5 -249t-58 -172.5t-100 -100t-144.5 -32.5q-50 0 -93 10.5t-79 25.5t-64.5 32.5t-50.5 31.5l-55 34q-15 9 -33.5 20t-39.5 20.5t-44.5 16t-48.5 6.5q-53 0 -79.5 -38.5
t-26.5 -132.5v-7h-223v10q0 284 81.5 421.5t250.5 137.5q46 0 85 -9t71 -22.5t57.5 -29t44.5 -27.5l55 -35q16 -10 37.5 -23t47 -24t53.5 -19t57 -8q49 0 74 36.5t25 126.5v16h219v-16z" />
    <glyph glyph-name="Ograve" unicode="&#xd2;" horiz-adv-x="2997" 
d="M108 1430q0 225 46.5 422.5t132.5 363t210 296.5t278 221.5t336.5 138.5t386.5 48t386.5 -48t337 -138.5t278 -221.5t210 -296.5t133 -363.5t46.5 -422t-46.5 -422t-133 -363.5t-210 -296.5t-278 -221.5t-337 -138.5t-386.5 -48t-386.5 48t-336.5 138.5t-278 221.5
t-210 296.5t-132.5 363.5t-46.5 422zM744 1430q0 -229 50.5 -406t146.5 -297.5t236.5 -182.5t320.5 -62t320.5 62t237 182.5t147 297.5t50.5 406t-50.5 406t-147 297.5t-237 182.5t-320.5 62t-320.5 -62t-236.5 -182.5t-146.5 -297.5t-50.5 -406zM859 3649h528l302 -639
h-384z" />
    <glyph glyph-name="Oacute" unicode="&#xd3;" horiz-adv-x="2997" 
d="M108 1430q0 225 46.5 422.5t132.5 363t210 296.5t278 221.5t336.5 138.5t386.5 48t386.5 -48t337 -138.5t278 -221.5t210 -296.5t133 -363.5t46.5 -422t-46.5 -422t-133 -363.5t-210 -296.5t-278 -221.5t-337 -138.5t-386.5 -48t-386.5 48t-336.5 138.5t-278 221.5
t-210 296.5t-132.5 363.5t-46.5 422zM744 1430q0 -229 50.5 -406t146.5 -297.5t236.5 -182.5t320.5 -62t320.5 62t237 182.5t147 297.5t50.5 406t-50.5 406t-147 297.5t-237 182.5t-320.5 62t-320.5 -62t-236.5 -182.5t-146.5 -297.5t-50.5 -406zM2135.01 3649h-527.968
l-301.982 -639h383.977z" />
    <glyph glyph-name="Ocircumflex" unicode="&#xd4;" horiz-adv-x="2997" 
d="M108 1430q0 225 46.5 422.5t132.5 363t210 296.5t278 221.5t336.5 138.5t386.5 48t386.5 -48t337 -138.5t278 -221.5t210 -296.5t133 -363.5t46.5 -422t-46.5 -422t-133 -363.5t-210 -296.5t-278 -221.5t-337 -138.5t-386.5 -48t-386.5 48t-336.5 138.5t-278 221.5
t-210 296.5t-132.5 363.5t-46.5 422zM744 1430q0 -229 50.5 -406t146.5 -297.5t236.5 -182.5t320.5 -62t320.5 62t237 182.5t147 297.5t50.5 406t-50.5 406t-147 297.5t-237 182.5t-320.5 62t-320.5 -62t-236.5 -182.5t-146.5 -297.5t-50.5 -406zM1685 3010l-186 341
l-190 -341h-360l300 639h496l300 -639h-360z" />
    <glyph glyph-name="Otilde" unicode="&#xd5;" horiz-adv-x="2997" 
d="M108 1430q0 225 46.5 422.5t132.5 363t210 296.5t278 221.5t336.5 138.5t386.5 48t386.5 -48t337 -138.5t278 -221.5t210 -296.5t133 -363.5t46.5 -422t-46.5 -422t-133 -363.5t-210 -296.5t-278 -221.5t-337 -138.5t-386.5 -48t-386.5 48t-336.5 138.5t-278 221.5
t-210 296.5t-132.5 363.5t-46.5 422zM744 1430q0 -229 50.5 -406t146.5 -297.5t236.5 -182.5t320.5 -62t320.5 62t237 182.5t147 297.5t50.5 406t-50.5 406t-147 297.5t-237 182.5t-320.5 62t-320.5 -62t-236.5 -182.5t-146.5 -297.5t-50.5 -406zM2098 3597
q0 -144 -18.5 -249t-58 -172.5t-100 -100t-144.5 -32.5q-50 0 -93 10.5t-79 25.5t-64.5 32.5t-50.5 31.5l-55 34q-15 9 -33.5 20t-39.5 20.5t-44.5 16t-48.5 6.5q-53 0 -79.5 -38.5t-26.5 -132.5v-7h-223v10q0 284 81.5 421.5t250.5 137.5q46 0 85 -9t71 -22.5t57.5 -29
t44.5 -27.5l55 -35q16 -10 37.5 -23t47 -24t53.5 -19t57 -8q49 0 74 36.5t25 126.5v16h219v-16z" />
    <glyph glyph-name="Odieresis" unicode="&#xd6;" horiz-adv-x="2997" 
d="M108 1430q0 225 46.5 422.5t132.5 363t210 296.5t278 221.5t336.5 138.5t386.5 48t386.5 -48t337 -138.5t278 -221.5t210 -296.5t133 -363.5t46.5 -422t-46.5 -422t-133 -363.5t-210 -296.5t-278 -221.5t-337 -138.5t-386.5 -48t-386.5 48t-336.5 138.5t-278 221.5
t-210 296.5t-132.5 363.5t-46.5 422zM744 1430q0 -229 50.5 -406t146.5 -297.5t236.5 -182.5t320.5 -62t320.5 62t237 182.5t147 297.5t50.5 406t-50.5 406t-147 297.5t-237 182.5t-320.5 62t-320.5 -62t-236.5 -182.5t-146.5 -297.5t-50.5 -406zM1410 3053h-495v515h495
v-515zM2079 3053h-495v515h495v-515z" />
    <glyph glyph-name="multiply" unicode="&#xd7;" horiz-adv-x="2087" 
d="M1606 544l-563 563l-565 -566l-340 339l566 566l-562 562l339 340l562 -563l566 566l340 -339l-566 -566l562 -562z" />
    <glyph glyph-name="Oslash" unicode="&#xd8;" horiz-adv-x="2996" 
d="M475 372q-87 97 -155 213.5t-115.5 249.5t-72 282.5t-24.5 312.5q0 225 46.5 422.5t132.5 363t210 296.5t278 221.5t336.5 138.5t386.5 48q207 0 389.5 -48.5t338.5 -141.5l149 190h491l-344 -434q174 -195 270 -462t96 -594q0 -224 -46.5 -422t-132.5 -363.5
t-210 -296.5t-278 -221.5t-336.5 -138.5t-386.5 -48q-209 0 -392.5 49.5t-340.5 143.5l-156 -193h-472zM744 1430q0 -321 98 -538l1063 1377q-168 109 -407 109q-180 0 -320.5 -62t-236.5 -182.5t-146.5 -297.5t-50.5 -406zM1092 590q84 -54 185 -81t221 -27q180 0 320.5 62
t236.5 182.5t146.5 297.5t50.5 406q0 161 -24.5 294.5t-72.5 242.5z" />
    <glyph glyph-name="Ugrave" unicode="&#xd9;" horiz-adv-x="2772" 
d="M138 2860h632v-1656q0 -365 159 -543.5t457 -178.5q149 0 263.5 44.5t193 134t119 225t40.5 318.5v1656h632v-1700q0 -192 -41 -357.5t-118 -301t-187.5 -240t-249 -176t-303 -108.5t-349.5 -37t-349.5 37t-303.5 108.5t-249 176t-187 240t-118 301t-41 357.5v1700z
M748 3649h528l302 -639h-384z" />
    <glyph glyph-name="Uacute" unicode="&#xda;" horiz-adv-x="2772" 
d="M138 2860h632v-1656q0 -365 159 -543.5t457 -178.5q149 0 263.5 44.5t193 134t119 225t40.5 318.5v1656h632v-1700q0 -192 -41 -357.5t-118 -301t-187.5 -240t-249 -176t-303 -108.5t-349.5 -37t-349.5 37t-303.5 108.5t-249 176t-187 240t-118 301t-41 357.5v1700z
M2024.01 3649h-527.968l-301.982 -639h383.977z" />
    <glyph glyph-name="Ucircumflex" unicode="&#xdb;" horiz-adv-x="2772" 
d="M138 2860h632v-1656q0 -365 159 -543.5t457 -178.5q149 0 263.5 44.5t193 134t119 225t40.5 318.5v1656h632v-1700q0 -192 -41 -357.5t-118 -301t-187.5 -240t-249 -176t-303 -108.5t-349.5 -37t-349.5 37t-303.5 108.5t-249 176t-187 240t-118 301t-41 357.5v1700z
M1574 3010l-186 341l-190 -341h-360l300 639h496l300 -639h-360z" />
    <glyph glyph-name="Udieresis" unicode="&#xdc;" horiz-adv-x="2772" 
d="M138 2860h632v-1656q0 -365 159 -543.5t457 -178.5q149 0 263.5 44.5t193 134t119 225t40.5 318.5v1656h632v-1700q0 -192 -41 -357.5t-118 -301t-187.5 -240t-249 -176t-303 -108.5t-349.5 -37t-349.5 37t-303.5 108.5t-249 176t-187 240t-118 301t-41 357.5v1700z
M1299 3053h-495v515h495v-515zM1968 3053h-495v515h495v-515z" />
    <glyph glyph-name="Yacute" unicode="&#xdd;" horiz-adv-x="2735" 
d="M2742 2860l-1062 -1820v-1040h-632v1039l-1055 1821h698l679 -1236l689 1236h683zM2006.01 3649h-527.968l-301.982 -639h383.977z" />
    <glyph glyph-name="Thorn" unicode="&#xde;" horiz-adv-x="2693" 
d="M138 2860h632v-492h689q165 0 312 -31t272 -89.5t225.5 -143t171 -190.5t108 -232t37.5 -268t-36.5 -268.5t-104 -233t-164 -191t-216.5 -143t-261 -90t-298 -31.5h-735v-457h-632v2860zM1434 979q123 0 219 29.5t163 85t102 136t35 183.5q0 102 -34.5 182.5t-100.5 136
t-161.5 85t-217.5 29.5h-669v-867h664z" />
    <glyph glyph-name="germandbls" unicode="&#xdf;" horiz-adv-x="2519" 
d="M138 1874q0 254 71.5 449t210 327.5t342.5 201t468 68.5q162 0 305.5 -25.5t263.5 -73.5t215.5 -117t161.5 -156t101 -190.5t35 -220.5q0 -137 -47 -253.5t-132 -204t-204 -142t-263 -68.5q185 -10 330.5 -61t246 -139t154 -209.5t53.5 -273.5q0 -123 -35 -233.5
t-100 -204.5t-157.5 -170t-207.5 -129t-250 -81.5t-285 -28.5q-100 0 -186 13t-166 41v527q108 -37 238 -37q118 0 216.5 29.5t170 82t111 124t39.5 156.5q0 159 -145 243.5t-433 84.5h-198v498h180q111 0 198 21.5t146.5 63t90.5 101.5t31 137q0 81 -33.5 146t-95 111.5
t-149.5 71.5t-196 25q-241 0 -362.5 -123.5t-121.5 -369.5v-1885h-612v1874z" />
    <glyph glyph-name="agrave" unicode="&#xe0;" horiz-adv-x="2382" 
d="M133 1397q0 201 73.5 361.5t211 273t333.5 173t442 60.5q252 0 451 -64.5t337 -187.5t210.5 -301t72.5 -404v-1308h-599v564q-37 -145 -113.5 -260.5t-185 -196.5t-247 -124t-300.5 -43q-169 0 -307.5 46.5t-237 132t-152.5 205.5t-54 267q0 157 62.5 280.5t180 209
t287.5 131t386 45.5h681v51q0 114 -33 204t-95 152.5t-152.5 95.5t-205.5 33q-116 0 -200.5 -27.5t-140 -78.5t-82 -124.5t-26.5 -165.5h-597zM1046 893q-187 0 -283 -62.5t-96 -183.5q0 -126 100.5 -193.5t287.5 -67.5q132 0 243.5 33.5t193 92.5t127.5 140t46 176v65h-619
zM555 2994h528l302 -639h-384z" />
    <glyph glyph-name="aacute" unicode="&#xe1;" horiz-adv-x="2382" 
d="M133 1397q0 201 73.5 361.5t211 273t333.5 173t442 60.5q252 0 451 -64.5t337 -187.5t210.5 -301t72.5 -404v-1308h-599v564q-37 -145 -113.5 -260.5t-185 -196.5t-247 -124t-300.5 -43q-169 0 -307.5 46.5t-237 132t-152.5 205.5t-54 267q0 157 62.5 280.5t180 209
t287.5 131t386 45.5h681v51q0 114 -33 204t-95 152.5t-152.5 95.5t-205.5 33q-116 0 -200.5 -27.5t-140 -78.5t-82 -124.5t-26.5 -165.5h-597zM1046 893q-187 0 -283 -62.5t-96 -183.5q0 -126 100.5 -193.5t287.5 -67.5q132 0 243.5 33.5t193 92.5t127.5 140t46 176v65h-619
zM1831.01 2994h-527.968l-301.982 -639h383.977z" />
    <glyph glyph-name="acircumflex" unicode="&#xe2;" horiz-adv-x="2382" 
d="M133 1397q0 201 73.5 361.5t211 273t333.5 173t442 60.5q252 0 451 -64.5t337 -187.5t210.5 -301t72.5 -404v-1308h-599v564q-37 -145 -113.5 -260.5t-185 -196.5t-247 -124t-300.5 -43q-169 0 -307.5 46.5t-237 132t-152.5 205.5t-54 267q0 157 62.5 280.5t180 209
t287.5 131t386 45.5h681v51q0 114 -33 204t-95 152.5t-152.5 95.5t-205.5 33q-116 0 -200.5 -27.5t-140 -78.5t-82 -124.5t-26.5 -165.5h-597zM1046 893q-187 0 -283 -62.5t-96 -183.5q0 -126 100.5 -193.5t287.5 -67.5q132 0 243.5 33.5t193 92.5t127.5 140t46 176v65h-619
zM1381 2355l-186 341l-190 -341h-360l300 639h496l300 -639h-360z" />
    <glyph glyph-name="atilde" unicode="&#xe3;" horiz-adv-x="2382" 
d="M133 1397q0 201 73.5 361.5t211 273t333.5 173t442 60.5q252 0 451 -64.5t337 -187.5t210.5 -301t72.5 -404v-1308h-599v564q-37 -145 -113.5 -260.5t-185 -196.5t-247 -124t-300.5 -43q-169 0 -307.5 46.5t-237 132t-152.5 205.5t-54 267q0 157 62.5 280.5t180 209
t287.5 131t386 45.5h681v51q0 114 -33 204t-95 152.5t-152.5 95.5t-205.5 33q-116 0 -200.5 -27.5t-140 -78.5t-82 -124.5t-26.5 -165.5h-597zM1046 893q-187 0 -283 -62.5t-96 -183.5q0 -126 100.5 -193.5t287.5 -67.5q132 0 243.5 33.5t193 92.5t127.5 140t46 176v65h-619
zM1794 2942q0 -144 -18.5 -249t-58 -172.5t-100 -100t-144.5 -32.5q-50 0 -93 10.5t-79 25.5t-64.5 32.5t-50.5 31.5l-55 34q-15 9 -33.5 20t-39.5 20.5t-44.5 16t-48.5 6.5q-53 0 -79.5 -38.5t-26.5 -132.5v-7h-223v10q0 284 81.5 421.5t250.5 137.5q46 0 85 -9t71 -22.5
t57.5 -29t44.5 -27.5l55 -35q16 -10 37.5 -23t47 -24t53.5 -19t57 -8q49 0 74 36.5t25 126.5v16h219v-16z" />
    <glyph glyph-name="adieresis" unicode="&#xe4;" horiz-adv-x="2382" 
d="M133 1397q0 201 73.5 361.5t211 273t333.5 173t442 60.5q252 0 451 -64.5t337 -187.5t210.5 -301t72.5 -404v-1308h-599v564q-37 -145 -113.5 -260.5t-185 -196.5t-247 -124t-300.5 -43q-169 0 -307.5 46.5t-237 132t-152.5 205.5t-54 267q0 157 62.5 280.5t180 209
t287.5 131t386 45.5h681v51q0 114 -33 204t-95 152.5t-152.5 95.5t-205.5 33q-116 0 -200.5 -27.5t-140 -78.5t-82 -124.5t-26.5 -165.5h-597zM1046 893q-187 0 -283 -62.5t-96 -183.5q0 -126 100.5 -193.5t287.5 -67.5q132 0 243.5 33.5t193 92.5t127.5 140t46 176v65h-619
zM1106 2398h-495v515h495v-515zM1775 2398h-495v515h495v-515z" />
    <glyph glyph-name="aring" unicode="&#xe5;" horiz-adv-x="2382" 
d="M133 1397q0 201 73.5 361.5t211 273t333.5 173t442 60.5q252 0 451 -64.5t337 -187.5t210.5 -301t72.5 -404v-1308h-599v564q-37 -145 -113.5 -260.5t-185 -196.5t-247 -124t-300.5 -43q-169 0 -307.5 46.5t-237 132t-152.5 205.5t-54 267q0 157 62.5 280.5t180 209
t287.5 131t386 45.5h681v51q0 114 -33 204t-95 152.5t-152.5 95.5t-205.5 33q-116 0 -200.5 -27.5t-140 -78.5t-82 -124.5t-26.5 -165.5h-597zM1046 893q-187 0 -283 -62.5t-96 -183.5q0 -126 100.5 -193.5t287.5 -67.5q132 0 243.5 33.5t193 92.5t127.5 140t46 176v65h-619
zM747 2792q0 98 32.5 178.5t91 137.5t140 88t178.5 31t178 -31.5t139.5 -88.5t91 -137t32.5 -178t-32.5 -178.5t-91 -137.5t-139.5 -88.5t-178 -31.5t-178.5 31t-140 88t-91 137.5t-32.5 179.5zM1012 2792q0 -93 48.5 -144.5t128.5 -51.5q79 0 128 51.5t49 144.5t-48.5 144
t-128.5 51t-128.5 -51.5t-48.5 -143.5z" />
    <glyph glyph-name="ae" unicode="&#xe6;" horiz-adv-x="3929" 
d="M133 1397q0 201 73.5 361.5t211 273t333.5 173t442 60.5q271 0 476.5 -77t339.5 -223q140 144 331.5 222t426.5 78q245 0 444 -82.5t340.5 -234t218.5 -365t77 -475.5q0 -40 -2 -80.5t-6 -82.5h-1596q14 -124 58 -221.5t113.5 -165t164 -103.5t209.5 -36q328 0 465 292
h563q-49 -180 -145 -323t-231 -242.5t-304 -152.5t-364 -53q-190 0 -354.5 50t-297 143t-230.5 226t-154 298q-26 -165 -101.5 -298t-191 -226t-267.5 -143t-332 -50q-175 0 -318 47t-245 132.5t-157.5 206t-55.5 268.5q0 156 62.5 279t180 208.5t287.5 130.5t386 45h681v51
q0 114 -33 204t-95 152.5t-152.5 95.5t-205.5 33q-116 0 -200.5 -27.5t-140 -78.5t-82 -124.5t-26.5 -165.5h-597zM3271 1315q-38 238 -164 358.5t-337 120.5q-108 0 -196 -32t-154 -93t-109 -150.5t-61 -203.5h1021zM1046 893q-187 0 -283 -62.5t-96 -183.5
q0 -126 100.5 -193.5t287.5 -67.5q132 0 243.5 33.5t193 92.5t127.5 140t46 176v65h-619z" />
    <glyph glyph-name="ccedilla" unicode="&#xe7;" horiz-adv-x="2341" 
d="M685 1103q0 -153 35 -272.5t101 -201t162 -124.5t218 -43q102 0 180.5 30.5t135 84.5t92 129t52.5 165h598q-26 -205 -111.5 -376t-222.5 -294.5t-320.5 -192t-404.5 -68.5q-165 0 -312 37.5t-271 108t-223 172t-168.5 231t-106.5 284t-37 330.5t37 330.5t106.5 283.5
t168.5 231t223 172.5t271 107.5t312 37q221 0 404.5 -68.5t320.5 -192t222.5 -294.5t111.5 -376h-597q-17 90 -53 165t-92.5 129.5t-135 84.5t-180.5 30q-122 0 -218 -42.5t-162 -124.5t-101 -201t-35 -272zM1296 8l-29 -161q113 -2 203 -23.5t153 -60.5t97 -94t34 -123
q0 -74 -39 -134t-110 -103t-171 -66.5t-222 -23.5q-112 0 -238 21v248q111 -21 202 -21q119 0 184.5 30.5t65.5 79.5q0 60 -96.5 97t-286.5 37l53 297h200z" />
    <glyph glyph-name="egrave" unicode="&#xe8;" horiz-adv-x="2346" 
d="M2254 747q-45 -188 -140.5 -337.5t-232.5 -254t-310.5 -160t-374.5 -55.5q-166 0 -313.5 38t-271 109.5t-222 174.5t-166.5 232.5t-104.5 283t-36.5 327.5q0 173 36 326.5t103.5 282.5t164.5 231t219.5 173t268.5 109t310 38q245 0 444 -82.5t340.5 -234t218.5 -365
t77 -475.5q0 -40 -1.5 -80.5t-6.5 -82.5h-1596q15 -124 59 -221.5t115 -165t166.5 -103.5t212.5 -36q347 0 478 328h563zM1689 1315q-38 238 -164.5 358.5t-337.5 120.5q-108 0 -196 -32t-154 -93t-109 -150.5t-61 -203.5h1022zM546 2994h528l302 -639h-384z" />
    <glyph glyph-name="eacute" unicode="&#xe9;" horiz-adv-x="2346" 
d="M2254 747q-45 -188 -140.5 -337.5t-232.5 -254t-310.5 -160t-374.5 -55.5q-166 0 -313.5 38t-271 109.5t-222 174.5t-166.5 232.5t-104.5 283t-36.5 327.5q0 173 36 326.5t103.5 282.5t164.5 231t219.5 173t268.5 109t310 38q245 0 444 -82.5t340.5 -234t218.5 -365
t77 -475.5q0 -40 -1.5 -80.5t-6.5 -82.5h-1596q15 -124 59 -221.5t115 -165t166.5 -103.5t212.5 -36q347 0 478 328h563zM1689 1315q-38 238 -164.5 358.5t-337.5 120.5q-108 0 -196 -32t-154 -93t-109 -150.5t-61 -203.5h1022zM1822.01 2994h-527.968l-301.982 -639
h383.977z" />
    <glyph glyph-name="ecircumflex" unicode="&#xea;" horiz-adv-x="2346" 
d="M2254 747q-45 -188 -140.5 -337.5t-232.5 -254t-310.5 -160t-374.5 -55.5q-166 0 -313.5 38t-271 109.5t-222 174.5t-166.5 232.5t-104.5 283t-36.5 327.5q0 173 36 326.5t103.5 282.5t164.5 231t219.5 173t268.5 109t310 38q245 0 444 -82.5t340.5 -234t218.5 -365
t77 -475.5q0 -40 -1.5 -80.5t-6.5 -82.5h-1596q15 -124 59 -221.5t115 -165t166.5 -103.5t212.5 -36q347 0 478 328h563zM1689 1315q-38 238 -164.5 358.5t-337.5 120.5q-108 0 -196 -32t-154 -93t-109 -150.5t-61 -203.5h1022zM1372 2355l-186 341l-190 -341h-360l300 639
h496l300 -639h-360z" />
    <glyph glyph-name="edieresis" unicode="&#xeb;" horiz-adv-x="2346" 
d="M2254 747q-45 -188 -140.5 -337.5t-232.5 -254t-310.5 -160t-374.5 -55.5q-166 0 -313.5 38t-271 109.5t-222 174.5t-166.5 232.5t-104.5 283t-36.5 327.5q0 173 36 326.5t103.5 282.5t164.5 231t219.5 173t268.5 109t310 38q245 0 444 -82.5t340.5 -234t218.5 -365
t77 -475.5q0 -40 -1.5 -80.5t-6.5 -82.5h-1596q15 -124 59 -221.5t115 -165t166.5 -103.5t212.5 -36q347 0 478 328h563zM1689 1315q-38 238 -164.5 358.5t-337.5 120.5q-108 0 -196 -32t-154 -93t-109 -150.5t-61 -203.5h1022zM1097 2398h-495v515h495v-515zM1766 2398
h-495v515h495v-515z" />
    <glyph glyph-name="igrave" unicode="&#xec;" horiz-adv-x="933" 
d="M766 0h-599v2205h599v-2205zM-171 2994h528l302 -639h-384z" />
    <glyph glyph-name="iacute" unicode="&#xed;" horiz-adv-x="933" 
d="M766 0h-599v2205h599v-2205zM1105.01 2994h-527.968l-301.982 -639h383.977z" />
    <glyph glyph-name="icircumflex" unicode="&#xee;" horiz-adv-x="933" 
d="M766 0h-599v2205h599v-2205zM655 2355l-186 341l-190 -341h-360l300 639h496l300 -639h-360z" />
    <glyph glyph-name="idieresis" unicode="&#xef;" horiz-adv-x="933" 
d="M766 0h-599v2205h599v-2205zM380 2398h-495v515h495v-515zM1049 2398h-495v515h495v-515z" />
    <glyph glyph-name="eth" unicode="&#xf0;" horiz-adv-x="2400" 
d="M82 1109q0 156 27.5 295.5t79.5 258t126 213.5t167.5 161.5t204.5 102t236 35.5q146 0 271.5 -49.5t226 -141t173 -222t111.5 -292.5q-22 156 -63.5 293.5t-106.5 261t-155 235.5t-209 217l-454 -216l-125 255l327 156q-69 48 -144 93.5t-159 92.5l196 321
q156 -67 293.5 -140t260.5 -153l422 201l125 -255l-290 -139q178 -152 308.5 -327t216.5 -375.5t128 -428t42 -485.5q0 -170 -36.5 -320.5t-105 -276.5t-167.5 -226.5t-223.5 -170t-272.5 -106.5t-316 -37t-315.5 37t-271.5 107.5t-222 172.5t-166 232t-104 286t-36 334z
M685 1076q0 -146 35 -260.5t101 -193t162 -119.5t218 -41t217.5 41t161.5 119.5t100.5 192.5t34.5 261q0 146 -34.5 260t-100.5 192.5t-161.5 119.5t-217.5 41t-218 -41t-162 -119.5t-101 -192.5t-35 -260z" />
    <glyph glyph-name="ntilde" unicode="&#xf1;" 
d="M727 0h-599v2205h599v-663q35 175 103 310t166 226.5t225.5 139t280.5 47.5q178 0 314.5 -64t229.5 -189t140.5 -308.5t47.5 -422.5v-1281h-599v1181q0 562 -428 562q-115 0 -204 -38.5t-150.5 -112.5t-93.5 -183.5t-32 -251.5v-1157zM1783 2942q0 -144 -18.5 -249
t-58 -172.5t-100 -100t-144.5 -32.5q-50 0 -93 10.5t-79 25.5t-64.5 32.5t-50.5 31.5l-55 34q-15 9 -33.5 20t-39.5 20.5t-44.5 16t-48.5 6.5q-53 0 -79.5 -38.5t-26.5 -132.5v-7h-223v10q0 284 81.5 421.5t250.5 137.5q46 0 85 -9t71 -22.5t57.5 -29t44.5 -27.5l55 -35
q16 -10 37.5 -23t47 -24t53.5 -19t57 -8q49 0 74 36.5t25 126.5v16h219v-16z" />
    <glyph glyph-name="ograve" unicode="&#xf2;" horiz-adv-x="2400" 
d="M82 1103q0 176 37 330.5t106.5 283.5t168.5 231t223 172.5t271 107.5t312 37t312 -37t271 -107.5t223 -172.5t168.5 -231t106.5 -283.5t37 -330.5t-37 -330.5t-106.5 -284t-168.5 -231t-223 -172t-271 -108t-312 -37.5t-312 37.5t-271 108t-223 172t-168.5 231
t-106.5 284t-37 330.5zM685 1103q0 -153 35 -272.5t101 -201t162 -124.5t217 -43q122 0 217.5 42.5t161.5 124.5t101 201.5t35 272.5t-35 272.5t-101 201t-161.5 124t-217.5 42.5q-121 0 -217 -42.5t-162 -124.5t-101 -201t-35 -272zM562 2994h528l302 -639h-384z" />
    <glyph glyph-name="oacute" unicode="&#xf3;" horiz-adv-x="2400" 
d="M82 1103q0 176 37 330.5t106.5 283.5t168.5 231t223 172.5t271 107.5t312 37t312 -37t271 -107.5t223 -172.5t168.5 -231t106.5 -283.5t37 -330.5t-37 -330.5t-106.5 -284t-168.5 -231t-223 -172t-271 -108t-312 -37.5t-312 37.5t-271 108t-223 172t-168.5 231
t-106.5 284t-37 330.5zM685 1103q0 -153 35 -272.5t101 -201t162 -124.5t217 -43q122 0 217.5 42.5t161.5 124.5t101 201.5t35 272.5t-35 272.5t-101 201t-161.5 124t-217.5 42.5q-121 0 -217 -42.5t-162 -124.5t-101 -201t-35 -272zM1838.01 2994h-527.968l-301.982 -639
h383.977z" />
    <glyph glyph-name="ocircumflex" unicode="&#xf4;" horiz-adv-x="2400" 
d="M82 1103q0 176 37 330.5t106.5 283.5t168.5 231t223 172.5t271 107.5t312 37t312 -37t271 -107.5t223 -172.5t168.5 -231t106.5 -283.5t37 -330.5t-37 -330.5t-106.5 -284t-168.5 -231t-223 -172t-271 -108t-312 -37.5t-312 37.5t-271 108t-223 172t-168.5 231
t-106.5 284t-37 330.5zM685 1103q0 -153 35 -272.5t101 -201t162 -124.5t217 -43q122 0 217.5 42.5t161.5 124.5t101 201.5t35 272.5t-35 272.5t-101 201t-161.5 124t-217.5 42.5q-121 0 -217 -42.5t-162 -124.5t-101 -201t-35 -272zM1388 2355l-186 341l-190 -341h-360
l300 639h496l300 -639h-360z" />
    <glyph glyph-name="otilde" unicode="&#xf5;" horiz-adv-x="2400" 
d="M82 1103q0 176 37 330.5t106.5 283.5t168.5 231t223 172.5t271 107.5t312 37t312 -37t271 -107.5t223 -172.5t168.5 -231t106.5 -283.5t37 -330.5t-37 -330.5t-106.5 -284t-168.5 -231t-223 -172t-271 -108t-312 -37.5t-312 37.5t-271 108t-223 172t-168.5 231
t-106.5 284t-37 330.5zM685 1103q0 -153 35 -272.5t101 -201t162 -124.5t217 -43q122 0 217.5 42.5t161.5 124.5t101 201.5t35 272.5t-35 272.5t-101 201t-161.5 124t-217.5 42.5q-121 0 -217 -42.5t-162 -124.5t-101 -201t-35 -272zM1802 2942q0 -144 -18.5 -249
t-58 -172.5t-100 -100t-144.5 -32.5q-50 0 -93 10.5t-79 25.5t-64.5 32.5t-50.5 31.5l-55 34q-15 9 -33.5 20t-39.5 20.5t-44.5 16t-48.5 6.5q-53 0 -79.5 -38.5t-26.5 -132.5v-7h-223v10q0 284 81.5 421.5t250.5 137.5q46 0 85 -9t71 -22.5t57.5 -29t44.5 -27.5l55 -35
q16 -10 37.5 -23t47 -24t53.5 -19t57 -8q49 0 74 36.5t25 126.5v16h219v-16z" />
    <glyph glyph-name="odieresis" unicode="&#xf6;" horiz-adv-x="2400" 
d="M82 1103q0 176 37 330.5t106.5 283.5t168.5 231t223 172.5t271 107.5t312 37t312 -37t271 -107.5t223 -172.5t168.5 -231t106.5 -283.5t37 -330.5t-37 -330.5t-106.5 -284t-168.5 -231t-223 -172t-271 -108t-312 -37.5t-312 37.5t-271 108t-223 172t-168.5 231
t-106.5 284t-37 330.5zM685 1103q0 -153 35 -272.5t101 -201t162 -124.5t217 -43q122 0 217.5 42.5t161.5 124.5t101 201.5t35 272.5t-35 272.5t-101 201t-161.5 124t-217.5 42.5q-121 0 -217 -42.5t-162 -124.5t-101 -201t-35 -272zM1113 2398h-495v515h495v-515z
M1782 2398h-495v515h495v-515z" />
    <glyph glyph-name="divide" unicode="&#xf7;" horiz-adv-x="2528" 
d="M137.602 1212v468h2251.22v-468h-2251.22zM1536.42 1955h-556.215v579.615h556.215v-579.615zM1536.42 357h-556.215v579.615h556.215v-579.615z" />
    <glyph glyph-name="oslash" unicode="&#xf8;" horiz-adv-x="2400" 
d="M2026 1927q140 -152 216 -359.5t76 -464.5q0 -176 -37 -330.5t-106.5 -284t-168.5 -231t-223 -172t-271 -108t-312 -37.5t-309.5 36.5t-269.5 106.5l-113 -143h-402l268 338q-140 152 -216 360t-76 465q0 176 37 330.5t106.5 283.5t168.5 231t223 172.5t271 107.5t312 37
t309.5 -36.5t269.5 -106.5l113 143h402zM685 1103q0 -97 14 -179.5t41 -151.5l715 910q-110 61 -255 61q-121 0 -217 -42.5t-162 -124.5t-101 -201t-35 -272zM945 523q110 -61 255 -61q122 0 217.5 42.5t161.5 124.5t101 201.5t35 272.5q0 191 -55 330z" />
    <glyph glyph-name="ugrave" unicode="&#xf9;" 
d="M1625 2205h599v-2205h-599v663q-35 -175 -103 -310t-166 -226.5t-225.5 -139t-280.5 -47.5q-178 0 -314.5 64t-229.5 189t-140.5 308.5t-47.5 422.5v1281h599v-1181q0 -282 106.5 -422t322.5 -140q114 0 203.5 38.5t150.5 113t93 183.5t32 251v1157zM533 2994h528
l302 -639h-384z" />
    <glyph glyph-name="uacute" unicode="&#xfa;" 
d="M1625 2205h599v-2205h-599v663q-35 -175 -103 -310t-166 -226.5t-225.5 -139t-280.5 -47.5q-178 0 -314.5 64t-229.5 189t-140.5 308.5t-47.5 422.5v1281h599v-1181q0 -282 106.5 -422t322.5 -140q114 0 203.5 38.5t150.5 113t93 183.5t32 251v1157zM1809.01 2994
h-527.968l-301.982 -639h383.977z" />
    <glyph glyph-name="ucircumflex" unicode="&#xfb;" 
d="M1625 2205h599v-2205h-599v663q-35 -175 -103 -310t-166 -226.5t-225.5 -139t-280.5 -47.5q-178 0 -314.5 64t-229.5 189t-140.5 308.5t-47.5 422.5v1281h599v-1181q0 -282 106.5 -422t322.5 -140q114 0 203.5 38.5t150.5 113t93 183.5t32 251v1157zM1359 2355l-186 341
l-190 -341h-360l300 639h496l300 -639h-360z" />
    <glyph glyph-name="udieresis" unicode="&#xfc;" 
d="M1625 2205h599v-2205h-599v663q-35 -175 -103 -310t-166 -226.5t-225.5 -139t-280.5 -47.5q-178 0 -314.5 64t-229.5 189t-140.5 308.5t-47.5 422.5v1281h599v-1181q0 -282 106.5 -422t322.5 -140q114 0 203.5 38.5t150.5 113t93 183.5t32 251v1157zM1084 2398h-495v515
h495v-515zM1753 2398h-495v515h495v-515z" />
    <glyph glyph-name="yacute" unicode="&#xfd;" 
d="M2329 2205l-841 -2267q-72 -197 -169.5 -339.5t-225.5 -235t-288 -137t-357 -44.5q-152 0 -316 28v484q69 -10 127 -14.5t109 -4.5q89 0 162 14.5t133 44.5t107.5 77t85.5 112l-833 2282h630l526 -1739l534 1739h616zM1814.01 2958h-527.968l-301.982 -639h383.977z" />
    <glyph glyph-name="thorn" unicode="&#xfe;" horiz-adv-x="2442" 
d="M727 1537q37 174 104 309.5t161.5 228.5t215 141.5t262.5 48.5q131 0 248 -38.5t216 -110.5t177.5 -175.5t134 -232.5t85 -281.5t29.5 -323.5t-29.5 -323.5t-85 -282t-134.5 -232.5t-178 -175.5t-215.5 -111t-247.5 -38.5q-142 0 -262.5 49t-215 142t-161.5 228.5
t-104 309.5v-1425h-599v3716h599v-1423zM727 1103q0 -155 34.5 -275.5t101 -203t163.5 -125.5t221 -43q251 0 380.5 164t129.5 483t-130 482.5t-381 163.5q-124 0 -220.5 -43t-163 -125.5t-101 -202.5t-34.5 -275z" />
    <glyph glyph-name="ydieresis" unicode="&#xff;" 
d="M2329 2205l-841 -2267q-72 -197 -169.5 -339.5t-225.5 -235t-288 -137t-357 -44.5q-152 0 -316 28v484q69 -10 127 -14.5t109 -4.5q89 0 162 14.5t133 44.5t107.5 77t85.5 112l-833 2282h630l526 -1739l534 1739h616zM1089 2362h-495v515h495v-515zM1758 2362h-495v515
h495v-515z" />
    <glyph glyph-name="Amacron" unicode="&#x100;" horiz-adv-x="2850" 
d="M3 0l986 2860h886l972 -2860h-674l-191 629h-1125l-194 -629h-660zM1825 1145l-401 1317l-407 -1317h808zM1977 3111h-1104v336h1104v-336z" />
    <glyph glyph-name="amacron" unicode="&#x101;" horiz-adv-x="2382" 
d="M133 1397q0 201 73.5 361.5t211 273t333.5 173t442 60.5q252 0 451 -64.5t337 -187.5t210.5 -301t72.5 -404v-1308h-599v564q-37 -145 -113.5 -260.5t-185 -196.5t-247 -124t-300.5 -43q-169 0 -307.5 46.5t-237 132t-152.5 205.5t-54 267q0 157 62.5 280.5t180 209
t287.5 131t386 45.5h681v51q0 114 -33 204t-95 152.5t-152.5 95.5t-205.5 33q-116 0 -200.5 -27.5t-140 -78.5t-82 -124.5t-26.5 -165.5h-597zM1046 893q-187 0 -283 -62.5t-96 -183.5q0 -126 100.5 -193.5t287.5 -67.5q132 0 243.5 33.5t193 92.5t127.5 140t46 176v65h-619
zM1745 2456h-1104v336h1104v-336z" />
    <glyph glyph-name="Abreve" unicode="&#x102;" horiz-adv-x="2850" 
d="M3 0l986 2860h886l972 -2860h-674l-191 629h-1125l-194 -629h-660zM1825 1145l-401 1317l-407 -1317h808zM1185 3649q0 -74 16.5 -132t47 -98.5t75.5 -62t102 -21.5t101.5 21.5t75 62t47 98.5t16.5 132h293q0 -153 -33 -272t-100 -200.5t-166.5 -124t-233.5 -42.5
t-234 42.5t-167 124t-100 200.5t-33 272h293z" />
    <glyph glyph-name="abreve" unicode="&#x103;" horiz-adv-x="2382" 
d="M133 1397q0 201 73.5 361.5t211 273t333.5 173t442 60.5q252 0 451 -64.5t337 -187.5t210.5 -301t72.5 -404v-1308h-599v564q-37 -145 -113.5 -260.5t-185 -196.5t-247 -124t-300.5 -43q-169 0 -307.5 46.5t-237 132t-152.5 205.5t-54 267q0 157 62.5 280.5t180 209
t287.5 131t386 45.5h681v51q0 114 -33 204t-95 152.5t-152.5 95.5t-205.5 33q-116 0 -200.5 -27.5t-140 -78.5t-82 -124.5t-26.5 -165.5h-597zM1046 893q-187 0 -283 -62.5t-96 -183.5q0 -126 100.5 -193.5t287.5 -67.5q132 0 243.5 33.5t193 92.5t127.5 140t46 176v65h-619
zM952 2994q0 -74 16.5 -132t47 -98.5t75.5 -62t102 -21.5t101.5 21.5t75 62t47 98.5t16.5 132h293q0 -153 -33 -272t-100 -200.5t-166.5 -124t-233.5 -42.5t-234 42.5t-167 124t-100 200.5t-33 272h293z" />
    <glyph glyph-name="Aogonek" unicode="&#x104;" horiz-adv-x="2850" 
d="M3 0l986 2860h886l972 -2860h-674l-191 629h-1125l-194 -629h-660zM1825 1145l-401 1317l-407 -1317h808zM2845 0q-81 0 -159.5 -21.5t-141 -55.5t-101 -76t-38.5 -84q0 -57 73 -88.5t202 -31.5q43 0 85 3.5t87 10.5v-348q-57 -8 -114 -11.5t-108 -3.5
q-115 0 -209.5 23.5t-162 66.5t-105 103.5t-37.5 133.5q0 89 53.5 165t148.5 131.5t225 88t283 34.5z" />
    <glyph glyph-name="aogonek" unicode="&#x105;" horiz-adv-x="2382" 
d="M133 1397q0 201 73.5 361.5t211 273t333.5 173t442 60.5q252 0 451 -64.5t337 -187.5t210.5 -301t72.5 -404v-1308h-599v564q-37 -145 -113.5 -260.5t-185 -196.5t-247 -124t-300.5 -43q-169 0 -307.5 46.5t-237 132t-152.5 205.5t-54 267q0 157 62.5 280.5t180 209
t287.5 131t386 45.5h681v51q0 114 -33 204t-95 152.5t-152.5 95.5t-205.5 33q-116 0 -200.5 -27.5t-140 -78.5t-82 -124.5t-26.5 -165.5h-597zM1046 893q-187 0 -283 -62.5t-96 -183.5q0 -126 100.5 -193.5t287.5 -67.5q132 0 243.5 33.5t193 92.5t127.5 140t46 176v65h-619
zM2262 0q-81 0 -159.5 -21.5t-141 -55.5t-101 -76t-38.5 -84q0 -57 73 -88.5t202 -31.5q43 0 85 3.5t87 10.5v-348q-57 -8 -114 -11.5t-108 -3.5q-115 0 -209.5 23.5t-162 66.5t-105 103.5t-37.5 133.5q0 89 53.5 165t148.5 131.5t225 88t283 34.5z" />
    <glyph glyph-name="Cacute" unicode="&#x106;" horiz-adv-x="2940" 
d="M744 1430q0 -229 50.5 -406t146.5 -297.5t236.5 -182.5t320.5 -62q289 0 463 167t231 501h628q-27 -188 -85.5 -351t-146 -297.5t-201.5 -239t-252 -176t-298.5 -109t-339.5 -37.5q-204 0 -386 48t-336.5 138.5t-278 221.5t-209.5 296.5t-132.5 363.5t-46.5 422
q0 225 46.5 422.5t132.5 363t209.5 296.5t278 221.5t336.5 138.5t386 48q179 0 339.5 -37.5t298.5 -109t252 -176t201.5 -239t146 -297.5t85.5 -351h-628q-57 333 -232 500.5t-462 167.5q-180 0 -320.5 -62t-236.5 -182.5t-146.5 -297.5t-50.5 -406zM2135.01 3649h-527.968
l-301.982 -639h383.977z" />
    <glyph glyph-name="cacute" unicode="&#x107;" horiz-adv-x="2341" 
d="M685 1103q0 -153 35 -272.5t101 -201t162 -124.5t218 -43q102 0 180.5 30.5t135 84.5t92 129t52.5 165h598q-26 -205 -111.5 -376t-222.5 -294.5t-320.5 -192t-404.5 -68.5q-165 0 -312 37.5t-271 108t-223 172t-168.5 231t-106.5 284t-37 330.5t37 330.5t106.5 283.5
t168.5 231t223 172.5t271 107.5t312 37q221 0 404.5 -68.5t320.5 -192t222.5 -294.5t111.5 -376h-597q-17 90 -53 165t-92.5 129.5t-135 84.5t-180.5 30q-122 0 -218 -42.5t-162 -124.5t-101 -201t-35 -272zM1838.01 2996h-527.968l-301.982 -639h383.977z" />
    <glyph glyph-name="Ccircumflex" unicode="&#x108;" horiz-adv-x="2940" 
d="M744 1430q0 -229 50.5 -406t146.5 -297.5t236.5 -182.5t320.5 -62q289 0 463 167t231 501h628q-27 -188 -85.5 -351t-146 -297.5t-201.5 -239t-252 -176t-298.5 -109t-339.5 -37.5q-204 0 -386 48t-336.5 138.5t-278 221.5t-209.5 296.5t-132.5 363.5t-46.5 422
q0 225 46.5 422.5t132.5 363t209.5 296.5t278 221.5t336.5 138.5t386 48q179 0 339.5 -37.5t298.5 -109t252 -176t201.5 -239t146 -297.5t85.5 -351h-628q-57 333 -232 500.5t-462 167.5q-180 0 -320.5 -62t-236.5 -182.5t-146.5 -297.5t-50.5 -406zM1685 3010l-186 341
l-190 -341h-360l300 639h496l300 -639h-360z" />
    <glyph glyph-name="ccircumflex" unicode="&#x109;" horiz-adv-x="2341" 
d="M685 1103q0 -153 35 -272.5t101 -201t162 -124.5t218 -43q102 0 180.5 30.5t135 84.5t92 129t52.5 165h598q-26 -205 -111.5 -376t-222.5 -294.5t-320.5 -192t-404.5 -68.5q-165 0 -312 37.5t-271 108t-223 172t-168.5 231t-106.5 284t-37 330.5t37 330.5t106.5 283.5
t168.5 231t223 172.5t271 107.5t312 37q221 0 404.5 -68.5t320.5 -192t222.5 -294.5t111.5 -376h-597q-17 90 -53 165t-92.5 129.5t-135 84.5t-180.5 30q-122 0 -218 -42.5t-162 -124.5t-101 -201t-35 -272zM1388 2357l-186 341l-190 -341h-360l300 639h496l300 -639h-360z
" />
    <glyph glyph-name="Cdotaccent" unicode="&#x10a;" horiz-adv-x="2940" 
d="M744 1430q0 -229 50.5 -406t146.5 -297.5t236.5 -182.5t320.5 -62q289 0 463 167t231 501h628q-27 -188 -85.5 -351t-146 -297.5t-201.5 -239t-252 -176t-298.5 -109t-339.5 -37.5q-204 0 -386 48t-336.5 138.5t-278 221.5t-209.5 296.5t-132.5 363.5t-46.5 422
q0 225 46.5 422.5t132.5 363t209.5 296.5t278 221.5t336.5 138.5t386 48q179 0 339.5 -37.5t298.5 -109t252 -176t201.5 -239t146 -297.5t85.5 -351h-628q-57 333 -232 500.5t-462 167.5q-180 0 -320.5 -62t-236.5 -182.5t-146.5 -297.5t-50.5 -406zM1744 3053h-495v515h495
v-515z" />
    <glyph glyph-name="cdotaccent" unicode="&#x10b;" horiz-adv-x="2341" 
d="M685 1103q0 -153 35 -272.5t101 -201t162 -124.5t218 -43q102 0 180.5 30.5t135 84.5t92 129t52.5 165h598q-26 -205 -111.5 -376t-222.5 -294.5t-320.5 -192t-404.5 -68.5q-165 0 -312 37.5t-271 108t-223 172t-168.5 231t-106.5 284t-37 330.5t37 330.5t106.5 283.5
t168.5 231t223 172.5t271 107.5t312 37q221 0 404.5 -68.5t320.5 -192t222.5 -294.5t111.5 -376h-597q-17 90 -53 165t-92.5 129.5t-135 84.5t-180.5 30q-122 0 -218 -42.5t-162 -124.5t-101 -201t-35 -272zM1447 2400h-495v515h495v-515z" />
    <glyph glyph-name="Ccaron" unicode="&#x10c;" horiz-adv-x="2940" 
d="M744 1430q0 -229 50.5 -406t146.5 -297.5t236.5 -182.5t320.5 -62q289 0 463 167t231 501h628q-27 -188 -85.5 -351t-146 -297.5t-201.5 -239t-252 -176t-298.5 -109t-339.5 -37.5q-204 0 -386 48t-336.5 138.5t-278 221.5t-209.5 296.5t-132.5 363.5t-46.5 422
q0 225 46.5 422.5t132.5 363t209.5 296.5t278 221.5t336.5 138.5t386 48q179 0 339.5 -37.5t298.5 -109t252 -176t201.5 -239t146 -297.5t85.5 -351h-628q-57 333 -232 500.5t-462 167.5q-180 0 -320.5 -62t-236.5 -182.5t-146.5 -297.5t-50.5 -406zM1746 3010h-496
l-300 639h360l190 -341l186 341h360z" />
    <glyph glyph-name="ccaron" unicode="&#x10d;" horiz-adv-x="2341" 
d="M685 1103q0 -153 35 -272.5t101 -201t162 -124.5t218 -43q102 0 180.5 30.5t135 84.5t92 129t52.5 165h598q-26 -205 -111.5 -376t-222.5 -294.5t-320.5 -192t-404.5 -68.5q-165 0 -312 37.5t-271 108t-223 172t-168.5 231t-106.5 284t-37 330.5t37 330.5t106.5 283.5
t168.5 231t223 172.5t271 107.5t312 37q221 0 404.5 -68.5t320.5 -192t222.5 -294.5t111.5 -376h-597q-17 90 -53 165t-92.5 129.5t-135 84.5t-180.5 30q-122 0 -218 -42.5t-162 -124.5t-101 -201t-35 -272zM1449 2357h-496l-300 639h360l190 -341l186 341h360z" />
    <glyph glyph-name="Dcaron" unicode="&#x10e;" horiz-adv-x="2736" 
d="M138 2860h1043q216 0 406.5 -45.5t351.5 -132.5t288.5 -212t216.5 -284t136.5 -349t47.5 -407t-47.5 -407t-136.5 -349t-216.5 -284t-288.5 -212t-352 -132.5t-406 -45.5h-1043v2860zM1167 542q196 0 349.5 58.5t259 171.5t161 278.5t55.5 379.5t-55.5 379.5t-161 278.5
t-259 171.5t-349.5 58.5h-403v-1776h403zM1428 3010h-496l-300 639h360l190 -341l186 341h360z" />
    <glyph glyph-name="dcaron" unicode="&#x10f;" horiz-adv-x="2442" 
d="M2314 2960v-2960h-599v669q-37 -174 -104 -309.5t-161.5 -228.5t-214.5 -142t-262 -49q-131 0 -248 38.5t-216 111t-178 175.5t-134.5 232.5t-85 282t-29.5 323.5t29.5 323.5t85 281.5t134.5 232.5t178 175.5t216 110.5t248 38.5q142 0 262 -48.5t214.5 -141.5
t161.5 -228.5t104 -309.5v1423h599zM1715 1103q0 155 -34.5 275t-101 202.5t-163 125.5t-220.5 43q-251 0 -381 -163.5t-130 -482.5t130 -483t381 -164q124 0 220.5 43t163 125.5t101 203t34.5 275.5zM2814 2009h-374l79 951h464z" />
    <glyph glyph-name="Dcroat" unicode="&#x110;" horiz-adv-x="2736" 
d="M138 2860h1043q216 0 406.5 -45.5t351.5 -132.5t288.5 -212t216.5 -284t136.5 -349t47.5 -407t-47.5 -407t-136.5 -349t-216.5 -284t-288.5 -212t-352 -132.5t-406 -45.5h-1043v2860zM1167 542q196 0 349.5 58.5t259 171.5t161 278.5t55.5 379.5t-55.5 379.5t-161 278.5
t-259 171.5t-349.5 58.5h-403v-1776h403zM1394 1231h-1520v418h1520v-418z" />
    <glyph glyph-name="dcroat" unicode="&#x111;" horiz-adv-x="2442" 
d="M2314 2960v-2960h-599v669q-37 -174 -104 -309.5t-161.5 -228.5t-214.5 -142t-262 -49q-131 0 -248 38.5t-216 111t-178 175.5t-134.5 232.5t-85 282t-29.5 323.5t29.5 323.5t85 281.5t134.5 232.5t178 175.5t216 110.5t248 38.5q142 0 262 -48.5t214.5 -141.5
t161.5 -228.5t104 -309.5v1423h599zM1715 1103q0 155 -34.5 275t-101 202.5t-163 125.5t-220.5 43q-251 0 -381 -163.5t-130 -482.5t130 -483t381 -164q124 0 220.5 43t163 125.5t101 203t34.5 275.5zM2543 2343h-1418v380h1418v-380z" />
    <glyph glyph-name="Emacron" unicode="&#x112;" horiz-adv-x="2219" 
d="M2114 2860v-538h-1344v-639h1228v-510h-1228v-635h1380v-538h-2012v2860h1976zM1685 3111h-1104v336h1104v-336z" />
    <glyph glyph-name="emacron" unicode="&#x113;" horiz-adv-x="2346" 
d="M2254 747q-45 -188 -140.5 -337.5t-232.5 -254t-310.5 -160t-374.5 -55.5q-166 0 -313.5 38t-271 109.5t-222 174.5t-166.5 232.5t-104.5 283t-36.5 327.5q0 173 36 326.5t103.5 282.5t164.5 231t219.5 173t268.5 109t310 38q245 0 444 -82.5t340.5 -234t218.5 -365
t77 -475.5q0 -40 -1.5 -80.5t-6.5 -82.5h-1596q15 -124 59 -221.5t115 -165t166.5 -103.5t212.5 -36q347 0 478 328h563zM1689 1315q-38 238 -164.5 358.5t-337.5 120.5q-108 0 -196 -32t-154 -93t-109 -150.5t-61 -203.5h1022zM1736 2456h-1104v336h1104v-336z" />
    <glyph glyph-name="Ebreve" unicode="&#x114;" horiz-adv-x="2219" 
d="M2114 2860v-538h-1344v-639h1228v-510h-1228v-635h1380v-538h-2012v2860h1976zM892 3649q0 -74 16.5 -132t47 -98.5t75.5 -62t102 -21.5t101.5 21.5t75 62t47 98.5t16.5 132h293q0 -153 -33 -272t-100 -200.5t-166.5 -124t-233.5 -42.5t-234 42.5t-167 124t-100 200.5
t-33 272h293z" />
    <glyph glyph-name="ebreve" unicode="&#x115;" horiz-adv-x="2346" 
d="M2254 747q-45 -188 -140.5 -337.5t-232.5 -254t-310.5 -160t-374.5 -55.5q-166 0 -313.5 38t-271 109.5t-222 174.5t-166.5 232.5t-104.5 283t-36.5 327.5q0 173 36 326.5t103.5 282.5t164.5 231t219.5 173t268.5 109t310 38q245 0 444 -82.5t340.5 -234t218.5 -365
t77 -475.5q0 -40 -1.5 -80.5t-6.5 -82.5h-1596q15 -124 59 -221.5t115 -165t166.5 -103.5t212.5 -36q347 0 478 328h563zM1689 1315q-38 238 -164.5 358.5t-337.5 120.5q-108 0 -196 -32t-154 -93t-109 -150.5t-61 -203.5h1022zM944 2994q0 -74 16.5 -132t47 -98.5t75.5 -62
t102 -21.5t101.5 21.5t75 62t47 98.5t16.5 132h293q0 -153 -33 -272t-100 -200.5t-166.5 -124t-233.5 -42.5t-234 42.5t-167 124t-100 200.5t-33 272h293z" />
    <glyph glyph-name="Edotaccent" unicode="&#x116;" horiz-adv-x="2219" 
d="M2114 2860v-538h-1344v-639h1228v-510h-1228v-635h1380v-538h-2012v2860h1976zM1380 3053h-495v515h495v-515z" />
    <glyph glyph-name="edotaccent" unicode="&#x117;" horiz-adv-x="2346" 
d="M2254 747q-45 -188 -140.5 -337.5t-232.5 -254t-310.5 -160t-374.5 -55.5q-166 0 -313.5 38t-271 109.5t-222 174.5t-166.5 232.5t-104.5 283t-36.5 327.5q0 173 36 326.5t103.5 282.5t164.5 231t219.5 173t268.5 109t310 38q245 0 444 -82.5t340.5 -234t218.5 -365
t77 -475.5q0 -40 -1.5 -80.5t-6.5 -82.5h-1596q15 -124 59 -221.5t115 -165t166.5 -103.5t212.5 -36q347 0 478 328h563zM1689 1315q-38 238 -164.5 358.5t-337.5 120.5q-108 0 -196 -32t-154 -93t-109 -150.5t-61 -203.5h1022zM1431 2398h-495v515h495v-515z" />
    <glyph glyph-name="Eogonek" unicode="&#x118;" horiz-adv-x="2219" 
d="M2114 2860v-538h-1344v-639h1228v-510h-1228v-635h1380v-538h-2012v2860h1976zM2148 0q-81 0 -159.5 -21.5t-141 -55.5t-101 -76t-38.5 -84q0 -57 73 -88.5t202 -31.5q43 0 85 3.5t87 10.5v-348q-57 -8 -114 -11.5t-108 -3.5q-115 0 -209.5 23.5t-162 66.5t-105 103.5
t-37.5 133.5q0 89 53.5 165t148.5 131.5t225 88t283 34.5z" />
    <glyph glyph-name="eogonek" unicode="&#x119;" horiz-adv-x="2346" 
d="M2254 747q-45 -188 -140.5 -337.5t-232.5 -254t-310.5 -160t-374.5 -55.5q-166 0 -313.5 38t-271 109.5t-222 174.5t-166.5 232.5t-104.5 283t-36.5 327.5q0 173 36 326.5t103.5 282.5t164.5 231t219.5 173t268.5 109t310 38q245 0 444 -82.5t340.5 -234t218.5 -365
t77 -475.5q0 -40 -1.5 -80.5t-6.5 -82.5h-1596q15 -124 59 -221.5t115 -165t166.5 -103.5t212.5 -36q347 0 478 328h563zM1689 1315q-38 238 -164.5 358.5t-337.5 120.5q-108 0 -196 -32t-154 -93t-109 -150.5t-61 -203.5h1022zM1872 165q-63 -43 -117 -93t-93 -102.5
t-61.5 -104t-22.5 -96.5q0 -81 71.5 -122t220.5 -41q42 0 87 3.5t96 10.5v-348q-60 -8 -118.5 -11.5t-107.5 -3.5q-123 0 -223 26t-170.5 73.5t-108.5 114t-38 148.5q0 84 41.5 163t116 152.5t176.5 142t223 132.5z" />
    <glyph glyph-name="Ecaron" unicode="&#x11a;" horiz-adv-x="2219" 
d="M2114 2860v-538h-1344v-639h1228v-510h-1228v-635h1380v-538h-2012v2860h1976zM1382 3010h-496l-300 639h360l190 -341l186 341h360z" />
    <glyph glyph-name="ecaron" unicode="&#x11b;" horiz-adv-x="2346" 
d="M2254 747q-45 -188 -140.5 -337.5t-232.5 -254t-310.5 -160t-374.5 -55.5q-166 0 -313.5 38t-271 109.5t-222 174.5t-166.5 232.5t-104.5 283t-36.5 327.5q0 173 36 326.5t103.5 282.5t164.5 231t219.5 173t268.5 109t310 38q245 0 444 -82.5t340.5 -234t218.5 -365
t77 -475.5q0 -40 -1.5 -80.5t-6.5 -82.5h-1596q15 -124 59 -221.5t115 -165t166.5 -103.5t212.5 -36q347 0 478 328h563zM1689 1315q-38 238 -164.5 358.5t-337.5 120.5q-108 0 -196 -32t-154 -93t-109 -150.5t-61 -203.5h1022zM1433 2355h-496l-300 639h360l190 -341
l186 341h360z" />
    <glyph glyph-name="Gcircumflex" unicode="&#x11c;" horiz-adv-x="2991" 
d="M744 1430q0 -231 49 -410t143.5 -301t232.5 -185t317 -63q159 0 295.5 45.5t238 128.5t162.5 199t70 258h-797v428h1398v-1530h-592v711q-57 -177 -152.5 -320t-223 -243t-283 -154t-333.5 -54q-168 0 -319.5 49t-280.5 140.5t-232.5 223.5t-176.5 297.5t-112.5 362
t-39.5 417.5q0 225 46.5 422.5t132.5 363t209.5 296.5t278 221.5t336.5 138.5t386 48q169 0 324.5 -34t293 -99t254 -159.5t208 -215.5t154.5 -267.5t93 -314.5h-628q-31 135 -94.5 237.5t-153.5 171.5t-204 104t-247 35q-180 0 -320 -62t-236 -182.5t-146.5 -297.5
t-50.5 -406zM1685 3010l-186 341l-190 -341h-360l300 639h496l300 -639h-360z" />
    <glyph glyph-name="gcircumflex" unicode="&#x11d;" horiz-adv-x="2442" 
d="M2314 2205v-1909q0 -255 -76 -461t-217 -351t-342 -223.5t-452 -78.5q-153 0 -290 28.5t-252.5 82t-208 130t-157.5 172.5t-99.5 210t-34.5 241h597q0 -89 32.5 -162.5t91 -126t138.5 -81.5t176 -29q116 0 208 44.5t155.5 128t97.5 203t34 269.5v492
q-37 -163 -104.5 -290t-162.5 -214.5t-216.5 -133.5t-265.5 -46q-129 0 -245 36t-214 104t-177 165t-134 218t-84.5 264.5t-29.5 303.5q0 161 29.5 302.5t84.5 261t134 214t177 160.5t214 101t245 35q144 0 265.5 -44t216.5 -129.5t162.5 -210.5t104.5 -286v610h599z
M1715 1191q0 137 -35 241t-102 174.5t-165 106.5t-224 36q-246 0 -375 -137.5t-129 -420.5q0 -284 128 -429.5t376 -145.5q126 0 224 38.5t165 112t102 180.5t35 244zM1430 2355l-186 341l-190 -341h-360l300 639h496l300 -639h-360z" />
    <glyph glyph-name="Gbreve" unicode="&#x11e;" horiz-adv-x="2991" 
d="M744 1430q0 -231 49 -410t143.5 -301t232.5 -185t317 -63q159 0 295.5 45.5t238 128.5t162.5 199t70 258h-797v428h1398v-1530h-592v711q-57 -177 -152.5 -320t-223 -243t-283 -154t-333.5 -54q-168 0 -319.5 49t-280.5 140.5t-232.5 223.5t-176.5 297.5t-112.5 362
t-39.5 417.5q0 225 46.5 422.5t132.5 363t209.5 296.5t278 221.5t336.5 138.5t386 48q169 0 324.5 -34t293 -99t254 -159.5t208 -215.5t154.5 -267.5t93 -314.5h-628q-31 135 -94.5 237.5t-153.5 171.5t-204 104t-247 35q-180 0 -320 -62t-236 -182.5t-146.5 -297.5
t-50.5 -406zM1256 3649q0 -74 16.5 -132t47 -98.5t75.5 -62t102 -21.5t101.5 21.5t75 62t47 98.5t16.5 132h293q0 -153 -33 -272t-100 -200.5t-166.5 -124t-233.5 -42.5t-234 42.5t-167 124t-100 200.5t-33 272h293z" />
    <glyph glyph-name="gbreve" unicode="&#x11f;" horiz-adv-x="2442" 
d="M2314 2205v-1909q0 -255 -76 -461t-217 -351t-342 -223.5t-452 -78.5q-153 0 -290 28.5t-252.5 82t-208 130t-157.5 172.5t-99.5 210t-34.5 241h597q0 -89 32.5 -162.5t91 -126t138.5 -81.5t176 -29q116 0 208 44.5t155.5 128t97.5 203t34 269.5v492
q-37 -163 -104.5 -290t-162.5 -214.5t-216.5 -133.5t-265.5 -46q-129 0 -245 36t-214 104t-177 165t-134 218t-84.5 264.5t-29.5 303.5q0 161 29.5 302.5t84.5 261t134 214t177 160.5t214 101t245 35q144 0 265.5 -44t216.5 -129.5t162.5 -210.5t104.5 -286v610h599z
M1715 1191q0 137 -35 241t-102 174.5t-165 106.5t-224 36q-246 0 -375 -137.5t-129 -420.5q0 -284 128 -429.5t376 -145.5q126 0 224 38.5t165 112t102 180.5t35 244zM1002 2994q0 -74 16.5 -132t47 -98.5t75.5 -62t102 -21.5t101.5 21.5t75 62t47 98.5t16.5 132h293
q0 -153 -33 -272t-100 -200.5t-166.5 -124t-233.5 -42.5t-234 42.5t-167 124t-100 200.5t-33 272h293z" />
    <glyph glyph-name="Gdotaccent" unicode="&#x120;" horiz-adv-x="2991" 
d="M744 1430q0 -231 49 -410t143.5 -301t232.5 -185t317 -63q159 0 295.5 45.5t238 128.5t162.5 199t70 258h-797v428h1398v-1530h-592v711q-57 -177 -152.5 -320t-223 -243t-283 -154t-333.5 -54q-168 0 -319.5 49t-280.5 140.5t-232.5 223.5t-176.5 297.5t-112.5 362
t-39.5 417.5q0 225 46.5 422.5t132.5 363t209.5 296.5t278 221.5t336.5 138.5t386 48q169 0 324.5 -34t293 -99t254 -159.5t208 -215.5t154.5 -267.5t93 -314.5h-628q-31 135 -94.5 237.5t-153.5 171.5t-204 104t-247 35q-180 0 -320 -62t-236 -182.5t-146.5 -297.5
t-50.5 -406zM1744 3053h-495v515h495v-515z" />
    <glyph glyph-name="gdotaccent" unicode="&#x121;" horiz-adv-x="2442" 
d="M2314 2205v-1909q0 -255 -76 -461t-217 -351t-342 -223.5t-452 -78.5q-153 0 -290 28.5t-252.5 82t-208 130t-157.5 172.5t-99.5 210t-34.5 241h597q0 -89 32.5 -162.5t91 -126t138.5 -81.5t176 -29q116 0 208 44.5t155.5 128t97.5 203t34 269.5v492
q-37 -163 -104.5 -290t-162.5 -214.5t-216.5 -133.5t-265.5 -46q-129 0 -245 36t-214 104t-177 165t-134 218t-84.5 264.5t-29.5 303.5q0 161 29.5 302.5t84.5 261t134 214t177 160.5t214 101t245 35q144 0 265.5 -44t216.5 -129.5t162.5 -210.5t104.5 -286v610h599z
M1715 1191q0 137 -35 241t-102 174.5t-165 106.5t-224 36q-246 0 -375 -137.5t-129 -420.5q0 -284 128 -429.5t376 -145.5q126 0 224 38.5t165 112t102 180.5t35 244zM1489 2398h-495v515h495v-515z" />
    <glyph glyph-name="uni0122" unicode="&#x122;" horiz-adv-x="2991" 
d="M744 1430q0 -231 49 -410t143.5 -301t232.5 -185t317 -63q159 0 295.5 45.5t238 128.5t162.5 199t70 258h-797v428h1398v-1530h-592v711q-57 -177 -152.5 -320t-223 -243t-283 -154t-333.5 -54q-168 0 -319.5 49t-280.5 140.5t-232.5 223.5t-176.5 297.5t-112.5 362
t-39.5 417.5q0 225 46.5 422.5t132.5 363t209.5 296.5t278 221.5t336.5 138.5t386 48q169 0 324.5 -34t293 -99t254 -159.5t208 -215.5t154.5 -267.5t93 -314.5h-628q-31 135 -94.5 237.5t-153.5 171.5t-204 104t-247 35q-180 0 -320 -62t-236 -182.5t-146.5 -297.5
t-50.5 -406zM1446 -788h-374l94 638h514z" />
    <glyph glyph-name="uni0123" unicode="&#x123;" horiz-adv-x="2442" 
d="M2314 2205v-1909q0 -255 -76 -461t-217 -351t-342 -223.5t-452 -78.5q-153 0 -290 28.5t-252.5 82t-208 130t-157.5 172.5t-99.5 210t-34.5 241h597q0 -89 32.5 -162.5t91 -126t138.5 -81.5t176 -29q116 0 208 44.5t155.5 128t97.5 203t34 269.5v492
q-37 -163 -104.5 -290t-162.5 -214.5t-216.5 -133.5t-265.5 -46q-129 0 -245 36t-214 104t-177 165t-134 218t-84.5 264.5t-29.5 303.5q0 161 29.5 302.5t84.5 261t134 214t177 160.5t214 101t245 35q144 0 265.5 -44t216.5 -129.5t162.5 -210.5t104.5 -286v610h599z
M1715 1191q0 137 -35 241t-102 174.5t-165 106.5t-224 36q-246 0 -375 -137.5t-129 -420.5q0 -284 128 -429.5t376 -145.5q126 0 224 38.5t165 112t102 180.5t35 244zM1219 3074h374l-94 -638h-514z" />
    <glyph glyph-name="Hcircumflex" unicode="&#x124;" horiz-adv-x="2736" 
d="M2598 0h-632v1156h-1196v-1156h-632v2860h632v-1162h1196v1162h632v-2860zM1556 3010l-186 341l-190 -341h-360l300 639h496l300 -639h-360z" />
    <glyph glyph-name="hcircumflex" unicode="&#x125;" 
d="M727 0h-599v2960h599v-1418q35 175 103 310t166 226.5t225.5 139t280.5 47.5q178 0 314.5 -64t229.5 -189t140.5 -308.5t47.5 -422.5v-1281h-599v1181q0 562 -428 562q-115 0 -204 -38.5t-150.5 -112.5t-93.5 -183.5t-32 -251.5v-1157zM615 3110l-186 341l-190 -341h-360
l300 639h496l300 -639h-360z" />
    <glyph glyph-name="Hbar" unicode="&#x126;" horiz-adv-x="2736" 
d="M2598 0h-632v1156h-1196v-1156h-632v2860h632v-1162h1196v1162h632v-2860zM2826 2107h-2916v382h2916v-382z" />
    <glyph glyph-name="hbar" unicode="&#x127;" 
d="M727 0h-599v2960h599v-1418q35 175 103 310t166 226.5t225.5 139t280.5 47.5q178 0 314.5 -64t229.5 -189t140.5 -308.5t47.5 -422.5v-1281h-599v1181q0 562 -428 562q-115 0 -204 -38.5t-150.5 -112.5t-93.5 -183.5t-32 -251.5v-1157zM1319 2343h-1418v380h1418v-380z
" />
    <glyph glyph-name="Itilde" unicode="&#x128;" horiz-adv-x="909" 
d="M770 0h-632v2860h632v-2860zM1056 3597q0 -144 -18.5 -249t-58 -172.5t-100 -100t-144.5 -32.5q-50 0 -93 10.5t-79 25.5t-64.5 32.5t-50.5 31.5l-55 34q-15 9 -33.5 20t-39.5 20.5t-44.5 16t-48.5 6.5q-53 0 -79.5 -38.5t-26.5 -132.5v-7h-223v10q0 284 81.5 421.5
t250.5 137.5q46 0 85 -9t71 -22.5t57.5 -29t44.5 -27.5l55 -35q16 -10 37.5 -23t47 -24t53.5 -19t57 -8q49 0 74 36.5t25 126.5v16h219v-16z" />
    <glyph glyph-name="itilde" unicode="&#x129;" horiz-adv-x="933" 
d="M766 0h-599v2205h599v-2205zM1068 2942q0 -144 -18.5 -249t-58 -172.5t-100 -100t-144.5 -32.5q-50 0 -93 10.5t-79 25.5t-64.5 32.5t-50.5 31.5l-55 34q-15 9 -33.5 20t-39.5 20.5t-44.5 16t-48.5 6.5q-53 0 -79.5 -38.5t-26.5 -132.5v-7h-223v10q0 284 81.5 421.5
t250.5 137.5q46 0 85 -9t71 -22.5t57.5 -29t44.5 -27.5l55 -35q16 -10 37.5 -23t47 -24t53.5 -19t57 -8q49 0 74 36.5t25 126.5v16h219v-16z" />
    <glyph glyph-name="Imacron" unicode="&#x12a;" horiz-adv-x="909" 
d="M770 0h-632v2860h632v-2860zM1006 3111h-1104v336h1104v-336z" />
    <glyph glyph-name="imacron" unicode="&#x12b;" horiz-adv-x="933" 
d="M766 0h-599v2205h599v-2205zM1018 2456h-1104v336h1104v-336z" />
    <glyph glyph-name="Ibreve" unicode="&#x12c;" horiz-adv-x="909" 
d="M770 0h-632v2860h632v-2860zM214 3649q0 -74 16.5 -132t47 -98.5t75.5 -62t102 -21.5t101.5 21.5t75 62t47 98.5t16.5 132h293q0 -153 -33 -272t-100 -200.5t-166.5 -124t-233.5 -42.5t-234 42.5t-167 124t-100 200.5t-33 272h293z" />
    <glyph glyph-name="ibreve" unicode="&#x12d;" horiz-adv-x="933" 
d="M766 0h-599v2205h599v-2205zM226 2994q0 -74 16.5 -132t47 -98.5t75.5 -62t102 -21.5t101.5 21.5t75 62t47 98.5t16.5 132h293q0 -153 -33 -272t-100 -200.5t-166.5 -124t-233.5 -42.5t-234 42.5t-167 124t-100 200.5t-33 272h293z" />
    <glyph glyph-name="Iogonek" unicode="&#x12e;" horiz-adv-x="909" 
d="M770 0h-632v2860h632v-2860zM768 0q-81 0 -159.5 -21.5t-141 -55.5t-101 -76t-38.5 -84q0 -57 73 -88.5t202 -31.5q43 0 85 3.5t87 10.5v-348q-57 -8 -114 -11.5t-108 -3.5q-115 0 -209.5 23.5t-162 66.5t-105 103.5t-37.5 133.5q0 89 53.5 165t148.5 131.5t225 88
t283 34.5z" />
    <glyph glyph-name="iogonek" unicode="&#x12f;" horiz-adv-x="855" 
d="M733 2436h-611v524h611v-524zM727 0h-599v2205h599v-2205zM725 0q-81 0 -159.5 -21.5t-141 -55.5t-101 -76t-38.5 -84q0 -57 73 -88.5t202 -31.5q43 0 85 3.5t87 10.5v-348q-57 -8 -114 -11.5t-108 -3.5q-115 0 -209.5 23.5t-162 66.5t-105 103.5t-37.5 133.5
q0 89 53.5 165t148.5 131.5t225 88t283 34.5z" />
    <glyph glyph-name="Idotaccent" unicode="&#x130;" horiz-adv-x="909" 
d="M770 0h-632v2860h632v-2860zM701 3053h-495v515h495v-515z" />
    <glyph glyph-name="dotlessi" unicode="&#x131;" horiz-adv-x="933" 
d="M766 0h-599v2205h599v-2205z" />
    <glyph glyph-name="IJ" unicode="&#x132;" horiz-adv-x="3416" 
d="M770 0h-632v2860h632v-2860zM978 1286h632v-233q0 -123 36.5 -228t104.5 -181t164 -119t214 -43q119 0 215 43.5t163 120.5t103 182.5t36 229.5v1802h632v-1810q0 -172 -38 -321t-109 -272t-173 -219.5t-230 -162.5t-279 -100.5t-321 -34.5q-169 0 -320.5 34.5
t-279 100.5t-229.5 162.5t-173.5 219.5t-109.5 272t-38 321v236z" />
    <glyph glyph-name="ij" unicode="&#x133;" horiz-adv-x="1710" 
d="M733 2436h-611v524h611v-524zM727 0h-599v2205h599v-2205zM1588 2436h-611v524h611v-524zM1582 156q0 -258 -52 -442.5t-163 -302.5t-283.5 -173.5t-414.5 -55.5h-80v496h65q78 0 132.5 18t91 49t57.5 72t31.5 87t13.5 94t3 92v2115h599v-2049z" />
    <glyph glyph-name="Jcircumflex" unicode="&#x134;" horiz-adv-x="2507" 
d="M69 1286h632v-233q0 -123 36.5 -228t104.5 -181t164 -119t214 -43q119 0 215 43.5t163 120.5t103 182.5t36 229.5v1802h632v-1810q0 -172 -38 -321t-109 -272t-173 -219.5t-230 -162.5t-279 -100.5t-321 -34.5q-169 0 -320.5 34.5t-279 100.5t-229.5 162.5t-173.5 219.5
t-109.5 272t-38 321v236zM2244 3010l-186 341l-190 -341h-360l300 639h496l300 -639h-360z" />
    <glyph glyph-name="jcircumflex" unicode="&#x135;" horiz-adv-x="854" 
d="M733 156q0 -258 -52 -442.5t-163.5 -302.5t-285.5 -173.5t-418 -55.5h-80v496h65q79 0 134.5 18t93 49t58.5 72t32 87t14 94t3 92v2115h599v-2049zM624 2355l-186 341l-190 -341h-360l300 639h496l300 -639h-360z" />
    <glyph glyph-name="uni0136" unicode="&#x136;" horiz-adv-x="2709" 
d="M1291 1419l1415 -1419h-835l-1101 1117v-1117h-632v2860h632v-1223l1065 1223h777zM1297 -788h-374l94 638h514z" />
    <glyph glyph-name="uni0137" unicode="&#x137;" horiz-adv-x="2369" 
d="M1225 1093l1111 -1093h-764l-845 849v-849h-599v2960h599v-1684l817 929h707zM1120 -788h-374l94 638h514z" />
    <glyph glyph-name="kgreenlandic" unicode="&#x138;" horiz-adv-x="2369" 
d="M1225 1093l1111 -1093h-764l-845 849v-849h-599v2205h599v-929l817 929h707z" />
    <glyph glyph-name="Lacute" unicode="&#x139;" horiz-adv-x="2133" 
d="M770 2860v-2322h1300v-538h-1932v2860h632zM1091.01 3649h-527.968l-301.982 -639h383.977z" />
    <glyph glyph-name="lacute" unicode="&#x13a;" horiz-adv-x="855" 
d="M727 0h-599v2960h599v-2960zM1067.01 3749h-527.968l-301.982 -639h383.977z" />
    <glyph glyph-name="uni013B" unicode="&#x13b;" horiz-adv-x="2133" 
d="M770 2860v-2322h1300v-538h-1932v2860h632zM1127 -788h-374l94 638h514z" />
    <glyph glyph-name="uni013C" unicode="&#x13c;" horiz-adv-x="855" 
d="M727 0h-599v2960h599v-2960zM435 -788h-374l94 638h514z" />
    <glyph glyph-name="Lcaron" unicode="&#x13d;" horiz-adv-x="2133" 
d="M770 2860v-2322h1300v-538h-1932v2860h632zM1920 1909h-374l79 951h464z" />
    <glyph glyph-name="lcaron" unicode="&#x13e;" horiz-adv-x="855" 
d="M727 0h-599v2960h599v-2960zM1238 2009h-374l79 951h464z" />
    <glyph glyph-name="Ldot" unicode="&#x13f;" horiz-adv-x="2133" 
d="M770 2860v-2322h1300v-538h-1932v2860h632zM1994 1408h-495v515h495v-515z" />
    <glyph glyph-name="ldot" unicode="&#x140;" horiz-adv-x="855" 
d="M727 0h-599v2960h599v-2960zM1424 981h-495v515h495v-515z" />
    <glyph glyph-name="Lslash" unicode="&#x141;" horiz-adv-x="2133" 
d="M770 2860v-2322h1300v-538h-1932v2860h632zM1364 1511l-1479 -667v400l1479 668v-401z" />
    <glyph glyph-name="lslash" unicode="&#x142;" horiz-adv-x="855" 
d="M727 0h-599v2960h599v-2960zM1002 1389l-1127 -509v384l1127 510v-385z" />
    <glyph glyph-name="Nacute" unicode="&#x143;" horiz-adv-x="2895" 
d="M2757 0h-897l-1116 2294v-2294h-606v2860h956l1057 -2159v2159h606v-2860zM2086.01 3613h-527.968l-301.982 -639h383.977z" />
    <glyph glyph-name="nacute" unicode="&#x144;" 
d="M727 0h-599v2205h599v-663q35 175 103 310t166 226.5t225.5 139t280.5 47.5q178 0 314.5 -64t229.5 -189t140.5 -308.5t47.5 -422.5v-1281h-599v1181q0 562 -428 562q-115 0 -204 -38.5t-150.5 -112.5t-93.5 -183.5t-32 -251.5v-1157zM1819.01 2994h-527.968
l-301.982 -639h383.977z" />
    <glyph glyph-name="uni0145" unicode="&#x145;" horiz-adv-x="2895" 
d="M2757 0h-897l-1116 2294v-2294h-606v2860h956l1057 -2159v2159h606v-2860zM1316 -788h-374l94 638h514z" />
    <glyph glyph-name="uni0146" unicode="&#x146;" 
d="M727 0h-599v2205h599v-663q35 175 103 310t166 226.5t225.5 139t280.5 47.5q178 0 314.5 -64t229.5 -189t140.5 -308.5t47.5 -422.5v-1281h-599v1181q0 562 -428 562q-115 0 -204 -38.5t-150.5 -112.5t-93.5 -183.5t-32 -251.5v-1157zM1191 -788h-374l94 638h514z" />
    <glyph glyph-name="Ncaron" unicode="&#x147;" horiz-adv-x="2895" 
d="M2757 0h-897l-1116 2294v-2294h-606v2860h956l1057 -2159v2159h606v-2860zM1696 2974h-496l-300 639h360l190 -341l186 341h360z" />
    <glyph glyph-name="ncaron" unicode="&#x148;" 
d="M727 0h-599v2205h599v-663q35 175 103 310t166 226.5t225.5 139t280.5 47.5q178 0 314.5 -64t229.5 -189t140.5 -308.5t47.5 -422.5v-1281h-599v1181q0 562 -428 562q-115 0 -204 -38.5t-150.5 -112.5t-93.5 -183.5t-32 -251.5v-1157zM1430 2355h-496l-300 639h360
l190 -341l186 341h360z" />
    <glyph glyph-name="napostrophe" unicode="&#x149;" horiz-adv-x="3123" 
d="M138 2860h2847v-2860h-2847v2860zM1561 1679l744 816h-1486zM553 574l781 856l-781 857v-1713zM2570 571v1715l-781 -856zM818 365h1484l-741 815z" />
    <glyph glyph-name="Eng" unicode="&#x14a;" horiz-adv-x="3123" 
d="M138 2860h2847v-2860h-2847v2860zM1561 1679l744 816h-1486zM553 574l781 856l-781 857v-1713zM2570 571v1715l-781 -856zM818 365h1484l-741 815z" />
    <glyph glyph-name="eng" unicode="&#x14b;" horiz-adv-x="3123" 
d="M138 2860h2847v-2860h-2847v2860zM1561 1679l744 816h-1486zM553 574l781 856l-781 857v-1713zM2570 571v1715l-781 -856zM818 365h1484l-741 815z" />
    <glyph glyph-name="Omacron" unicode="&#x14c;" horiz-adv-x="2997" 
d="M108 1430q0 225 46.5 422.5t132.5 363t210 296.5t278 221.5t336.5 138.5t386.5 48t386.5 -48t337 -138.5t278 -221.5t210 -296.5t133 -363.5t46.5 -422t-46.5 -422t-133 -363.5t-210 -296.5t-278 -221.5t-337 -138.5t-386.5 -48t-386.5 48t-336.5 138.5t-278 221.5
t-210 296.5t-132.5 363.5t-46.5 422zM744 1430q0 -229 50.5 -406t146.5 -297.5t236.5 -182.5t320.5 -62t320.5 62t237 182.5t147 297.5t50.5 406t-50.5 406t-147 297.5t-237 182.5t-320.5 62t-320.5 -62t-236.5 -182.5t-146.5 -297.5t-50.5 -406zM2049 3111h-1104v336h1104
v-336z" />
    <glyph glyph-name="omacron" unicode="&#x14d;" horiz-adv-x="2400" 
d="M82 1103q0 176 37 330.5t106.5 283.5t168.5 231t223 172.5t271 107.5t312 37t312 -37t271 -107.5t223 -172.5t168.5 -231t106.5 -283.5t37 -330.5t-37 -330.5t-106.5 -284t-168.5 -231t-223 -172t-271 -108t-312 -37.5t-312 37.5t-271 108t-223 172t-168.5 231
t-106.5 284t-37 330.5zM685 1103q0 -153 35 -272.5t101 -201t162 -124.5t217 -43q122 0 217.5 42.5t161.5 124.5t101 201.5t35 272.5t-35 272.5t-101 201t-161.5 124t-217.5 42.5q-121 0 -217 -42.5t-162 -124.5t-101 -201t-35 -272zM1752 2456h-1104v336h1104v-336z" />
    <glyph glyph-name="Obreve" unicode="&#x14e;" horiz-adv-x="2997" 
d="M108 1430q0 225 46.5 422.5t132.5 363t210 296.5t278 221.5t336.5 138.5t386.5 48t386.5 -48t337 -138.5t278 -221.5t210 -296.5t133 -363.5t46.5 -422t-46.5 -422t-133 -363.5t-210 -296.5t-278 -221.5t-337 -138.5t-386.5 -48t-386.5 48t-336.5 138.5t-278 221.5
t-210 296.5t-132.5 363.5t-46.5 422zM744 1430q0 -229 50.5 -406t146.5 -297.5t236.5 -182.5t320.5 -62t320.5 62t237 182.5t147 297.5t50.5 406t-50.5 406t-147 297.5t-237 182.5t-320.5 62t-320.5 -62t-236.5 -182.5t-146.5 -297.5t-50.5 -406zM1256 3649q0 -74 16.5 -132
t47 -98.5t75.5 -62t102 -21.5t101.5 21.5t75 62t47 98.5t16.5 132h293q0 -153 -33 -272t-100 -200.5t-166.5 -124t-233.5 -42.5t-234 42.5t-167 124t-100 200.5t-33 272h293z" />
    <glyph glyph-name="obreve" unicode="&#x14f;" horiz-adv-x="2400" 
d="M82 1103q0 176 37 330.5t106.5 283.5t168.5 231t223 172.5t271 107.5t312 37t312 -37t271 -107.5t223 -172.5t168.5 -231t106.5 -283.5t37 -330.5t-37 -330.5t-106.5 -284t-168.5 -231t-223 -172t-271 -108t-312 -37.5t-312 37.5t-271 108t-223 172t-168.5 231
t-106.5 284t-37 330.5zM685 1103q0 -153 35 -272.5t101 -201t162 -124.5t217 -43q122 0 217.5 42.5t161.5 124.5t101 201.5t35 272.5t-35 272.5t-101 201t-161.5 124t-217.5 42.5q-121 0 -217 -42.5t-162 -124.5t-101 -201t-35 -272zM960 2994q0 -74 16.5 -132t47 -98.5
t75.5 -62t102 -21.5t101.5 21.5t75 62t47 98.5t16.5 132h293q0 -153 -33 -272t-100 -200.5t-166.5 -124t-233.5 -42.5t-234 42.5t-167 124t-100 200.5t-33 272h293z" />
    <glyph glyph-name="Ohungarumlaut" unicode="&#x150;" horiz-adv-x="2997" 
d="M108 1430q0 225 46.5 422.5t132.5 363t210 296.5t278 221.5t336.5 138.5t386.5 48t386.5 -48t337 -138.5t278 -221.5t210 -296.5t133 -363.5t46.5 -422t-46.5 -422t-133 -363.5t-210 -296.5t-278 -221.5t-337 -138.5t-386.5 -48t-386.5 48t-336.5 138.5t-278 221.5
t-210 296.5t-132.5 363.5t-46.5 422zM744 1430q0 -229 50.5 -406t146.5 -297.5t236.5 -182.5t320.5 -62t320.5 62t237 182.5t147 297.5t50.5 406t-50.5 406t-147 297.5t-237 182.5t-320.5 62t-320.5 -62t-236.5 -182.5t-146.5 -297.5t-50.5 -406zM965 3010l214 639h478
l-324 -639h-368zM1579 3010l214 639h478l-324 -639h-368z" />
    <glyph glyph-name="ohungarumlaut" unicode="&#x151;" horiz-adv-x="2400" 
d="M82 1103q0 176 37 330.5t106.5 283.5t168.5 231t223 172.5t271 107.5t312 37t312 -37t271 -107.5t223 -172.5t168.5 -231t106.5 -283.5t37 -330.5t-37 -330.5t-106.5 -284t-168.5 -231t-223 -172t-271 -108t-312 -37.5t-312 37.5t-271 108t-223 172t-168.5 231
t-106.5 284t-37 330.5zM685 1103q0 -153 35 -272.5t101 -201t162 -124.5t217 -43q122 0 217.5 42.5t161.5 124.5t101 201.5t35 272.5t-35 272.5t-101 201t-161.5 124t-217.5 42.5q-121 0 -217 -42.5t-162 -124.5t-101 -201t-35 -272zM668 2355l214 639h478l-324 -639h-368z
M1282 2355l214 639h478l-324 -639h-368z" />
    <glyph glyph-name="OE" unicode="&#x152;" horiz-adv-x="3829" 
d="M3724 2322h-1344v-638h1228v-510h-1228v-636h1380v-538h-2262q-204 0 -386.5 46t-336.5 133t-278 212.5t-210 284.5t-132.5 349t-46.5 405q0 216 46.5 405.5t132.5 348.5t210 284.5t278 212.5t336.5 133t386.5 46h2226v-538zM744 1430q0 -214 50.5 -380t146.5 -278.5
t236.5 -171t320.5 -58.5h250v1776h-250q-180 0 -320.5 -58.5t-236.5 -171t-146.5 -278t-50.5 -380.5z" />
    <glyph glyph-name="oe" unicode="&#x153;" horiz-adv-x="4011" 
d="M82 1103q0 176 37 330.5t106.5 283.5t168.5 231t223 172.5t271 107.5t312 37q262 0 472.5 -93.5t356.5 -265.5q143 171 351 265t468 94q245 0 444 -82.5t340.5 -234t218.5 -365t77 -475.5q0 -40 -1.5 -80.5t-6.5 -82.5h-1595q14 -124 58.5 -221.5t115 -165t166 -103.5
t212.5 -36q347 0 479 328h562q-45 -188 -140.5 -337.5t-232.5 -254t-310.5 -160t-374.5 -55.5q-131 0 -250 24.5t-223.5 71t-194 113.5t-161.5 153q-72 -86 -162 -153t-195 -113.5t-224 -71t-250 -24.5q-165 0 -312 37.5t-271 108t-223 172t-168.5 231t-106.5 284t-37 330.5
zM3353 1315q-38 238 -164 358.5t-337 120.5q-108 0 -196 -32t-154 -93t-109.5 -150.5t-61.5 -203.5h1022zM685 1103q0 -153 35 -272.5t101 -201t162 -124.5t217 -43q122 0 217.5 42.5t161.5 124.5t101 201.5t35 272.5t-35 272.5t-101 201t-161.5 124t-217.5 42.5
q-121 0 -217 -42.5t-162 -124.5t-101 -201t-35 -272z" />
    <glyph glyph-name="Racute" unicode="&#x154;" horiz-adv-x="2741" 
d="M138 0v2861h1415q241 0 432.5 -61t325 -173.5t204.5 -272.5t71 -358q0 -173 -56 -314.5t-159.5 -243t-250 -159t-327.5 -63.5q171 -12 301.5 -125.5t224.5 -324.5l344 -766h-701l-347 765q-38 84 -77 139.5t-88 88.5t-112.5 46t-152.5 13h-415v-1052h-632zM1480 1562
q112 0 200 26.5t148.5 77t92.5 124t32 167.5q0 186 -122 284t-352 98h-709v-777h710zM1809.01 3649h-527.968l-301.982 -639h383.977z" />
    <glyph glyph-name="racute" unicode="&#x155;" horiz-adv-x="1669" 
d="M727 0h-599v2205h599v-766q30 177 88.5 319t148.5 241t214 152.5t286 53.5h132v-564h-232q-184 0 -306.5 -38t-196 -116t-104 -197.5t-30.5 -282.5v-1007zM1492.01 2994h-527.968l-301.982 -639h383.977z" />
    <glyph glyph-name="uni0156" unicode="&#x156;" horiz-adv-x="2741" 
d="M138 0v2861h1415q241 0 432.5 -61t325 -173.5t204.5 -272.5t71 -358q0 -173 -56 -314.5t-159.5 -243t-250 -159t-327.5 -63.5q171 -12 301.5 -125.5t224.5 -324.5l344 -766h-701l-347 765q-38 84 -77 139.5t-88 88.5t-112.5 46t-152.5 13h-415v-1052h-632zM1480 1562
q112 0 200 26.5t148.5 77t92.5 124t32 167.5q0 186 -122 284t-352 98h-709v-777h710zM1332 -788h-374l94 638h514z" />
    <glyph glyph-name="uni0157" unicode="&#x157;" horiz-adv-x="1669" 
d="M727 0h-599v2205h599v-766q30 177 88.5 319t148.5 241t214 152.5t286 53.5h132v-564h-232q-184 0 -306.5 -38t-196 -116t-104 -197.5t-30.5 -282.5v-1007zM436 -788h-374l94 638h514z" />
    <glyph glyph-name="Rcaron" unicode="&#x158;" horiz-adv-x="2741" 
d="M138 0v2861h1415q241 0 432.5 -61t325 -173.5t204.5 -272.5t71 -358q0 -173 -56 -314.5t-159.5 -243t-250 -159t-327.5 -63.5q171 -12 301.5 -125.5t224.5 -324.5l344 -766h-701l-347 765q-38 84 -77 139.5t-88 88.5t-112.5 46t-152.5 13h-415v-1052h-632zM1480 1562
q112 0 200 26.5t148.5 77t92.5 124t32 167.5q0 186 -122 284t-352 98h-709v-777h710zM1420 3010h-496l-300 639h360l190 -341l186 341h360z" />
    <glyph glyph-name="rcaron" unicode="&#x159;" horiz-adv-x="1669" 
d="M727 0h-599v2205h599v-766q30 177 88.5 319t148.5 241t214 152.5t286 53.5h132v-564h-232q-184 0 -306.5 -38t-196 -116t-104 -197.5t-30.5 -282.5v-1007zM1103 2355h-496l-300 639h360l190 -341l186 341h360z" />
    <glyph glyph-name="Sacute" unicode="&#x15a;" horiz-adv-x="2677" 
d="M1323 2920q276 0 496.5 -66t375 -190.5t237.5 -303t83 -402.5h-606q0 104 -42.5 186.5t-120.5 141t-187 89.5t-243 31q-111 0 -215.5 -22.5t-185 -67.5t-129 -113t-48.5 -158q0 -85 41.5 -138.5t123 -87.5t202 -56t277.5 -45l117 -17q90 -13 185 -28.5t190 -38t186.5 -53
t173.5 -74.5t151 -103.5t119.5 -138.5t78.5 -180t28 -228q0 -225 -89.5 -396.5t-254 -287t-397.5 -174.5t-520 -59q-309 0 -548 67t-402.5 194t-248.5 310.5t-85 416.5h606q0 -111 46.5 -199t134 -149t212.5 -93.5t281 -32.5q133 0 249.5 24t203 73t136.5 122t50 171
q0 93 -42 150.5t-122.5 92.5t-196 55.5t-262.5 41.5l-151 22q-118 17 -245 37.5t-249 55.5t-232 89t-193 138t-131.5 202t-48.5 281q0 149 42 274t119.5 226.5t187 178t244 128.5t291 78t327.5 26zM1957.01 3649h-527.968l-301.982 -639h383.977z" />
    <glyph glyph-name="sacute" unicode="&#x15b;" horiz-adv-x="2242" 
d="M1084 2265q243 0 433.5 -53t322 -152.5t200 -241.5t68.5 -321h-591q0 77 -27 138t-80.5 104t-132 65.5t-180.5 22.5q-90 0 -165 -17t-128 -48t-82.5 -75t-29.5 -97q0 -65 38 -106.5t101.5 -68.5t146.5 -43.5t174 -31.5l147 -26q89 -15 188.5 -34.5t196.5 -50.5t186 -78
t157 -117t108 -167t40 -229q0 -166 -68.5 -296t-201 -219.5t-326 -136t-444.5 -46.5q-264 0 -464.5 52t-336 151.5t-204.5 246t-69 335.5h591q0 -166 118 -254.5t360 -88.5q106 0 190.5 16.5t143 48.5t90 78t31.5 104q0 71 -38 115.5t-104.5 74t-157.5 48.5t-197 38l-147 26
q-81 14 -175 33t-187 49t-179.5 75t-152.5 112.5t-105.5 160t-39.5 218.5q0 159 67 286t193.5 216t309 136.5t412.5 47.5zM1728.01 2994h-527.968l-301.982 -639h383.977z" />
    <glyph glyph-name="Scircumflex" unicode="&#x15c;" horiz-adv-x="2677" 
d="M1323 2920q276 0 496.5 -66t375 -190.5t237.5 -303t83 -402.5h-606q0 104 -42.5 186.5t-120.5 141t-187 89.5t-243 31q-111 0 -215.5 -22.5t-185 -67.5t-129 -113t-48.5 -158q0 -85 41.5 -138.5t123 -87.5t202 -56t277.5 -45l117 -17q90 -13 185 -28.5t190 -38t186.5 -53
t173.5 -74.5t151 -103.5t119.5 -138.5t78.5 -180t28 -228q0 -225 -89.5 -396.5t-254 -287t-397.5 -174.5t-520 -59q-309 0 -548 67t-402.5 194t-248.5 310.5t-85 416.5h606q0 -111 46.5 -199t134 -149t212.5 -93.5t281 -32.5q133 0 249.5 24t203 73t136.5 122t50 171
q0 93 -42 150.5t-122.5 92.5t-196 55.5t-262.5 41.5l-151 22q-118 17 -245 37.5t-249 55.5t-232 89t-193 138t-131.5 202t-48.5 281q0 149 42 274t119.5 226.5t187 178t244 128.5t291 78t327.5 26zM1507 3010l-186 341l-190 -341h-360l300 639h496l300 -639h-360z" />
    <glyph glyph-name="scircumflex" unicode="&#x15d;" horiz-adv-x="2242" 
d="M1084 2265q243 0 433.5 -53t322 -152.5t200 -241.5t68.5 -321h-591q0 77 -27 138t-80.5 104t-132 65.5t-180.5 22.5q-90 0 -165 -17t-128 -48t-82.5 -75t-29.5 -97q0 -65 38 -106.5t101.5 -68.5t146.5 -43.5t174 -31.5l147 -26q89 -15 188.5 -34.5t196.5 -50.5t186 -78
t157 -117t108 -167t40 -229q0 -166 -68.5 -296t-201 -219.5t-326 -136t-444.5 -46.5q-264 0 -464.5 52t-336 151.5t-204.5 246t-69 335.5h591q0 -166 118 -254.5t360 -88.5q106 0 190.5 16.5t143 48.5t90 78t31.5 104q0 71 -38 115.5t-104.5 74t-157.5 48.5t-197 38l-147 26
q-81 14 -175 33t-187 49t-179.5 75t-152.5 112.5t-105.5 160t-39.5 218.5q0 159 67 286t193.5 216t309 136.5t412.5 47.5zM1278 2355l-186 341l-190 -341h-360l300 639h496l300 -639h-360z" />
    <glyph glyph-name="Scedilla" unicode="&#x15e;" horiz-adv-x="2677" 
d="M1323 2920q276 0 496.5 -66t375 -190.5t237.5 -303t83 -402.5h-606q0 104 -42.5 186.5t-120.5 141t-187 89.5t-243 31q-111 0 -215.5 -22.5t-185 -67.5t-129 -113t-48.5 -158q0 -85 41.5 -138.5t123 -87.5t202 -56t277.5 -45l117 -17q90 -13 185 -28.5t190 -38t186.5 -53
t173.5 -74.5t151 -103.5t119.5 -138.5t78.5 -180t28 -228q0 -225 -89.5 -396.5t-254 -287t-397.5 -174.5t-520 -59q-309 0 -548 67t-402.5 194t-248.5 310.5t-85 416.5h606q0 -111 46.5 -199t134 -149t212.5 -93.5t281 -32.5q133 0 249.5 24t203 73t136.5 122t50 171
q0 93 -42 150.5t-122.5 92.5t-196 55.5t-262.5 41.5l-151 22q-118 17 -245 37.5t-249 55.5t-232 89t-193 138t-131.5 202t-48.5 281q0 149 42 274t119.5 226.5t187 178t244 128.5t291 78t327.5 26zM1463 8l-29 -161q113 -2 203 -23.5t153 -60.5t97 -94t34 -123
q0 -74 -39 -134t-110 -103t-171 -66.5t-222 -23.5q-112 0 -238 21v248q111 -21 202 -21q119 0 184.5 30.5t65.5 79.5q0 60 -96.5 97t-286.5 37l53 297h200z" />
    <glyph glyph-name="scedilla" unicode="&#x15f;" horiz-adv-x="2242" 
d="M1084 2265q243 0 433.5 -53t322 -152.5t200 -241.5t68.5 -321h-591q0 77 -27 138t-80.5 104t-132 65.5t-180.5 22.5q-90 0 -165 -17t-128 -48t-82.5 -75t-29.5 -97q0 -65 38 -106.5t101.5 -68.5t146.5 -43.5t174 -31.5l147 -26q89 -15 188.5 -34.5t196.5 -50.5t186 -78
t157 -117t108 -167t40 -229q0 -166 -68.5 -296t-201 -219.5t-326 -136t-444.5 -46.5q-264 0 -464.5 52t-336 151.5t-204.5 246t-69 335.5h591q0 -166 118 -254.5t360 -88.5q106 0 190.5 16.5t143 48.5t90 78t31.5 104q0 71 -38 115.5t-104.5 74t-157.5 48.5t-197 38l-147 26
q-81 14 -175 33t-187 49t-179.5 75t-152.5 112.5t-105.5 160t-39.5 218.5q0 159 67 286t193.5 216t309 136.5t412.5 47.5zM1243 8l-29 -161q113 -2 203 -23.5t153 -60.5t97 -94t34 -123q0 -74 -39 -134t-110 -103t-171 -66.5t-222 -23.5q-112 0 -238 21v248q111 -21 202 -21
q119 0 184.5 30.5t65.5 79.5q0 60 -96.5 97t-286.5 37l53 297h200z" />
    <glyph glyph-name="Scaron" unicode="&#x160;" horiz-adv-x="2677" 
d="M1323 2920q276 0 496.5 -66t375 -190.5t237.5 -303t83 -402.5h-606q0 104 -42.5 186.5t-120.5 141t-187 89.5t-243 31q-111 0 -215.5 -22.5t-185 -67.5t-129 -113t-48.5 -158q0 -85 41.5 -138.5t123 -87.5t202 -56t277.5 -45l117 -17q90 -13 185 -28.5t190 -38t186.5 -53
t173.5 -74.5t151 -103.5t119.5 -138.5t78.5 -180t28 -228q0 -225 -89.5 -396.5t-254 -287t-397.5 -174.5t-520 -59q-309 0 -548 67t-402.5 194t-248.5 310.5t-85 416.5h606q0 -111 46.5 -199t134 -149t212.5 -93.5t281 -32.5q133 0 249.5 24t203 73t136.5 122t50 171
q0 93 -42 150.5t-122.5 92.5t-196 55.5t-262.5 41.5l-151 22q-118 17 -245 37.5t-249 55.5t-232 89t-193 138t-131.5 202t-48.5 281q0 149 42 274t119.5 226.5t187 178t244 128.5t291 78t327.5 26zM1568 3010h-496l-300 639h360l190 -341l186 341h360z" />
    <glyph glyph-name="scaron" unicode="&#x161;" horiz-adv-x="2242" 
d="M1084 2265q243 0 433.5 -53t322 -152.5t200 -241.5t68.5 -321h-591q0 77 -27 138t-80.5 104t-132 65.5t-180.5 22.5q-90 0 -165 -17t-128 -48t-82.5 -75t-29.5 -97q0 -65 38 -106.5t101.5 -68.5t146.5 -43.5t174 -31.5l147 -26q89 -15 188.5 -34.5t196.5 -50.5t186 -78
t157 -117t108 -167t40 -229q0 -166 -68.5 -296t-201 -219.5t-326 -136t-444.5 -46.5q-264 0 -464.5 52t-336 151.5t-204.5 246t-69 335.5h591q0 -166 118 -254.5t360 -88.5q106 0 190.5 16.5t143 48.5t90 78t31.5 104q0 71 -38 115.5t-104.5 74t-157.5 48.5t-197 38l-147 26
q-81 14 -175 33t-187 49t-179.5 75t-152.5 112.5t-105.5 160t-39.5 218.5q0 159 67 286t193.5 216t309 136.5t412.5 47.5zM1339 2355h-496l-300 639h360l190 -341l186 341h360z" />
    <glyph glyph-name="uni0162" unicode="&#x162;" horiz-adv-x="2474" 
d="M2441 2322h-888v-2322h-632v2322h-888v538h2408v-538zM1340 8l-29 -161q113 -2 203 -23.5t153 -60.5t97 -94t34 -123q0 -74 -39 -134t-110 -103t-171 -66.5t-222 -23.5q-112 0 -238 21v248q111 -21 202 -21q119 0 184.5 30.5t65.5 79.5q0 60 -96.5 97t-286.5 37l53 297
h200z" />
    <glyph glyph-name="uni0163" unicode="&#x163;" horiz-adv-x="1650" 
d="M1557 17q-277 -76 -494 -76q-364 0 -551.5 213.5t-187.5 634.5v940h-276v476h276v508h599v-508h634v-476h-634v-941q0 -190 70 -277.5t223 -87.5q62 0 145 13.5t196 42.5v-462zM1062 8l-29 -161q113 -2 203 -23.5t153 -60.5t97 -94t34 -123q0 -74 -39 -134t-110 -103
t-171 -66.5t-222 -23.5q-112 0 -238 21v248q111 -21 202 -21q119 0 184.5 30.5t65.5 79.5q0 60 -96.5 97t-286.5 37l53 297h200z" />
    <glyph glyph-name="Tcaron" unicode="&#x164;" horiz-adv-x="2474" 
d="M2441 2322h-888v-2322h-632v2322h-888v538h2408v-538zM1487 3010h-496l-300 639h360l190 -341l186 341h360z" />
    <glyph glyph-name="tcaron" unicode="&#x165;" horiz-adv-x="1650" 
d="M1557 17q-277 -76 -494 -76q-364 0 -551.5 213.5t-187.5 634.5v940h-276v476h276v508h599v-508h634v-476h-634v-941q0 -190 70 -277.5t223 -87.5q62 0 145 13.5t196 42.5v-462zM1501 2335h-374l79 951h464z" />
    <glyph glyph-name="Tbar" unicode="&#x166;" horiz-adv-x="2474" 
d="M2441 2322h-888v-2322h-632v2322h-888v538h2408v-538zM2108 1094h-1739v381h1739v-381z" />
    <glyph glyph-name="tbar" unicode="&#x167;" horiz-adv-x="1650" 
d="M1557 17q-277 -76 -494 -76q-364 0 -551.5 213.5t-187.5 634.5v940h-276v476h276v508h599v-508h634v-476h-634v-941q0 -190 70 -277.5t223 -87.5q62 0 145 13.5t196 42.5v-462zM1507 1006h-1460v345h1460v-345z" />
    <glyph glyph-name="Utilde" unicode="&#x168;" horiz-adv-x="2772" 
d="M138 2860h632v-1656q0 -365 159 -543.5t457 -178.5q149 0 263.5 44.5t193 134t119 225t40.5 318.5v1656h632v-1700q0 -192 -41 -357.5t-118 -301t-187.5 -240t-249 -176t-303 -108.5t-349.5 -37t-349.5 37t-303.5 108.5t-249 176t-187 240t-118 301t-41 357.5v1700z
M1988 3597q0 -144 -18.5 -249t-58 -172.5t-100 -100t-144.5 -32.5q-50 0 -93 10.5t-79 25.5t-64.5 32.5t-50.5 31.5l-55 34q-15 9 -33.5 20t-39.5 20.5t-44.5 16t-48.5 6.5q-53 0 -79.5 -38.5t-26.5 -132.5v-7h-223v10q0 284 81.5 421.5t250.5 137.5q46 0 85 -9t71 -22.5
t57.5 -29t44.5 -27.5l55 -35q16 -10 37.5 -23t47 -24t53.5 -19t57 -8q49 0 74 36.5t25 126.5v16h219v-16z" />
    <glyph glyph-name="utilde" unicode="&#x169;" 
d="M1625 2205h599v-2205h-599v663q-35 -175 -103 -310t-166 -226.5t-225.5 -139t-280.5 -47.5q-178 0 -314.5 64t-229.5 189t-140.5 308.5t-47.5 422.5v1281h599v-1181q0 -282 106.5 -422t322.5 -140q114 0 203.5 38.5t150.5 113t93 183.5t32 251v1157zM1772 2942
q0 -144 -18.5 -249t-58 -172.5t-100 -100t-144.5 -32.5q-50 0 -93 10.5t-79 25.5t-64.5 32.5t-50.5 31.5l-55 34q-15 9 -33.5 20t-39.5 20.5t-44.5 16t-48.5 6.5q-53 0 -79.5 -38.5t-26.5 -132.5v-7h-223v10q0 284 81.5 421.5t250.5 137.5q46 0 85 -9t71 -22.5t57.5 -29
t44.5 -27.5l55 -35q16 -10 37.5 -23t47 -24t53.5 -19t57 -8q49 0 74 36.5t25 126.5v16h219v-16z" />
    <glyph glyph-name="Umacron" unicode="&#x16a;" horiz-adv-x="2772" 
d="M138 2860h632v-1656q0 -365 159 -543.5t457 -178.5q149 0 263.5 44.5t193 134t119 225t40.5 318.5v1656h632v-1700q0 -192 -41 -357.5t-118 -301t-187.5 -240t-249 -176t-303 -108.5t-349.5 -37t-349.5 37t-303.5 108.5t-249 176t-187 240t-118 301t-41 357.5v1700z
M1938 3111h-1104v336h1104v-336z" />
    <glyph glyph-name="umacron" unicode="&#x16b;" 
d="M1625 2205h599v-2205h-599v663q-35 -175 -103 -310t-166 -226.5t-225.5 -139t-280.5 -47.5q-178 0 -314.5 64t-229.5 189t-140.5 308.5t-47.5 422.5v1281h599v-1181q0 -282 106.5 -422t322.5 -140q114 0 203.5 38.5t150.5 113t93 183.5t32 251v1157zM1723 2456h-1104v336
h1104v-336z" />
    <glyph glyph-name="Ubreve" unicode="&#x16c;" horiz-adv-x="2772" 
d="M138 2860h632v-1656q0 -365 159 -543.5t457 -178.5q149 0 263.5 44.5t193 134t119 225t40.5 318.5v1656h632v-1700q0 -192 -41 -357.5t-118 -301t-187.5 -240t-249 -176t-303 -108.5t-349.5 -37t-349.5 37t-303.5 108.5t-249 176t-187 240t-118 301t-41 357.5v1700z
M1146 3649q0 -74 16.5 -132t47 -98.5t75.5 -62t102 -21.5t101.5 21.5t75 62t47 98.5t16.5 132h293q0 -153 -33 -272t-100 -200.5t-166.5 -124t-233.5 -42.5t-234 42.5t-167 124t-100 200.5t-33 272h293z" />
    <glyph glyph-name="ubreve" unicode="&#x16d;" 
d="M1625 2205h599v-2205h-599v663q-35 -175 -103 -310t-166 -226.5t-225.5 -139t-280.5 -47.5q-178 0 -314.5 64t-229.5 189t-140.5 308.5t-47.5 422.5v1281h599v-1181q0 -282 106.5 -422t322.5 -140q114 0 203.5 38.5t150.5 113t93 183.5t32 251v1157zM930 2994
q0 -74 16.5 -132t47 -98.5t75.5 -62t102 -21.5t101.5 21.5t75 62t47 98.5t16.5 132h293q0 -153 -33 -272t-100 -200.5t-166.5 -124t-233.5 -42.5t-234 42.5t-167 124t-100 200.5t-33 272h293z" />
    <glyph glyph-name="Uring" unicode="&#x16e;" horiz-adv-x="2772" 
d="M138 2860h632v-1656q0 -365 159 -543.5t457 -178.5q149 0 263.5 44.5t193 134t119 225t40.5 318.5v1656h632v-1700q0 -192 -41 -357.5t-118 -301t-187.5 -240t-249 -176t-303 -108.5t-349.5 -37t-349.5 37t-303.5 108.5t-249 176t-187 240t-118 301t-41 357.5v1700z
M940 3447q0 98 32.5 178.5t91 137.5t140 88t178.5 31t178 -31.5t139.5 -88.5t91 -137t32.5 -178t-32.5 -178.5t-91 -137.5t-139.5 -88.5t-178 -31.5t-178.5 31t-140 88t-91 137.5t-32.5 179.5zM1205 3447q0 -93 48.5 -144.5t128.5 -51.5q79 0 128 51.5t49 144.5t-48.5 144
t-128.5 51t-128.5 -51.5t-48.5 -143.5z" />
    <glyph glyph-name="uring" unicode="&#x16f;" 
d="M1625 2205h599v-2205h-599v663q-35 -175 -103 -310t-166 -226.5t-225.5 -139t-280.5 -47.5q-178 0 -314.5 64t-229.5 189t-140.5 308.5t-47.5 422.5v1281h599v-1181q0 -282 106.5 -422t322.5 -140q114 0 203.5 38.5t150.5 113t93 183.5t32 251v1157zM725 2792
q0 98 32.5 178.5t91 137.5t140 88t178.5 31t178 -31.5t139.5 -88.5t91 -137t32.5 -178t-32.5 -178.5t-91 -137.5t-139.5 -88.5t-178 -31.5t-178.5 31t-140 88t-91 137.5t-32.5 179.5zM990 2792q0 -93 48.5 -144.5t128.5 -51.5q79 0 128 51.5t49 144.5t-48.5 144t-128.5 51
t-128.5 -51.5t-48.5 -143.5z" />
    <glyph glyph-name="Uhungarumlaut" unicode="&#x170;" horiz-adv-x="2772" 
d="M138 2860h632v-1656q0 -365 159 -543.5t457 -178.5q149 0 263.5 44.5t193 134t119 225t40.5 318.5v1656h632v-1700q0 -192 -41 -357.5t-118 -301t-187.5 -240t-249 -176t-303 -108.5t-349.5 -37t-349.5 37t-303.5 108.5t-249 176t-187 240t-118 301t-41 357.5v1700z
M854 3010l214 639h478l-324 -639h-368zM1468 3010l214 639h478l-324 -639h-368z" />
    <glyph glyph-name="uhungarumlaut" unicode="&#x171;" 
d="M1625 2205h599v-2205h-599v663q-35 -175 -103 -310t-166 -226.5t-225.5 -139t-280.5 -47.5q-178 0 -314.5 64t-229.5 189t-140.5 308.5t-47.5 422.5v1281h599v-1181q0 -282 106.5 -422t322.5 -140q114 0 203.5 38.5t150.5 113t93 183.5t32 251v1157zM639 2355l214 639
h478l-324 -639h-368zM1253 2355l214 639h478l-324 -639h-368z" />
    <glyph glyph-name="Uogonek" unicode="&#x172;" horiz-adv-x="2772" 
d="M138 2860h632v-1656q0 -365 159 -543.5t457 -178.5q149 0 263.5 44.5t193 134t119 225t40.5 318.5v1656h632v-1700q0 -192 -41 -357.5t-118 -301t-187.5 -240t-249 -176t-303 -108.5t-349.5 -37t-349.5 37t-303.5 108.5t-249 176t-187 240t-118 301t-41 357.5v1700z
M1814 0q-81 0 -159.5 -21.5t-141 -55.5t-101 -76t-38.5 -84q0 -57 73 -88.5t202 -31.5q43 0 85 3.5t87 10.5v-348q-57 -8 -114 -11.5t-108 -3.5q-115 0 -209.5 23.5t-162 66.5t-105 103.5t-37.5 133.5q0 89 53.5 165t148.5 131.5t225 88t283 34.5z" />
    <glyph glyph-name="uogonek" unicode="&#x173;" 
d="M1625 2205h599v-2205h-599v663q-35 -175 -103 -310t-166 -226.5t-225.5 -139t-280.5 -47.5q-178 0 -314.5 64t-229.5 189t-140.5 308.5t-47.5 422.5v1281h599v-1181q0 -282 106.5 -422t322.5 -140q114 0 203.5 38.5t150.5 113t93 183.5t32 251v1157zM2222 0
q-81 0 -159.5 -21.5t-141 -55.5t-101 -76t-38.5 -84q0 -57 73 -88.5t202 -31.5q43 0 85 3.5t87 10.5v-348q-57 -8 -114 -11.5t-108 -3.5q-115 0 -209.5 23.5t-162 66.5t-105 103.5t-37.5 133.5q0 89 53.5 165t148.5 131.5t225 88t283 34.5z" />
    <glyph glyph-name="Wcircumflex" unicode="&#x174;" horiz-adv-x="4370" 
d="M2611 2860l495 -2451l537 2451h649l-714 -2860h-894l-499 2360l-507 -2360h-894l-705 2860h674l530 -2451l503 2451h825zM2373 3010l-186 341l-190 -341h-360l300 639h496l300 -639h-360z" />
    <glyph glyph-name="wcircumflex" unicode="&#x175;" horiz-adv-x="3700" 
d="M2245 2205l401 -1794l424 1794h590l-574 -2205h-834l-403 1767l-403 -1767h-834l-574 2205h614l423 -1812l403 1812h767zM2038 2355l-186 341l-190 -341h-360l300 639h496l300 -639h-360z" />
    <glyph glyph-name="Ycircumflex" unicode="&#x176;" horiz-adv-x="2735" 
d="M2742 2860l-1062 -1820v-1040h-632v1039l-1055 1821h698l679 -1236l689 1236h683zM1555 3010l-186 341l-190 -341h-360l300 639h496l300 -639h-360z" />
    <glyph glyph-name="ycircumflex" unicode="&#x177;" 
d="M2329 2205l-841 -2267q-72 -197 -169.5 -339.5t-225.5 -235t-288 -137t-357 -44.5q-152 0 -316 28v484q69 -10 127 -14.5t109 -4.5q89 0 162 14.5t133 44.5t107.5 77t85.5 112l-833 2282h630l526 -1739l534 1739h616zM1364 2319l-186 341l-190 -341h-360l300 639h496
l300 -639h-360z" />
    <glyph glyph-name="Ydieresis" unicode="&#x178;" horiz-adv-x="2735" 
d="M2742 2860l-1062 -1820v-1040h-632v1039l-1055 1821h698l679 -1236l689 1236h683zM1281 3053h-495v515h495v-515zM1950 3053h-495v515h495v-515z" />
    <glyph glyph-name="Zacute" unicode="&#x179;" horiz-adv-x="2541" 
d="M871 538h1532v-538h-2265v568l1433 1754h-1383v538h2115v-568zM1893.01 3649h-527.968l-301.982 -639h383.977z" />
    <glyph glyph-name="zacute" unicode="&#x17a;" horiz-adv-x="2153" 
d="M746 476h1324v-476h-1987v506l1228 1223h-1190v476h1872v-506zM1710.01 2958h-527.968l-301.982 -639h383.977z" />
    <glyph glyph-name="Zdotaccent" unicode="&#x17b;" horiz-adv-x="2541" 
d="M871 538h1532v-538h-2265v568l1433 1754h-1383v538h2115v-568zM1502 3053h-495v515h495v-515z" />
    <glyph glyph-name="zdotaccent" unicode="&#x17c;" horiz-adv-x="2153" 
d="M746 476h1324v-476h-1987v506l1228 1223h-1190v476h1872v-506zM1318 2362h-495v515h495v-515z" />
    <glyph glyph-name="Zcaron" unicode="&#x17d;" horiz-adv-x="2541" 
d="M871 538h1532v-538h-2265v568l1433 1754h-1383v538h2115v-568zM1504 3010h-496l-300 639h360l190 -341l186 341h360z" />
    <glyph glyph-name="zcaron" unicode="&#x17e;" horiz-adv-x="2153" 
d="M746 476h1324v-476h-1987v506l1228 1223h-1190v476h1872v-506zM1320 2319h-496l-300 639h360l190 -341l186 341h360z" />
    <glyph glyph-name="longs" unicode="&#x17f;" horiz-adv-x="3123" 
d="M138 2860h2847v-2860h-2847v2860zM1561 1679l744 816h-1486zM553 574l781 856l-781 857v-1713zM2570 571v1715l-781 -856zM818 365h1484l-741 815z" />
    <glyph glyph-name="florin" unicode="&#x192;" horiz-adv-x="2011" 
d="M1953 2589q-80 14 -151.5 21.5t-133.5 7.5q-201 0 -296 -87.5t-95 -270.5v-55h676v-476h-648v-1752q0 -194 -55.5 -342.5t-163.5 -249t-267 -152t-366 -51.5q-92 0 -191.5 9.5t-203.5 29.5v462q77 -14 145.5 -21.5t127.5 -7.5q193 0 284 87.5t91 270.5v1717h-297v476h297
v62q0 201 55.5 354.5t163.5 257.5t267 157.5t367 53.5q91 0 190.5 -9.5t203.5 -29.5v-462z" />
    <glyph glyph-name="AEacute" unicode="&#x1fc;" horiz-adv-x="3708" 
d="M3 0l1204 2860h2395v-538h-1344v-638h1228v-510h-1228v-636h1380v-538h-2012v599h-722l-233 -599h-668zM1626 1115v1339l-521 -1339h521zM3042.01 3649h-527.968l-301.982 -639h383.977z" />
    <glyph glyph-name="aeacute" unicode="&#x1fd;" horiz-adv-x="3929" 
d="M133 1397q0 201 73.5 361.5t211 273t333.5 173t442 60.5q271 0 476.5 -77t339.5 -223q140 144 331.5 222t426.5 78q245 0 444 -82.5t340.5 -234t218.5 -365t77 -475.5q0 -40 -2 -80.5t-6 -82.5h-1596q14 -124 58 -221.5t113.5 -165t164 -103.5t209.5 -36q328 0 465 292
h563q-49 -180 -145 -323t-231 -242.5t-304 -152.5t-364 -53q-190 0 -354.5 50t-297 143t-230.5 226t-154 298q-26 -165 -101.5 -298t-191 -226t-267.5 -143t-332 -50q-175 0 -318 47t-245 132.5t-157.5 206t-55.5 268.5q0 156 62.5 279t180 208.5t287.5 130.5t386 45h681v51
q0 114 -33 204t-95 152.5t-152.5 95.5t-205.5 33q-116 0 -200.5 -27.5t-140 -78.5t-82 -124.5t-26.5 -165.5h-597zM3271 1315q-38 238 -164 358.5t-337 120.5q-108 0 -196 -32t-154 -93t-109 -150.5t-61 -203.5h1021zM1046 893q-187 0 -283 -62.5t-96 -183.5
q0 -126 100.5 -193.5t287.5 -67.5q132 0 243.5 33.5t193 92.5t127.5 140t46 176v65h-619zM2597.01 2994h-527.968l-301.982 -639h383.977z" />
    <glyph glyph-name="Oslashacute" unicode="&#x1fe;" horiz-adv-x="2996" 
d="M475 372q-87 97 -155 213.5t-115.5 249.5t-72 282.5t-24.5 312.5q0 225 46.5 422.5t132.5 363t210 296.5t278 221.5t336.5 138.5t386.5 48q207 0 389.5 -48.5t338.5 -141.5l149 190h491l-344 -434q174 -195 270 -462t96 -594q0 -224 -46.5 -422t-132.5 -363.5
t-210 -296.5t-278 -221.5t-336.5 -138.5t-386.5 -48q-209 0 -392.5 49.5t-340.5 143.5l-156 -193h-472zM744 1430q0 -321 98 -538l1063 1377q-168 109 -407 109q-180 0 -320.5 -62t-236.5 -182.5t-146.5 -297.5t-50.5 -406zM1092 590q84 -54 185 -81t221 -27q180 0 320.5 62
t236.5 182.5t146.5 297.5t50.5 406q0 161 -24.5 294.5t-72.5 242.5zM2135.01 3649h-527.968l-301.982 -639h383.977z" />
    <glyph glyph-name="oslashacute" unicode="&#x1ff;" horiz-adv-x="2400" 
d="M2026 1927q140 -152 216 -359.5t76 -464.5q0 -176 -37 -330.5t-106.5 -284t-168.5 -231t-223 -172t-271 -108t-312 -37.5t-309.5 36.5t-269.5 106.5l-113 -143h-402l268 338q-140 152 -216 360t-76 465q0 176 37 330.5t106.5 283.5t168.5 231t223 172.5t271 107.5t312 37
t309.5 -36.5t269.5 -106.5l113 143h402zM685 1103q0 -97 14 -179.5t41 -151.5l715 910q-110 61 -255 61q-121 0 -217 -42.5t-162 -124.5t-101 -201t-35 -272zM945 523q110 -61 255 -61q122 0 217.5 42.5t161.5 124.5t101 201.5t35 272.5q0 191 -55 330zM1838.01 2994
h-527.968l-301.982 -639h383.977z" />
    <glyph glyph-name="uni0218" unicode="&#x218;" horiz-adv-x="2677" 
d="M1323 2920q276 0 496.5 -66t375 -190.5t237.5 -303t83 -402.5h-606q0 104 -42.5 186.5t-120.5 141t-187 89.5t-243 31q-111 0 -215.5 -22.5t-185 -67.5t-129 -113t-48.5 -158q0 -85 41.5 -138.5t123 -87.5t202 -56t277.5 -45l117 -17q90 -13 185 -28.5t190 -38t186.5 -53
t173.5 -74.5t151 -103.5t119.5 -138.5t78.5 -180t28 -228q0 -225 -89.5 -396.5t-254 -287t-397.5 -174.5t-520 -59q-309 0 -548 67t-402.5 194t-248.5 310.5t-85 416.5h606q0 -111 46.5 -199t134 -149t212.5 -93.5t281 -32.5q133 0 249.5 24t203 73t136.5 122t50 171
q0 93 -42 150.5t-122.5 92.5t-196 55.5t-262.5 41.5l-151 22q-118 17 -245 37.5t-249 55.5t-232 89t-193 138t-131.5 202t-48.5 281q0 149 42 274t119.5 226.5t187 178t244 128.5t291 78t327.5 26zM1381 -788h-374l94 638h514z" />
    <glyph glyph-name="uni0219" unicode="&#x219;" horiz-adv-x="2242" 
d="M1084 2265q243 0 433.5 -53t322 -152.5t200 -241.5t68.5 -321h-591q0 77 -27 138t-80.5 104t-132 65.5t-180.5 22.5q-90 0 -165 -17t-128 -48t-82.5 -75t-29.5 -97q0 -65 38 -106.5t101.5 -68.5t146.5 -43.5t174 -31.5l147 -26q89 -15 188.5 -34.5t196.5 -50.5t186 -78
t157 -117t108 -167t40 -229q0 -166 -68.5 -296t-201 -219.5t-326 -136t-444.5 -46.5q-264 0 -464.5 52t-336 151.5t-204.5 246t-69 335.5h591q0 -166 118 -254.5t360 -88.5q106 0 190.5 16.5t143 48.5t90 78t31.5 104q0 71 -38 115.5t-104.5 74t-157.5 48.5t-197 38l-147 26
q-81 14 -175 33t-187 49t-179.5 75t-152.5 112.5t-105.5 160t-39.5 218.5q0 159 67 286t193.5 216t309 136.5t412.5 47.5zM1161 -788h-374l94 638h514z" />
    <glyph glyph-name="uni021A" unicode="&#x21a;" horiz-adv-x="2474" 
d="M2441 2322h-888v-2322h-632v2322h-888v538h2408v-538zM1257 -788h-374l94 638h514z" />
    <glyph glyph-name="uni021B" unicode="&#x21b;" horiz-adv-x="1650" 
d="M1557 17q-277 -76 -494 -76q-364 0 -551.5 213.5t-187.5 634.5v940h-276v476h276v508h599v-508h634v-476h-634v-941q0 -190 70 -277.5t223 -87.5q62 0 145 13.5t196 42.5v-462zM980 -788h-374l94 638h514z" />
    <glyph glyph-name="uni0237" unicode="&#x237;" horiz-adv-x="854" 
d="M733 156q0 -258 -52 -442.5t-163.5 -302.5t-285.5 -173.5t-418 -55.5h-80v496h65q79 0 134.5 18t93 49t58.5 72t32 87t14 94t3 92v2115h599v-2049z" />
    <glyph glyph-name="circumflex" unicode="&#x2c6;" horiz-adv-x="1372" 
d="M874 2295l-186 341l-190 -341h-360l300 639h496l300 -639h-360z" />
    <glyph glyph-name="caron" unicode="&#x2c7;" horiz-adv-x="1373" 
d="M934 2295h-496l-300 639h360l190 -341l186 341h360z" />
    <glyph glyph-name="breve" unicode="&#x2d8;" horiz-adv-x="1343" 
d="M431 2934q0 -74 16.5 -132t47 -98.5t75.5 -62t102 -21.5t101.5 21.5t75 62t47 98.5t16.5 132h293q0 -153 -33 -272t-100 -200.5t-166.5 -124t-233.5 -42.5t-234 42.5t-167 124t-100 200.5t-33 272h293z" />
    <glyph glyph-name="dotaccent" unicode="&#x2d9;" horiz-adv-x="771" 
d="M633 2338h-495v515h495v-515z" />
    <glyph glyph-name="ring" unicode="&#x2da;" horiz-adv-x="1156" 
d="M132 2732q0 98 32.5 178.5t91 137.5t140 88t178.5 31t178 -31.5t139.5 -88.5t91 -137t32.5 -178t-32.5 -178.5t-91 -137.5t-139.5 -88.5t-178 -31.5t-178.5 31t-140 88t-91 137.5t-32.5 179.5zM397 2732q0 -93 48.5 -144.5t128.5 -51.5q79 0 128 51.5t49 144.5t-48.5 144
t-128.5 51t-128.5 -51.5t-48.5 -143.5z" />
    <glyph glyph-name="ogonek" unicode="&#x2db;" horiz-adv-x="1014" 
d="M868 -59q-81 0 -159.5 -21.5t-141 -55.5t-101 -76t-38.5 -84q0 -57 73 -88.5t202 -31.5q43 0 85 3.5t87 10.5v-348q-57 -8 -114 -11.5t-108 -3.5q-115 0 -209.5 23.5t-162 66.5t-105 103.5t-37.5 133.5q0 89 53.5 165t148.5 131.5t225 88t283 34.5z" />
    <glyph glyph-name="tilde" unicode="&#x2dc;" horiz-adv-x="1432" 
d="M1296 2882q0 -144 -18.5 -249t-58 -172.5t-100 -100t-144.5 -32.5q-50 0 -93 10.5t-79 25.5t-64.5 32.5t-50.5 31.5l-55 34q-15 9 -33.5 20t-39.5 20.5t-44.5 16t-48.5 6.5q-53 0 -79.5 -38.5t-26.5 -132.5v-7h-223v10q0 284 81.5 421.5t250.5 137.5q46 0 85 -9t71 -22.5
t57.5 -29t44.5 -27.5l55 -35q16 -10 37.5 -23t47 -24t53.5 -19t57 -8q49 0 74 36.5t25 126.5v16h219v-16z" />
    <glyph glyph-name="hungarumlaut" unicode="&#x2dd;" horiz-adv-x="1583" 
d="M138 2295l214 639h478l-324 -639h-368zM752 2295l214 639h478l-324 -639h-368z" />
    <glyph glyph-name="uni03BC" unicode="&#x3bc;" horiz-adv-x="3123" 
d="M138 2860h2847v-2860h-2847v2860zM1561 1679l744 816h-1486zM553 574l781 856l-781 857v-1713zM2570 571v1715l-781 -856zM818 365h1484l-741 815z" />
    <glyph glyph-name="Wgrave" unicode="&#x1e80;" horiz-adv-x="4370" 
d="M2611 2860l495 -2451l537 2451h649l-714 -2860h-894l-499 2360l-507 -2360h-894l-705 2860h674l530 -2451l503 2451h825zM1547 3649h528l302 -639h-384z" />
    <glyph glyph-name="wgrave" unicode="&#x1e81;" horiz-adv-x="3700" 
d="M2245 2205l401 -1794l424 1794h590l-574 -2205h-834l-403 1767l-403 -1767h-834l-574 2205h614l423 -1812l403 1812h767zM1212 2994h528l302 -639h-384z" />
    <glyph glyph-name="Wacute" unicode="&#x1e82;" horiz-adv-x="4370" 
d="M2611 2860l495 -2451l537 2451h649l-714 -2860h-894l-499 2360l-507 -2360h-894l-705 2860h674l530 -2451l503 2451h825zM2823.01 3649h-527.968l-301.982 -639h383.977z" />
    <glyph glyph-name="wacute" unicode="&#x1e83;" horiz-adv-x="3700" 
d="M2245 2205l401 -1794l424 1794h590l-574 -2205h-834l-403 1767l-403 -1767h-834l-574 2205h614l423 -1812l403 1812h767zM2488.01 2994h-527.968l-301.982 -639h383.977z" />
    <glyph glyph-name="Wdieresis" unicode="&#x1e84;" horiz-adv-x="4370" 
d="M2611 2860l495 -2451l537 2451h649l-714 -2860h-894l-499 2360l-507 -2360h-894l-705 2860h674l530 -2451l503 2451h825zM2098 3053h-495v515h495v-515zM2767 3053h-495v515h495v-515z" />
    <glyph glyph-name="wdieresis" unicode="&#x1e85;" horiz-adv-x="3700" 
d="M2245 2205l401 -1794l424 1794h590l-574 -2205h-834l-403 1767l-403 -1767h-834l-574 2205h614l423 -1812l403 1812h767zM1763 2398h-495v515h495v-515zM2432 2398h-495v515h495v-515z" />
    <glyph glyph-name="Ygrave" unicode="&#x1ef2;" horiz-adv-x="2735" 
d="M2742 2860l-1062 -1820v-1040h-632v1039l-1055 1821h698l679 -1236l689 1236h683zM730 3649h528l302 -639h-384z" />
    <glyph glyph-name="ygrave" unicode="&#x1ef3;" 
d="M2329 2205l-841 -2267q-72 -197 -169.5 -339.5t-225.5 -235t-288 -137t-357 -44.5q-152 0 -316 28v484q69 -10 127 -14.5t109 -4.5q89 0 162 14.5t133 44.5t107.5 77t85.5 112l-833 2282h630l526 -1739l534 1739h616zM538 2958h528l302 -639h-384z" />
    <glyph glyph-name="endash" unicode="&#x2013;" horiz-adv-x="2977" 
d="M2839 897h-2701v522h2701v-522z" />
    <glyph glyph-name="emdash" unicode="&#x2014;" horiz-adv-x="4236" 
d="M4098 897h-3960v522h3960v-522z" />
    <glyph glyph-name="quoteleft" unicode="&#x2018;" horiz-adv-x="1047" 
d="M495.026 2959.95h413.975l-139.991 -1401.92h-629.962z" />
    <glyph glyph-name="quoteright" unicode="&#x2019;" horiz-adv-x="1047" 
d="M552.004 1558.23h-413.949l139.982 1401.83h629.924z" />
    <glyph glyph-name="quotesinglbase" unicode="&#x201a;" horiz-adv-x="894" 
d="M434 -758h-414l140 1402h630z" />
    <glyph glyph-name="quotedblleft" unicode="&#x201c;" horiz-adv-x="1767" 
d="M495.026 2959.95h413.975l-139.991 -1401.92h-629.962zM1215.03 2959.95h413.975l-139.991 -1401.92h-629.962z" />
    <glyph glyph-name="quotedblright" unicode="&#x201d;" horiz-adv-x="1767" 
d="M1272 1558.23h-413.949l139.982 1401.83h629.924zM552.048 1558.23h-413.949l139.982 1401.83h629.924z" />
    <glyph glyph-name="quotedblbase" unicode="&#x201e;" horiz-adv-x="1615" 
d="M434 -758h-414l140 1402h630zM1154 -758h-414l140 1402h630z" />
    <glyph glyph-name="dagger" unicode="&#x2020;" horiz-adv-x="1948" 
d="M1290 2860v-655h520v-468h-520v-1737h-632v1737h-520v468h520v655h632z" />
    <glyph glyph-name="daggerdbl" unicode="&#x2021;" horiz-adv-x="1948" 
d="M1290 2860v-655h520v-468h-520v-614h520v-468h-520v-655h-632v655h-520v468h520v614h-520v468h520v655h632z" />
    <glyph glyph-name="bullet" unicode="&#x2022;" horiz-adv-x="1175" 
d="M1036 764h-898v852h898v-852z" />
    <glyph glyph-name="ellipsis" unicode="&#x2026;" horiz-adv-x="2683" 
d="M756 0h-618v644h618v-644zM1650 0h-618v644h618v-644zM2545 0h-618v644h618v-644z" />
    <glyph glyph-name="perthousand" unicode="&#x2030;" horiz-adv-x="5123" 
d="M139 2153q0 173 51 314.5t144 242t224 155.5t291 55t290 -55t222.5 -155.5t143 -241.5t50.5 -314q0 -172 -50 -311t-142 -237.5t-223 -151.5t-292 -53q-162 0 -293 53t-223.5 151.5t-142.5 237.5t-50 310zM2892 2862l-1771 -2860h-489l1766 2860h494zM584 2149
q0 -168 67.5 -257t195.5 -89q127 0 194 89t67 257q0 86 -18 154.5t-52 116t-82.5 73t-109.5 25.5t-109.5 -25.5t-82.5 -73t-52 -116t-18 -154.5zM1955 692q0 173 51 314.5t144 242t224 155.5t291 55t290 -55t222.5 -155.5t143 -241.5t50.5 -314q0 -172 -50 -311t-142 -237.5
t-223 -151.5t-292 -53t-292 53t-223.5 151.5t-143 237.5t-50.5 310zM3569 692q0 173 51 314.5t144 242t224 155.5t291 55t290 -55t222.5 -155.5t143 -241.5t50.5 -314q0 -172 -50 -311t-142 -237.5t-222.5 -151.5t-292.5 -53q-161 0 -292 53t-223.5 151.5t-143 237.5
t-50.5 310zM2400 688q0 -168 67.5 -257t195.5 -89q127 0 194 89t67 257q0 86 -18 154.5t-52 116t-82.5 73t-109.5 25.5t-109.5 -25.5t-82.5 -73t-52 -116t-18 -154.5zM4014 688q0 -168 67.5 -257t195.5 -89q127 0 194 89t67 257q0 86 -18 154.5t-51.5 116t-82 73
t-110.5 25.5q-61 0 -109.5 -25.5t-82.5 -73t-52 -116t-18 -154.5z" />
    <glyph glyph-name="guilsinglleft" unicode="&#x2039;" horiz-adv-x="1899" 
d="M1150 2098h680l-1034 -995l1034 -994h-680l-1011 992z" />
    <glyph glyph-name="guilsinglright" unicode="&#x203a;" horiz-adv-x="1899" 
d="M750.07 109.128h-679.959l1033.94 994.939l-1033.94 993.939h679.959l1010.94 -991.939z" />
    <glyph glyph-name="fraction" unicode="&#x2044;" horiz-adv-x="2754" 
d="M138 0l2084 2960h394l-2084 -2960h-394z" />
    <glyph glyph-name="uni2074" unicode="&#x2074;" horiz-adv-x="1596" 
d="M910 1430v305h-772v326l711 799h419v-826h190v-299h-190v-305h-358zM910 2034v464l-411 -464h411z" />
    <glyph glyph-name="Euro" unicode="&#x20ac;" horiz-adv-x="3159" 
d="M108 1299h235q-2 32 -3 64.5t-1 66.5q0 33 1 65t3 64h-235v294h277q57 246 178.5 443.5t295.5 336t394 213t475 74.5q179 0 339.5 -37.5t298.5 -109t252 -176t201.5 -239t146 -297.5t85.5 -351h-628q-57 333 -232 500.5t-462 167.5q-267 0 -444 -134t-255 -391h733v-294
h-784q-2 -32 -3 -64t-1 -65q0 -34 1.5 -66.5t3.5 -64.5h783v-294h-732q78 -257 255 -390t443 -133q289 0 463 167t231 501h628q-27 -188 -85.5 -351t-146 -297.5t-201.5 -239t-252 -176t-298.5 -109t-339.5 -37.5q-254 0 -474 74.5t-394 212.5t-295.5 335t-178.5 443h-278
v294z" />
    <glyph glyph-name="trademark" unicode="&#x2122;" horiz-adv-x="3515" 
d="M3406 2860v-1573h-395v1209l-318 -1209h-403l-314 1208v-1208h-381v1573h630l282 -1112l286 1112h613zM1404 2516h-450v-1229h-396v1229h-450v344h1296v-344z" />
    <glyph glyph-name="minus" unicode="&#x2212;" horiz-adv-x="2152" 
d="M138 1212v468h1876v-468h-1876z" />
    <glyph glyph-name="ethbar" horiz-adv-x="1796" 
d="M1658 469h-1520v418h1520v-418z" />
    <glyph glyph-name="crossbar" horiz-adv-x="1755" 
d="M1617 1710l-1479 -667v400l1479 668v-401z" />
    <glyph glyph-name="ethbar.case" horiz-adv-x="1696" 
d="M1557 434h-1418v380h1418v-380z" />
    <glyph glyph-name="crossbar.case" horiz-adv-x="1404" 
d="M1266 806l-1127 -509v384l1127 510v-385z" />
    <glyph glyph-name="commaccent" horiz-adv-x="819" 
d="M512 -971h-374l79 951h464z" />
    <glyph glyph-name="commaccent2" horiz-adv-x="885" 
d="M512 -788h-374l94 638h514z" />
    <glyph glyph-name="commaccent3" horiz-adv-x="885" 
d="M373 809h374l-94 -638h-514z" />
    <glyph glyph-name="tbarnew" horiz-adv-x="1737" 
d="M1599 539h-1460v345h1460v-345z" />
    <glyph glyph-name="ogonek2" horiz-adv-x="1044" 
d="M724 143q-63 -43 -117 -93t-93 -102.5t-61.5 -104t-22.5 -96.5q0 -81 71.5 -122t220.5 -41q42 0 87 3.5t96 10.5v-348q-60 -8 -118.5 -11.5t-107.5 -3.5q-123 0 -223 26t-170.5 73.5t-108.5 114t-38 148.5q0 84 41.5 163t116 152.5t176.5 142t223 132.5z" />
    <glyph glyph-name="custombarH" horiz-adv-x="3192" 
d="M3054 487h-2916v382h2916v-382z" />
    <glyph glyph-name="dotaccent2" horiz-adv-x="771" 
d="M633 2338h-495v515h495v-515z" />
    <glyph glyph-name="Toverlaybar" horiz-adv-x="2015" 
d="M1877 605h-1739v381h1739v-381z" />
    <glyph glyph-name="ogonek3" horiz-adv-x="1000" 
d="M861 -59q-81 0 -159.5 -21.5t-141 -55.5t-101 -76t-38.5 -84q0 -57 73 -88.5t202 -31.5q43 0 85 3.5t87 10.5v-348q-57 -8 -114 -11.5t-108 -3.5q-115 0 -209.5 23.5t-162 66.5t-105 103.5t-37.5 133.5q0 89 53.5 165t148.5 131.5t225 88t283 34.5z" />
    </font>
</defs>
</svg>
