<?xml version="1.0" standalone="no"?>
<!DOCTYPE svg PUBLIC "-//W3C//DTD SVG 1.1//EN" "http://www.w3.org/Graphics/SVG/1.1/DTD/svg11.dtd" >
<svg xmlns="http://www.w3.org/2000/svg" xmlns:xlink="http://www.w3.org/1999/xlink" version="1.1">
<metadata>
Created by FontForge 20201107 at Fri Sep 22 12:27:49 2023
 By 
(c)rajeshrajput
</metadata>
<defs>
<font id="Nohemi-Medium" horiz-adv-x="2344" >
  <font-face 
    font-family="Nohemi Med"
    font-weight="500"
    font-stretch="normal"
    units-per-em="4000"
    panose-1="0 0 0 0 0 0 0 0 0 0"
    ascent="3200"
    descent="-800"
    x-height="2205"
    cap-height="2860"
    bbox="-305 -971 4965 3881"
    underline-thickness="100"
    underline-position="-250"
    unicode-range="U+000D-FB02"
  />
<missing-glyph horiz-adv-x="3155" 
d="M154 2860h2847v-2860h-2847v2860zM1577 1664l785 861h-1568zM537 524l827 906l-827 908v-1814zM2618 521v1815l-827 -906zM792 335h1568l-783 860z" />
    <glyph glyph-name="fi" unicode="fi" horiz-adv-x="2475" 
d="M380 1797h-316v408h316v56q0 203 53 357.5t157 259.5t257.5 158.5t353.5 53.5q87 0 181 -9.5t194 -29.5v-406q-85 16 -157.5 24t-134.5 8q-216 0 -321 -103.5t-105 -315.5v-53h718v-408h-694v-1797h-502v1797zM2339 2448h-518v512h518v-512zM2331 0h-502v2205h502v-2205z
" />
    <glyph glyph-name="fl" unicode="fl" horiz-adv-x="2475" 
d="M380 1797h-316v408h316v56q0 203 53 357.5t157 259.5t257.5 158.5t353.5 53.5q87 0 181 -9.5t194 -29.5v-406q-85 16 -157.5 24t-134.5 8q-216 0 -321 -103.5t-105 -315.5v-53h718v-408h-694v-1797h-502v1797zM2331 0h-502v2960h502v-2960z" />
    <glyph glyph-name=".notdef" horiz-adv-x="3155" 
d="M154 2860h2847v-2860h-2847v2860zM1577 1664l785 861h-1568zM537 524l827 906l-827 908v-1814zM2618 521v1815l-827 -906zM792 335h1568l-783 860z" />
    <glyph glyph-name=".null" horiz-adv-x="0" 
 />
    <glyph glyph-name="uni000D" unicode="&#xd;" horiz-adv-x="500" 
 />
    <glyph glyph-name="space" unicode=" " horiz-adv-x="916" 
 />
    <glyph glyph-name="exclam" unicode="!" horiz-adv-x="876" 
d="M686 2860v-495l-39 -1445h-420l-37 1445v495h496zM720 0h-564v592h564v-592z" />
    <glyph glyph-name="quotedbl" unicode="&#x22;" horiz-adv-x="1441" 
d="M580 1523h-360l-66 1337h496zM1217 1523h-360l-66 1337h496z" />
    <glyph glyph-name="numbersign" unicode="#" horiz-adv-x="3088" 
d="M1752 672h-605l-83 -672h-414l84 672h-589v397h638l90 723h-629v405h679l83 663h413l-82 -663h604l83 663h414l-83 -663h588v-405h-638l-90 -723h629v-397h-678l-84 -672h-414zM1801 1069l90 723h-605l-89 -723h604z" />
    <glyph glyph-name="dollar" unicode="$" horiz-adv-x="2641" 
d="M1137 -52q-253 21 -450 95t-332.5 196.5t-206 291t-70.5 377.5h508q0 -122 52 -219t148.5 -164t234 -102.5t309.5 -35.5q147 0 277 27t227.5 82.5t154 140.5t56.5 200q0 106 -47 171t-134 105t-209 62.5t-272 44.5l-168 25q-90 13 -185 28t-188.5 36t-182.5 49.5
t-168.5 69.5t-146.5 96t-115.5 128.5t-75.5 167t-27 211.5q0 134 35 247.5t99.5 207.5t155.5 168t203.5 127.5t243.5 86.5t274 45l-40 447h448l-41 -450q222 -23 399.5 -97.5t302 -194t191 -281t66.5 -359.5h-508q0 114 -47.5 205.5t-134 156t-207.5 99t-268 34.5
q-82 0 -162 -11t-153 -34t-135 -57.5t-107.5 -81t-71 -105.5t-25.5 -130q0 -97 47 -157t135.5 -98.5t217.5 -62.5t292 -48l133 -20q120 -18 248 -40.5t249.5 -59t230 -93t190 -142.5t129 -207t47.5 -287q0 -206 -75.5 -365t-214 -271t-334 -176.5t-434.5 -80.5l40 -447h-448
z" />
    <glyph glyph-name="percent" unicode="%" horiz-adv-x="3525" 
d="M155 2154q0 173 51 314t144 241.5t224.5 155.5t292.5 55q160 0 290.5 -54.5t223.5 -155t143.5 -242t50.5 -314.5q0 -172 -50 -311t-142.5 -237.5t-223.5 -151.5t-293 -53t-293.5 53.5t-224 151.5t-143 237t-50.5 311zM2880 2860l-1771 -2860h-449l1766 2860h454z
M575 2149q0 -182 74.5 -278t215.5 -96q140 0 214.5 95.5t74.5 277.5q0 93 -20 166.5t-57.5 124.5t-91 78.5t-121.5 27.5q-67 0 -121 -27t-91 -78t-57 -124.5t-20 -166.5zM1951 693q0 173 51 314t144.5 241.5t225 155.5t291.5 55t290.5 -54.5t223.5 -155t143.5 -242
t50.5 -314.5q0 -172 -50 -311t-142.5 -237.5t-223.5 -151.5t-293 -53t-293.5 53.5t-224 151.5t-143 237t-50.5 311zM2371 688q0 -182 74.5 -278t215.5 -96q140 0 214.5 95.5t74.5 277.5q0 93 -20 166.5t-57.5 124.5t-91 78.5t-121.5 27.5q-67 0 -121 -27t-91 -78t-57 -124.5
t-20 -166.5z" />
    <glyph glyph-name="ampersand" unicode="&#x26;" horiz-adv-x="2895" 
d="M2478 857q0 -134 -39 -254t-112 -221.5t-176.5 -183.5t-232.5 -139t-281 -88t-321 -31q-170 0 -324 30.5t-286.5 87.5t-240 137.5t-183.5 179.5t-117 215t-41 243q0 126 40 230.5t114.5 181.5t180 125t236.5 60q-133 12 -238.5 58t-179.5 122.5t-113.5 180t-39.5 229.5
q0 128 40.5 244t114.5 216t179.5 181.5t234.5 139t279.5 88.5t315.5 31q164 0 312 -31t275 -88.5t232 -140.5t182 -186.5t124 -226t60 -259.5h-519q-16 112 -69.5 200.5t-139.5 150t-202 94t-258 32.5q-144 0 -262 -33.5t-202 -95t-130 -149t-46 -194.5q0 -91 36 -157.5
t112 -110t193.5 -64t280.5 -20.5h1504v-416h-293v-368zM1275 1225q-163 0 -281.5 -21.5t-195.5 -66t-114 -112.5t-37 -161q0 -108 47 -195t134.5 -147.5t212 -93.5t278.5 -33q152 0 271.5 32.5t202 94t126 150.5t43.5 202v351h-687z" />
    <glyph glyph-name="quotesingle" unicode="'" horiz-adv-x="805" 
d="M580 1523h-360l-66 1337h496z" />
    <glyph glyph-name="parenleft" unicode="(" horiz-adv-x="1399" 
d="M1325 2994q-170 -208 -297.5 -423.5t-213 -435.5t-128 -441.5t-42.5 -441.5t42.5 -439t128 -432.5t213 -420.5t297.5 -402l-216 -169q-246 205 -430.5 430.5t-307.5 465.5t-185 490t-62 504t62 504.5t185.5 489.5t308 463.5t429.5 426.5z" />
    <glyph glyph-name="parenright" unicode=")" horiz-adv-x="1399" 
d="M75.0811 -441.817q169.989 207.987 297.481 423.475q127.492 215.486 212.987 435.473q85.4951 219.987 127.992 441.474t42.4971 441.473t-42.4971 438.974q-42.4971 218.986 -127.992 432.474q-85.4951 213.486 -212.987 420.475q-127.492 206.987 -297.481 401.975
l215.986 168.99q245.985 -204.987 430.474 -430.474q184.489 -225.486 307.481 -465.472q122.993 -239.985 184.989 -489.971q61.9961 -249.984 61.9961 -503.969t-61.9961 -504.47q-61.9961 -250.484 -185.489 -489.47q-123.492 -238.985 -307.981 -463.472
q-184.488 -224.486 -429.474 -426.474z" />
    <glyph glyph-name="asterisk" unicode="*" horiz-adv-x="1880" 
d="M687 2130l-538 72l157 483l479 -259l-98 534h508l-99 -537l478 259l157 -483l-540 -72l393 -374l-411 -299l-236 492l-234 -490l-411 298z" />
    <glyph glyph-name="plus" unicode="+" horiz-adv-x="2184" 
d="M860 508v728h-706v420h706v728h464v-728h706v-420h-706v-728h-464z" />
    <glyph glyph-name="comma" unicode="," horiz-adv-x="872" 
d="M414 -758h-372l139 1350h570z" />
    <glyph glyph-name="hyphen" unicode="-" horiz-adv-x="2109" 
d="M1954 930h-1800v456h1800v-456z" />
    <glyph glyph-name="period" unicode="." horiz-adv-x="872" 
d="M718 0h-564v592h564v-592z" />
    <glyph glyph-name="slash" unicode="/" horiz-adv-x="1747" 
d="M157 -758l951 3718h492l-952 -3718h-491z" />
    <glyph glyph-name="zero" unicode="0" horiz-adv-x="2848" 
d="M124 1430q0 223 43 420t123.5 362.5t195.5 297t259.5 222.5t315.5 139.5t363 48.5t363 -48.5t315.5 -139.5t259.5 -222.5t195.5 -297t123.5 -362.5t43 -420t-43 -420t-123.5 -362.5t-195.5 -297t-259.5 -222.5t-315.5 -139.5t-363 -48.5t-363 48.5t-315.5 139.5
t-259.5 222.5t-195.5 297t-123.5 362.5t-43 420zM652 1430q0 -243 52.5 -433.5t151.5 -322t242.5 -200t325.5 -68.5q183 0 326.5 68.5t242.5 200t151 322t52 433.5t-52 433.5t-151 322t-242.5 200t-326.5 68.5q-182 0 -325.5 -68.5t-242.5 -200t-151.5 -322t-52.5 -433.5z
" />
    <glyph glyph-name="one" unicode="1" horiz-adv-x="1838" 
d="M1211 462h473v-462h-1472v462h473v1562h-591v430h232q119 0 199 21.5t128 74.5t68.5 143t20.5 228h469v-2459z" />
    <glyph glyph-name="two" unicode="2" horiz-adv-x="2598" 
d="M154 0v398q0 171 43.5 301.5t117 229t171.5 170t207 123.5t223 90t220 70l121 37q94 29 180.5 56.5t161 59t135 70t104 88.5t67 114t23.5 147q0 105 -43.5 196t-123.5 158.5t-193 106t-253 38.5q-146 0 -263 -43t-199 -123t-126 -193t-44 -253v-54h-516v63
q0 246 81.5 443.5t233.5 337t369 214.5t489 75q261 0 466.5 -69t347 -195.5t216 -305t74.5 -396.5q0 -169 -42.5 -296t-114 -222t-166.5 -161.5t-200 -114.5t-214 -81t-209 -61l-167 -46q-74 -20 -150.5 -43t-148 -52t-135 -66t-112.5 -87t-79.5 -114.5t-36.5 -147.5h1766
v-462h-2281z" />
    <glyph glyph-name="three" unicode="3" horiz-adv-x="2699" 
d="M124 1954q0 229 78 408.5t227.5 303.5t365.5 189t492 65q260 0 472 -56.5t363 -160t233 -249.5t82 -325q0 -132 -44.5 -245t-125.5 -198.5t-193.5 -139t-247.5 -67.5q176 -10 314.5 -61t235.5 -138t148 -207.5t51 -269.5q0 -195 -86.5 -354.5t-245.5 -272.5
t-382.5 -174.5t-498.5 -61.5q-290 0 -519.5 69.5t-389.5 200.5t-244.5 320t-84.5 428v5h516v-30q0 -120 49.5 -217t140.5 -166t219.5 -106.5t286.5 -37.5q157 0 289.5 36.5t229 102t150.5 155t54 195.5q0 173 -157 256.5t-484 83.5h-400v434h389q120 0 216.5 25t164 71
t103.5 112t36 148q0 96 -48 175t-135.5 135.5t-209.5 87.5t-270 31q-150 0 -266 -32.5t-195.5 -95.5t-121 -155t-41.5 -211v-11h-516v5z" />
    <glyph glyph-name="four" unicode="4" horiz-adv-x="2908" 
d="M1834 0v643h-1680v618l1595 1599h605v-1759h400v-458h-400v-643h-520zM1834 1101v1227l-1222 -1227h1222z" />
    <glyph glyph-name="five" unicode="5" horiz-adv-x="2684" 
d="M2560 971q0 -153 -39.5 -289t-114.5 -250.5t-182.5 -205.5t-243 -154.5t-296.5 -97t-343 -33.5q-172 0 -327 30t-287 85.5t-238 135t-180.5 178t-114.5 214.5t-40 245v22h524v-17q0 -87 52 -164t142 -134t210.5 -90t257.5 -33q152 0 279 41t218.5 114.5t143 175.5
t51.5 223q0 115 -47 210t-136 162.5t-217 105t-290 37.5q-121 0 -226 -22.5t-187 -61t-137.5 -90.5t-76.5 -112h-520v1664h2176v-464h-1656v-978q43 99 122 181t189 140.5t248.5 91t300.5 32.5q230 0 412.5 -64.5t309.5 -181.5t195 -281.5t68 -364.5z" />
    <glyph glyph-name="six" unicode="6" horiz-adv-x="2751" 
d="M1438 2920q250 0 456.5 -67t354 -188.5t228.5 -291.5t81 -376v-34h-516v25q0 103 -44 189t-123.5 147.5t-190 95.5t-243.5 34q-190 0 -338.5 -72t-250.5 -209.5t-155.5 -337.5t-53.5 -457v-307q23 153 99.5 273.5t202 204t296 127t381.5 43.5q238 0 425 -55.5t316 -161
t196.5 -259t67.5 -349.5q0 -219 -84 -395.5t-239.5 -300t-377 -190.5t-497.5 -67q-319 0 -563 92t-409 271t-249 441.5t-84 603.5v25q0 365 89 652t258 485.5t413 303.5t554 105zM1457 407q155 0 274.5 32.5t201 95.5t123.5 155.5t42 213.5q0 119 -41 211.5t-121 155.5
t-196.5 95.5t-268.5 32.5q-164 0 -301 -37t-236 -104t-154 -160t-55 -204q0 -109 53 -198.5t149 -153.5t231 -99.5t299 -35.5z" />
    <glyph glyph-name="seven" unicode="7" horiz-adv-x="2448" 
d="M703 0q16 245 51 464t93.5 421t144.5 391t203.5 373.5t270 369t344.5 377.5h-1716v464h2200v-486q-177 -183 -316.5 -353t-247 -341t-185.5 -351t-133 -382.5t-90 -435.5t-55 -511h-564z" />
    <glyph glyph-name="eight" unicode="8" horiz-adv-x="2778" 
d="M1378 -60q-291 0 -523.5 57.5t-394.5 165.5t-249 262t-87 347q0 143 48.5 262.5t141 210.5t227 152.5t307.5 89.5q-149 24 -266 78t-197.5 134.5t-123 185t-42.5 229.5q0 120 38.5 226.5t111 196t176.5 160.5t234.5 120.5t286.5 76t331 26.5q262 0 478 -58t370 -164
t238.5 -254.5t84.5 -328.5q0 -126 -42.5 -231t-124 -185.5t-200 -134t-270.5 -77.5q176 -25 310.5 -82.5t226.5 -145t139 -204.5t47 -260q0 -198 -88.5 -356.5t-254 -269t-401.5 -170t-532 -59.5zM1390 1644q330 0 498 104.5t168 309.5q0 199 -165 297.5t-498 98.5
q-666 0 -666 -398q0 -204 167 -308t496 -104zM1389 406q751 0 751 455q0 110 -45 190.5t-138 133.5t-234.5 79t-333.5 26q-384 0 -567 -104.5t-183 -324.5q0 -226 188.5 -340.5t561.5 -114.5z" />
    <glyph glyph-name="nine" unicode="9" horiz-adv-x="2751" 
d="M1313 -59q-250 0 -456.5 67t-354 188.5t-228.5 291.5t-81 376v34h516v-25q0 -103 44 -189t123.5 -147.5t190 -95.5t243.5 -34q191 0 339.5 72t250.5 209.5t155 337.5t53 457v307q-23 -153 -99.5 -273.5t-202 -204t-296 -127t-381.5 -43.5q-238 0 -425 55.5t-316 161.5
t-196.5 259t-67.5 349q0 219 84 395.5t239.5 300t377 190.5t497.5 67q320 0 563.5 -92t408.5 -271t249 -441.5t84 -603.5v-25q0 -364 -89 -651.5t-258 -486t-413 -303.5t-554 -105zM1294 2454q-155 0 -274.5 -32.5t-201 -95.5t-123.5 -155.5t-42 -213.5q0 -119 41 -211.5
t121 -155.5t197 -95.5t268 -32.5q164 0 301 37t236 104t154 159.5t55 204.5q0 109 -53 198.5t-149 153.5t-231 99.5t-299 35.5z" />
    <glyph glyph-name="colon" unicode=":" horiz-adv-x="872" 
d="M718 0h-564v592h564v-592zM718 1637h-564v592h564v-592z" />
    <glyph glyph-name="semicolon" unicode=";" horiz-adv-x="872" 
d="M718 1637h-564v592h564v-592zM414 -758h-372l139 1350h570z" />
    <glyph glyph-name="less" unicode="&#x3c;" horiz-adv-x="2289" 
d="M2135 1782l-1698 -519l1698 -518v-496l-1981 784v462l1981 783v-496z" />
    <glyph glyph-name="equal" unicode="=" horiz-adv-x="2184" 
d="M154 1642v420h1876v-420h-1876zM154 831v419h1876v-419h-1876z" />
    <glyph glyph-name="greater" unicode="&#x3e;" horiz-adv-x="2289" 
d="M154.13 745.108l1697.9 518.969l-1697.9 517.969v495.97l1980.88 -783.952v-461.973l-1980.88 -782.952v495.97z" />
    <glyph glyph-name="question" unicode="?" horiz-adv-x="2482" 
d="M1375 840h-484v132q0 96 21 171.5t57.5 136t85 107t103.5 84t113 67.5t113 57l75 37q63 31 126 65t113 80t81.5 107.5t31.5 147.5q0 98 -44.5 177.5t-125.5 135.5t-195 87t-252 31q-144 0 -256 -35.5t-189 -109t-117 -186t-40 -266.5v-45h-515v59q0 261 75 456t220.5 325
t358.5 194.5t488 64.5q265 0 471.5 -58.5t348 -170.5t215.5 -275t74 -372q0 -128 -26 -227.5t-70.5 -176.5t-102 -133.5t-121 -99.5t-128 -74.5t-122.5 -57.5l-69 -32q-60 -27 -116.5 -55t-100.5 -62.5t-70.5 -79t-26.5 -103.5v-103zM1415 0h-564v592h564v-592z" />
    <glyph glyph-name="at" unicode="@" horiz-adv-x="3823" 
d="M1984 -577q-276 0 -521 58t-452 167t-371 265t-279 352t-176 428t-61 493q0 259 60 491t172 429.5t271.5 355.5t359 269t434 170.5t495.5 59.5q258 0 490 -57.5t430 -164.5t357.5 -258.5t272 -340t173 -409.5t60.5 -466q0 -241 -59 -435.5t-168 -331t-263.5 -210
t-345.5 -73.5q-138 0 -249 38.5t-193.5 113.5t-133.5 184.5t-69 250.5q-30 -138 -82.5 -246.5t-126 -184.5t-165.5 -116t-200 -40q-144 0 -265.5 70t-209 195.5t-136.5 298.5t-49 380t49 380t136.5 298.5t209 195.5t265.5 70q104 0 193.5 -37.5t161.5 -109t125.5 -174
t84.5 -233.5v493h461v-1089q0 -169 55 -248t175 -79q87 0 153.5 39.5t111 114.5t67 185t22.5 251q0 200 -43.5 376t-125.5 324.5t-199.5 266t-265.5 199.5t-323.5 125.5t-373.5 43.5q-201 0 -379 -44.5t-328 -128t-269.5 -203t-202.5 -270t-127.5 -329t-44.5 -379.5
q0 -203 45.5 -383t130.5 -332t207.5 -272t276 -204t336 -128.5t388.5 -44.5q195 0 387.5 40.5t381.5 121.5l134 -390q-75 -42 -173 -76t-211 -57.5t-238 -36t-253 -12.5zM2209 1159q0 128 -26 227.5t-75.5 168t-121 104.5t-163.5 36q-181 0 -275 -136.5t-94 -399.5t94 -400
t274 -137q92 0 164 36t121.5 105t75.5 169t26 227z" />
    <glyph glyph-name="A" unicode="A" horiz-adv-x="2834" 
d="M19 0l1026 2860h758l1012 -2860h-560l-225 673h-1234l-229 -673h-548zM1880 1121l-463 1382l-469 -1382h932z" />
    <glyph glyph-name="B" unicode="B" horiz-adv-x="2709" 
d="M1565 2860q210 0 384 -53t299 -149.5t194 -231.5t69 -299q0 -131 -43.5 -243t-121.5 -197t-185 -139.5t-234 -69.5q155 -14 284 -72t223 -151t146 -216.5t52 -268.5q0 -173 -74.5 -315t-208.5 -243t-320.5 -156.5t-410.5 -55.5h-1464v2860h1411zM1523 1648
q105 0 190.5 28t147 79.5t95 125t33.5 163.5q0 87 -32 155.5t-92.5 116t-147.5 72t-197 24.5h-840v-764h843zM1566 448q272 0 407 96.5t135 296.5t-134.5 295.5t-406.5 95.5h-887v-784h886z" />
    <glyph glyph-name="C" unicode="C" horiz-adv-x="2938" 
d="M652 1430q0 -243 57 -433.5t165 -322t264.5 -200t355.5 -68.5q321 0 517 182t262 542h524q-43 -278 -153.5 -498.5t-278.5 -374.5t-388.5 -235.5t-483.5 -81.5q-202 0 -382 48.5t-332.5 139.5t-273.5 222.5t-206 297t-130 362.5t-45 420t45 420t130 362.5t206 297
t273.5 222.5t332.5 139.5t382 48.5q263 0 483.5 -81.5t388.5 -235.5t278.5 -374.5t153.5 -498.5h-524q-66 360 -262 542t-517 182q-199 0 -355.5 -68.5t-264.5 -200t-165 -322t-57 -433.5z" />
    <glyph glyph-name="D" unicode="D" horiz-adv-x="2728" 
d="M154 2860h992q218 0 411 -46t355 -133t290.5 -212.5t217.5 -284.5t136.5 -348.5t47.5 -405.5t-47.5 -405.5t-136.5 -348.5t-217.5 -284.5t-290.5 -212.5t-355 -133t-411 -46h-992v2860zM1139 466q221 0 395 65t294.5 188.5t184 302.5t63.5 408t-63.5 408t-184 302.5
t-294.5 188.5t-395 65h-467v-1928h467z" />
    <glyph glyph-name="E" unicode="E" horiz-adv-x="2223" 
d="M2108 2860v-464h-1428v-744h1310v-450h-1310v-738h1466v-464h-1992v2860h1954z" />
    <glyph glyph-name="F" unicode="F" horiz-adv-x="2185" 
d="M2108 2396h-1428v-784h1310v-456h-1310v-1156h-526v2860h1954v-464z" />
    <glyph glyph-name="G" unicode="G" horiz-adv-x="2985" 
d="M652 1430q0 -245 54.5 -437t159.5 -324t257.5 -201.5t347.5 -69.5q180 0 334 54t268 151t181.5 230.5t75.5 292.5h-893v404h1394v-1530h-496v759q-54 -187 -151.5 -338t-230 -258t-296.5 -165t-352 -58q-172 0 -326.5 49.5t-285.5 142t-236.5 225t-179.5 298t-113.5 361
t-39.5 414.5q0 223 45 420t130 362.5t206 297t273 222.5t332 139.5t382 48.5q250 0 468 -74.5t389 -213.5t287 -337t162 -445h-524q-34 147 -104.5 259.5t-171 189t-228 116t-277.5 39.5q-198 0 -354.5 -68.5t-264.5 -200t-165 -322t-57 -433.5z" />
    <glyph glyph-name="H" unicode="H" horiz-adv-x="2728" 
d="M2574 0h-526v1194h-1368v-1194h-526v2860h526v-1200h1368v1200h526v-2860z" />
    <glyph glyph-name="I" unicode="I" horiz-adv-x="835" 
d="M680 0h-526v2860h526v-2860z" />
    <glyph glyph-name="J" unicode="J" horiz-adv-x="2491" 
d="M77 1268h526v-201q0 -143 44 -264.5t123.5 -209.5t190.5 -137.5t244 -49.5q135 0 246.5 50.5t191.5 139.5t124 211.5t44 266.5v1786h526v-1790q0 -173 -37 -324t-106 -276.5t-168.5 -224t-225.5 -166.5t-275 -103.5t-318 -35.5t-318 35.5t-275 103.5t-225.5 166.5
t-168.5 224t-106 276.5t-37 324v198z" />
    <glyph glyph-name="K" unicode="K" horiz-adv-x="2701" 
d="M1131 1409l1551 -1409h-737l-1265 1164v-1164h-526v2860h526v-1262l1217 1262h683z" />
    <glyph glyph-name="L" unicode="L" horiz-adv-x="2140" 
d="M680 2860v-2396h1386v-464h-1912v2860h526z" />
    <glyph glyph-name="M" unicode="M" horiz-adv-x="3670" 
d="M3516 2860v-2860h-526v2418l-849 -2418h-640l-839 2418v-2418h-508v2860h863l821 -2366l830 2366h848z" />
    <glyph glyph-name="N" unicode="N" horiz-adv-x="2887" 
d="M2733 0h-789l-1282 2443v-2443h-508v2860h849l1222 -2321v2321h508v-2860z" />
    <glyph glyph-name="O" unicode="O" horiz-adv-x="2989" 
d="M124 1430q0 223 45 420t130 362.5t206.5 297t273.5 222.5t332.5 139.5t382.5 48.5t382.5 -48.5t332.5 -139.5t273.5 -222.5t206 -297t130 -362.5t45.5 -420t-45.5 -420t-130 -362.5t-206 -297t-273.5 -222.5t-332.5 -139.5t-382.5 -48.5t-382.5 48.5t-332.5 139.5
t-273.5 222.5t-206.5 297t-130 362.5t-45 420zM652 1430q0 -243 57 -433.5t165 -322t264.5 -200t355.5 -68.5t355.5 68.5t264.5 200t165 322t57 433.5t-57 433.5t-165 322t-264.5 200t-355.5 68.5t-355.5 -68.5t-264.5 -200t-165 -322t-57 -433.5z" />
    <glyph glyph-name="P" unicode="P" horiz-adv-x="2677" 
d="M154 2860h1340q156 0 294.5 -31t256.5 -89.5t212 -142t160 -187.5t101 -226.5t35 -260.5t-35.5 -261t-101.5 -227.5t-160 -188.5t-212 -142.5t-256.5 -90t-293.5 -31.5h-814v-982h-526v2860zM1460 1438q131 0 236 33.5t178.5 96.5t113 153t39.5 202q0 111 -39 200.5
t-111.5 151.5t-176.5 95.5t-233 33.5h-787v-966h780z" />
    <glyph glyph-name="Q" unicode="Q" horiz-adv-x="2988" 
d="M124 1430q0 223 45 420t130 362.5t206.5 297t273.5 222.5t332.5 139.5t382.5 48.5q203 0 383 -48.5t332 -139.5t273.5 -222.5t206.5 -297t130 -362.5t45 -420q0 -213 -41.5 -403t-119.5 -351t-190 -291.5t-253 -224.5l533 -584h-560l-343 416q-94 -26 -192 -39t-204 -13
q-202 0 -382.5 48.5t-332.5 139.5t-273.5 222.5t-206.5 297t-130 362.5t-45 420zM646 1430q0 -243 58 -433.5t167 -322t266.5 -200t356.5 -68.5t356.5 68.5t266.5 200t167 322t58 433.5t-58 433.5t-167 322t-266.5 200t-356.5 68.5t-356.5 -68.5t-266.5 -200t-167 -322
t-58 -433.5z" />
    <glyph glyph-name="R" unicode="R" horiz-adv-x="2725" 
d="M154 0v2860h1399q227 0 412 -61.5t316 -173t202 -269t71 -349.5q0 -169 -56.5 -307.5t-160 -238t-250 -156t-326.5 -61.5q164 -12 291.5 -126t221.5 -323l357 -795h-581l-358 793q-37 83 -79.5 138.5t-100 89t-134.5 47.5t-183 14h-515v-1082h-526zM1490 1532
q126 0 226 30t169 87.5t105.5 140t36.5 187.5q0 103 -35.5 182.5t-104 134t-169 82.5t-230.5 28h-808v-872h810z" />
    <glyph glyph-name="S" unicode="S" horiz-adv-x="2641" 
d="M1304 2920q266 0 480 -65t365 -186.5t232.5 -296.5t81.5 -394h-508q0 114 -47.5 205.5t-134 156t-207.5 99t-268 34.5q-82 0 -162 -11t-153 -34t-135 -57.5t-107.5 -81t-71 -105.5t-25.5 -130q0 -97 47 -157t135.5 -98.5t217.5 -62.5t292 -48l133 -20q120 -18 248 -40.5
t249.5 -59t230 -93t190 -142.5t129 -207t47.5 -287q0 -224 -89 -392.5t-250.5 -281t-387.5 -169t-501 -56.5q-299 0 -532.5 65.5t-394.5 189.5t-245.5 304t-84.5 409h508q0 -122 52 -219t148.5 -164t234 -102.5t309.5 -35.5q147 0 277 27t227.5 82.5t154 140.5t56.5 200
q0 106 -47 171t-134 105t-209 62.5t-272 44.5l-168 25q-90 13 -185 28t-188.5 36t-182.5 49.5t-168.5 69.5t-146.5 96t-115.5 128.5t-75.5 167t-27 211.5q0 146 42 268.5t118 221.5t183.5 173.5t238 124.5t281.5 75.5t315 25.5z" />
    <glyph glyph-name="T" unicode="T" horiz-adv-x="2454" 
d="M2420 2396h-930v-2396h-526v2396h-930v464h2386v-464z" />
    <glyph glyph-name="U" unicode="U" horiz-adv-x="2776" 
d="M154 2860h526v-1658q0 -195 47 -343.5t137 -249t222 -152t302 -51.5t301.5 51.5t222 152t137.5 249t47 343.5v1658h526v-1680q0 -192 -40 -358.5t-115.5 -304.5t-184 -245t-245.5 -181t-300.5 -112.5t-348.5 -38.5q-278 0 -505.5 86t-389.5 246.5t-250.5 390t-88.5 517.5
v1680z" />
    <glyph glyph-name="V" unicode="V" horiz-adv-x="2746" 
d="M2727 2860l-982 -2860h-758l-968 2860h560l794 -2471l806 2471h548z" />
    <glyph glyph-name="W" unicode="W" horiz-adv-x="4365" 
d="M2534 2860l584 -2517l611 2517h542l-747 -2860h-762l-580 2411l-590 -2411h-762l-736 2860h561l600 -2517l594 2517h685z" />
    <glyph glyph-name="X" unicode="X" horiz-adv-x="2778" 
d="M1723 1457l1016 -1457h-623l-757 1113l-736 -1113h-584l988 1453l-933 1407h617l684 -1066l683 1066h583z" />
    <glyph glyph-name="Y" unicode="Y" horiz-adv-x="2727" 
d="M2718 2860l-1096 -1797v-1063h-526v1061l-1087 1799h592l764 -1303l774 1303h579z" />
    <glyph glyph-name="Z" unicode="Z" horiz-adv-x="2533" 
d="M763 464h1616v-464h-2225v494l1517 1902h-1467v464h2075v-494z" />
    <glyph glyph-name="bracketleft" unicode="[" horiz-adv-x="1120" 
d="M1036 3012v-396h-432v-2658h432v-396h-912v3450h912z" />
    <glyph glyph-name="backslash" unicode="\" horiz-adv-x="1747" 
d="M1590.01 -758l-950.942 3718h-491.97l951.941 -3718h490.971z" />
    <glyph glyph-name="bracketright" unicode="]" horiz-adv-x="1120" 
d="M84.0635 -437.816v395.977h431.974v2657.84h-431.974v395.977h911.944v-3449.79h-911.944z" />
    <glyph glyph-name="asciicircum" unicode="^" horiz-adv-x="1751" 
d="M876 2558l-327 -1028h-395l452 1330h538l452 -1330h-395z" />
    <glyph glyph-name="underscore" unicode="_" horiz-adv-x="2311" 
d="M2157 -360h-2003v360h2003v-360z" />
    <glyph glyph-name="grave" unicode="`" horiz-adv-x="1080" 
d="M154 2934h464l308 -639h-332z" />
    <glyph glyph-name="a" unicode="a" horiz-adv-x="2374" 
d="M149 1417q0 195 72 352t205.5 267.5t325 169.5t429.5 59q249 0 445.5 -65t333 -188t208.5 -301t72 -403v-1308h-502v578q-39 -148 -117.5 -266.5t-191.5 -201t-256.5 -126.5t-311.5 -44q-175 0 -318.5 47.5t-245.5 133.5t-157.5 207.5t-55.5 269.5q0 154 61 276
t175.5 207t279.5 130.5t372 45.5h766v51q0 125 -39 224.5t-112.5 169.5t-178.5 107t-237 37q-134 0 -232.5 -30.5t-162.5 -86.5t-95 -135t-31 -177h-501zM1001 905q-206 0 -311.5 -69t-105.5 -204q0 -142 115.5 -217.5t333.5 -75.5q154 0 283.5 37.5t223 104.5t146 159.5
t52.5 201.5v63h-737z" />
    <glyph glyph-name="b" unicode="b" horiz-adv-x="2434" 
d="M646 1531q40 172 112 308t171.5 230.5t225 145t272.5 50.5q133 0 252.5 -39t220.5 -111t182 -175.5t138 -232.5t87.5 -281.5t30.5 -322.5t-30.5 -322.5t-87.5 -281.5t-138 -232.5t-182 -176t-220.5 -111.5t-252.5 -39q-147 0 -272.5 50.5t-225 145t-171.5 230.5t-112 308
v-674h-502v2960h502v-1429zM646 1103q0 -172 40.5 -307t118 -228.5t189 -142.5t252.5 -49q144 0 253.5 47t184 139t112.5 227.5t38 313.5t-38 313.5t-112.5 227t-184 138.5t-253.5 47q-142 0 -253.5 -49t-188.5 -142t-117.5 -228t-40.5 -307z" />
    <glyph glyph-name="c" unicode="c" horiz-adv-x="2329" 
d="M600 1103q0 -169 41 -302.5t117.5 -226t187 -141.5t249.5 -49q120 0 211.5 35.5t157.5 98.5t107.5 148.5t60.5 184.5h501q-17 -131 -59.5 -249t-108.5 -219.5t-155 -183t-199 -139.5t-239.5 -89t-277.5 -31q-163 0 -307.5 37.5t-266.5 108.5t-219.5 173t-165 231.5
t-103.5 283.5t-36 329q0 263 79.5 477t224.5 366.5t347 235.5t447 83q222 0 402.5 -68.5t313.5 -190.5t215.5 -288.5t107.5 -363.5h-501q-18 99 -59.5 184.5t-107.5 148.5t-158 98.5t-212 35.5q-139 0 -249.5 -49t-187 -141.5t-117.5 -225.5t-41 -302z" />
    <glyph glyph-name="d" unicode="d" horiz-adv-x="2434" 
d="M2290 2960v-2960h-502v674q-40 -172 -112 -308t-171.5 -230.5t-225 -145t-271.5 -50.5q-133 0 -252.5 39t-221 111.5t-182.5 176t-138 232.5t-87.5 281.5t-30.5 322.5t30.5 322.5t87.5 281.5t138 232.5t182.5 175.5t221 111t252.5 39q146 0 271.5 -50.5t225 -145
t171.5 -230.5t112 -308v1429h502zM1788 1103q0 172 -40.5 307t-117.5 228t-188.5 142t-253.5 49q-144 0 -253.5 -47t-184 -138.5t-112.5 -227t-38 -313.5t38 -313.5t112.5 -227.5t184 -139t253.5 -47q141 0 252.5 49t189 142.5t118 228.5t40.5 307z" />
    <glyph glyph-name="e" unicode="e" horiz-adv-x="2336" 
d="M2230 739q-44 -187 -137 -335t-227 -251t-304 -158t-367 -55q-164 0 -309.5 38t-267.5 109.5t-219 174t-164 232t-103 283.5t-36 328q0 260 78.5 474t221.5 366.5t343 236t444 83.5q240 0 435.5 -82t333.5 -232.5t213 -364t75 -476.5q0 -39 -1.5 -78t-6.5 -82h-1640
q16 -138 65.5 -246.5t128.5 -184.5t185.5 -116t236.5 -40q198 0 331 94t207 282h484zM1743 1310q-40 263 -181.5 399.5t-376.5 136.5q-120 0 -219 -36t-173.5 -105t-123.5 -168.5t-70 -226.5h1144z" />
    <glyph glyph-name="f" unicode="f" horiz-adv-x="1685" 
d="M380 1797h-316v408h316v56q0 203 53 357.5t157 259.5t257.5 158.5t353.5 53.5q87 0 181 -9.5t194 -29.5v-406q-85 16 -157.5 24t-134.5 8q-216 0 -321 -103.5t-105 -315.5v-53h718v-408h-694v-1797h-502v1797z" />
    <glyph glyph-name="g" unicode="g" horiz-adv-x="2434" 
d="M2290 2205v-1857q0 -264 -76.5 -479t-218 -368t-341 -236t-445.5 -83q-145 0 -276.5 28.5t-244 82t-203 129t-154 169.5t-98 204t-34.5 233h501q0 -95 39 -175t107 -139t160.5 -92t199.5 -33q134 0 241.5 53.5t183.5 152t116.5 238.5t40.5 313v420q-40 -163 -112.5 -292
t-173 -219t-227.5 -137.5t-276 -47.5q-131 0 -249 37t-218.5 105.5t-181 166.5t-137 220.5t-87 267t-30.5 305.5t30.5 305t87 265t137 218t181 165t218.5 104t249 36q149 0 276 -47t227.5 -135.5t173 -216t112.5 -289.5v628h502zM1788 1172q0 157 -40.5 279.5t-118.5 206.5
t-191 127.5t-258 43.5q-281 0 -430.5 -166t-149.5 -491q0 -163 38 -287.5t111.5 -208.5t181.5 -127t249 -43q144 0 257 45t191 130.5t119 209.5t41 281z" />
    <glyph glyph-name="h" unicode="h" 
d="M646 0h-502v2960h502v-1405q38 169 109 301t172.5 223t231.5 138.5t284 47.5q183 0 325.5 -67.5t241 -196.5t149.5 -316.5t51 -427.5v-1257h-502v1207q0 614 -497 614q-133 0 -238 -43t-178 -125.5t-111 -202.5t-38 -275v-1175z" />
    <glyph glyph-name="i" unicode="i" horiz-adv-x="790" 
d="M654 2448h-518v512h518v-512zM646 0h-502v2205h502v-2205z" />
    <glyph glyph-name="j" unicode="j" horiz-adv-x="790" 
d="M654 2448h-518v512h518v-512zM646 123q0 -243 -52.5 -420.5t-160.5 -293t-274 -171.5t-393 -56h-71v431h64q93 0 157.5 23t107 61t67 87t36 102t14.5 106t3 98v2115h502v-2082z" />
    <glyph glyph-name="k" unicode="k" horiz-adv-x="2337" 
d="M1064 1085l1224 -1085h-672l-970 882v-882h-502v2960h502v-1710l933 955h613z" />
    <glyph glyph-name="l" unicode="l" horiz-adv-x="790" 
d="M646 0h-502v2960h502v-2960z" />
    <glyph glyph-name="m" unicode="m" horiz-adv-x="3700" 
d="M646 0h-502v2205h502v-631q36 165 103 293.5t161.5 217t215 134.5t262.5 46q149 0 268.5 -50.5t208.5 -148t146 -240t80 -326.5q31 181 96.5 323t162.5 240.5t222.5 150t275.5 51.5q172 0 305.5 -67.5t225 -196.5t139.5 -316.5t48 -427.5v-1257h-502v1207q0 614 -449 614
q-120 0 -215 -43t-160 -125.5t-99.5 -202.5t-34.5 -275v-1175h-502v1207q0 614 -449 614q-120 0 -215 -43t-160 -125.5t-99.5 -202.5t-34.5 -275v-1175z" />
    <glyph glyph-name="n" unicode="n" 
d="M646 0h-502v2205h502v-650q38 169 109 301t172.5 223t231.5 138.5t284 47.5q183 0 325.5 -67.5t241 -196.5t149.5 -316.5t51 -427.5v-1257h-502v1207q0 614 -497 614q-133 0 -238 -43t-178 -125.5t-111 -202.5t-38 -275v-1175z" />
    <glyph glyph-name="o" unicode="o" horiz-adv-x="2388" 
d="M96 1103q0 263 79.5 477t224.5 366.5t347 235.5t447 83t447 -83t347 -235.5t224.5 -366.5t79.5 -477q0 -175 -36 -329t-103.5 -283.5t-165 -231.5t-219.5 -173t-266.5 -108.5t-307.5 -37.5t-308 37.5t-267 108.5t-219 173t-164.5 231.5t-103.5 283.5t-36 329zM600 1103
q0 -169 41 -302.5t117.5 -226t187 -141.5t249.5 -49t249 49t186.5 141.5t117 226t40.5 302.5t-40.5 302.5t-117 225.5t-186.5 141t-249 49t-249.5 -49t-187 -141.5t-117.5 -225.5t-41 -302z" />
    <glyph glyph-name="p" unicode="p" horiz-adv-x="2434" 
d="M646 1531q40 172 112 308t171.5 230.5t225 145t272.5 50.5q133 0 252.5 -39t220.5 -111t182 -175.5t138 -232.5t87.5 -281.5t30.5 -322.5t-30.5 -322.5t-87.5 -281.5t-138 -232.5t-182 -176t-220.5 -111.5t-252.5 -39q-147 0 -272.5 50.5t-225 145t-171.5 230.5t-112 308
v-1430h-502v2961h502v-674zM646 1103q0 -172 40.5 -307t118 -228.5t189 -142.5t252.5 -49q144 0 253.5 47t184 139t112.5 227.5t38 313.5t-38 313.5t-112.5 227t-184 138.5t-253.5 47q-142 0 -253.5 -49t-188.5 -142t-117.5 -228t-40.5 -307z" />
    <glyph glyph-name="q" unicode="q" horiz-adv-x="2434" 
d="M2290 2205v-2961h-502v1430q-40 -172 -112 -308t-171.5 -230.5t-225 -145t-271.5 -50.5q-133 0 -252.5 39t-221 111.5t-182.5 176t-138 232.5t-87.5 281.5t-30.5 322.5t30.5 322.5t87.5 281.5t138 232.5t182.5 175.5t221 111t252.5 39q146 0 271.5 -50.5t225 -145
t171.5 -230.5t112 -308v674h502zM1788 1103q0 172 -40.5 307t-117.5 228t-188.5 142t-253.5 49q-144 0 -253.5 -47t-184 -138.5t-112.5 -227t-38 -313.5t38 -313.5t112.5 -227.5t184 -139t253.5 -47q141 0 252.5 49t189 142.5t118 228.5t40.5 307z" />
    <glyph glyph-name="r" unicode="r" horiz-adv-x="1647" 
d="M646 0h-502v2205h502v-735q34 171 99.5 307t164 231.5t231.5 146t301 50.5h116v-475h-166q-213 0 -356 -41.5t-230 -125.5t-123.5 -212t-36.5 -301v-1050z" />
    <glyph glyph-name="s" unicode="s" horiz-adv-x="2206" 
d="M1070 2265q234 0 417 -52t309 -149t191.5 -235t65.5 -311h-493q0 81 -31.5 146t-93 111t-151.5 71t-208 25q-105 0 -191.5 -19.5t-148.5 -55.5t-96.5 -86t-34.5 -111q0 -72 42.5 -117.5t112.5 -74.5t158.5 -46.5t180.5 -32.5l147 -24q91 -15 191 -33.5t198 -49.5
t187 -77.5t157 -116.5t108 -167.5t40 -230.5q0 -165 -66 -293t-194.5 -216t-317.5 -134t-435 -46q-257 0 -452 50.5t-326 148t-197 240t-66 326.5h493q0 -178 134 -273.5t411 -95.5q123 0 220.5 19t165 55t103 89t35.5 121q0 54 -20 94t-56.5 70.5t-86.5 52t-110 38
t-127.5 29.5t-138.5 25l-148 25q-62 11 -130.5 24t-139 30.5t-139.5 42t-132 58.5t-116.5 78.5t-93 103t-62 132.5t-22.5 166q0 156 65.5 281t189.5 212.5t301.5 135t400.5 47.5z" />
    <glyph glyph-name="t" unicode="t" horiz-adv-x="1645" 
d="M1536 17q-267 -76 -475 -76q-347 0 -528 207t-181 612v1037h-288v408h288v508h502v-508h682v-408h-682v-1038q0 -205 76 -301t241 -96q66 0 155 14.5t210 46.5v-406z" />
    <glyph glyph-name="u" unicode="u" 
d="M1698 2205h502v-2205h-502v650q-37 -169 -108.5 -301t-173 -223t-231.5 -138.5t-284 -47.5q-183 0 -325.5 67.5t-241 196.5t-149.5 316.5t-51 427.5v1257h502v-1207q0 -614 497 -614q134 0 239 43t177.5 125.5t110.5 203t38 274.5v1175z" />
    <glyph glyph-name="v" unicode="v" horiz-adv-x="2334" 
d="M2294 2205l-766 -2205h-730l-759 2205h525l605 -1891l612 1891h513z" />
    <glyph glyph-name="w" unicode="w" horiz-adv-x="3692" 
d="M2167 2205l481 -1861l489 1861h500l-614 -2205h-702l-476 1799l-475 -1799h-702l-614 2205h517l488 -1870l482 1870h626z" />
    <glyph glyph-name="x" unicode="x" horiz-adv-x="2485" 
d="M1610 1120l826 -1120h-588l-626 863l-607 -863h-557l802 1113l-776 1092h588l576 -838l562 838h557z" />
    <glyph glyph-name="y" unicode="y" horiz-adv-x="2333" 
d="M2295 2205l-878 -2306q-70 -186 -164.5 -321.5t-217.5 -223t-276.5 -130t-341.5 -42.5q-62 0 -124.5 5t-125.5 15v419q61 -8 112.5 -12t98.5 -4q98 0 177 17.5t142 54.5t110.5 95t82.5 138l5 15l-855 2280h525l604 -1790l613 1790h513z" />
    <glyph glyph-name="z" unicode="z" horiz-adv-x="2134" 
d="M660 408l1375 1v-409h-1936v435l1289 1362h-1251v408h1821v-435z" />
    <glyph glyph-name="braceleft" unicode="{" horiz-adv-x="1496" 
d="M1412 2616h-130q-366 0 -366 -421v-354q0 -108 -23 -204t-70.5 -169.5t-120.5 -121.5t-173 -60q102 -12 175 -58t120 -119t69.5 -169t22.5 -208v-354q0 -207 92 -313.5t274 -106.5h130v-396h-176q-401 0 -600.5 204t-199.5 615v364q0 85 -15 146.5t-47 101t-81.5 58.5
t-118.5 19h-50v434h50q70 0 119.5 18.5t81 58t46.5 101t15 147.5v364q0 416 197 617.5t602 201.5h177v-396z" />
    <glyph glyph-name="bar" unicode="|" horiz-adv-x="781" 
d="M154 -370v3600h472v-3600h-472z" />
    <glyph glyph-name="braceright" unicode="}" horiz-adv-x="1496" 
d="M84.0859 -41.8398h129.992q365.978 0 365.978 420.974v353.979q0 107.993 22.999 203.987q22.998 95.9941 70.4951 169.49q47.4971 73.4951 120.493 121.492q72.9951 47.9971 172.989 59.9961q-101.994 12 -174.989 57.9971t-119.992 118.992
q-46.998 72.9961 -69.4961 168.99q-22.499 95.9941 -22.499 207.987v353.979q0 206.987 -91.9941 313.48t-273.983 106.493h-129.992v395.977h175.989q400.976 0 600.464 -203.988q199.487 -203.987 199.487 -614.962v-363.978q0 -84.9951 14.999 -146.491t46.9971 -100.994
t81.4951 -58.4961q49.4971 -18.999 118.493 -18.999h49.9971v-433.974h-49.9971q-69.9961 0 -119.493 -18.499t-80.9951 -57.9961q-31.498 -39.498 -46.4971 -100.994t-14.999 -147.491v-363.978q0 -415.975 -196.987 -617.462q-196.988 -201.488 -601.964 -201.488
h-176.989v395.977z" />
    <glyph glyph-name="asciitilde" unicode="~" horiz-adv-x="2362" 
d="M2207 2268q0 -246 -26.5 -419t-85.5 -282t-153 -159t-228 -50q-100 0 -189.5 24t-167 60t-142.5 77t-116 75l-82 54q-40 27 -82.5 55t-86 50t-88.5 36t-89 14q-53 0 -91 -23.5t-62 -73.5t-35.5 -127.5t-11.5 -185.5v-15h-317v17q0 234 30 405.5t92 283.5t157 166.5
t225 54.5q86 0 164.5 -21.5t148 -55t131 -73.5t113.5 -76l83 -56q38 -25 82.5 -54t94 -53t102.5 -40t108 -16q57 0 96.5 20.5t63.5 66.5t35 120t11 181v38h316v-18z" />
    <glyph glyph-name="exclamdown" unicode="&#xa1;" horiz-adv-x="876" 
d="M686 -654.825v494.97l-39 1444.91h-420l-37 -1444.91v-494.97h496zM720 2205h-564v-591.964h564v591.964z" />
    <glyph glyph-name="cent" unicode="&#xa2;" horiz-adv-x="2329" 
d="M600 1103q0 -169 41 -302.5t117.5 -226t187 -141.5t249.5 -49q120 0 211.5 35.5t157.5 98.5t107.5 148.5t60.5 184.5h501q-22 -174 -90 -325.5t-176.5 -269.5t-255.5 -196t-328 -106l35 -455h-448l36 454q-206 30 -374 125t-287 244t-184 346.5t-65 434.5t65 434.5
t184 346t287 243.5t374 125l-36 453h448l-35 -454q181 -28 328 -106t255.5 -195.5t176.5 -269t90 -326.5h-501q-18 99 -59.5 184.5t-107.5 148.5t-158 98.5t-212 35.5q-139 0 -249.5 -49t-187 -141.5t-117.5 -225.5t-41 -302z" />
    <glyph glyph-name="sterling" unicode="&#xa3;" horiz-adv-x="2733" 
d="M2067 1978v62q0 96 -43 174.5t-122.5 134t-190.5 86t-248 30.5q-142 0 -252.5 -34t-186 -99t-114.5 -160.5t-39 -218.5q0 -95 23 -203t65 -242l6 -18h1162v-376h-1055q9 -48 14 -94t5 -91q0 -88 -20 -169.5t-57.5 -148.5t-91.5 -114t-122 -65h1809v-432h-2455v432h265
q140 0 207 71t67 220q0 41 -5 83t-16 89t-28 101t-41 118h-449v376h306q-45 128 -72.5 255.5t-27.5 251.5q0 137 36.5 258t105.5 224t167.5 184.5t221.5 138.5t269.5 87.5t310.5 30.5q162 0 307 -29.5t268 -84t221.5 -132.5t168 -175.5t106.5 -212t37 -242.5v-66h-512z" />
    <glyph glyph-name="currency" unicode="&#xa4;" horiz-adv-x="3155" 
d="M154 2860h2847v-2860h-2847v2860zM1577 1664l785 861h-1568zM537 524l827 906l-827 908v-1814zM2618 521v1815l-827 -906zM792 335h1568l-783 860z" />
    <glyph glyph-name="yen" unicode="&#xa5;" horiz-adv-x="2727" 
d="M2360 1320h-581l-157 -257v-3h738v-364h-738v-696h-526v696h-737v364h737v1l-157 259h-580v364h360l-710 1176h592l764 -1303l774 1303h579l-717 -1176h359v-364z" />
    <glyph glyph-name="brokenbar" unicode="&#xa6;" horiz-adv-x="781" 
d="M154 1670v1560h472v-1560h-472zM154 -370v1560h472v-1560h-472z" />
    <glyph glyph-name="section" unicode="&#xa7;" horiz-adv-x="2206" 
d="M1070 2920q234 0 417 -52t309 -149t192 -235t66 -311h-494q0 81 -31.5 146t-92.5 111t-151.5 71t-207.5 25q-105 0 -191.5 -19.5t-149 -55.5t-96.5 -86t-34 -111q0 -48 19.5 -83.5t54 -62.5t81.5 -46t102 -33.5t115 -25t121 -20.5l147 -24q68 -11 142 -24t148.5 -31.5
t147.5 -44t138.5 -61t121.5 -83t97 -110t64 -142t23 -179.5q0 -137 -47 -247t-138 -194q42 -36 76 -80t58 -97.5t37.5 -116.5t13.5 -138q0 -165 -66 -293.5t-195 -216.5t-318 -134t-435 -46q-257 0 -452 50.5t-326 148t-197 240t-66 326.5h493q0 -178 134.5 -273.5
t411.5 -95.5q123 0 220 19t164.5 55t103 89t35.5 121q0 54 -20 94t-56.5 70.5t-86.5 52t-110 38t-127.5 29.5t-138.5 25l-147 26q-82 14 -176.5 32.5t-187 48t-178 73.5t-151 110t-104.5 156.5t-39 213.5q0 139 52.5 252t153.5 198q-46 34 -84 76.5t-65 94.5t-42 115
t-15 138q0 156 65.5 281t189.5 212.5t301.5 135t400.5 47.5zM859 1625q-117 -30 -185 -94t-68 -151q0 -48 19.5 -83.5t54 -62.5t81.5 -46t102 -33t115 -24.5t121 -20.5l147 -25q50 -8 102.5 -17t106.5 -20q87 35 133.5 92.5t46.5 134.5q0 54 -20 94t-56.5 70.5t-86.5 52
t-110 38t-127.5 29.5t-138.5 25l-147 26q-22 3 -44.5 7t-45.5 8z" />
    <glyph glyph-name="dieresis" unicode="&#xa8;" horiz-adv-x="1394" 
d="M605 2354h-451v474h451v-474zM1238 2354h-451v474h451v-474z" />
    <glyph glyph-name="copyright" unicode="&#xa9;" horiz-adv-x="3829" 
d="M1929 3218q252 0 481.5 -61.5t426.5 -174.5t357.5 -273t273.5 -357t174.5 -426.5t61.5 -481.5q0 -254 -62.5 -487t-178 -433.5t-277.5 -364t-361.5 -279t-431 -178.5t-484.5 -63q-251 0 -481 62.5t-428.5 177t-360 276t-275.5 360t-176.5 428.5t-62.5 482q0 253 63 484
t178.5 430t278.5 361.5t363.5 277.5t433.5 177.5t487 62.5zM1926 2876q-206 0 -391.5 -49t-344 -140.5t-286.5 -221t-217.5 -290t-138 -349.5t-48.5 -398q0 -208 48 -396t136.5 -349t214.5 -290.5t281.5 -221t338 -141t384.5 -49.5q204 0 389 50.5t343.5 144t286.5 225.5
t218.5 295.5t139.5 354.5t49 401q0 207 -47.5 393t-135.5 344t-213 285t-281 216.5t-339 137.5t-387 48zM1505 1428q0 -129 30.5 -230.5t87.5 -172t139 -107.5t186 -37q89 0 157.5 26.5t118.5 73.5t81.5 112t46.5 141h396q-19 -152 -82 -281t-166 -223.5t-242.5 -148
t-310.5 -53.5q-187 0 -341.5 64.5t-265 182.5t-171.5 284t-61 369t61 369t171.5 284t265 182.5t341.5 64.5q171 0 310.5 -53t242.5 -147.5t166 -224t82 -281.5h-396q-14 77 -45.5 141.5t-81.5 111.5t-119 73.5t-158 26.5q-104 0 -186 -37t-139 -107.5t-87.5 -172
t-30.5 -230.5z" />
    <glyph glyph-name="ordfeminine" unicode="&#xaa;" horiz-adv-x="1710" 
d="M196 2369q0 127 47 229t134 174t211 110.5t279 38.5q162 0 289.5 -42.5t216 -122.5t135.5 -195.5t47 -261.5v-851h-350v375q-25 -96 -75 -173t-121.5 -130.5t-162.5 -82t-198 -28.5q-111 0 -202.5 30.5t-156 87t-100 135t-35.5 174.5q0 101 39.5 180.5t114 134.5
t181.5 84.5t242 29.5h474v12q0 81 -23.5 145t-68 109t-108 69t-143.5 24q-81 0 -140.5 -18t-98.5 -51t-58 -80t-19 -106h-350zM766 2013q-130 0 -196.5 -39.5t-66.5 -115.5q0 -80 70 -122.5t200 -42.5q95 0 174 22.5t136.5 62.5t89.5 95t32 120v20h-439z" />
    <glyph glyph-name="guillemotleft" unicode="&#xab;" horiz-adv-x="3063" 
d="M1230 2098h590l-1091 -996l1091 -993h-590l-1075 992zM2396 2098h590l-1091 -996l1091 -993h-590l-1075 992z" />
    <glyph glyph-name="logicalnot" unicode="&#xac;" horiz-adv-x="3155" 
d="M154 2860h2847v-2860h-2847v2860zM1577 1664l785 861h-1568zM537 524l827 906l-827 908v-1814zM2618 521v1815l-827 -906zM792 335h1568l-783 860z" />
    <glyph glyph-name="registered" unicode="&#xae;" horiz-adv-x="3829" 
d="M1929 3218q252 0 481.5 -61.5t426.5 -174.5t357.5 -273t273.5 -357.5t174.5 -426.5t61.5 -481q0 -254 -62.5 -487t-178 -433.5t-277.5 -364t-361.5 -279t-431 -178.5t-484.5 -63q-251 0 -481 62.5t-428.5 177t-360 276t-275.5 360t-176.5 428.5t-62.5 482q0 253 63 484
t178.5 430t278.5 361.5t363.5 277.5t433.5 177.5t487 62.5zM1926 2876q-206 0 -391.5 -49t-344 -140.5t-286.5 -221t-217.5 -290t-138 -349.5t-48.5 -398q0 -208 48 -396t136.5 -349t214.5 -290.5t281.5 -221t338 -141t384.5 -49.5q204 0 389 50.5t343.5 144t286.5 225.5
t218.5 295.5t139.5 354.5t49 401q0 207 -47.5 393t-135.5 344t-213 285t-281 216.5t-339 137.5t-387 48zM1242 586v1659h842q135 0 245 -35.5t188 -100.5t121 -156.5t43 -204.5q0 -97 -33.5 -177.5t-94 -138.5t-146.5 -91.5t-191 -36.5q194 -15 303 -260l206 -458h-427
l-206 427q-22 46 -45 76t-52 48t-67 25t-89 7h-203v-583h-394zM1989 1511q141 0 219 51t78 143q0 91 -76.5 139t-221.5 48h-352v-381h353z" />
    <glyph glyph-name="macron" unicode="&#xaf;" horiz-adv-x="1380" 
d="M1226 2420h-1072v308h1072v-308z" />
    <glyph glyph-name="degree" unicode="&#xb0;" horiz-adv-x="1364" 
d="M125 2371q0 119 41.5 220t116 174.5t176.5 114.5t223 41t223 -41t176.5 -114.5t116 -174.5t41.5 -220q0 -120 -41.5 -220.5t-116 -174t-176.5 -114.5t-223 -41t-223 41t-176.5 114.5t-116 174t-41.5 220.5zM419 2371q0 -65 18.5 -117.5t53 -89t83 -56.5t109.5 -20
t109.5 19.5t82.5 56.5t52 89t18 118t-18 118t-52 89t-82.5 56.5t-109.5 19.5t-110 -19.5t-83 -56.5t-52.5 -89t-18.5 -118z" />
    <glyph glyph-name="plusminus" unicode="&#xb1;" horiz-adv-x="2184" 
d="M860 508v728h-706v420h706v728h464v-728h706v-420h-706v-728h-464zM154 0v420h1876v-420h-1876z" />
    <glyph glyph-name="twosuperior" unicode="&#xb2;" horiz-adv-x="1475" 
d="M154 1431v200q0 85 20.5 150t55 114t79.5 84t94.5 60.5t100 43.5t94.5 32l130 42q46 15 96 34t91.5 48.5t68.5 73.5t27 108q0 102 -70 157.5t-198 55.5q-271 0 -271 -266v-26h-311v32q0 126 41.5 227t118 172t185.5 109t244 38q131 0 237 -36t180.5 -102t114.5 -160
t40 -211q0 -86 -21 -152t-56.5 -114.5t-81.5 -83t-96.5 -59t-101 -41t-94.5 -29.5l-116 -35q-41 -12 -84.5 -26.5t-82.5 -36t-69.5 -51t-44.5 -71.5h843v-281h-1163z" />
    <glyph glyph-name="threesuperior" unicode="&#xb3;" horiz-adv-x="1551" 
d="M154 2431q0 116 39.5 207t115 153.5t185.5 95.5t250 33q132 0 239.5 -28.5t184 -81t118 -126.5t41.5 -165q0 -67 -23 -124.5t-64 -100.5t-98 -70.5t-126 -34.5q89 -5 160 -31t120 -70t75 -105t26 -136q0 -99 -44 -180t-124.5 -138t-194 -88.5t-253.5 -31.5
q-147 0 -263 35t-197 101.5t-124 162.5t-43 217v3h301v-14q0 -220 310 -220q154 0 237.5 53t83.5 152q0 39 -15 66.5t-48.5 44.5t-87.5 24.5t-133 7.5h-195v268h188q115 0 170 37t55 114q0 175 -287 175q-143 0 -206.5 -47.5t-63.5 -155.5v-5h-309v3z" />
    <glyph glyph-name="acute" unicode="&#xb4;" horiz-adv-x="1080" 
d="M926.01 2934h-463.972l-307.981 -639h331.979z" />
    <glyph glyph-name="paragraph" unicode="&#xb6;" horiz-adv-x="2812" 
d="M2658 -758h-492v3618h492v-3618zM1791 -758h-492v1656h-73q-241 0 -438.5 70.5t-338.5 199t-218 309.5t-77 402t77 402t218 309.5t338.5 199t438.5 70.5h565v-3618z" />
    <glyph glyph-name="periodcentered" unicode="&#xb7;" horiz-adv-x="872" 
d="M718 900h-564v592h564v-592z" />
    <glyph glyph-name="cedilla" unicode="&#xb8;" horiz-adv-x="1075" 
d="M457 9l-28 -162q115 -2 206 -23t154.5 -60t97.5 -94t34 -124q0 -74 -38.5 -134t-108.5 -102.5t-169 -66t-220 -23.5q-55 0 -112.5 5t-117.5 15v233q57 -10 109 -14.5t100 -4.5q129 0 201 32t72 87q0 66 -104.5 104t-307.5 38l52 294h180z" />
    <glyph glyph-name="onesuperior" unicode="&#xb9;" horiz-adv-x="1128" 
d="M749 1710h224v-279h-760v279h225v697h-284v263h116q60 0 100 9.5t64 32t34 59.5t10 91h271v-1152z" />
    <glyph glyph-name="ordmasculine" unicode="&#xba;" horiz-adv-x="1736" 
d="M155 2165q0 171 52 310t145.5 238t225 153t290.5 54t290.5 -54t225.5 -153t146 -238t52 -310t-52 -310.5t-146 -238.5t-225.5 -153t-290.5 -54t-290.5 54t-225 153t-145.5 238.5t-52 310.5zM506 2165q0 -104 25 -186.5t72 -139.5t114 -87t152 -30t152 30t113.5 87
t71.5 139.5t25 186.5t-25 186.5t-71.5 139.5t-113.5 87t-152 30t-152 -30t-114 -87t-72 -139.5t-25 -186.5z" />
    <glyph glyph-name="guillemotright" unicode="&#xbb;" horiz-adv-x="3063" 
d="M1834.08 109.128h-589.964l1090.93 995.939l-1090.93 992.939h589.964l1074.93 -991.939zM668.146 109.128h-589.964l1090.93 995.939l-1090.93 992.939h589.964l1074.93 -991.939z" />
    <glyph glyph-name="onequarter" unicode="&#xbc;" horiz-adv-x="2890" 
d="M749 1709h224v-279h-760v279h225v697h-284v263h116q60 0 100 9.5t64 32t34 59.5t10 91h271v-1152zM2211 0v322h-776v309l734 799h366v-831h200v-277h-200v-322h-324zM2211 599v486l-446 -486h446zM282 0l2084 2960h347l-2084 -2960h-347z" />
    <glyph glyph-name="onehalf" unicode="&#xbd;" horiz-adv-x="3042" 
d="M272 0l2084 2960h347l-2084 -2960h-347zM1720 0v200q0 85 20.5 150t55 114t79.5 84t94.5 60.5t100 43.5t94.5 32l130 42q46 15 96 34t91.5 48.5t68.5 73.5t27 108q0 102 -70 157.5t-198 55.5q-271 0 -271 -266v-26h-311v32q0 126 41.5 227t118 172t185.5 109t244 38
q131 0 237 -36t180.5 -102t114.5 -160t40 -211q0 -86 -21 -152t-56.5 -114.5t-81.5 -83t-96.5 -59t-101 -41t-94.5 -29.5l-116 -35q-41 -12 -84.5 -26.5t-82.5 -36t-69.5 -51t-44.5 -71.5h843v-281h-1163zM749 1710h224v-279h-760v279h225v697h-284v263h116q60 0 100 9.5
t64 32t34 59.5t10 91h271v-1152z" />
    <glyph glyph-name="threequarters" unicode="&#xbe;" horiz-adv-x="3077" 
d="M2398 0v322h-776v309l734 799h366v-831h200v-277h-200v-322h-324zM2398 599v486l-446 -486h446zM154 2431q0 116 39.5 207t115 153.5t185.5 95.5t250 33q132 0 239.5 -28.5t184 -81t118 -126.5t41.5 -165q0 -67 -23 -124.5t-64 -100.5t-98 -70.5t-126 -34.5
q89 -5 160 -31t120 -70t75 -105t26 -136q0 -99 -44 -180t-124.5 -138t-194 -88.5t-253.5 -31.5q-147 0 -263 35t-197 101.5t-124 162.5t-43 217v3h301v-14q0 -220 310 -220q154 0 237.5 53t83.5 152q0 39 -15 66.5t-48.5 44.5t-87.5 24.5t-133 7.5h-195v268h188
q115 0 170 37t55 114q0 175 -287 175q-143 0 -206.5 -47.5t-63.5 -155.5v-5h-309v3zM472 0l2084 2960h347l-2084 -2960h-347z" />
    <glyph glyph-name="questiondown" unicode="&#xbf;" horiz-adv-x="2482" 
d="M1107.08 1365.05h483.971v-131.991q0 -95.9941 -20.999 -171.49q-20.999 -75.4951 -57.4961 -135.991q-36.498 -60.4961 -84.9951 -106.993t-103.494 -83.9951q-54.9961 -37.498 -112.993 -67.4961q-57.9961 -29.998 -112.993 -56.9961l-74.9951 -36.998
q-62.9961 -30.998 -125.992 -64.9961t-112.993 -79.9951t-81.4951 -107.493t-31.498 -147.491q0 -97.9941 44.4971 -177.489q44.498 -79.4951 125.493 -135.491q80.9951 -55.9971 194.987 -86.9951q113.993 -30.998 251.985 -30.998q143.991 0 255.984 35.498
t188.988 108.993t116.993 185.988q39.9971 112.493 39.9971 266.484v44.9971h514.969v-58.9961q0 -260.984 -74.9951 -455.973q-74.9961 -194.988 -220.487 -324.98t-358.478 -194.488q-212.987 -64.4961 -487.971 -64.4961q-264.983 0 -471.471 58.4971
q-206.487 58.4961 -347.979 170.489q-141.491 111.993 -215.486 274.983t-73.9951 371.978q0 127.992 25.998 227.486q25.998 99.4932 70.4951 176.488q44.498 76.9961 101.994 133.492q57.4971 56.4971 120.993 99.4941t127.992 74.4951t122.492 57.4971l68.9961 31.998
q59.9961 26.998 116.492 54.9961q56.4971 27.998 100.494 62.4961t70.4961 78.9951q26.498 44.498 26.498 103.494v102.993zM1067.09 2205h563.966v-591.964h-563.966v591.964z" />
    <glyph glyph-name="Agrave" unicode="&#xc0;" horiz-adv-x="2834" 
d="M19 0l1026 2860h758l1012 -2860h-560l-225 673h-1234l-229 -673h-548zM1880 1121l-463 1382l-469 -1382h932zM810 3649h464l308 -639h-332z" />
    <glyph glyph-name="Aacute" unicode="&#xc1;" horiz-adv-x="2834" 
d="M19 0l1026 2860h758l1012 -2860h-560l-225 673h-1234l-229 -673h-548zM1880 1121l-463 1382l-469 -1382h932zM2025.01 3649h-463.972l-307.981 -639h331.979z" />
    <glyph glyph-name="Acircumflex" unicode="&#xc2;" horiz-adv-x="2834" 
d="M19 0l1026 2860h758l1012 -2860h-560l-225 673h-1234l-229 -673h-548zM1880 1121l-463 1382l-469 -1382h932zM1613 3010l-193 375l-199 -375h-310l292 639h428l292 -639h-310z" />
    <glyph glyph-name="Atilde" unicode="&#xc3;" horiz-adv-x="2834" 
d="M19 0l1026 2860h758l1012 -2860h-560l-225 673h-1234l-229 -673h-548zM1880 1121l-463 1382l-469 -1382h932zM1998 3579q0 -266 -75 -392t-236 -126q-51 0 -94 11t-79 27.5t-64.5 35t-50.5 34.5l-51 35q-14 9 -31 20.5t-37 21t-42.5 16t-46.5 6.5q-54 0 -79.5 -41.5
t-25.5 -139.5v-8h-206v10q0 525 323 525q47 0 86 -9.5t71 -24t57.5 -30.5t44.5 -30l51 -35q15 -10 36.5 -23.5t46 -25.5t51.5 -20t54 -8q48 0 70.5 38t22.5 132v18h204v-17z" />
    <glyph glyph-name="Adieresis" unicode="&#xc4;" horiz-adv-x="2834" 
d="M19 0l1026 2860h758l1012 -2860h-560l-225 673h-1234l-229 -673h-548zM1880 1121l-463 1382l-469 -1382h932zM1326 3069h-451v474h451v-474zM1959 3069h-451v474h451v-474z" />
    <glyph glyph-name="Aring" unicode="&#xc5;" horiz-adv-x="2834" 
d="M19 0l1026 2860h758l1012 -2860h-560l-225 673h-1234l-229 -673h-548zM1880 1121l-463 1382l-469 -1382h932zM973 3446q0 98 32 178t90 137t139 88.5t179 31.5t179 -31.5t139.5 -88.5t90.5 -137t32 -178t-32 -178t-90.5 -137t-139.5 -88.5t-179 -31.5t-179 31t-139 88
t-90 137.5t-32 178.5zM1221 3446q0 -48 14 -86.5t39 -66t61 -42t79 -14.5t78.5 14.5t60.5 42t39 66t14 86.5t-14 86.5t-39 65.5t-60.5 41.5t-78.5 14.5t-79 -14.5t-61 -41.5t-39 -65.5t-14 -86.5z" />
    <glyph glyph-name="AE" unicode="&#xc6;" horiz-adv-x="3704" 
d="M19 0l1265 2860h2304v-464h-1428v-742h1310v-450h-1310v-740h1466v-464h-1992v633h-787l-269 -633h-559zM1634 1081v1403l-596 -1403h596z" />
    <glyph glyph-name="Ccedilla" unicode="&#xc7;" horiz-adv-x="2938" 
d="M652 1430q0 -243 57 -433.5t165 -322t264.5 -200t355.5 -68.5q321 0 517 182t262 542h524q-43 -278 -153.5 -498.5t-278.5 -374.5t-388.5 -235.5t-483.5 -81.5q-202 0 -382 48.5t-332.5 139.5t-273.5 222.5t-206 297t-130 362.5t-45 420t45 420t130 362.5t206 297
t273.5 222.5t332.5 139.5t382 48.5q263 0 483.5 -81.5t388.5 -235.5t278.5 -374.5t153.5 -498.5h-524q-66 360 -262 542t-517 182q-199 0 -355.5 -68.5t-264.5 -200t-165 -322t-57 -433.5zM1589 9l-28 -162q115 -2 206 -23t154.5 -60t97.5 -94t34 -124q0 -74 -38.5 -134
t-108.5 -102.5t-169 -66t-220 -23.5q-55 0 -112.5 5t-117.5 15v233q57 -10 109 -14.5t100 -4.5q129 0 201 32t72 87q0 66 -104.5 104t-307.5 38l52 294h180z" />
    <glyph glyph-name="Egrave" unicode="&#xc8;" horiz-adv-x="2223" 
d="M2108 2860v-464h-1428v-744h1310v-450h-1310v-738h1466v-464h-1992v2860h1954zM530 3649h464l308 -639h-332z" />
    <glyph glyph-name="Eacute" unicode="&#xc9;" horiz-adv-x="2223" 
d="M2108 2860v-464h-1428v-744h1310v-450h-1310v-738h1466v-464h-1992v2860h1954zM1746.01 3649h-463.972l-307.981 -639h331.979z" />
    <glyph glyph-name="Ecircumflex" unicode="&#xca;" horiz-adv-x="2223" 
d="M2108 2860v-464h-1428v-744h1310v-450h-1310v-738h1466v-464h-1992v2860h1954zM1334 3010l-193 375l-199 -375h-310l292 639h428l292 -639h-310z" />
    <glyph glyph-name="Edieresis" unicode="&#xcb;" horiz-adv-x="2223" 
d="M2108 2860v-464h-1428v-744h1310v-450h-1310v-738h1466v-464h-1992v2860h1954zM1046 3069h-451v474h451v-474zM1679 3069h-451v474h451v-474z" />
    <glyph glyph-name="Igrave" unicode="&#xcc;" horiz-adv-x="835" 
d="M680 0h-526v2860h526v-2860zM-190 3649h464l308 -639h-332z" />
    <glyph glyph-name="Iacute" unicode="&#xcd;" horiz-adv-x="835" 
d="M680 0h-526v2860h526v-2860zM1025.01 3649h-463.972l-307.981 -639h331.979z" />
    <glyph glyph-name="Icircumflex" unicode="&#xce;" horiz-adv-x="835" 
d="M680 0h-526v2860h526v-2860zM613 3010l-193 375l-199 -375h-310l292 639h428l292 -639h-310z" />
    <glyph glyph-name="Idieresis" unicode="&#xcf;" horiz-adv-x="835" 
d="M680 0h-526v2860h526v-2860zM326 3069h-451v474h451v-474zM959 3069h-451v474h451v-474z" />
    <glyph glyph-name="Eth" unicode="&#xd0;" horiz-adv-x="2728" 
d="M154 2860h992q218 0 411 -46t355 -133t290.5 -212.5t217.5 -284.5t136.5 -348.5t47.5 -405.5t-47.5 -405.5t-136.5 -348.5t-217.5 -284.5t-290.5 -212.5t-355 -133t-411 -46h-992v2860zM1139 466q221 0 395 65t294.5 188.5t184 302.5t63.5 408t-63.5 408t-184 302.5
t-294.5 188.5t-395 65h-467v-1928h467zM1382 1253h-1520v374h1520v-374z" />
    <glyph glyph-name="Ntilde" unicode="&#xd1;" horiz-adv-x="2887" 
d="M2733 0h-789l-1282 2443v-2443h-508v2860h849l1222 -2321v2321h508v-2860zM2024 3531q0 -266 -75 -392t-236 -126q-51 0 -94 11t-79 27.5t-64.5 35t-50.5 34.5l-51 35q-14 9 -31 20.5t-37 21t-42.5 16t-46.5 6.5q-54 0 -79.5 -41.5t-25.5 -139.5v-8h-206v10
q0 525 323 525q47 0 86 -9.5t71 -24t57.5 -30.5t44.5 -30l51 -35q15 -10 36.5 -23.5t46 -25.5t51.5 -20t54 -8q48 0 70.5 38t22.5 132v18h204v-17z" />
    <glyph glyph-name="Ograve" unicode="&#xd2;" horiz-adv-x="2989" 
d="M124 1430q0 223 45 420t130 362.5t206.5 297t273.5 222.5t332.5 139.5t382.5 48.5t382.5 -48.5t332.5 -139.5t273.5 -222.5t206 -297t130 -362.5t45.5 -420t-45.5 -420t-130 -362.5t-206 -297t-273.5 -222.5t-332.5 -139.5t-382.5 -48.5t-382.5 48.5t-332.5 139.5
t-273.5 222.5t-206.5 297t-130 362.5t-45 420zM652 1430q0 -243 57 -433.5t165 -322t264.5 -200t355.5 -68.5t355.5 68.5t264.5 200t165 322t57 433.5t-57 433.5t-165 322t-264.5 200t-355.5 68.5t-355.5 -68.5t-264.5 -200t-165 -322t-57 -433.5zM885 3649h464l308 -639
h-332z" />
    <glyph glyph-name="Oacute" unicode="&#xd3;" horiz-adv-x="2989" 
d="M124 1430q0 223 45 420t130 362.5t206.5 297t273.5 222.5t332.5 139.5t382.5 48.5t382.5 -48.5t332.5 -139.5t273.5 -222.5t206 -297t130 -362.5t45.5 -420t-45.5 -420t-130 -362.5t-206 -297t-273.5 -222.5t-332.5 -139.5t-382.5 -48.5t-382.5 48.5t-332.5 139.5
t-273.5 222.5t-206.5 297t-130 362.5t-45 420zM652 1430q0 -243 57 -433.5t165 -322t264.5 -200t355.5 -68.5t355.5 68.5t264.5 200t165 322t57 433.5t-57 433.5t-165 322t-264.5 200t-355.5 68.5t-355.5 -68.5t-264.5 -200t-165 -322t-57 -433.5zM2100.01 3649h-463.972
l-307.981 -639h331.979z" />
    <glyph glyph-name="Ocircumflex" unicode="&#xd4;" horiz-adv-x="2989" 
d="M124 1430q0 223 45 420t130 362.5t206.5 297t273.5 222.5t332.5 139.5t382.5 48.5t382.5 -48.5t332.5 -139.5t273.5 -222.5t206 -297t130 -362.5t45.5 -420t-45.5 -420t-130 -362.5t-206 -297t-273.5 -222.5t-332.5 -139.5t-382.5 -48.5t-382.5 48.5t-332.5 139.5
t-273.5 222.5t-206.5 297t-130 362.5t-45 420zM652 1430q0 -243 57 -433.5t165 -322t264.5 -200t355.5 -68.5t355.5 68.5t264.5 200t165 322t57 433.5t-57 433.5t-165 322t-264.5 200t-355.5 68.5t-355.5 -68.5t-264.5 -200t-165 -322t-57 -433.5zM1688 3010l-193 375
l-199 -375h-310l292 639h428l292 -639h-310z" />
    <glyph glyph-name="Otilde" unicode="&#xd5;" horiz-adv-x="2989" 
d="M124 1430q0 223 45 420t130 362.5t206.5 297t273.5 222.5t332.5 139.5t382.5 48.5t382.5 -48.5t332.5 -139.5t273.5 -222.5t206 -297t130 -362.5t45.5 -420t-45.5 -420t-130 -362.5t-206 -297t-273.5 -222.5t-332.5 -139.5t-382.5 -48.5t-382.5 48.5t-332.5 139.5
t-273.5 222.5t-206.5 297t-130 362.5t-45 420zM652 1430q0 -243 57 -433.5t165 -322t264.5 -200t355.5 -68.5t355.5 68.5t264.5 200t165 322t57 433.5t-57 433.5t-165 322t-264.5 200t-355.5 68.5t-355.5 -68.5t-264.5 -200t-165 -322t-57 -433.5zM2073 3579
q0 -266 -75 -392t-236 -126q-51 0 -94 11t-79 27.5t-64.5 35t-50.5 34.5l-51 35q-14 9 -31 20.5t-37 21t-42.5 16t-46.5 6.5q-54 0 -79.5 -41.5t-25.5 -139.5v-8h-206v10q0 525 323 525q47 0 86 -9.5t71 -24t57.5 -30.5t44.5 -30l51 -35q15 -10 36.5 -23.5t46 -25.5
t51.5 -20t54 -8q48 0 70.5 38t22.5 132v18h204v-17z" />
    <glyph glyph-name="Odieresis" unicode="&#xd6;" horiz-adv-x="2989" 
d="M124 1430q0 223 45 420t130 362.5t206.5 297t273.5 222.5t332.5 139.5t382.5 48.5t382.5 -48.5t332.5 -139.5t273.5 -222.5t206 -297t130 -362.5t45.5 -420t-45.5 -420t-130 -362.5t-206 -297t-273.5 -222.5t-332.5 -139.5t-382.5 -48.5t-382.5 48.5t-332.5 139.5
t-273.5 222.5t-206.5 297t-130 362.5t-45 420zM652 1430q0 -243 57 -433.5t165 -322t264.5 -200t355.5 -68.5t355.5 68.5t264.5 200t165 322t57 433.5t-57 433.5t-165 322t-264.5 200t-355.5 68.5t-355.5 -68.5t-264.5 -200t-165 -322t-57 -433.5zM1401 3069h-451v474h451
v-474zM2034 3069h-451v474h451v-474z" />
    <glyph glyph-name="multiply" unicode="&#xd7;" horiz-adv-x="2090" 
d="M1623 557l-578 578l-580 -580l-311 311l580 580l-578 578l311 311l578 -578l580 580l311 -311l-580 -580l579 -578z" />
    <glyph glyph-name="Oslash" unicode="&#xd8;" horiz-adv-x="2988" 
d="M491 367q-87 98 -155 214.5t-115.5 250.5t-72 284t-24.5 314q0 223 45.5 420t130 362.5t206 297t273.5 222.5t332.5 139.5t382.5 48.5q211 0 395 -51.5t340 -148.5l154 200h451l-335 -428q174 -196 269.5 -464.5t95.5 -597.5q0 -223 -45 -420t-130 -362.5t-206.5 -297
t-273.5 -222.5t-332.5 -139.5t-382.5 -48.5q-212 0 -398 52t-343 152l-165 -204h-425zM652 1430q0 -193 35.5 -351t104.5 -282l1165 1530q-95 63 -210.5 95t-252.5 32q-199 0 -355.5 -68.5t-264.5 -200t-165 -322t-57 -433.5zM1032 533q95 -63 210 -95t252 -32
q199 0 355.5 68.5t264.5 200t165 322t57 433.5q0 193 -35 351t-104 282z" />
    <glyph glyph-name="Ugrave" unicode="&#xd9;" horiz-adv-x="2776" 
d="M154 2860h526v-1658q0 -195 47 -343.5t137 -249t222 -152t302 -51.5t301.5 51.5t222 152t137.5 249t47 343.5v1658h526v-1680q0 -192 -40 -358.5t-115.5 -304.5t-184 -245t-245.5 -181t-300.5 -112.5t-348.5 -38.5q-278 0 -505.5 86t-389.5 246.5t-250.5 390t-88.5 517.5
v1680zM781 3649h464l308 -639h-332z" />
    <glyph glyph-name="Uacute" unicode="&#xda;" horiz-adv-x="2776" 
d="M154 2860h526v-1658q0 -195 47 -343.5t137 -249t222 -152t302 -51.5t301.5 51.5t222 152t137.5 249t47 343.5v1658h526v-1680q0 -192 -40 -358.5t-115.5 -304.5t-184 -245t-245.5 -181t-300.5 -112.5t-348.5 -38.5q-278 0 -505.5 86t-389.5 246.5t-250.5 390t-88.5 517.5
v1680zM1996.01 3649h-463.972l-307.981 -639h331.979z" />
    <glyph glyph-name="Ucircumflex" unicode="&#xdb;" horiz-adv-x="2776" 
d="M154 2860h526v-1658q0 -195 47 -343.5t137 -249t222 -152t302 -51.5t301.5 51.5t222 152t137.5 249t47 343.5v1658h526v-1680q0 -192 -40 -358.5t-115.5 -304.5t-184 -245t-245.5 -181t-300.5 -112.5t-348.5 -38.5q-278 0 -505.5 86t-389.5 246.5t-250.5 390t-88.5 517.5
v1680zM1584 3010l-193 375l-199 -375h-310l292 639h428l292 -639h-310z" />
    <glyph glyph-name="Udieresis" unicode="&#xdc;" horiz-adv-x="2776" 
d="M154 2860h526v-1658q0 -195 47 -343.5t137 -249t222 -152t302 -51.5t301.5 51.5t222 152t137.5 249t47 343.5v1658h526v-1680q0 -192 -40 -358.5t-115.5 -304.5t-184 -245t-245.5 -181t-300.5 -112.5t-348.5 -38.5q-278 0 -505.5 86t-389.5 246.5t-250.5 390t-88.5 517.5
v1680zM1297 3069h-451v474h451v-474zM1930 3069h-451v474h451v-474z" />
    <glyph glyph-name="Yacute" unicode="&#xdd;" horiz-adv-x="2727" 
d="M2718 2860l-1096 -1797v-1063h-526v1061l-1087 1799h592l764 -1303l774 1303h579zM1971.01 3649h-463.972l-307.981 -639h331.979z" />
    <glyph glyph-name="Thorn" unicode="&#xde;" horiz-adv-x="2677" 
d="M154 2860h526v-501h798q157 0 297.5 -31t260 -89t215 -141t163 -187t103.5 -227.5t36 -261.5t-35.5 -262t-101.5 -228.5t-160 -188t-211 -142t-254.5 -89.5t-290.5 -31h-820v-481h-526v2860zM1428 937q141 0 252 33t188 95.5t118 152.5t41 204q0 113 -40.5 202.5
t-116.5 151.5t-186 94.5t-249 32.5h-755v-966h748z" />
    <glyph glyph-name="germandbls" unicode="&#xdf;" horiz-adv-x="2503" 
d="M154 1874q0 254 70 449t206.5 327.5t336.5 201t459 68.5q239 0 434.5 -56t335 -158.5t216 -246.5t76.5 -319q0 -138 -47.5 -255t-133.5 -204.5t-207 -142.5t-267 -69q186 -10 333.5 -61t249.5 -138t156 -208t54 -271q0 -122 -35.5 -232.5t-101 -205t-158.5 -171.5
t-208 -131t-249.5 -83t-282.5 -29q-193 0 -362 52v459q125 -43 272 -43q134 0 246 33t193 92.5t126 141t45 178.5q0 186 -172 284.5t-507 98.5h-204v434h196q131 0 233.5 26t173.5 75.5t108.5 120.5t37.5 162q0 92 -38 166.5t-108.5 126.5t-171.5 80t-227 28
q-562 0 -562 -573v-1881h-516v1874z" />
    <glyph glyph-name="agrave" unicode="&#xe0;" horiz-adv-x="2374" 
d="M149 1417q0 195 72 352t205.5 267.5t325 169.5t429.5 59q249 0 445.5 -65t333 -188t208.5 -301t72 -403v-1308h-502v578q-39 -148 -117.5 -266.5t-191.5 -201t-256.5 -126.5t-311.5 -44q-175 0 -318.5 47.5t-245.5 133.5t-157.5 207.5t-55.5 269.5q0 154 61 276
t175.5 207t279.5 130.5t372 45.5h766v51q0 125 -39 224.5t-112.5 169.5t-178.5 107t-237 37q-134 0 -232.5 -30.5t-162.5 -86.5t-95 -135t-31 -177h-501zM1001 905q-206 0 -311.5 -69t-105.5 -204q0 -142 115.5 -217.5t333.5 -75.5q154 0 283.5 37.5t223 104.5t146 159.5
t52.5 201.5v63h-737zM574 2994h464l308 -639h-332z" />
    <glyph glyph-name="aacute" unicode="&#xe1;" horiz-adv-x="2374" 
d="M149 1417q0 195 72 352t205.5 267.5t325 169.5t429.5 59q249 0 445.5 -65t333 -188t208.5 -301t72 -403v-1308h-502v578q-39 -148 -117.5 -266.5t-191.5 -201t-256.5 -126.5t-311.5 -44q-175 0 -318.5 47.5t-245.5 133.5t-157.5 207.5t-55.5 269.5q0 154 61 276
t175.5 207t279.5 130.5t372 45.5h766v51q0 125 -39 224.5t-112.5 169.5t-178.5 107t-237 37q-134 0 -232.5 -30.5t-162.5 -86.5t-95 -135t-31 -177h-501zM1001 905q-206 0 -311.5 -69t-105.5 -204q0 -142 115.5 -217.5t333.5 -75.5q154 0 283.5 37.5t223 104.5t146 159.5
t52.5 201.5v63h-737zM1789.01 2994h-463.972l-307.981 -639h331.979z" />
    <glyph glyph-name="acircumflex" unicode="&#xe2;" horiz-adv-x="2374" 
d="M149 1417q0 195 72 352t205.5 267.5t325 169.5t429.5 59q249 0 445.5 -65t333 -188t208.5 -301t72 -403v-1308h-502v578q-39 -148 -117.5 -266.5t-191.5 -201t-256.5 -126.5t-311.5 -44q-175 0 -318.5 47.5t-245.5 133.5t-157.5 207.5t-55.5 269.5q0 154 61 276
t175.5 207t279.5 130.5t372 45.5h766v51q0 125 -39 224.5t-112.5 169.5t-178.5 107t-237 37q-134 0 -232.5 -30.5t-162.5 -86.5t-95 -135t-31 -177h-501zM1001 905q-206 0 -311.5 -69t-105.5 -204q0 -142 115.5 -217.5t333.5 -75.5q154 0 283.5 37.5t223 104.5t146 159.5
t52.5 201.5v63h-737zM1377 2355l-193 375l-199 -375h-310l292 639h428l292 -639h-310z" />
    <glyph glyph-name="atilde" unicode="&#xe3;" horiz-adv-x="2374" 
d="M149 1417q0 195 72 352t205.5 267.5t325 169.5t429.5 59q249 0 445.5 -65t333 -188t208.5 -301t72 -403v-1308h-502v578q-39 -148 -117.5 -266.5t-191.5 -201t-256.5 -126.5t-311.5 -44q-175 0 -318.5 47.5t-245.5 133.5t-157.5 207.5t-55.5 269.5q0 154 61 276
t175.5 207t279.5 130.5t372 45.5h766v51q0 125 -39 224.5t-112.5 169.5t-178.5 107t-237 37q-134 0 -232.5 -30.5t-162.5 -86.5t-95 -135t-31 -177h-501zM1001 905q-206 0 -311.5 -69t-105.5 -204q0 -142 115.5 -217.5t333.5 -75.5q154 0 283.5 37.5t223 104.5t146 159.5
t52.5 201.5v63h-737zM1762 2924q0 -266 -75 -392t-236 -126q-51 0 -94 11t-79 27.5t-64.5 35t-50.5 34.5l-51 35q-14 9 -31 20.5t-37 21t-42.5 16t-46.5 6.5q-54 0 -79.5 -41.5t-25.5 -139.5v-8h-206v10q0 525 323 525q47 0 86 -9.5t71 -24t57.5 -30.5t44.5 -30l51 -35
q15 -10 36.5 -23.5t46 -25.5t51.5 -20t54 -8q48 0 70.5 38t22.5 132v18h204v-17z" />
    <glyph glyph-name="adieresis" unicode="&#xe4;" horiz-adv-x="2374" 
d="M149 1417q0 195 72 352t205.5 267.5t325 169.5t429.5 59q249 0 445.5 -65t333 -188t208.5 -301t72 -403v-1308h-502v578q-39 -148 -117.5 -266.5t-191.5 -201t-256.5 -126.5t-311.5 -44q-175 0 -318.5 47.5t-245.5 133.5t-157.5 207.5t-55.5 269.5q0 154 61 276
t175.5 207t279.5 130.5t372 45.5h766v51q0 125 -39 224.5t-112.5 169.5t-178.5 107t-237 37q-134 0 -232.5 -30.5t-162.5 -86.5t-95 -135t-31 -177h-501zM1001 905q-206 0 -311.5 -69t-105.5 -204q0 -142 115.5 -217.5t333.5 -75.5q154 0 283.5 37.5t223 104.5t146 159.5
t52.5 201.5v63h-737zM1090 2414h-451v474h451v-474zM1723 2414h-451v474h451v-474z" />
    <glyph glyph-name="aring" unicode="&#xe5;" horiz-adv-x="2374" 
d="M149 1417q0 195 72 352t205.5 267.5t325 169.5t429.5 59q249 0 445.5 -65t333 -188t208.5 -301t72 -403v-1308h-502v578q-39 -148 -117.5 -266.5t-191.5 -201t-256.5 -126.5t-311.5 -44q-175 0 -318.5 47.5t-245.5 133.5t-157.5 207.5t-55.5 269.5q0 154 61 276
t175.5 207t279.5 130.5t372 45.5h766v51q0 125 -39 224.5t-112.5 169.5t-178.5 107t-237 37q-134 0 -232.5 -30.5t-162.5 -86.5t-95 -135t-31 -177h-501zM1001 905q-206 0 -311.5 -69t-105.5 -204q0 -142 115.5 -217.5t333.5 -75.5q154 0 283.5 37.5t223 104.5t146 159.5
t52.5 201.5v63h-737zM737 2791q0 98 32 178t90 137t139 88.5t179 31.5t179 -31.5t139.5 -88.5t90.5 -137t32 -178t-32 -178t-90.5 -137t-139.5 -88.5t-179 -31.5t-179 31t-139 88t-90 137.5t-32 178.5zM985 2791q0 -48 14 -86.5t39 -66t61 -42t79 -14.5t78.5 14.5t60.5 42
t39 66t14 86.5t-14 86.5t-39 65.5t-60.5 41.5t-78.5 14.5t-79 -14.5t-61 -41.5t-39 -65.5t-14 -86.5z" />
    <glyph glyph-name="ae" unicode="&#xe6;" horiz-adv-x="3978" 
d="M149 1417q0 195 72 352t205.5 267.5t325 169.5t429.5 59q288 0 502.5 -88t346.5 -253q141 163 342 252t452 89q161 0 301.5 -37t258 -107t210 -171t156.5 -229t98 -282t34 -329q0 -39 -2 -78t-6 -82h-1641q16 -138 65.5 -246.5t128 -184.5t184.5 -116t235 -40
q370 0 523 328h484q-49 -176 -143 -315.5t-225.5 -236t-296 -148t-355.5 -51.5q-190 0 -354 51t-296 145.5t-229 230t-151 303.5q-28 -169 -105.5 -304t-197 -229.5t-275.5 -145.5t-342 -51q-180 0 -327.5 47.5t-252 134t-162 208t-57.5 270.5q0 153 61 275t175.5 206.5
t279.5 130t372 45.5h766v51q0 125 -39 224.5t-112.5 169.5t-178.5 107t-237 37q-134 0 -232.5 -30.5t-162.5 -86.5t-95 -135t-31 -177h-501zM3384 1310q-39 263 -180.5 399.5t-376.5 136.5q-120 0 -219 -36t-174 -105t-124 -168.5t-70 -226.5h1144zM1001 905
q-206 0 -311.5 -69t-105.5 -204q0 -142 115.5 -217.5t333.5 -75.5q154 0 283.5 37.5t223 104.5t146 159.5t52.5 201.5v63h-737z" />
    <glyph glyph-name="ccedilla" unicode="&#xe7;" horiz-adv-x="2329" 
d="M600 1103q0 -169 41 -302.5t117.5 -226t187 -141.5t249.5 -49q120 0 211.5 35.5t157.5 98.5t107.5 148.5t60.5 184.5h501q-17 -131 -59.5 -249t-108.5 -219.5t-155 -183t-199 -139.5t-239.5 -89t-277.5 -31q-163 0 -307.5 37.5t-266.5 108.5t-219.5 173t-165 231.5
t-103.5 283.5t-36 329q0 263 79.5 477t224.5 366.5t347 235.5t447 83q222 0 402.5 -68.5t313.5 -190.5t215.5 -288.5t107.5 -363.5h-501q-18 99 -59.5 184.5t-107.5 148.5t-158 98.5t-212 35.5q-139 0 -249.5 -49t-187 -141.5t-117.5 -225.5t-41 -302zM1286 9l-28 -162
q115 -2 206 -23t154.5 -60t97.5 -94t34 -124q0 -74 -38.5 -134t-108.5 -102.5t-169 -66t-220 -23.5q-55 0 -112.5 5t-117.5 15v233q57 -10 109 -14.5t100 -4.5q129 0 201 32t72 87q0 66 -104.5 104t-307.5 38l52 294h180z" />
    <glyph glyph-name="egrave" unicode="&#xe8;" horiz-adv-x="2336" 
d="M2230 739q-44 -187 -137 -335t-227 -251t-304 -158t-367 -55q-164 0 -309.5 38t-267.5 109.5t-219 174t-164 232t-103 283.5t-36 328q0 260 78.5 474t221.5 366.5t343 236t444 83.5q240 0 435.5 -82t333.5 -232.5t213 -364t75 -476.5q0 -39 -1.5 -78t-6.5 -82h-1640
q16 -138 65.5 -246.5t128.5 -184.5t185.5 -116t236.5 -40q198 0 331 94t207 282h484zM1743 1310q-40 263 -181.5 399.5t-376.5 136.5q-120 0 -219 -36t-173.5 -105t-123.5 -168.5t-70 -226.5h1144zM575 2994h464l308 -639h-332z" />
    <glyph glyph-name="eacute" unicode="&#xe9;" horiz-adv-x="2336" 
d="M2230 739q-44 -187 -137 -335t-227 -251t-304 -158t-367 -55q-164 0 -309.5 38t-267.5 109.5t-219 174t-164 232t-103 283.5t-36 328q0 260 78.5 474t221.5 366.5t343 236t444 83.5q240 0 435.5 -82t333.5 -232.5t213 -364t75 -476.5q0 -39 -1.5 -78t-6.5 -82h-1640
q16 -138 65.5 -246.5t128.5 -184.5t185.5 -116t236.5 -40q198 0 331 94t207 282h484zM1743 1310q-40 263 -181.5 399.5t-376.5 136.5q-120 0 -219 -36t-173.5 -105t-123.5 -168.5t-70 -226.5h1144zM1790.01 2994h-463.972l-307.981 -639h331.979z" />
    <glyph glyph-name="ecircumflex" unicode="&#xea;" horiz-adv-x="2336" 
d="M2230 739q-44 -187 -137 -335t-227 -251t-304 -158t-367 -55q-164 0 -309.5 38t-267.5 109.5t-219 174t-164 232t-103 283.5t-36 328q0 260 78.5 474t221.5 366.5t343 236t444 83.5q240 0 435.5 -82t333.5 -232.5t213 -364t75 -476.5q0 -39 -1.5 -78t-6.5 -82h-1640
q16 -138 65.5 -246.5t128.5 -184.5t185.5 -116t236.5 -40q198 0 331 94t207 282h484zM1743 1310q-40 263 -181.5 399.5t-376.5 136.5q-120 0 -219 -36t-173.5 -105t-123.5 -168.5t-70 -226.5h1144zM1379 2355l-193 375l-199 -375h-310l292 639h428l292 -639h-310z" />
    <glyph glyph-name="edieresis" unicode="&#xeb;" horiz-adv-x="2336" 
d="M2230 739q-44 -187 -137 -335t-227 -251t-304 -158t-367 -55q-164 0 -309.5 38t-267.5 109.5t-219 174t-164 232t-103 283.5t-36 328q0 260 78.5 474t221.5 366.5t343 236t444 83.5q240 0 435.5 -82t333.5 -232.5t213 -364t75 -476.5q0 -39 -1.5 -78t-6.5 -82h-1640
q16 -138 65.5 -246.5t128.5 -184.5t185.5 -116t236.5 -40q198 0 331 94t207 282h484zM1743 1310q-40 263 -181.5 399.5t-376.5 136.5q-120 0 -219 -36t-173.5 -105t-123.5 -168.5t-70 -226.5h1144zM1091 2414h-451v474h451v-474zM1724 2414h-451v474h451v-474z" />
    <glyph glyph-name="igrave" unicode="&#xec;" horiz-adv-x="894" 
d="M698 0h-502v2205h502v-2205zM-160 2994h464l308 -639h-332z" />
    <glyph glyph-name="iacute" unicode="&#xed;" horiz-adv-x="894" 
d="M698 0h-502v2205h502v-2205zM1055.01 2994h-463.972l-307.981 -639h331.979z" />
    <glyph glyph-name="icircumflex" unicode="&#xee;" horiz-adv-x="894" 
d="M698 0h-502v2205h502v-2205zM643 2355l-193 375l-199 -375h-310l292 639h428l292 -639h-310z" />
    <glyph glyph-name="idieresis" unicode="&#xef;" horiz-adv-x="894" 
d="M698 0h-502v2205h502v-2205zM356 2414h-451v474h451v-474zM989 2414h-451v474h451v-474z" />
    <glyph glyph-name="eth" unicode="&#xf0;" horiz-adv-x="2388" 
d="M96 1099q0 158 28.5 299t81.5 260.5t130 215t173.5 162.5t211.5 103t245 36q147 0 274 -46.5t229.5 -133t178 -210.5t119.5 -279q-26 151 -73 286t-117.5 258t-166 234.5t-219.5 214.5l-482 -231l-116 238l356 170q-150 96 -329 187l166 290q156 -67 293.5 -139
t259.5 -152l438 210l116 -238l-312 -149q183 -151 316.5 -325t221.5 -374.5t130.5 -428.5t42.5 -488q0 -169 -35.5 -318.5t-103 -275t-164.5 -224.5t-219 -168.5t-267.5 -106t-309.5 -36.5q-247 0 -449.5 81.5t-346.5 232.5t-222.5 365.5t-78.5 479.5zM600 1067
q0 -160 41 -287t117.5 -215t187 -134.5t249.5 -46.5t249 46.5t186.5 134.5t117 215t40.5 287q0 161 -40.5 287.5t-117 214t-186.5 134t-249 46.5t-249.5 -46.5t-187.5 -134.5t-117.5 -214.5t-40.5 -286.5z" />
    <glyph glyph-name="ntilde" unicode="&#xf1;" 
d="M646 0h-502v2205h502v-650q38 169 109 301t172.5 223t231.5 138.5t284 47.5q183 0 325.5 -67.5t241 -196.5t149.5 -316.5t51 -427.5v-1257h-502v1207q0 614 -497 614q-133 0 -238 -43t-178 -125.5t-111 -202.5t-38 -275v-1175zM1758 2924q0 -266 -75 -392t-236 -126
q-51 0 -94 11t-79 27.5t-64.5 35t-50.5 34.5l-51 35q-14 9 -31 20.5t-37 21t-42.5 16t-46.5 6.5q-54 0 -79.5 -41.5t-25.5 -139.5v-8h-206v10q0 525 323 525q47 0 86 -9.5t71 -24t57.5 -30.5t44.5 -30l51 -35q15 -10 36.5 -23.5t46 -25.5t51.5 -20t54 -8q48 0 70.5 38
t22.5 132v18h204v-17z" />
    <glyph glyph-name="ograve" unicode="&#xf2;" horiz-adv-x="2388" 
d="M96 1103q0 263 79.5 477t224.5 366.5t347 235.5t447 83t447 -83t347 -235.5t224.5 -366.5t79.5 -477q0 -175 -36 -329t-103.5 -283.5t-165 -231.5t-219.5 -173t-266.5 -108.5t-307.5 -37.5t-308 37.5t-267 108.5t-219 173t-164.5 231.5t-103.5 283.5t-36 329zM600 1103
q0 -169 41 -302.5t117.5 -226t187 -141.5t249.5 -49t249 49t186.5 141.5t117 226t40.5 302.5t-40.5 302.5t-117 225.5t-186.5 141t-249 49t-249.5 -49t-187 -141.5t-117.5 -225.5t-41 -302zM587 2994h464l308 -639h-332z" />
    <glyph glyph-name="oacute" unicode="&#xf3;" horiz-adv-x="2388" 
d="M96 1103q0 263 79.5 477t224.5 366.5t347 235.5t447 83t447 -83t347 -235.5t224.5 -366.5t79.5 -477q0 -175 -36 -329t-103.5 -283.5t-165 -231.5t-219.5 -173t-266.5 -108.5t-307.5 -37.5t-308 37.5t-267 108.5t-219 173t-164.5 231.5t-103.5 283.5t-36 329zM600 1103
q0 -169 41 -302.5t117.5 -226t187 -141.5t249.5 -49t249 49t186.5 141.5t117 226t40.5 302.5t-40.5 302.5t-117 225.5t-186.5 141t-249 49t-249.5 -49t-187 -141.5t-117.5 -225.5t-41 -302zM1802.01 2994h-463.972l-307.981 -639h331.979z" />
    <glyph glyph-name="ocircumflex" unicode="&#xf4;" horiz-adv-x="2388" 
d="M96 1103q0 263 79.5 477t224.5 366.5t347 235.5t447 83t447 -83t347 -235.5t224.5 -366.5t79.5 -477q0 -175 -36 -329t-103.5 -283.5t-165 -231.5t-219.5 -173t-266.5 -108.5t-307.5 -37.5t-308 37.5t-267 108.5t-219 173t-164.5 231.5t-103.5 283.5t-36 329zM600 1103
q0 -169 41 -302.5t117.5 -226t187 -141.5t249.5 -49t249 49t186.5 141.5t117 226t40.5 302.5t-40.5 302.5t-117 225.5t-186.5 141t-249 49t-249.5 -49t-187 -141.5t-117.5 -225.5t-41 -302zM1390 2355l-193 375l-199 -375h-310l292 639h428l292 -639h-310z" />
    <glyph glyph-name="otilde" unicode="&#xf5;" horiz-adv-x="2388" 
d="M96 1103q0 263 79.5 477t224.5 366.5t347 235.5t447 83t447 -83t347 -235.5t224.5 -366.5t79.5 -477q0 -175 -36 -329t-103.5 -283.5t-165 -231.5t-219.5 -173t-266.5 -108.5t-307.5 -37.5t-308 37.5t-267 108.5t-219 173t-164.5 231.5t-103.5 283.5t-36 329zM600 1103
q0 -169 41 -302.5t117.5 -226t187 -141.5t249.5 -49t249 49t186.5 141.5t117 226t40.5 302.5t-40.5 302.5t-117 225.5t-186.5 141t-249 49t-249.5 -49t-187 -141.5t-117.5 -225.5t-41 -302zM1775 2924q0 -266 -75 -392t-236 -126q-51 0 -94 11t-79 27.5t-64.5 35t-50.5 34.5
l-51 35q-14 9 -31 20.5t-37 21t-42.5 16t-46.5 6.5q-54 0 -79.5 -41.5t-25.5 -139.5v-8h-206v10q0 525 323 525q47 0 86 -9.5t71 -24t57.5 -30.5t44.5 -30l51 -35q15 -10 36.5 -23.5t46 -25.5t51.5 -20t54 -8q48 0 70.5 38t22.5 132v18h204v-17z" />
    <glyph glyph-name="odieresis" unicode="&#xf6;" horiz-adv-x="2388" 
d="M96 1103q0 263 79.5 477t224.5 366.5t347 235.5t447 83t447 -83t347 -235.5t224.5 -366.5t79.5 -477q0 -175 -36 -329t-103.5 -283.5t-165 -231.5t-219.5 -173t-266.5 -108.5t-307.5 -37.5t-308 37.5t-267 108.5t-219 173t-164.5 231.5t-103.5 283.5t-36 329zM600 1103
q0 -169 41 -302.5t117.5 -226t187 -141.5t249.5 -49t249 49t186.5 141.5t117 226t40.5 302.5t-40.5 302.5t-117 225.5t-186.5 141t-249 49t-249.5 -49t-187 -141.5t-117.5 -225.5t-41 -302zM1103 2414h-451v474h451v-474zM1736 2414h-451v474h451v-474z" />
    <glyph glyph-name="divide" unicode="&#xf7;" horiz-adv-x="2560" 
d="M153.802 1236v420h2251.22v-420h-2251.22zM1523.22 1955h-507.614v532.814h507.614v-532.814zM1523.22 404h-507.614v532.814h507.614v-532.814z" />
    <glyph glyph-name="oslash" unicode="&#xf8;" horiz-adv-x="2388" 
d="M2006 1927q137 -152 211.5 -360t74.5 -464q0 -175 -36 -329t-103.5 -283.5t-165 -231.5t-219.5 -173t-266.5 -108.5t-307.5 -37.5q-165 0 -309 37.5t-266 108.5l-115 -146h-386l264 338q-137 152 -211.5 360.5t-74.5 464.5q0 263 79.5 477t224.5 366.5t347 235.5t447 83
q165 0 309 -37.5t267 -108.5l114 146h386zM600 1103q0 -122 21 -224.5t62 -186.5l817 1052q-65 38 -141 57.5t-164 19.5q-139 0 -249.5 -49t-187 -141.5t-117.5 -225.5t-41 -302zM890 462q64 -38 140 -58t165 -20q139 0 249 49t186.5 141.5t117 226t40.5 302.5
q0 121 -21 223.5t-61 186.5z" />
    <glyph glyph-name="ugrave" unicode="&#xf9;" 
d="M1698 2205h502v-2205h-502v650q-37 -169 -108.5 -301t-173 -223t-231.5 -138.5t-284 -47.5q-183 0 -325.5 67.5t-241 196.5t-149.5 316.5t-51 427.5v1257h502v-1207q0 -614 497 -614q134 0 239 43t177.5 125.5t110.5 203t38 274.5v1175zM560 2994h464l308 -639h-332z" />
    <glyph glyph-name="uacute" unicode="&#xfa;" 
d="M1698 2205h502v-2205h-502v650q-37 -169 -108.5 -301t-173 -223t-231.5 -138.5t-284 -47.5q-183 0 -325.5 67.5t-241 196.5t-149.5 316.5t-51 427.5v1257h502v-1207q0 -614 497 -614q134 0 239 43t177.5 125.5t110.5 203t38 274.5v1175zM1775.01 2994h-463.972
l-307.981 -639h331.979z" />
    <glyph glyph-name="ucircumflex" unicode="&#xfb;" 
d="M1698 2205h502v-2205h-502v650q-37 -169 -108.5 -301t-173 -223t-231.5 -138.5t-284 -47.5q-183 0 -325.5 67.5t-241 196.5t-149.5 316.5t-51 427.5v1257h502v-1207q0 -614 497 -614q134 0 239 43t177.5 125.5t110.5 203t38 274.5v1175zM1363 2355l-193 375l-199 -375
h-310l292 639h428l292 -639h-310z" />
    <glyph glyph-name="udieresis" unicode="&#xfc;" 
d="M1698 2205h502v-2205h-502v650q-37 -169 -108.5 -301t-173 -223t-231.5 -138.5t-284 -47.5q-183 0 -325.5 67.5t-241 196.5t-149.5 316.5t-51 427.5v1257h502v-1207q0 -614 497 -614q134 0 239 43t177.5 125.5t110.5 203t38 274.5v1175zM1076 2414h-451v474h451v-474z
M1709 2414h-451v474h451v-474z" />
    <glyph glyph-name="yacute" unicode="&#xfd;" horiz-adv-x="2333" 
d="M2295 2205l-878 -2306q-70 -186 -164.5 -321.5t-217.5 -223t-276.5 -130t-341.5 -42.5q-62 0 -124.5 5t-125.5 15v419q61 -8 112.5 -12t98.5 -4q98 0 177 17.5t142 54.5t110.5 95t82.5 138l5 15l-855 2280h525l604 -1790l613 1790h513zM1774.01 2946h-463.972
l-307.981 -639h331.979z" />
    <glyph glyph-name="thorn" unicode="&#xfe;" horiz-adv-x="2434" 
d="M646 1531q40 172 112 308t171.5 230.5t225 145t272.5 50.5q133 0 252.5 -39t220.5 -111t182 -175.5t138 -232.5t87.5 -281.5t30.5 -322.5t-30.5 -322.5t-87.5 -281.5t-138 -232.5t-182 -176t-220.5 -111.5t-252.5 -39q-147 0 -272.5 50.5t-225 145t-171.5 230.5t-112 308
v-1430h-502v3716h502v-1429zM646 1103q0 -172 40.5 -307t118 -228.5t189 -142.5t252.5 -49q144 0 253.5 47t184 139t112.5 227.5t38 313.5t-38 313.5t-112.5 227t-184 138.5t-253.5 47q-142 0 -253.5 -49t-188.5 -142t-117.5 -228t-40.5 -307z" />
    <glyph glyph-name="ydieresis" unicode="&#xff;" horiz-adv-x="2333" 
d="M2295 2205l-878 -2306q-70 -186 -164.5 -321.5t-217.5 -223t-276.5 -130t-341.5 -42.5q-62 0 -124.5 5t-125.5 15v419q61 -8 112.5 -12t98.5 -4q98 0 177 17.5t142 54.5t110.5 95t82.5 138l5 15l-855 2280h525l604 -1790l613 1790h513zM1075 2366h-451v474h451v-474z
M1708 2366h-451v474h451v-474z" />
    <glyph glyph-name="Amacron" unicode="&#x100;" horiz-adv-x="2834" 
d="M19 0l1026 2860h758l1012 -2860h-560l-225 673h-1234l-229 -673h-548zM1880 1121l-463 1382l-469 -1382h932zM1953 3123h-1072v308h1072v-308z" />
    <glyph glyph-name="amacron" unicode="&#x101;" horiz-adv-x="2374" 
d="M149 1417q0 195 72 352t205.5 267.5t325 169.5t429.5 59q249 0 445.5 -65t333 -188t208.5 -301t72 -403v-1308h-502v578q-39 -148 -117.5 -266.5t-191.5 -201t-256.5 -126.5t-311.5 -44q-175 0 -318.5 47.5t-245.5 133.5t-157.5 207.5t-55.5 269.5q0 154 61 276
t175.5 207t279.5 130.5t372 45.5h766v51q0 125 -39 224.5t-112.5 169.5t-178.5 107t-237 37q-134 0 -232.5 -30.5t-162.5 -86.5t-95 -135t-31 -177h-501zM1001 905q-206 0 -311.5 -69t-105.5 -204q0 -142 115.5 -217.5t333.5 -75.5q154 0 283.5 37.5t223 104.5t146 159.5
t52.5 201.5v63h-737zM1717 2468h-1072v308h1072v-308z" />
    <glyph glyph-name="Abreve" unicode="&#x102;" horiz-adv-x="2834" 
d="M19 0l1026 2860h758l1012 -2860h-560l-225 673h-1234l-229 -673h-548zM1880 1121l-463 1382l-469 -1382h932zM1171 3623q0 -152 63.5 -236t181.5 -84t181.5 84t63.5 236h271q0 -148 -33 -262t-98 -192t-161.5 -118.5t-223.5 -40.5t-223.5 40.5t-161.5 118.5t-98 192
t-33 262h271z" />
    <glyph glyph-name="abreve" unicode="&#x103;" horiz-adv-x="2374" 
d="M149 1417q0 195 72 352t205.5 267.5t325 169.5t429.5 59q249 0 445.5 -65t333 -188t208.5 -301t72 -403v-1308h-502v578q-39 -148 -117.5 -266.5t-191.5 -201t-256.5 -126.5t-311.5 -44q-175 0 -318.5 47.5t-245.5 133.5t-157.5 207.5t-55.5 269.5q0 154 61 276
t175.5 207t279.5 130.5t372 45.5h766v51q0 125 -39 224.5t-112.5 169.5t-178.5 107t-237 37q-134 0 -232.5 -30.5t-162.5 -86.5t-95 -135t-31 -177h-501zM1001 905q-206 0 -311.5 -69t-105.5 -204q0 -142 115.5 -217.5t333.5 -75.5q154 0 283.5 37.5t223 104.5t146 159.5
t52.5 201.5v63h-737zM935 2968q0 -152 63.5 -236t181.5 -84t181.5 84t63.5 236h271q0 -148 -33 -262t-98 -192t-161.5 -118.5t-223.5 -40.5t-223.5 40.5t-161.5 118.5t-98 192t-33 262h271z" />
    <glyph glyph-name="Aogonek" unicode="&#x104;" horiz-adv-x="2834" 
d="M19 0l1026 2860h758l1012 -2860h-560l-225 673h-1234l-229 -673h-548zM1880 1121l-463 1382l-469 -1382h932zM2813 0q-81 0 -161.5 -23t-144 -60t-103 -83.5t-39.5 -92.5q0 -63 74 -97.5t207 -34.5q41 0 84 3.5t90 10.5v-314q-56 -8 -111.5 -11.5t-103.5 -3.5
q-112 0 -205 23.5t-159 66.5t-102.5 103t-36.5 134q0 88 52.5 164t145 132t219.5 88.5t276 34.5z" />
    <glyph glyph-name="aogonek" unicode="&#x105;" horiz-adv-x="2374" 
d="M149 1417q0 195 72 352t205.5 267.5t325 169.5t429.5 59q249 0 445.5 -65t333 -188t208.5 -301t72 -403v-1308h-502v578q-39 -148 -117.5 -266.5t-191.5 -201t-256.5 -126.5t-311.5 -44q-175 0 -318.5 47.5t-245.5 133.5t-157.5 207.5t-55.5 269.5q0 154 61 276
t175.5 207t279.5 130.5t372 45.5h766v51q0 125 -39 224.5t-112.5 169.5t-178.5 107t-237 37q-134 0 -232.5 -30.5t-162.5 -86.5t-95 -135t-31 -177h-501zM1001 905q-206 0 -311.5 -69t-105.5 -204q0 -142 115.5 -217.5t333.5 -75.5q154 0 283.5 37.5t223 104.5t146 159.5
t52.5 201.5v63h-737zM2238 0q-81 0 -161.5 -23t-144 -60t-103 -83.5t-39.5 -92.5q0 -63 74 -97.5t207 -34.5q41 0 84 3.5t90 10.5v-314q-56 -8 -111.5 -11.5t-103.5 -3.5q-112 0 -205 23.5t-159 66.5t-102.5 103t-36.5 134q0 88 52.5 164t145 132t219.5 88.5t276 34.5z" />
    <glyph glyph-name="Cacute" unicode="&#x106;" horiz-adv-x="2938" 
d="M652 1430q0 -243 57 -433.5t165 -322t264.5 -200t355.5 -68.5q321 0 517 182t262 542h524q-43 -278 -153.5 -498.5t-278.5 -374.5t-388.5 -235.5t-483.5 -81.5q-202 0 -382 48.5t-332.5 139.5t-273.5 222.5t-206 297t-130 362.5t-45 420t45 420t130 362.5t206 297
t273.5 222.5t332.5 139.5t382 48.5q263 0 483.5 -81.5t388.5 -235.5t278.5 -374.5t153.5 -498.5h-524q-66 360 -262 542t-517 182q-199 0 -355.5 -68.5t-264.5 -200t-165 -322t-57 -433.5zM2100.01 3649h-463.972l-307.981 -639h331.979z" />
    <glyph glyph-name="cacute" unicode="&#x107;" horiz-adv-x="2329" 
d="M600 1103q0 -169 41 -302.5t117.5 -226t187 -141.5t249.5 -49q120 0 211.5 35.5t157.5 98.5t107.5 148.5t60.5 184.5h501q-17 -131 -59.5 -249t-108.5 -219.5t-155 -183t-199 -139.5t-239.5 -89t-277.5 -31q-163 0 -307.5 37.5t-266.5 108.5t-219.5 173t-165 231.5
t-103.5 283.5t-36 329q0 263 79.5 477t224.5 366.5t347 235.5t447 83q222 0 402.5 -68.5t313.5 -190.5t215.5 -288.5t107.5 -363.5h-501q-18 99 -59.5 184.5t-107.5 148.5t-158 98.5t-212 35.5q-139 0 -249.5 -49t-187 -141.5t-117.5 -225.5t-41 -302zM1802.01 2997
h-463.972l-307.981 -639h331.979z" />
    <glyph glyph-name="Ccircumflex" unicode="&#x108;" horiz-adv-x="2938" 
d="M652 1430q0 -243 57 -433.5t165 -322t264.5 -200t355.5 -68.5q321 0 517 182t262 542h524q-43 -278 -153.5 -498.5t-278.5 -374.5t-388.5 -235.5t-483.5 -81.5q-202 0 -382 48.5t-332.5 139.5t-273.5 222.5t-206 297t-130 362.5t-45 420t45 420t130 362.5t206 297
t273.5 222.5t332.5 139.5t382 48.5q263 0 483.5 -81.5t388.5 -235.5t278.5 -374.5t153.5 -498.5h-524q-66 360 -262 542t-517 182q-199 0 -355.5 -68.5t-264.5 -200t-165 -322t-57 -433.5zM1688 3010l-193 375l-199 -375h-310l292 639h428l292 -639h-310z" />
    <glyph glyph-name="ccircumflex" unicode="&#x109;" horiz-adv-x="2329" 
d="M600 1103q0 -169 41 -302.5t117.5 -226t187 -141.5t249.5 -49q120 0 211.5 35.5t157.5 98.5t107.5 148.5t60.5 184.5h501q-17 -131 -59.5 -249t-108.5 -219.5t-155 -183t-199 -139.5t-239.5 -89t-277.5 -31q-163 0 -307.5 37.5t-266.5 108.5t-219.5 173t-165 231.5
t-103.5 283.5t-36 329q0 263 79.5 477t224.5 366.5t347 235.5t447 83q222 0 402.5 -68.5t313.5 -190.5t215.5 -288.5t107.5 -363.5h-501q-18 99 -59.5 184.5t-107.5 148.5t-158 98.5t-212 35.5q-139 0 -249.5 -49t-187 -141.5t-117.5 -225.5t-41 -302zM1390 2358l-193 375
l-199 -375h-310l292 639h428l292 -639h-310z" />
    <glyph glyph-name="Cdotaccent" unicode="&#x10a;" horiz-adv-x="2938" 
d="M652 1430q0 -243 57 -433.5t165 -322t264.5 -200t355.5 -68.5q321 0 517 182t262 542h524q-43 -278 -153.5 -498.5t-278.5 -374.5t-388.5 -235.5t-483.5 -81.5q-202 0 -382 48.5t-332.5 139.5t-273.5 222.5t-206 297t-130 362.5t-45 420t45 420t130 362.5t206 297
t273.5 222.5t332.5 139.5t382 48.5q263 0 483.5 -81.5t388.5 -235.5t278.5 -374.5t153.5 -498.5h-524q-66 360 -262 542t-517 182q-199 0 -355.5 -68.5t-264.5 -200t-165 -322t-57 -433.5zM1717 3069h-451v474h451v-474z" />
    <glyph glyph-name="cdotaccent" unicode="&#x10b;" horiz-adv-x="2329" 
d="M600 1103q0 -169 41 -302.5t117.5 -226t187 -141.5t249.5 -49q120 0 211.5 35.5t157.5 98.5t107.5 148.5t60.5 184.5h501q-17 -131 -59.5 -249t-108.5 -219.5t-155 -183t-199 -139.5t-239.5 -89t-277.5 -31q-163 0 -307.5 37.5t-266.5 108.5t-219.5 173t-165 231.5
t-103.5 283.5t-36 329q0 263 79.5 477t224.5 366.5t347 235.5t447 83q222 0 402.5 -68.5t313.5 -190.5t215.5 -288.5t107.5 -363.5h-501q-18 99 -59.5 184.5t-107.5 148.5t-158 98.5t-212 35.5q-139 0 -249.5 -49t-187 -141.5t-117.5 -225.5t-41 -302zM1419 2417h-451v474
h451v-474z" />
    <glyph glyph-name="Ccaron" unicode="&#x10c;" horiz-adv-x="2938" 
d="M652 1430q0 -243 57 -433.5t165 -322t264.5 -200t355.5 -68.5q321 0 517 182t262 542h524q-43 -278 -153.5 -498.5t-278.5 -374.5t-388.5 -235.5t-483.5 -81.5q-202 0 -382 48.5t-332.5 139.5t-273.5 222.5t-206 297t-130 362.5t-45 420t45 420t130 362.5t206 297
t273.5 222.5t332.5 139.5t382 48.5q263 0 483.5 -81.5t388.5 -235.5t278.5 -374.5t153.5 -498.5h-524q-66 360 -262 542t-517 182q-199 0 -355.5 -68.5t-264.5 -200t-165 -322t-57 -433.5zM1708 3010h-428l-292 639h310l199 -375l193 375h310z" />
    <glyph glyph-name="ccaron" unicode="&#x10d;" horiz-adv-x="2329" 
d="M600 1103q0 -169 41 -302.5t117.5 -226t187 -141.5t249.5 -49q120 0 211.5 35.5t157.5 98.5t107.5 148.5t60.5 184.5h501q-17 -131 -59.5 -249t-108.5 -219.5t-155 -183t-199 -139.5t-239.5 -89t-277.5 -31q-163 0 -307.5 37.5t-266.5 108.5t-219.5 173t-165 231.5
t-103.5 283.5t-36 329q0 263 79.5 477t224.5 366.5t347 235.5t447 83q222 0 402.5 -68.5t313.5 -190.5t215.5 -288.5t107.5 -363.5h-501q-18 99 -59.5 184.5t-107.5 148.5t-158 98.5t-212 35.5q-139 0 -249.5 -49t-187 -141.5t-117.5 -225.5t-41 -302zM1409 2358h-428
l-292 639h310l199 -375l193 375h310z" />
    <glyph glyph-name="Dcaron" unicode="&#x10e;" horiz-adv-x="2728" 
d="M154 2860h992q218 0 411 -46t355 -133t290.5 -212.5t217.5 -284.5t136.5 -348.5t47.5 -405.5t-47.5 -405.5t-136.5 -348.5t-217.5 -284.5t-290.5 -212.5t-355 -133t-411 -46h-992v2860zM1139 466q221 0 395 65t294.5 188.5t184 302.5t63.5 408t-63.5 408t-184 302.5
t-294.5 188.5t-395 65h-467v-1928h467zM1360 3010h-428l-292 639h310l199 -375l193 375h310z" />
    <glyph glyph-name="dcaron" unicode="&#x10f;" horiz-adv-x="2434" 
d="M2290 2960v-2960h-502v674q-40 -172 -112 -308t-171.5 -230.5t-225 -145t-271.5 -50.5q-133 0 -252.5 39t-221 111.5t-182.5 176t-138 232.5t-87.5 281.5t-30.5 322.5t30.5 322.5t87.5 281.5t138 232.5t182.5 175.5t221 111t252.5 39q146 0 271.5 -50.5t225 -145
t171.5 -230.5t112 -308v1429h502zM1788 1103q0 172 -40.5 307t-117.5 228t-188.5 142t-253.5 49q-144 0 -253.5 -47t-184 -138.5t-112.5 -227t-38 -313.5t38 -313.5t112.5 -227.5t184 -139t253.5 -47q141 0 252.5 49t189 142.5t118 228.5t40.5 307zM2767 2009h-343l79 951
h432z" />
    <glyph glyph-name="Dcroat" unicode="&#x110;" horiz-adv-x="2728" 
d="M154 2860h992q218 0 411 -46t355 -133t290.5 -212.5t217.5 -284.5t136.5 -348.5t47.5 -405.5t-47.5 -405.5t-136.5 -348.5t-217.5 -284.5t-290.5 -212.5t-355 -133t-411 -46h-992v2860zM1139 466q221 0 395 65t294.5 188.5t184 302.5t63.5 408t-63.5 408t-184 302.5
t-294.5 188.5t-395 65h-467v-1928h467zM1382 1253h-1520v374h1520v-374z" />
    <glyph glyph-name="dcroat" unicode="&#x111;" horiz-adv-x="2434" 
d="M2290 2960v-2960h-502v674q-40 -172 -112 -308t-171.5 -230.5t-225 -145t-271.5 -50.5q-133 0 -252.5 39t-221 111.5t-182.5 176t-138 232.5t-87.5 281.5t-30.5 322.5t30.5 322.5t87.5 281.5t138 232.5t182.5 175.5t221 111t252.5 39q146 0 271.5 -50.5t225 -145
t171.5 -230.5t112 -308v1429h502zM1788 1103q0 172 -40.5 307t-117.5 228t-188.5 142t-253.5 49q-144 0 -253.5 -47t-184 -138.5t-112.5 -227t-38 -313.5t38 -313.5t112.5 -227.5t184 -139t253.5 -47q141 0 252.5 49t189 142.5t118 228.5t40.5 307zM2534 2363h-1395v340
h1395v-340z" />
    <glyph glyph-name="Emacron" unicode="&#x112;" horiz-adv-x="2223" 
d="M2108 2860v-464h-1428v-744h1310v-450h-1310v-738h1466v-464h-1992v2860h1954zM1674 3123h-1072v308h1072v-308z" />
    <glyph glyph-name="emacron" unicode="&#x113;" horiz-adv-x="2336" 
d="M2230 739q-44 -187 -137 -335t-227 -251t-304 -158t-367 -55q-164 0 -309.5 38t-267.5 109.5t-219 174t-164 232t-103 283.5t-36 328q0 260 78.5 474t221.5 366.5t343 236t444 83.5q240 0 435.5 -82t333.5 -232.5t213 -364t75 -476.5q0 -39 -1.5 -78t-6.5 -82h-1640
q16 -138 65.5 -246.5t128.5 -184.5t185.5 -116t236.5 -40q198 0 331 94t207 282h484zM1743 1310q-40 263 -181.5 399.5t-376.5 136.5q-120 0 -219 -36t-173.5 -105t-123.5 -168.5t-70 -226.5h1144zM1719 2468h-1072v308h1072v-308z" />
    <glyph glyph-name="Ebreve" unicode="&#x114;" horiz-adv-x="2223" 
d="M2108 2860v-464h-1428v-744h1310v-450h-1310v-738h1466v-464h-1992v2860h1954zM892 3623q0 -152 63.5 -236t181.5 -84t181.5 84t63.5 236h271q0 -148 -33 -262t-98 -192t-161.5 -118.5t-223.5 -40.5t-223.5 40.5t-161.5 118.5t-98 192t-33 262h271z" />
    <glyph glyph-name="ebreve" unicode="&#x115;" horiz-adv-x="2336" 
d="M2230 739q-44 -187 -137 -335t-227 -251t-304 -158t-367 -55q-164 0 -309.5 38t-267.5 109.5t-219 174t-164 232t-103 283.5t-36 328q0 260 78.5 474t221.5 366.5t343 236t444 83.5q240 0 435.5 -82t333.5 -232.5t213 -364t75 -476.5q0 -39 -1.5 -78t-6.5 -82h-1640
q16 -138 65.5 -246.5t128.5 -184.5t185.5 -116t236.5 -40q198 0 331 94t207 282h484zM1743 1310q-40 263 -181.5 399.5t-376.5 136.5q-120 0 -219 -36t-173.5 -105t-123.5 -168.5t-70 -226.5h1144zM937 2968q0 -152 63.5 -236t181.5 -84t181.5 84t63.5 236h271
q0 -148 -33 -262t-98 -192t-161.5 -118.5t-223.5 -40.5t-223.5 40.5t-161.5 118.5t-98 192t-33 262h271z" />
    <glyph glyph-name="Edotaccent" unicode="&#x116;" horiz-adv-x="2223" 
d="M2108 2860v-464h-1428v-744h1310v-450h-1310v-738h1466v-464h-1992v2860h1954zM1363 3069h-451v474h451v-474z" />
    <glyph glyph-name="edotaccent" unicode="&#x117;" horiz-adv-x="2336" 
d="M2230 739q-44 -187 -137 -335t-227 -251t-304 -158t-367 -55q-164 0 -309.5 38t-267.5 109.5t-219 174t-164 232t-103 283.5t-36 328q0 260 78.5 474t221.5 366.5t343 236t444 83.5q240 0 435.5 -82t333.5 -232.5t213 -364t75 -476.5q0 -39 -1.5 -78t-6.5 -82h-1640
q16 -138 65.5 -246.5t128.5 -184.5t185.5 -116t236.5 -40q198 0 331 94t207 282h484zM1743 1310q-40 263 -181.5 399.5t-376.5 136.5q-120 0 -219 -36t-173.5 -105t-123.5 -168.5t-70 -226.5h1144zM1407 2414h-451v474h451v-474z" />
    <glyph glyph-name="Eogonek" unicode="&#x118;" horiz-adv-x="2223" 
d="M2108 2860v-464h-1428v-744h1310v-450h-1310v-738h1466v-464h-1992v2860h1954zM2144 0q-81 0 -161.5 -23t-144 -60t-103 -83.5t-39.5 -92.5q0 -63 74 -97.5t207 -34.5q41 0 84 3.5t90 10.5v-314q-56 -8 -111.5 -11.5t-103.5 -3.5q-112 0 -205 23.5t-159 66.5t-102.5 103
t-36.5 134q0 88 52.5 164t145 132t219.5 88.5t276 34.5z" />
    <glyph glyph-name="eogonek" unicode="&#x119;" horiz-adv-x="2336" 
d="M2230 739q-44 -187 -137 -335t-227 -251t-304 -158t-367 -55q-164 0 -309.5 38t-267.5 109.5t-219 174t-164 232t-103 283.5t-36 328q0 260 78.5 474t221.5 366.5t343 236t444 83.5q240 0 435.5 -82t333.5 -232.5t213 -364t75 -476.5q0 -39 -1.5 -78t-6.5 -82h-1640
q16 -138 65.5 -246.5t128.5 -184.5t185.5 -116t236.5 -40q198 0 331 94t207 282h484zM1743 1310q-40 263 -181.5 399.5t-376.5 136.5q-120 0 -219 -36t-173.5 -105t-123.5 -168.5t-70 -226.5h1144zM1855 160q-67 -45 -122.5 -97.5t-95 -107t-61.5 -108t-22 -101.5
q0 -90 76 -132.5t228 -42.5q44 0 91 3.5t99 10.5v-314q-59 -8 -117 -11.5t-107 -3.5q-123 0 -221.5 25.5t-168 72.5t-107 114.5t-37.5 151.5q0 81 37 158.5t106.5 150t169.5 141.5t226 133z" />
    <glyph glyph-name="Ecaron" unicode="&#x11a;" horiz-adv-x="2223" 
d="M2108 2860v-464h-1428v-744h1310v-450h-1310v-738h1466v-464h-1992v2860h1954zM1353 3010h-428l-292 639h310l199 -375l193 375h310z" />
    <glyph glyph-name="ecaron" unicode="&#x11b;" horiz-adv-x="2336" 
d="M2230 739q-44 -187 -137 -335t-227 -251t-304 -158t-367 -55q-164 0 -309.5 38t-267.5 109.5t-219 174t-164 232t-103 283.5t-36 328q0 260 78.5 474t221.5 366.5t343 236t444 83.5q240 0 435.5 -82t333.5 -232.5t213 -364t75 -476.5q0 -39 -1.5 -78t-6.5 -82h-1640
q16 -138 65.5 -246.5t128.5 -184.5t185.5 -116t236.5 -40q198 0 331 94t207 282h484zM1743 1310q-40 263 -181.5 399.5t-376.5 136.5q-120 0 -219 -36t-173.5 -105t-123.5 -168.5t-70 -226.5h1144zM1398 2355h-428l-292 639h310l199 -375l193 375h310z" />
    <glyph glyph-name="Gcircumflex" unicode="&#x11c;" horiz-adv-x="2985" 
d="M652 1430q0 -245 54.5 -437t159.5 -324t257.5 -201.5t347.5 -69.5q180 0 334 54t268 151t181.5 230.5t75.5 292.5h-893v404h1394v-1530h-496v759q-54 -187 -151.5 -338t-230 -258t-296.5 -165t-352 -58q-172 0 -326.5 49.5t-285.5 142t-236.5 225t-179.5 298t-113.5 361
t-39.5 414.5q0 223 45 420t130 362.5t206 297t273 222.5t332 139.5t382 48.5q250 0 468 -74.5t389 -213.5t287 -337t162 -445h-524q-34 147 -104.5 259.5t-171 189t-228 116t-277.5 39.5q-198 0 -354.5 -68.5t-264.5 -200t-165 -322t-57 -433.5zM1688 3010l-193 375
l-199 -375h-310l292 639h428l292 -639h-310z" />
    <glyph glyph-name="gcircumflex" unicode="&#x11d;" horiz-adv-x="2434" 
d="M2290 2205v-1857q0 -264 -76.5 -479t-218 -368t-341 -236t-445.5 -83q-145 0 -276.5 28.5t-244 82t-203 129t-154 169.5t-98 204t-34.5 233h501q0 -95 39 -175t107 -139t160.5 -92t199.5 -33q134 0 241.5 53.5t183.5 152t116.5 238.5t40.5 313v420q-40 -163 -112.5 -292
t-173 -219t-227.5 -137.5t-276 -47.5q-131 0 -249 37t-218.5 105.5t-181 166.5t-137 220.5t-87 267t-30.5 305.5t30.5 305t87 265t137 218t181 165t218.5 104t249 36q149 0 276 -47t227.5 -135.5t173 -216t112.5 -289.5v628h502zM1788 1172q0 157 -40.5 279.5t-118.5 206.5
t-191 127.5t-258 43.5q-281 0 -430.5 -166t-149.5 -491q0 -163 38 -287.5t111.5 -208.5t181.5 -127t249 -43q144 0 257 45t191 130.5t119 209.5t41 281zM1447 2355l-193 375l-199 -375h-310l292 639h428l292 -639h-310z" />
    <glyph glyph-name="Gbreve" unicode="&#x11e;" horiz-adv-x="2985" 
d="M652 1430q0 -245 54.5 -437t159.5 -324t257.5 -201.5t347.5 -69.5q180 0 334 54t268 151t181.5 230.5t75.5 292.5h-893v404h1394v-1530h-496v759q-54 -187 -151.5 -338t-230 -258t-296.5 -165t-352 -58q-172 0 -326.5 49.5t-285.5 142t-236.5 225t-179.5 298t-113.5 361
t-39.5 414.5q0 223 45 420t130 362.5t206 297t273 222.5t332 139.5t382 48.5q250 0 468 -74.5t389 -213.5t287 -337t162 -445h-524q-34 147 -104.5 259.5t-171 189t-228 116t-277.5 39.5q-198 0 -354.5 -68.5t-264.5 -200t-165 -322t-57 -433.5zM1247 3623q0 -152 63.5 -236
t181.5 -84t181.5 84t63.5 236h271q0 -148 -33 -262t-98 -192t-161.5 -118.5t-223.5 -40.5t-223.5 40.5t-161.5 118.5t-98 192t-33 262h271z" />
    <glyph glyph-name="gbreve" unicode="&#x11f;" horiz-adv-x="2434" 
d="M2290 2205v-1857q0 -264 -76.5 -479t-218 -368t-341 -236t-445.5 -83q-145 0 -276.5 28.5t-244 82t-203 129t-154 169.5t-98 204t-34.5 233h501q0 -95 39 -175t107 -139t160.5 -92t199.5 -33q134 0 241.5 53.5t183.5 152t116.5 238.5t40.5 313v420q-40 -163 -112.5 -292
t-173 -219t-227.5 -137.5t-276 -47.5q-131 0 -249 37t-218.5 105.5t-181 166.5t-137 220.5t-87 267t-30.5 305.5t30.5 305t87 265t137 218t181 165t218.5 104t249 36q149 0 276 -47t227.5 -135.5t173 -216t112.5 -289.5v628h502zM1788 1172q0 157 -40.5 279.5t-118.5 206.5
t-191 127.5t-258 43.5q-281 0 -430.5 -166t-149.5 -491q0 -163 38 -287.5t111.5 -208.5t181.5 -127t249 -43q144 0 257 45t191 130.5t119 209.5t41 281zM1005 2968q0 -152 63.5 -236t181.5 -84t181.5 84t63.5 236h271q0 -148 -33 -262t-98 -192t-161.5 -118.5t-223.5 -40.5
t-223.5 40.5t-161.5 118.5t-98 192t-33 262h271z" />
    <glyph glyph-name="Gdotaccent" unicode="&#x120;" horiz-adv-x="2985" 
d="M652 1430q0 -245 54.5 -437t159.5 -324t257.5 -201.5t347.5 -69.5q180 0 334 54t268 151t181.5 230.5t75.5 292.5h-893v404h1394v-1530h-496v759q-54 -187 -151.5 -338t-230 -258t-296.5 -165t-352 -58q-172 0 -326.5 49.5t-285.5 142t-236.5 225t-179.5 298t-113.5 361
t-39.5 414.5q0 223 45 420t130 362.5t206 297t273 222.5t332 139.5t382 48.5q250 0 468 -74.5t389 -213.5t287 -337t162 -445h-524q-34 147 -104.5 259.5t-171 189t-228 116t-277.5 39.5q-198 0 -354.5 -68.5t-264.5 -200t-165 -322t-57 -433.5zM1717 3069h-451v474h451
v-474z" />
    <glyph glyph-name="gdotaccent" unicode="&#x121;" horiz-adv-x="2434" 
d="M2290 2205v-1857q0 -264 -76.5 -479t-218 -368t-341 -236t-445.5 -83q-145 0 -276.5 28.5t-244 82t-203 129t-154 169.5t-98 204t-34.5 233h501q0 -95 39 -175t107 -139t160.5 -92t199.5 -33q134 0 241.5 53.5t183.5 152t116.5 238.5t40.5 313v420q-40 -163 -112.5 -292
t-173 -219t-227.5 -137.5t-276 -47.5q-131 0 -249 37t-218.5 105.5t-181 166.5t-137 220.5t-87 267t-30.5 305.5t30.5 305t87 265t137 218t181 165t218.5 104t249 36q149 0 276 -47t227.5 -135.5t173 -216t112.5 -289.5v628h502zM1788 1172q0 157 -40.5 279.5t-118.5 206.5
t-191 127.5t-258 43.5q-281 0 -430.5 -166t-149.5 -491q0 -163 38 -287.5t111.5 -208.5t181.5 -127t249 -43q144 0 257 45t191 130.5t119 209.5t41 281zM1475 2414h-451v474h451v-474z" />
    <glyph glyph-name="uni0122" unicode="&#x122;" horiz-adv-x="2985" 
d="M652 1430q0 -245 54.5 -437t159.5 -324t257.5 -201.5t347.5 -69.5q180 0 334 54t268 151t181.5 230.5t75.5 292.5h-893v404h1394v-1530h-496v759q-54 -187 -151.5 -338t-230 -258t-296.5 -165t-352 -58q-172 0 -326.5 49.5t-285.5 142t-236.5 225t-179.5 298t-113.5 361
t-39.5 414.5q0 223 45 420t130 362.5t206 297t273 222.5t332 139.5t382 48.5q250 0 468 -74.5t389 -213.5t287 -337t162 -445h-524q-34 147 -104.5 259.5t-171 189t-228 116t-277.5 39.5q-198 0 -354.5 -68.5t-264.5 -200t-165 -322t-57 -433.5zM1393 -788h-312l86 638h452z
" />
    <glyph glyph-name="uni0123" unicode="&#x123;" horiz-adv-x="2434" 
d="M2290 2205v-1857q0 -264 -76.5 -479t-218 -368t-341 -236t-445.5 -83q-145 0 -276.5 28.5t-244 82t-203 129t-154 169.5t-98 204t-34.5 233h501q0 -95 39 -175t107 -139t160.5 -92t199.5 -33q134 0 241.5 53.5t183.5 152t116.5 238.5t40.5 313v420q-40 -163 -112.5 -292
t-173 -219t-227.5 -137.5t-276 -47.5q-131 0 -249 37t-218.5 105.5t-181 166.5t-137 220.5t-87 267t-30.5 305.5t30.5 305t87 265t137 218t181 165t218.5 104t249 36q149 0 276 -47t227.5 -135.5t173 -216t112.5 -289.5v628h502zM1788 1172q0 157 -40.5 279.5t-118.5 206.5
t-191 127.5t-258 43.5q-281 0 -430.5 -166t-149.5 -491q0 -163 38 -287.5t111.5 -208.5t181.5 -127t249 -43q144 0 257 45t191 130.5t119 209.5t41 281zM1249 3074h312l-86 -638h-452z" />
    <glyph glyph-name="Hcircumflex" unicode="&#x124;" horiz-adv-x="2728" 
d="M2574 0h-526v1194h-1368v-1194h-526v2860h526v-1200h1368v1200h526v-2860zM1560 3010l-193 375l-199 -375h-310l292 639h428l292 -639h-310z" />
    <glyph glyph-name="hcircumflex" unicode="&#x125;" 
d="M646 0h-502v2960h502v-1405q38 169 109 301t172.5 223t231.5 138.5t284 47.5q183 0 325.5 -67.5t241 -196.5t149.5 -316.5t51 -427.5v-1257h-502v1207q0 614 -497 614q-133 0 -238 -43t-178 -125.5t-111 -202.5t-38 -275v-1175zM590 3110l-193 375l-199 -375h-310
l292 639h428l292 -639h-310z" />
    <glyph glyph-name="Hbar" unicode="&#x126;" horiz-adv-x="2728" 
d="M2574 0h-526v1194h-1368v-1194h-526v2860h526v-1200h1368v1200h526v-2860zM2812 2120h-2896v356h2896v-356z" />
    <glyph glyph-name="hbar" unicode="&#x127;" 
d="M646 0h-502v2960h502v-1405q38 169 109 301t172.5 223t231.5 138.5t284 47.5q183 0 325.5 -67.5t241 -196.5t149.5 -316.5t51 -427.5v-1257h-502v1207q0 614 -497 614q-133 0 -238 -43t-178 -125.5t-111 -202.5t-38 -275v-1175zM1297 2363h-1395v340h1395v-340z" />
    <glyph glyph-name="Itilde" unicode="&#x128;" horiz-adv-x="835" 
d="M680 0h-526v2860h526v-2860zM998 3579q0 -266 -75 -392t-236 -126q-51 0 -94 11t-79 27.5t-64.5 35t-50.5 34.5l-51 35q-14 9 -31 20.5t-37 21t-42.5 16t-46.5 6.5q-54 0 -79.5 -41.5t-25.5 -139.5v-8h-206v10q0 525 323 525q47 0 86 -9.5t71 -24t57.5 -30.5t44.5 -30
l51 -35q15 -10 36.5 -23.5t46 -25.5t51.5 -20t54 -8q48 0 70.5 38t22.5 132v18h204v-17z" />
    <glyph glyph-name="itilde" unicode="&#x129;" horiz-adv-x="894" 
d="M698 0h-502v2205h502v-2205zM1028 2924q0 -266 -75 -392t-236 -126q-51 0 -94 11t-79 27.5t-64.5 35t-50.5 34.5l-51 35q-14 9 -31 20.5t-37 21t-42.5 16t-46.5 6.5q-54 0 -79.5 -41.5t-25.5 -139.5v-8h-206v10q0 525 323 525q47 0 86 -9.5t71 -24t57.5 -30.5t44.5 -30
l51 -35q15 -10 36.5 -23.5t46 -25.5t51.5 -20t54 -8q48 0 70.5 38t22.5 132v18h204v-17z" />
    <glyph glyph-name="Imacron" unicode="&#x12a;" horiz-adv-x="835" 
d="M680 0h-526v2860h526v-2860zM953 3123h-1072v308h1072v-308z" />
    <glyph glyph-name="imacron" unicode="&#x12b;" horiz-adv-x="894" 
d="M698 0h-502v2205h502v-2205zM983 2468h-1072v308h1072v-308z" />
    <glyph glyph-name="Ibreve" unicode="&#x12c;" horiz-adv-x="835" 
d="M680 0h-526v2860h526v-2860zM171 3623q0 -152 63.5 -236t181.5 -84t181.5 84t63.5 236h271q0 -148 -33 -262t-98 -192t-161.5 -118.5t-223.5 -40.5t-223.5 40.5t-161.5 118.5t-98 192t-33 262h271z" />
    <glyph glyph-name="ibreve" unicode="&#x12d;" horiz-adv-x="894" 
d="M698 0h-502v2205h502v-2205zM201 2968q0 -152 63.5 -236t181.5 -84t181.5 84t63.5 236h271q0 -148 -33 -262t-98 -192t-161.5 -118.5t-223.5 -40.5t-223.5 40.5t-161.5 118.5t-98 192t-33 262h271z" />
    <glyph glyph-name="Iogonek" unicode="&#x12e;" horiz-adv-x="835" 
d="M680 0h-526v2860h526v-2860zM678 0q-81 0 -161.5 -23t-144 -60t-103 -83.5t-39.5 -92.5q0 -63 74 -97.5t207 -34.5q41 0 84 3.5t90 10.5v-314q-56 -8 -111.5 -11.5t-103.5 -3.5q-112 0 -205 23.5t-159 66.5t-102.5 103t-36.5 134q0 88 52.5 164t145 132t219.5 88.5
t276 34.5z" />
    <glyph glyph-name="iogonek" unicode="&#x12f;" horiz-adv-x="790" 
d="M654 2448h-518v512h518v-512zM646 0h-502v2205h502v-2205zM644 0q-81 0 -161.5 -23t-144 -60t-103 -83.5t-39.5 -92.5q0 -63 74 -97.5t207 -34.5q41 0 84 3.5t90 10.5v-314q-56 -8 -111.5 -11.5t-103.5 -3.5q-112 0 -205 23.5t-159 66.5t-102.5 103t-36.5 134
q0 88 52.5 164t145 132t219.5 88.5t276 34.5z" />
    <glyph glyph-name="Idotaccent" unicode="&#x130;" horiz-adv-x="835" 
d="M680 0h-526v2860h526v-2860zM642 3069h-451v474h451v-474z" />
    <glyph glyph-name="dotlessi" unicode="&#x131;" horiz-adv-x="894" 
d="M698 0h-502v2205h502v-2205z" />
    <glyph glyph-name="IJ" unicode="&#x132;" horiz-adv-x="3326" 
d="M680 0h-526v2860h526v-2860zM912 1268h526v-201q0 -143 44 -264.5t123.5 -209.5t190.5 -137.5t244 -49.5q135 0 246.5 50.5t191.5 139.5t124 211.5t44 266.5v1786h526v-1790q0 -173 -37 -324t-106 -276.5t-168.5 -224t-225.5 -166.5t-275 -103.5t-318 -35.5t-318 35.5
t-275 103.5t-225.5 166.5t-168.5 224t-106 276.5t-37 324v198z" />
    <glyph glyph-name="ij" unicode="&#x133;" horiz-adv-x="1580" 
d="M654 2448h-518v512h518v-512zM646 0h-502v2205h502v-2205zM1444 2448h-518v512h518v-512zM1436 123q0 -243 -52.5 -420.5t-160.5 -293t-274 -171.5t-393 -56h-71v431h64q93 0 157.5 23t107 61t67 87t36 102t14.5 106t3 98v2115h502v-2082z" />
    <glyph glyph-name="Jcircumflex" unicode="&#x134;" horiz-adv-x="2491" 
d="M77 1268h526v-201q0 -143 44 -264.5t123.5 -209.5t190.5 -137.5t244 -49.5q135 0 246.5 50.5t191.5 139.5t124 211.5t44 266.5v1786h526v-1790q0 -173 -37 -324t-106 -276.5t-168.5 -224t-225.5 -166.5t-275 -103.5t-318 -35.5t-318 35.5t-275 103.5t-225.5 166.5
t-168.5 224t-106 276.5t-37 324v198zM2273 3010l-193 375l-199 -375h-310l292 639h428l292 -639h-310z" />
    <glyph glyph-name="jcircumflex" unicode="&#x135;" horiz-adv-x="789" 
d="M653 123q0 -243 -52.5 -420.5t-161.5 -293t-276.5 -171.5t-396.5 -56h-71v431h64q95 0 161 23t109.5 61t68 87t36.5 102t14.5 106t2.5 98v2115h502v-2082zM603 2355l-193 375l-199 -375h-310l292 639h428l292 -639h-310z" />
    <glyph glyph-name="uni0136" unicode="&#x136;" horiz-adv-x="2701" 
d="M1131 1409l1551 -1409h-737l-1265 1164v-1164h-526v2860h526v-1262l1217 1262h683zM1263 -788h-312l86 638h452z" />
    <glyph glyph-name="uni0137" unicode="&#x137;" horiz-adv-x="2337" 
d="M1064 1085l1224 -1085h-672l-970 882v-882h-502v2960h502v-1710l933 955h613zM1073 -788h-312l86 638h452z" />
    <glyph glyph-name="kgreenlandic" unicode="&#x138;" horiz-adv-x="2337" 
d="M1065 1085l1223 -1085h-672l-970 882v-882h-502v2205h502v-955l933 955h613z" />
    <glyph glyph-name="Lacute" unicode="&#x139;" horiz-adv-x="2140" 
d="M680 2860v-2396h1386v-464h-1912v2860h526zM1024.01 3649h-463.972l-307.981 -639h331.979z" />
    <glyph glyph-name="lacute" unicode="&#x13a;" horiz-adv-x="790" 
d="M646 0h-502v2960h502v-2960zM1005.01 3749h-463.972l-307.981 -639h331.979z" />
    <glyph glyph-name="uni013B" unicode="&#x13b;" horiz-adv-x="2140" 
d="M680 2860v-2396h1386v-464h-1912v2860h526zM1110 -788h-312l86 638h452z" />
    <glyph glyph-name="uni013C" unicode="&#x13c;" horiz-adv-x="790" 
d="M646 0h-502v2960h502v-2960zM374 -788h-312l86 638h452z" />
    <glyph glyph-name="Lcaron" unicode="&#x13d;" horiz-adv-x="2140" 
d="M680 2860v-2396h1386v-464h-1912v2860h526zM1893 1909h-343l79 951h432z" />
    <glyph glyph-name="lcaron" unicode="&#x13e;" horiz-adv-x="790" 
d="M646 0h-502v2960h502v-2960zM1138 2009h-343l79 951h432z" />
    <glyph glyph-name="Ldot" unicode="&#x13f;" horiz-adv-x="2140" 
d="M680 2860v-2396h1386v-464h-1912v2860h526zM1965 1394h-451v474h451v-474z" />
    <glyph glyph-name="ldot" unicode="&#x140;" horiz-adv-x="790" 
d="M646 0h-502v2960h502v-2960zM1314 1003h-451v474h451v-474z" />
    <glyph glyph-name="Lslash" unicode="&#x141;" horiz-adv-x="2140" 
d="M680 2860v-2396h1386v-464h-1912v2860h526zM1338 1516l-1444 -652v362l1444 652v-362z" />
    <glyph glyph-name="lslash" unicode="&#x142;" horiz-adv-x="790" 
d="M646 0h-502v2960h502v-2960zM942 1396l-1075 -485v344l1075 486v-345z" />
    <glyph glyph-name="Nacute" unicode="&#x143;" horiz-adv-x="2887" 
d="M2733 0h-789l-1282 2443v-2443h-508v2860h849l1222 -2321v2321h508v-2860zM2051.01 3601h-463.972l-307.981 -639h331.979z" />
    <glyph glyph-name="nacute" unicode="&#x144;" 
d="M646 0h-502v2205h502v-650q38 169 109 301t172.5 223t231.5 138.5t284 47.5q183 0 325.5 -67.5t241 -196.5t149.5 -316.5t51 -427.5v-1257h-502v1207q0 614 -497 614q-133 0 -238 -43t-178 -125.5t-111 -202.5t-38 -275v-1175zM1785.01 2994h-463.972l-307.981 -639
h331.979z" />
    <glyph glyph-name="uni0145" unicode="&#x145;" horiz-adv-x="2887" 
d="M2733 0h-789l-1282 2443v-2443h-508v2860h849l1222 -2321v2321h508v-2860zM1297 -788h-312l86 638h452z" />
    <glyph glyph-name="uni0146" unicode="&#x146;" 
d="M646 0h-502v2205h502v-650q38 169 109 301t172.5 223t231.5 138.5t284 47.5q183 0 325.5 -67.5t241 -196.5t149.5 -316.5t51 -427.5v-1257h-502v1207q0 614 -497 614q-133 0 -238 -43t-178 -125.5t-111 -202.5t-38 -275v-1175zM1172 -788h-312l86 638h452z" />
    <glyph glyph-name="Ncaron" unicode="&#x147;" horiz-adv-x="2887" 
d="M2733 0h-789l-1282 2443v-2443h-508v2860h849l1222 -2321v2321h508v-2860zM1659 2962h-428l-292 639h310l199 -375l193 375h310z" />
    <glyph glyph-name="ncaron" unicode="&#x148;" 
d="M646 0h-502v2205h502v-650q38 169 109 301t172.5 223t231.5 138.5t284 47.5q183 0 325.5 -67.5t241 -196.5t149.5 -316.5t51 -427.5v-1257h-502v1207q0 614 -497 614q-133 0 -238 -43t-178 -125.5t-111 -202.5t-38 -275v-1175zM1392 2355h-428l-292 639h310l199 -375
l193 375h310z" />
    <glyph glyph-name="napostrophe" unicode="&#x149;" horiz-adv-x="3155" 
d="M154 2860h2847v-2860h-2847v2860zM1577 1664l785 861h-1568zM537 524l827 906l-827 908v-1814zM2618 521v1815l-827 -906zM792 335h1568l-783 860z" />
    <glyph glyph-name="Eng" unicode="&#x14a;" horiz-adv-x="3155" 
d="M154 2860h2847v-2860h-2847v2860zM1577 1664l785 861h-1568zM537 524l827 906l-827 908v-1814zM2618 521v1815l-827 -906zM792 335h1568l-783 860z" />
    <glyph glyph-name="eng" unicode="&#x14b;" horiz-adv-x="3155" 
d="M154 2860h2847v-2860h-2847v2860zM1577 1664l785 861h-1568zM537 524l827 906l-827 908v-1814zM2618 521v1815l-827 -906zM792 335h1568l-783 860z" />
    <glyph glyph-name="Omacron" unicode="&#x14c;" horiz-adv-x="2989" 
d="M124 1430q0 223 45 420t130 362.5t206.5 297t273.5 222.5t332.5 139.5t382.5 48.5t382.5 -48.5t332.5 -139.5t273.5 -222.5t206 -297t130 -362.5t45.5 -420t-45.5 -420t-130 -362.5t-206 -297t-273.5 -222.5t-332.5 -139.5t-382.5 -48.5t-382.5 48.5t-332.5 139.5
t-273.5 222.5t-206.5 297t-130 362.5t-45 420zM652 1430q0 -243 57 -433.5t165 -322t264.5 -200t355.5 -68.5t355.5 68.5t264.5 200t165 322t57 433.5t-57 433.5t-165 322t-264.5 200t-355.5 68.5t-355.5 -68.5t-264.5 -200t-165 -322t-57 -433.5zM2028 3123h-1072v308h1072
v-308z" />
    <glyph glyph-name="omacron" unicode="&#x14d;" horiz-adv-x="2388" 
d="M96 1103q0 263 79.5 477t224.5 366.5t347 235.5t447 83t447 -83t347 -235.5t224.5 -366.5t79.5 -477q0 -175 -36 -329t-103.5 -283.5t-165 -231.5t-219.5 -173t-266.5 -108.5t-307.5 -37.5t-308 37.5t-267 108.5t-219 173t-164.5 231.5t-103.5 283.5t-36 329zM600 1103
q0 -169 41 -302.5t117.5 -226t187 -141.5t249.5 -49t249 49t186.5 141.5t117 226t40.5 302.5t-40.5 302.5t-117 225.5t-186.5 141t-249 49t-249.5 -49t-187 -141.5t-117.5 -225.5t-41 -302zM1730 2468h-1072v308h1072v-308z" />
    <glyph glyph-name="Obreve" unicode="&#x14e;" horiz-adv-x="2989" 
d="M124 1430q0 223 45 420t130 362.5t206.5 297t273.5 222.5t332.5 139.5t382.5 48.5t382.5 -48.5t332.5 -139.5t273.5 -222.5t206 -297t130 -362.5t45.5 -420t-45.5 -420t-130 -362.5t-206 -297t-273.5 -222.5t-332.5 -139.5t-382.5 -48.5t-382.5 48.5t-332.5 139.5
t-273.5 222.5t-206.5 297t-130 362.5t-45 420zM652 1430q0 -243 57 -433.5t165 -322t264.5 -200t355.5 -68.5t355.5 68.5t264.5 200t165 322t57 433.5t-57 433.5t-165 322t-264.5 200t-355.5 68.5t-355.5 -68.5t-264.5 -200t-165 -322t-57 -433.5zM1247 3623
q0 -152 63.5 -236t181.5 -84t181.5 84t63.5 236h271q0 -148 -33 -262t-98 -192t-161.5 -118.5t-223.5 -40.5t-223.5 40.5t-161.5 118.5t-98 192t-33 262h271z" />
    <glyph glyph-name="obreve" unicode="&#x14f;" horiz-adv-x="2388" 
d="M96 1103q0 263 79.5 477t224.5 366.5t347 235.5t447 83t447 -83t347 -235.5t224.5 -366.5t79.5 -477q0 -175 -36 -329t-103.5 -283.5t-165 -231.5t-219.5 -173t-266.5 -108.5t-307.5 -37.5t-308 37.5t-267 108.5t-219 173t-164.5 231.5t-103.5 283.5t-36 329zM600 1103
q0 -169 41 -302.5t117.5 -226t187 -141.5t249.5 -49t249 49t186.5 141.5t117 226t40.5 302.5t-40.5 302.5t-117 225.5t-186.5 141t-249 49t-249.5 -49t-187 -141.5t-117.5 -225.5t-41 -302zM948 2968q0 -152 63.5 -236t181.5 -84t181.5 84t63.5 236h271q0 -148 -33 -262
t-98 -192t-161.5 -118.5t-223.5 -40.5t-223.5 40.5t-161.5 118.5t-98 192t-33 262h271z" />
    <glyph glyph-name="Ohungarumlaut" unicode="&#x150;" horiz-adv-x="2989" 
d="M124 1430q0 223 45 420t130 362.5t206.5 297t273.5 222.5t332.5 139.5t382.5 48.5t382.5 -48.5t332.5 -139.5t273.5 -222.5t206 -297t130 -362.5t45.5 -420t-45.5 -420t-130 -362.5t-206 -297t-273.5 -222.5t-332.5 -139.5t-382.5 -48.5t-382.5 48.5t-332.5 139.5
t-273.5 222.5t-206.5 297t-130 362.5t-45 420zM652 1430q0 -243 57 -433.5t165 -322t264.5 -200t355.5 -68.5t355.5 68.5t264.5 200t165 322t57 433.5t-57 433.5t-165 322t-264.5 200t-355.5 68.5t-355.5 -68.5t-264.5 -200t-165 -322t-57 -433.5zM1008 3010l214 639h424
l-324 -639h-314zM1580 3010l214 639h424l-324 -639h-314z" />
    <glyph glyph-name="ohungarumlaut" unicode="&#x151;" horiz-adv-x="2388" 
d="M96 1103q0 263 79.5 477t224.5 366.5t347 235.5t447 83t447 -83t347 -235.5t224.5 -366.5t79.5 -477q0 -175 -36 -329t-103.5 -283.5t-165 -231.5t-219.5 -173t-266.5 -108.5t-307.5 -37.5t-308 37.5t-267 108.5t-219 173t-164.5 231.5t-103.5 283.5t-36 329zM600 1103
q0 -169 41 -302.5t117.5 -226t187 -141.5t249.5 -49t249 49t186.5 141.5t117 226t40.5 302.5t-40.5 302.5t-117 225.5t-186.5 141t-249 49t-249.5 -49t-187 -141.5t-117.5 -225.5t-41 -302zM709 2355l214 639h424l-324 -639h-314zM1281 2355l214 639h424l-324 -639h-314z
" />
    <glyph glyph-name="OE" unicode="&#x152;" horiz-adv-x="3833" 
d="M3718 2396h-1428v-742h1310v-450h-1310v-740h1466v-464h-2262q-202 0 -382.5 46.5t-332.5 134t-273.5 213.5t-206.5 285t-130 348t-45 403t45 403t130 348t206.5 285t273.5 213.5t332.5 134t382.5 46.5h2224v-464zM652 1430q0 -229 57 -408.5t165 -303t264.5 -188
t355.5 -64.5h270v1928h-270q-199 0 -355.5 -64.5t-264.5 -188t-165 -303t-57 -408.5z" />
    <glyph glyph-name="oe" unicode="&#x153;" horiz-adv-x="4044" 
d="M96 1103q0 263 79.5 477t224.5 366.5t347 235.5t447 83q137 0 260 -27t231 -78t199 -125t162 -169q71 95 160.5 169t196.5 125t229.5 78t258.5 27q240 0 435.5 -82t333.5 -232.5t213 -364t75 -476.5q0 -39 -1.5 -78t-5.5 -82h-1641q16 -138 65.5 -246.5t128.5 -184.5
t185.5 -116t236.5 -40q392 0 538 376h484q-44 -187 -137 -335t-227 -251t-304 -158t-367 -55q-138 0 -262 27t-232 78.5t-199 126.5t-162 170q-71 -95 -162 -170t-199 -126.5t-232 -78.5t-261 -27q-163 0 -308 37.5t-267 108.5t-219 173t-164.5 231.5t-103.5 283.5t-36 329z
M3450 1310q-40 264 -181 400t-376 136q-120 0 -219 -36t-173.5 -105t-123.5 -168.5t-70 -226.5h1143zM600 1103q0 -169 41 -302.5t117.5 -226t187 -141.5t249.5 -49t249 49t186.5 141.5t117 226t40.5 302.5t-40.5 302.5t-117 225.5t-186.5 141t-249 49t-249.5 -49
t-187 -141.5t-117.5 -225.5t-41 -302z" />
    <glyph glyph-name="Racute" unicode="&#x154;" horiz-adv-x="2725" 
d="M154 0v2860h1399q227 0 412 -61.5t316 -173t202 -269t71 -349.5q0 -169 -56.5 -307.5t-160 -238t-250 -156t-326.5 -61.5q164 -12 291.5 -126t221.5 -323l357 -795h-581l-358 793q-37 83 -79.5 138.5t-100 89t-134.5 47.5t-183 14h-515v-1082h-526zM1490 1532
q126 0 226 30t169 87.5t105.5 140t36.5 187.5q0 103 -35.5 182.5t-104 134t-169 82.5t-230.5 28h-808v-872h810zM1796.01 3649h-463.972l-307.981 -639h331.979z" />
    <glyph glyph-name="racute" unicode="&#x155;" horiz-adv-x="1647" 
d="M646 0h-502v2205h502v-735q34 171 99.5 307t164 231.5t231.5 146t301 50.5h116v-475h-166q-213 0 -356 -41.5t-230 -125.5t-123.5 -212t-36.5 -301v-1050zM1472.01 2994h-463.972l-307.981 -639h331.979z" />
    <glyph glyph-name="uni0156" unicode="&#x156;" horiz-adv-x="2725" 
d="M154 0v2860h1399q227 0 412 -61.5t316 -173t202 -269t71 -349.5q0 -169 -56.5 -307.5t-160 -238t-250 -156t-326.5 -61.5q164 -12 291.5 -126t221.5 -323l357 -795h-581l-358 793q-37 83 -79.5 138.5t-100 89t-134.5 47.5t-183 14h-515v-1082h-526zM1490 1532
q126 0 226 30t169 87.5t105.5 140t36.5 187.5q0 103 -35.5 182.5t-104 134t-169 82.5t-230.5 28h-808v-872h810zM1304 -788h-312l86 638h452z" />
    <glyph glyph-name="uni0157" unicode="&#x157;" horiz-adv-x="1647" 
d="M646 0h-502v2205h502v-735q34 171 99.5 307t164 231.5t231.5 146t301 50.5h116v-475h-166q-213 0 -356 -41.5t-230 -125.5t-123.5 -212t-36.5 -301v-1050zM375 -788h-312l86 638h452z" />
    <glyph glyph-name="Rcaron" unicode="&#x158;" horiz-adv-x="2725" 
d="M154 0v2860h1399q227 0 412 -61.5t316 -173t202 -269t71 -349.5q0 -169 -56.5 -307.5t-160 -238t-250 -156t-326.5 -61.5q164 -12 291.5 -126t221.5 -323l357 -795h-581l-358 793q-37 83 -79.5 138.5t-100 89t-134.5 47.5t-183 14h-515v-1082h-526zM1490 1532
q126 0 226 30t169 87.5t105.5 140t36.5 187.5q0 103 -35.5 182.5t-104 134t-169 82.5t-230.5 28h-808v-872h810zM1403 3010h-428l-292 639h310l199 -375l193 375h310z" />
    <glyph glyph-name="rcaron" unicode="&#x159;" horiz-adv-x="1647" 
d="M646 0h-502v2205h502v-735q34 171 99.5 307t164 231.5t231.5 146t301 50.5h116v-475h-166q-213 0 -356 -41.5t-230 -125.5t-123.5 -212t-36.5 -301v-1050zM1080 2355h-428l-292 639h310l199 -375l193 375h310z" />
    <glyph glyph-name="Sacute" unicode="&#x15a;" horiz-adv-x="2641" 
d="M1304 2920q266 0 480 -65t365 -186.5t232.5 -296.5t81.5 -394h-508q0 114 -47.5 205.5t-134 156t-207.5 99t-268 34.5q-82 0 -162 -11t-153 -34t-135 -57.5t-107.5 -81t-71 -105.5t-25.5 -130q0 -97 47 -157t135.5 -98.5t217.5 -62.5t292 -48l133 -20q120 -18 248 -40.5
t249.5 -59t230 -93t190 -142.5t129 -207t47.5 -287q0 -224 -89 -392.5t-250.5 -281t-387.5 -169t-501 -56.5q-299 0 -532.5 65.5t-394.5 189.5t-245.5 304t-84.5 409h508q0 -122 52 -219t148.5 -164t234 -102.5t309.5 -35.5q147 0 277 27t227.5 82.5t154 140.5t56.5 200
q0 106 -47 171t-134 105t-209 62.5t-272 44.5l-168 25q-90 13 -185 28t-188.5 36t-182.5 49.5t-168.5 69.5t-146.5 96t-115.5 128.5t-75.5 167t-27 211.5q0 146 42 268.5t118 221.5t183.5 173.5t238 124.5t281.5 75.5t315 25.5zM1916.01 3649h-463.972l-307.981 -639
h331.979z" />
    <glyph glyph-name="sacute" unicode="&#x15b;" horiz-adv-x="2206" 
d="M1070 2265q234 0 417 -52t309 -149t191.5 -235t65.5 -311h-493q0 81 -31.5 146t-93 111t-151.5 71t-208 25q-105 0 -191.5 -19.5t-148.5 -55.5t-96.5 -86t-34.5 -111q0 -72 42.5 -117.5t112.5 -74.5t158.5 -46.5t180.5 -32.5l147 -24q91 -15 191 -33.5t198 -49.5
t187 -77.5t157 -116.5t108 -167.5t40 -230.5q0 -165 -66 -293t-194.5 -216t-317.5 -134t-435 -46q-257 0 -452 50.5t-326 148t-197 240t-66 326.5h493q0 -178 134 -273.5t411 -95.5q123 0 220.5 19t165 55t103 89t35.5 121q0 54 -20 94t-56.5 70.5t-86.5 52t-110 38
t-127.5 29.5t-138.5 25l-148 25q-62 11 -130.5 24t-139 30.5t-139.5 42t-132 58.5t-116.5 78.5t-93 103t-62 132.5t-22.5 166q0 156 65.5 281t189.5 212.5t301.5 135t400.5 47.5zM1685.01 2994h-463.972l-307.981 -639h331.979z" />
    <glyph glyph-name="Scircumflex" unicode="&#x15c;" horiz-adv-x="2641" 
d="M1304 2920q266 0 480 -65t365 -186.5t232.5 -296.5t81.5 -394h-508q0 114 -47.5 205.5t-134 156t-207.5 99t-268 34.5q-82 0 -162 -11t-153 -34t-135 -57.5t-107.5 -81t-71 -105.5t-25.5 -130q0 -97 47 -157t135.5 -98.5t217.5 -62.5t292 -48l133 -20q120 -18 248 -40.5
t249.5 -59t230 -93t190 -142.5t129 -207t47.5 -287q0 -224 -89 -392.5t-250.5 -281t-387.5 -169t-501 -56.5q-299 0 -532.5 65.5t-394.5 189.5t-245.5 304t-84.5 409h508q0 -122 52 -219t148.5 -164t234 -102.5t309.5 -35.5q147 0 277 27t227.5 82.5t154 140.5t56.5 200
q0 106 -47 171t-134 105t-209 62.5t-272 44.5l-168 25q-90 13 -185 28t-188.5 36t-182.5 49.5t-168.5 69.5t-146.5 96t-115.5 128.5t-75.5 167t-27 211.5q0 146 42 268.5t118 221.5t183.5 173.5t238 124.5t281.5 75.5t315 25.5zM1504 3010l-193 375l-199 -375h-310l292 639
h428l292 -639h-310z" />
    <glyph glyph-name="scircumflex" unicode="&#x15d;" horiz-adv-x="2206" 
d="M1070 2265q234 0 417 -52t309 -149t191.5 -235t65.5 -311h-493q0 81 -31.5 146t-93 111t-151.5 71t-208 25q-105 0 -191.5 -19.5t-148.5 -55.5t-96.5 -86t-34.5 -111q0 -72 42.5 -117.5t112.5 -74.5t158.5 -46.5t180.5 -32.5l147 -24q91 -15 191 -33.5t198 -49.5
t187 -77.5t157 -116.5t108 -167.5t40 -230.5q0 -165 -66 -293t-194.5 -216t-317.5 -134t-435 -46q-257 0 -452 50.5t-326 148t-197 240t-66 326.5h493q0 -178 134 -273.5t411 -95.5q123 0 220.5 19t165 55t103 89t35.5 121q0 54 -20 94t-56.5 70.5t-86.5 52t-110 38
t-127.5 29.5t-138.5 25l-148 25q-62 11 -130.5 24t-139 30.5t-139.5 42t-132 58.5t-116.5 78.5t-93 103t-62 132.5t-22.5 166q0 156 65.5 281t189.5 212.5t301.5 135t400.5 47.5zM1273 2355l-193 375l-199 -375h-310l292 639h428l292 -639h-310z" />
    <glyph glyph-name="Scedilla" unicode="&#x15e;" horiz-adv-x="2641" 
d="M1304 2920q266 0 480 -65t365 -186.5t232.5 -296.5t81.5 -394h-508q0 114 -47.5 205.5t-134 156t-207.5 99t-268 34.5q-82 0 -162 -11t-153 -34t-135 -57.5t-107.5 -81t-71 -105.5t-25.5 -130q0 -97 47 -157t135.5 -98.5t217.5 -62.5t292 -48l133 -20q120 -18 248 -40.5
t249.5 -59t230 -93t190 -142.5t129 -207t47.5 -287q0 -224 -89 -392.5t-250.5 -281t-387.5 -169t-501 -56.5q-299 0 -532.5 65.5t-394.5 189.5t-245.5 304t-84.5 409h508q0 -122 52 -219t148.5 -164t234 -102.5t309.5 -35.5q147 0 277 27t227.5 82.5t154 140.5t56.5 200
q0 106 -47 171t-134 105t-209 62.5t-272 44.5l-168 25q-90 13 -185 28t-188.5 36t-182.5 49.5t-168.5 69.5t-146.5 96t-115.5 128.5t-75.5 167t-27 211.5q0 146 42 268.5t118 221.5t183.5 173.5t238 124.5t281.5 75.5t315 25.5zM1441 9l-28 -162q115 -2 206 -23t154.5 -60
t97.5 -94t34 -124q0 -74 -38.5 -134t-108.5 -102.5t-169 -66t-220 -23.5q-55 0 -112.5 5t-117.5 15v233q57 -10 109 -14.5t100 -4.5q129 0 201 32t72 87q0 66 -104.5 104t-307.5 38l52 294h180z" />
    <glyph glyph-name="scedilla" unicode="&#x15f;" horiz-adv-x="2206" 
d="M1070 2265q234 0 417 -52t309 -149t191.5 -235t65.5 -311h-493q0 81 -31.5 146t-93 111t-151.5 71t-208 25q-105 0 -191.5 -19.5t-148.5 -55.5t-96.5 -86t-34.5 -111q0 -72 42.5 -117.5t112.5 -74.5t158.5 -46.5t180.5 -32.5l147 -24q91 -15 191 -33.5t198 -49.5
t187 -77.5t157 -116.5t108 -167.5t40 -230.5q0 -165 -66 -293t-194.5 -216t-317.5 -134t-435 -46q-257 0 -452 50.5t-326 148t-197 240t-66 326.5h493q0 -178 134 -273.5t411 -95.5q123 0 220.5 19t165 55t103 89t35.5 121q0 54 -20 94t-56.5 70.5t-86.5 52t-110 38
t-127.5 29.5t-138.5 25l-148 25q-62 11 -130.5 24t-139 30.5t-139.5 42t-132 58.5t-116.5 78.5t-93 103t-62 132.5t-22.5 166q0 156 65.5 281t189.5 212.5t301.5 135t400.5 47.5zM1212 9l-28 -162q115 -2 206 -23t154.5 -60t97.5 -94t34 -124q0 -74 -38.5 -134
t-108.5 -102.5t-169 -66t-220 -23.5q-55 0 -112.5 5t-117.5 15v233q57 -10 109 -14.5t100 -4.5q129 0 201 32t72 87q0 66 -104.5 104t-307.5 38l52 294h180z" />
    <glyph glyph-name="Scaron" unicode="&#x160;" horiz-adv-x="2641" 
d="M1304 2920q266 0 480 -65t365 -186.5t232.5 -296.5t81.5 -394h-508q0 114 -47.5 205.5t-134 156t-207.5 99t-268 34.5q-82 0 -162 -11t-153 -34t-135 -57.5t-107.5 -81t-71 -105.5t-25.5 -130q0 -97 47 -157t135.5 -98.5t217.5 -62.5t292 -48l133 -20q120 -18 248 -40.5
t249.5 -59t230 -93t190 -142.5t129 -207t47.5 -287q0 -224 -89 -392.5t-250.5 -281t-387.5 -169t-501 -56.5q-299 0 -532.5 65.5t-394.5 189.5t-245.5 304t-84.5 409h508q0 -122 52 -219t148.5 -164t234 -102.5t309.5 -35.5q147 0 277 27t227.5 82.5t154 140.5t56.5 200
q0 106 -47 171t-134 105t-209 62.5t-272 44.5l-168 25q-90 13 -185 28t-188.5 36t-182.5 49.5t-168.5 69.5t-146.5 96t-115.5 128.5t-75.5 167t-27 211.5q0 146 42 268.5t118 221.5t183.5 173.5t238 124.5t281.5 75.5t315 25.5zM1523 3010h-428l-292 639h310l199 -375
l193 375h310z" />
    <glyph glyph-name="scaron" unicode="&#x161;" horiz-adv-x="2206" 
d="M1070 2265q234 0 417 -52t309 -149t191.5 -235t65.5 -311h-493q0 81 -31.5 146t-93 111t-151.5 71t-208 25q-105 0 -191.5 -19.5t-148.5 -55.5t-96.5 -86t-34.5 -111q0 -72 42.5 -117.5t112.5 -74.5t158.5 -46.5t180.5 -32.5l147 -24q91 -15 191 -33.5t198 -49.5
t187 -77.5t157 -116.5t108 -167.5t40 -230.5q0 -165 -66 -293t-194.5 -216t-317.5 -134t-435 -46q-257 0 -452 50.5t-326 148t-197 240t-66 326.5h493q0 -178 134 -273.5t411 -95.5q123 0 220.5 19t165 55t103 89t35.5 121q0 54 -20 94t-56.5 70.5t-86.5 52t-110 38
t-127.5 29.5t-138.5 25l-148 25q-62 11 -130.5 24t-139 30.5t-139.5 42t-132 58.5t-116.5 78.5t-93 103t-62 132.5t-22.5 166q0 156 65.5 281t189.5 212.5t301.5 135t400.5 47.5zM1292 2355h-428l-292 639h310l199 -375l193 375h310z" />
    <glyph glyph-name="uni0162" unicode="&#x162;" horiz-adv-x="2454" 
d="M2420 2396h-930v-2396h-526v2396h-930v464h2386v-464zM1318 9l-28 -162q115 -2 206 -23t154.5 -60t97.5 -94t34 -124q0 -74 -38.5 -134t-108.5 -102.5t-169 -66t-220 -23.5q-55 0 -112.5 5t-117.5 15v233q57 -10 109 -14.5t100 -4.5q129 0 201 32t72 87q0 66 -104.5 104
t-307.5 38l52 294h180z" />
    <glyph glyph-name="uni0163" unicode="&#x163;" horiz-adv-x="1645" 
d="M1536 17q-267 -76 -475 -76q-347 0 -528 207t-181 612v1037h-288v408h288v508h502v-508h682v-408h-682v-1038q0 -205 76 -301t241 -96q66 0 155 14.5t210 46.5v-406zM1046 9l-28 -162q115 -2 206 -23t154.5 -60t97.5 -94t34 -124q0 -74 -38.5 -134t-108.5 -102.5
t-169 -66t-220 -23.5q-55 0 -112.5 5t-117.5 15v233q57 -10 109 -14.5t100 -4.5q129 0 201 32t72 87q0 66 -104.5 104t-307.5 38l52 294h180z" />
    <glyph glyph-name="Tcaron" unicode="&#x164;" horiz-adv-x="2454" 
d="M2420 2396h-930v-2396h-526v2396h-930v464h2386v-464zM1444 3010h-428l-292 639h310l199 -375l193 375h310z" />
    <glyph glyph-name="tcaron" unicode="&#x165;" horiz-adv-x="1645" 
d="M1536 17q-267 -76 -475 -76q-347 0 -528 207t-181 612v1037h-288v408h288v508h502v-508h682v-408h-682v-1038q0 -205 76 -301t241 -96q66 0 155 14.5t210 46.5v-406zM1432 2335h-343l79 951h432z" />
    <glyph glyph-name="Tbar" unicode="&#x166;" horiz-adv-x="2454" 
d="M2420 2396h-930v-2396h-526v2396h-930v464h2386v-464zM2083 1136h-1709v356h1709v-356z" />
    <glyph glyph-name="tbar" unicode="&#x167;" horiz-adv-x="1645" 
d="M1536 17q-267 -76 -475 -76q-347 0 -528 207t-181 612v1037h-288v408h288v508h502v-508h682v-408h-682v-1038q0 -205 76 -301t241 -96q66 0 155 14.5t210 46.5v-406zM1489 1020h-1428v323h1428v-323z" />
    <glyph glyph-name="Utilde" unicode="&#x168;" horiz-adv-x="2776" 
d="M154 2860h526v-1658q0 -195 47 -343.5t137 -249t222 -152t302 -51.5t301.5 51.5t222 152t137.5 249t47 343.5v1658h526v-1680q0 -192 -40 -358.5t-115.5 -304.5t-184 -245t-245.5 -181t-300.5 -112.5t-348.5 -38.5q-278 0 -505.5 86t-389.5 246.5t-250.5 390t-88.5 517.5
v1680zM1969 3579q0 -266 -75 -392t-236 -126q-51 0 -94 11t-79 27.5t-64.5 35t-50.5 34.5l-51 35q-14 9 -31 20.5t-37 21t-42.5 16t-46.5 6.5q-54 0 -79.5 -41.5t-25.5 -139.5v-8h-206v10q0 525 323 525q47 0 86 -9.5t71 -24t57.5 -30.5t44.5 -30l51 -35q15 -10 36.5 -23.5
t46 -25.5t51.5 -20t54 -8q48 0 70.5 38t22.5 132v18h204v-17z" />
    <glyph glyph-name="utilde" unicode="&#x169;" 
d="M1698 2205h502v-2205h-502v650q-37 -169 -108.5 -301t-173 -223t-231.5 -138.5t-284 -47.5q-183 0 -325.5 67.5t-241 196.5t-149.5 316.5t-51 427.5v1257h502v-1207q0 -614 497 -614q134 0 239 43t177.5 125.5t110.5 203t38 274.5v1175zM1748 2924q0 -266 -75 -392
t-236 -126q-51 0 -94 11t-79 27.5t-64.5 35t-50.5 34.5l-51 35q-14 9 -31 20.5t-37 21t-42.5 16t-46.5 6.5q-54 0 -79.5 -41.5t-25.5 -139.5v-8h-206v10q0 525 323 525q47 0 86 -9.5t71 -24t57.5 -30.5t44.5 -30l51 -35q15 -10 36.5 -23.5t46 -25.5t51.5 -20t54 -8
q48 0 70.5 38t22.5 132v18h204v-17z" />
    <glyph glyph-name="Umacron" unicode="&#x16a;" horiz-adv-x="2776" 
d="M154 2860h526v-1658q0 -195 47 -343.5t137 -249t222 -152t302 -51.5t301.5 51.5t222 152t137.5 249t47 343.5v1658h526v-1680q0 -192 -40 -358.5t-115.5 -304.5t-184 -245t-245.5 -181t-300.5 -112.5t-348.5 -38.5q-278 0 -505.5 86t-389.5 246.5t-250.5 390t-88.5 517.5
v1680zM1924 3123h-1072v308h1072v-308z" />
    <glyph glyph-name="umacron" unicode="&#x16b;" 
d="M1698 2205h502v-2205h-502v650q-37 -169 -108.5 -301t-173 -223t-231.5 -138.5t-284 -47.5q-183 0 -325.5 67.5t-241 196.5t-149.5 316.5t-51 427.5v1257h502v-1207q0 -614 497 -614q134 0 239 43t177.5 125.5t110.5 203t38 274.5v1175zM1703 2468h-1072v308h1072v-308z
" />
    <glyph glyph-name="Ubreve" unicode="&#x16c;" horiz-adv-x="2776" 
d="M154 2860h526v-1658q0 -195 47 -343.5t137 -249t222 -152t302 -51.5t301.5 51.5t222 152t137.5 249t47 343.5v1658h526v-1680q0 -192 -40 -358.5t-115.5 -304.5t-184 -245t-245.5 -181t-300.5 -112.5t-348.5 -38.5q-278 0 -505.5 86t-389.5 246.5t-250.5 390t-88.5 517.5
v1680zM1142 3623q0 -152 63.5 -236t181.5 -84t181.5 84t63.5 236h271q0 -148 -33 -262t-98 -192t-161.5 -118.5t-223.5 -40.5t-223.5 40.5t-161.5 118.5t-98 192t-33 262h271z" />
    <glyph glyph-name="ubreve" unicode="&#x16d;" 
d="M1698 2205h502v-2205h-502v650q-37 -169 -108.5 -301t-173 -223t-231.5 -138.5t-284 -47.5q-183 0 -325.5 67.5t-241 196.5t-149.5 316.5t-51 427.5v1257h502v-1207q0 -614 497 -614q134 0 239 43t177.5 125.5t110.5 203t38 274.5v1175zM921 2968q0 -152 63.5 -236
t181.5 -84t181.5 84t63.5 236h271q0 -148 -33 -262t-98 -192t-161.5 -118.5t-223.5 -40.5t-223.5 40.5t-161.5 118.5t-98 192t-33 262h271z" />
    <glyph glyph-name="Uring" unicode="&#x16e;" horiz-adv-x="2776" 
d="M154 2860h526v-1658q0 -195 47 -343.5t137 -249t222 -152t302 -51.5t301.5 51.5t222 152t137.5 249t47 343.5v1658h526v-1680q0 -192 -40 -358.5t-115.5 -304.5t-184 -245t-245.5 -181t-300.5 -112.5t-348.5 -38.5q-278 0 -505.5 86t-389.5 246.5t-250.5 390t-88.5 517.5
v1680zM944 3446q0 98 32 178t90 137t139 88.5t179 31.5t179 -31.5t139.5 -88.5t90.5 -137t32 -178t-32 -178t-90.5 -137t-139.5 -88.5t-179 -31.5t-179 31t-139 88t-90 137.5t-32 178.5zM1192 3446q0 -48 14 -86.5t39 -66t61 -42t79 -14.5t78.5 14.5t60.5 42t39 66t14 86.5
t-14 86.5t-39 65.5t-60.5 41.5t-78.5 14.5t-79 -14.5t-61 -41.5t-39 -65.5t-14 -86.5z" />
    <glyph glyph-name="uring" unicode="&#x16f;" 
d="M1698 2205h502v-2205h-502v650q-37 -169 -108.5 -301t-173 -223t-231.5 -138.5t-284 -47.5q-183 0 -325.5 67.5t-241 196.5t-149.5 316.5t-51 427.5v1257h502v-1207q0 -614 497 -614q134 0 239 43t177.5 125.5t110.5 203t38 274.5v1175zM723 2791q0 98 32 178t90 137
t139 88.5t179 31.5t179 -31.5t139.5 -88.5t90.5 -137t32 -178t-32 -178t-90.5 -137t-139.5 -88.5t-179 -31.5t-179 31t-139 88t-90 137.5t-32 178.5zM971 2791q0 -48 14 -86.5t39 -66t61 -42t79 -14.5t78.5 14.5t60.5 42t39 66t14 86.5t-14 86.5t-39 65.5t-60.5 41.5
t-78.5 14.5t-79 -14.5t-61 -41.5t-39 -65.5t-14 -86.5z" />
    <glyph glyph-name="Uhungarumlaut" unicode="&#x170;" horiz-adv-x="2776" 
d="M154 2860h526v-1658q0 -195 47 -343.5t137 -249t222 -152t302 -51.5t301.5 51.5t222 152t137.5 249t47 343.5v1658h526v-1680q0 -192 -40 -358.5t-115.5 -304.5t-184 -245t-245.5 -181t-300.5 -112.5t-348.5 -38.5q-278 0 -505.5 86t-389.5 246.5t-250.5 390t-88.5 517.5
v1680zM903 3010l214 639h424l-324 -639h-314zM1475 3010l214 639h424l-324 -639h-314z" />
    <glyph glyph-name="uhungarumlaut" unicode="&#x171;" 
d="M1698 2205h502v-2205h-502v650q-37 -169 -108.5 -301t-173 -223t-231.5 -138.5t-284 -47.5q-183 0 -325.5 67.5t-241 196.5t-149.5 316.5t-51 427.5v1257h502v-1207q0 -614 497 -614q134 0 239 43t177.5 125.5t110.5 203t38 274.5v1175zM682 2355l214 639h424l-324 -639
h-314zM1254 2355l214 639h424l-324 -639h-314z" />
    <glyph glyph-name="Uogonek" unicode="&#x172;" horiz-adv-x="2776" 
d="M154 2860h526v-1658q0 -195 47 -343.5t137 -249t222 -152t302 -51.5t301.5 51.5t222 152t137.5 249t47 343.5v1658h526v-1680q0 -192 -40 -358.5t-115.5 -304.5t-184 -245t-245.5 -181t-300.5 -112.5t-348.5 -38.5q-278 0 -505.5 86t-389.5 246.5t-250.5 390t-88.5 517.5
v1680zM1804 0q-81 0 -161.5 -23t-144 -60t-103 -83.5t-39.5 -92.5q0 -63 74 -97.5t207 -34.5q41 0 84 3.5t90 10.5v-314q-56 -8 -111.5 -11.5t-103.5 -3.5q-112 0 -205 23.5t-159 66.5t-102.5 103t-36.5 134q0 88 52.5 164t145 132t219.5 88.5t276 34.5z" />
    <glyph glyph-name="uogonek" unicode="&#x173;" 
d="M1698 2205h502v-2205h-502v650q-37 -169 -108.5 -301t-173 -223t-231.5 -138.5t-284 -47.5q-183 0 -325.5 67.5t-241 196.5t-149.5 316.5t-51 427.5v1257h502v-1207q0 -614 497 -614q134 0 239 43t177.5 125.5t110.5 203t38 274.5v1175zM2198 0q-81 0 -161.5 -23
t-144 -60t-103 -83.5t-39.5 -92.5q0 -63 74 -97.5t207 -34.5q41 0 84 3.5t90 10.5v-314q-56 -8 -111.5 -11.5t-103.5 -3.5q-112 0 -205 23.5t-159 66.5t-102.5 103t-36.5 134q0 88 52.5 164t145 132t219.5 88.5t276 34.5z" />
    <glyph glyph-name="Wcircumflex" unicode="&#x174;" horiz-adv-x="4365" 
d="M2534 2860l584 -2517l611 2517h542l-747 -2860h-762l-580 2411l-590 -2411h-762l-736 2860h561l600 -2517l594 2517h685zM2378 3010l-193 375l-199 -375h-310l292 639h428l292 -639h-310z" />
    <glyph glyph-name="wcircumflex" unicode="&#x175;" horiz-adv-x="3692" 
d="M2167 2205l481 -1861l489 1861h500l-614 -2205h-702l-476 1799l-475 -1799h-702l-614 2205h517l488 -1870l482 1870h626zM2042 2355l-193 375l-199 -375h-310l292 639h428l292 -639h-310z" />
    <glyph glyph-name="Ycircumflex" unicode="&#x176;" horiz-adv-x="2727" 
d="M2718 2860l-1096 -1797v-1063h-526v1061l-1087 1799h592l764 -1303l774 1303h579zM1559 3010l-193 375l-199 -375h-310l292 639h428l292 -639h-310z" />
    <glyph glyph-name="ycircumflex" unicode="&#x177;" horiz-adv-x="2333" 
d="M2295 2205l-878 -2306q-70 -186 -164.5 -321.5t-217.5 -223t-276.5 -130t-341.5 -42.5q-62 0 -124.5 5t-125.5 15v419q61 -8 112.5 -12t98.5 -4q98 0 177 17.5t142 54.5t110.5 95t82.5 138l5 15l-855 2280h525l604 -1790l613 1790h513zM1363 2307l-193 375l-199 -375
h-310l292 639h428l292 -639h-310z" />
    <glyph glyph-name="Ydieresis" unicode="&#x178;" horiz-adv-x="2727" 
d="M2718 2860l-1096 -1797v-1063h-526v1061l-1087 1799h592l764 -1303l774 1303h579zM1272 3069h-451v474h451v-474zM1905 3069h-451v474h451v-474z" />
    <glyph glyph-name="Zacute" unicode="&#x179;" horiz-adv-x="2533" 
d="M763 464h1616v-464h-2225v494l1517 1902h-1467v464h2075v-494zM1854.01 3649h-463.972l-307.981 -639h331.979z" />
    <glyph glyph-name="zacute" unicode="&#x17a;" horiz-adv-x="2134" 
d="M660 408l1375 1v-409h-1936v435l1289 1362h-1251v408h1821v-435zM1668.01 2946h-463.972l-307.981 -639h331.979z" />
    <glyph glyph-name="Zdotaccent" unicode="&#x17b;" horiz-adv-x="2533" 
d="M763 464h1616v-464h-2225v494l1517 1902h-1467v464h2075v-494zM1471 3069h-451v474h451v-474z" />
    <glyph glyph-name="zdotaccent" unicode="&#x17c;" horiz-adv-x="2134" 
d="M660 408l1375 1v-409h-1936v435l1289 1362h-1251v408h1821v-435zM1285 2366h-451v474h451v-474z" />
    <glyph glyph-name="Zcaron" unicode="&#x17d;" horiz-adv-x="2533" 
d="M763 464h1616v-464h-2225v494l1517 1902h-1467v464h2075v-494zM1461 3010h-428l-292 639h310l199 -375l193 375h310z" />
    <glyph glyph-name="zcaron" unicode="&#x17e;" horiz-adv-x="2134" 
d="M660 408l1375 1v-409h-1936v435l1289 1362h-1251v408h1821v-435zM1275 2307h-428l-292 639h310l199 -375l193 375h310z" />
    <glyph glyph-name="longs" unicode="&#x17f;" horiz-adv-x="3155" 
d="M154 2860h2847v-2860h-2847v2860zM1577 1664l785 861h-1568zM537 524l827 906l-827 908v-1814zM2618 521v1815l-827 -906zM792 335h1568l-783 860z" />
    <glyph glyph-name="florin" unicode="&#x192;" horiz-adv-x="2038" 
d="M1963 2645q-169 32 -292 32q-215 0 -320 -103.5t-105 -315.5v-53h718v-408h-694v-1824q0 -193 -53 -341t-156.5 -248t-256.5 -151t-353 -51q-178 0 -376 39v406q163 -32 282 -32q209 0 310 103.5t101 316.5v1782h-316v408h316v56q0 203 53 357.5t157 259.5t257 158.5
t354 53.5q87 0 180.5 -9.5t193.5 -29.5v-406z" />
    <glyph glyph-name="AEacute" unicode="&#x1fc;" horiz-adv-x="3704" 
d="M19 0l1265 2860h2304v-464h-1428v-742h1310v-450h-1310v-740h1466v-464h-1992v633h-787l-269 -633h-559zM1634 1081v1403l-596 -1403h596zM3041.01 3649h-463.972l-307.981 -639h331.979z" />
    <glyph glyph-name="aeacute" unicode="&#x1fd;" horiz-adv-x="3978" 
d="M149 1417q0 195 72 352t205.5 267.5t325 169.5t429.5 59q288 0 502.5 -88t346.5 -253q141 163 342 252t452 89q161 0 301.5 -37t258 -107t210 -171t156.5 -229t98 -282t34 -329q0 -39 -2 -78t-6 -82h-1641q16 -138 65.5 -246.5t128 -184.5t184.5 -116t235 -40
q370 0 523 328h484q-49 -176 -143 -315.5t-225.5 -236t-296 -148t-355.5 -51.5q-190 0 -354 51t-296 145.5t-229 230t-151 303.5q-28 -169 -105.5 -304t-197 -229.5t-275.5 -145.5t-342 -51q-180 0 -327.5 47.5t-252 134t-162 208t-57.5 270.5q0 153 61 275t175.5 206.5
t279.5 130t372 45.5h766v51q0 125 -39 224.5t-112.5 169.5t-178.5 107t-237 37q-134 0 -232.5 -30.5t-162.5 -86.5t-95 -135t-31 -177h-501zM3384 1310q-39 263 -180.5 399.5t-376.5 136.5q-120 0 -219 -36t-174 -105t-124 -168.5t-70 -226.5h1144zM1001 905
q-206 0 -311.5 -69t-105.5 -204q0 -142 115.5 -217.5t333.5 -75.5q154 0 283.5 37.5t223 104.5t146 159.5t52.5 201.5v63h-737zM2591.01 2994h-463.972l-307.981 -639h331.979z" />
    <glyph glyph-name="Oslashacute" unicode="&#x1fe;" horiz-adv-x="2988" 
d="M491 367q-87 98 -155 214.5t-115.5 250.5t-72 284t-24.5 314q0 223 45.5 420t130 362.5t206 297t273.5 222.5t332.5 139.5t382.5 48.5q211 0 395 -51.5t340 -148.5l154 200h451l-335 -428q174 -196 269.5 -464.5t95.5 -597.5q0 -223 -45 -420t-130 -362.5t-206.5 -297
t-273.5 -222.5t-332.5 -139.5t-382.5 -48.5q-212 0 -398 52t-343 152l-165 -204h-425zM652 1430q0 -193 35.5 -351t104.5 -282l1165 1530q-95 63 -210.5 95t-252.5 32q-199 0 -355.5 -68.5t-264.5 -200t-165 -322t-57 -433.5zM1032 533q95 -63 210 -95t252 -32
q199 0 355.5 68.5t264.5 200t165 322t57 433.5q0 193 -35 351t-104 282zM2100.01 3649h-463.972l-307.981 -639h331.979z" />
    <glyph glyph-name="oslashacute" unicode="&#x1ff;" horiz-adv-x="2388" 
d="M2006 1927q137 -152 211.5 -360t74.5 -464q0 -175 -36 -329t-103.5 -283.5t-165 -231.5t-219.5 -173t-266.5 -108.5t-307.5 -37.5q-165 0 -309 37.5t-266 108.5l-115 -146h-386l264 338q-137 152 -211.5 360.5t-74.5 464.5q0 263 79.5 477t224.5 366.5t347 235.5t447 83
q165 0 309 -37.5t267 -108.5l114 146h386zM600 1103q0 -122 21 -224.5t62 -186.5l817 1052q-65 38 -141 57.5t-164 19.5q-139 0 -249.5 -49t-187 -141.5t-117.5 -225.5t-41 -302zM890 462q64 -38 140 -58t165 -20q139 0 249 49t186.5 141.5t117 226t40.5 302.5
q0 121 -21 223.5t-61 186.5zM1802.01 2994h-463.972l-307.981 -639h331.979z" />
    <glyph glyph-name="uni0218" unicode="&#x218;" horiz-adv-x="2641" 
d="M1304 2920q266 0 480 -65t365 -186.5t232.5 -296.5t81.5 -394h-508q0 114 -47.5 205.5t-134 156t-207.5 99t-268 34.5q-82 0 -162 -11t-153 -34t-135 -57.5t-107.5 -81t-71 -105.5t-25.5 -130q0 -97 47 -157t135.5 -98.5t217.5 -62.5t292 -48l133 -20q120 -18 248 -40.5
t249.5 -59t230 -93t190 -142.5t129 -207t47.5 -287q0 -224 -89 -392.5t-250.5 -281t-387.5 -169t-501 -56.5q-299 0 -532.5 65.5t-394.5 189.5t-245.5 304t-84.5 409h508q0 -122 52 -219t148.5 -164t234 -102.5t309.5 -35.5q147 0 277 27t227.5 82.5t154 140.5t56.5 200
q0 106 -47 171t-134 105t-209 62.5t-272 44.5l-168 25q-90 13 -185 28t-188.5 36t-182.5 49.5t-168.5 69.5t-146.5 96t-115.5 128.5t-75.5 167t-27 211.5q0 146 42 268.5t118 221.5t183.5 173.5t238 124.5t281.5 75.5t315 25.5zM1346 -788h-312l86 638h452z" />
    <glyph glyph-name="uni0219" unicode="&#x219;" horiz-adv-x="2206" 
d="M1070 2265q234 0 417 -52t309 -149t191.5 -235t65.5 -311h-493q0 81 -31.5 146t-93 111t-151.5 71t-208 25q-105 0 -191.5 -19.5t-148.5 -55.5t-96.5 -86t-34.5 -111q0 -72 42.5 -117.5t112.5 -74.5t158.5 -46.5t180.5 -32.5l147 -24q91 -15 191 -33.5t198 -49.5
t187 -77.5t157 -116.5t108 -167.5t40 -230.5q0 -165 -66 -293t-194.5 -216t-317.5 -134t-435 -46q-257 0 -452 50.5t-326 148t-197 240t-66 326.5h493q0 -178 134 -273.5t411 -95.5q123 0 220.5 19t165 55t103 89t35.5 121q0 54 -20 94t-56.5 70.5t-86.5 52t-110 38
t-127.5 29.5t-138.5 25l-148 25q-62 11 -130.5 24t-139 30.5t-139.5 42t-132 58.5t-116.5 78.5t-93 103t-62 132.5t-22.5 166q0 156 65.5 281t189.5 212.5t301.5 135t400.5 47.5zM1117 -788h-312l86 638h452z" />
    <glyph glyph-name="uni021A" unicode="&#x21a;" horiz-adv-x="2454" 
d="M2420 2396h-930v-2396h-526v2396h-930v464h2386v-464zM1223 -788h-312l86 638h452z" />
    <glyph glyph-name="uni021B" unicode="&#x21b;" horiz-adv-x="1645" 
d="M1536 17q-267 -76 -475 -76q-347 0 -528 207t-181 612v1037h-288v408h288v508h502v-508h682v-408h-682v-1038q0 -205 76 -301t241 -96q66 0 155 14.5t210 46.5v-406zM951 -788h-312l86 638h452z" />
    <glyph glyph-name="uni0237" unicode="&#x237;" horiz-adv-x="789" 
d="M653 123q0 -243 -52.5 -420.5t-161.5 -293t-276.5 -171.5t-396.5 -56h-71v431h64q95 0 161 23t109.5 61t68 87t36.5 102t14.5 106t2.5 98v2115h502v-2082z" />
    <glyph glyph-name="circumflex" unicode="&#x2c6;" horiz-adv-x="1320" 
d="M856 2295l-193 375l-199 -375h-310l292 639h428l292 -639h-310z" />
    <glyph glyph-name="caron" unicode="&#x2c7;" horiz-adv-x="1321" 
d="M874 2295h-428l-292 639h310l199 -375l193 375h310z" />
    <glyph glyph-name="breve" unicode="&#x2d8;" horiz-adv-x="1340" 
d="M425 2908q0 -152 63.5 -236t181.5 -84t181.5 84t63.5 236h271q0 -148 -33 -262t-98 -192t-161.5 -118.5t-223.5 -40.5t-223.5 40.5t-161.5 118.5t-98 192t-33 262h271z" />
    <glyph glyph-name="dotaccent" unicode="&#x2d9;" horiz-adv-x="760" 
d="M605 2354h-451v474h451v-474z" />
    <glyph glyph-name="ring" unicode="&#x2da;" horiz-adv-x="1187" 
d="M150 2731q0 98 32 178t90 137t139 88.5t179 31.5t179 -31.5t139.5 -88.5t90.5 -137t32 -178t-32 -178t-90.5 -137t-139.5 -88.5t-179 -31.5t-179 31t-139 88t-90 137.5t-32 178.5zM398 2731q0 -48 14 -86.5t39 -66t61 -42t79 -14.5t78.5 14.5t60.5 42t39 66t14 86.5
t-14 86.5t-39 65.5t-60.5 41.5t-78.5 14.5t-79 -14.5t-61 -41.5t-39 -65.5t-14 -86.5z" />
    <glyph glyph-name="ogonek" unicode="&#x2db;" horiz-adv-x="1028" 
d="M866 -59q-81 0 -161.5 -23t-144 -60t-103 -83.5t-39.5 -92.5q0 -63 74 -97.5t207 -34.5q41 0 84 3.5t90 10.5v-314q-56 -8 -111.5 -11.5t-103.5 -3.5q-112 0 -205 23.5t-159 66.5t-102.5 103t-36.5 134q0 88 52.5 164t145 132t219.5 88.5t276 34.5z" />
    <glyph glyph-name="tilde" unicode="&#x2dc;" horiz-adv-x="1425" 
d="M1272 2864q0 -266 -75 -392t-236 -126q-51 0 -94 11t-79 27.5t-64.5 35t-50.5 34.5l-51 35q-14 9 -31 20.5t-37 21t-42.5 16t-46.5 6.5q-54 0 -79.5 -41.5t-25.5 -139.5v-8h-206v10q0 525 323 525q47 0 86 -9.5t71 -24t57.5 -30.5t44.5 -30l51 -35q15 -10 36.5 -23.5
t46 -25.5t51.5 -20t54 -8q48 0 70.5 38t22.5 132v18h204v-17z" />
    <glyph glyph-name="hungarumlaut" unicode="&#x2dd;" horiz-adv-x="1519" 
d="M154 2295l214 639h424l-324 -639h-314zM726 2295l214 639h424l-324 -639h-314z" />
    <glyph glyph-name="uni03BC" unicode="&#x3bc;" horiz-adv-x="3155" 
d="M154 2860h2847v-2860h-2847v2860zM1577 1664l785 861h-1568zM537 524l827 906l-827 908v-1814zM2618 521v1815l-827 -906zM792 335h1568l-783 860z" />
    <glyph glyph-name="Wgrave" unicode="&#x1e80;" horiz-adv-x="4365" 
d="M2534 2860l584 -2517l611 2517h542l-747 -2860h-762l-580 2411l-590 -2411h-762l-736 2860h561l600 -2517l594 2517h685zM1575 3649h464l308 -639h-332z" />
    <glyph glyph-name="wgrave" unicode="&#x1e81;" horiz-adv-x="3692" 
d="M2167 2205l481 -1861l489 1861h500l-614 -2205h-702l-476 1799l-475 -1799h-702l-614 2205h517l488 -1870l482 1870h626zM1238 2994h464l308 -639h-332z" />
    <glyph glyph-name="Wacute" unicode="&#x1e82;" horiz-adv-x="4365" 
d="M2534 2860l584 -2517l611 2517h542l-747 -2860h-762l-580 2411l-590 -2411h-762l-736 2860h561l600 -2517l594 2517h685zM2790.01 3649h-463.972l-307.981 -639h331.979z" />
    <glyph glyph-name="wacute" unicode="&#x1e83;" horiz-adv-x="3692" 
d="M2167 2205l481 -1861l489 1861h500l-614 -2205h-702l-476 1799l-475 -1799h-702l-614 2205h517l488 -1870l482 1870h626zM2453.01 2994h-463.972l-307.981 -639h331.979z" />
    <glyph glyph-name="Wdieresis" unicode="&#x1e84;" horiz-adv-x="4365" 
d="M2534 2860l584 -2517l611 2517h542l-747 -2860h-762l-580 2411l-590 -2411h-762l-736 2860h561l600 -2517l594 2517h685zM2091 3069h-451v474h451v-474zM2724 3069h-451v474h451v-474z" />
    <glyph glyph-name="wdieresis" unicode="&#x1e85;" horiz-adv-x="3692" 
d="M2167 2205l481 -1861l489 1861h500l-614 -2205h-702l-476 1799l-475 -1799h-702l-614 2205h517l488 -1870l482 1870h626zM1754 2414h-451v474h451v-474zM2387 2414h-451v474h451v-474z" />
    <glyph glyph-name="Ygrave" unicode="&#x1ef2;" horiz-adv-x="2727" 
d="M2718 2860l-1096 -1797v-1063h-526v1061l-1087 1799h592l764 -1303l774 1303h579zM756 3649h464l308 -639h-332z" />
    <glyph glyph-name="ygrave" unicode="&#x1ef3;" horiz-adv-x="2333" 
d="M2295 2205l-878 -2306q-70 -186 -164.5 -321.5t-217.5 -223t-276.5 -130t-341.5 -42.5q-62 0 -124.5 5t-125.5 15v419q61 -8 112.5 -12t98.5 -4q98 0 177 17.5t142 54.5t110.5 95t82.5 138l5 15l-855 2280h525l604 -1790l613 1790h513zM559 2946h464l308 -639h-332z" />
    <glyph glyph-name="endash" unicode="&#x2013;" horiz-adv-x="3009" 
d="M2855 930h-2701v456h2701v-456z" />
    <glyph glyph-name="emdash" unicode="&#x2014;" horiz-adv-x="4268" 
d="M4114 930h-3960v456h3960v-456z" />
    <glyph glyph-name="quoteleft" unicode="&#x2018;" horiz-adv-x="1017" 
d="M491.025 2959.95h371.978l-138.992 -1349.92h-569.965z" />
    <glyph glyph-name="quoteright" unicode="&#x2019;" horiz-adv-x="1017" 
d="M526.005 1610.23h-371.955l138.983 1349.84h569.931z" />
    <glyph glyph-name="quotesinglbase" unicode="&#x201a;" horiz-adv-x="872" 
d="M414 -758h-372l139 1350h570z" />
    <glyph glyph-name="quotedblleft" unicode="&#x201c;" horiz-adv-x="1677" 
d="M491.025 2959.95h371.978l-138.992 -1349.92h-569.965zM1151.03 2959.95h371.978l-138.992 -1349.92h-569.965z" />
    <glyph glyph-name="quotedblright" unicode="&#x201d;" horiz-adv-x="1677" 
d="M1186 1610.23h-371.955l138.983 1349.84h569.931zM526.045 1610.23h-371.955l138.984 1349.84h569.93z" />
    <glyph glyph-name="quotedblbase" unicode="&#x201e;" horiz-adv-x="1533" 
d="M414 -758h-372l139 1350h570zM1074 -758h-372l139 1350h570z" />
    <glyph glyph-name="dagger" unicode="&#x2020;" horiz-adv-x="1954" 
d="M1240 2860v-655h560v-414h-560v-1791h-526v1791h-560v414h560v655h526z" />
    <glyph glyph-name="daggerdbl" unicode="&#x2021;" horiz-adv-x="1954" 
d="M1240 2860v-655h560v-414h-560v-722h560v-414h-560v-655h-526v655h-560v414h560v722h-560v414h560v655h526z" />
    <glyph glyph-name="bullet" unicode="&#x2022;" horiz-adv-x="1154" 
d="M999 789h-845v802h845v-802z" />
    <glyph glyph-name="ellipsis" unicode="&#x2026;" horiz-adv-x="2617" 
d="M718 0h-564v592h564v-592zM1590 0h-564v592h564v-592zM2462 0h-564v592h564v-592z" />
    <glyph glyph-name="perthousand" unicode="&#x2030;" horiz-adv-x="5119" 
d="M155 2153q0 173 50.5 314.5t143.5 242t223.5 155.5t290.5 55q159 0 289 -54.5t222 -155t142.5 -242t50.5 -314.5q0 -172 -50 -311t-142 -237.5t-222 -151.5t-291 -53t-291.5 53t-223 151.5t-142.5 237.5t-50 310zM2872 2862l-1771 -2860h-449l1766 2860h454zM575 2149
q0 -182 73.5 -278t212.5 -96q138 0 211.5 96t73.5 277q0 93 -19.5 166.5t-56.5 124.5t-90 78.5t-120 27.5q-66 0 -119 -27t-90 -78t-56.5 -124.5t-19.5 -166.5zM1943 692q0 173 50.5 314.5t143.5 242t223.5 155.5t290.5 55q159 0 289 -54.5t222.5 -155t142.5 -242t50 -314.5
q0 -172 -50 -311t-142 -237.5t-222 -151.5t-291 -53t-291.5 53t-223 151.5t-142.5 237.5t-50 310zM3553 692q0 173 50.5 314.5t143.5 242t223.5 155.5t289.5 55t289.5 -54.5t222.5 -155t142.5 -242t50.5 -314.5q0 -172 -50 -311t-142 -237.5t-222 -151.5t-291 -53t-291.5 53
t-223 151.5t-142.5 237.5t-50 310zM2363 688q0 -182 73.5 -278t212.5 -96t212 96t73 277q0 93 -19.5 166.5t-56.5 124.5t-90 78.5t-120 27.5q-66 0 -119 -27t-90 -78t-56.5 -124.5t-19.5 -166.5zM3973 688q0 -182 73 -278t212 -96t212 96t73 277q0 93 -19.5 166.5t-56 124.5
t-89.5 78.5t-120 27.5t-119.5 -27t-89.5 -78t-56.5 -124.5t-19.5 -166.5z" />
    <glyph glyph-name="guilsinglleft" unicode="&#x2039;" horiz-adv-x="1897" 
d="M1230 2098h590l-1091 -996l1091 -993h-590l-1075 992z" />
    <glyph glyph-name="guilsinglright" unicode="&#x203a;" horiz-adv-x="1897" 
d="M668.075 109.128h-589.964l1090.93 995.939l-1090.93 992.939h589.964l1074.93 -991.939z" />
    <glyph glyph-name="fraction" unicode="&#x2044;" horiz-adv-x="2739" 
d="M154 0l2084 2960h347l-2084 -2960h-347z" />
    <glyph glyph-name="uni2074" unicode="&#x2074;" horiz-adv-x="1608" 
d="M930 1430v322h-776v309l734 799h366v-831h200v-277h-200v-322h-324zM930 2029v486l-446 -486h446z" />
    <glyph glyph-name="Euro" unicode="&#x20ac;" horiz-adv-x="3177" 
d="M124 1293h260q-2 34 -3.5 68t-1.5 69t1 68.5t3 66.5h-259v282h299q56 246 175 444.5t290 338t389 215t471 75.5q263 0 483.5 -81.5t388.5 -235.5t278.5 -374.5t153.5 -498.5h-524q-66 360 -262 542t-517 182q-151 0 -278.5 -40t-227.5 -117t-171.5 -190.5t-112.5 -259.5
h788v-282h-835q-2 -33 -3.5 -66.5t-1.5 -68.5t1.5 -69.5t3.5 -67.5h835v-282h-787q41 -146 112.5 -258.5t171.5 -189.5t227 -117t278 -40q321 0 517 182t262 542h524q-43 -278 -153.5 -498.5t-278.5 -374.5t-388.5 -235.5t-483.5 -81.5q-168 0 -321.5 34t-288.5 98.5
t-249.5 157.5t-205.5 212t-156.5 262t-102.5 307h-300v282z" />
    <glyph glyph-name="trademark" unicode="&#x2122;" horiz-adv-x="3515" 
d="M3391 2860v-1573h-354v1234l-347 -1234h-384l-341 1232v-1232h-343v1573h570l316 -1165l320 1165h563zM1422 2541h-472v-1254h-353v1254h-473v319h1298v-319z" />
    <glyph glyph-name="minus" unicode="&#x2212;" horiz-adv-x="2184" 
d="M154 1236v420h1876v-420h-1876z" />
    <glyph glyph-name="ethbar" horiz-adv-x="1828" 
d="M1674 491h-1520v374h1520v-374z" />
    <glyph glyph-name="crossbar" horiz-adv-x="1752" 
d="M1599 1715l-1444 -652v362l1444 652v-362z" />
    <glyph glyph-name="ethbar.case" horiz-adv-x="1704" 
d="M1550 454h-1395v340h1395v-340z" />
    <glyph glyph-name="crossbar.case" horiz-adv-x="1383" 
d="M1229 813l-1075 -485v344l1075 486v-345z" />
    <glyph glyph-name="commaccent" horiz-adv-x="819" 
d="M497 -971h-343l79 951h432z" />
    <glyph glyph-name="commaccent2" horiz-adv-x="847" 
d="M466 -788h-312l86 638h452z" />
    <glyph glyph-name="commaccent3" horiz-adv-x="847" 
d="M381 809h312l-86 -638h-452z" />
    <glyph glyph-name="tbarnew" horiz-adv-x="1736" 
d="M1582 561h-1428v323h1428v-323z" />
    <glyph glyph-name="ogonek2" horiz-adv-x="1068" 
d="M720 139q-67 -45 -122.5 -97.5t-95 -107t-61.5 -108t-22 -101.5q0 -90 76 -132.5t228 -42.5q44 0 91 3.5t99 10.5v-314q-59 -8 -117 -11.5t-107 -3.5q-123 0 -221.5 25.5t-168 72.5t-107 114.5t-37.5 151.5q0 81 37 158.5t106.5 150t169.5 141.5t226 133z" />
    <glyph glyph-name="custombarH" horiz-adv-x="3204" 
d="M3050 500h-2896v356h2896v-356z" />
    <glyph glyph-name="dotaccent2" horiz-adv-x="760" 
d="M606 2354h-451v474h451v-474z" />
    <glyph glyph-name="Toverlaybar" horiz-adv-x="2018" 
d="M1863 647h-1709v356h1709v-356z" />
    <glyph glyph-name="ogonek3" horiz-adv-x="1000" 
d="M852 -59q-81 0 -161.5 -23t-144 -60t-103 -83.5t-39.5 -92.5q0 -63 74 -97.5t207 -34.5q41 0 84 3.5t90 10.5v-314q-56 -8 -111.5 -11.5t-103.5 -3.5q-112 0 -205 23.5t-159 66.5t-102.5 103t-36.5 134q0 88 52.5 164t145 132t219.5 88.5t276 34.5z" />
    </font>
</defs>
</svg>
