<?xml version="1.0" standalone="no"?>
<!DOCTYPE svg PUBLIC "-//W3C//DTD SVG 1.1//EN" "http://www.w3.org/Graphics/SVG/1.1/DTD/svg11.dtd" >
<svg xmlns="http://www.w3.org/2000/svg" xmlns:xlink="http://www.w3.org/1999/xlink" version="1.1">
<metadata>
Created by FontForge 20201107 at Fri Sep 22 12:26:24 2023
 By 
(c)rajeshrajput
</metadata>
<defs>
<font id="Nohemi-Black" horiz-adv-x="2376" >
  <font-face 
    font-family="Nohemi Black"
    font-weight="900"
    font-stretch="normal"
    units-per-em="4000"
    panose-1="0 0 0 0 0 0 0 0 0 0"
    ascent="3200"
    descent="-800"
    x-height="2205"
    cap-height="2860"
    bbox="-204 -971 5047 3878"
    underline-thickness="100"
    underline-position="-250"
    unicode-range="U+000D-FB02"
  />
<missing-glyph horiz-adv-x="3027" 
d="M90 2860h2847v-2860h-2847v2860zM1513 1726l620 679h-1238zM601 725l643 705l-643 706v-1411zM2426 723v1412l-643 -705zM894 455h1236l-617 679z" />
    <glyph glyph-name="fi" unicode="fi" horiz-adv-x="2735" 
d="M240 1525h-240v680h240v80q0 195 62.5 345t183 252.5t298 155t407.5 52.5q103 0 219 -10t230 -29v-630q-67 9 -135 14t-126 5q-77 0 -131.5 -9.5t-89.5 -30.5t-51.5 -53.5t-16.5 -78.5v-63h550v-680h-510v-1525h-890v1525zM2655 2400h-890v560h890v-560zM2655 0h-890
v2205h890v-2205z" />
    <glyph glyph-name="fl" unicode="fl" horiz-adv-x="2735" 
d="M240 1525h-240v680h240v80q0 195 62.5 345t183 252.5t298 155t407.5 52.5q103 0 219 -10t230 -29v-630q-67 9 -135 14t-126 5q-77 0 -131.5 -9.5t-89.5 -30.5t-51.5 -53.5t-16.5 -78.5v-63h550v-680h-510v-1525h-890v1525zM2655 0h-890v2960h890v-2960z" />
    <glyph glyph-name=".notdef" horiz-adv-x="3027" 
d="M90 2860h2847v-2860h-2847v2860zM1513 1726l620 679h-1238zM601 725l643 705l-643 706v-1411zM2426 723v1412l-643 -705zM894 455h1236l-617 679z" />
    <glyph glyph-name=".null" horiz-adv-x="0" 
 />
    <glyph glyph-name="uni000D" unicode="&#xd;" horiz-adv-x="500" 
 />
    <glyph glyph-name="space" unicode=" " horiz-adv-x="980" 
 />
    <glyph glyph-name="exclam" unicode="!" horiz-adv-x="981" 
d="M891 2860v-495l-71 -1445h-660l-69 1445v495h800zM881 0h-780v800h780v-800z" />
    <glyph glyph-name="quotedbl" unicode="&#x22;" horiz-adv-x="1857" 
d="M788 1523h-600l-98 1337h800zM1665 1523h-600l-98 1337h800z" />
    <glyph glyph-name="numbersign" unicode="#" horiz-adv-x="3008" 
d="M1598 560h-404l-70 -560h-654l70 560h-495v613h571l64 515h-496v613h572l70 559h653l-69 -559h404l70 559h654l-70 -559h495v-613h-571l-64 -515h496v-613h-572l-70 -560h-654zM1674 1173l64 515h-404l-64 -515h404z" />
    <glyph glyph-name="dollar" unicode="$" horiz-adv-x="2785" 
d="M1068 -41q-259 33 -453.5 118t-324.5 216.5t-195 306.5t-65 388h900q0 -79 31.5 -140.5t91 -104t145.5 -65t196 -22.5q93 0 169 15.5t130 43t84 66t30 84.5q0 56 -27.5 89t-88.5 54.5t-158 36t-235 31.5l-100 13q-83 10 -175.5 23t-187.5 33t-188.5 50t-178.5 74
t-157.5 104.5t-126 142t-84 187t-30.5 238.5q0 202 71 365t201.5 284.5t315 199.5t410.5 109l-35 461h720l-36 -464q228 -35 405.5 -118.5t299.5 -210.5t185.5 -295.5t63.5 -373.5h-900q0 72 -27.5 128.5t-79.5 96t-126.5 60.5t-169.5 21q-78 0 -141.5 -13.5t-109.5 -38.5
t-71 -58.5t-25 -74.5q0 -52 26.5 -84.5t85.5 -54t154 -37t233 -35.5l69 -10q88 -12 185 -27.5t195.5 -38t195 -54.5t183.5 -78t161.5 -109t129 -147t85.5 -191.5t31 -243.5q0 -199 -69 -361t-201 -283t-325 -198.5t-442 -107.5l35 -460h-720z" />
    <glyph glyph-name="percent" unicode="%" horiz-adv-x="3589" 
d="M91 2154q0 173 52.5 314t149 241.5t232.5 155.5t302 55q165 0 300 -54.5t231 -155t148.5 -242t52.5 -314.5q0 -172 -52 -311t-147.5 -237.5t-231 -151.5t-302.5 -53q-168 0 -303.5 53.5t-231.5 151.5t-148 237t-52 311zM2992 2860l-1771 -2860h-609l1766 2860h614z
M611 2152q0 -130 55 -198.5t158 -68.5t157.5 68.5t54.5 197.5q0 133 -56.5 208.5t-156.5 75.5t-156 -74.5t-56 -208.5zM2031 693q0 173 52.5 314t149 241.5t232.5 155.5t302 55t301 -54.5t231 -155t148 -242t52 -314.5q0 -172 -52 -311t-147.5 -237.5t-231 -151.5
t-302.5 -53t-303 53.5t-232 151.5t-148 237t-52 311zM2551 691q0 -130 55 -198.5t158 -68.5t157.5 68.5t54.5 197.5q0 66 -14.5 119t-42 89.5t-66.5 56t-89 19.5q-100 0 -156.5 -75t-56.5 -208z" />
    <glyph glyph-name="ampersand" unicode="&#x26;" horiz-adv-x="2927" 
d="M2566 912q0 -141 -42 -268.5t-120.5 -235.5t-190 -194.5t-251 -147.5t-303.5 -93.5t-346 -32.5q-179 0 -341.5 31.5t-301.5 89t-252 139.5t-192.5 183.5t-122.5 220t-43 248.5q0 120 37 221t104.5 176t162.5 122t212 59q-118 12 -213.5 57t-163 119.5t-103.5 174.5
t-36 221q0 131 42.5 250t121 221t190 184.5t249 141t298 90t337.5 31.5q175 0 332.5 -31t293 -88.5t247 -140.5t193.5 -186.5t132.5 -226t64.5 -259.5h-912q-17 48 -49.5 88t-77 68.5t-99 44.5t-115.5 16q-68 0 -127 -19.5t-102 -53.5t-67.5 -80t-24.5 -99q0 -50 22.5 -90.5
t63 -69.5t98 -44.5t127.5 -15.5h1569v-600h-301v-221zM1340 1133q-77 0 -141 -17.5t-109.5 -49.5t-71 -76.5t-25.5 -98.5q0 -51 23 -94t63.5 -74.5t96 -49t121.5 -17.5q80 0 148 26t117 72t76.5 110t27.5 140v129h-326z" />
    <glyph glyph-name="quotesingle" unicode="'" horiz-adv-x="981" 
d="M788 1523h-600l-98 1337h800z" />
    <glyph glyph-name="parenleft" unicode="(" horiz-adv-x="1440" 
d="M1430 2860q-111 -199 -195 -400t-140.5 -400.5t-85.5 -396t-29 -386.5t29 -387t85.5 -396.5t140.5 -401t195 -400.5l-388 -303q-243 202 -426.5 423.5t-307 458.5t-186 488.5t-62.5 514.5q0 265 63 518.5t187 491.5t308 459t425 420z" />
    <glyph glyph-name="parenright" unicode=")" horiz-adv-x="1440" 
d="M10.0869 -307.825q110.993 198.987 194.988 399.976q83.9951 200.987 140.491 400.476q56.4971 199.487 85.4951 395.976t28.998 386.477t-28.998 386.977q-28.998 196.987 -85.4951 396.476q-56.4961 199.487 -140.491 400.976q-83.9951 201.487 -194.988 400.476
l387.977 302.981q242.985 -201.988 426.474 -423.475q183.489 -221.486 306.981 -458.472q123.493 -236.985 185.989 -488.471q62.4961 -251.484 62.4961 -514.468q0 -264.984 -62.9961 -518.469t-186.989 -491.47q-123.992 -237.985 -307.98 -458.973
q-183.989 -220.986 -424.975 -419.974z" />
    <glyph glyph-name="asterisk" unicode="*" horiz-adv-x="1838" 
d="M540 2043l-480 74l192 590l440 -226l-78 479h620l-79 -487l431 221l192 -589l-489 -76l344 -341l-501 -365l-223 440l-218 -432l-502 364z" />
    <glyph glyph-name="plus" unicode="+" horiz-adv-x="2056" 
d="M708 508v630h-618v616h618v630h640v-630h618v-616h-618v-630h-640z" />
    <glyph glyph-name="comma" unicode="," horiz-adv-x="961" 
d="M495 -758h-540l146 1558h810z" />
    <glyph glyph-name="hyphen" unicode="-" horiz-adv-x="1981" 
d="M1890 798h-1800v720h1800v-720z" />
    <glyph glyph-name="period" unicode="." horiz-adv-x="961" 
d="M870 0h-780v800h780v-800z" />
    <glyph glyph-name="slash" unicode="/" horiz-adv-x="1987" 
d="M91 -758l950 3718h855l-950 -3718h-855z" />
    <glyph glyph-name="zero" unicode="0" horiz-adv-x="2880" 
d="M60 1430q0 229 47 428t134 365t211 295.5t277 218.5t332.5 136t378.5 47t378.5 -47t332.5 -136t277 -218.5t211 -295.5t134 -365t47 -428t-47 -428t-134 -365t-211 -295.5t-277 -218.5t-332.5 -136t-378.5 -47t-378.5 47t-332.5 136t-277 218.5t-211 295.5t-134 365
t-47 428zM1020 1430q0 -186 26 -321.5t78.5 -224t131.5 -131.5t184 -43q106 0 184.5 43t131 131.5t78.5 224t26 321.5t-26 322t-78.5 224.5t-131 131t-184.5 42.5q-105 0 -184 -42.5t-131.5 -131t-78.5 -224.5t-26 -322z" />
    <glyph glyph-name="one" unicode="1" horiz-adv-x="1870" 
d="M1440 750h340v-750h-1630v750h340v1122h-460v710h132q135 0 222 13.5t138 50.5t71 103.5t20 171.5h827v-2171z" />
    <glyph glyph-name="two" unicode="2" horiz-adv-x="2630" 
d="M90 0v499q0 183 44 322t118 243.5t172 179.5t206 130t219 93.5t212 70.5l67 22q101 32 194 64.5t163.5 74t112.5 96.5t42 131q0 106 -82.5 165t-230.5 59q-86 0 -147.5 -21.5t-100.5 -68t-57.5 -119t-18.5 -174.5v-60h-900v67q0 177 39.5 330.5t115 281t184.5 227
t249 167.5t309 104t363 36q273 0 491.5 -70.5t370.5 -202.5t233.5 -321t81.5 -427q0 -137 -26.5 -247t-72.5 -198t-109 -156t-136.5 -120t-154.5 -90.5t-163 -66.5t-162 -49t-151 -38l-126 -31q-58 -14 -115 -28.5t-108 -32.5t-94 -40.5t-72 -51.5h1481v-750h-2441z" />
    <glyph glyph-name="three" unicode="3" horiz-adv-x="2732" 
d="M60 1874q0 254 81.5 449t239.5 327.5t390 201t534 68.5q278 0 505 -56.5t388 -161t248.5 -251.5t87.5 -328q0 -131 -45.5 -242.5t-127.5 -196.5t-195.5 -138t-250.5 -67q177 -10 317.5 -60.5t238 -137t149.5 -206t52 -266.5q0 -198 -93 -358.5t-264 -274t-413.5 -175
t-541.5 -61.5q-316 0 -559 70.5t-407.5 209.5t-249 344t-84.5 474v5h900v-30q0 -69 29 -125t82 -95.5t128 -61t168 -21.5q88 0 161.5 19t127 53t83.5 81.5t30 103.5q0 38 -14.5 64.5t-46 43t-81 24.5t-118.5 8h-555v690h500q103 0 149 28.5t46 93.5q0 51 -25.5 93.5t-72 73
t-111 47.5t-141.5 17q-78 0 -141 -17.5t-107 -50t-67.5 -79t-23.5 -104.5v-30h-900v5z" />
    <glyph glyph-name="four" unicode="4" horiz-adv-x="2941" 
d="M1611 0v507h-1521v754l1283 1599h1158v-1623h320v-730h-320v-507h-920zM1611 1237v775l-613 -775h613z" />
    <glyph glyph-name="five" unicode="5" horiz-adv-x="2716" 
d="M2656 1026q0 -253 -89 -454t-256.5 -341.5t-407.5 -215t-542 -74.5q-290 0 -525 68.5t-400.5 194.5t-255.5 304.5t-90 399.5v23h939v-18q0 -43 24.5 -80t67 -64t101 -42.5t126.5 -15.5q78 0 142 21t110 59.5t71 92t25 118.5q0 63 -23 114t-65.5 87.5t-102 56.5t-131.5 20
q-55 0 -107 -11.5t-97.5 -33t-82 -51.5t-60.5 -68h-920v1744h2360v-760h-1440v-787q28 130 93 235.5t165.5 180.5t235.5 116t301 41q204 0 359.5 -61t261 -173.5t159.5 -271.5t54 -354z" />
    <glyph glyph-name="six" unicode="6" horiz-adv-x="2783" 
d="M1421 2920q278 0 505 -69.5t389 -196t250.5 -304t88.5 -394.5v-73h-900v45q0 45 -26.5 85t-71.5 70.5t-105 48t-127 17.5q-101 0 -183 -41t-139.5 -116t-89 -182t-31.5 -239v-315q54 245 257.5 366t560.5 121q924 0 924 -799q0 -243 -84.5 -430.5t-249 -315t-405.5 -193
t-554 -65.5q-351 0 -609 84.5t-427 255.5t-251.5 430t-82.5 608v31q0 383 88.5 676.5t261 492t426.5 300.5t585 102zM1396 711q180 0 272 77t92 227t-91 226.5t-271 76.5q-182 0 -276 -77.5t-94 -226.5t93.5 -226t274.5 -77z" />
    <glyph glyph-name="seven" unicode="7" horiz-adv-x="2488" 
d="M535 0q15 235 50 440t95 388t146.5 348.5t202.5 320.5t264 304t331 299h-1594v760h2368v-790q-152 -161 -271 -309.5t-210.5 -297.5t-158 -305.5t-114 -333t-78.5 -379.5t-51 -445h-980z" />
    <glyph glyph-name="eight" unicode="8" horiz-adv-x="2810" 
d="M1400 -60q-313 0 -561.5 60.5t-421.5 174.5t-265 277.5t-92 369.5q0 274 166.5 441t494.5 224q-566 99 -566 583q0 194 88.5 351t252.5 268t396.5 171t519.5 60t518 -60t394.5 -170.5t251.5 -267.5t88 -351q0 -485 -574 -584q334 -51 497 -210.5t163 -434.5
q0 -211 -92.5 -378.5t-266.5 -283.5t-424.5 -178t-566.5 -62zM1404 1691q197 0 291.5 58t94.5 179q0 116 -91.5 169t-292.5 53q-101 0 -173.5 -13t-119.5 -40t-69.5 -69t-22.5 -101q0 -121 93.5 -178.5t289.5 -57.5zM1405 710q230 0 340 67t110 207q0 68 -26 116.5t-80.5 80
t-139.5 46.5t-204 15q-118 0 -203.5 -15t-140 -46.5t-80.5 -80t-26 -116.5q0 -140 110 -207t340 -67z" />
    <glyph glyph-name="nine" unicode="9" horiz-adv-x="2783" 
d="M1362 -60q-185 0 -348.5 31.5t-300.5 90t-245 143.5t-183.5 192t-115.5 235t-40 272v73h900v-45q0 -45 26.5 -85t71.5 -70.5t105.5 -48t127.5 -17.5q101 0 182.5 41t139.5 116t89 182t31 239v315q-54 -245 -257.5 -366t-560.5 -121q-924 0 -924 800q0 243 85 430
t249 314.5t405 193t554 65.5q351 0 609 -84.5t427 -255.5t251.5 -430t82.5 -608v-30q0 -383 -88.5 -676.5t-261 -492.5t-426.5 -301t-585 -102zM1387 2149q-180 0 -272 -76.5t-92 -227.5q0 -150 91 -226.5t271 -76.5q182 0 276 77.5t94 226.5t-93.5 226t-274.5 77z" />
    <glyph glyph-name="colon" unicode=":" horiz-adv-x="961" 
d="M870 0h-780v800h780v-800zM870 1405h-780v800h780v-800z" />
    <glyph glyph-name="semicolon" unicode=";" horiz-adv-x="962" 
d="M870 1405h-780v800h780v-800zM495 -758h-540l146 1558h810z" />
    <glyph glyph-name="less" unicode="&#x3c;" horiz-adv-x="2161" 
d="M2071 1558l-1469 -295l1469 -294v-800l-1981 760v670l1981 759v-800z" />
    <glyph glyph-name="equal" unicode="=" horiz-adv-x="2056" 
d="M90 1544v616h1876v-616h-1876zM90 732v616h1876v-616h-1876z" />
    <glyph glyph-name="greater" unicode="&#x3e;" horiz-adv-x="2161" 
d="M90.126 969.095l1468.91 294.982l-1468.91 293.982v799.951l1980.88 -759.954v-669.959l-1980.88 -758.954v799.951z" />
    <glyph glyph-name="question" unicode="?" horiz-adv-x="2546" 
d="M1551 920h-740v205q0 104 21 186t56 146.5t80 113.5t94 86t98 64.5t91 49.5l90 47q52 27 90.5 49t64 45.5t38 52.5t12.5 71q0 39 -18 69.5t-52 52t-82.5 32.5t-109.5 11q-179 0 -264 -98.5t-85 -303.5v-50h-890v63q0 557 304.5 832.5t917.5 275.5q284 0 505.5 -57.5
t373.5 -167.5t231 -271t79 -367q0 -117 -24 -210t-64.5 -165t-93 -126.5t-109 -95.5t-113.5 -71t-105 -54l-90 -45q-58 -28 -113 -58t-98 -66t-69 -81t-26 -104v-61zM1571 0h-780v800h780v-800z" />
    <glyph glyph-name="at" unicode="@" horiz-adv-x="3855" 
d="M1970 -577q-286 0 -539 58t-465 166t-380 263.5t-285 350t-179 425.5t-62 490q0 262 63 496.5t180.5 432.5t285.5 356.5t377.5 269.5t456 170.5t522.5 59.5q268 0 509 -56t446.5 -159.5t371 -251t282 -330.5t179 -398t62.5 -453q0 -166 -30.5 -311.5t-87 -267.5
t-137.5 -218.5t-183 -163t-222.5 -102t-256.5 -35.5q-147 0 -270 41.5t-216 121t-151.5 195t-75.5 263.5q-40 -314 -168 -468t-349 -154q-151 0 -274.5 68t-212 192.5t-137 298.5t-48.5 385q0 212 48.5 385.5t136.5 298t212 192.5t274 68q213 0 340.5 -144t171.5 -437v521
h685v-1031q0 -115 36 -180.5t108 -65.5q53 0 91.5 36t63 98t36 145.5t11.5 177.5q0 181 -40.5 340t-116 291.5t-184.5 237t-245.5 177t-298.5 110.5t-344 38q-189 0 -357.5 -40.5t-310.5 -116.5t-256 -185t-193 -245t-121.5 -296.5t-42.5 -340.5t42.5 -341t121.5 -297
t191.5 -244.5t252.5 -184.5t305 -116.5t348 -40.5q87 0 174 9.5t178.5 30t190.5 51.5t210 74l181 -528q-78 -43 -179.5 -76.5t-219 -57t-246 -36t-260.5 -12.5zM2159 1158q0 169 -55 249.5t-171 80.5q-115 0 -170.5 -80.5t-55.5 -249.5q0 -170 55 -250.5t171 -80.5t171 80.5
t55 250.5z" />
    <glyph glyph-name="A" unicode="A" horiz-adv-x="2898" 
d="M-45 0l866 2860h1270l852 -2860h-1015l-103 497h-769l-106 -497h-995zM1675 1217l-230 1111l-236 -1111h466z" />
    <glyph glyph-name="B" unicode="B" horiz-adv-x="2805" 
d="M1581 2860q255 0 452.5 -42.5t332 -128.5t204 -217.5t69.5 -309.5q0 -146 -45 -264.5t-125.5 -205t-191.5 -139.5t-242 -68q155 -14 288 -71t230 -149.5t152 -217.5t55 -275q0 -187 -86.5 -331.5t-244 -242t-378.5 -148t-489 -50.5h-1472v2860h1491zM1450 1740
q116 0 182.5 53t66.5 171q0 58 -16.5 99t-48.5 67t-78.5 38t-105.5 12h-410v-440h410zM1540 680q128 0 197 53.5t69 175.5q0 123 -69.5 177t-196.5 54h-500v-460h500z" />
    <glyph glyph-name="C" unicode="C" horiz-adv-x="2948" 
d="M1020 1430q0 -186 30.5 -321.5t91.5 -224t153 -131.5t215 -43q191 0 297.5 121.5t139.5 378.5h941q-34 -295 -146 -530t-290 -399.5t-416.5 -252.5t-525.5 -88q-209 0 -397.5 47t-349.5 136t-291 218.5t-221.5 295.5t-141 365t-49.5 428t49.5 428t141 365t221.5 295.5
t291 218.5t349.5 136t397.5 47q287 0 525.5 -88t416.5 -252.5t290 -399.5t146 -530h-941q-33 257 -139.5 378.5t-297.5 121.5q-123 0 -215 -42.5t-153 -131t-91.5 -224.5t-30.5 -322z" />
    <glyph glyph-name="D" unicode="D" horiz-adv-x="2760" 
d="M90 2860h1196q208 0 393.5 -45t342.5 -130.5t282.5 -210t213.5 -283.5t135 -350.5t47 -410.5t-47 -410.5t-135 -350.5t-213.5 -283.5t-282.5 -210t-342.5 -130.5t-393.5 -45h-1196v2860zM1250 770q123 0 215 39t153 120t91.5 205.5t30.5 295.5t-30.5 295.5t-91.5 205.5
t-153 120t-215 39h-210v-1320h210z" />
    <glyph glyph-name="E" unicode="E" horiz-adv-x="2207" 
d="M2132 2860v-760h-1092v-326h982v-690h-982v-324h1122v-760h-2072v2860h2042z" />
    <glyph glyph-name="F" unicode="F" horiz-adv-x="2177" 
d="M2132 2100h-1092v-366h982v-720h-982v-1014h-950v2860h2042v-760z" />
    <glyph glyph-name="G" unicode="G" horiz-adv-x="3009" 
d="M1020 1430q0 -190 31.5 -329.5t95 -231t159 -135.5t223.5 -44q99 0 183.5 20t148.5 62t104.5 106t50.5 152h-507v500h1410v-1530h-880v575q-64 -151 -153 -269t-201 -199.5t-244 -124t-281 -42.5q-156 0 -298.5 47t-264.5 136t-221.5 218.5t-169.5 295.5t-108 365
t-38 428t49.5 428t141 365t221.5 295.5t291 218.5t349.5 136t397.5 47q176 0 339.5 -35.5t309 -103.5t269 -167.5t220 -227.5t162 -282.5t94.5 -333.5h-940q-24 101 -66.5 172.5t-101 118t-131 68t-155.5 21.5q-123 0 -215 -42.5t-153 -131t-91.5 -224.5t-30.5 -322z" />
    <glyph glyph-name="H" unicode="H" horiz-adv-x="2760" 
d="M2670 0h-950v1042h-680v-1042h-950v2860h950v-1048h680v1048h950v-2860z" />
    <glyph glyph-name="I" unicode="I" horiz-adv-x="1130" 
d="M1040 0h-950v2860h950v-2860z" />
    <glyph glyph-name="J" unicode="J" horiz-adv-x="2555" 
d="M45 1340h950v-330q0 -64 14.5 -118.5t46.5 -95t83 -63.5t124 -23t121.5 23t77.5 63.5t41 95t12 118.5v1850h950v-1870q0 -168 -42 -311.5t-119 -260t-186 -206t-243.5 -150t-291 -91.5t-328.5 -31t-328.5 31t-291 91.5t-243.5 150t-186 206t-119 260t-42 311.5v350z" />
    <glyph glyph-name="K" unicode="K" horiz-adv-x="2733" 
d="M1771 1447l1007 -1447h-1130l-608 974v-974h-950v2860h950v-1105l608 1105h1060z" />
    <glyph glyph-name="L" unicode="L" horiz-adv-x="2112" 
d="M1040 2860v-2100h1042v-760h-1992v2860h950z" />
    <glyph glyph-name="M" unicode="M" horiz-adv-x="3702" 
d="M3612 2860v-2860h-950v2065l-416 -2065h-840l-416 2068v-2068h-900v2860h1465l332 -1735l330 1735h1395z" />
    <glyph glyph-name="N" unicode="N" horiz-adv-x="2919" 
d="M2829 0h-1218l-621 1848v-1848h-900v2860h1278l561 -1670v1670h900v-2860z" />
    <glyph glyph-name="O" unicode="O" horiz-adv-x="3020" 
d="M60 1430q0 229 49.5 428t141 365t221.5 295.5t291 218.5t349.5 136t397.5 47t397.5 -47t349.5 -136t291 -218.5t221.5 -295.5t141 -365t49.5 -428t-49.5 -428t-141 -365t-221.5 -295.5t-291 -218.5t-349.5 -136t-397.5 -47t-397.5 47t-349.5 136t-291 218.5t-221.5 295.5
t-141 365t-49.5 428zM1020 1430q0 -186 30.5 -321.5t91.5 -224t153 -131.5t215 -43t215 43t153 131.5t91.5 224t30.5 321.5t-30.5 322t-91.5 224.5t-153 131t-215 42.5t-215 -42.5t-153 -131t-91.5 -224.5t-30.5 -322z" />
    <glyph glyph-name="P" unicode="P" horiz-adv-x="2740" 
d="M90 2860h1395q179 0 337.5 -32.5t291 -94t237.5 -150t178.5 -200.5t112 -244.5t38.5 -283.5q0 -226 -86 -411.5t-243 -317.5t-377 -204t-489 -72h-445v-850h-950v2860zM1450 1570q138 0 209 72t71 212q0 141 -71 213.5t-209 72.5h-410v-570h410z" />
    <glyph glyph-name="Q" unicode="Q" horiz-adv-x="3020" 
d="M60 1430q0 229 49.5 428t141 365t221.5 295.5t291 218.5t349.5 136t397.5 47t397.5 -47t349.5 -136t291 -218.5t221.5 -295.5t141 -365t49.5 -428q0 -211 -42.5 -397.5t-121 -344.5t-191 -285.5t-253.5 -221.5l545 -605h-920l-296 372q-42 -4 -84.5 -6t-86.5 -2
q-209 0 -397.5 47t-349.5 136t-291 218.5t-221.5 295.5t-141 365t-49.5 428zM990 1430q0 -186 35 -321.5t102 -224t163.5 -131.5t219.5 -43t220 43t163.5 131.5t101.5 224t35 321.5t-35 322t-101.5 224.5t-163.5 131t-220 42.5t-219.5 -42.5t-163.5 -131t-102 -224.5
t-35 -322z" />
    <glyph glyph-name="R" unicode="R" horiz-adv-x="2789" 
d="M90 0v2862h1460q282 0 494 -59.5t353.5 -174t213 -282t71.5 -383.5q0 -185 -55.5 -335.5t-159 -258.5t-250 -169.5t-329.5 -67.5q371 -22 565 -452l306 -680h-1061l-315 678q-42 90 -70 146t-51.5 86.5t-47.5 41t-59 10.5h-115v-962h-950zM1450 1652q138 0 209 62t71 182
q0 121 -71 183.5t-209 62.5h-410v-490h410z" />
    <glyph glyph-name="S" unicode="S" horiz-adv-x="2785" 
d="M1383 2920q305 0 544.5 -69.5t404.5 -201.5t252 -321.5t87 -429.5h-900q0 72 -27.5 128.5t-79.5 96t-126.5 60.5t-169.5 21q-78 0 -141.5 -13.5t-109.5 -38.5t-71 -58.5t-25 -74.5q0 -52 26.5 -84.5t85.5 -54t154 -37t233 -35.5l69 -10q88 -12 185 -27.5t195.5 -38
t195 -54.5t183.5 -78t161.5 -109t129 -147t85.5 -191.5t31 -243.5q0 -229 -91 -409t-265 -304.5t-427 -190t-576 -65.5q-340 0 -596 72t-427 207.5t-257 330t-86 438.5h900q0 -79 31.5 -140.5t91 -104t145.5 -65t196 -22.5q93 0 169 15.5t130 43t84 66t30 84.5
q0 56 -27.5 89t-88.5 54.5t-158 36t-235 31.5l-100 13q-83 10 -175.5 23t-187.5 33t-188.5 50t-178.5 74t-157.5 104.5t-126 142t-84 187t-30.5 238.5q0 236 95.5 418t269 307t415 189.5t533.5 64.5z" />
    <glyph glyph-name="T" unicode="T" horiz-adv-x="2534" 
d="M2504 2100h-762v-2100h-950v2100h-762v760h2474v-760z" />
    <glyph glyph-name="U" unicode="U" horiz-adv-x="2760" 
d="M90 2860h950v-1650q0 -145 21 -241.5t63.5 -154t106.5 -81t149 -23.5q86 0 149.5 23.5t106 81t63.5 154t21 241.5v1650h950v-1760q0 -193 -44.5 -354t-126.5 -290t-198 -226t-259 -161.5t-310.5 -96.5t-351.5 -32t-351.5 32t-310.5 96.5t-259 161.5t-198 226t-126.5 290
t-44.5 354v1760z" />
    <glyph glyph-name="V" unicode="V" horiz-adv-x="2778" 
d="M2823 2860l-806 -2860h-1270l-792 2860h1015l424 -2122l434 2122h995z" />
    <glyph glyph-name="W" unicode="W" horiz-adv-x="4384" 
d="M2839 2860l231 -2253l317 2253h967l-612 -2860h-1290l-260 2209l-259 -2209h-1290l-612 2860h1017l317 -2253l231 2253h1243z" />
    <glyph glyph-name="X" unicode="X" horiz-adv-x="2811" 
d="M2039 1454l796 -1454h-1100l-371 882l-359 -882h-1030l726 1459l-691 1401h1100l288 -847l372 847h1030z" />
    <glyph glyph-name="Y" unicode="Y" horiz-adv-x="2758" 
d="M2813 2860l-959 -1879v-981h-950v982l-959 1878h1015l424 -1014l434 1014h995z" />
    <glyph glyph-name="Z" unicode="Z" horiz-adv-x="2565" 
d="M1200 760h1275v-760h-2385v790l1178 1310h-1128v760h2235v-790z" />
    <glyph glyph-name="bracketleft" unicode="[" horiz-adv-x="1312" 
d="M1292 3012v-620h-312v-2210h312v-620h-1232v3450h1232z" />
    <glyph glyph-name="backslash" unicode="\" horiz-adv-x="1987" 
d="M1896.01 -758l-949.942 3718h-854.948l949.942 -3718h854.948z" />
    <glyph glyph-name="bracketright" unicode="]" horiz-adv-x="1312" 
d="M20.0791 -437.816v619.963h311.98v2209.86h-311.98v619.963h1231.92v-3449.79h-1231.92z" />
    <glyph glyph-name="asciicircum" unicode="^" horiz-adv-x="1735" 
d="M867 2380l-270 -850h-507l452 1330h650l452 -1330h-507z" />
    <glyph glyph-name="underscore" unicode="_" horiz-adv-x="2183" 
d="M2093 -600h-2003v600h2003v-600z" />
    <glyph glyph-name="grave" unicode="`" horiz-adv-x="1184" 
d="M90 2934h720l284 -639h-540z" />
    <glyph glyph-name="a" unicode="a" horiz-adv-x="2406" 
d="M85 1337q0 216 79 388t226.5 292t359.5 184t478 64q264 0 470.5 -64t348 -186t215.5 -300.5t74 -406.5v-1308h-890v522q-32 -134 -100.5 -242t-166 -183.5t-221 -116t-266.5 -40.5q-151 0 -275 45.5t-212 128t-136.5 199t-48.5 258.5q0 164 66.5 292t194 215.5t314 133
t425.5 45.5h426v51q0 161 -57.5 244.5t-183.5 83.5q-123 0 -179 -76.5t-56 -222.5h-885zM1180 857q-130 0 -196 -42.5t-66 -125.5q0 -77 54 -120.5t148 -43.5q65 0 124 21t104 57t71.5 83t26.5 99v72h-266z" />
    <glyph glyph-name="b" unicode="b" horiz-adv-x="2466" 
d="M970 1553q55 359 211 535.5t418 176.5q185 0 337.5 -84t261.5 -236.5t168.5 -366.5t59.5 -475t-59.5 -475t-168.5 -367t-261.5 -237t-337.5 -84q-262 0 -418 176.5t-211 536.5v-653h-890v2960h890v-1407zM970 1103q0 -208 68.5 -308t210.5 -100t209.5 100t67.5 308
q0 209 -67.5 308t-209.5 99t-210.5 -99.5t-68.5 -307.5z" />
    <glyph glyph-name="c" unicode="c" 
d="M940 1103q0 -211 69.5 -309.5t208.5 -98.5q51 0 89 14t66 43t47 73.5t31 105.5h885q-28 -230 -123.5 -413.5t-243 -312t-339 -197t-412.5 -68.5q-169 0 -322.5 36.5t-284.5 106.5t-236.5 171t-180 230t-114.5 285t-40 334q0 179 40 334t114.5 284.5t180 230.5
t236.5 170.5t284.5 106t322.5 36.5q147 0 282 -31t253 -89.5t217 -144.5t174 -196t124.5 -243.5t67.5 -286.5h-885q-12 61 -31 105.5t-47 73.5t-66 43t-89 14q-139 0 -208.5 -98t-69.5 -309z" />
    <glyph glyph-name="d" unicode="d" horiz-adv-x="2466" 
d="M2386 2960v-2960h-890v653q-55 -360 -211 -536.5t-418 -176.5q-185 0 -337.5 84t-261 237t-168.5 367t-60 475q0 174 27 327.5t77.5 282.5t123.5 231.5t165 173.5t201.5 109t232.5 38q262 0 418 -176.5t211 -535.5v1407h890zM1496 1103q0 208 -68 307.5t-210 99.5
t-210 -99t-68 -308q0 -208 68 -308t210 -100q143 0 210.5 99.5t67.5 308.5z" />
    <glyph glyph-name="e" unicode="e" 
d="M2327 771q-49 -193 -152 -347t-249 -261.5t-330.5 -165t-396.5 -57.5q-172 0 -325 38t-281.5 110t-231 174.5t-174 232t-109.5 282.5t-38 326t37.5 326.5t108 282.5t172 231.5t229 174t279 109.5t322.5 38t322.5 -38t279 -109.5t229 -174t172 -232t108 -283.5t37.5 -327
q0 -42 -2.5 -87t-7.5 -84h-1459q19 -166 110.5 -253.5t248.5 -87.5q215 0 301 182h800zM1526 1330q-30 158 -111.5 232t-220.5 74q-142 0 -221.5 -75.5t-102.5 -230.5h656z" />
    <glyph glyph-name="f" unicode="f" horiz-adv-x="1685" 
d="M240 1525h-240v680h240v80q0 195 62.5 345t183 252.5t298 155t407.5 52.5q103 0 219 -10t230 -29v-630q-67 9 -135 14t-126 5q-77 0 -131.5 -9.5t-89.5 -30.5t-51.5 -53.5t-16.5 -78.5v-63h550v-680h-510v-1525h-890v1525z" />
    <glyph glyph-name="g" unicode="g" horiz-adv-x="2466" 
d="M2386 2205v-2066q0 -229 -73.5 -407t-214.5 -300.5t-346.5 -186t-468.5 -63.5q-265 0 -476 63.5t-358 182t-225.5 288.5t-78.5 384h885q0 -145 55.5 -212t174.5 -67q123 0 179.5 74t56.5 236v707q-55 -327 -211 -487.5t-418 -160.5q-123 0 -232.5 34.5t-201.5 99.5
t-165 158t-123.5 210.5t-77.5 257.5t-27 298q0 237 60 425.5t168.5 320t261 201.5t337.5 70q131 0 235.5 -36t182.5 -111t131 -190.5t80 -274.5v552h890zM1496 1248q0 77 -17 127.5t-51.5 80.5t-86.5 42t-123 12t-123.5 -12t-87 -42t-51 -80.5t-16.5 -127.5
q0 -155 67.5 -229t210.5 -74t210.5 74t67.5 229z" />
    <glyph glyph-name="h" unicode="h" 
d="M970 0h-890v2960h890v-1456q54 387 230 574t480 187q163 0 281 -53.5t194.5 -165t113.5 -284t37 -409.5v-1353h-890v1103q0 209 -54.5 308t-168.5 99t-168.5 -99.5t-54.5 -307.5v-1103z" />
    <glyph glyph-name="i" unicode="i" horiz-adv-x="1050" 
d="M970 2400h-890v560h890v-560zM970 0h-890v2205h890v-2205z" />
    <glyph glyph-name="j" unicode="j" horiz-adv-x="1050" 
d="M970 2400h-890v560h890v-560zM970 255q0 -202 -22 -360t-71.5 -277t-128 -202t-191.5 -135t-263 -75.5t-341 -23.5h-101v690h64q49 0 80.5 10t50 34.5t26 67t7.5 106.5v2115h890v-1950z" />
    <glyph glyph-name="k" unicode="k" horiz-adv-x="2465" 
d="M1703 1116l777 -1116h-1041l-469 751v-751h-890v2960h890v-1607l469 852h987z" />
    <glyph glyph-name="l" unicode="l" horiz-adv-x="1050" 
d="M970 0h-890v2960h890v-2960z" />
    <glyph glyph-name="m" unicode="m" horiz-adv-x="3712" 
d="M970 0h-890v2205h890v-701q54 387 230 574t480 187q152 0 264.5 -46t189 -142t118.5 -244t51 -351q52 398 228 590.5t485 192.5q163 0 281 -53.5t194.5 -165t113.5 -284t37 -409.5v-1353h-890v1103q0 209 -54.5 308t-168.5 99t-168.5 -99.5t-54.5 -307.5v-1103h-890v1103
q0 209 -54.5 308t-168.5 99t-168.5 -99.5t-54.5 -307.5v-1103z" />
    <glyph glyph-name="n" unicode="n" 
d="M970 0h-890v2205h890v-701q54 387 230 574t480 187q163 0 281 -53.5t194.5 -165t113.5 -284t37 -409.5v-1353h-890v1103q0 209 -54.5 308t-168.5 99t-168.5 -99.5t-54.5 -307.5v-1103z" />
    <glyph glyph-name="o" unicode="o" horiz-adv-x="2436" 
d="M40 1103q0 179 40 334t114.5 284.5t180 230.5t236.5 170.5t284.5 106t322.5 36.5q170 0 323 -36.5t284 -106t236.5 -170.5t180 -230.5t114.5 -285t40 -333.5t-40 -334t-114.5 -285t-180 -230t-236.5 -171t-284.5 -106.5t-322.5 -36.5t-322.5 36.5t-284.5 106.5
t-236.5 171t-180 230t-114.5 285t-40 334zM940 1103q0 -211 69.5 -309.5t208.5 -98.5q140 0 209 98.5t69 309.5t-69 309t-209 98q-139 0 -208.5 -98t-69.5 -309z" />
    <glyph glyph-name="p" unicode="p" horiz-adv-x="2466" 
d="M970 1553q55 359 211 535.5t418 176.5q185 0 337.5 -84t261.5 -236.5t168.5 -366.5t59.5 -475t-59.5 -475t-168.5 -367t-261.5 -237t-337.5 -84q-262 0 -418 176.5t-211 536.5v-1411h-890v2963h890v-652zM970 1103q0 -208 68.5 -308t210.5 -100t209.5 100t67.5 308
q0 209 -67.5 308t-209.5 99t-210.5 -99.5t-68.5 -307.5z" />
    <glyph glyph-name="q" unicode="q" horiz-adv-x="2466" 
d="M2386 2205v-2963h-890v1411q-55 -360 -211 -536.5t-418 -176.5q-185 0 -337.5 84t-261 237t-168.5 367t-60 475q0 174 27 327.5t77.5 282.5t123.5 231.5t165 173.5t201.5 109t232.5 38q262 0 418 -176.5t211 -535.5v652h890zM1496 1103q0 208 -68 307.5t-210 99.5
t-210 -99t-68 -308q0 -208 68 -308t210 -100q143 0 210.5 99.5t67.5 308.5z" />
    <glyph glyph-name="r" unicode="r" horiz-adv-x="1735" 
d="M970 0h-890v2205h890v-860q17 196 53.5 354.5t102 271t165 173.5t241.5 61h178v-830h-429q-97 0 -158 -28.5t-95 -88.5t-46 -154t-12 -225v-879z" />
    <glyph glyph-name="s" unicode="s" horiz-adv-x="2350" 
d="M1128 2265q270 0 483 -56t360 -162.5t225 -260.5t78 -349h-885q0 258 -231 258q-46 0 -84 -9.5t-65 -27t-42 -42t-15 -53.5q0 -45 23.5 -74t69 -49.5t113 -35t155.5 -31.5l148 -28q63 -12 133 -26t142 -34t143.5 -46.5t136 -63t120 -84.5t96.5 -110t64 -140t23 -175
q0 -172 -75.5 -307t-219.5 -228t-352 -142t-474 -49q-282 0 -501 55.5t-368 163t-226.5 265t-77.5 361.5h885q0 -132 70 -198.5t208 -66.5q54 0 99.5 10t78.5 28.5t51 43.5t18 55q0 41 -18 66.5t-61 43.5t-114 33t-176 34l-148 27q-77 14 -170 33.5t-187.5 52t-183 80.5
t-157 119.5t-110 170t-41.5 231.5q0 170 71.5 303t207.5 225t333 140.5t447 48.5z" />
    <glyph glyph-name="t" unicode="t" horiz-adv-x="1665" 
d="M1620 17q-160 -38 -296.5 -57.5t-255.5 -19.5q-828 0 -828 938v647h-240v680h240v508h890v-508h490v-680h-490v-648q0 -73 12.5 -124.5t39 -84.5t68 -48t100.5 -15q49 0 113.5 10.5t156.5 31.5v-630z" />
    <glyph glyph-name="u" unicode="u" 
d="M1406 2205h890v-2205h-890v701q-54 -387 -229.5 -574t-480.5 -187q-163 0 -281 53.5t-194.5 165.5t-113.5 284t-37 409v1353h890v-1103q0 -208 54.5 -307.5t168.5 -99.5t168.5 99.5t54.5 307.5v1103z" />
    <glyph glyph-name="v" unicode="v" horiz-adv-x="2410" 
d="M2435 2205l-669 -2205h-1130l-661 2205h945l292 -1546l298 1546h925z" />
    <glyph glyph-name="w" unicode="w" horiz-adv-x="3723" 
d="M2480 2205l162 -1593l230 1593h860l-456 -2205h-1230l-185 1671l-184 -1671h-1230l-457 2205h905l229 -1638l166 1638h1190z" />
    <glyph glyph-name="x" unicode="x" horiz-adv-x="2565" 
d="M1961 1116l618 -1116h-1018l-289 705l-279 -705h-964l558 1105l-602 1100h1018l275 -713l273 713h964z" />
    <glyph glyph-name="y" unicode="y" horiz-adv-x="2410" 
d="M2435 2205l-734 -2152q-77 -227 -183.5 -391.5t-248 -271t-321.5 -157.5t-405 -51q-115 0 -242.5 13.5t-271.5 39.5v680q93 -14 169 -21t142 -7q121 0 211.5 24t165.5 78l-742 2216h945l292 -1546l298 1546h925z" />
    <glyph glyph-name="z" unicode="z" horiz-adv-x="2211" 
d="M1030 680h1146v-680h-2141v720l1014 805h-975v680h2025v-720z" />
    <glyph glyph-name="braceleft" unicode="{" horiz-adv-x="1624" 
d="M1604 2392h-50q-72 0 -121.5 -15t-81 -46t-45.5 -79.5t-14 -115.5v-130q0 -75 -2 -155t-13 -156.5t-36 -146t-70.5 -124.5t-116.5 -91t-175 -47q104 -11 175 -47.5t116.5 -91.5t70.5 -125t36 -148t13 -160t2 -162v-130q0 -64 13.5 -109.5t44.5 -74.5t81 -42.5t123 -13.5
h50v-620h-282q-468 0 -709 218t-241 641v204q0 84 -15 144t-46.5 98.5t-81.5 56.5t-119 18h-50v690h50q71 0 120.5 17.5t81 56t46 98.5t14.5 145v204q0 425 240 642t710 217h282v-620z" />
    <glyph glyph-name="bar" unicode="|" horiz-adv-x="981" 
d="M90 -370v3600h800v-3600h-800z" />
    <glyph glyph-name="braceright" unicode="}" horiz-adv-x="1624" 
d="M20.0977 182.146h49.9971q71.9961 0 121.493 14.999q49.4961 14.999 80.9941 45.9971t45.498 79.4951q13.999 48.4971 13.999 115.493v129.991q0 74.9961 2 154.991q1.99902 79.9951 12.999 156.49q10.999 76.4951 35.998 145.991q24.998 69.4951 70.4951 124.492
t116.493 90.9941q70.9951 35.998 174.989 46.9971q-103.994 11 -174.989 47.4971q-70.9961 36.498 -116.493 91.4951q-45.4971 54.9961 -70.4951 124.992q-24.999 69.9961 -35.998 147.991q-11 77.9951 -12.999 159.99q-2 81.9951 -2 161.989v129.992
q0 63.9961 -13.499 109.494q-13.5 45.4971 -44.498 74.4951t-80.9951 42.4971q-49.9961 13.499 -122.992 13.499h-49.9971v619.963h281.983q467.971 0 708.956 -217.987q240.985 -217.986 240.985 -640.961v-203.987q0 -83.9951 14.999 -143.991t46.4971 -98.4941
q31.498 -38.4971 81.4951 -56.4961t118.993 -17.999h49.9971v-689.958h-49.9971q-70.9961 0 -120.493 -17.499q-49.4961 -17.499 -80.9951 -55.9961q-31.498 -38.498 -45.9971 -98.4941q-14.499 -59.9971 -14.499 -144.991v-203.987q0 -424.975 -239.985 -641.961
q-239.985 -216.987 -709.956 -216.987h-281.983v619.963z" />
    <glyph glyph-name="asciitilde" unicode="~" horiz-adv-x="2400" 
d="M2309 2338q0 -295 -28 -496t-92.5 -325t-169.5 -178t-260 -54q-90 0 -176 15t-164.5 37t-147 48t-124.5 48l-97 38q-39 15 -82.5 32t-88.5 30.5t-90 22.5t-87 9q-43 0 -71.5 -11.5t-46 -40t-24.5 -76.5t-7 -120v-11h-463v20q0 281 31.5 480t99.5 326.5t174 186.5t256 59
q77 0 151.5 -13.5t142 -33t126.5 -42.5t104 -41l97 -39q46 -19 96 -38.5t101.5 -35.5t103 -26t100.5 -10t82 12t53.5 39.5t29.5 72.5t9 111v24h462v-20z" />
    <glyph glyph-name="exclamdown" unicode="&#xa1;" horiz-adv-x="981" 
d="M891 -654.825v494.97l-71 1444.91h-660l-69 -1444.91v-494.97h800zM881 2205h-780v-799.951h780v799.951z" />
    <glyph glyph-name="cent" unicode="&#xa2;" 
d="M940 1103q0 -211 69.5 -309.5t208.5 -98.5q51 0 89 14t66 43t47 73.5t31 105.5h885q-22 -186 -89.5 -341.5t-171 -276.5t-239 -205.5t-295.5 -126.5l37 -482h-720l37 478q-190 45 -347.5 143t-270.5 242t-175 331t-62 410t62 410t175 331t270.5 242t348.5 143l-38 476
h720l-38 -481q160 -42 296 -126t239.5 -205t171 -277t89.5 -342h-885q-12 61 -31 105.5t-47 73.5t-66 43t-89 14q-139 0 -208.5 -98t-69.5 -309z" />
    <glyph glyph-name="sterling" unicode="&#xa3;" horiz-adv-x="2765" 
d="M1795 1898v71q0 52 -22 95t-62 74.5t-94.5 49t-120.5 17.5q-72 0 -131 -21t-102 -58.5t-66.5 -90.5t-23.5 -116q0 -31 5 -66t12.5 -70t16.5 -67.5t16 -58.5l14 -47h986v-600h-929q-38 -106 -126.5 -179t-227.5 -111h1765v-720h-2615v720h229q116 0 172.5 46.5t56.5 148.5
q0 22 -2.5 45.5t-6.5 49.5h-449v600h264q-23 81 -40.5 179.5t-17.5 204.5q0 138 38 260t110 225t175 184.5t232.5 138.5t283 87.5t326.5 30.5q177 0 336 -32t294 -91t243 -143.5t184 -190.5t116.5 -230t40.5 -263v-72h-880z" />
    <glyph glyph-name="currency" unicode="&#xa4;" horiz-adv-x="3027" 
d="M90 2860h2847v-2860h-2847v2860zM1513 1726l620 679h-1238zM601 725l643 705l-643 706v-1411zM2426 723v1412l-643 -705zM894 455h1236l-617 679z" />
    <glyph glyph-name="yen" unicode="&#xa5;" horiz-adv-x="2758" 
d="M2427 1280h-421l-91 -180h512v-500h-573v-600h-950v600h-573v500h513l-92 180h-421v500h166l-552 1080h1015l424 -1014l434 1014h995l-551 -1080h165v-500z" />
    <glyph glyph-name="brokenbar" unicode="&#xa6;" horiz-adv-x="981" 
d="M90 1670v1560h800v-1560h-800zM90 -370v1560h800v-1560h-800z" />
    <glyph glyph-name="section" unicode="&#xa7;" horiz-adv-x="2350" 
d="M1128 2920q270 0 483 -56t360 -162.5t225 -260.5t78 -349h-885q0 258 -231 258q-46 0 -84 -9.5t-65 -27t-42 -42t-15 -53.5q0 -45 23.5 -74t69 -49t113 -34.5t155.5 -31.5l148 -28q84 -16 180 -36.5t191.5 -53t183.5 -80.5t155 -118t107.5 -166.5t40.5 -225.5
q0 -136 -46.5 -247.5t-137.5 -199.5q41 -36 75 -80t58 -96.5t37.5 -114.5t13.5 -135q0 -172 -75.5 -307t-219.5 -228t-352 -142t-474 -49q-282 0 -501 56t-368 163.5t-226.5 265t-77.5 360.5h885q0 -131 70 -198t208 -67q54 0 99.5 10t78.5 28.5t51 43.5t18 55
q0 41 -18 66.5t-61 43.5t-114 33t-176 34l-148 27q-77 14 -170 33.5t-187.5 52t-183 80.5t-157 120t-110 170.5t-41.5 231.5q0 135 45 246t133 199q-40 36 -72.5 80.5t-56 97t-36.5 115t-13 134.5q0 170 71.5 303t207.5 225t333 140.5t447 48.5zM1210 1176q50 2 91.5 12.5
t71 28.5t46 42.5t16.5 52.5q0 38 -15 62t-50.5 41.5t-93 31.5t-142.5 30q-82 -5 -132 -41t-50 -91q0 -38 16.5 -64.5t49 -45.5t81 -32.5t111.5 -26.5z" />
    <glyph glyph-name="dieresis" unicode="&#xa8;" horiz-adv-x="1581" 
d="M714 2292h-624v640h624v-640zM1490 2292h-624v640h624v-640z" />
    <glyph glyph-name="copyright" unicode="&#xa9;" horiz-adv-x="3701" 
d="M1865 3218q252 0 481.5 -61.5t426.5 -174.5t357 -273t273.5 -357t175 -426.5t61.5 -481.5q0 -255 -63 -487.5t-178 -433t-277.5 -364t-362 -279t-430.5 -178.5t-484 -63q-252 0 -482 62.5t-428 177t-359.5 276t-276 360t-176.5 428.5t-62 481q0 253 63 484t178.5 430.5
t278.5 361.5t363.5 277.5t433 178t487.5 62.5zM1862 2769q-191 0 -363.5 -45.5t-319 -130t-264.5 -204.5t-201.5 -269t-128 -324t-44.5 -368t44.5 -367.5t126.5 -323t198.5 -269t261 -205t313.5 -130t355 -45.5q189 0 360 46.5t317.5 133t265.5 209t202.5 274t129 328
t45.5 371.5q0 191 -43.5 363t-125 319t-197.5 264.5t-260 200.5t-313.5 127.5t-358.5 44.5zM1600 1428q0 -214 68 -315t205 -101q113 0 178.5 69t84.5 220h578q-17 -179 -88.5 -322.5t-184.5 -243.5t-260.5 -153.5t-317.5 -53.5q-185 0 -342 63t-271.5 180t-179 283.5
t-64.5 373.5t64.5 373.5t179 283.5t271.5 180t342 63q170 0 317.5 -53.5t260.5 -153.5t184.5 -243t88.5 -323h-578q-19 151 -84.5 220t-178.5 69q-137 0 -205 -100.5t-68 -315.5z" />
    <glyph glyph-name="ordfeminine" unicode="&#xaa;" horiz-adv-x="1686" 
d="M132 2317q0 141 51.5 253t147.5 190t233.5 119.5t310.5 41.5q172 0 306 -41.5t226 -121t140 -195t48 -264.5v-851h-578v340q-21 -87 -65.5 -157.5t-108 -119.5t-143.5 -75.5t-173 -26.5q-98 0 -178.5 29.5t-138 83.5t-89 129.5t-31.5 167.5q0 107 43 190t126 140
t204 86.5t277 29.5h277v34q0 105 -37.5 159t-119.5 54q-79 0 -115.5 -50t-36.5 -145h-576zM844 2005q-170 0 -170 -109q0 -50 35 -78t96 -28q42 0 80.5 13.5t68 37t46.5 54t17 64.5v46h-173z" />
    <glyph glyph-name="guillemotleft" unicode="&#xab;" horiz-adv-x="3144" 
d="M911 2098h950l-868 -994l868 -995h-950l-820 992zM2149 2098h950l-868 -994l868 -995h-950l-820 992z" />
    <glyph glyph-name="logicalnot" unicode="&#xac;" horiz-adv-x="3027" 
d="M90 2860h2847v-2860h-2847v2860zM1513 1726l620 679h-1238zM601 725l643 705l-643 706v-1411zM2426 723v1412l-643 -705zM894 455h1236l-617 679z" />
    <glyph glyph-name="registered" unicode="&#xae;" horiz-adv-x="3701" 
d="M1865 3218q252 0 481.5 -61.5t426.5 -174.5t357.5 -273t273.5 -357.5t174.5 -426.5t61.5 -481q0 -254 -62.5 -487t-178 -433.5t-277.5 -364t-361.5 -279t-431 -178.5t-484.5 -63q-251 0 -481 62.5t-428.5 177t-360 276t-275.5 360t-176.5 428.5t-62.5 482q0 253 63 484
t178.5 430t278.5 361.5t363.5 277.5t433.5 177.5t487 62.5zM1862 2769q-191 0 -363 -45.5t-319 -130t-265 -204.5t-201 -269t-128 -323.5t-45 -368.5q0 -192 44.5 -366.5t126.5 -323.5t198 -269t260.5 -204.5t313.5 -130.5t356 -46q189 0 360.5 47t318 133t265 209t202 274
t129 328t45.5 372q0 191 -44 363t-125 318.5t-197 264.5t-260.5 200.5t-314 127t-357.5 44.5zM1133 585v1692h894q323 0 492.5 -136.5t169.5 -396.5q0 -108 -36 -199t-100.5 -157.5t-155 -105.5t-200.5 -44q250 -15 360 -261l177 -392h-653l-182 391q-26 56 -42.5 88.5
t-30 49.5t-27 21.5t-32.5 4.5h-46v-555h-588zM1938 1539q80 0 121 36t41 105t-41.5 105.5t-120.5 36.5h-217v-283h217z" />
    <glyph glyph-name="macron" unicode="&#xaf;" horiz-adv-x="1380" 
d="M1290 2420h-1200v420h1200v-420z" />
    <glyph glyph-name="degree" unicode="&#xb0;" horiz-adv-x="1436" 
d="M61 2273q0 141 49 259.5t136.5 205t208 135t263.5 48.5t263.5 -48.5t208 -135t136.5 -205t49 -259.5t-49 -260t-136.5 -205.5t-208 -135t-263.5 -48.5t-263.5 48.5t-208 135t-136.5 205.5t-49 260zM524 2273q0 -113 49.5 -172t145.5 -59q95 0 144 58.5t49 172.5
q0 113 -49 171.5t-144 58.5q-96 0 -145.5 -58.5t-49.5 -171.5z" />
    <glyph glyph-name="plusminus" unicode="&#xb1;" horiz-adv-x="2056" 
d="M708 508v630h-618v616h618v630h640v-630h618v-616h-618v-630h-640zM90 0v616h1876v-616h-1876z" />
    <glyph glyph-name="twosuperior" unicode="&#xb2;" horiz-adv-x="1429" 
d="M90 1431v254q0 93 22 164t58.5 124t83.5 90.5t97 63.5t98.5 43.5t88.5 29.5l114 37q39 12 79.5 26.5t73.5 35t54 48t21 66.5q0 54 -42 84t-118 30q-87 0 -125.5 -45.5t-38.5 -149.5v-31h-459v35q0 135 45 243t128 184t202 116.5t267 40.5q140 0 251 -36t188.5 -103.5
t119 -164t41.5 -217.5q0 -93 -23 -162.5t-61.5 -120t-87.5 -84.5t-100.5 -57t-102 -36.5t-90.5 -23.5l-116 -28q-24 -6 -49.5 -12.5t-49.5 -15.5t-44.5 -20t-35.5 -26h755v-382h-1244z" />
    <glyph glyph-name="threesuperior" unicode="&#xb3;" horiz-adv-x="1505" 
d="M90 2390q0 129 41.5 227.5t121.5 166t197.5 102t270.5 34.5q141 0 256 -29t196.5 -82t126 -127.5t44.5 -166.5q0 -67 -23 -124t-64.5 -100t-99.5 -70t-127 -34q90 -5 161 -30.5t120.5 -69t76 -104t26.5 -134.5q0 -100 -47 -181.5t-133.5 -139t-209.5 -88.5t-276 -31
q-320 0 -489 140.5t-169 413.5v6h456v-16q0 -70 56 -111.5t151 -41.5q44 0 81.5 9.5t64.5 27t42 41.5t15 52q0 38 -30 54.5t-101 16.5h-282v350h254q52 0 75.5 14.5t23.5 47.5q0 26 -13 47.5t-36.5 37t-56.5 24t-72 8.5q-80 0 -126 -34t-46 -93v-15h-456v2z" />
    <glyph glyph-name="acute" unicode="&#xb4;" horiz-adv-x="1184" 
d="M1094.01 2934h-719.956l-283.983 -639h539.968z" />
    <glyph glyph-name="paragraph" unicode="&#xb6;" horiz-adv-x="3420" 
d="M3330 -758h-900v3618h900v-3618zM2223 -758h-900v1496h-95q-256 0 -465.5 76t-359 215.5t-231.5 335t-82 434.5t82 434.5t231.5 335t359 215.5t465.5 76h995v-3618z" />
    <glyph glyph-name="periodcentered" unicode="&#xb7;" horiz-adv-x="961" 
d="M870 800h-780v800h780v-800z" />
    <glyph glyph-name="cedilla" unicode="&#xb8;" horiz-adv-x="1002" 
d="M472 8l-32 -159q106 -2 193 -25t149 -63t96 -95t34 -122q0 -73 -41 -133.5t-114.5 -103.5t-176.5 -67t-227 -24q-60 0 -125.5 6t-137.5 17v292q53 -14 98 -19.5t83 -5.5q89 0 135 25.5t46 58.5q0 19 -18 38.5t-54.5 35.5t-92 25.5t-130.5 9.5l55 309h260z" />
    <glyph glyph-name="onesuperior" unicode="&#xb9;" horiz-adv-x="1055" 
d="M796 1806h170v-375h-815v375h170v561h-230v355h66q67 0 110.5 6.5t69 22t35.5 42.5t10 69h414v-1056z" />
    <glyph glyph-name="ordmasculine" unicode="&#xba;" horiz-adv-x="1712" 
d="M90 2165q0 174 57.5 313.5t160 238t243 151t305.5 52.5t305 -52.5t242.5 -151t160 -238t57.5 -313.5t-57.5 -314t-160 -238t-242.5 -151t-305 -53t-305.5 53t-243 151t-160 238t-57.5 314zM675 2165q0 -138 45 -201.5t136 -63.5q92 0 136 63.5t44 201.5t-44 201t-136 63
q-91 0 -136 -63t-45 -201z" />
    <glyph glyph-name="guillemotright" unicode="&#xbb;" horiz-adv-x="3144" 
d="M2233.06 109.128h-949.942l867.947 993.939l-867.947 994.939h949.942l819.95 -991.939zM995.131 109.128h-949.941l867.946 993.939l-867.946 994.939h949.941l819.95 -991.939z" />
    <glyph glyph-name="onequarter" unicode="&#xbc;" horiz-adv-x="2939" 
d="M796 1805h170v-375h-815v375h170v561h-230v355h66q67 0 110.5 6.5t69 22t35.5 42.5t10 69h414v-1056zM2230 0l-1 254h-760v377l642 799h579v-811h160v-365h-160v-254h-460zM2230 619v387l-307 -387h307zM160 0l2084 2960h535l-2084 -2960h-535z" />
    <glyph glyph-name="onehalf" unicode="&#xbd;" horiz-adv-x="3037" 
d="M160 0l2084 2960h535l-2084 -2960h-535zM1697 1v254q0 93 22 164t58.5 124t83.5 90.5t97 63.5t98.5 43.5t88.5 29.5l114 37q39 12 79.5 26.5t73.5 35t54 48t21 66.5q0 54 -42 84t-118 30q-87 0 -125.5 -45.5t-38.5 -149.5v-31h-459v35q0 135 45 243t128 184t202 116.5
t267 40.5q140 0 251 -36t188.5 -103.5t119 -164t41.5 -217.5q0 -93 -23 -162.5t-61.5 -120t-87.5 -84.5t-100.5 -57t-102 -36.5t-90.5 -23.5l-116 -28q-24 -6 -49.5 -12.5t-49.5 -15.5t-44.5 -20t-35.5 -26h755v-382h-1244zM796 1806h170v-375h-815v375h170v561h-230v355h66
q67 0 110.5 6.5t69 22t35.5 42.5t10 69h414v-1056z" />
    <glyph glyph-name="threequarters" unicode="&#xbe;" horiz-adv-x="3229" 
d="M2520 0l-1 254h-760v377l642 799h579v-811h160v-365h-160v-254h-460zM2520 619v387l-307 -387h307zM90 2390q0 129 41.5 227.5t121.5 166t197.5 102t270.5 34.5q141 0 256 -29t196.5 -82t126 -127.5t44.5 -166.5q0 -67 -23 -124t-64.5 -100t-99.5 -70t-127 -34
q90 -5 161 -30.5t120.5 -69t76 -104t26.5 -134.5q0 -100 -47 -181.5t-133.5 -139t-209.5 -88.5t-276 -31q-320 0 -489 140.5t-169 413.5v6h456v-16q0 -70 56 -111.5t151 -41.5q44 0 81.5 9.5t64.5 27t42 41.5t15 52q0 38 -30 54.5t-101 16.5h-282v350h254q52 0 75.5 14.5
t23.5 47.5q0 26 -13 47.5t-36.5 37t-56.5 24t-72 8.5q-80 0 -126 -34t-46 -93v-15h-456v2zM440 0l2084 2960h535l-2084 -2960h-535z" />
    <glyph glyph-name="questiondown" unicode="&#xbf;" horiz-adv-x="2546" 
d="M995.095 1285.06h739.955v-204.988q0 -103.993 -20.999 -185.988t-55.9961 -146.491q-34.998 -64.4961 -79.9961 -113.493q-44.9971 -48.9971 -93.9941 -85.9941q-48.9971 -36.998 -97.9941 -64.4961q-48.9961 -27.499 -90.9941 -49.4971l-89.9941 -46.9971
q-51.9971 -26.999 -90.4951 -48.9971q-38.4971 -21.999 -63.9961 -45.4971q-25.498 -23.499 -37.9971 -52.4971t-12.499 -70.9961q0 -38.9971 17.999 -69.4951q17.998 -30.498 51.9961 -51.9971t82.4951 -32.498t109.493 -10.999q178.989 0 263.984 98.4932
q84.9941 98.4941 84.9941 303.481v49.9971h889.946v-62.9961q0 -556.966 -304.481 -832.449t-917.444 -275.483q-283.982 0 -505.469 57.4971q-221.486 57.4961 -373.478 167.489q-151.99 109.994 -230.985 270.984q-78.9951 160.989 -78.9951 366.978
q0 116.992 23.998 209.986q23.998 92.9951 64.4961 164.99q40.4971 71.9961 92.9941 126.492q52.4971 54.4971 108.993 95.4941q56.4971 40.998 113.493 70.9961q56.9971 29.998 104.994 53.9961l89.9941 44.998q57.9961 27.998 112.993 57.9961t97.9941 65.9961
t68.9961 80.9951q25.998 44.9971 25.998 103.993v60.9971zM975.096 2205h779.952v-799.951h-779.952v799.951z" />
    <glyph glyph-name="Agrave" unicode="&#xc0;" horiz-adv-x="2898" 
d="M-45 0l866 2860h1270l852 -2860h-1015l-103 497h-769l-106 -497h-995zM1675 1217l-230 1111l-236 -1111h466zM720 3649h720l284 -639h-540z" />
    <glyph glyph-name="Aacute" unicode="&#xc1;" horiz-adv-x="2898" 
d="M-45 0l866 2860h1270l852 -2860h-1015l-103 497h-769l-106 -497h-995zM1675 1217l-230 1111l-236 -1111h466zM2178.01 3649h-719.956l-283.983 -639h539.968z" />
    <glyph glyph-name="Acircumflex" unicode="&#xc2;" horiz-adv-x="2898" 
d="M-45 0l866 2860h1270l852 -2860h-1015l-103 497h-769l-106 -497h-995zM1675 1217l-230 1111l-236 -1111h466zM1613 3010l-164 242l-164 -242h-510l324 639h700l324 -639h-510z" />
    <glyph glyph-name="Atilde" unicode="&#xc3;" horiz-adv-x="2898" 
d="M-45 0l866 2860h1270l852 -2860h-1015l-103 497h-769l-106 -497h-995zM1675 1217l-230 1111l-236 -1111h466zM2107 3651q0 -177 -19 -302.5t-60.5 -204.5t-107.5 -115.5t-160 -36.5q-49 0 -91.5 8t-78.5 20t-64.5 25t-48.5 23l-70 35q-18 9 -39.5 19t-46 19t-51 15
t-53.5 6q-25 0 -46 -7t-35 -23.5t-22 -44t-8 -69.5v-6h-270v12q0 170 21 294.5t65 205.5t111.5 120t159.5 39q44 0 82.5 -7.5t70.5 -18.5t58 -23.5t44 -22.5l66 -35q18 -9 40.5 -20.5t50 -21.5t59 -16.5t65.5 -6.5q25 0 46.5 7.5t37.5 24t25 43t9 65.5v12h260v-12z" />
    <glyph glyph-name="Adieresis" unicode="&#xc4;" horiz-adv-x="2898" 
d="M-45 0l866 2860h1270l852 -2860h-1015l-103 497h-769l-106 -497h-995zM1675 1217l-230 1111l-236 -1111h466zM1373 3007h-624v640h624v-640zM2149 3007h-624v640h624v-640z" />
    <glyph glyph-name="Aring" unicode="&#xc5;" horiz-adv-x="2898" 
d="M-45 0l866 2860h1270l852 -2860h-1015l-103 497h-769l-106 -497h-995zM1675 1217l-230 1111l-236 -1111h466zM1010 3444q0 100 33 180.5t92 136.5t139.5 86.5t175.5 30.5t175.5 -30.5t139.5 -86.5t92 -136.5t33 -180.5t-33 -180.5t-92 -136.5t-139.5 -86.5t-175.5 -30.5
t-175.5 30.5t-139.5 86.5t-92 136.5t-33 180.5zM1326 3443q0 -79 34.5 -116t89.5 -37q54 0 89 37t35 116q0 80 -35 117t-89 37q-55 0 -89.5 -37t-34.5 -117z" />
    <glyph glyph-name="AE" unicode="&#xc6;" horiz-adv-x="3720" 
d="M-45 0l1022 2860h2667v-760h-1092v-326h982v-690h-982v-324h1122v-760h-2072v497h-516l-136 -497h-995zM1602 1217v1165l-319 -1165h319z" />
    <glyph glyph-name="Ccedilla" unicode="&#xc7;" horiz-adv-x="2948" 
d="M1020 1430q0 -186 30.5 -321.5t91.5 -224t153 -131.5t215 -43q191 0 297.5 121.5t139.5 378.5h941q-34 -295 -146 -530t-290 -399.5t-416.5 -252.5t-525.5 -88q-209 0 -397.5 47t-349.5 136t-291 218.5t-221.5 295.5t-141 365t-49.5 428t49.5 428t141 365t221.5 295.5
t291 218.5t349.5 136t397.5 47q287 0 525.5 -88t416.5 -252.5t290 -399.5t146 -530h-941q-33 257 -139.5 378.5t-297.5 121.5q-123 0 -215 -42.5t-153 -131t-91.5 -224.5t-30.5 -322zM1647 8l-32 -159q106 -2 193 -25t149 -63t96 -95t34 -122q0 -73 -41 -133.5
t-114.5 -103.5t-176.5 -67t-227 -24q-60 0 -125.5 6t-137.5 17v292q53 -14 98 -19.5t83 -5.5q89 0 135 25.5t46 58.5q0 19 -18 38.5t-54.5 35.5t-92 25.5t-130.5 9.5l55 309h260z" />
    <glyph glyph-name="Egrave" unicode="&#xc8;" horiz-adv-x="2207" 
d="M2132 2860v-760h-1092v-326h982v-690h-982v-324h1122v-760h-2072v2860h2042zM388 3648h720l284 -639h-540z" />
    <glyph glyph-name="Eacute" unicode="&#xc9;" horiz-adv-x="2207" 
d="M2132 2860v-760h-1092v-326h982v-690h-982v-324h1122v-760h-2072v2860h2042zM1846.01 3648h-719.956l-283.983 -639h539.968z" />
    <glyph glyph-name="Ecircumflex" unicode="&#xca;" horiz-adv-x="2207" 
d="M2132 2860v-760h-1092v-326h982v-690h-982v-324h1122v-760h-2072v2860h2042zM1281 3009l-164 242l-164 -242h-510l324 639h700l324 -639h-510z" />
    <glyph glyph-name="Edieresis" unicode="&#xcb;" horiz-adv-x="2207" 
d="M2132 2860v-760h-1092v-326h982v-690h-982v-324h1122v-760h-2072v2860h2042zM1041 3006h-624v640h624v-640zM1817 3006h-624v640h624v-640z" />
    <glyph glyph-name="Igrave" unicode="&#xcc;" horiz-adv-x="1130" 
d="M1040 0h-950v2860h950v-2860zM-164 3649h720l284 -639h-540z" />
    <glyph glyph-name="Iacute" unicode="&#xcd;" horiz-adv-x="1130" 
d="M1040 0h-950v2860h950v-2860zM1294.01 3649h-719.956l-283.983 -639h539.968z" />
    <glyph glyph-name="Icircumflex" unicode="&#xce;" horiz-adv-x="1130" 
d="M1040 0h-950v2860h950v-2860zM729 3010l-164 242l-164 -242h-510l324 639h700l324 -639h-510z" />
    <glyph glyph-name="Idieresis" unicode="&#xcf;" horiz-adv-x="1130" 
d="M1040 0h-950v2860h950v-2860zM489 3007h-624v640h624v-640zM1265 3007h-624v640h624v-640z" />
    <glyph glyph-name="Eth" unicode="&#xd0;" horiz-adv-x="2760" 
d="M90 2860h1196q208 0 393.5 -45t342.5 -130.5t282.5 -210t213.5 -283.5t135 -350.5t47 -410.5t-47 -410.5t-135 -350.5t-213.5 -283.5t-282.5 -210t-342.5 -130.5t-393.5 -45h-1196v2860zM1250 770q123 0 215 39t153 120t91.5 205.5t30.5 295.5t-30.5 295.5t-91.5 205.5
t-153 120t-215 39h-210v-1320h210zM1429 1165h-1520v550h1520v-550z" />
    <glyph glyph-name="Ntilde" unicode="&#xd1;" horiz-adv-x="2919" 
d="M2829 0h-1218l-621 1848v-1848h-900v2860h1278l561 -1670v1670h900v-2860zM2117 3651q0 -177 -19 -302.5t-60.5 -204.5t-107.5 -115.5t-160 -36.5q-49 0 -91.5 8t-78.5 20t-64.5 25t-48.5 23l-70 35q-18 9 -39.5 19t-46 19t-51 15t-53.5 6q-25 0 -46 -7t-35 -23.5
t-22 -44t-8 -69.5v-6h-270v12q0 170 21 294.5t65 205.5t111.5 120t159.5 39q44 0 82.5 -7.5t70.5 -18.5t58 -23.5t44 -22.5l66 -35q18 -9 40.5 -20.5t50 -21.5t59 -16.5t65.5 -6.5q25 0 46.5 7.5t37.5 24t25 43t9 65.5v12h260v-12z" />
    <glyph glyph-name="Ograve" unicode="&#xd2;" horiz-adv-x="3020" 
d="M60 1430q0 229 49.5 428t141 365t221.5 295.5t291 218.5t349.5 136t397.5 47t397.5 -47t349.5 -136t291 -218.5t221.5 -295.5t141 -365t49.5 -428t-49.5 -428t-141 -365t-221.5 -295.5t-291 -218.5t-349.5 -136t-397.5 -47t-397.5 47t-349.5 136t-291 218.5t-221.5 295.5
t-141 365t-49.5 428zM1020 1430q0 -186 30.5 -321.5t91.5 -224t153 -131.5t215 -43t215 43t153 131.5t91.5 224t30.5 321.5t-30.5 322t-91.5 224.5t-153 131t-215 42.5t-215 -42.5t-153 -131t-91.5 -224.5t-30.5 -322zM781 3649h720l284 -639h-540z" />
    <glyph glyph-name="Oacute" unicode="&#xd3;" horiz-adv-x="3020" 
d="M60 1430q0 229 49.5 428t141 365t221.5 295.5t291 218.5t349.5 136t397.5 47t397.5 -47t349.5 -136t291 -218.5t221.5 -295.5t141 -365t49.5 -428t-49.5 -428t-141 -365t-221.5 -295.5t-291 -218.5t-349.5 -136t-397.5 -47t-397.5 47t-349.5 136t-291 218.5t-221.5 295.5
t-141 365t-49.5 428zM1020 1430q0 -186 30.5 -321.5t91.5 -224t153 -131.5t215 -43t215 43t153 131.5t91.5 224t30.5 321.5t-30.5 322t-91.5 224.5t-153 131t-215 42.5t-215 -42.5t-153 -131t-91.5 -224.5t-30.5 -322zM2239.01 3649h-719.956l-283.983 -639h539.968z" />
    <glyph glyph-name="Ocircumflex" unicode="&#xd4;" horiz-adv-x="3020" 
d="M60 1430q0 229 49.5 428t141 365t221.5 295.5t291 218.5t349.5 136t397.5 47t397.5 -47t349.5 -136t291 -218.5t221.5 -295.5t141 -365t49.5 -428t-49.5 -428t-141 -365t-221.5 -295.5t-291 -218.5t-349.5 -136t-397.5 -47t-397.5 47t-349.5 136t-291 218.5t-221.5 295.5
t-141 365t-49.5 428zM1020 1430q0 -186 30.5 -321.5t91.5 -224t153 -131.5t215 -43t215 43t153 131.5t91.5 224t30.5 321.5t-30.5 322t-91.5 224.5t-153 131t-215 42.5t-215 -42.5t-153 -131t-91.5 -224.5t-30.5 -322zM1674 3010l-164 242l-164 -242h-510l324 639h700
l324 -639h-510z" />
    <glyph glyph-name="Otilde" unicode="&#xd5;" horiz-adv-x="3020" 
d="M60 1430q0 229 49.5 428t141 365t221.5 295.5t291 218.5t349.5 136t397.5 47t397.5 -47t349.5 -136t291 -218.5t221.5 -295.5t141 -365t49.5 -428t-49.5 -428t-141 -365t-221.5 -295.5t-291 -218.5t-349.5 -136t-397.5 -47t-397.5 47t-349.5 136t-291 218.5t-221.5 295.5
t-141 365t-49.5 428zM1020 1430q0 -186 30.5 -321.5t91.5 -224t153 -131.5t215 -43t215 43t153 131.5t91.5 224t30.5 321.5t-30.5 322t-91.5 224.5t-153 131t-215 42.5t-215 -42.5t-153 -131t-91.5 -224.5t-30.5 -322zM2168 3651q0 -177 -19 -302.5t-60.5 -204.5
t-107.5 -115.5t-160 -36.5q-49 0 -91.5 8t-78.5 20t-64.5 25t-48.5 23l-70 35q-18 9 -39.5 19t-46 19t-51 15t-53.5 6q-25 0 -46 -7t-35 -23.5t-22 -44t-8 -69.5v-6h-270v12q0 170 21 294.5t65 205.5t111.5 120t159.5 39q44 0 82.5 -7.5t70.5 -18.5t58 -23.5t44 -22.5
l66 -35q18 -9 40.5 -20.5t50 -21.5t59 -16.5t65.5 -6.5q25 0 46.5 7.5t37.5 24t25 43t9 65.5v12h260v-12z" />
    <glyph glyph-name="Odieresis" unicode="&#xd6;" horiz-adv-x="3020" 
d="M60 1430q0 229 49.5 428t141 365t221.5 295.5t291 218.5t349.5 136t397.5 47t397.5 -47t349.5 -136t291 -218.5t221.5 -295.5t141 -365t49.5 -428t-49.5 -428t-141 -365t-221.5 -295.5t-291 -218.5t-349.5 -136t-397.5 -47t-397.5 47t-349.5 136t-291 218.5t-221.5 295.5
t-141 365t-49.5 428zM1020 1430q0 -186 30.5 -321.5t91.5 -224t153 -131.5t215 -43t215 43t153 131.5t91.5 224t30.5 321.5t-30.5 322t-91.5 224.5t-153 131t-215 42.5t-215 -42.5t-153 -131t-91.5 -224.5t-30.5 -322zM1434 3007h-624v640h624v-640zM2210 3007h-624v640h624
v-640z" />
    <glyph glyph-name="multiply" unicode="&#xd7;" horiz-adv-x="2076" 
d="M1553 507l-515 515l-523 -523l-424 424l523 523l-515 515l424 424l515 -515l523 524l425 -425l-524 -523l515 -515z" />
    <glyph glyph-name="Oslash" unicode="&#xd8;" horiz-adv-x="3020" 
d="M425 391q-86 96 -154 210t-115 244.5t-71.5 277t-24.5 307.5q0 229 49.5 428t141 365t221.5 295.5t291 218.5t349.5 136t397.5 47q198 0 375 -41t333 -121l131 162h611l-365 -451q86 -96 154 -210t115 -244.5t71.5 -277t24.5 -307.5q0 -229 -49.5 -428t-141 -365
t-221.5 -295.5t-291 -218.5t-349.5 -136t-397.5 -47q-198 0 -375.5 41.5t-332.5 120.5l-132 -162h-610zM1020 1430q0 -118 12 -216l714 883q-97 53 -236 53q-123 0 -215 -42.5t-153 -131t-91.5 -224.5t-30.5 -322zM1277 761q98 -51 233 -51q123 0 215 43t153 131.5t91.5 224
t30.5 321.5q0 115 -12 211z" />
    <glyph glyph-name="Ugrave" unicode="&#xd9;" horiz-adv-x="2760" 
d="M90 2860h950v-1650q0 -145 21 -241.5t63.5 -154t106.5 -81t149 -23.5q86 0 149.5 23.5t106 81t63.5 154t21 241.5v1650h950v-1760q0 -193 -44.5 -354t-126.5 -290t-198 -226t-259 -161.5t-310.5 -96.5t-351.5 -32t-351.5 32t-310.5 96.5t-259 161.5t-198 226t-126.5 290
t-44.5 354v1760zM651 3649h720l284 -639h-540z" />
    <glyph glyph-name="Uacute" unicode="&#xda;" horiz-adv-x="2760" 
d="M90 2860h950v-1650q0 -145 21 -241.5t63.5 -154t106.5 -81t149 -23.5q86 0 149.5 23.5t106 81t63.5 154t21 241.5v1650h950v-1760q0 -193 -44.5 -354t-126.5 -290t-198 -226t-259 -161.5t-310.5 -96.5t-351.5 -32t-351.5 32t-310.5 96.5t-259 161.5t-198 226t-126.5 290
t-44.5 354v1760zM2109.01 3649h-719.956l-283.983 -639h539.968z" />
    <glyph glyph-name="Ucircumflex" unicode="&#xdb;" horiz-adv-x="2760" 
d="M90 2860h950v-1650q0 -145 21 -241.5t63.5 -154t106.5 -81t149 -23.5q86 0 149.5 23.5t106 81t63.5 154t21 241.5v1650h950v-1760q0 -193 -44.5 -354t-126.5 -290t-198 -226t-259 -161.5t-310.5 -96.5t-351.5 -32t-351.5 32t-310.5 96.5t-259 161.5t-198 226t-126.5 290
t-44.5 354v1760zM1544 3010l-164 242l-164 -242h-510l324 639h700l324 -639h-510z" />
    <glyph glyph-name="Udieresis" unicode="&#xdc;" horiz-adv-x="2760" 
d="M90 2860h950v-1650q0 -145 21 -241.5t63.5 -154t106.5 -81t149 -23.5q86 0 149.5 23.5t106 81t63.5 154t21 241.5v1650h950v-1760q0 -193 -44.5 -354t-126.5 -290t-198 -226t-259 -161.5t-310.5 -96.5t-351.5 -32t-351.5 32t-310.5 96.5t-259 161.5t-198 226t-126.5 290
t-44.5 354v1760zM1304 3007h-624v640h624v-640zM2080 3007h-624v640h624v-640z" />
    <glyph glyph-name="Yacute" unicode="&#xdd;" horiz-adv-x="2758" 
d="M2813 2860l-959 -1879v-981h-950v982l-959 1878h1015l424 -1014l434 1014h995zM2108.01 3649h-719.956l-283.983 -639h539.968z" />
    <glyph glyph-name="Thorn" unicode="&#xde;" horiz-adv-x="2740" 
d="M90 2860h950v-466h365q187 0 353.5 -31.5t308.5 -92t255.5 -148t193 -199t122 -246t42.5 -288.5t-39 -288.5t-112 -246t-176.5 -199t-232.5 -148t-281 -92t-321 -31.5h-478v-384h-950v2860zM1450 1104q138 0 209 72t71 212q0 141 -71 213.5t-209 72.5h-410v-570h410z" />
    <glyph glyph-name="germandbls" unicode="&#xdf;" horiz-adv-x="2567" 
d="M90 1874q0 254 75.5 449t221.5 327.5t361.5 201t494.5 68.5q172 0 323 -25.5t278 -74t227 -118t169.5 -158t106.5 -193.5t37 -225q0 -134 -45 -248.5t-127 -200.5t-196 -140t-251 -68q179 -10 320 -62t238 -141t148 -214t51 -281q0 -189 -73.5 -342t-209 -262
t-326.5 -168t-426 -59q-54 0 -100 3.5t-85 11t-72.5 18.5t-64.5 27v732q62 -22 136 -22q69 0 127.5 18.5t100.5 51t66 75.5t24 92q0 37 -15 66.5t-48 50.5t-85.5 32t-126.5 11h-180v690h131q105 0 154.5 33.5t49.5 104.5q0 46 -19.5 85.5t-54 68t-82.5 45t-104 16.5
q-57 0 -103.5 -17.5t-78.5 -50t-49.5 -79t-17.5 -104.5v-1899h-900v1874z" />
    <glyph glyph-name="agrave" unicode="&#xe0;" horiz-adv-x="2406" 
d="M85 1337q0 216 79 388t226.5 292t359.5 184t478 64q264 0 470.5 -64t348 -186t215.5 -300.5t74 -406.5v-1308h-890v522q-32 -134 -100.5 -242t-166 -183.5t-221 -116t-266.5 -40.5q-151 0 -275 45.5t-212 128t-136.5 199t-48.5 258.5q0 164 66.5 292t194 215.5t314 133
t425.5 45.5h426v51q0 161 -57.5 244.5t-183.5 83.5q-123 0 -179 -76.5t-56 -222.5h-885zM1180 857q-130 0 -196 -42.5t-66 -125.5q0 -77 54 -120.5t148 -43.5q65 0 124 21t104 57t71.5 83t26.5 99v72h-266zM499 2994h720l284 -639h-540z" />
    <glyph glyph-name="aacute" unicode="&#xe1;" horiz-adv-x="2406" 
d="M85 1337q0 216 79 388t226.5 292t359.5 184t478 64q264 0 470.5 -64t348 -186t215.5 -300.5t74 -406.5v-1308h-890v522q-32 -134 -100.5 -242t-166 -183.5t-221 -116t-266.5 -40.5q-151 0 -275 45.5t-212 128t-136.5 199t-48.5 258.5q0 164 66.5 292t194 215.5t314 133
t425.5 45.5h426v51q0 161 -57.5 244.5t-183.5 83.5q-123 0 -179 -76.5t-56 -222.5h-885zM1180 857q-130 0 -196 -42.5t-66 -125.5q0 -77 54 -120.5t148 -43.5q65 0 124 21t104 57t71.5 83t26.5 99v72h-266zM1957.01 2994h-719.956l-283.983 -639h539.968z" />
    <glyph glyph-name="acircumflex" unicode="&#xe2;" horiz-adv-x="2406" 
d="M85 1337q0 216 79 388t226.5 292t359.5 184t478 64q264 0 470.5 -64t348 -186t215.5 -300.5t74 -406.5v-1308h-890v522q-32 -134 -100.5 -242t-166 -183.5t-221 -116t-266.5 -40.5q-151 0 -275 45.5t-212 128t-136.5 199t-48.5 258.5q0 164 66.5 292t194 215.5t314 133
t425.5 45.5h426v51q0 161 -57.5 244.5t-183.5 83.5q-123 0 -179 -76.5t-56 -222.5h-885zM1180 857q-130 0 -196 -42.5t-66 -125.5q0 -77 54 -120.5t148 -43.5q65 0 124 21t104 57t71.5 83t26.5 99v72h-266zM1392 2355l-164 242l-164 -242h-510l324 639h700l324 -639h-510z
" />
    <glyph glyph-name="atilde" unicode="&#xe3;" horiz-adv-x="2406" 
d="M85 1337q0 216 79 388t226.5 292t359.5 184t478 64q264 0 470.5 -64t348 -186t215.5 -300.5t74 -406.5v-1308h-890v522q-32 -134 -100.5 -242t-166 -183.5t-221 -116t-266.5 -40.5q-151 0 -275 45.5t-212 128t-136.5 199t-48.5 258.5q0 164 66.5 292t194 215.5t314 133
t425.5 45.5h426v51q0 161 -57.5 244.5t-183.5 83.5q-123 0 -179 -76.5t-56 -222.5h-885zM1180 857q-130 0 -196 -42.5t-66 -125.5q0 -77 54 -120.5t148 -43.5q65 0 124 21t104 57t71.5 83t26.5 99v72h-266zM1886 2996q0 -177 -19 -302.5t-60.5 -204.5t-107.5 -115.5
t-160 -36.5q-49 0 -91.5 8t-78.5 20t-64.5 25t-48.5 23l-70 35q-18 9 -39.5 19t-46 19t-51 15t-53.5 6q-25 0 -46 -7t-35 -23.5t-22 -44t-8 -69.5v-6h-270v12q0 170 21 294.5t65 205.5t111.5 120t159.5 39q44 0 82.5 -7.5t70.5 -18.5t58 -23.5t44 -22.5l66 -35
q18 -9 40.5 -20.5t50 -21.5t59 -16.5t65.5 -6.5q25 0 46.5 7.5t37.5 24t25 43t9 65.5v12h260v-12z" />
    <glyph glyph-name="adieresis" unicode="&#xe4;" horiz-adv-x="2406" 
d="M85 1337q0 216 79 388t226.5 292t359.5 184t478 64q264 0 470.5 -64t348 -186t215.5 -300.5t74 -406.5v-1308h-890v522q-32 -134 -100.5 -242t-166 -183.5t-221 -116t-266.5 -40.5q-151 0 -275 45.5t-212 128t-136.5 199t-48.5 258.5q0 164 66.5 292t194 215.5t314 133
t425.5 45.5h426v51q0 161 -57.5 244.5t-183.5 83.5q-123 0 -179 -76.5t-56 -222.5h-885zM1180 857q-130 0 -196 -42.5t-66 -125.5q0 -77 54 -120.5t148 -43.5q65 0 124 21t104 57t71.5 83t26.5 99v72h-266zM1152 2352h-624v640h624v-640zM1928 2352h-624v640h624v-640z" />
    <glyph glyph-name="aring" unicode="&#xe5;" horiz-adv-x="2406" 
d="M85 1337q0 216 79 388t226.5 292t359.5 184t478 64q264 0 470.5 -64t348 -186t215.5 -300.5t74 -406.5v-1308h-890v522q-32 -134 -100.5 -242t-166 -183.5t-221 -116t-266.5 -40.5q-151 0 -275 45.5t-212 128t-136.5 199t-48.5 258.5q0 164 66.5 292t194 215.5t314 133
t425.5 45.5h426v51q0 161 -57.5 244.5t-183.5 83.5q-123 0 -179 -76.5t-56 -222.5h-885zM1180 857q-130 0 -196 -42.5t-66 -125.5q0 -77 54 -120.5t148 -43.5q65 0 124 21t104 57t71.5 83t26.5 99v72h-266zM789 2789q0 100 33 180.5t92 136.5t139.5 86.5t175.5 30.5
t175.5 -30.5t139.5 -86.5t92 -136.5t33 -180.5t-33 -180.5t-92 -136.5t-139.5 -86.5t-175.5 -30.5t-175.5 30.5t-139.5 86.5t-92 136.5t-33 180.5zM1105 2788q0 -79 34.5 -116t89.5 -37q54 0 89 37t35 116q0 80 -35 117t-89 37q-55 0 -89.5 -37t-34.5 -117z" />
    <glyph glyph-name="ae" unicode="&#xe6;" horiz-adv-x="3783" 
d="M85 1337q0 216 79 388t226.5 292t359.5 184t478 64q222 0 401.5 -44.5t316.5 -131.5q135 85 297.5 130.5t350.5 45.5q171 0 322.5 -38t279 -109.5t229 -174t172 -232t108 -283.5t37.5 -327q0 -42 -2.5 -87t-7.5 -84h-1459q18 -166 105 -253.5t236 -87.5q104 0 174.5 44.5
t114.5 137.5h800q-49 -193 -150.5 -347t-246 -261.5t-326.5 -165t-391 -57.5q-189 0 -354.5 47.5t-300.5 135.5t-236.5 213.5t-163.5 282.5q-21 -155 -88.5 -280.5t-173.5 -214t-244.5 -136.5t-301.5 -48q-159 0 -289 45.5t-223 128.5t-143.5 200t-50.5 261q0 163 66.5 290
t194 214t314 132.5t425.5 45.5h426v51q0 161 -57.5 244.5t-183.5 83.5q-123 0 -179 -76.5t-56 -222.5h-885zM2932 1330q-30 158 -111 232t-221 74q-141 0 -221 -75.5t-102 -230.5h655zM1180 857q-130 0 -196 -42.5t-66 -125.5q0 -77 54 -120.5t148 -43.5q65 0 124 21t104 57
t71.5 83t26.5 99v72h-266z" />
    <glyph glyph-name="ccedilla" unicode="&#xe7;" 
d="M940 1103q0 -211 69.5 -309.5t208.5 -98.5q51 0 89 14t66 43t47 73.5t31 105.5h885q-28 -230 -123.5 -413.5t-243 -312t-339 -197t-412.5 -68.5q-169 0 -322.5 36.5t-284.5 106.5t-236.5 171t-180 230t-114.5 285t-40 334q0 179 40 334t114.5 284.5t180 230.5
t236.5 170.5t284.5 106t322.5 36.5q147 0 282 -31t253 -89.5t217 -144.5t174 -196t124.5 -243.5t67.5 -286.5h-885q-12 61 -31 105.5t-47 73.5t-66 43t-89 14q-139 0 -208.5 -98t-69.5 -309zM1325 8l-32 -159q106 -2 193 -25t149 -63t96 -95t34 -122q0 -73 -41 -133.5
t-114.5 -103.5t-176.5 -67t-227 -24q-60 0 -125.5 6t-137.5 17v292q53 -14 98 -19.5t83 -5.5q89 0 135 25.5t46 58.5q0 19 -18 38.5t-54.5 35.5t-92 25.5t-130.5 9.5l55 309h260z" />
    <glyph glyph-name="egrave" unicode="&#xe8;" 
d="M2327 771q-49 -193 -152 -347t-249 -261.5t-330.5 -165t-396.5 -57.5q-172 0 -325 38t-281.5 110t-231 174.5t-174 232t-109.5 282.5t-38 326t37.5 326.5t108 282.5t172 231.5t229 174t279 109.5t322.5 38t322.5 -38t279 -109.5t229 -174t172 -232t108 -283.5t37.5 -327
q0 -42 -2.5 -87t-7.5 -84h-1459q19 -166 110.5 -253.5t248.5 -87.5q215 0 301 182h800zM1526 1330q-30 158 -111.5 232t-220.5 74q-142 0 -221.5 -75.5t-102.5 -230.5h656zM459 2994h720l284 -639h-540z" />
    <glyph glyph-name="eacute" unicode="&#xe9;" 
d="M2327 771q-49 -193 -152 -347t-249 -261.5t-330.5 -165t-396.5 -57.5q-172 0 -325 38t-281.5 110t-231 174.5t-174 232t-109.5 282.5t-38 326t37.5 326.5t108 282.5t172 231.5t229 174t279 109.5t322.5 38t322.5 -38t279 -109.5t229 -174t172 -232t108 -283.5t37.5 -327
q0 -42 -2.5 -87t-7.5 -84h-1459q19 -166 110.5 -253.5t248.5 -87.5q215 0 301 182h800zM1526 1330q-30 158 -111.5 232t-220.5 74q-142 0 -221.5 -75.5t-102.5 -230.5h656zM1917.01 2994h-719.956l-283.983 -639h539.968z" />
    <glyph glyph-name="ecircumflex" unicode="&#xea;" 
d="M2327 771q-49 -193 -152 -347t-249 -261.5t-330.5 -165t-396.5 -57.5q-172 0 -325 38t-281.5 110t-231 174.5t-174 232t-109.5 282.5t-38 326t37.5 326.5t108 282.5t172 231.5t229 174t279 109.5t322.5 38t322.5 -38t279 -109.5t229 -174t172 -232t108 -283.5t37.5 -327
q0 -42 -2.5 -87t-7.5 -84h-1459q19 -166 110.5 -253.5t248.5 -87.5q215 0 301 182h800zM1526 1330q-30 158 -111.5 232t-220.5 74q-142 0 -221.5 -75.5t-102.5 -230.5h656zM1352 2355l-164 242l-164 -242h-510l324 639h700l324 -639h-510z" />
    <glyph glyph-name="edieresis" unicode="&#xeb;" 
d="M2327 771q-49 -193 -152 -347t-249 -261.5t-330.5 -165t-396.5 -57.5q-172 0 -325 38t-281.5 110t-231 174.5t-174 232t-109.5 282.5t-38 326t37.5 326.5t108 282.5t172 231.5t229 174t279 109.5t322.5 38t322.5 -38t279 -109.5t229 -174t172 -232t108 -283.5t37.5 -327
q0 -42 -2.5 -87t-7.5 -84h-1459q19 -166 110.5 -253.5t248.5 -87.5q215 0 301 182h800zM1526 1330q-30 158 -111.5 232t-220.5 74q-142 0 -221.5 -75.5t-102.5 -230.5h656zM1112 2352h-624v640h624v-640zM1888 2352h-624v640h624v-640z" />
    <glyph glyph-name="igrave" unicode="&#xec;" horiz-adv-x="1050" 
d="M970 0h-890v2205h890v-2205zM-204 2994h720l284 -639h-540z" />
    <glyph glyph-name="iacute" unicode="&#xed;" horiz-adv-x="1050" 
d="M970 0h-890v2205h890v-2205zM1254.01 2994h-719.956l-283.983 -639h539.968z" />
    <glyph glyph-name="icircumflex" unicode="&#xee;" horiz-adv-x="1050" 
d="M970 0h-890v2205h890v-2205zM689 2355l-164 242l-164 -242h-510l324 639h700l324 -639h-510z" />
    <glyph glyph-name="idieresis" unicode="&#xef;" horiz-adv-x="1050" 
d="M970 0h-890v2205h890v-2205zM449 2352h-624v640h624v-640zM1225 2352h-624v640h624v-640z" />
    <glyph glyph-name="eth" unicode="&#xf0;" horiz-adv-x="2436" 
d="M40 1138q0 226 56 416t156.5 328t239.5 215.5t304 77.5q142 0 263 -58t215 -164.5t157 -256.5t89 -335q-10 173 -36 317t-74.5 270.5t-121.5 240t-177 224.5l-369 -175l-153 309l248 119q-53 43 -110.5 87.5t-121.5 91.5l286 412q156 -68 294 -143t261 -159l375 178
l153 -310l-227 -108q329 -308 489 -708t160 -903q0 -173 -38.5 -326.5t-111.5 -283t-177.5 -232t-236.5 -174.5t-289 -110t-334 -38t-332.5 38t-285.5 110.5t-232 177t-173 238t-108.5 293t-37.5 341.5zM940 1103q0 -208 68.5 -308t210.5 -100t209.5 100t67.5 308
q0 209 -67.5 308t-209.5 99t-210.5 -99.5t-68.5 -307.5z" />
    <glyph glyph-name="ntilde" unicode="&#xf1;" 
d="M970 0h-890v2205h890v-701q54 387 230 574t480 187q163 0 281 -53.5t194.5 -165t113.5 -284t37 -409.5v-1353h-890v1103q0 209 -54.5 308t-168.5 99t-168.5 -99.5t-54.5 -307.5v-1103zM1851 2996q0 -177 -19 -302.5t-60.5 -204.5t-107.5 -115.5t-160 -36.5q-49 0 -91.5 8
t-78.5 20t-64.5 25t-48.5 23l-70 35q-18 9 -39.5 19t-46 19t-51 15t-53.5 6q-25 0 -46 -7t-35 -23.5t-22 -44t-8 -69.5v-6h-270v12q0 170 21 294.5t65 205.5t111.5 120t159.5 39q44 0 82.5 -7.5t70.5 -18.5t58 -23.5t44 -22.5l66 -35q18 -9 40.5 -20.5t50 -21.5t59 -16.5
t65.5 -6.5q25 0 46.5 7.5t37.5 24t25 43t9 65.5v12h260v-12z" />
    <glyph glyph-name="ograve" unicode="&#xf2;" horiz-adv-x="2436" 
d="M40 1103q0 179 40 334t114.5 284.5t180 230.5t236.5 170.5t284.5 106t322.5 36.5q170 0 323 -36.5t284 -106t236.5 -170.5t180 -230.5t114.5 -285t40 -333.5t-40 -334t-114.5 -285t-180 -230t-236.5 -171t-284.5 -106.5t-322.5 -36.5t-322.5 36.5t-284.5 106.5
t-236.5 171t-180 230t-114.5 285t-40 334zM940 1103q0 -211 69.5 -309.5t208.5 -98.5q140 0 209 98.5t69 309.5t-69 309t-209 98q-139 0 -208.5 -98t-69.5 -309zM489 2994h720l284 -639h-540z" />
    <glyph glyph-name="oacute" unicode="&#xf3;" horiz-adv-x="2436" 
d="M40 1103q0 179 40 334t114.5 284.5t180 230.5t236.5 170.5t284.5 106t322.5 36.5q170 0 323 -36.5t284 -106t236.5 -170.5t180 -230.5t114.5 -285t40 -333.5t-40 -334t-114.5 -285t-180 -230t-236.5 -171t-284.5 -106.5t-322.5 -36.5t-322.5 36.5t-284.5 106.5
t-236.5 171t-180 230t-114.5 285t-40 334zM940 1103q0 -211 69.5 -309.5t208.5 -98.5q140 0 209 98.5t69 309.5t-69 309t-209 98q-139 0 -208.5 -98t-69.5 -309zM1947.01 2994h-719.956l-283.983 -639h539.968z" />
    <glyph glyph-name="ocircumflex" unicode="&#xf4;" horiz-adv-x="2436" 
d="M40 1103q0 179 40 334t114.5 284.5t180 230.5t236.5 170.5t284.5 106t322.5 36.5q170 0 323 -36.5t284 -106t236.5 -170.5t180 -230.5t114.5 -285t40 -333.5t-40 -334t-114.5 -285t-180 -230t-236.5 -171t-284.5 -106.5t-322.5 -36.5t-322.5 36.5t-284.5 106.5
t-236.5 171t-180 230t-114.5 285t-40 334zM940 1103q0 -211 69.5 -309.5t208.5 -98.5q140 0 209 98.5t69 309.5t-69 309t-209 98q-139 0 -208.5 -98t-69.5 -309zM1382 2355l-164 242l-164 -242h-510l324 639h700l324 -639h-510z" />
    <glyph glyph-name="otilde" unicode="&#xf5;" horiz-adv-x="2436" 
d="M40 1103q0 179 40 334t114.5 284.5t180 230.5t236.5 170.5t284.5 106t322.5 36.5q170 0 323 -36.5t284 -106t236.5 -170.5t180 -230.5t114.5 -285t40 -333.5t-40 -334t-114.5 -285t-180 -230t-236.5 -171t-284.5 -106.5t-322.5 -36.5t-322.5 36.5t-284.5 106.5
t-236.5 171t-180 230t-114.5 285t-40 334zM940 1103q0 -211 69.5 -309.5t208.5 -98.5q140 0 209 98.5t69 309.5t-69 309t-209 98q-139 0 -208.5 -98t-69.5 -309zM1876 2996q0 -177 -19 -302.5t-60.5 -204.5t-107.5 -115.5t-160 -36.5q-49 0 -91.5 8t-78.5 20t-64.5 25
t-48.5 23l-70 35q-18 9 -39.5 19t-46 19t-51 15t-53.5 6q-25 0 -46 -7t-35 -23.5t-22 -44t-8 -69.5v-6h-270v12q0 170 21 294.5t65 205.5t111.5 120t159.5 39q44 0 82.5 -7.5t70.5 -18.5t58 -23.5t44 -22.5l66 -35q18 -9 40.5 -20.5t50 -21.5t59 -16.5t65.5 -6.5
q25 0 46.5 7.5t37.5 24t25 43t9 65.5v12h260v-12z" />
    <glyph glyph-name="odieresis" unicode="&#xf6;" horiz-adv-x="2436" 
d="M40 1103q0 179 40 334t114.5 284.5t180 230.5t236.5 170.5t284.5 106t322.5 36.5q170 0 323 -36.5t284 -106t236.5 -170.5t180 -230.5t114.5 -285t40 -333.5t-40 -334t-114.5 -285t-180 -230t-236.5 -171t-284.5 -106.5t-322.5 -36.5t-322.5 36.5t-284.5 106.5
t-236.5 171t-180 230t-114.5 285t-40 334zM940 1103q0 -211 69.5 -309.5t208.5 -98.5q140 0 209 98.5t69 309.5t-69 309t-209 98q-139 0 -208.5 -98t-69.5 -309zM1142 2352h-624v640h624v-640zM1918 2352h-624v640h624v-640z" />
    <glyph glyph-name="divide" unicode="&#xf7;" horiz-adv-x="2432" 
d="M90.001 1138v616h2251.22v-616h-2251.22zM1576.02 1955h-702.02v720.02h702.02v-720.02zM1576.02 217h-702.02v720.02h702.02v-720.02z" />
    <glyph glyph-name="oslash" unicode="&#xf8;" horiz-adv-x="2436" 
d="M2088 1925q145 -149 226.5 -357t81.5 -465q0 -178 -40 -334t-114.5 -285t-180 -230t-236.5 -171t-284.5 -106.5t-322.5 -36.5q-165 0 -312.5 34t-276.5 99l-109 -133h-450l279 340q-146 151 -227.5 358t-81.5 465q0 179 40 334t114.5 284.5t180 230.5t236.5 170.5
t284.5 106t322.5 36.5q165 0 312.5 -33.5t276.5 -99.5l109 133h450zM940 1103q0 -17 0.5 -32.5t1.5 -30.5l373 456q-44 14 -97 14q-139 0 -208.5 -98t-69.5 -309zM1121 709q45 -14 97 -14q140 0 209 98.5t69 309.5q0 17 -0.5 32t-1.5 30z" />
    <glyph glyph-name="ugrave" unicode="&#xf9;" 
d="M1406 2205h890v-2205h-890v701q-54 -387 -229.5 -574t-480.5 -187q-163 0 -281 53.5t-194.5 165.5t-113.5 284t-37 409v1353h890v-1103q0 -208 54.5 -307.5t168.5 -99.5t168.5 99.5t54.5 307.5v1103zM454 2994h720l284 -639h-540z" />
    <glyph glyph-name="uacute" unicode="&#xfa;" 
d="M1406 2205h890v-2205h-890v701q-54 -387 -229.5 -574t-480.5 -187q-163 0 -281 53.5t-194.5 165.5t-113.5 284t-37 409v1353h890v-1103q0 -208 54.5 -307.5t168.5 -99.5t168.5 99.5t54.5 307.5v1103zM1912.01 2994h-719.956l-283.983 -639h539.968z" />
    <glyph glyph-name="ucircumflex" unicode="&#xfb;" 
d="M1406 2205h890v-2205h-890v701q-54 -387 -229.5 -574t-480.5 -187q-163 0 -281 53.5t-194.5 165.5t-113.5 284t-37 409v1353h890v-1103q0 -208 54.5 -307.5t168.5 -99.5t168.5 99.5t54.5 307.5v1103zM1347 2355l-164 242l-164 -242h-510l324 639h700l324 -639h-510z" />
    <glyph glyph-name="udieresis" unicode="&#xfc;" 
d="M1406 2205h890v-2205h-890v701q-54 -387 -229.5 -574t-480.5 -187q-163 0 -281 53.5t-194.5 165.5t-113.5 284t-37 409v1353h890v-1103q0 -208 54.5 -307.5t168.5 -99.5t168.5 99.5t54.5 307.5v1103zM1107 2352h-624v640h624v-640zM1883 2352h-624v640h624v-640z" />
    <glyph glyph-name="yacute" unicode="&#xfd;" horiz-adv-x="2410" 
d="M2435 2205l-734 -2152q-77 -227 -183.5 -391.5t-248 -271t-321.5 -157.5t-405 -51q-115 0 -242.5 13.5t-271.5 39.5v680q93 -14 169 -21t142 -7q121 0 211.5 24t165.5 78l-742 2216h945l292 -1546l298 1546h925zM1935.01 2994h-719.956l-283.983 -639h539.968z" />
    <glyph glyph-name="thorn" unicode="&#xfe;" horiz-adv-x="2466" 
d="M970 1553q55 359 211 535.5t418 176.5q185 0 337.5 -84t261.5 -236.5t168.5 -366.5t59.5 -475t-59.5 -475t-168.5 -367t-261.5 -237t-337.5 -84q-262 0 -418 176.5t-211 536.5v-1411h-890v3718h890v-1407zM970 1103q0 -208 68.5 -308t210.5 -100t209.5 100t67.5 308
q0 209 -67.5 308t-209.5 99t-210.5 -99.5t-68.5 -307.5z" />
    <glyph glyph-name="ydieresis" unicode="&#xff;" horiz-adv-x="2410" 
d="M2435 2205l-734 -2152q-77 -227 -183.5 -391.5t-248 -271t-321.5 -157.5t-405 -51q-115 0 -242.5 13.5t-271.5 39.5v680q93 -14 169 -21t142 -7q121 0 211.5 24t165.5 78l-742 2216h945l292 -1546l298 1546h925zM1129 2352h-624v640h624v-640zM1905 2352h-624v640h624
v-640z" />
    <glyph glyph-name="Amacron" unicode="&#x100;" horiz-adv-x="2898" 
d="M-45 0l866 2860h1270l852 -2860h-1015l-103 497h-769l-106 -497h-995zM1675 1217l-230 1111l-236 -1111h466zM2049 3075h-1200v420h1200v-420z" />
    <glyph glyph-name="amacron" unicode="&#x101;" horiz-adv-x="2406" 
d="M85 1337q0 216 79 388t226.5 292t359.5 184t478 64q264 0 470.5 -64t348 -186t215.5 -300.5t74 -406.5v-1308h-890v522q-32 -134 -100.5 -242t-166 -183.5t-221 -116t-266.5 -40.5q-151 0 -275 45.5t-212 128t-136.5 199t-48.5 258.5q0 164 66.5 292t194 215.5t314 133
t425.5 45.5h426v51q0 161 -57.5 244.5t-183.5 83.5q-123 0 -179 -76.5t-56 -222.5h-885zM1180 857q-130 0 -196 -42.5t-66 -125.5q0 -77 54 -120.5t148 -43.5q65 0 124 21t104 57t71.5 83t26.5 99v72h-266zM1828 2420h-1200v420h1200v-420z" />
    <glyph glyph-name="Abreve" unicode="&#x102;" horiz-adv-x="2898" 
d="M-45 0l866 2860h1270l852 -2860h-1015l-103 497h-769l-106 -497h-995zM1675 1217l-230 1111l-236 -1111h466zM1223 3728q0 -69 15.5 -124.5t45 -93.5t71.5 -58.5t95 -20.5t95 20.5t71.5 58.5t45 93.5t15.5 124.5h358q0 -171 -34 -305t-105.5 -225.5t-182 -139.5
t-263.5 -48t-263.5 48t-182 139.5t-105.5 225.5t-34 305h358z" />
    <glyph glyph-name="abreve" unicode="&#x103;" horiz-adv-x="2406" 
d="M85 1337q0 216 79 388t226.5 292t359.5 184t478 64q264 0 470.5 -64t348 -186t215.5 -300.5t74 -406.5v-1308h-890v522q-32 -134 -100.5 -242t-166 -183.5t-221 -116t-266.5 -40.5q-151 0 -275 45.5t-212 128t-136.5 199t-48.5 258.5q0 164 66.5 292t194 215.5t314 133
t425.5 45.5h426v51q0 161 -57.5 244.5t-183.5 83.5q-123 0 -179 -76.5t-56 -222.5h-885zM1180 857q-130 0 -196 -42.5t-66 -125.5q0 -77 54 -120.5t148 -43.5q65 0 124 21t104 57t71.5 83t26.5 99v72h-266zM1002 3073q0 -69 15.5 -124.5t45 -93.5t71.5 -58.5t95 -20.5
t95 20.5t71.5 58.5t45 93.5t15.5 124.5h358q0 -171 -34 -305t-105.5 -225.5t-182 -139.5t-263.5 -48t-263.5 48t-182 139.5t-105.5 225.5t-34 305h358z" />
    <glyph glyph-name="Aogonek" unicode="&#x104;" horiz-adv-x="2898" 
d="M-45 0l866 2860h1270l852 -2860h-1015l-103 497h-769l-106 -497h-995zM1675 1217l-230 1111l-236 -1111h466zM2941 0q-79 0 -153.5 -16.5t-133 -41.5t-94 -55.5t-35.5 -58.5q0 -20 18 -35t51.5 -25.5t80.5 -16t105 -5.5q51 0 91 4t77 10v-451q-63 -8 -125 -11.5
t-119 -3.5q-121 0 -221.5 23.5t-172.5 66.5t-112 103.5t-40 133.5q0 89 58 165t160 131.5t241 88t302 34.5z" />
    <glyph glyph-name="aogonek" unicode="&#x105;" horiz-adv-x="2406" 
d="M85 1337q0 216 79 388t226.5 292t359.5 184t478 64q264 0 470.5 -64t348 -186t215.5 -300.5t74 -406.5v-1308h-890v522q-32 -134 -100.5 -242t-166 -183.5t-221 -116t-266.5 -40.5q-151 0 -275 45.5t-212 128t-136.5 199t-48.5 258.5q0 164 66.5 292t194 215.5t314 133
t425.5 45.5h426v51q0 161 -57.5 244.5t-183.5 83.5q-123 0 -179 -76.5t-56 -222.5h-885zM1180 857q-130 0 -196 -42.5t-66 -125.5q0 -77 54 -120.5t148 -43.5q65 0 124 21t104 57t71.5 83t26.5 99v72h-266zM2334 0q-79 0 -153.5 -16.5t-133 -41.5t-94 -55.5t-35.5 -58.5
q0 -20 18 -35t51.5 -25.5t80.5 -16t105 -5.5q51 0 91 4t77 10v-451q-63 -8 -125 -11.5t-119 -3.5q-121 0 -221.5 23.5t-172.5 66.5t-112 103.5t-40 133.5q0 89 58 165t160 131.5t241 88t302 34.5z" />
    <glyph glyph-name="Cacute" unicode="&#x106;" horiz-adv-x="2948" 
d="M1020 1430q0 -186 30.5 -321.5t91.5 -224t153 -131.5t215 -43q191 0 297.5 121.5t139.5 378.5h941q-34 -295 -146 -530t-290 -399.5t-416.5 -252.5t-525.5 -88q-209 0 -397.5 47t-349.5 136t-291 218.5t-221.5 295.5t-141 365t-49.5 428t49.5 428t141 365t221.5 295.5
t291 218.5t349.5 136t397.5 47q287 0 525.5 -88t416.5 -252.5t290 -399.5t146 -530h-941q-33 257 -139.5 378.5t-297.5 121.5q-123 0 -215 -42.5t-153 -131t-91.5 -224.5t-30.5 -322zM2239.01 3649h-719.956l-283.983 -639h539.968z" />
    <glyph glyph-name="cacute" unicode="&#x107;" 
d="M940 1103q0 -211 69.5 -309.5t208.5 -98.5q51 0 89 14t66 43t47 73.5t31 105.5h885q-28 -230 -123.5 -413.5t-243 -312t-339 -197t-412.5 -68.5q-169 0 -322.5 36.5t-284.5 106.5t-236.5 171t-180 230t-114.5 285t-40 334q0 179 40 334t114.5 284.5t180 230.5
t236.5 170.5t284.5 106t322.5 36.5q147 0 282 -31t253 -89.5t217 -144.5t174 -196t124.5 -243.5t67.5 -286.5h-885q-12 61 -31 105.5t-47 73.5t-66 43t-89 14q-139 0 -208.5 -98t-69.5 -309zM1947.01 2994h-719.956l-283.983 -639h539.968z" />
    <glyph glyph-name="Ccircumflex" unicode="&#x108;" horiz-adv-x="2948" 
d="M1020 1430q0 -186 30.5 -321.5t91.5 -224t153 -131.5t215 -43q191 0 297.5 121.5t139.5 378.5h941q-34 -295 -146 -530t-290 -399.5t-416.5 -252.5t-525.5 -88q-209 0 -397.5 47t-349.5 136t-291 218.5t-221.5 295.5t-141 365t-49.5 428t49.5 428t141 365t221.5 295.5
t291 218.5t349.5 136t397.5 47q287 0 525.5 -88t416.5 -252.5t290 -399.5t146 -530h-941q-33 257 -139.5 378.5t-297.5 121.5q-123 0 -215 -42.5t-153 -131t-91.5 -224.5t-30.5 -322zM1674 3010l-164 242l-164 -242h-510l324 639h700l324 -639h-510z" />
    <glyph glyph-name="ccircumflex" unicode="&#x109;" 
d="M940 1103q0 -211 69.5 -309.5t208.5 -98.5q51 0 89 14t66 43t47 73.5t31 105.5h885q-28 -230 -123.5 -413.5t-243 -312t-339 -197t-412.5 -68.5q-169 0 -322.5 36.5t-284.5 106.5t-236.5 171t-180 230t-114.5 285t-40 334q0 179 40 334t114.5 284.5t180 230.5
t236.5 170.5t284.5 106t322.5 36.5q147 0 282 -31t253 -89.5t217 -144.5t174 -196t124.5 -243.5t67.5 -286.5h-885q-12 61 -31 105.5t-47 73.5t-66 43t-89 14q-139 0 -208.5 -98t-69.5 -309zM1382 2355l-164 242l-164 -242h-510l324 639h700l324 -639h-510z" />
    <glyph glyph-name="Cdotaccent" unicode="&#x10a;" horiz-adv-x="2948" 
d="M1020 1430q0 -186 30.5 -321.5t91.5 -224t153 -131.5t215 -43q191 0 297.5 121.5t139.5 378.5h941q-34 -295 -146 -530t-290 -399.5t-416.5 -252.5t-525.5 -88q-209 0 -397.5 47t-349.5 136t-291 218.5t-221.5 295.5t-141 365t-49.5 428t49.5 428t141 365t221.5 295.5
t291 218.5t349.5 136t397.5 47q287 0 525.5 -88t416.5 -252.5t290 -399.5t146 -530h-941q-33 257 -139.5 378.5t-297.5 121.5q-123 0 -215 -42.5t-153 -131t-91.5 -224.5t-30.5 -322zM1820 3007h-624v640h624v-640z" />
    <glyph glyph-name="cdotaccent" unicode="&#x10b;" 
d="M940 1103q0 -211 69.5 -309.5t208.5 -98.5q51 0 89 14t66 43t47 73.5t31 105.5h885q-28 -230 -123.5 -413.5t-243 -312t-339 -197t-412.5 -68.5q-169 0 -322.5 36.5t-284.5 106.5t-236.5 171t-180 230t-114.5 285t-40 334q0 179 40 334t114.5 284.5t180 230.5
t236.5 170.5t284.5 106t322.5 36.5q147 0 282 -31t253 -89.5t217 -144.5t174 -196t124.5 -243.5t67.5 -286.5h-885q-12 61 -31 105.5t-47 73.5t-66 43t-89 14q-139 0 -208.5 -98t-69.5 -309zM1528 2352h-624v640h624v-640z" />
    <glyph glyph-name="Ccaron" unicode="&#x10c;" horiz-adv-x="2948" 
d="M1020 1430q0 -186 30.5 -321.5t91.5 -224t153 -131.5t215 -43q191 0 297.5 121.5t139.5 378.5h941q-34 -295 -146 -530t-290 -399.5t-416.5 -252.5t-525.5 -88q-209 0 -397.5 47t-349.5 136t-291 218.5t-221.5 295.5t-141 365t-49.5 428t49.5 428t141 365t221.5 295.5
t291 218.5t349.5 136t397.5 47q287 0 525.5 -88t416.5 -252.5t290 -399.5t146 -530h-941q-33 257 -139.5 378.5t-297.5 121.5q-123 0 -215 -42.5t-153 -131t-91.5 -224.5t-30.5 -322zM1860 3010h-700l-324 639h510l164 -242l164 242h510z" />
    <glyph glyph-name="ccaron" unicode="&#x10d;" 
d="M940 1103q0 -211 69.5 -309.5t208.5 -98.5q51 0 89 14t66 43t47 73.5t31 105.5h885q-28 -230 -123.5 -413.5t-243 -312t-339 -197t-412.5 -68.5q-169 0 -322.5 36.5t-284.5 106.5t-236.5 171t-180 230t-114.5 285t-40 334q0 179 40 334t114.5 284.5t180 230.5
t236.5 170.5t284.5 106t322.5 36.5q147 0 282 -31t253 -89.5t217 -144.5t174 -196t124.5 -243.5t67.5 -286.5h-885q-12 61 -31 105.5t-47 73.5t-66 43t-89 14q-139 0 -208.5 -98t-69.5 -309zM1568 2355h-700l-324 639h510l164 -242l164 242h510z" />
    <glyph glyph-name="Dcaron" unicode="&#x10e;" horiz-adv-x="2760" 
d="M90 2860h1196q208 0 393.5 -45t342.5 -130.5t282.5 -210t213.5 -283.5t135 -350.5t47 -410.5t-47 -410.5t-135 -350.5t-213.5 -283.5t-282.5 -210t-342.5 -130.5t-393.5 -45h-1196v2860zM1250 770q123 0 215 39t153 120t91.5 205.5t30.5 295.5t-30.5 295.5t-91.5 205.5
t-153 120t-215 39h-210v-1320h210zM1632 3010h-700l-324 639h510l164 -242l164 242h510z" />
    <glyph glyph-name="dcaron" unicode="&#x10f;" horiz-adv-x="2466" 
d="M2386 2960v-2960h-890v653q-55 -360 -211 -536.5t-418 -176.5q-185 0 -337.5 84t-261 237t-168.5 367t-60 475q0 174 27 327.5t77.5 282.5t123.5 231.5t165 173.5t201.5 109t232.5 38q262 0 418 -176.5t211 -535.5v1407h890zM1496 1103q0 208 -68 307.5t-210 99.5
t-210 -99t-68 -308q0 -208 68 -308t210 -100q143 0 210.5 99.5t67.5 308.5zM2957 2009h-470l79 951h559z" />
    <glyph glyph-name="Dcroat" unicode="&#x110;" horiz-adv-x="2760" 
d="M90 2860h1196q208 0 393.5 -45t342.5 -130.5t282.5 -210t213.5 -283.5t135 -350.5t47 -410.5t-47 -410.5t-135 -350.5t-213.5 -283.5t-282.5 -210t-342.5 -130.5t-393.5 -45h-1196v2860zM1250 770q123 0 215 39t153 120t91.5 205.5t30.5 295.5t-30.5 295.5t-91.5 205.5
t-153 120t-215 39h-210v-1320h210zM1429 1165h-1520v550h1520v-550z" />
    <glyph glyph-name="dcroat" unicode="&#x111;" horiz-adv-x="2466" 
d="M2386 2960v-2960h-890v653q-55 -360 -211 -536.5t-418 -176.5q-185 0 -337.5 84t-261 237t-168.5 367t-60 475q0 174 27 327.5t77.5 282.5t123.5 231.5t165 173.5t201.5 109t232.5 38q262 0 418 -176.5t211 -535.5v1407h890zM1496 1103q0 208 -68 307.5t-210 99.5
t-210 -99t-68 -308q0 -208 68 -308t210 -100q143 0 210.5 99.5t67.5 308.5zM2573 2283h-1490v500h1490v-500z" />
    <glyph glyph-name="Emacron" unicode="&#x112;" horiz-adv-x="2207" 
d="M2132 2860v-760h-1092v-326h982v-690h-982v-324h1122v-760h-2072v2860h2042zM1717 3074h-1200v420h1200v-420z" />
    <glyph glyph-name="emacron" unicode="&#x113;" 
d="M2327 771q-49 -193 -152 -347t-249 -261.5t-330.5 -165t-396.5 -57.5q-172 0 -325 38t-281.5 110t-231 174.5t-174 232t-109.5 282.5t-38 326t37.5 326.5t108 282.5t172 231.5t229 174t279 109.5t322.5 38t322.5 -38t279 -109.5t229 -174t172 -232t108 -283.5t37.5 -327
q0 -42 -2.5 -87t-7.5 -84h-1459q19 -166 110.5 -253.5t248.5 -87.5q215 0 301 182h800zM1526 1330q-30 158 -111.5 232t-220.5 74q-142 0 -221.5 -75.5t-102.5 -230.5h656zM1788 2420h-1200v420h1200v-420z" />
    <glyph glyph-name="Ebreve" unicode="&#x114;" horiz-adv-x="2207" 
d="M2132 2860v-760h-1092v-326h982v-690h-982v-324h1122v-760h-2072v2860h2042zM891 3727q0 -69 15.5 -124.5t45 -93.5t71.5 -58.5t95 -20.5t95 20.5t71.5 58.5t45 93.5t15.5 124.5h358q0 -171 -34 -305t-105.5 -225.5t-182 -139.5t-263.5 -48t-263.5 48t-182 139.5
t-105.5 225.5t-34 305h358z" />
    <glyph glyph-name="ebreve" unicode="&#x115;" 
d="M2327 771q-49 -193 -152 -347t-249 -261.5t-330.5 -165t-396.5 -57.5q-172 0 -325 38t-281.5 110t-231 174.5t-174 232t-109.5 282.5t-38 326t37.5 326.5t108 282.5t172 231.5t229 174t279 109.5t322.5 38t322.5 -38t279 -109.5t229 -174t172 -232t108 -283.5t37.5 -327
q0 -42 -2.5 -87t-7.5 -84h-1459q19 -166 110.5 -253.5t248.5 -87.5q215 0 301 182h800zM1526 1330q-30 158 -111.5 232t-220.5 74q-142 0 -221.5 -75.5t-102.5 -230.5h656zM962 3073q0 -69 15.5 -124.5t45 -93.5t71.5 -58.5t95 -20.5t95 20.5t71.5 58.5t45 93.5t15.5 124.5
h358q0 -171 -34 -305t-105.5 -225.5t-182 -139.5t-263.5 -48t-263.5 48t-182 139.5t-105.5 225.5t-34 305h358z" />
    <glyph glyph-name="Edotaccent" unicode="&#x116;" horiz-adv-x="2207" 
d="M2132 2860v-760h-1092v-326h982v-690h-982v-324h1122v-760h-2072v2860h2042zM1427 3006h-624v640h624v-640z" />
    <glyph glyph-name="edotaccent" unicode="&#x117;" 
d="M2327 771q-49 -193 -152 -347t-249 -261.5t-330.5 -165t-396.5 -57.5q-172 0 -325 38t-281.5 110t-231 174.5t-174 232t-109.5 282.5t-38 326t37.5 326.5t108 282.5t172 231.5t229 174t279 109.5t322.5 38t322.5 -38t279 -109.5t229 -174t172 -232t108 -283.5t37.5 -327
q0 -42 -2.5 -87t-7.5 -84h-1459q19 -166 110.5 -253.5t248.5 -87.5q215 0 301 182h800zM1526 1330q-30 158 -111.5 232t-220.5 74q-142 0 -221.5 -75.5t-102.5 -230.5h656zM1498 2352h-624v640h624v-640z" />
    <glyph glyph-name="Eogonek" unicode="&#x118;" horiz-adv-x="2207" 
d="M2132 2860v-760h-1092v-326h982v-690h-982v-324h1122v-760h-2072v2860h2042zM2160 0q-79 0 -153.5 -16.5t-133 -41.5t-94 -55.5t-35.5 -58.5q0 -20 18 -35t51.5 -25.5t80.5 -16t105 -5.5q51 0 91 4t77 10v-451q-63 -8 -125 -11.5t-119 -3.5q-121 0 -221.5 23.5
t-172.5 66.5t-112 103.5t-40 133.5q0 89 58 165t160 131.5t241 88t302 34.5z" />
    <glyph glyph-name="eogonek" unicode="&#x119;" 
d="M2327 771q-49 -193 -152 -347t-249 -261.5t-330.5 -165t-396.5 -57.5q-172 0 -325 38t-281.5 110t-231 174.5t-174 232t-109.5 282.5t-38 326t37.5 326.5t108 282.5t172 231.5t229 174t279 109.5t322.5 38t322.5 -38t279 -109.5t229 -174t172 -232t108 -283.5t37.5 -327
q0 -42 -2.5 -87t-7.5 -84h-1459q19 -166 110.5 -253.5t248.5 -87.5q215 0 301 182h800zM1526 1330q-30 158 -111.5 232t-220.5 74q-142 0 -221.5 -75.5t-102.5 -230.5h656zM1921 182q-50 -35 -98.5 -78.5t-86.5 -89.5t-61.5 -91t-23.5 -84q0 -27 13.5 -50.5t43.5 -40
t78.5 -26t118.5 -9.5q40 0 79.5 3t84.5 11v-451q-63 -8 -123 -11.5t-108 -3.5q-127 0 -230 27.5t-176.5 75.5t-113.5 113.5t-40 142.5q0 62 25.5 120t69.5 112t103.5 104t127.5 97t141 90.5t144 83.5z" />
    <glyph glyph-name="Ecaron" unicode="&#x11a;" horiz-adv-x="2207" 
d="M2132 2860v-760h-1092v-326h982v-690h-982v-324h1122v-760h-2072v2860h2042zM1467 3009h-700l-324 639h510l164 -242l164 242h510z" />
    <glyph glyph-name="ecaron" unicode="&#x11b;" 
d="M2327 771q-49 -193 -152 -347t-249 -261.5t-330.5 -165t-396.5 -57.5q-172 0 -325 38t-281.5 110t-231 174.5t-174 232t-109.5 282.5t-38 326t37.5 326.5t108 282.5t172 231.5t229 174t279 109.5t322.5 38t322.5 -38t279 -109.5t229 -174t172 -232t108 -283.5t37.5 -327
q0 -42 -2.5 -87t-7.5 -84h-1459q19 -166 110.5 -253.5t248.5 -87.5q215 0 301 182h800zM1526 1330q-30 158 -111.5 232t-220.5 74q-142 0 -221.5 -75.5t-102.5 -230.5h656zM1538 2355h-700l-324 639h510l164 -242l164 242h510z" />
    <glyph glyph-name="Gcircumflex" unicode="&#x11c;" horiz-adv-x="3009" 
d="M1020 1430q0 -190 31.5 -329.5t95 -231t159 -135.5t223.5 -44q99 0 183.5 20t148.5 62t104.5 106t50.5 152h-507v500h1410v-1530h-880v575q-64 -151 -153 -269t-201 -199.5t-244 -124t-281 -42.5q-156 0 -298.5 47t-264.5 136t-221.5 218.5t-169.5 295.5t-108 365
t-38 428t49.5 428t141 365t221.5 295.5t291 218.5t349.5 136t397.5 47q176 0 339.5 -35.5t309 -103.5t269 -167.5t220 -227.5t162 -282.5t94.5 -333.5h-940q-24 101 -66.5 172.5t-101 118t-131 68t-155.5 21.5q-123 0 -215 -42.5t-153 -131t-91.5 -224.5t-30.5 -322z
M1674 3010l-164 242l-164 -242h-510l324 639h700l324 -639h-510z" />
    <glyph glyph-name="gcircumflex" unicode="&#x11d;" horiz-adv-x="2466" 
d="M2386 2205v-2066q0 -229 -73.5 -407t-214.5 -300.5t-346.5 -186t-468.5 -63.5q-265 0 -476 63.5t-358 182t-225.5 288.5t-78.5 384h885q0 -145 55.5 -212t174.5 -67q123 0 179.5 74t56.5 236v707q-55 -327 -211 -487.5t-418 -160.5q-123 0 -232.5 34.5t-201.5 99.5
t-165 158t-123.5 210.5t-77.5 257.5t-27 298q0 237 60 425.5t168.5 320t261 201.5t337.5 70q131 0 235.5 -36t182.5 -111t131 -190.5t80 -274.5v552h890zM1496 1248q0 77 -17 127.5t-51.5 80.5t-86.5 42t-123 12t-123.5 -12t-87 -42t-51 -80.5t-16.5 -127.5
q0 -155 67.5 -229t210.5 -74t210.5 74t67.5 229zM1382 2355l-164 242l-164 -242h-510l324 639h700l324 -639h-510z" />
    <glyph glyph-name="Gbreve" unicode="&#x11e;" horiz-adv-x="3009" 
d="M1020 1430q0 -190 31.5 -329.5t95 -231t159 -135.5t223.5 -44q99 0 183.5 20t148.5 62t104.5 106t50.5 152h-507v500h1410v-1530h-880v575q-64 -151 -153 -269t-201 -199.5t-244 -124t-281 -42.5q-156 0 -298.5 47t-264.5 136t-221.5 218.5t-169.5 295.5t-108 365
t-38 428t49.5 428t141 365t221.5 295.5t291 218.5t349.5 136t397.5 47q176 0 339.5 -35.5t309 -103.5t269 -167.5t220 -227.5t162 -282.5t94.5 -333.5h-940q-24 101 -66.5 172.5t-101 118t-131 68t-155.5 21.5q-123 0 -215 -42.5t-153 -131t-91.5 -224.5t-30.5 -322z
M1284 3728q0 -69 15.5 -124.5t45 -93.5t71.5 -58.5t95 -20.5t95 20.5t71.5 58.5t45 93.5t15.5 124.5h358q0 -171 -34 -305t-105.5 -225.5t-182 -139.5t-263.5 -48t-263.5 48t-182 139.5t-105.5 225.5t-34 305h358z" />
    <glyph glyph-name="gbreve" unicode="&#x11f;" horiz-adv-x="2466" 
d="M2386 2205v-2066q0 -229 -73.5 -407t-214.5 -300.5t-346.5 -186t-468.5 -63.5q-265 0 -476 63.5t-358 182t-225.5 288.5t-78.5 384h885q0 -145 55.5 -212t174.5 -67q123 0 179.5 74t56.5 236v707q-55 -327 -211 -487.5t-418 -160.5q-123 0 -232.5 34.5t-201.5 99.5
t-165 158t-123.5 210.5t-77.5 257.5t-27 298q0 237 60 425.5t168.5 320t261 201.5t337.5 70q131 0 235.5 -36t182.5 -111t131 -190.5t80 -274.5v552h890zM1496 1248q0 77 -17 127.5t-51.5 80.5t-86.5 42t-123 12t-123.5 -12t-87 -42t-51 -80.5t-16.5 -127.5
q0 -155 67.5 -229t210.5 -74t210.5 74t67.5 229zM992 3073q0 -69 15.5 -124.5t45 -93.5t71.5 -58.5t95 -20.5t95 20.5t71.5 58.5t45 93.5t15.5 124.5h358q0 -171 -34 -305t-105.5 -225.5t-182 -139.5t-263.5 -48t-263.5 48t-182 139.5t-105.5 225.5t-34 305h358z" />
    <glyph glyph-name="Gdotaccent" unicode="&#x120;" horiz-adv-x="3009" 
d="M1020 1430q0 -190 31.5 -329.5t95 -231t159 -135.5t223.5 -44q99 0 183.5 20t148.5 62t104.5 106t50.5 152h-507v500h1410v-1530h-880v575q-64 -151 -153 -269t-201 -199.5t-244 -124t-281 -42.5q-156 0 -298.5 47t-264.5 136t-221.5 218.5t-169.5 295.5t-108 365
t-38 428t49.5 428t141 365t221.5 295.5t291 218.5t349.5 136t397.5 47q176 0 339.5 -35.5t309 -103.5t269 -167.5t220 -227.5t162 -282.5t94.5 -333.5h-940q-24 101 -66.5 172.5t-101 118t-131 68t-155.5 21.5q-123 0 -215 -42.5t-153 -131t-91.5 -224.5t-30.5 -322z
M1820 3007h-624v640h624v-640z" />
    <glyph glyph-name="gdotaccent" unicode="&#x121;" horiz-adv-x="2466" 
d="M2386 2205v-2066q0 -229 -73.5 -407t-214.5 -300.5t-346.5 -186t-468.5 -63.5q-265 0 -476 63.5t-358 182t-225.5 288.5t-78.5 384h885q0 -145 55.5 -212t174.5 -67q123 0 179.5 74t56.5 236v707q-55 -327 -211 -487.5t-418 -160.5q-123 0 -232.5 34.5t-201.5 99.5
t-165 158t-123.5 210.5t-77.5 257.5t-27 298q0 237 60 425.5t168.5 320t261 201.5t337.5 70q131 0 235.5 -36t182.5 -111t131 -190.5t80 -274.5v552h890zM1496 1248q0 77 -17 127.5t-51.5 80.5t-86.5 42t-123 12t-123.5 -12t-87 -42t-51 -80.5t-16.5 -127.5
q0 -155 67.5 -229t210.5 -74t210.5 74t67.5 229zM1528 2352h-624v640h624v-640z" />
    <glyph glyph-name="uni0122" unicode="&#x122;" horiz-adv-x="3009" 
d="M1020 1430q0 -190 31.5 -329.5t95 -231t159 -135.5t223.5 -44q99 0 183.5 20t148.5 62t104.5 106t50.5 152h-507v500h1410v-1530h-880v575q-64 -151 -153 -269t-201 -199.5t-244 -124t-281 -42.5q-156 0 -298.5 47t-264.5 136t-221.5 218.5t-169.5 295.5t-108 365
t-38 428t49.5 428t141 365t221.5 295.5t291 218.5t349.5 136t397.5 47q176 0 339.5 -35.5t309 -103.5t269 -167.5t220 -227.5t162 -282.5t94.5 -333.5h-940q-24 101 -66.5 172.5t-101 118t-131 68t-155.5 21.5q-123 0 -215 -42.5t-153 -131t-91.5 -224.5t-30.5 -322z
M1604 -788h-560l118 638h700z" />
    <glyph glyph-name="uni0123" unicode="&#x123;" horiz-adv-x="2466" 
d="M2386 2205v-2066q0 -229 -73.5 -407t-214.5 -300.5t-346.5 -186t-468.5 -63.5q-265 0 -476 63.5t-358 182t-225.5 288.5t-78.5 384h885q0 -145 55.5 -212t174.5 -67q123 0 179.5 74t56.5 236v707q-55 -327 -211 -487.5t-418 -160.5q-123 0 -232.5 34.5t-201.5 99.5
t-165 158t-123.5 210.5t-77.5 257.5t-27 298q0 237 60 425.5t168.5 320t261 201.5t337.5 70q131 0 235.5 -36t182.5 -111t131 -190.5t80 -274.5v552h890zM1496 1248q0 77 -17 127.5t-51.5 80.5t-86.5 42t-123 12t-123.5 -12t-87 -42t-51 -80.5t-16.5 -127.5
q0 -155 67.5 -229t210.5 -74t210.5 74t67.5 229zM1130 3074h560l-118 -638h-700z" />
    <glyph glyph-name="Hcircumflex" unicode="&#x124;" horiz-adv-x="2760" 
d="M2670 0h-950v1042h-680v-1042h-950v2860h950v-1048h680v1048h950v-2860zM1544 3010l-164 242l-164 -242h-510l324 639h700l324 -639h-510z" />
    <glyph glyph-name="hcircumflex" unicode="&#x125;" 
d="M970 0h-890v2960h890v-1456q54 387 230 574t480 187q163 0 281 -53.5t194.5 -165t113.5 -284t37 -409.5v-1353h-890v1103q0 209 -54.5 308t-168.5 99t-168.5 -99.5t-54.5 -307.5v-1103zM689 3110l-164 242l-164 -242h-510l324 639h700l324 -639h-510z" />
    <glyph glyph-name="Hbar" unicode="&#x126;" horiz-adv-x="2760" 
d="M2670 0h-950v1042h-680v-1042h-950v2860h950v-1048h680v1048h950v-2860zM2868 2068h-2976v460h2976v-460z" />
    <glyph glyph-name="hbar" unicode="&#x127;" 
d="M970 0h-890v2960h890v-1456q54 387 230 574t480 187q163 0 281 -53.5t194.5 -165t113.5 -284t37 -409.5v-1353h-890v1103q0 209 -54.5 308t-168.5 99t-168.5 -99.5t-54.5 -307.5v-1103zM1386 2283h-1490v500h1490v-500z" />
    <glyph glyph-name="Itilde" unicode="&#x128;" horiz-adv-x="1130" 
d="M1040 0h-950v2860h950v-2860zM1223 3651q0 -177 -19 -302.5t-60.5 -204.5t-107.5 -115.5t-160 -36.5q-49 0 -91.5 8t-78.5 20t-64.5 25t-48.5 23l-70 35q-18 9 -39.5 19t-46 19t-51 15t-53.5 6q-25 0 -46 -7t-35 -23.5t-22 -44t-8 -69.5v-6h-270v12q0 170 21 294.5
t65 205.5t111.5 120t159.5 39q44 0 82.5 -7.5t70.5 -18.5t58 -23.5t44 -22.5l66 -35q18 -9 40.5 -20.5t50 -21.5t59 -16.5t65.5 -6.5q25 0 46.5 7.5t37.5 24t25 43t9 65.5v12h260v-12z" />
    <glyph glyph-name="itilde" unicode="&#x129;" horiz-adv-x="1050" 
d="M970 0h-890v2205h890v-2205zM1183 2996q0 -177 -19 -302.5t-60.5 -204.5t-107.5 -115.5t-160 -36.5q-49 0 -91.5 8t-78.5 20t-64.5 25t-48.5 23l-70 35q-18 9 -39.5 19t-46 19t-51 15t-53.5 6q-25 0 -46 -7t-35 -23.5t-22 -44t-8 -69.5v-6h-270v12q0 170 21 294.5
t65 205.5t111.5 120t159.5 39q44 0 82.5 -7.5t70.5 -18.5t58 -23.5t44 -22.5l66 -35q18 -9 40.5 -20.5t50 -21.5t59 -16.5t65.5 -6.5q25 0 46.5 7.5t37.5 24t25 43t9 65.5v12h260v-12z" />
    <glyph glyph-name="Imacron" unicode="&#x12a;" horiz-adv-x="1130" 
d="M1040 0h-950v2860h950v-2860zM1165 3075h-1200v420h1200v-420z" />
    <glyph glyph-name="imacron" unicode="&#x12b;" horiz-adv-x="1050" 
d="M970 0h-890v2205h890v-2205zM1125 2420h-1200v420h1200v-420z" />
    <glyph glyph-name="Ibreve" unicode="&#x12c;" horiz-adv-x="1130" 
d="M1040 0h-950v2860h950v-2860zM339 3728q0 -69 15.5 -124.5t45 -93.5t71.5 -58.5t95 -20.5t95 20.5t71.5 58.5t45 93.5t15.5 124.5h358q0 -171 -34 -305t-105.5 -225.5t-182 -139.5t-263.5 -48t-263.5 48t-182 139.5t-105.5 225.5t-34 305h358z" />
    <glyph glyph-name="ibreve" unicode="&#x12d;" horiz-adv-x="1050" 
d="M970 0h-890v2205h890v-2205zM299 3073q0 -69 15.5 -124.5t45 -93.5t71.5 -58.5t95 -20.5t95 20.5t71.5 58.5t45 93.5t15.5 124.5h358q0 -171 -34 -305t-105.5 -225.5t-182 -139.5t-263.5 -48t-263.5 48t-182 139.5t-105.5 225.5t-34 305h358z" />
    <glyph glyph-name="Iogonek" unicode="&#x12e;" horiz-adv-x="1130" 
d="M1040 0h-950v2860h950v-2860zM1038 0q-79 0 -153.5 -16.5t-133 -41.5t-94 -55.5t-35.5 -58.5q0 -20 18 -35t51.5 -25.5t80.5 -16t105 -5.5q51 0 91 4t77 10v-451q-63 -8 -125 -11.5t-119 -3.5q-121 0 -221.5 23.5t-172.5 66.5t-112 103.5t-40 133.5q0 89 58 165
t160 131.5t241 88t302 34.5z" />
    <glyph glyph-name="iogonek" unicode="&#x12f;" horiz-adv-x="1050" 
d="M970 2400h-890v560h890v-560zM970 0h-890v2205h890v-2205zM968 0q-79 0 -153.5 -16.5t-133 -41.5t-94 -55.5t-35.5 -58.5q0 -20 18 -35t51.5 -25.5t80.5 -16t105 -5.5q51 0 91 4t77 10v-451q-63 -8 -125 -11.5t-119 -3.5q-121 0 -221.5 23.5t-172.5 66.5t-112 103.5
t-40 133.5q0 89 58 165t160 131.5t241 88t302 34.5z" />
    <glyph glyph-name="Idotaccent" unicode="&#x130;" horiz-adv-x="1130" 
d="M1040 0h-950v2860h950v-2860zM876 3007h-624v640h624v-640z" />
    <glyph glyph-name="dotlessi" unicode="&#x131;" horiz-adv-x="1050" 
d="M970 0h-890v2205h890v-2205z" />
    <glyph glyph-name="IJ" unicode="&#x132;" horiz-adv-x="3685" 
d="M1040 0h-950v2860h950v-2860zM1175 1340h950v-330q0 -64 14.5 -118.5t46.5 -95t83 -63.5t124 -23t121.5 23t77.5 63.5t41 95t12 118.5v1850h950v-1870q0 -168 -42 -311.5t-119 -260t-186 -206t-243.5 -150t-291 -91.5t-328.5 -31t-328.5 31t-291 91.5t-243.5 150
t-186 206t-119 260t-42 311.5v350z" />
    <glyph glyph-name="ij" unicode="&#x133;" horiz-adv-x="2100" 
d="M970 2400h-890v560h890v-560zM970 0h-890v2205h890v-2205zM2020 2400h-890v560h890v-560zM2020 255q0 -202 -22 -360t-71.5 -277t-128 -202t-191.5 -135t-263 -75.5t-341 -23.5h-101v690h64q49 0 80.5 10t50 34.5t26 67t7.5 106.5v2115h890v-1950z" />
    <glyph glyph-name="Jcircumflex" unicode="&#x134;" horiz-adv-x="2555" 
d="M45 1340h950v-330q0 -64 14.5 -118.5t46.5 -95t83 -63.5t124 -23t121.5 23t77.5 63.5t41 95t12 118.5v1850h950v-1870q0 -168 -42 -311.5t-119 -260t-186 -206t-243.5 -150t-291 -91.5t-328.5 -31t-328.5 31t-291 91.5t-243.5 150t-186 206t-119 260t-42 311.5v350z
M2157 3010l-164 242l-164 -242h-510l324 639h700l324 -639h-510z" />
    <glyph glyph-name="jcircumflex" unicode="&#x135;" horiz-adv-x="1050" 
d="M970 255q0 -202 -22 -360t-71.5 -277t-128 -202t-191.5 -135t-263 -75.5t-341 -23.5h-101v690h64q49 0 80.5 10t50 34.5t26 67t7.5 106.5v2115h890v-1950zM690 2355l-164 242l-164 -242h-510l324 639h700l324 -639h-510z" />
    <glyph glyph-name="uni0136" unicode="&#x136;" horiz-adv-x="2733" 
d="M1771 1447l1007 -1447h-1130l-608 974v-974h-950v2860h950v-1105l608 1105h1060zM1397 -788h-560l118 638h700z" />
    <glyph glyph-name="uni0137" unicode="&#x137;" horiz-adv-x="2465" 
d="M1703 1116l777 -1116h-1041l-469 751v-751h-890v2960h890v-1607l469 852h987zM1262 -788h-560l118 638h700z" />
    <glyph glyph-name="kgreenlandic" unicode="&#x138;" horiz-adv-x="2465" 
d="M1703 1116l777 -1116h-1041l-469 751v-751h-890v2205h890v-852l469 852h987z" />
    <glyph glyph-name="Lacute" unicode="&#x139;" horiz-adv-x="2112" 
d="M1040 2860v-2100h1042v-760h-1992v2860h950zM1293.01 3649h-719.956l-283.983 -639h539.968z" />
    <glyph glyph-name="lacute" unicode="&#x13a;" horiz-adv-x="1050" 
d="M970 0h-890v2960h890v-2960zM1254.01 3749h-719.956l-283.983 -639h539.968z" />
    <glyph glyph-name="uni013B" unicode="&#x13b;" horiz-adv-x="2112" 
d="M1040 2860v-2100h1042v-760h-1992v2860h950zM1178 -788h-560l118 638h700z" />
    <glyph glyph-name="uni013C" unicode="&#x13c;" horiz-adv-x="1050" 
d="M970 0h-890v2960h890v-2960zM619 -788h-560l118 638h700z" />
    <glyph glyph-name="Lcaron" unicode="&#x13d;" horiz-adv-x="2112" 
d="M1040 2860v-2100h1042v-760h-1992v2860h950zM2004 1909h-470l79 951h559z" />
    <glyph glyph-name="lcaron" unicode="&#x13e;" horiz-adv-x="1050" 
d="M970 0h-890v2960h890v-2960zM1541 2009h-470l79 951h559z" />
    <glyph glyph-name="Ldot" unicode="&#x13f;" horiz-adv-x="2112" 
d="M1040 2860v-2100h1042v-760h-1992v2860h950zM2080 1454h-624v640h624v-640z" />
    <glyph glyph-name="ldot" unicode="&#x140;" horiz-adv-x="1050" 
d="M970 0h-890v2960h890v-2960zM1754 919h-624v640h624v-640z" />
    <glyph glyph-name="Lslash" unicode="&#x141;" horiz-adv-x="2112" 
d="M1040 2860v-2100h1042v-760h-1992v2860h950zM1446 1499l-1584 -715v514l1584 716v-515z" />
    <glyph glyph-name="lslash" unicode="&#x142;" horiz-adv-x="1050" 
d="M970 0h-890v2960h890v-2960zM1180 1367l-1283 -580v505l1283 580v-505z" />
    <glyph glyph-name="Nacute" unicode="&#x143;" horiz-adv-x="2919" 
d="M2829 0h-1218l-621 1848v-1848h-900v2860h1278l561 -1670v1670h900v-2860zM2189.01 3649h-719.956l-283.983 -639h539.968z" />
    <glyph glyph-name="nacute" unicode="&#x144;" 
d="M970 0h-890v2205h890v-701q54 387 230 574t480 187q163 0 281 -53.5t194.5 -165t113.5 -284t37 -409.5v-1353h-890v1103q0 209 -54.5 308t-168.5 99t-168.5 -99.5t-54.5 -307.5v-1103zM1922.01 2994h-719.956l-283.983 -639h539.968z" />
    <glyph glyph-name="uni0145" unicode="&#x145;" horiz-adv-x="2919" 
d="M2829 0h-1218l-621 1848v-1848h-900v2860h1278l561 -1670v1670h900v-2860zM1375 -788h-560l118 638h700z" />
    <glyph glyph-name="uni0146" unicode="&#x146;" 
d="M970 0h-890v2205h890v-701q54 387 230 574t480 187q163 0 281 -53.5t194.5 -165t113.5 -284t37 -409.5v-1353h-890v1103q0 209 -54.5 308t-168.5 99t-168.5 -99.5t-54.5 -307.5v-1103zM1250 -788h-560l118 638h700z" />
    <glyph glyph-name="Ncaron" unicode="&#x147;" horiz-adv-x="2919" 
d="M2829 0h-1218l-621 1848v-1848h-900v2860h1278l561 -1670v1670h900v-2860zM1809 3010h-700l-324 639h510l164 -242l164 242h510z" />
    <glyph glyph-name="ncaron" unicode="&#x148;" 
d="M970 0h-890v2205h890v-701q54 387 230 574t480 187q163 0 281 -53.5t194.5 -165t113.5 -284t37 -409.5v-1353h-890v1103q0 209 -54.5 308t-168.5 99t-168.5 -99.5t-54.5 -307.5v-1103zM1543 2355h-700l-324 639h510l164 -242l164 242h510z" />
    <glyph glyph-name="napostrophe" unicode="&#x149;" horiz-adv-x="3027" 
d="M90 2860h2847v-2860h-2847v2860zM1513 1726l620 679h-1238zM601 725l643 705l-643 706v-1411zM2426 723v1412l-643 -705zM894 455h1236l-617 679z" />
    <glyph glyph-name="Eng" unicode="&#x14a;" horiz-adv-x="3027" 
d="M90 2860h2847v-2860h-2847v2860zM1513 1726l620 679h-1238zM601 725l643 705l-643 706v-1411zM2426 723v1412l-643 -705zM894 455h1236l-617 679z" />
    <glyph glyph-name="eng" unicode="&#x14b;" horiz-adv-x="3027" 
d="M90 2860h2847v-2860h-2847v2860zM1513 1726l620 679h-1238zM601 725l643 705l-643 706v-1411zM2426 723v1412l-643 -705zM894 455h1236l-617 679z" />
    <glyph glyph-name="Omacron" unicode="&#x14c;" horiz-adv-x="3020" 
d="M60 1430q0 229 49.5 428t141 365t221.5 295.5t291 218.5t349.5 136t397.5 47t397.5 -47t349.5 -136t291 -218.5t221.5 -295.5t141 -365t49.5 -428t-49.5 -428t-141 -365t-221.5 -295.5t-291 -218.5t-349.5 -136t-397.5 -47t-397.5 47t-349.5 136t-291 218.5t-221.5 295.5
t-141 365t-49.5 428zM1020 1430q0 -186 30.5 -321.5t91.5 -224t153 -131.5t215 -43t215 43t153 131.5t91.5 224t30.5 321.5t-30.5 322t-91.5 224.5t-153 131t-215 42.5t-215 -42.5t-153 -131t-91.5 -224.5t-30.5 -322zM2110 3075h-1200v420h1200v-420z" />
    <glyph glyph-name="omacron" unicode="&#x14d;" horiz-adv-x="2436" 
d="M40 1103q0 179 40 334t114.5 284.5t180 230.5t236.5 170.5t284.5 106t322.5 36.5q170 0 323 -36.5t284 -106t236.5 -170.5t180 -230.5t114.5 -285t40 -333.5t-40 -334t-114.5 -285t-180 -230t-236.5 -171t-284.5 -106.5t-322.5 -36.5t-322.5 36.5t-284.5 106.5
t-236.5 171t-180 230t-114.5 285t-40 334zM940 1103q0 -211 69.5 -309.5t208.5 -98.5q140 0 209 98.5t69 309.5t-69 309t-209 98q-139 0 -208.5 -98t-69.5 -309zM1818 2420h-1200v420h1200v-420z" />
    <glyph glyph-name="Obreve" unicode="&#x14e;" horiz-adv-x="3020" 
d="M60 1430q0 229 49.5 428t141 365t221.5 295.5t291 218.5t349.5 136t397.5 47t397.5 -47t349.5 -136t291 -218.5t221.5 -295.5t141 -365t49.5 -428t-49.5 -428t-141 -365t-221.5 -295.5t-291 -218.5t-349.5 -136t-397.5 -47t-397.5 47t-349.5 136t-291 218.5t-221.5 295.5
t-141 365t-49.5 428zM1020 1430q0 -186 30.5 -321.5t91.5 -224t153 -131.5t215 -43t215 43t153 131.5t91.5 224t30.5 321.5t-30.5 322t-91.5 224.5t-153 131t-215 42.5t-215 -42.5t-153 -131t-91.5 -224.5t-30.5 -322zM1284 3728q0 -69 15.5 -124.5t45 -93.5t71.5 -58.5
t95 -20.5t95 20.5t71.5 58.5t45 93.5t15.5 124.5h358q0 -171 -34 -305t-105.5 -225.5t-182 -139.5t-263.5 -48t-263.5 48t-182 139.5t-105.5 225.5t-34 305h358z" />
    <glyph glyph-name="obreve" unicode="&#x14f;" horiz-adv-x="2436" 
d="M40 1103q0 179 40 334t114.5 284.5t180 230.5t236.5 170.5t284.5 106t322.5 36.5q170 0 323 -36.5t284 -106t236.5 -170.5t180 -230.5t114.5 -285t40 -333.5t-40 -334t-114.5 -285t-180 -230t-236.5 -171t-284.5 -106.5t-322.5 -36.5t-322.5 36.5t-284.5 106.5
t-236.5 171t-180 230t-114.5 285t-40 334zM940 1103q0 -211 69.5 -309.5t208.5 -98.5q140 0 209 98.5t69 309.5t-69 309t-209 98q-139 0 -208.5 -98t-69.5 -309zM992 3073q0 -69 15.5 -124.5t45 -93.5t71.5 -58.5t95 -20.5t95 20.5t71.5 58.5t45 93.5t15.5 124.5h358
q0 -171 -34 -305t-105.5 -225.5t-182 -139.5t-263.5 -48t-263.5 48t-182 139.5t-105.5 225.5t-34 305h358z" />
    <glyph glyph-name="Ohungarumlaut" unicode="&#x150;" horiz-adv-x="3020" 
d="M60 1430q0 229 49.5 428t141 365t221.5 295.5t291 218.5t349.5 136t397.5 47t397.5 -47t349.5 -136t291 -218.5t221.5 -295.5t141 -365t49.5 -428t-49.5 -428t-141 -365t-221.5 -295.5t-291 -218.5t-349.5 -136t-397.5 -47t-397.5 47t-349.5 136t-291 218.5t-221.5 295.5
t-141 365t-49.5 428zM1020 1430q0 -186 30.5 -321.5t91.5 -224t153 -131.5t215 -43t215 43t153 131.5t91.5 224t30.5 321.5t-30.5 322t-91.5 224.5t-153 131t-215 42.5t-215 -42.5t-153 -131t-91.5 -224.5t-30.5 -322zM838 3010l214 639h640l-324 -639h-530zM1578 3010
l214 639h640l-324 -639h-530z" />
    <glyph glyph-name="ohungarumlaut" unicode="&#x151;" horiz-adv-x="2436" 
d="M40 1103q0 179 40 334t114.5 284.5t180 230.5t236.5 170.5t284.5 106t322.5 36.5q170 0 323 -36.5t284 -106t236.5 -170.5t180 -230.5t114.5 -285t40 -333.5t-40 -334t-114.5 -285t-180 -230t-236.5 -171t-284.5 -106.5t-322.5 -36.5t-322.5 36.5t-284.5 106.5
t-236.5 171t-180 230t-114.5 285t-40 334zM940 1103q0 -211 69.5 -309.5t208.5 -98.5q140 0 209 98.5t69 309.5t-69 309t-209 98q-139 0 -208.5 -98t-69.5 -309zM546 2355l214 639h640l-324 -639h-530zM1286 2355l214 639h640l-324 -639h-530z" />
    <glyph glyph-name="OE" unicode="&#x152;" horiz-adv-x="3817" 
d="M3742 2100h-1092v-326h982v-690h-982v-324h1122v-760h-2262q-209 0 -397.5 45t-349.5 130.5t-291 210t-221.5 283.5t-141 350.5t-49.5 410.5q0 220 49.5 411t141 350t221.5 283.5t291 210t349.5 130.5t397.5 45h2232v-760zM1020 1430q0 -171 30.5 -295.5t91.5 -205.5
t153 -120t215 -39h190v1320h-190q-123 0 -215 -39t-153 -120t-91.5 -205.5t-30.5 -295.5z" />
    <glyph glyph-name="oe" unicode="&#x153;" horiz-adv-x="3910" 
d="M40 1103q0 179 40 334t114.5 284.5t180 230.5t236.5 170.5t284.5 106t322.5 36.5q224 0 416.5 -62.5t344.5 -180.5q146 117 333 180t410 63q171 0 322.5 -38t279 -109.5t229 -174t172 -232t108 -283.5t37.5 -327q0 -42 -2.5 -87t-7.5 -84h-1459q19 -166 110.5 -253.5
t248.5 -87.5q215 0 301 182h800q-49 -193 -152 -347t-249 -261.5t-330.5 -165t-396.5 -57.5q-225 0 -414 63.5t-337 181.5q-152 -119 -345.5 -182t-418.5 -63q-169 0 -322.5 36.5t-284.5 106.5t-236.5 171t-180 230t-114.5 285t-40 334zM3060 1330q-30 158 -111.5 232
t-220.5 74q-142 0 -221.5 -75.5t-101.5 -230.5h655zM940 1103q0 -211 69.5 -309.5t208.5 -98.5q140 0 209 98.5t69 309.5t-69 309t-209 98q-139 0 -208.5 -98t-69.5 -309z" />
    <glyph glyph-name="Racute" unicode="&#x154;" horiz-adv-x="2789" 
d="M90 0v2862h1460q282 0 494 -59.5t353.5 -174t213 -282t71.5 -383.5q0 -185 -55.5 -335.5t-159 -258.5t-250 -169.5t-329.5 -67.5q371 -22 565 -452l306 -680h-1061l-315 678q-42 90 -70 146t-51.5 86.5t-47.5 41t-59 10.5h-115v-962h-950zM1450 1652q138 0 209 62t71 182
q0 121 -71 183.5t-209 62.5h-410v-490h410zM1849.01 3649h-719.956l-283.983 -639h539.968z" />
    <glyph glyph-name="racute" unicode="&#x155;" horiz-adv-x="1735" 
d="M970 0h-890v2205h890v-860q17 196 53.5 354.5t102 271t165 173.5t241.5 61h178v-830h-429q-97 0 -158 -28.5t-95 -88.5t-46 -154t-12 -225v-879zM1552.01 2994h-719.956l-283.983 -639h539.968z" />
    <glyph glyph-name="uni0156" unicode="&#x156;" horiz-adv-x="2789" 
d="M90 0v2862h1460q282 0 494 -59.5t353.5 -174t213 -282t71.5 -383.5q0 -185 -55.5 -335.5t-159 -258.5t-250 -169.5t-329.5 -67.5q371 -22 565 -452l306 -680h-1061l-315 678q-42 90 -70 146t-51.5 86.5t-47.5 41t-59 10.5h-115v-962h-950zM1450 1652q138 0 209 62t71 182
q0 121 -71 183.5t-209 62.5h-410v-490h410zM1414 -788h-560l118 638h700z" />
    <glyph glyph-name="uni0157" unicode="&#x157;" horiz-adv-x="1735" 
d="M970 0h-890v2205h890v-860q17 196 53.5 354.5t102 271t165 173.5t241.5 61h178v-830h-429q-97 0 -158 -28.5t-95 -88.5t-46 -154t-12 -225v-879zM619 -788h-560l118 638h700z" />
    <glyph glyph-name="Rcaron" unicode="&#x158;" horiz-adv-x="2789" 
d="M90 0v2862h1460q282 0 494 -59.5t353.5 -174t213 -282t71.5 -383.5q0 -185 -55.5 -335.5t-159 -258.5t-250 -169.5t-329.5 -67.5q371 -22 565 -452l306 -680h-1061l-315 678q-42 90 -70 146t-51.5 86.5t-47.5 41t-59 10.5h-115v-962h-950zM1450 1652q138 0 209 62t71 182
q0 121 -71 183.5t-209 62.5h-410v-490h410zM1470 3010h-700l-324 639h510l164 -242l164 242h510z" />
    <glyph glyph-name="rcaron" unicode="&#x159;" horiz-adv-x="1735" 
d="M970 0h-890v2205h890v-860q17 196 53.5 354.5t102 271t165 173.5t241.5 61h178v-830h-429q-97 0 -158 -28.5t-95 -88.5t-46 -154t-12 -225v-879zM1173 2355h-700l-324 639h510l164 -242l164 242h510z" />
    <glyph glyph-name="Sacute" unicode="&#x15a;" horiz-adv-x="2785" 
d="M1383 2920q305 0 544.5 -69.5t404.5 -201.5t252 -321.5t87 -429.5h-900q0 72 -27.5 128.5t-79.5 96t-126.5 60.5t-169.5 21q-78 0 -141.5 -13.5t-109.5 -38.5t-71 -58.5t-25 -74.5q0 -52 26.5 -84.5t85.5 -54t154 -37t233 -35.5l69 -10q88 -12 185 -27.5t195.5 -38
t195 -54.5t183.5 -78t161.5 -109t129 -147t85.5 -191.5t31 -243.5q0 -229 -91 -409t-265 -304.5t-427 -190t-576 -65.5q-340 0 -596 72t-427 207.5t-257 330t-86 438.5h900q0 -79 31.5 -140.5t91 -104t145.5 -65t196 -22.5q93 0 169 15.5t130 43t84 66t30 84.5
q0 56 -27.5 89t-88.5 54.5t-158 36t-235 31.5l-100 13q-83 10 -175.5 23t-187.5 33t-188.5 50t-178.5 74t-157.5 104.5t-126 142t-84 187t-30.5 238.5q0 236 95.5 418t269 307t415 189.5t533.5 64.5zM2082.01 3649h-719.956l-283.983 -639h539.968z" />
    <glyph glyph-name="sacute" unicode="&#x15b;" horiz-adv-x="2350" 
d="M1128 2265q270 0 483 -56t360 -162.5t225 -260.5t78 -349h-885q0 258 -231 258q-46 0 -84 -9.5t-65 -27t-42 -42t-15 -53.5q0 -45 23.5 -74t69 -49.5t113 -35t155.5 -31.5l148 -28q63 -12 133 -26t142 -34t143.5 -46.5t136 -63t120 -84.5t96.5 -110t64 -140t23 -175
q0 -172 -75.5 -307t-219.5 -228t-352 -142t-474 -49q-282 0 -501 55.5t-368 163t-226.5 265t-77.5 361.5h885q0 -132 70 -198.5t208 -66.5q54 0 99.5 10t78.5 28.5t51 43.5t18 55q0 41 -18 66.5t-61 43.5t-114 33t-176 34l-148 27q-77 14 -170 33.5t-187.5 52t-183 80.5
t-157 119.5t-110 170t-41.5 231.5q0 170 71.5 303t207.5 225t333 140.5t447 48.5zM1857.01 2994h-719.956l-283.983 -639h539.968z" />
    <glyph glyph-name="Scircumflex" unicode="&#x15c;" horiz-adv-x="2785" 
d="M1383 2920q305 0 544.5 -69.5t404.5 -201.5t252 -321.5t87 -429.5h-900q0 72 -27.5 128.5t-79.5 96t-126.5 60.5t-169.5 21q-78 0 -141.5 -13.5t-109.5 -38.5t-71 -58.5t-25 -74.5q0 -52 26.5 -84.5t85.5 -54t154 -37t233 -35.5l69 -10q88 -12 185 -27.5t195.5 -38
t195 -54.5t183.5 -78t161.5 -109t129 -147t85.5 -191.5t31 -243.5q0 -229 -91 -409t-265 -304.5t-427 -190t-576 -65.5q-340 0 -596 72t-427 207.5t-257 330t-86 438.5h900q0 -79 31.5 -140.5t91 -104t145.5 -65t196 -22.5q93 0 169 15.5t130 43t84 66t30 84.5
q0 56 -27.5 89t-88.5 54.5t-158 36t-235 31.5l-100 13q-83 10 -175.5 23t-187.5 33t-188.5 50t-178.5 74t-157.5 104.5t-126 142t-84 187t-30.5 238.5q0 236 95.5 418t269 307t415 189.5t533.5 64.5zM1516 3010l-164 242l-164 -242h-510l324 639h700l324 -639h-510z" />
    <glyph glyph-name="scircumflex" unicode="&#x15d;" horiz-adv-x="2350" 
d="M1128 2265q270 0 483 -56t360 -162.5t225 -260.5t78 -349h-885q0 258 -231 258q-46 0 -84 -9.5t-65 -27t-42 -42t-15 -53.5q0 -45 23.5 -74t69 -49.5t113 -35t155.5 -31.5l148 -28q63 -12 133 -26t142 -34t143.5 -46.5t136 -63t120 -84.5t96.5 -110t64 -140t23 -175
q0 -172 -75.5 -307t-219.5 -228t-352 -142t-474 -49q-282 0 -501 55.5t-368 163t-226.5 265t-77.5 361.5h885q0 -132 70 -198.5t208 -66.5q54 0 99.5 10t78.5 28.5t51 43.5t18 55q0 41 -18 66.5t-61 43.5t-114 33t-176 34l-148 27q-77 14 -170 33.5t-187.5 52t-183 80.5
t-157 119.5t-110 170t-41.5 231.5q0 170 71.5 303t207.5 225t333 140.5t447 48.5zM1292 2355l-164 242l-164 -242h-510l324 639h700l324 -639h-510z" />
    <glyph glyph-name="Scedilla" unicode="&#x15e;" horiz-adv-x="2785" 
d="M1383 2920q305 0 544.5 -69.5t404.5 -201.5t252 -321.5t87 -429.5h-900q0 72 -27.5 128.5t-79.5 96t-126.5 60.5t-169.5 21q-78 0 -141.5 -13.5t-109.5 -38.5t-71 -58.5t-25 -74.5q0 -52 26.5 -84.5t85.5 -54t154 -37t233 -35.5l69 -10q88 -12 185 -27.5t195.5 -38
t195 -54.5t183.5 -78t161.5 -109t129 -147t85.5 -191.5t31 -243.5q0 -229 -91 -409t-265 -304.5t-427 -190t-576 -65.5q-340 0 -596 72t-427 207.5t-257 330t-86 438.5h900q0 -79 31.5 -140.5t91 -104t145.5 -65t196 -22.5q93 0 169 15.5t130 43t84 66t30 84.5
q0 56 -27.5 89t-88.5 54.5t-158 36t-235 31.5l-100 13q-83 10 -175.5 23t-187.5 33t-188.5 50t-178.5 74t-157.5 104.5t-126 142t-84 187t-30.5 238.5q0 236 95.5 418t269 307t415 189.5t533.5 64.5zM1529 8l-32 -159q106 -2 193 -25t149 -63t96 -95t34 -122
q0 -73 -41 -133.5t-114.5 -103.5t-176.5 -67t-227 -24q-60 0 -125.5 6t-137.5 17v292q53 -14 98 -19.5t83 -5.5q89 0 135 25.5t46 58.5q0 19 -18 38.5t-54.5 35.5t-92 25.5t-130.5 9.5l55 309h260z" />
    <glyph glyph-name="scedilla" unicode="&#x15f;" horiz-adv-x="2350" 
d="M1128 2265q270 0 483 -56t360 -162.5t225 -260.5t78 -349h-885q0 258 -231 258q-46 0 -84 -9.5t-65 -27t-42 -42t-15 -53.5q0 -45 23.5 -74t69 -49.5t113 -35t155.5 -31.5l148 -28q63 -12 133 -26t142 -34t143.5 -46.5t136 -63t120 -84.5t96.5 -110t64 -140t23 -175
q0 -172 -75.5 -307t-219.5 -228t-352 -142t-474 -49q-282 0 -501 55.5t-368 163t-226.5 265t-77.5 361.5h885q0 -132 70 -198.5t208 -66.5q54 0 99.5 10t78.5 28.5t51 43.5t18 55q0 41 -18 66.5t-61 43.5t-114 33t-176 34l-148 27q-77 14 -170 33.5t-187.5 52t-183 80.5
t-157 119.5t-110 170t-41.5 231.5q0 170 71.5 303t207.5 225t333 140.5t447 48.5zM1335 8l-32 -159q106 -2 193 -25t149 -63t96 -95t34 -122q0 -73 -41 -133.5t-114.5 -103.5t-176.5 -67t-227 -24q-60 0 -125.5 6t-137.5 17v292q53 -14 98 -19.5t83 -5.5q89 0 135 25.5
t46 58.5q0 19 -18 38.5t-54.5 35.5t-92 25.5t-130.5 9.5l55 309h260z" />
    <glyph glyph-name="Scaron" unicode="&#x160;" horiz-adv-x="2785" 
d="M1383 2920q305 0 544.5 -69.5t404.5 -201.5t252 -321.5t87 -429.5h-900q0 72 -27.5 128.5t-79.5 96t-126.5 60.5t-169.5 21q-78 0 -141.5 -13.5t-109.5 -38.5t-71 -58.5t-25 -74.5q0 -52 26.5 -84.5t85.5 -54t154 -37t233 -35.5l69 -10q88 -12 185 -27.5t195.5 -38
t195 -54.5t183.5 -78t161.5 -109t129 -147t85.5 -191.5t31 -243.5q0 -229 -91 -409t-265 -304.5t-427 -190t-576 -65.5q-340 0 -596 72t-427 207.5t-257 330t-86 438.5h900q0 -79 31.5 -140.5t91 -104t145.5 -65t196 -22.5q93 0 169 15.5t130 43t84 66t30 84.5
q0 56 -27.5 89t-88.5 54.5t-158 36t-235 31.5l-100 13q-83 10 -175.5 23t-187.5 33t-188.5 50t-178.5 74t-157.5 104.5t-126 142t-84 187t-30.5 238.5q0 236 95.5 418t269 307t415 189.5t533.5 64.5zM1702 3010h-700l-324 639h510l164 -242l164 242h510z" />
    <glyph glyph-name="scaron" unicode="&#x161;" horiz-adv-x="2350" 
d="M1128 2265q270 0 483 -56t360 -162.5t225 -260.5t78 -349h-885q0 258 -231 258q-46 0 -84 -9.5t-65 -27t-42 -42t-15 -53.5q0 -45 23.5 -74t69 -49.5t113 -35t155.5 -31.5l148 -28q63 -12 133 -26t142 -34t143.5 -46.5t136 -63t120 -84.5t96.5 -110t64 -140t23 -175
q0 -172 -75.5 -307t-219.5 -228t-352 -142t-474 -49q-282 0 -501 55.5t-368 163t-226.5 265t-77.5 361.5h885q0 -132 70 -198.5t208 -66.5q54 0 99.5 10t78.5 28.5t51 43.5t18 55q0 41 -18 66.5t-61 43.5t-114 33t-176 34l-148 27q-77 14 -170 33.5t-187.5 52t-183 80.5
t-157 119.5t-110 170t-41.5 231.5q0 170 71.5 303t207.5 225t333 140.5t447 48.5zM1478 2355h-700l-324 639h510l164 -242l164 242h510z" />
    <glyph glyph-name="uni0162" unicode="&#x162;" horiz-adv-x="2534" 
d="M2504 2100h-762v-2100h-950v2100h-762v760h2474v-760zM1404 8l-32 -159q106 -2 193 -25t149 -63t96 -95t34 -122q0 -73 -41 -133.5t-114.5 -103.5t-176.5 -67t-227 -24q-60 0 -125.5 6t-137.5 17v292q53 -14 98 -19.5t83 -5.5q89 0 135 25.5t46 58.5q0 19 -18 38.5
t-54.5 35.5t-92 25.5t-130.5 9.5l55 309h260z" />
    <glyph glyph-name="uni0163" unicode="&#x163;" horiz-adv-x="1665" 
d="M1620 17q-160 -38 -296.5 -57.5t-255.5 -19.5q-828 0 -828 938v647h-240v680h240v508h890v-508h490v-680h-490v-648q0 -73 12.5 -124.5t39 -84.5t68 -48t100.5 -15q49 0 113.5 10.5t156.5 31.5v-630zM1110 8l-32 -159q106 -2 193 -25t149 -63t96 -95t34 -122
q0 -73 -41 -133.5t-114.5 -103.5t-176.5 -67t-227 -24q-60 0 -125.5 6t-137.5 17v292q53 -14 98 -19.5t83 -5.5q89 0 135 25.5t46 58.5q0 19 -18 38.5t-54.5 35.5t-92 25.5t-130.5 9.5l55 309h260z" />
    <glyph glyph-name="Tcaron" unicode="&#x164;" horiz-adv-x="2534" 
d="M2504 2100h-762v-2100h-950v2100h-762v760h2474v-760zM1617 3010h-700l-324 639h510l164 -242l164 242h510z" />
    <glyph glyph-name="tcaron" unicode="&#x165;" horiz-adv-x="1665" 
d="M1620 17q-160 -38 -296.5 -57.5t-255.5 -19.5q-828 0 -828 938v647h-240v680h240v508h890v-508h490v-680h-490v-648q0 -73 12.5 -124.5t39 -84.5t68 -48t100.5 -15q49 0 113.5 10.5t156.5 31.5v-630zM1711 2335h-470l79 951h559z" />
    <glyph glyph-name="Tbar" unicode="&#x166;" horiz-adv-x="2534" 
d="M2504 2100h-762v-2100h-950v2100h-762v760h2474v-760zM2181 968h-1828v458h1828v-458z" />
    <glyph glyph-name="tbar" unicode="&#x167;" horiz-adv-x="1665" 
d="M1620 17q-160 -38 -296.5 -57.5t-255.5 -19.5q-828 0 -828 938v647h-240v680h240v508h890v-508h490v-680h-490v-648q0 -73 12.5 -124.5t39 -84.5t68 -48t100.5 -15q49 0 113.5 10.5t156.5 31.5v-630zM1562 964h-1560v411h1560v-411z" />
    <glyph glyph-name="Utilde" unicode="&#x168;" horiz-adv-x="2760" 
d="M90 2860h950v-1650q0 -145 21 -241.5t63.5 -154t106.5 -81t149 -23.5q86 0 149.5 23.5t106 81t63.5 154t21 241.5v1650h950v-1760q0 -193 -44.5 -354t-126.5 -290t-198 -226t-259 -161.5t-310.5 -96.5t-351.5 -32t-351.5 32t-310.5 96.5t-259 161.5t-198 226t-126.5 290
t-44.5 354v1760zM2038 3651q0 -177 -19 -302.5t-60.5 -204.5t-107.5 -115.5t-160 -36.5q-49 0 -91.5 8t-78.5 20t-64.5 25t-48.5 23l-70 35q-18 9 -39.5 19t-46 19t-51 15t-53.5 6q-25 0 -46 -7t-35 -23.5t-22 -44t-8 -69.5v-6h-270v12q0 170 21 294.5t65 205.5t111.5 120
t159.5 39q44 0 82.5 -7.5t70.5 -18.5t58 -23.5t44 -22.5l66 -35q18 -9 40.5 -20.5t50 -21.5t59 -16.5t65.5 -6.5q25 0 46.5 7.5t37.5 24t25 43t9 65.5v12h260v-12z" />
    <glyph glyph-name="utilde" unicode="&#x169;" 
d="M1406 2205h890v-2205h-890v701q-54 -387 -229.5 -574t-480.5 -187q-163 0 -281 53.5t-194.5 165.5t-113.5 284t-37 409v1353h890v-1103q0 -208 54.5 -307.5t168.5 -99.5t168.5 99.5t54.5 307.5v1103zM1841 2996q0 -177 -19 -302.5t-60.5 -204.5t-107.5 -115.5t-160 -36.5
q-49 0 -91.5 8t-78.5 20t-64.5 25t-48.5 23l-70 35q-18 9 -39.5 19t-46 19t-51 15t-53.5 6q-25 0 -46 -7t-35 -23.5t-22 -44t-8 -69.5v-6h-270v12q0 170 21 294.5t65 205.5t111.5 120t159.5 39q44 0 82.5 -7.5t70.5 -18.5t58 -23.5t44 -22.5l66 -35q18 -9 40.5 -20.5
t50 -21.5t59 -16.5t65.5 -6.5q25 0 46.5 7.5t37.5 24t25 43t9 65.5v12h260v-12z" />
    <glyph glyph-name="Umacron" unicode="&#x16a;" horiz-adv-x="2760" 
d="M90 2860h950v-1650q0 -145 21 -241.5t63.5 -154t106.5 -81t149 -23.5q86 0 149.5 23.5t106 81t63.5 154t21 241.5v1650h950v-1760q0 -193 -44.5 -354t-126.5 -290t-198 -226t-259 -161.5t-310.5 -96.5t-351.5 -32t-351.5 32t-310.5 96.5t-259 161.5t-198 226t-126.5 290
t-44.5 354v1760zM1980 3075h-1200v420h1200v-420z" />
    <glyph glyph-name="umacron" unicode="&#x16b;" 
d="M1406 2205h890v-2205h-890v701q-54 -387 -229.5 -574t-480.5 -187q-163 0 -281 53.5t-194.5 165.5t-113.5 284t-37 409v1353h890v-1103q0 -208 54.5 -307.5t168.5 -99.5t168.5 99.5t54.5 307.5v1103zM1783 2420h-1200v420h1200v-420z" />
    <glyph glyph-name="Ubreve" unicode="&#x16c;" horiz-adv-x="2760" 
d="M90 2860h950v-1650q0 -145 21 -241.5t63.5 -154t106.5 -81t149 -23.5q86 0 149.5 23.5t106 81t63.5 154t21 241.5v1650h950v-1760q0 -193 -44.5 -354t-126.5 -290t-198 -226t-259 -161.5t-310.5 -96.5t-351.5 -32t-351.5 32t-310.5 96.5t-259 161.5t-198 226t-126.5 290
t-44.5 354v1760zM1154 3728q0 -69 15.5 -124.5t45 -93.5t71.5 -58.5t95 -20.5t95 20.5t71.5 58.5t45 93.5t15.5 124.5h358q0 -171 -34 -305t-105.5 -225.5t-182 -139.5t-263.5 -48t-263.5 48t-182 139.5t-105.5 225.5t-34 305h358z" />
    <glyph glyph-name="ubreve" unicode="&#x16d;" 
d="M1406 2205h890v-2205h-890v701q-54 -387 -229.5 -574t-480.5 -187q-163 0 -281 53.5t-194.5 165.5t-113.5 284t-37 409v1353h890v-1103q0 -208 54.5 -307.5t168.5 -99.5t168.5 99.5t54.5 307.5v1103zM957 3073q0 -69 15.5 -124.5t45 -93.5t71.5 -58.5t95 -20.5t95 20.5
t71.5 58.5t45 93.5t15.5 124.5h358q0 -171 -34 -305t-105.5 -225.5t-182 -139.5t-263.5 -48t-263.5 48t-182 139.5t-105.5 225.5t-34 305h358z" />
    <glyph glyph-name="Uring" unicode="&#x16e;" horiz-adv-x="2760" 
d="M90 2860h950v-1650q0 -145 21 -241.5t63.5 -154t106.5 -81t149 -23.5q86 0 149.5 23.5t106 81t63.5 154t21 241.5v1650h950v-1760q0 -193 -44.5 -354t-126.5 -290t-198 -226t-259 -161.5t-310.5 -96.5t-351.5 -32t-351.5 32t-310.5 96.5t-259 161.5t-198 226t-126.5 290
t-44.5 354v1760zM941 3444q0 100 33 180.5t92 136.5t139.5 86.5t175.5 30.5t175.5 -30.5t139.5 -86.5t92 -136.5t33 -180.5t-33 -180.5t-92 -136.5t-139.5 -86.5t-175.5 -30.5t-175.5 30.5t-139.5 86.5t-92 136.5t-33 180.5zM1257 3443q0 -79 34.5 -116t89.5 -37q54 0 89 37
t35 116q0 80 -35 117t-89 37q-55 0 -89.5 -37t-34.5 -117z" />
    <glyph glyph-name="uring" unicode="&#x16f;" 
d="M1406 2205h890v-2205h-890v701q-54 -387 -229.5 -574t-480.5 -187q-163 0 -281 53.5t-194.5 165.5t-113.5 284t-37 409v1353h890v-1103q0 -208 54.5 -307.5t168.5 -99.5t168.5 99.5t54.5 307.5v1103zM743 2789q0 100 33 180.5t92 136.5t139.5 86.5t175.5 30.5
t175.5 -30.5t139.5 -86.5t92 -136.5t33 -180.5t-33 -180.5t-92 -136.5t-139.5 -86.5t-175.5 -30.5t-175.5 30.5t-139.5 86.5t-92 136.5t-33 180.5zM1059 2788q0 -79 34.5 -116t89.5 -37q54 0 89 37t35 116q0 80 -35 117t-89 37q-55 0 -89.5 -37t-34.5 -117z" />
    <glyph glyph-name="Uhungarumlaut" unicode="&#x170;" horiz-adv-x="2760" 
d="M90 2860h950v-1650q0 -145 21 -241.5t63.5 -154t106.5 -81t149 -23.5q86 0 149.5 23.5t106 81t63.5 154t21 241.5v1650h950v-1760q0 -193 -44.5 -354t-126.5 -290t-198 -226t-259 -161.5t-310.5 -96.5t-351.5 -32t-351.5 32t-310.5 96.5t-259 161.5t-198 226t-126.5 290
t-44.5 354v1760zM708 3010l214 639h640l-324 -639h-530zM1448 3010l214 639h640l-324 -639h-530z" />
    <glyph glyph-name="uhungarumlaut" unicode="&#x171;" 
d="M1406 2205h890v-2205h-890v701q-54 -387 -229.5 -574t-480.5 -187q-163 0 -281 53.5t-194.5 165.5t-113.5 284t-37 409v1353h890v-1103q0 -208 54.5 -307.5t168.5 -99.5t168.5 99.5t54.5 307.5v1103zM510 2355l214 639h640l-324 -639h-530zM1250 2355l214 639h640
l-324 -639h-530z" />
    <glyph glyph-name="Uogonek" unicode="&#x172;" horiz-adv-x="2760" 
d="M90 2860h950v-1650q0 -145 21 -241.5t63.5 -154t106.5 -81t149 -23.5q86 0 149.5 23.5t106 81t63.5 154t21 241.5v1650h950v-1760q0 -193 -44.5 -354t-126.5 -290t-198 -226t-259 -161.5t-310.5 -96.5t-351.5 -32t-351.5 32t-310.5 96.5t-259 161.5t-198 226t-126.5 290
t-44.5 354v1760zM1842 0q-79 0 -153.5 -16.5t-133 -41.5t-94 -55.5t-35.5 -58.5q0 -20 18 -35t51.5 -25.5t80.5 -16t105 -5.5q51 0 91 4t77 10v-451q-63 -8 -125 -11.5t-119 -3.5q-121 0 -221.5 23.5t-172.5 66.5t-112 103.5t-40 133.5q0 89 58 165t160 131.5t241 88
t302 34.5z" />
    <glyph glyph-name="uogonek" unicode="&#x173;" 
d="M1406 2205h890v-2205h-890v701q-54 -387 -229.5 -574t-480.5 -187q-163 0 -281 53.5t-194.5 165.5t-113.5 284t-37 409v1353h890v-1103q0 -208 54.5 -307.5t168.5 -99.5t168.5 99.5t54.5 307.5v1103zM2294 0q-79 0 -153.5 -16.5t-133 -41.5t-94 -55.5t-35.5 -58.5
q0 -20 18 -35t51.5 -25.5t80.5 -16t105 -5.5q51 0 91 4t77 10v-451q-63 -8 -125 -11.5t-119 -3.5q-121 0 -221.5 23.5t-172.5 66.5t-112 103.5t-40 133.5q0 89 58 165t160 131.5t241 88t302 34.5z" />
    <glyph glyph-name="Wcircumflex" unicode="&#x174;" horiz-adv-x="4384" 
d="M2839 2860l231 -2253l317 2253h967l-612 -2860h-1290l-260 2209l-259 -2209h-1290l-612 2860h1017l317 -2253l231 2253h1243zM2356 3010l-164 242l-164 -242h-510l324 639h700l324 -639h-510z" />
    <glyph glyph-name="wcircumflex" unicode="&#x175;" horiz-adv-x="3723" 
d="M2480 2205l162 -1593l230 1593h860l-456 -2205h-1230l-185 1671l-184 -1671h-1230l-457 2205h905l229 -1638l166 1638h1190zM2025 2355l-164 242l-164 -242h-510l324 639h700l324 -639h-510z" />
    <glyph glyph-name="Ycircumflex" unicode="&#x176;" horiz-adv-x="2758" 
d="M2813 2860l-959 -1879v-981h-950v982l-959 1878h1015l424 -1014l434 1014h995zM1543 3010l-164 242l-164 -242h-510l324 639h700l324 -639h-510z" />
    <glyph glyph-name="ycircumflex" unicode="&#x177;" horiz-adv-x="2410" 
d="M2435 2205l-734 -2152q-77 -227 -183.5 -391.5t-248 -271t-321.5 -157.5t-405 -51q-115 0 -242.5 13.5t-271.5 39.5v680q93 -14 169 -21t142 -7q121 0 211.5 24t165.5 78l-742 2216h945l292 -1546l298 1546h925zM1369 2355l-164 242l-164 -242h-510l324 639h700l324 -639
h-510z" />
    <glyph glyph-name="Ydieresis" unicode="&#x178;" horiz-adv-x="2758" 
d="M2813 2860l-959 -1879v-981h-950v982l-959 1878h1015l424 -1014l434 1014h995zM1303 3007h-624v640h624v-640zM2079 3007h-624v640h624v-640z" />
    <glyph glyph-name="Zacute" unicode="&#x179;" horiz-adv-x="2565" 
d="M1200 760h1275v-760h-2385v790l1178 1310h-1128v760h2235v-790zM2012.01 3649h-719.956l-283.983 -639h539.968z" />
    <glyph glyph-name="zacute" unicode="&#x17a;" horiz-adv-x="2211" 
d="M1030 680h1146v-680h-2141v720l1014 805h-975v680h2025v-720zM1835.01 2994h-719.956l-283.983 -639h539.968z" />
    <glyph glyph-name="Zdotaccent" unicode="&#x17b;" horiz-adv-x="2565" 
d="M1200 760h1275v-760h-2385v790l1178 1310h-1128v760h2235v-790zM1593 3007h-624v640h624v-640z" />
    <glyph glyph-name="zdotaccent" unicode="&#x17c;" horiz-adv-x="2211" 
d="M1030 680h1146v-680h-2141v720l1014 805h-975v680h2025v-720zM1416 2352h-624v640h624v-640z" />
    <glyph glyph-name="Zcaron" unicode="&#x17d;" horiz-adv-x="2565" 
d="M1200 760h1275v-760h-2385v790l1178 1310h-1128v760h2235v-790zM1633 3010h-700l-324 639h510l164 -242l164 242h510z" />
    <glyph glyph-name="zcaron" unicode="&#x17e;" horiz-adv-x="2211" 
d="M1030 680h1146v-680h-2141v720l1014 805h-975v680h2025v-720zM1456 2355h-700l-324 639h510l164 -242l164 242h510z" />
    <glyph glyph-name="longs" unicode="&#x17f;" horiz-adv-x="3027" 
d="M90 2860h2847v-2860h-2847v2860zM1513 1726l620 679h-1238zM601 725l643 705l-643 706v-1411zM2426 723v1412l-643 -705zM894 455h1236l-617 679z" />
    <glyph glyph-name="florin" unicode="&#x192;" horiz-adv-x="1930" 
d="M1920 2421q-67 9 -135 14t-126 5q-77 0 -131.5 -9.5t-89.5 -30.5t-51.5 -53.5t-16.5 -78.5v-63h550v-680h-510v-1538q0 -195 -62 -345t-183 -252.5t-298 -155t-408 -52.5q-103 0 -218.5 10t-230.5 29v630q63 -9 125.5 -14t116.5 -5q71 0 122 9.5t83.5 30.5t47.5 53.5
t15 78.5v1521h-240v680h240v80q0 195 62.5 345t183 252.5t298 155t407.5 52.5q103 0 219 -10t230 -29v-630z" />
    <glyph glyph-name="AEacute" unicode="&#x1fc;" horiz-adv-x="3720" 
d="M-45 0l1022 2860h2667v-760h-1092v-326h982v-690h-982v-324h1122v-760h-2072v497h-516l-136 -497h-995zM1602 1217v1165l-319 -1165h319zM3043.01 3649h-719.956l-283.983 -639h539.968z" />
    <glyph glyph-name="aeacute" unicode="&#x1fd;" horiz-adv-x="3783" 
d="M85 1337q0 216 79 388t226.5 292t359.5 184t478 64q222 0 401.5 -44.5t316.5 -131.5q135 85 297.5 130.5t350.5 45.5q171 0 322.5 -38t279 -109.5t229 -174t172 -232t108 -283.5t37.5 -327q0 -42 -2.5 -87t-7.5 -84h-1459q18 -166 105 -253.5t236 -87.5q104 0 174.5 44.5
t114.5 137.5h800q-49 -193 -150.5 -347t-246 -261.5t-326.5 -165t-391 -57.5q-189 0 -354.5 47.5t-300.5 135.5t-236.5 213.5t-163.5 282.5q-21 -155 -88.5 -280.5t-173.5 -214t-244.5 -136.5t-301.5 -48q-159 0 -289 45.5t-223 128.5t-143.5 200t-50.5 261q0 163 66.5 290
t194 214t314 132.5t425.5 45.5h426v51q0 161 -57.5 244.5t-183.5 83.5q-123 0 -179 -76.5t-56 -222.5h-885zM2932 1330q-30 158 -111 232t-221 74q-141 0 -221 -75.5t-102 -230.5h655zM1180 857q-130 0 -196 -42.5t-66 -125.5q0 -77 54 -120.5t148 -43.5q65 0 124 21t104 57
t71.5 83t26.5 99v72h-266zM2613.01 2994h-719.956l-283.983 -639h539.968z" />
    <glyph glyph-name="Oslashacute" unicode="&#x1fe;" horiz-adv-x="3020" 
d="M425 391q-86 96 -154 210t-115 244.5t-71.5 277t-24.5 307.5q0 229 49.5 428t141 365t221.5 295.5t291 218.5t349.5 136t397.5 47q198 0 375 -41t333 -121l131 162h611l-365 -451q86 -96 154 -210t115 -244.5t71.5 -277t24.5 -307.5q0 -229 -49.5 -428t-141 -365
t-221.5 -295.5t-291 -218.5t-349.5 -136t-397.5 -47q-198 0 -375.5 41.5t-332.5 120.5l-132 -162h-610zM1020 1430q0 -118 12 -216l714 883q-97 53 -236 53q-123 0 -215 -42.5t-153 -131t-91.5 -224.5t-30.5 -322zM1277 761q98 -51 233 -51q123 0 215 43t153 131.5t91.5 224
t30.5 321.5q0 115 -12 211zM2239.01 3649h-719.956l-283.983 -639h539.968z" />
    <glyph glyph-name="oslashacute" unicode="&#x1ff;" horiz-adv-x="2436" 
d="M2088 1925q145 -149 226.5 -357t81.5 -465q0 -178 -40 -334t-114.5 -285t-180 -230t-236.5 -171t-284.5 -106.5t-322.5 -36.5q-165 0 -312.5 34t-276.5 99l-109 -133h-450l279 340q-146 151 -227.5 358t-81.5 465q0 179 40 334t114.5 284.5t180 230.5t236.5 170.5
t284.5 106t322.5 36.5q165 0 312.5 -33.5t276.5 -99.5l109 133h450zM940 1103q0 -17 0.5 -32.5t1.5 -30.5l373 456q-44 14 -97 14q-139 0 -208.5 -98t-69.5 -309zM1121 709q45 -14 97 -14q140 0 209 98.5t69 309.5q0 17 -0.5 32t-1.5 30zM1947.01 2994h-719.956
l-283.983 -639h539.968z" />
    <glyph glyph-name="uni0218" unicode="&#x218;" horiz-adv-x="2785" 
d="M1383 2920q305 0 544.5 -69.5t404.5 -201.5t252 -321.5t87 -429.5h-900q0 72 -27.5 128.5t-79.5 96t-126.5 60.5t-169.5 21q-78 0 -141.5 -13.5t-109.5 -38.5t-71 -58.5t-25 -74.5q0 -52 26.5 -84.5t85.5 -54t154 -37t233 -35.5l69 -10q88 -12 185 -27.5t195.5 -38
t195 -54.5t183.5 -78t161.5 -109t129 -147t85.5 -191.5t31 -243.5q0 -229 -91 -409t-265 -304.5t-427 -190t-576 -65.5q-340 0 -596 72t-427 207.5t-257 330t-86 438.5h900q0 -79 31.5 -140.5t91 -104t145.5 -65t196 -22.5q93 0 169 15.5t130 43t84 66t30 84.5
q0 56 -27.5 89t-88.5 54.5t-158 36t-235 31.5l-100 13q-83 10 -175.5 23t-187.5 33t-188.5 50t-178.5 74t-157.5 104.5t-126 142t-84 187t-30.5 238.5q0 236 95.5 418t269 307t415 189.5t533.5 64.5zM1486 -788h-560l118 638h700z" />
    <glyph glyph-name="uni0219" unicode="&#x219;" horiz-adv-x="2350" 
d="M1128 2265q270 0 483 -56t360 -162.5t225 -260.5t78 -349h-885q0 258 -231 258q-46 0 -84 -9.5t-65 -27t-42 -42t-15 -53.5q0 -45 23.5 -74t69 -49.5t113 -35t155.5 -31.5l148 -28q63 -12 133 -26t142 -34t143.5 -46.5t136 -63t120 -84.5t96.5 -110t64 -140t23 -175
q0 -172 -75.5 -307t-219.5 -228t-352 -142t-474 -49q-282 0 -501 55.5t-368 163t-226.5 265t-77.5 361.5h885q0 -132 70 -198.5t208 -66.5q54 0 99.5 10t78.5 28.5t51 43.5t18 55q0 41 -18 66.5t-61 43.5t-114 33t-176 34l-148 27q-77 14 -170 33.5t-187.5 52t-183 80.5
t-157 119.5t-110 170t-41.5 231.5q0 170 71.5 303t207.5 225t333 140.5t447 48.5zM1292 -788h-560l118 638h700z" />
    <glyph glyph-name="uni021A" unicode="&#x21a;" horiz-adv-x="2534" 
d="M2504 2100h-762v-2100h-950v2100h-762v760h2474v-760zM1361 -788h-560l118 638h700z" />
    <glyph glyph-name="uni021B" unicode="&#x21b;" horiz-adv-x="1665" 
d="M1620 17q-160 -38 -296.5 -57.5t-255.5 -19.5q-828 0 -828 938v647h-240v680h240v508h890v-508h490v-680h-490v-648q0 -73 12.5 -124.5t39 -84.5t68 -48t100.5 -15q49 0 113.5 10.5t156.5 31.5v-630zM1067 -788h-560l118 638h700z" />
    <glyph glyph-name="uni0237" unicode="&#x237;" horiz-adv-x="1050" 
d="M970 255q0 -202 -22 -360t-71.5 -277t-128 -202t-191.5 -135t-263 -75.5t-341 -23.5h-101v690h64q49 0 80.5 10t50 34.5t26 67t7.5 106.5v2115h890v-1950z" />
    <glyph glyph-name="circumflex" unicode="&#x2c6;" horiz-adv-x="1528" 
d="M928 2295l-164 242l-164 -242h-510l324 639h700l324 -639h-510z" />
    <glyph glyph-name="caron" unicode="&#x2c7;" horiz-adv-x="1528" 
d="M1114 2295h-700l-324 639h510l164 -242l164 242h510z" />
    <glyph glyph-name="breve" unicode="&#x2d8;" horiz-adv-x="1350" 
d="M448 3013q0 -69 15.5 -124.5t45 -93.5t71.5 -58.5t95 -20.5t95 20.5t71.5 58.5t45 93.5t15.5 124.5h358q0 -171 -34 -305t-105.5 -225.5t-182 -139.5t-263.5 -48t-263.5 48t-182 139.5t-105.5 225.5t-34 305h358z" />
    <glyph glyph-name="dotaccent" unicode="&#x2d9;" horiz-adv-x="805" 
d="M714 2292h-624v640h624v-640z" />
    <glyph glyph-name="ring" unicode="&#x2da;" horiz-adv-x="1061" 
d="M91 2729q0 100 33 180.5t92 136.5t139.5 86.5t175.5 30.5t175.5 -30.5t139.5 -86.5t92 -136.5t33 -180.5t-33 -180.5t-92 -136.5t-139.5 -86.5t-175.5 -30.5t-175.5 30.5t-139.5 86.5t-92 136.5t-33 180.5zM407 2728q0 -79 34.5 -116t89.5 -37q54 0 89 37t35 116
q0 80 -35 117t-89 37q-55 0 -89.5 -37t-34.5 -117z" />
    <glyph glyph-name="ogonek" unicode="&#x2db;" horiz-adv-x="972" 
d="M874 -59q-79 0 -153.5 -16.5t-133 -41.5t-94 -55.5t-35.5 -58.5q0 -20 18 -35t51.5 -25.5t80.5 -16t105 -5.5q51 0 91 4t77 10v-451q-63 -8 -125 -11.5t-119 -3.5q-121 0 -221.5 23.5t-172.5 66.5t-112 103.5t-40 133.5q0 89 58 165t160 131.5t241 88t302 34.5z" />
    <glyph glyph-name="tilde" unicode="&#x2dc;" horiz-adv-x="1452" 
d="M1362 2936q0 -177 -19 -302.5t-60.5 -204.5t-107.5 -115.5t-160 -36.5q-49 0 -91.5 8t-78.5 20t-64.5 25t-48.5 23l-70 35q-18 9 -39.5 19t-46 19t-51 15t-53.5 6q-25 0 -46 -7t-35 -23.5t-22 -44t-8 -69.5v-6h-270v12q0 170 21 294.5t65 205.5t111.5 120t159.5 39
q44 0 82.5 -7.5t70.5 -18.5t58 -23.5t44 -22.5l66 -35q18 -9 40.5 -20.5t50 -21.5t59 -16.5t65.5 -6.5q25 0 46.5 7.5t37.5 24t25 43t9 65.5v12h260v-12z" />
    <glyph glyph-name="hungarumlaut" unicode="&#x2dd;" horiz-adv-x="1775" 
d="M90 2295l214 639h640l-324 -639h-530zM830 2295l214 639h640l-324 -639h-530z" />
    <glyph glyph-name="uni03BC" unicode="&#x3bc;" horiz-adv-x="3027" 
d="M90 2860h2847v-2860h-2847v2860zM1513 1726l620 679h-1238zM601 725l643 705l-643 706v-1411zM2426 723v1412l-643 -705zM894 455h1236l-617 679z" />
    <glyph glyph-name="Wgrave" unicode="&#x1e80;" horiz-adv-x="4384" 
d="M2839 2860l231 -2253l317 2253h967l-612 -2860h-1290l-260 2209l-259 -2209h-1290l-612 2860h1017l317 -2253l231 2253h1243zM1463 3649h720l284 -639h-540z" />
    <glyph glyph-name="wgrave" unicode="&#x1e81;" horiz-adv-x="3723" 
d="M2480 2205l162 -1593l230 1593h860l-456 -2205h-1230l-185 1671l-184 -1671h-1230l-457 2205h905l229 -1638l166 1638h1190zM1132 2994h720l284 -639h-540z" />
    <glyph glyph-name="Wacute" unicode="&#x1e82;" horiz-adv-x="4384" 
d="M2839 2860l231 -2253l317 2253h967l-612 -2860h-1290l-260 2209l-259 -2209h-1290l-612 2860h1017l317 -2253l231 2253h1243zM2921.01 3649h-719.956l-283.983 -639h539.968z" />
    <glyph glyph-name="wacute" unicode="&#x1e83;" horiz-adv-x="3723" 
d="M2480 2205l162 -1593l230 1593h860l-456 -2205h-1230l-185 1671l-184 -1671h-1230l-457 2205h905l229 -1638l166 1638h1190zM2591.01 2994h-719.956l-283.983 -639h539.968z" />
    <glyph glyph-name="Wdieresis" unicode="&#x1e84;" horiz-adv-x="4384" 
d="M2839 2860l231 -2253l317 2253h967l-612 -2860h-1290l-260 2209l-259 -2209h-1290l-612 2860h1017l317 -2253l231 2253h1243zM2116 3007h-624v640h624v-640zM2892 3007h-624v640h624v-640z" />
    <glyph glyph-name="wdieresis" unicode="&#x1e85;" horiz-adv-x="3723" 
d="M2480 2205l162 -1593l230 1593h860l-456 -2205h-1230l-185 1671l-184 -1671h-1230l-457 2205h905l229 -1638l166 1638h1190zM1785 2352h-624v640h624v-640zM2561 2352h-624v640h624v-640z" />
    <glyph glyph-name="Ygrave" unicode="&#x1ef2;" horiz-adv-x="2758" 
d="M2813 2860l-959 -1879v-981h-950v982l-959 1878h1015l424 -1014l434 1014h995zM650 3649h720l284 -639h-540z" />
    <glyph glyph-name="ygrave" unicode="&#x1ef3;" horiz-adv-x="2410" 
d="M2435 2205l-734 -2152q-77 -227 -183.5 -391.5t-248 -271t-321.5 -157.5t-405 -51q-115 0 -242.5 13.5t-271.5 39.5v680q93 -14 169 -21t142 -7q121 0 211.5 24t165.5 78l-742 2216h945l292 -1546l298 1546h925zM476 2994h720l284 -639h-540z" />
    <glyph glyph-name="endash" unicode="&#x2013;" horiz-adv-x="2881" 
d="M2791 798h-2701v720h2701v-720z" />
    <glyph glyph-name="emdash" unicode="&#x2014;" horiz-adv-x="4140" 
d="M4050 798h-3960v720h3960v-720z" />
    <glyph glyph-name="quoteleft" unicode="&#x2018;" horiz-adv-x="1137" 
d="M506.03 2959.95h539.967l-145.991 -1557.91h-809.95z" />
    <glyph glyph-name="quoteright" unicode="&#x2019;" horiz-adv-x="1137" 
d="M631.001 1402.23h-539.935l145.982 1557.81h809.901z" />
    <glyph glyph-name="quotesinglbase" unicode="&#x201a;" horiz-adv-x="961" 
d="M495 -758h-540l146 1558h810z" />
    <glyph glyph-name="quotedblleft" unicode="&#x201c;" horiz-adv-x="2038" 
d="M507.03 2959.95h539.967l-145.991 -1557.91h-809.95zM1407.03 2959.95h539.967l-145.991 -1557.91h-809.95z" />
    <glyph glyph-name="quotedblright" unicode="&#x201d;" horiz-adv-x="2038" 
d="M1531 1402.23h-539.935l145.982 1557.81h809.901zM631.056 1402.23h-539.934l145.982 1557.81h809.9z" />
    <glyph glyph-name="quotedblbase" unicode="&#x201e;" horiz-adv-x="1862" 
d="M495 -758h-540l146 1558h810zM1395 -758h-540l146 1558h810z" />
    <glyph glyph-name="dagger" unicode="&#x2020;" horiz-adv-x="1930" 
d="M1440 2860v-655h400v-630h-400v-1575h-950v1575h-400v630h400v655h950z" />
    <glyph glyph-name="daggerdbl" unicode="&#x2021;" horiz-adv-x="1931" 
d="M1441 2860v-655h400v-630h-400v-289h400v-630h-400v-656h-951v656h-400v630h400v289h-400v630h400v655h951z" />
    <glyph glyph-name="bullet" unicode="&#x2022;" horiz-adv-x="1237" 
d="M1146 688h-1056v1004h1056v-1004z" />
    <glyph glyph-name="ellipsis" unicode="&#x2026;" horiz-adv-x="2883" 
d="M870 0h-780v800h780v-800zM1831 0h-780v800h780v-800zM2792 0h-780v800h780v-800z" />
    <glyph glyph-name="perthousand" unicode="&#x2030;" horiz-adv-x="5137" 
d="M91 2153q0 173 51.5 314.5t145 242t225.5 155.5t294 55q161 0 292.5 -55t224.5 -155.5t144 -242t51 -314.5q0 -172 -50.5 -311t-143.5 -237t-224.5 -151t-294.5 -53t-295 53t-225.5 151.5t-144 237.5t-50.5 310zM2952 2862l-1771 -2860h-609l1766 2860h614zM611 2152
q0 -129 49.5 -198t143.5 -69t143 68.5t49 197.5q0 134 -51 209t-141 75q-91 0 -142 -74.5t-51 -208.5zM1991 692q0 173 51.5 314.5t145 242t225.5 155.5t294 55q161 0 292.5 -55t224.5 -155.5t144 -242t51 -314.5q0 -172 -50.5 -311t-143.5 -237t-224.5 -151t-294.5 -53
t-295 53t-225.5 151.5t-144 237.5t-50.5 310zM3619 692q0 173 51.5 314.5t145 242t225.5 155.5t294 55q161 0 292.5 -55t224.5 -155.5t144 -242t51 -314.5q0 -172 -50.5 -311t-143.5 -237t-224.5 -151t-294.5 -53t-295 53t-225.5 151.5t-144 237.5t-50.5 310zM2511 691
q0 -129 49.5 -198t143.5 -69t143 68.5t49 197.5q0 134 -51 209t-141 75q-91 0 -142 -74.5t-51 -208.5zM4139 691q0 -129 49.5 -198t143.5 -69t143 68.5t49 197.5q0 134 -51 209t-141 75q-91 0 -142 -74.5t-51 -208.5z" />
    <glyph glyph-name="guilsinglleft" unicode="&#x2039;" horiz-adv-x="1906" 
d="M911 2098h950l-868 -994l868 -995h-950l-820 992z" />
    <glyph glyph-name="guilsinglright" unicode="&#x203a;" horiz-adv-x="1906" 
d="M995.056 109.128h-949.942l867.947 993.939l-867.947 994.939h949.942l819.95 -991.939z" />
    <glyph glyph-name="fraction" unicode="&#x2044;" horiz-adv-x="2799" 
d="M90 0l2084 2960h535l-2084 -2960h-535z" />
    <glyph glyph-name="uni2074" unicode="&#x2074;" horiz-adv-x="1561" 
d="M851 1430l-1 254h-760v377l642 799h579v-811h160v-365h-160v-254h-460zM851 2049v387l-307 -387h307z" />
    <glyph glyph-name="Euro" unicode="&#x20ac;" horiz-adv-x="3107" 
d="M60 1317h162q-3 56 -3 113q0 56 3 111h-162v330h212q41 164 112.5 305.5t169.5 258t219.5 207t263 152.5t300.5 94t332 32q287 0 525.5 -88t416.5 -252.5t290 -399.5t146 -530h-941q-33 257 -139.5 378.5t-297.5 121.5q-156 0 -261.5 -68t-162.5 -211h566v-330h-629
q-3 -54 -3 -111q0 -59 3 -113h629v-330h-565q57 -143 162.5 -210t260.5 -67q191 0 297.5 121.5t139.5 378.5h941q-34 -295 -146 -530t-290 -399.5t-416.5 -252.5t-525.5 -88q-259 0 -486.5 71.5t-409 206.5t-310.5 329.5t-191 439.5h-212v330z" />
    <glyph glyph-name="trademark" unicode="&#x2122;" horiz-adv-x="3514" 
d="M3453 2860v-1573h-522v1136l-229 -1136h-462l-229 1136v-1136h-495v1573h806l182 -952l182 952h767zM1351 2442h-384v-1155h-523v1155h-384v418h1291v-418z" />
    <glyph glyph-name="minus" unicode="&#x2212;" horiz-adv-x="2056" 
d="M90 1138v616h1876v-616h-1876z" />
    <glyph glyph-name="ethbar" horiz-adv-x="1700" 
d="M1610 403h-1520v550h1520v-550z" />
    <glyph glyph-name="crossbar" horiz-adv-x="1765" 
d="M1675 1698l-1584 -715v514l1584 716v-515z" />
    <glyph glyph-name="ethbar.case" horiz-adv-x="1672" 
d="M1581 374h-1490v500h1490v-500z" />
    <glyph glyph-name="crossbar.case" horiz-adv-x="1465" 
d="M1374 784l-1283 -580v505l1283 580v-505z" />
    <glyph glyph-name="commaccent" horiz-adv-x="818" 
d="M560 -971h-470l79 951h559z" />
    <glyph glyph-name="commaccent2" horiz-adv-x="999" 
d="M650 -788h-560l118 638h700z" />
    <glyph glyph-name="commaccent3" horiz-adv-x="999" 
d="M349 809h560l-118 -638h-700z" />
    <glyph glyph-name="tbarnew" horiz-adv-x="1740" 
d="M1650 473h-1560v411h1560v-411z" />
    <glyph glyph-name="ogonek2" horiz-adv-x="972" 
d="M734 156q-50 -35 -98.5 -78.5t-86.5 -89.5t-61.5 -91t-23.5 -84q0 -27 13.5 -50.5t43.5 -40t78.5 -26t118.5 -9.5q40 0 79.5 3t84.5 11v-451q-63 -8 -123 -11.5t-108 -3.5q-127 0 -230 27.5t-176.5 75.5t-113.5 113.5t-40 142.5q0 62 25.5 120t69.5 112t103.5 104
t127.5 97t141 90.5t144 83.5z" />
    <glyph glyph-name="custombarH" horiz-adv-x="3156" 
d="M3066 448h-2976v460h2976v-460z" />
    <glyph glyph-name="dotaccent2" horiz-adv-x="805" 
d="M714 2292h-624v640h624v-640z" />
    <glyph glyph-name="Toverlaybar" horiz-adv-x="2008" 
d="M1918 479h-1828v458h1828v-458z" />
    <glyph glyph-name="ogonek3" horiz-adv-x="1000" 
d="M888 -59q-79 0 -153.5 -16.5t-133 -41.5t-94 -55.5t-35.5 -58.5q0 -20 18 -35t51.5 -25.5t80.5 -16t105 -5.5q51 0 91 4t77 10v-451q-63 -8 -125 -11.5t-119 -3.5q-121 0 -221.5 23.5t-172.5 66.5t-112 103.5t-40 133.5q0 89 58 165t160 131.5t241 88t302 34.5z" />
    </font>
</defs>
</svg>
