<?xml version="1.0" standalone="no"?>
<!DOCTYPE svg PUBLIC "-//W3C//DTD SVG 1.1//EN" "http://www.w3.org/Graphics/SVG/1.1/DTD/svg11.dtd" >
<svg xmlns="http://www.w3.org/2000/svg" xmlns:xlink="http://www.w3.org/1999/xlink" version="1.1">
<metadata>
Created by FontForge 20201107 at Fri Sep 22 12:26:55 2023
 By 
(c)rajeshrajput
</metadata>
<defs>
<font id="Nohemi-ExtraBold" horiz-adv-x="2368" >
  <font-face 
    font-family="Nohemi ExtBd"
    font-weight="800"
    font-stretch="normal"
    units-per-em="4000"
    panose-1="0 0 0 0 0 0 0 0 0 0"
    ascent="3200"
    descent="-800"
    x-height="2205"
    cap-height="2860"
    bbox="-193 -971 5026 3880"
    underline-thickness="100"
    underline-position="-250"
    unicode-range="U+000D-FB02"
  />
<missing-glyph horiz-adv-x="3059" 
d="M106 2860h2847v-2860h-2847v2860zM1529 1710l661 725h-1320zM585 675l689 755l-689 756v-1511zM2474 673v1512l-689 -755zM868 425h1320l-659 724z" />
    <glyph glyph-name="fi" unicode="fi" horiz-adv-x="2670" 
d="M275 1593h-259v612h259v74q0 197 60 348.5t176.5 254t287.5 155.5t394 53q100 0 210 -10t221 -29v-574q-72 11 -141 16.5t-129 5.5q-169 0 -245.5 -56t-76.5 -178v-60h592v-612h-556v-1593h-793v1593zM2576 2412h-797v548h797v-548zM2574 0h-793v2205h793v-2205z" />
    <glyph glyph-name="fl" unicode="fl" horiz-adv-x="2670" 
d="M275 1593h-259v612h259v74q0 197 60 348.5t176.5 254t287.5 155.5t394 53q100 0 210 -10t221 -29v-574q-72 11 -141 16.5t-129 5.5q-169 0 -245.5 -56t-76.5 -178v-60h592v-612h-556v-1593h-793v1593zM2574 0h-793v2960h793v-2960z" />
    <glyph glyph-name=".notdef" horiz-adv-x="3059" 
d="M106 2860h2847v-2860h-2847v2860zM1529 1710l661 725h-1320zM585 675l689 755l-689 756v-1511zM2474 673v1512l-689 -755zM868 425h1320l-659 724z" />
    <glyph glyph-name=".null" horiz-adv-x="0" 
 />
    <glyph glyph-name="uni000D" unicode="&#xd;" horiz-adv-x="500" 
 />
    <glyph glyph-name="space" unicode=" " horiz-adv-x="964" 
 />
    <glyph glyph-name="exclam" unicode="!" horiz-adv-x="955" 
d="M839 2860v-495l-62 -1445h-600l-62 1445v495h724zM841 0h-726v748h726v-748z" />
    <glyph glyph-name="quotedbl" unicode="&#x22;" horiz-adv-x="1753" 
d="M736 1523h-540l-90 1337h724zM1553 1523h-540l-90 1337h724z" />
    <glyph glyph-name="numbersign" unicode="#" horiz-adv-x="3028" 
d="M1636 588h-454l-73 -588h-594l73 588h-518v559h588l70 567h-529v561h599l73 585h593l-73 -585h455l73 585h594l-73 -585h518v-561h-588l-70 -567h529v-559h-599l-73 -588h-594zM1706 1147l70 567h-454l-71 -567h455z" />
    <glyph glyph-name="dollar" unicode="$" horiz-adv-x="2749" 
d="M1085 -44q-258 30 -453 112t-326 211.5t-197.5 303t-66.5 385.5h802q0 -90 36.5 -160t105.5 -119t168 -74.5t224 -25.5q106 0 195.5 18.5t154.5 53t101.5 84.5t36.5 113q0 68 -32.5 109.5t-99.5 67.5t-170.5 42.5t-244.5 34.5l-117 16q-85 11 -178 24.5t-187.5 34
t-187 49.5t-176 72.5t-155 102.5t-123.5 138.5t-81.5 182t-29.5 232.5q0 201 72.5 362.5t204 280t316 193.5t408.5 103l-36 457h652l-37 -460q227 -32 404.5 -113.5t299.5 -206.5t186.5 -292t64.5 -370h-802q0 82 -32.5 147.5t-93.5 111t-147 70t-194 24.5
q-88 0 -165.5 -16.5t-134.5 -48t-90 -76.5t-33 -102q0 -64 31.5 -103t98 -64.5t170 -43.5t247.5 -39l85 -12q89 -13 185 -28t193.5 -37.5t192.5 -54t180.5 -77.5t158 -107.5t125.5 -144t83 -187.5t30 -238q0 -201 -70.5 -362t-204 -280t-327 -193.5t-440.5 -101.5l36 -456
h-652z" />
    <glyph glyph-name="percent" unicode="%" horiz-adv-x="3573" 
d="M107 2154q0 173 52.5 314t148 241.5t230 155.5t299.5 55q164 0 298 -54.5t229 -155t147 -242t52 -314.5q0 -172 -51.5 -311t-146.5 -237.5t-229 -151.5t-300 -53t-300.5 53.5t-230 151.5t-147 237t-51.5 311zM2964 2860l-1771 -2860h-569l1766 2860h574zM602 2151
q0 -143 60 -218t172 -75t171.5 75t59.5 217q0 73 -16 131t-45.5 98.5t-72.5 62t-97 21.5t-97 -21.5t-73 -62t-46 -98t-16 -130.5zM2011 693q0 173 52.5 314t148 241.5t230 155.5t299.5 55q164 0 298 -54.5t229 -155t147 -242t52 -314.5q0 -172 -51.5 -311t-146 -237.5
t-229 -151.5t-300.5 -53t-300.5 53.5t-230 151.5t-147 237t-51.5 311zM2506 690q0 -143 60 -218t172 -75t171.5 75t59.5 217q0 73 -16 131t-45.5 98.5t-72.5 62t-97 21.5t-97 -21.5t-73 -62t-46 -98t-16 -130.5z" />
    <glyph glyph-name="ampersand" unicode="&#x26;" horiz-adv-x="2919" 
d="M2544 898q0 -139 -41.5 -264.5t-118 -232t-186.5 -192t-246.5 -145.5t-297.5 -92t-340 -32q-177 0 -337.5 31t-298 89t-249 139.5t-190 182t-121 218.5t-42.5 247q0 122 37.5 223.5t107 177.5t167.5 123t218 59q-122 12 -220 57.5t-167 120t-106 175.5t-37 223
q0 131 42 249t119.5 220t187.5 184t245.5 140t293 89.5t331.5 31.5q172 0 327 -31t289 -88.5t243.5 -140.5t190.5 -186.5t130.5 -226t63.5 -259.5h-814q-17 64 -54.5 116t-92.5 89t-125 57t-151 20q-87 0 -160.5 -23t-126.5 -64t-83 -97.5t-30 -122.5q0 -121 100 -187
t288 -66h1553v-554h-299v-258zM1324 1156q-98 0 -175.5 -18.5t-131.5 -54t-82.5 -86t-28.5 -113.5q0 -65 29 -119t81 -92.5t125.5 -60t161.5 -21.5q98 0 178.5 27.5t138 77.5t89 120t31.5 155v185h-416z" />
    <glyph glyph-name="quotesingle" unicode="'" horiz-adv-x="937" 
d="M736 1523h-540l-90 1337h724z" />
    <glyph glyph-name="parenleft" unicode="(" horiz-adv-x="1430" 
d="M1404 2893q-252 -405 -380 -815t-128 -807q0 -398 128 -806t380 -807l-345 -269q-243 203 -427 425.5t-307.5 460t-186 488.5t-62.5 512q0 262 63 515t186.5 491.5t307.5 460t426 421.5z" />
    <glyph glyph-name="parenright" unicode=")" horiz-adv-x="1430" 
d="M26.0859 -340.823q251.984 404.976 379.977 814.95t127.992 806.95q0 397.977 -127.992 805.951q-127.992 407.976 -379.977 806.951l344.979 268.983q242.985 -202.988 426.975 -425.475q183.988 -222.486 307.48 -459.972q123.493 -237.485 185.989 -488.47
q62.4961 -250.985 62.4961 -511.969q0 -261.984 -62.9961 -514.969t-186.489 -491.47q-123.492 -238.485 -307.48 -459.973q-183.989 -221.486 -425.975 -421.474z" />
    <glyph glyph-name="asterisk" unicode="*" horiz-adv-x="1848" 
d="M575 2065l-492 74l183 563l449 -234l-82 492h592l-84 -499l442 230l183 -563l-501 -75l356 -349l-479 -348l-226 453l-223 -447l-479 348z" />
    <glyph glyph-name="plus" unicode="+" horiz-adv-x="2088" 
d="M746 508v655h-640v566h640v655h596v-655h640v-566h-640v-655h-596z" />
    <glyph glyph-name="comma" unicode="," horiz-adv-x="939" 
d="M475 -758h-498l144 1506h750z" />
    <glyph glyph-name="hyphen" unicode="-" horiz-adv-x="2013" 
d="M1906 831h-1800v654h1800v-654z" />
    <glyph glyph-name="period" unicode="." horiz-adv-x="939" 
d="M832 0h-726v748h726v-748z" />
    <glyph glyph-name="slash" unicode="/" horiz-adv-x="1927" 
d="M108 -758l952 3718h767l-952 -3718h-767z" />
    <glyph glyph-name="zero" unicode="0" horiz-adv-x="2872" 
d="M76 1430q0 227 46 426t131.5 364.5t207 295.5t272.5 220t328.5 137t374.5 47t374.5 -47t328.5 -137t272.5 -220t207 -295.5t131.5 -364.5t46 -426t-46 -426t-131.5 -364.5t-207 -295.5t-272.5 -220t-328.5 -137t-374.5 -47t-374.5 47t-328.5 137t-272.5 220t-207 295.5
t-131.5 364.5t-46 426zM928 1430q0 -400 129 -598t379 -198q249 0 378.5 198t129.5 598q0 401 -129.5 598.5t-378.5 197.5q-250 0 -379 -197.5t-129 -598.5z" />
    <glyph glyph-name="one" unicode="1" horiz-adv-x="1862" 
d="M1383 678h373v-678h-1590v678h373v1232h-493v640h157q131 0 216 15.5t135.5 57t70.5 113.5t20 185h738v-2243z" />
    <glyph glyph-name="two" unicode="2" horiz-adv-x="2622" 
d="M106 0v474q0 180 43.5 317t118 240t172 177t206 128t220.5 92.5t214 70.5l81 25q111 35 211 70t175.5 81t120 108t44.5 150q0 66 -26.5 120t-77 92.5t-122.5 59.5t-162 21q-203 0 -302 -108.5t-99 -331.5v-59h-804v66q0 260 86 469t246.5 355t390 224.5t515.5 78.5
q270 0 485 -70t365 -201t229.5 -317t79.5 -419q0 -179 -45 -313t-120.5 -232t-174 -166t-206 -114.5t-217 -77.5t-205.5 -55l-136 -34q-75 -19 -149 -40t-138 -48.5t-113 -65t-74 -89.5h1569v-678h-2401z" />
    <glyph glyph-name="three" unicode="3" horiz-adv-x="2724" 
d="M76 1894q0 248 80.5 439t236.5 321.5t384 198t523 67.5q274 0 497 -56.5t381.5 -161t245 -251.5t86.5 -327q0 -131 -45.5 -243t-127 -196.5t-195 -138t-250.5 -67.5q177 -10 317.5 -61t238 -137t149 -206t51.5 -268q0 -197 -91.5 -357t-259.5 -273.5t-405.5 -175
t-530.5 -61.5q-310 0 -549.5 70.5t-403 207t-248 338t-84.5 462.5v5h804v-30q0 -82 34 -148t96.5 -113t151 -72.5t197.5 -25.5q105 0 193.5 23.5t152.5 65.5t100 99.5t36 126.5q0 100 -84.5 145t-270.5 45h-516v626h472q276 0 276 181q0 62 -31.5 113.5t-88 88.5t-135 57.5
t-173.5 20.5q-96 0 -172 -21.5t-129 -61.5t-81 -98t-28 -131v-25h-804v5z" />
    <glyph glyph-name="four" unicode="4" horiz-adv-x="2933" 
d="M1667 0v541h-1561v720l1361 1599h1020v-1657h340v-662h-340v-541h-820zM1667 1203v902l-760 -902h760z" />
    <glyph glyph-name="five" unicode="5" horiz-adv-x="2708" 
d="M2632 1012q0 -247 -89 -445.5t-254.5 -337.5t-401.5 -213.5t-531 -74.5q-188 0 -354 30.5t-305 88t-248.5 140.5t-185.5 188.5t-116.5 231t-40.5 268.5v23h835v-18q0 -54 31.5 -100.5t86 -81t128.5 -54.5t159 -20q96 0 176 26t137.5 73t89 112.5t31.5 144.5q0 76 -29 138
t-83 106.5t-130.5 69t-171.5 24.5q-71 0 -136.5 -14.5t-120 -40t-96 -61.5t-64.5 -79h-820v1724h2314v-686h-1494v-835q32 122 100.5 222t171 171t238.5 109.5t301 38.5q210 0 372.5 -62t273.5 -175.5t168.5 -273.5t57.5 -357z" />
    <glyph glyph-name="six" unicode="6" horiz-adv-x="2775" 
d="M1426 2920q180 0 339.5 -31t293 -89.5t239.5 -142.5t180 -190t113 -232t39 -269v-63h-804v40q0 60 -31 111.5t-84.5 89.5t-126 59.5t-156.5 21.5q-123 0 -221.5 -48.5t-167.5 -139.5t-106 -221t-37 -293v-312q54 261 270 393.5t589 132.5q466 0 705 -204.5t239 -601.5
q0 -237 -84.5 -421.5t-246.5 -311t-398.5 -192.5t-539.5 -66q-687 0 -1020.5 346t-333.5 1040v29q0 378 88.5 670t260.5 491t423.5 301.5t577.5 102.5zM1412 635q213 0 323 89t110 263q0 173 -109 262t-320 89q-109 0 -195 -24t-146 -69.5t-91.5 -111t-31.5 -149.5
q0 -83 31 -148t90 -109.5t144.5 -68t194.5 -23.5z" />
    <glyph glyph-name="seven" unicode="7" horiz-adv-x="2478" 
d="M577 0q15 238 50.5 447t95.5 397t147.5 359t205 333.5t267.5 319.5t337 318h-1634v686h2326v-714q-158 -166 -282 -320t-219.5 -308.5t-165 -316.5t-119 -345t-81.5 -394t-52 -462h-876z" />
    <glyph glyph-name="eight" unicode="8" horiz-adv-x="2802" 
d="M1395 -60q-308 0 -552.5 60t-415 172.5t-261 273.5t-90.5 364q0 278 171 449t506 228q-288 50 -435 200t-147 394q0 191 88 346t249.5 264.5t390 169t509.5 59.5q187 0 351 -26.5t301 -77.5t244.5 -124t182 -166.5t114 -205t39.5 -238.5q0 -245 -149 -395.5t-441 -199.5
q676 -102 676 -656q0 -208 -91.5 -373.5t-263 -280.5t-418.5 -176t-558 -61zM1400 1679q231 0 343.5 69.5t112.5 212.5q0 137 -110 201t-343 64q-235 0 -345.5 -64.5t-110.5 -202.5q0 -142 112 -211t341 -69zM1401 634q266 0 395.5 79t129.5 240q0 78 -30.5 135t-95 94
t-163.5 54.5t-236 17.5t-236 -17.5t-163.5 -54.5t-95 -94t-30.5 -135q0 -161 130 -240t395 -79z" />
    <glyph glyph-name="nine" unicode="9" horiz-adv-x="2775" 
d="M1350 -60q-180 0 -339.5 31t-293.5 89.5t-240 142.5t-180 190t-113 232t-39 269v63h804v-40q0 -60 31 -111.5t84.5 -89.5t126 -59.5t156.5 -21.5q123 0 221.5 48.5t167.5 139.5t106 221.5t37 293.5v311q-54 -261 -270 -393.5t-589 -132.5q-466 0 -705 204.5t-239 601.5
q0 237 84.5 421.5t246.5 311t398.5 192.5t539.5 66q687 0 1020.5 -345.5t333.5 -1040.5v-29q0 -378 -88.5 -670t-260.5 -491t-423 -301.5t-577 -102.5zM1363 2225q-213 0 -323 -89t-110 -263q0 -173 109 -262t320 -89q109 0 195 24t146 69.5t91.5 111t31.5 149.5
q0 83 -31 148t-90 109.5t-144.5 68t-194.5 23.5z" />
    <glyph glyph-name="colon" unicode=":" horiz-adv-x="939" 
d="M832 0h-726v748h726v-748zM832 1463h-726v748h726v-748z" />
    <glyph glyph-name="semicolon" unicode=";" horiz-adv-x="940" 
d="M832 1463h-726v748h726v-748zM475 -758h-498l144 1506h750z" />
    <glyph glyph-name="less" unicode="&#x3c;" horiz-adv-x="2193" 
d="M2087 1614l-1527 -351l1527 -350v-724l-1981 766v618l1981 765v-724z" />
    <glyph glyph-name="equal" unicode="=" horiz-adv-x="2088" 
d="M106 1569v566h1876v-566h-1876zM106 757v567h1876v-567h-1876z" />
    <glyph glyph-name="greater" unicode="&#x3e;" horiz-adv-x="2193" 
d="M106.127 913.099l1526.91 350.979l-1526.91 349.979v723.956l1980.88 -765.953v-617.963l-1980.88 -764.953v723.956z" />
    <glyph glyph-name="question" unicode="?" horiz-adv-x="2530" 
d="M1507 900h-677v187q0 102 21 182.5t56.5 144t81.5 111.5t96.5 85t102 65.5t96.5 51.5l86 45q55 28 100 53t76.5 54t48.5 66.5t17 89.5q0 54 -24.5 97t-70.5 73t-111 46t-145 16q-205 0 -308.5 -110.5t-103.5 -340.5v-49h-796v62q0 548 302 819.5t900 271.5
q279 0 496.5 -57.5t367 -168.5t227.5 -272t78 -368q0 -120 -25 -214.5t-66 -168t-95 -128.5t-112.5 -96.5t-117 -71.5t-109.5 -55l-84 -42q-58 -28 -113.5 -57.5t-99 -65t-69.5 -80t-26 -103.5v-72zM1531 0h-726v748h726v-748z" />
    <glyph glyph-name="at" unicode="@" horiz-adv-x="3847" 
d="M1974 -577q-284 0 -535 58t-461.5 166.5t-378 264t-283.5 350.5t-178 426t-62 491q0 261 62.5 494.5t178.5 431.5t281.5 356.5t372.5 269.5t451 170.5t516 59.5q265 0 504 -56.5t442.5 -160.5t367.5 -253t279.5 -333t177.5 -400.5t62 -456.5q0 -247 -65 -447.5
t-183 -342.5t-283.5 -219t-365.5 -77q-144 0 -264 40.5t-210 118.5t-147 191.5t-74 259.5q-45 -304 -178.5 -457.5t-353.5 -153.5q-149 0 -272 68.5t-211.5 193t-137 298.5t-48.5 385q0 210 48.5 383.5t136.5 298t211 193t272 68.5q212 0 344.5 -144.5t181.5 -430.5v515h629
v-1045q0 -130 40 -198.5t125 -68.5q62 0 107 37t74.5 102.5t44 155t14.5 195.5q0 186 -41 349.5t-118.5 300t-188.5 244.5t-250.5 182.5t-305 114t-351.5 39.5q-192 0 -362.5 -41.5t-315 -119.5t-259.5 -189.5t-195 -251t-123 -304.5t-43 -350q0 -186 43 -352t123.5 -306
t195.5 -251.5t258.5 -189.5t313 -119.5t358.5 -41.5q90 0 179 9.5t182 30t191 51.5t205 74l169 -494q-77 -43 -178 -76.5t-217 -57t-243.5 -36t-258.5 -12.5zM2171 1158q0 382 -266 382q-261 0 -261 -382t261 -382q266 0 266 382z" />
    <glyph glyph-name="A" unicode="A" horiz-adv-x="2882" 
d="M-29 0l906 2860h1142l892 -2860h-901l-130 541h-893l-133 -541h-883zM1723 1193l-285 1183l-291 -1183h576z" />
    <glyph glyph-name="B" unicode="B" horiz-adv-x="2781" 
d="M1577 2860q244 0 435.5 -45t323.5 -134t201.5 -221.5t69.5 -306.5q0 -142 -45 -259t-124.5 -203t-189.5 -139t-240 -68q155 -14 287 -71.5t228 -150t150.5 -217.5t54.5 -274q0 -184 -83.5 -327.5t-235 -242t-364 -150t-469.5 -51.5h-1470v2860h1471zM1468 1717
q70 0 126 16.5t95.5 50t61 83.5t21.5 117q0 131 -80.5 192.5t-223.5 61.5h-518v-521h518zM1546 622q164 0 249.5 64t85.5 206t-85.5 206.5t-248.5 64.5h-597v-541h596z" />
    <glyph glyph-name="C" unicode="C" horiz-adv-x="2945" 
d="M928 1430q0 -400 147 -598t431 -198q224 0 353 137t170 419h836q-24 -194 -82 -362t-147 -306.5t-206 -247t-260 -182.5t-310 -113t-354 -39q-207 0 -393.5 47t-345.5 137t-287 220t-217.5 295.5t-138 364.5t-48.5 426t48.5 426t138 364.5t217.5 295.5t287 220t345.5 137
t393.5 47q187 0 354 -39t310 -113t260 -182.5t206 -247t147 -306.5t82 -362h-836q-41 282 -170 419t-353 137q-284 0 -431 -197.5t-147 -598.5z" />
    <glyph glyph-name="D" unicode="D" horiz-adv-x="2752" 
d="M106 2860h1145q211 0 398 -45t345.5 -131.5t285 -211t214.5 -283.5t135 -349.5t47 -409.5q0 -218 -47 -409t-135 -350t-214.5 -283.5t-285 -211t-346 -131.5t-397.5 -45h-1145v2860zM1222 694q296 0 449 183t153 553q0 371 -153 553.5t-449 182.5h-274v-1472h274z" />
    <glyph glyph-name="E" unicode="E" horiz-adv-x="2211" 
d="M2126 2860v-686h-1176v-430h1064v-630h-1064v-428h1208v-686h-2052v2860h2020z" />
    <glyph glyph-name="F" unicode="F" horiz-adv-x="2179" 
d="M2126 2174h-1176v-470h1064v-654h-1064v-1050h-844v2860h2020v-686z" />
    <glyph glyph-name="G" unicode="G" horiz-adv-x="3003" 
d="M928 1430q0 -408 148.5 -610.5t438.5 -202.5q119 0 221 28.5t178 84t123 137t57 187.5h-603v476h1406v-1530h-784v620q-61 -160 -152.5 -286t-208.5 -213.5t-257 -134t-299 -46.5q-160 0 -305 47.5t-269.5 137.5t-225.5 220.5t-172 296t-109.5 364t-38.5 424.5
q0 227 48.5 426t138 364.5t217.5 295.5t287 220t345.5 137t393.5 47q173 0 334 -35t303.5 -102t264 -165t216.5 -223.5t159.5 -277.5t93.5 -327h-836q-26 112 -75.5 194t-118.5 136t-155 80t-186 26q-284 0 -431 -197.5t-147 -598.5z" />
    <glyph glyph-name="H" unicode="H" horiz-adv-x="2752" 
d="M2646 0h-844v1080h-852v-1080h-844v2860h844v-1086h852v1086h844v-2860z" />
    <glyph glyph-name="I" unicode="I" horiz-adv-x="1056" 
d="M950 0h-844v2860h844v-2860z" />
    <glyph glyph-name="J" unicode="J" horiz-adv-x="2539" 
d="M53 1322h844v-298q0 -84 22 -155t66 -123.5t110 -82t154 -29.5t152 30t106 82.5t62 124t20 155.5v1834h844v-1850q0 -169 -40.5 -314.5t-115.5 -264.5t-182 -210.5t-239 -154t-287 -94.5t-326 -32t-326 32t-287 94.5t-239 154t-182 210.5t-115.5 264.5t-40.5 314.5v312z
" />
    <glyph glyph-name="K" unicode="K" horiz-adv-x="2725" 
d="M1611 1438l1143 -1438h-1032l-772 1022v-1022h-844v2860h844v-1144l760 1144h966z" />
    <glyph glyph-name="L" unicode="L" horiz-adv-x="2119" 
d="M950 2860v-2174h1128v-686h-1972v2860h844z" />
    <glyph glyph-name="M" unicode="M" horiz-adv-x="3694" 
d="M3588 2860v-2860h-844v2153l-524 -2153h-790l-522 2154v-2154h-802v2860h1315l454 -1903l455 1903h1258z" />
    <glyph glyph-name="N" unicode="N" horiz-adv-x="2911" 
d="M2805 0h-1111l-786 1997v-1997h-802v2860h1171l726 -1833v1833h802v-2860z" />
    <glyph glyph-name="O" unicode="O" horiz-adv-x="3012" 
d="M76 1430q0 227 48.5 426t138.5 364.5t217.5 295.5t286.5 220t345.5 137t393.5 47t393.5 -47t345.5 -137t287 -220t218 -295.5t138.5 -364.5t48.5 -426t-48.5 -426t-138.5 -364.5t-218 -295.5t-287 -220t-345.5 -137t-393.5 -47t-393.5 47t-345.5 137t-286.5 220
t-217.5 295.5t-138.5 364.5t-48.5 426zM928 1430q0 -400 147 -598t431 -198t431.5 198t147.5 598q0 401 -147.5 598.5t-431.5 197.5t-431 -197.5t-147 -598.5z" />
    <glyph glyph-name="P" unicode="P" horiz-adv-x="2724" 
d="M106 2860h1381q174 0 327 -32.5t282 -93t231.5 -147.5t173.5 -197t109 -240.5t38 -277.5q0 -221 -84 -403.5t-237 -312.5t-366.5 -201.5t-473.5 -71.5h-537v-883h-844v2860zM1453 1537q169 0 260 86.5t91 247.5t-91 248t-259 87h-504v-669h503z" />
    <glyph glyph-name="Q" unicode="Q" horiz-adv-x="3012" 
d="M76 1430q0 227 48.5 426t138 364.5t217.5 295.5t287 220t345.5 137t393.5 47t393.5 -47t345.5 -137t287 -220t217.5 -295.5t138 -364.5t48.5 -426q0 -212 -42 -399t-121 -345.5t-191 -287t-253 -222.5l542 -600h-830l-304 380q-57 -8 -114 -12t-117 -4q-207 0 -393.5 47
t-345.5 137t-287 220t-217.5 295.5t-138 364.5t-48.5 426zM904 1430q0 -200 41 -349.5t118 -248.5t189 -148.5t254 -49.5t254 49.5t189 148.5t118 248.5t41 349.5t-41 349.5t-118 248.5t-189 148.5t-254 49.5t-254 -49.5t-189 -148.5t-118 -248.5t-41 -349.5z" />
    <glyph glyph-name="R" unicode="R" horiz-adv-x="2773" 
d="M106 0v2862h1445q268 0 473.5 -60t344.5 -174t210 -279t71 -375q0 -181 -55.5 -328.5t-159 -253.5t-250 -166t-328.5 -66q360 -24 552 -451l318 -709h-941l-325 707q-41 89 -72.5 144.5t-63.5 86.5t-69.5 42.5t-90.5 11.5h-215v-992h-844zM1460 1622q168 0 256.5 76
t88.5 219q0 142 -88.5 216.5t-256.5 74.5h-510v-586h510z" />
    <glyph glyph-name="S" unicode="S" horiz-adv-x="2749" 
d="M1363 2920q295 0 528 -68.5t395 -197.5t247.5 -315t85.5 -421h-802q0 82 -32.5 147.5t-93.5 111t-147 70t-194 24.5q-88 0 -165.5 -16.5t-134.5 -48t-90 -76.5t-33 -102q0 -64 31.5 -103t98 -64.5t170 -43.5t247.5 -39l85 -12q89 -13 185 -28t193.5 -37.5t192.5 -54
t180.5 -77.5t158 -107.5t125.5 -144t83 -187.5t30 -238q0 -228 -90.5 -405t-261.5 -298.5t-417.5 -185t-557.5 -63.5q-330 0 -580 70.5t-418.5 203t-254 323.5t-85.5 431h802q0 -90 36.5 -160t105.5 -119t168 -74.5t224 -25.5q106 0 195.5 18.5t154.5 53t101.5 84.5
t36.5 113q0 68 -32.5 109.5t-99.5 67.5t-170.5 42.5t-244.5 34.5l-117 16q-85 11 -178 24.5t-187.5 34t-187 49.5t-176 72.5t-155 102.5t-123.5 138.5t-81.5 182t-29.5 232.5q0 154 43 285t122.5 237t193.5 187t256 136t309.5 83t354.5 28z" />
    <glyph glyph-name="T" unicode="T" horiz-adv-x="2514" 
d="M2483 2174h-804v-2174h-844v2174h-804v686h2452v-686z" />
    <glyph glyph-name="U" unicode="U" horiz-adv-x="2764" 
d="M106 2860h844v-1652q0 -158 27.5 -267.5t82 -177.5t135.5 -98.5t187 -30.5q107 0 187.5 30.5t135 98.5t82 177.5t27.5 267.5v1652h844v-1740q0 -193 -43.5 -355.5t-123.5 -293.5t-194 -230.5t-256 -166t-308.5 -100.5t-350.5 -34t-350.5 34t-308.5 100.5t-256 166
t-194 230.5t-123.5 293.5t-43.5 355.5v1740z" />
    <glyph glyph-name="V" unicode="V" horiz-adv-x="2770" 
d="M2799 2860l-850 -2860h-1142l-836 2860h901l516 -2231l528 2231h883z" />
    <glyph glyph-name="W" unicode="W" horiz-adv-x="4379" 
d="M2762 2860l320 -2319l390 2319h861l-646 -2860h-1158l-340 2259l-342 -2259h-1158l-643 2860h903l388 -2319l322 2319h1103z" />
    <glyph glyph-name="X" unicode="X" horiz-adv-x="2803" 
d="M1960 1455l851 -1455h-981l-467 940l-454 -940h-918l792 1457l-752 1403h979l387 -902l450 902h918z" />
    <glyph glyph-name="Y" unicode="Y" horiz-adv-x="2750" 
d="M2789 2860l-993 -1860v-1000h-844v1000l-991 1860h909l509 -1093l519 1093h891z" />
    <glyph glyph-name="Z" unicode="Z" horiz-adv-x="2557" 
d="M1090 686h1361v-686h-2345v716l1264 1458h-1214v686h2195v-716z" />
    <glyph glyph-name="bracketleft" unicode="[" horiz-adv-x="1264" 
d="M1228 3012v-564h-342v-2322h341v-564h-1151v3450h1152z" />
    <glyph glyph-name="backslash" unicode="\" horiz-adv-x="1927" 
d="M1819.01 -758l-951.942 3718h-766.953l951.942 -3718h766.953z" />
    <glyph glyph-name="bracketright" unicode="]" horiz-adv-x="1264" 
d="M36.0752 -437.816v563.966h341.979v2321.86h-340.979v563.966h1150.93v-3449.79h-1151.93z" />
    <glyph glyph-name="asciicircum" unicode="^" horiz-adv-x="1739" 
d="M869 2425l-284 -895h-479l452 1330h622l452 -1330h-479z" />
    <glyph glyph-name="underscore" unicode="_" horiz-adv-x="2215" 
d="M2109 -540h-2003v540h2003v-540z" />
    <glyph glyph-name="grave" unicode="`" horiz-adv-x="1158" 
d="M106 2934h656l290 -639h-488z" />
    <glyph glyph-name="a" unicode="a" horiz-adv-x="2398" 
d="M101 1357q0 211 77 379t221.5 285.5t351 180.5t465.5 63q261 0 464.5 -64t344 -186.5t214 -300.5t73.5 -406v-1308h-793v536q-34 -138 -105 -248t-172 -187.5t-229.5 -119t-277.5 -41.5q-157 0 -286 46t-221 129.5t-142 201t-50 261.5q0 162 65 288t189.5 213
t305.5 132.5t412 45.5h511v51q0 184 -81 282t-242 98q-158 0 -232 -86.5t-74 -244.5h-789zM1135 869q-149 0 -225 -49t-76 -145q0 -93 69.5 -144.5t194.5 -51.5q88 0 164.5 25t133.5 68.5t90 102t33 124.5v70h-384z" />
    <glyph glyph-name="b" unicode="b" horiz-adv-x="2458" 
d="M889 1548q61 355 229 536t438 181q189 0 345 -84.5t268 -237.5t173.5 -367t61.5 -473t-61.5 -473t-173.5 -367.5t-268 -238t-345 -84.5q-270 0 -438 181.5t-229 536.5v-658h-793v2960h793v-1412zM889 1103q0 -244 90.5 -366t268.5 -122q355 0 355 488q0 245 -88 366
t-267 121t-269 -122t-90 -365z" />
    <glyph glyph-name="c" unicode="c" horiz-adv-x="2364" 
d="M855 1103q0 -242 91.5 -364t265.5 -122q68 0 119.5 19.5t89 57t62 92.5t38.5 125h789q-27 -221 -119 -400.5t-236 -306t-333 -195.5t-410 -69q-168 0 -319 37t-280 106.5t-232 171t-176 231t-112 284.5t-39 333q0 267 86.5 481.5t240.5 366t366.5 233t464.5 81.5
q221 0 410 -68.5t333 -195.5t236 -306t119 -401h-789q-14 71 -38.5 125.5t-62 92t-89 57t-119.5 19.5q-174 0 -265.5 -121.5t-91.5 -363.5z" />
    <glyph glyph-name="d" unicode="d" horiz-adv-x="2458" 
d="M2362 2960v-2960h-793v658q-61 -355 -229 -536.5t-438 -181.5q-189 0 -345 84.5t-268 238t-173.5 367.5t-61.5 473t61.5 473t173.5 367t268 237.5t345 84.5q270 0 438 -181t229 -536v1412h793zM1569 1103q0 243 -90 365t-269 122q-178 0 -266.5 -121t-88.5 -366
q0 -488 355 -488q179 0 269 122t90 366z" />
    <glyph glyph-name="e" unicode="e" horiz-adv-x="2366" 
d="M2303 763q-48 -191 -148.5 -343.5t-243.5 -259t-324 -163.5t-389 -57q-170 0 -321 38t-278 109.5t-228 174.5t-171.5 232t-108 282.5t-37.5 326.5t37 326.5t106.5 282.5t169.5 231.5t226 174t275.5 109.5t318.5 38q252 0 459.5 -83.5t355 -236.5t229 -367t81.5 -475
q0 -42 -2 -85t-7 -83h-1505q23 -194 131.5 -298.5t291.5 -104.5q132 0 221 57.5t140 173.5h721zM1580 1325q-33 185 -129 274.5t-259 89.5q-167 0 -264.5 -92t-124.5 -272h777z" />
    <glyph glyph-name="f" unicode="f" horiz-adv-x="1685" 
d="M275 1593h-259v612h259v74q0 197 60 348.5t176.5 254t287.5 155.5t394 53q100 0 210 -10t221 -29v-574q-72 11 -141 16.5t-129 5.5q-169 0 -245.5 -56t-76.5 -178v-60h592v-612h-556v-1593h-793v1593z" />
    <glyph glyph-name="g" unicode="g" horiz-adv-x="2458" 
d="M2362 2205v-2014q0 -237 -74.5 -424.5t-215.5 -317.5t-345 -198.5t-463 -68.5q-253 0 -457.5 63.5t-348.5 180.5t-222 283.5t-78 372.5h789q0 -157 78 -238t222 -81q160 0 241 106t81 316v636q-61 -329 -229 -495t-440 -166q-188 0 -344 77.5t-267.5 218.5t-173 338
t-61.5 435t61.5 429.5t173 326.5t267.5 207.5t344 72.5q271 0 439.5 -155.5t229.5 -475.5v571h793zM1569 1229q0 97 -23 165.5t-68 112t-112.5 63.5t-157.5 20q-88 0 -154.5 -19.5t-110.5 -62.5t-66 -111.5t-22 -167.5q0 -394 353 -394q180 0 270.5 99.5t90.5 294.5z" />
    <glyph glyph-name="h" unicode="h" 
d="M889 0h-793v2960h793v-1443q118 748 732 748q168 0 292.5 -57t206 -173t122 -292t40.5 -414v-1329h-793v1129q0 233 -71.5 346t-219.5 113q-153 0 -231 -116t-78 -351v-1121z" />
    <glyph glyph-name="i" unicode="i" horiz-adv-x="985" 
d="M891 2412h-797v548h797v-548zM889 0h-793v2205h793v-2205z" />
    <glyph glyph-name="j" unicode="j" horiz-adv-x="985" 
d="M891 2412h-797v548h797v-548zM889 222q0 -192 -22.5 -343.5t-71 -267t-125.5 -197t-186 -133t-252.5 -75.5t-324.5 -24h-94v625h64q71 0 114.5 19.5t66.5 56.5t30.5 89.5t7.5 117.5v2115h793v-1983z" />
    <glyph glyph-name="k" unicode="k" horiz-adv-x="2433" 
d="M1544 1108l888 -1108h-948l-595 784v-784h-793v2960h793v-1633l585 878h894z" />
    <glyph glyph-name="l" unicode="l" horiz-adv-x="985" 
d="M889 0h-793v2960h793v-2960z" />
    <glyph glyph-name="m" unicode="m" horiz-adv-x="3709" 
d="M889 0h-793v2205h793v-684q118 744 718 744q151 0 265.5 -47.5t194 -144t125 -243t58.5 -344.5q108 779 724 779q165 0 287 -57t202.5 -173t120 -292t39.5 -414v-1329h-793v1129q0 233 -68.5 346t-210.5 113q-295 0 -295 -467v-1121h-793v1129q0 233 -68.5 346
t-210.5 113q-295 0 -295 -467v-1121z" />
    <glyph glyph-name="n" unicode="n" 
d="M889 0h-793v2205h793v-688q118 748 732 748q168 0 292.5 -57t206 -173t122 -292t40.5 -414v-1329h-793v1129q0 233 -71.5 346t-219.5 113q-153 0 -231 -116t-78 -351v-1121z" />
    <glyph glyph-name="o" unicode="o" horiz-adv-x="2424" 
d="M54 1103q0 267 86.5 481.5t241 366t366.5 233t464 81.5t464.5 -81.5t366.5 -233t240.5 -366t86.5 -481.5q0 -178 -39 -333t-112 -284.5t-176 -231t-232 -171t-280 -106.5t-319 -37t-319 37t-279.5 106.5t-232 171t-176.5 231t-112 284.5t-39 333zM855 1103
q0 -244 91 -365t266 -121q177 0 267 121t90 365t-90 364.5t-267 120.5q-175 0 -266 -120.5t-91 -364.5z" />
    <glyph glyph-name="p" unicode="p" horiz-adv-x="2458" 
d="M889 1548q61 355 229 536t438 181q189 0 345 -84.5t268 -237.5t173.5 -367t61.5 -473t-61.5 -473t-173.5 -367.5t-268 -238t-345 -84.5q-270 0 -438 181.5t-229 536.5v-1415h-793v2962h793v-657zM889 1103q0 -244 90.5 -366t268.5 -122q355 0 355 488q0 245 -88 366
t-267 121t-269 -122t-90 -365z" />
    <glyph glyph-name="q" unicode="q" horiz-adv-x="2458" 
d="M2362 2205v-2962h-793v1415q-61 -355 -229 -536.5t-438 -181.5q-189 0 -345 84.5t-268 238t-173.5 367.5t-61.5 473t61.5 473t173.5 367t268 237.5t345 84.5q270 0 438 -181t229 -536v657h793zM1569 1103q0 243 -90 365t-269 122q-178 0 -266.5 -121t-88.5 -366
q0 -488 355 -488q179 0 269 122t90 366z" />
    <glyph glyph-name="r" unicode="r" horiz-adv-x="1713" 
d="M889 0h-793v2205h793v-828q21 189 64.5 342t117.5 261t181.5 166.5t256.5 58.5h163v-741h-363q-126 0 -207.5 -31.5t-129 -97.5t-65.5 -168.5t-18 -244.5v-922z" />
    <glyph glyph-name="s" unicode="s" horiz-adv-x="2314" 
d="M1114 2265q261 0 466.5 -55t347 -159.5t216.5 -254.5t75 -339h-787q0 138 -74 210t-220 72q-61 0 -111 -12t-86 -34t-55.5 -53t-19.5 -68q0 -52 28 -85t79.5 -55.5t124.5 -37.5t162 -32l147 -27q86 -15 183 -35.5t193 -52.5t184 -79.5t156 -117.5t108 -166.5t40 -226.5
q0 -170 -73 -303.5t-213 -225.5t-343.5 -140t-464.5 -48q-276 0 -488.5 54.5t-357.5 159.5t-219.5 258.5t-74.5 352.5h787q0 -143 85.5 -217t259.5 -74q72 0 130 12.5t99.5 35t64 54.5t22.5 72q0 51 -24.5 83t-75.5 53.5t-128.5 38t-182.5 35.5l-148 26q-78 14 -171.5 33.5
t-187.5 51t-182 78.5t-155.5 117.5t-108.5 167t-41 226.5q0 166 70 297.5t203 222.5t325 139t436 48z" />
    <glyph glyph-name="t" unicode="t" horiz-adv-x="1660" 
d="M1599 17q-153 -38 -285 -57.5t-247 -19.5q-799 0 -799 909v744h-252v612h252v508h793v-508h538v-612h-538v-746q0 -80 14 -137.5t43.5 -94t76 -54t111.5 -17.5q53 0 123.5 11.5t169.5 35.5v-574z" />
    <glyph glyph-name="u" unicode="u" 
d="M1479 2205h793v-2205h-793v688q-118 -748 -732 -748q-335 0 -498 230.5t-163 705.5v1329h793v-1129q0 -232 71.5 -345.5t219.5 -113.5q153 0 231 116t78 351v1121z" />
    <glyph glyph-name="v" unicode="v" horiz-adv-x="2391" 
d="M2400 2205l-694 -2205h-1030l-685 2205h840l370 -1657l377 1657h822z" />
    <glyph glyph-name="w" unicode="w" horiz-adv-x="3715" 
d="M2402 2205l242 -1660l295 1660h770l-496 -2205h-1098l-257 1703l-258 -1703h-1098l-495 2205h807l294 -1697l245 1697h1049z" />
    <glyph glyph-name="x" unicode="x" horiz-adv-x="2545" 
d="M1873 1117l670 -1117h-910l-373 745l-361 -745h-863l619 1107l-645 1098h910l350 -745l346 745h862z" />
    <glyph glyph-name="y" unicode="y" horiz-adv-x="2391" 
d="M2399 2205l-769 -2190q-76 -217 -179.5 -374t-240.5 -259t-310.5 -151t-388.5 -49q-200 0 -448 45v614q85 -13 155 -19t131 -6q138 0 239 33.5t178 107.5l-775 2248h840l370 -1622l376 1622h822z" />
    <glyph glyph-name="z" unicode="z" horiz-adv-x="2192" 
d="M930 612h1211v-612h-2090v649l1092 944h-1053v612h1974v-649z" />
    <glyph glyph-name="braceleft" unicode="{" horiz-adv-x="1592" 
d="M1556 2448h-70q-153 0 -220.5 -72t-67.5 -225v-186q0 -75 -4 -151.5t-17.5 -148.5t-40.5 -136.5t-72 -115t-111.5 -84t-160.5 -43.5q95 -10 161.5 -43t111.5 -83.5t71.5 -115.5t40 -138t17.5 -152t4 -157v-186q0 -73 16 -127t51 -89t89.5 -52t131.5 -17h70v-564h-256
q-451 0 -681.5 214.5t-230.5 634.5v244q0 168 -62 243.5t-200 75.5h-50v626h50q70 0 120 18t81.5 56t46 99t14.5 146v244q0 422 229 635.5t683 213.5h256v-564z" />
    <glyph glyph-name="bar" unicode="|" horiz-adv-x="931" 
d="M106 -370v3600h718v-3600h-718z" />
    <glyph glyph-name="braceright" unicode="}" horiz-adv-x="1592" 
d="M36.0947 126.149h69.9961q152.99 0 220.486 71.9951q67.4961 71.9961 67.4961 224.986v185.989q0 74.9951 4 151.49q3.99902 76.4961 17.499 148.491q13.499 71.9961 40.4971 136.492t71.9951 114.992q44.998 50.4971 111.494 83.9951q66.4951 33.498 160.49 43.4971
q-94.9951 10 -161.49 42.998q-66.4961 32.998 -111.493 83.4941q-44.998 50.4971 -71.4961 115.493t-39.9971 137.992q-13.5 72.9951 -17.499 151.99q-4 78.9951 -4 156.99v185.989q0 72.9951 -15.999 126.992q-15.999 53.9961 -50.9971 88.9941t-89.4941 51.9971
q-54.4971 16.999 -131.492 16.999h-69.9961v563.966h255.984q450.973 0 681.459 -214.487q230.485 -214.487 230.485 -634.461v-243.985q0 -167.99 61.9961 -243.485t199.988 -75.4951h49.9971v-625.962h-49.9971q-69.9961 0 -119.993 -17.999t-81.4951 -55.9961
q-31.498 -37.998 -45.9971 -98.9941t-14.499 -145.991v-243.985q0 -421.974 -228.985 -635.461q-228.986 -213.487 -682.959 -213.487h-255.984v563.966z" />
    <glyph glyph-name="asciitilde" unicode="~" horiz-adv-x="2390" 
d="M2284 2321q0 -283 -28 -477.5t-91 -314.5t-165.5 -173t-251.5 -53q-92 0 -179 17.5t-165.5 43t-146.5 55t-122 54.5l-93 42q-39 18 -82.5 37.5t-88.5 35.5t-90 26.5t-87 10.5q-45 0 -76 -15t-50 -48.5t-27.5 -89t-8.5 -136.5v-12h-426v19q0 269 31 461.5t97.5 316
t170 181.5t248.5 58q79 0 154.5 -15.5t144 -38.5t127.5 -50t106 -50l94 -44q44 -20 92.5 -42t99.5 -40t102.5 -29.5t102.5 -11.5t85.5 14t56 46.5t31 85t9.5 128.5v27h426v-19z" />
    <glyph glyph-name="exclamdown" unicode="&#xa1;" horiz-adv-x="955" 
d="M839 -654.825v494.97l-62 1444.91h-600l-62 -1444.91v-494.97h724zM841 2205h-726v-747.954h726v747.954z" />
    <glyph glyph-name="cent" unicode="&#xa2;" horiz-adv-x="2364" 
d="M855 1103q0 -242 91.5 -364t265.5 -122q68 0 119.5 19.5t89 57t62 92.5t38.5 125h789q-22 -183 -89.5 -338t-172.5 -275.5t-243.5 -203t-302.5 -121.5l36 -474h-652l37 471q-194 42 -354 139.5t-274.5 242.5t-177.5 335t-63 416q0 227 63 416.5t177.5 334.5t274.5 242
t354 139l-37 470h652l-37 -473q165 -39 303.5 -121.5t243.5 -202.5t172.5 -275t89.5 -339h-789q-14 71 -38.5 125.5t-62 92t-89 57t-119.5 19.5q-174 0 -265.5 -121.5t-91.5 -363.5z" />
    <glyph glyph-name="sterling" unicode="&#xa3;" horiz-adv-x="2757" 
d="M1863 1918v69q0 63 -27.5 115t-77 89.5t-118.5 58t-152 20.5q-89 0 -161 -24t-123 -68.5t-78.5 -108t-27.5 -141.5q0 -35 5.5 -74t13.5 -79t19 -79.5t21 -75.5l12 -40h1030v-544h-941q-19 -145 -108.5 -245.5t-244.5 -142.5h1776v-648h-2575v648h238q122 0 181 52.5
t59 166.5q0 38 -6.5 80.5t-17.5 88.5h-454v544h273q-26 89 -46.5 195.5t-20.5 219.5q0 206 84 376t236 292t363.5 189.5t467.5 67.5q174 0 329 -31.5t287 -89.5t238 -141t180 -186.5t114 -225.5t40 -258v-70h-788z" />
    <glyph glyph-name="currency" unicode="&#xa4;" horiz-adv-x="3059" 
d="M106 2860h2847v-2860h-2847v2860zM1529 1710l661 725h-1320zM585 675l689 755l-689 756v-1511zM2474 673v1512l-689 -755zM868 425h1320l-659 724z" />
    <glyph glyph-name="yen" unicode="&#xa5;" horiz-adv-x="2750" 
d="M2410 1290h-459l-107 -200h566v-466h-614v-624h-844v624h-614v466h566l-107 200h-459v466h211l-588 1104h909l509 -1093l519 1093h891l-589 -1104h210v-466z" />
    <glyph glyph-name="brokenbar" unicode="&#xa6;" horiz-adv-x="931" 
d="M106 1670v1560h718v-1560h-718zM106 -370v1560h718v-1560h-718z" />
    <glyph glyph-name="section" unicode="&#xa7;" horiz-adv-x="2314" 
d="M1114 2920q261 0 466.5 -55t347 -159t216.5 -254t75 -340h-787q0 139 -74 210.5t-220 71.5q-61 0 -111 -12t-86 -34t-56 -52.5t-20 -68.5q0 -52 28 -85t80 -55.5t124.5 -37.5t161.5 -32l148 -27q86 -15 183 -35.5t193 -52.5t184 -79.5t156 -117.5t108 -166.5t40 -226.5
q0 -136 -47 -247t-138 -198q42 -36 76 -80t58 -96.5t37.5 -115t13.5 -136.5q0 -170 -73 -303.5t-213 -225.5t-343.5 -140t-464.5 -48q-276 0 -489 54.5t-357.5 159.5t-219 258.5t-74.5 352.5h787q0 -143 85.5 -217t259.5 -74q72 0 130 12.5t99.5 35t64 54.5t22.5 72
q0 51 -24.5 83t-75.5 53.5t-128.5 38t-182.5 35.5l-148 26q-78 14 -171.5 33.5t-187.5 51t-182 78.5t-155.5 117.5t-108.5 167t-41 226.5q0 137 47 248t138 198q-41 36 -75 80t-58.5 96.5t-38 115.5t-13.5 136q0 166 70 297t203 222t325 139t436 48zM1275 1141
q97 14 153.5 56.5t56.5 105.5q0 51 -24.5 83t-75.5 53.5t-128.5 38t-182.5 35.5l-9 1q-91 -11 -145.5 -54t-54.5 -106q0 -52 28 -85t80 -55.5t124.5 -37.5t161.5 -32z" />
    <glyph glyph-name="dieresis" unicode="&#xa8;" horiz-adv-x="1534" 
d="M687 2307h-581v598h581v-598zM1428 2307h-581v598h581v-598z" />
    <glyph glyph-name="copyright" unicode="&#xa9;" horiz-adv-x="3733" 
d="M1881 3218q252 0 481.5 -61.5t426.5 -174.5t357 -273t273.5 -357t175 -426.5t61.5 -481.5q0 -254 -63 -487t-178 -433.5t-277.5 -364t-362 -279t-430.5 -178.5t-484 -63q-251 0 -481 62.5t-428.5 177t-360 276t-275.5 360t-176.5 428.5t-62.5 481q0 253 63 484
t178.5 430.5t278.5 361.5t363.5 277.5t433 178t487.5 62.5zM1878 2796q-195 0 -370.5 -46.5t-325.5 -132.5t-270.5 -208.5t-205.5 -274.5t-130.5 -330.5t-45.5 -375.5t45.5 -374.5t129 -329.5t202.5 -274.5t266 -209t319.5 -133t362.5 -46.5q193 0 367.5 47.5t324 136
t271 213t207 279t132 335t46.5 379.5q0 195 -44.5 370.5t-127.5 325t-201.5 269.5t-265.5 204.5t-320.5 130t-365.5 45.5zM1577 1428q0 -227 79.5 -338t235.5 -111q130 0 203 76.5t95 228.5h533q-18 -172 -87.5 -312t-180 -238.5t-256 -152t-315.5 -53.5q-185 0 -341.5 63.5
t-270 180.5t-177.5 283.5t-64 372.5t64 372.5t177.5 283.5t270 180.5t341.5 63.5q170 0 315.5 -53.5t256 -152t180 -238t87.5 -312.5h-533q-42 305 -298 305q-156 0 -235.5 -111t-79.5 -338z" />
    <glyph glyph-name="ordfeminine" unicode="&#xaa;" horiz-adv-x="1692" 
d="M148 2330q0 137 50 246.5t144 186t228.5 117.5t302.5 41q170 0 302 -42t223.5 -121.5t139 -195t47.5 -263.5v-851h-521v349q-22 -90 -67.5 -161.5t-111 -122t-149 -77.5t-179.5 -27q-102 0 -185 30t-142 84t-91.5 130.5t-32.5 169.5q0 105 42.5 187.5t123.5 139t198.5 86
t267.5 29.5h326v28q0 119 -50.5 183t-153.5 64q-100 0 -146.5 -54.5t-46.5 -155.5h-519zM825 2007q-96 0 -145 -30t-49 -90q0 -57 44 -89.5t122 -32.5q56 0 104.5 16t84.5 43.5t57 64t21 78.5v40h-239z" />
    <glyph glyph-name="guillemotleft" unicode="&#xab;" horiz-adv-x="3124" 
d="M990 2098h861l-923 -995l923 -994h-861l-883 992zM2210 2098h861l-923 -995l923 -994h-861l-883 992z" />
    <glyph glyph-name="logicalnot" unicode="&#xac;" horiz-adv-x="3059" 
d="M106 2860h2847v-2860h-2847v2860zM1529 1710l661 725h-1320zM585 675l689 755l-689 756v-1511zM2474 673v1512l-689 -755zM868 425h1320l-659 724z" />
    <glyph glyph-name="registered" unicode="&#xae;" horiz-adv-x="3733" 
d="M1881 3218q252 0 481.5 -61.5t426.5 -174.5t357.5 -273t273.5 -357.5t174.5 -426.5t61.5 -481q0 -254 -62.5 -487t-178 -433.5t-277.5 -364t-361.5 -279t-431 -178.5t-484.5 -63q-251 0 -481 62.5t-428.5 177t-360 276t-275.5 360t-176.5 428.5t-62.5 482q0 253 63 484
t178.5 430t278.5 361.5t363.5 277.5t433.5 177.5t487 62.5zM1878 2796q-195 0 -370.5 -46.5t-325 -132.5t-270.5 -208.5t-205.5 -274.5t-130.5 -330.5t-46 -375.5q0 -196 45 -374t129 -330t203 -274.5t266 -209t319.5 -133t362.5 -46.5q193 0 367.5 48t324.5 136t271 213
t206.5 279.5t132 334.5t46.5 379q0 195 -44.5 370.5t-128 325t-201.5 269.5t-265.5 204.5t-320.5 130t-365 45.5zM1160 585v1684h881q155 0 275 -35t202.5 -101.5t125.5 -164t43 -223.5q0 -105 -35 -193t-99 -152.5t-153.5 -102.5t-197.5 -43q117 -7 204 -72t142 -188
l184 -409h-596l-189 401q-25 53 -43 85t-35.5 49t-37 22t-46.5 5h-85v-562h-540zM1951 1532q95 0 145 39.5t50 114.5t-50 114t-145 39h-251v-307h251z" />
    <glyph glyph-name="macron" unicode="&#xaf;" horiz-adv-x="1380" 
d="M1274 2420h-1168v392h1168v-392z" />
    <glyph glyph-name="degree" unicode="&#xb0;" horiz-adv-x="1418" 
d="M77 2297q0 136 47.5 250.5t131.5 197.5t200 129.5t253 46.5q138 0 254 -46.5t200 -129.5t131 -197.5t47 -250.5t-47 -250.5t-131 -197.5t-200 -129.5t-254 -46.5q-137 0 -253 46.5t-200 129.5t-131.5 197.5t-47.5 250.5zM498 2297q0 -118 54.5 -181t157.5 -63
q102 0 156 63t54 181t-54 181t-156 63q-103 0 -157.5 -63t-54.5 -181z" />
    <glyph glyph-name="plusminus" unicode="&#xb1;" horiz-adv-x="2088" 
d="M746 508v655h-640v566h640v655h596v-655h640v-566h-640v-655h-596zM106 0v566h1876v-566h-1876z" />
    <glyph glyph-name="twosuperior" unicode="&#xb2;" horiz-adv-x="1441" 
d="M106 1431v241q0 91 21.5 160.5t57.5 121.5t82.5 88.5t96 62.5t98.5 43.5t90 30.5l118 38q41 13 84 28.5t78 38t57.5 54.5t22.5 77q0 66 -49 102.5t-138 36.5q-100 0 -145.5 -50.5t-45.5 -162.5v-29h-422v33q0 133 44 239.5t126 181t198 114.5t261 40q137 0 247 -36
t187 -103t118 -163t41 -216q0 -91 -22.5 -159.5t-60 -118.5t-86 -84.5t-99.5 -57.5t-101.5 -37.5t-92.5 -25.5l-115 -30q-29 -7 -59.5 -16t-58.5 -20.5t-51.5 -27.5t-38.5 -37h781v-357h-1224z" />
    <glyph glyph-name="threesuperior" unicode="&#xb3;" horiz-adv-x="1517" 
d="M106 2399q0 126 41 223t120 163t194.5 100.5t265.5 34.5q139 0 252 -29t193.5 -82t124 -127.5t43.5 -166.5q0 -67 -23 -124t-64.5 -100t-99 -70t-126.5 -34q90 -5 161 -31t120.5 -69.5t75.5 -103.5t26 -135q0 -100 -46 -181t-131.5 -138.5t-206 -88.5t-270.5 -31
q-156 0 -277.5 35.5t-204 104.5t-125.5 170.5t-43 233.5v5h418v-15q0 -80 61.5 -125t170.5 -45q53 0 95.5 10.5t73.5 30t47.5 47t16.5 61.5q0 48 -39 68.5t-131 20.5h-260v329h238q68 0 99 20t31 64q0 61 -55 96.5t-150 35.5q-96 0 -146 -37.5t-50 -108.5v-13h-420v2z" />
    <glyph glyph-name="acute" unicode="&#xb4;" horiz-adv-x="1158" 
d="M1052.01 2934h-655.96l-289.982 -639h487.97z" />
    <glyph glyph-name="paragraph" unicode="&#xb6;" horiz-adv-x="3268" 
d="M3162 -758h-798v3618h798v-3618zM2115 -758h-798v1536h-89q-168 0 -316.5 33.5t-273.5 97.5t-223.5 155.5t-167 207t-105 253.5t-36.5 294t36.5 294t105 253.5t167 207t223.5 155.5t273.5 97.5t316.5 33.5h887v-3618z" />
    <glyph glyph-name="periodcentered" unicode="&#xb7;" horiz-adv-x="939" 
d="M832 825h-726v748h726v-748z" />
    <glyph glyph-name="cedilla" unicode="&#xb8;" horiz-adv-x="1020" 
d="M468 8l-31 -160q108 -2 196 -24.5t150.5 -62t96.5 -95t34 -122.5q0 -73 -40 -133.5t-113 -103.5t-175 -66.5t-225 -23.5q-59 0 -122.5 6t-132.5 17v276q54 -12 100.5 -17.5t87.5 -5.5q99 0 151.5 27t52.5 65q0 23 -20 44t-60.5 37.5t-101.5 26.5t-143 10l55 305h240z" />
    <glyph glyph-name="onesuperior" unicode="&#xb9;" horiz-adv-x="1073" 
d="M784 1782h184v-351h-802v351h184v595h-244v332h79q65 0 108 7t68 24.5t35 47t10 74.5h378v-1080z" />
    <glyph glyph-name="ordmasculine" unicode="&#xba;" horiz-adv-x="1718" 
d="M106 2165q0 173 56 313t156.5 238t238.5 151t302 53t302 -53t238 -151t156.5 -238t56.5 -313t-56.5 -313t-156.5 -238.5t-238 -151.5t-302 -53t-302 53t-238.5 151.5t-156.5 238.5t-56 313zM633 2165q0 -156 57.5 -233t168.5 -77q112 0 169 77t57 233q0 155 -57 232
t-169 77q-111 0 -168.5 -77t-57.5 -232z" />
    <glyph glyph-name="guillemotright" unicode="&#xbb;" horiz-adv-x="3124" 
d="M2134.06 109.128h-860.947l922.943 994.939l-922.943 993.939h860.947l882.946 -991.939zM914.135 109.128h-860.947l922.943 994.939l-922.943 993.939h860.947l882.946 -991.939z" />
    <glyph glyph-name="onequarter" unicode="&#xbc;" horiz-adv-x="2927" 
d="M784 1781h184v-351h-802v351h184v595h-244v332h79q65 0 108 7t68 24.5t35 47t10 74.5h378v-1080zM2224 0v271h-764v360l665 799h525v-816h170v-343h-170v-271h-426zM2224 614v414l-341 -414h341zM190 0l2084 2960h488l-2084 -2960h-488z" />
    <glyph glyph-name="onehalf" unicode="&#xbd;" horiz-adv-x="3038" 
d="M188 0l2084 2960h488l-2084 -2960h-488zM1703 1v241q0 91 21.5 160.5t57.5 121.5t82.5 88.5t96 62.5t98.5 43.5t90 30.5l118 38q41 13 84 28.5t78 38t57.5 54.5t22.5 77q0 66 -49 102.5t-138 36.5q-100 0 -145.5 -50.5t-45.5 -162.5v-29h-422v33q0 133 44 239.5t126 181
t198 114.5t261 40q137 0 247 -36t187 -103t118 -163t41 -216q0 -91 -22.5 -159.5t-60 -118.5t-86 -84.5t-99.5 -57.5t-101.5 -37.5t-92.5 -25.5l-115 -30q-29 -7 -59.5 -16t-58.5 -20.5t-51.5 -27.5t-38.5 -37h781v-357h-1224zM784 1782h184v-351h-802v351h184v595h-244v332
h79q65 0 108 7t68 24.5t35 47t10 74.5h378v-1080z" />
    <glyph glyph-name="threequarters" unicode="&#xbe;" horiz-adv-x="3191" 
d="M2488 0v271h-764v360l665 799h525v-816h170v-343h-170v-271h-426zM2488 614v414l-341 -414h341zM106 2399q0 126 41 223t120 163t194.5 100.5t265.5 34.5q139 0 252 -29t193.5 -82t124 -127.5t43.5 -166.5q0 -67 -23 -124t-64.5 -100t-99 -70t-126.5 -34q90 -5 161 -31
t120.5 -69.5t75.5 -103.5t26 -135q0 -100 -46 -181t-131.5 -138.5t-206 -88.5t-270.5 -31q-156 0 -277.5 35.5t-204 104.5t-125.5 170.5t-43 233.5v5h418v-15q0 -80 61.5 -125t170.5 -45q53 0 95.5 10.5t73.5 30t47.5 47t16.5 61.5q0 48 -39 68.5t-131 20.5h-260v329h238
q68 0 99 20t31 64q0 61 -55 96.5t-150 35.5q-96 0 -146 -37.5t-50 -108.5v-13h-420v2zM448 0l2084 2960h488l-2084 -2960h-488z" />
    <glyph glyph-name="questiondown" unicode="&#xbf;" horiz-adv-x="2530" 
d="M1023.09 1305.05h676.959v-186.988q0 -101.994 -20.999 -182.489t-56.4961 -143.991q-35.498 -63.4961 -81.4951 -111.493t-96.4941 -84.9941q-50.4971 -36.998 -101.994 -65.4961q-51.4971 -28.499 -96.4941 -51.4971l-85.9941 -44.9971
q-54.9971 -27.999 -99.9941 -52.9971t-76.4951 -53.9971q-31.498 -28.998 -48.4971 -66.4951q-16.999 -37.498 -16.999 -89.4951q0 -53.9961 24.498 -96.9941q24.499 -42.9971 70.4961 -72.9951t110.993 -45.9971t144.991 -15.999q204.987 0 308.481 110.493
q103.493 110.493 103.493 340.479v48.9961h795.951v-61.9961q0 -547.966 -301.981 -819.449q-301.981 -271.484 -899.945 -271.484q-278.982 0 -496.47 57.4971q-217.486 57.4961 -366.978 168.489q-149.49 110.993 -227.485 271.983t-77.9951 367.978
q0 119.993 24.998 214.487t65.9961 167.989q40.9971 73.4961 94.9941 128.492q53.9961 54.9971 112.493 96.4941q58.4961 41.498 116.993 71.4961q58.4961 29.998 109.493 54.9961l83.9941 41.998q57.9971 27.998 113.493 57.4961q55.4971 29.498 98.9941 64.9961
t69.4961 79.9951q25.998 44.4971 25.998 103.494v71.9951zM999.094 2205h725.955v-747.954h-725.955v747.954z" />
    <glyph glyph-name="Agrave" unicode="&#xc0;" horiz-adv-x="2882" 
d="M-29 0l906 2860h1142l892 -2860h-901l-130 541h-893l-133 -541h-883zM1723 1193l-285 1183l-291 -1183h576zM742 3649h656l290 -639h-488z" />
    <glyph glyph-name="Aacute" unicode="&#xc1;" horiz-adv-x="2882" 
d="M-29 0l906 2860h1142l892 -2860h-901l-130 541h-893l-133 -541h-883zM1723 1193l-285 1183l-291 -1183h576zM2140.01 3649h-655.96l-289.982 -639h487.97z" />
    <glyph glyph-name="Acircumflex" unicode="&#xc2;" horiz-adv-x="2882" 
d="M-29 0l906 2860h1142l892 -2860h-901l-130 541h-893l-133 -541h-883zM1723 1193l-285 1183l-291 -1183h576zM1613 3010l-171 275l-173 -275h-460l316 639h632l316 -639h-460z" />
    <glyph glyph-name="Atilde" unicode="&#xc3;" horiz-adv-x="2882" 
d="M-29 0l906 2860h1142l892 -2860h-901l-130 541h-893l-133 -541h-883zM1723 1193l-285 1183l-291 -1183h576zM2081 3634q0 -167 -19 -285.5t-60 -194t-105 -110.5t-155 -35q-49 0 -92 9t-79 22t-64.5 27.5t-48.5 25.5l-66 35q-16 9 -36.5 19.5t-44 19.5t-49 15t-51.5 6
q-52 0 -81 -33t-29 -120v-6h-254v11q0 322 85 474.5t264 152.5q45 0 83.5 -8t70.5 -20t57.5 -25.5t43.5 -24.5l63 -35q17 -10 39.5 -21.5t49 -22t56.5 -17.5t63 -7q50 0 81 33t31 115v13h247v-13z" />
    <glyph glyph-name="Adieresis" unicode="&#xc4;" horiz-adv-x="2882" 
d="M-29 0l906 2860h1142l892 -2860h-901l-130 541h-893l-133 -541h-883zM1723 1193l-285 1183l-291 -1183h576zM1361 3022h-581v598h581v-598zM2102 3022h-581v598h581v-598z" />
    <glyph glyph-name="Aring" unicode="&#xc5;" horiz-adv-x="2882" 
d="M-29 0l906 2860h1142l892 -2860h-901l-130 541h-893l-133 -541h-883zM1723 1193l-285 1183l-291 -1183h576zM997 3445q0 100 33 180.5t91.5 137t140 87t177.5 30.5t176.5 -30.5t139 -87t91.5 -137t33 -180.5q0 -99 -33 -179.5t-91.5 -137.5t-139 -87.5t-176.5 -30.5
t-177.5 30.5t-140 87.5t-91.5 137.5t-33 179.5zM1296 3445q0 -84 39.5 -126t103.5 -42q63 0 102.5 42t39.5 126q0 85 -39.5 126.5t-102.5 41.5q-64 0 -103.5 -41.5t-39.5 -126.5z" />
    <glyph glyph-name="AE" unicode="&#xc6;" horiz-adv-x="3716" 
d="M-29 0l1083 2860h2577v-686h-1176v-430h1064v-630h-1064v-428h1208v-686h-2052v531h-587l-167 -531h-886zM1611 1183v1218l-383 -1218h383z" />
    <glyph glyph-name="Ccedilla" unicode="&#xc7;" horiz-adv-x="2945" 
d="M928 1430q0 -400 147 -598t431 -198q224 0 353 137t170 419h836q-24 -194 -82 -362t-147 -306.5t-206 -247t-260 -182.5t-310 -113t-354 -39q-207 0 -393.5 47t-345.5 137t-287 220t-217.5 295.5t-138 364.5t-48.5 426t48.5 426t138 364.5t217.5 295.5t287 220t345.5 137
t393.5 47q187 0 354 -39t310 -113t260 -182.5t206 -247t147 -306.5t82 -362h-836q-41 282 -170 419t-353 137q-284 0 -431 -197.5t-147 -598.5zM1632 8l-31 -160q108 -2 196 -24.5t150.5 -62t96.5 -95t34 -122.5q0 -73 -40 -133.5t-113 -103.5t-175 -66.5t-225 -23.5
q-59 0 -122.5 6t-132.5 17v276q54 -12 100.5 -17.5t87.5 -5.5q99 0 151.5 27t52.5 65q0 23 -20 44t-60.5 37.5t-101.5 26.5t-143 10l55 305h240z" />
    <glyph glyph-name="Egrave" unicode="&#xc8;" horiz-adv-x="2211" 
d="M2126 2860v-686h-1176v-430h1064v-630h-1064v-428h1208v-686h-2052v2860h2020zM424 3648h656l290 -639h-488z" />
    <glyph glyph-name="Eacute" unicode="&#xc9;" horiz-adv-x="2211" 
d="M2126 2860v-686h-1176v-430h1064v-630h-1064v-428h1208v-686h-2052v2860h2020zM1821.01 3648h-655.96l-289.982 -639h487.97z" />
    <glyph glyph-name="Ecircumflex" unicode="&#xca;" horiz-adv-x="2211" 
d="M2126 2860v-686h-1176v-430h1064v-630h-1064v-428h1208v-686h-2052v2860h2020zM1294 3009l-171 275l-173 -275h-460l316 639h632l316 -639h-460z" />
    <glyph glyph-name="Edieresis" unicode="&#xcb;" horiz-adv-x="2211" 
d="M2126 2860v-686h-1176v-430h1064v-630h-1064v-428h1208v-686h-2052v2860h2020zM1043 3021h-581v598h581v-598zM1784 3021h-581v598h581v-598z" />
    <glyph glyph-name="Igrave" unicode="&#xcc;" horiz-adv-x="1056" 
d="M950 0h-844v2860h844v-2860zM-171 3649h656l290 -639h-488z" />
    <glyph glyph-name="Iacute" unicode="&#xcd;" horiz-adv-x="1056" 
d="M950 0h-844v2860h844v-2860zM1227.01 3649h-655.96l-289.982 -639h487.97z" />
    <glyph glyph-name="Icircumflex" unicode="&#xce;" horiz-adv-x="1056" 
d="M950 0h-844v2860h844v-2860zM700 3010l-171 275l-173 -275h-460l316 639h632l316 -639h-460z" />
    <glyph glyph-name="Idieresis" unicode="&#xcf;" horiz-adv-x="1056" 
d="M950 0h-844v2860h844v-2860zM448 3022h-581v598h581v-598zM1189 3022h-581v598h581v-598z" />
    <glyph glyph-name="Eth" unicode="&#xd0;" horiz-adv-x="2752" 
d="M106 2860h1145q211 0 398 -45t345.5 -131.5t285 -211t214.5 -283.5t135 -349.5t47 -409.5q0 -218 -47 -409t-135 -350t-214.5 -283.5t-285 -211t-346 -131.5t-397.5 -45h-1145v2860zM1222 694q296 0 449 183t153 553q0 371 -153 553.5t-449 182.5h-274v-1472h274z
M1417 1187h-1520v506h1520v-506z" />
    <glyph glyph-name="Ntilde" unicode="&#xd1;" horiz-adv-x="2911" 
d="M2805 0h-1111l-786 1997v-1997h-802v2860h1171l726 -1833v1833h802v-2860zM2096 3622q0 -167 -19 -285.5t-60 -194t-105 -110.5t-155 -35q-49 0 -92 9t-79 22t-64.5 27.5t-48.5 25.5l-66 35q-16 9 -36.5 19.5t-44 19.5t-49 15t-51.5 6q-52 0 -81 -33t-29 -120v-6h-254v11
q0 322 85 474.5t264 152.5q45 0 83.5 -8t70.5 -20t57.5 -25.5t43.5 -24.5l63 -35q17 -10 39.5 -21.5t49 -22t56.5 -17.5t63 -7q50 0 81 33t31 115v13h247v-13z" />
    <glyph glyph-name="Ograve" unicode="&#xd2;" horiz-adv-x="3012" 
d="M76 1430q0 227 48.5 426t138.5 364.5t217.5 295.5t286.5 220t345.5 137t393.5 47t393.5 -47t345.5 -137t287 -220t218 -295.5t138.5 -364.5t48.5 -426t-48.5 -426t-138.5 -364.5t-218 -295.5t-287 -220t-345.5 -137t-393.5 -47t-393.5 47t-345.5 137t-286.5 220
t-217.5 295.5t-138.5 364.5t-48.5 426zM928 1430q0 -400 147 -598t431 -198t431.5 198t147.5 598q0 401 -147.5 598.5t-431.5 197.5t-431 -197.5t-147 -598.5zM807 3649h656l290 -639h-488z" />
    <glyph glyph-name="Oacute" unicode="&#xd3;" horiz-adv-x="3012" 
d="M76 1430q0 227 48.5 426t138.5 364.5t217.5 295.5t286.5 220t345.5 137t393.5 47t393.5 -47t345.5 -137t287 -220t218 -295.5t138.5 -364.5t48.5 -426t-48.5 -426t-138.5 -364.5t-218 -295.5t-287 -220t-345.5 -137t-393.5 -47t-393.5 47t-345.5 137t-286.5 220
t-217.5 295.5t-138.5 364.5t-48.5 426zM928 1430q0 -400 147 -598t431 -198t431.5 198t147.5 598q0 401 -147.5 598.5t-431.5 197.5t-431 -197.5t-147 -598.5zM2205.01 3649h-655.96l-289.982 -639h487.97z" />
    <glyph glyph-name="Ocircumflex" unicode="&#xd4;" horiz-adv-x="3012" 
d="M76 1430q0 227 48.5 426t138.5 364.5t217.5 295.5t286.5 220t345.5 137t393.5 47t393.5 -47t345.5 -137t287 -220t218 -295.5t138.5 -364.5t48.5 -426t-48.5 -426t-138.5 -364.5t-218 -295.5t-287 -220t-345.5 -137t-393.5 -47t-393.5 47t-345.5 137t-286.5 220
t-217.5 295.5t-138.5 364.5t-48.5 426zM928 1430q0 -400 147 -598t431 -198t431.5 198t147.5 598q0 401 -147.5 598.5t-431.5 197.5t-431 -197.5t-147 -598.5zM1678 3010l-171 275l-173 -275h-460l316 639h632l316 -639h-460z" />
    <glyph glyph-name="Otilde" unicode="&#xd5;" horiz-adv-x="3012" 
d="M76 1430q0 227 48.5 426t138.5 364.5t217.5 295.5t286.5 220t345.5 137t393.5 47t393.5 -47t345.5 -137t287 -220t218 -295.5t138.5 -364.5t48.5 -426t-48.5 -426t-138.5 -364.5t-218 -295.5t-287 -220t-345.5 -137t-393.5 -47t-393.5 47t-345.5 137t-286.5 220
t-217.5 295.5t-138.5 364.5t-48.5 426zM928 1430q0 -400 147 -598t431 -198t431.5 198t147.5 598q0 401 -147.5 598.5t-431.5 197.5t-431 -197.5t-147 -598.5zM2146 3634q0 -167 -19 -285.5t-60 -194t-105 -110.5t-155 -35q-49 0 -92 9t-79 22t-64.5 27.5t-48.5 25.5l-66 35
q-16 9 -36.5 19.5t-44 19.5t-49 15t-51.5 6q-52 0 -81 -33t-29 -120v-6h-254v11q0 322 85 474.5t264 152.5q45 0 83.5 -8t70.5 -20t57.5 -25.5t43.5 -24.5l63 -35q17 -10 39.5 -21.5t49 -22t56.5 -17.5t63 -7q50 0 81 33t31 115v13h247v-13z" />
    <glyph glyph-name="Odieresis" unicode="&#xd6;" horiz-adv-x="3012" 
d="M76 1430q0 227 48.5 426t138.5 364.5t217.5 295.5t286.5 220t345.5 137t393.5 47t393.5 -47t345.5 -137t287 -220t218 -295.5t138.5 -364.5t48.5 -426t-48.5 -426t-138.5 -364.5t-218 -295.5t-287 -220t-345.5 -137t-393.5 -47t-393.5 47t-345.5 137t-286.5 220
t-217.5 295.5t-138.5 364.5t-48.5 426zM928 1430q0 -400 147 -598t431 -198t431.5 198t147.5 598q0 401 -147.5 598.5t-431.5 197.5t-431 -197.5t-147 -598.5zM1426 3022h-581v598h581v-598zM2167 3022h-581v598h581v-598z" />
    <glyph glyph-name="multiply" unicode="&#xd7;" horiz-adv-x="2080" 
d="M1570 519l-530 531l-538 -537l-396 396l538 537l-531 531l396 396l531 -531l537 537l396 -396l-537 -537l530 -531z" />
    <glyph glyph-name="Oslash" unicode="&#xd8;" horiz-adv-x="3012" 
d="M442 384q-87 96 -155 211t-115 246.5t-71.5 279t-24.5 309.5q0 227 48.5 426t138 364.5t217.5 295.5t287 220t345.5 137t393.5 47q200 0 379.5 -43.5t334.5 -127.5l138 171h571l-359 -445q87 -96 155 -211t115 -246.5t71.5 -278.5t24.5 -309q0 -227 -48.5 -426
t-138.5 -364.5t-217.5 -295.5t-286.5 -220t-345.5 -137t-393.5 -47q-201 0 -381 43.5t-336 128.5l-139 -172h-564zM928 1430q0 -95 8 -177.5t24 -154.5l840 1056q-121 72 -294 72q-284 0 -431 -197.5t-147 -598.5zM1215 704q119 -70 291 -70q284 0 431 198t147 598
q0 184 -32 327z" />
    <glyph glyph-name="Ugrave" unicode="&#xd9;" horiz-adv-x="2764" 
d="M106 2860h844v-1652q0 -158 27.5 -267.5t82 -177.5t135.5 -98.5t187 -30.5q107 0 187.5 30.5t135 98.5t82 177.5t27.5 267.5v1652h844v-1740q0 -193 -43.5 -355.5t-123.5 -293.5t-194 -230.5t-256 -166t-308.5 -100.5t-350.5 -34t-350.5 34t-308.5 100.5t-256 166
t-194 230.5t-123.5 293.5t-43.5 355.5v1740zM683 3649h656l290 -639h-488z" />
    <glyph glyph-name="Uacute" unicode="&#xda;" horiz-adv-x="2764" 
d="M106 2860h844v-1652q0 -158 27.5 -267.5t82 -177.5t135.5 -98.5t187 -30.5q107 0 187.5 30.5t135 98.5t82 177.5t27.5 267.5v1652h844v-1740q0 -193 -43.5 -355.5t-123.5 -293.5t-194 -230.5t-256 -166t-308.5 -100.5t-350.5 -34t-350.5 34t-308.5 100.5t-256 166
t-194 230.5t-123.5 293.5t-43.5 355.5v1740zM2081.01 3649h-655.96l-289.982 -639h487.97z" />
    <glyph glyph-name="Ucircumflex" unicode="&#xdb;" horiz-adv-x="2764" 
d="M106 2860h844v-1652q0 -158 27.5 -267.5t82 -177.5t135.5 -98.5t187 -30.5q107 0 187.5 30.5t135 98.5t82 177.5t27.5 267.5v1652h844v-1740q0 -193 -43.5 -355.5t-123.5 -293.5t-194 -230.5t-256 -166t-308.5 -100.5t-350.5 -34t-350.5 34t-308.5 100.5t-256 166
t-194 230.5t-123.5 293.5t-43.5 355.5v1740zM1554 3010l-171 275l-173 -275h-460l316 639h632l316 -639h-460z" />
    <glyph glyph-name="Udieresis" unicode="&#xdc;" horiz-adv-x="2764" 
d="M106 2860h844v-1652q0 -158 27.5 -267.5t82 -177.5t135.5 -98.5t187 -30.5q107 0 187.5 30.5t135 98.5t82 177.5t27.5 267.5v1652h844v-1740q0 -193 -43.5 -355.5t-123.5 -293.5t-194 -230.5t-256 -166t-308.5 -100.5t-350.5 -34t-350.5 34t-308.5 100.5t-256 166
t-194 230.5t-123.5 293.5t-43.5 355.5v1740zM1302 3022h-581v598h581v-598zM2043 3022h-581v598h581v-598z" />
    <glyph glyph-name="Yacute" unicode="&#xdd;" horiz-adv-x="2750" 
d="M2789 2860l-993 -1860v-1000h-844v1000l-991 1860h909l509 -1093l519 1093h891zM2074.01 3649h-655.96l-289.982 -639h487.97z" />
    <glyph glyph-name="Thorn" unicode="&#xde;" horiz-adv-x="2724" 
d="M106 2860h844v-475h473q179 0 339.5 -31.5t296.5 -91t245 -146t185.5 -196.5t117.5 -241.5t41 -281.5t-38 -282t-109 -241.5t-172.5 -196t-227.5 -146.5t-274.5 -91.5t-313.5 -31.5h-563v-408h-844v2860zM1445 1062q174 0 266.5 86t92.5 249q0 162 -92 248t-266 86h-496
v-669h495z" />
    <glyph glyph-name="germandbls" unicode="&#xdf;" horiz-adv-x="2551" 
d="M106 1874q0 254 74 449t218 327.5t355 201t485 68.5q253 0 460 -56.5t354 -160.5t227.5 -249.5t80.5 -324.5q0 -135 -46 -250t-128.5 -201.5t-198 -140.5t-255.5 -68q181 -10 323.5 -61.5t240.5 -140.5t150 -212.5t52 -278.5q0 -187 -75 -341t-211 -264t-326.5 -170.5
t-422.5 -60.5q-106 0 -185 13.5t-147 44.5v664q77 -28 170 -28q85 0 157 22t124 61t81 92t29 114q0 103 -90.5 159.5t-285.5 56.5h-186v626h147q145 0 218.5 50t73.5 149q0 58 -24.5 106t-68 82.5t-104.5 54t-134 19.5q-158 0 -243 -86t-85 -246v-1894h-804v1874z" />
    <glyph glyph-name="agrave" unicode="&#xe0;" horiz-adv-x="2398" 
d="M101 1357q0 211 77 379t221.5 285.5t351 180.5t465.5 63q261 0 464.5 -64t344 -186.5t214 -300.5t73.5 -406v-1308h-793v536q-34 -138 -105 -248t-172 -187.5t-229.5 -119t-277.5 -41.5q-157 0 -286 46t-221 129.5t-142 201t-50 261.5q0 162 65 288t189.5 213
t305.5 132.5t412 45.5h511v51q0 184 -81 282t-242 98q-158 0 -232 -86.5t-74 -244.5h-789zM1135 869q-149 0 -225 -49t-76 -145q0 -93 69.5 -144.5t194.5 -51.5q88 0 164.5 25t133.5 68.5t90 102t33 124.5v70h-384zM518 2994h656l290 -639h-488z" />
    <glyph glyph-name="aacute" unicode="&#xe1;" horiz-adv-x="2398" 
d="M101 1357q0 211 77 379t221.5 285.5t351 180.5t465.5 63q261 0 464.5 -64t344 -186.5t214 -300.5t73.5 -406v-1308h-793v536q-34 -138 -105 -248t-172 -187.5t-229.5 -119t-277.5 -41.5q-157 0 -286 46t-221 129.5t-142 201t-50 261.5q0 162 65 288t189.5 213
t305.5 132.5t412 45.5h511v51q0 184 -81 282t-242 98q-158 0 -232 -86.5t-74 -244.5h-789zM1135 869q-149 0 -225 -49t-76 -145q0 -93 69.5 -144.5t194.5 -51.5q88 0 164.5 25t133.5 68.5t90 102t33 124.5v70h-384zM1915.01 2994h-655.96l-289.982 -639h487.97z" />
    <glyph glyph-name="acircumflex" unicode="&#xe2;" horiz-adv-x="2398" 
d="M101 1357q0 211 77 379t221.5 285.5t351 180.5t465.5 63q261 0 464.5 -64t344 -186.5t214 -300.5t73.5 -406v-1308h-793v536q-34 -138 -105 -248t-172 -187.5t-229.5 -119t-277.5 -41.5q-157 0 -286 46t-221 129.5t-142 201t-50 261.5q0 162 65 288t189.5 213
t305.5 132.5t412 45.5h511v51q0 184 -81 282t-242 98q-158 0 -232 -86.5t-74 -244.5h-789zM1135 869q-149 0 -225 -49t-76 -145q0 -93 69.5 -144.5t194.5 -51.5q88 0 164.5 25t133.5 68.5t90 102t33 124.5v70h-384zM1388 2355l-171 275l-173 -275h-460l316 639h632l316 -639
h-460z" />
    <glyph glyph-name="atilde" unicode="&#xe3;" horiz-adv-x="2398" 
d="M101 1357q0 211 77 379t221.5 285.5t351 180.5t465.5 63q261 0 464.5 -64t344 -186.5t214 -300.5t73.5 -406v-1308h-793v536q-34 -138 -105 -248t-172 -187.5t-229.5 -119t-277.5 -41.5q-157 0 -286 46t-221 129.5t-142 201t-50 261.5q0 162 65 288t189.5 213
t305.5 132.5t412 45.5h511v51q0 184 -81 282t-242 98q-158 0 -232 -86.5t-74 -244.5h-789zM1135 869q-149 0 -225 -49t-76 -145q0 -93 69.5 -144.5t194.5 -51.5q88 0 164.5 25t133.5 68.5t90 102t33 124.5v70h-384zM1856 2979q0 -167 -19 -285.5t-60 -194t-105 -110.5
t-155 -35q-49 0 -92 9t-79 22t-64.5 27.5t-48.5 25.5l-66 35q-16 9 -36.5 19.5t-44 19.5t-49 15t-51.5 6q-52 0 -81 -33t-29 -120v-6h-254v11q0 322 85 474.5t264 152.5q45 0 83.5 -8t70.5 -20t57.5 -25.5t43.5 -24.5l63 -35q17 -10 39.5 -21.5t49 -22t56.5 -17.5t63 -7
q50 0 81 33t31 115v13h247v-13z" />
    <glyph glyph-name="adieresis" unicode="&#xe4;" horiz-adv-x="2398" 
d="M101 1357q0 211 77 379t221.5 285.5t351 180.5t465.5 63q261 0 464.5 -64t344 -186.5t214 -300.5t73.5 -406v-1308h-793v536q-34 -138 -105 -248t-172 -187.5t-229.5 -119t-277.5 -41.5q-157 0 -286 46t-221 129.5t-142 201t-50 261.5q0 162 65 288t189.5 213
t305.5 132.5t412 45.5h511v51q0 184 -81 282t-242 98q-158 0 -232 -86.5t-74 -244.5h-789zM1135 869q-149 0 -225 -49t-76 -145q0 -93 69.5 -144.5t194.5 -51.5q88 0 164.5 25t133.5 68.5t90 102t33 124.5v70h-384zM1137 2367h-581v598h581v-598zM1878 2367h-581v598h581
v-598z" />
    <glyph glyph-name="aring" unicode="&#xe5;" horiz-adv-x="2398" 
d="M101 1357q0 211 77 379t221.5 285.5t351 180.5t465.5 63q261 0 464.5 -64t344 -186.5t214 -300.5t73.5 -406v-1308h-793v536q-34 -138 -105 -248t-172 -187.5t-229.5 -119t-277.5 -41.5q-157 0 -286 46t-221 129.5t-142 201t-50 261.5q0 162 65 288t189.5 213
t305.5 132.5t412 45.5h511v51q0 184 -81 282t-242 98q-158 0 -232 -86.5t-74 -244.5h-789zM1135 869q-149 0 -225 -49t-76 -145q0 -93 69.5 -144.5t194.5 -51.5q88 0 164.5 25t133.5 68.5t90 102t33 124.5v70h-384zM772 2790q0 100 33 180.5t91.5 137t140 87t177.5 30.5
t176.5 -30.5t139 -87t91.5 -137t33 -180.5q0 -99 -33 -179.5t-91.5 -137.5t-139 -87.5t-176.5 -30.5t-177.5 30.5t-140 87.5t-91.5 137.5t-33 179.5zM1071 2790q0 -84 39.5 -126t103.5 -42q63 0 102.5 42t39.5 126q0 85 -39.5 126.5t-102.5 41.5q-64 0 -103.5 -41.5
t-39.5 -126.5z" />
    <glyph glyph-name="ae" unicode="&#xe6;" horiz-adv-x="3832" 
d="M101 1357q0 211 77 379t221.5 285.5t351 180.5t465.5 63q238 0 426.5 -55.5t324.5 -161.5q137 105 309 161t376 56q252 0 459.5 -83.5t355 -236.5t229 -367t81.5 -475q0 -42 -2 -85t-7 -83h-1505q11 -96 43.5 -171t84.5 -126.5t122.5 -78.5t158.5 -27q245 0 348 219h721
q-49 -189 -149 -339t-241 -255t-319 -161t-382 -56q-189 0 -354.5 48t-299.5 138t-234.5 218t-160.5 287q-22 -159 -92.5 -286.5t-179.5 -217.5t-252.5 -138.5t-311.5 -48.5q-164 0 -298.5 46t-230 130t-148 202t-52.5 263q0 161 65 286.5t189.5 212t305.5 132t412 45.5h511
v51q0 184 -81 282t-242 98q-158 0 -232 -86.5t-74 -244.5h-789zM3045 1325q-33 185 -129 274.5t-259 89.5q-167 0 -264.5 -92t-124.5 -272h777zM1135 869q-149 0 -225 -49t-76 -145q0 -93 69.5 -144.5t194.5 -51.5q88 0 164.5 25t133.5 68.5t90 102t33 124.5v70h-384z" />
    <glyph glyph-name="ccedilla" unicode="&#xe7;" horiz-adv-x="2364" 
d="M855 1103q0 -242 91.5 -364t265.5 -122q68 0 119.5 19.5t89 57t62 92.5t38.5 125h789q-27 -221 -119 -400.5t-236 -306t-333 -195.5t-410 -69q-168 0 -319 37t-280 106.5t-232 171t-176 231t-112 284.5t-39 333q0 267 86.5 481.5t240.5 366t366.5 233t464.5 81.5
q221 0 410 -68.5t333 -195.5t236 -306t119 -401h-789q-14 71 -38.5 125.5t-62 92t-89 57t-119.5 19.5q-174 0 -265.5 -121.5t-91.5 -363.5zM1315 8l-31 -160q108 -2 196 -24.5t150.5 -62t96.5 -95t34 -122.5q0 -73 -40 -133.5t-113 -103.5t-175 -66.5t-225 -23.5
q-59 0 -122.5 6t-132.5 17v276q54 -12 100.5 -17.5t87.5 -5.5q99 0 151.5 27t52.5 65q0 23 -20 44t-60.5 37.5t-101.5 26.5t-143 10l55 305h240z" />
    <glyph glyph-name="egrave" unicode="&#xe8;" horiz-adv-x="2366" 
d="M2303 763q-48 -191 -148.5 -343.5t-243.5 -259t-324 -163.5t-389 -57q-170 0 -321 38t-278 109.5t-228 174.5t-171.5 232t-108 282.5t-37.5 326.5t37 326.5t106.5 282.5t169.5 231.5t226 174t275.5 109.5t318.5 38q252 0 459.5 -83.5t355 -236.5t229 -367t81.5 -475
q0 -42 -2 -85t-7 -83h-1505q23 -194 131.5 -298.5t291.5 -104.5q132 0 221 57.5t140 173.5h721zM1580 1325q-33 185 -129 274.5t-259 89.5q-167 0 -264.5 -92t-124.5 -272h777zM488 2994h656l290 -639h-488z" />
    <glyph glyph-name="eacute" unicode="&#xe9;" horiz-adv-x="2366" 
d="M2303 763q-48 -191 -148.5 -343.5t-243.5 -259t-324 -163.5t-389 -57q-170 0 -321 38t-278 109.5t-228 174.5t-171.5 232t-108 282.5t-37.5 326.5t37 326.5t106.5 282.5t169.5 231.5t226 174t275.5 109.5t318.5 38q252 0 459.5 -83.5t355 -236.5t229 -367t81.5 -475
q0 -42 -2 -85t-7 -83h-1505q23 -194 131.5 -298.5t291.5 -104.5q132 0 221 57.5t140 173.5h721zM1580 1325q-33 185 -129 274.5t-259 89.5q-167 0 -264.5 -92t-124.5 -272h777zM1886.01 2994h-655.96l-289.982 -639h487.97z" />
    <glyph glyph-name="ecircumflex" unicode="&#xea;" horiz-adv-x="2366" 
d="M2303 763q-48 -191 -148.5 -343.5t-243.5 -259t-324 -163.5t-389 -57q-170 0 -321 38t-278 109.5t-228 174.5t-171.5 232t-108 282.5t-37.5 326.5t37 326.5t106.5 282.5t169.5 231.5t226 174t275.5 109.5t318.5 38q252 0 459.5 -83.5t355 -236.5t229 -367t81.5 -475
q0 -42 -2 -85t-7 -83h-1505q23 -194 131.5 -298.5t291.5 -104.5q132 0 221 57.5t140 173.5h721zM1580 1325q-33 185 -129 274.5t-259 89.5q-167 0 -264.5 -92t-124.5 -272h777zM1359 2355l-171 275l-173 -275h-460l316 639h632l316 -639h-460z" />
    <glyph glyph-name="edieresis" unicode="&#xeb;" horiz-adv-x="2366" 
d="M2303 763q-48 -191 -148.5 -343.5t-243.5 -259t-324 -163.5t-389 -57q-170 0 -321 38t-278 109.5t-228 174.5t-171.5 232t-108 282.5t-37.5 326.5t37 326.5t106.5 282.5t169.5 231.5t226 174t275.5 109.5t318.5 38q252 0 459.5 -83.5t355 -236.5t229 -367t81.5 -475
q0 -42 -2 -85t-7 -83h-1505q23 -194 131.5 -298.5t291.5 -104.5q132 0 221 57.5t140 173.5h721zM1580 1325q-33 185 -129 274.5t-259 89.5q-167 0 -264.5 -92t-124.5 -272h777zM1107 2367h-581v598h581v-598zM1848 2367h-581v598h581v-598z" />
    <glyph glyph-name="igrave" unicode="&#xec;" horiz-adv-x="1011" 
d="M902 0h-793v2205h793v-2205zM-193 2994h656l290 -639h-488z" />
    <glyph glyph-name="iacute" unicode="&#xed;" horiz-adv-x="1011" 
d="M902 0h-793v2205h793v-2205zM1205.01 2994h-655.96l-289.982 -639h487.97z" />
    <glyph glyph-name="icircumflex" unicode="&#xee;" horiz-adv-x="1011" 
d="M902 0h-793v2205h793v-2205zM678 2355l-171 275l-173 -275h-460l316 639h632l316 -639h-460z" />
    <glyph glyph-name="idieresis" unicode="&#xef;" horiz-adv-x="1011" 
d="M902 0h-793v2205h793v-2205zM426 2367h-581v598h581v-598zM1167 2367h-581v598h581v-598z" />
    <glyph glyph-name="eth" unicode="&#xf0;" horiz-adv-x="2424" 
d="M54 1128q0 152 26 289t75 253t118.5 209.5t156.5 159t190 101t218 35.5q143 0 266 -55t219 -156.5t162.5 -245.5t96.5 -321q-14 167 -45.5 309t-85.5 267.5t-132.5 238.5t-187.5 222l-397 -188l-144 291l273 130q-58 45 -121 90t-133 93l255 381q156 -68 294 -142
t261 -157l391 186l144 -292l-248 -118q337 -307 500.5 -706.5t163.5 -906.5q0 -172 -38 -324.5t-109.5 -281t-174 -230t-232 -172.5t-283.5 -109t-328 -38q-261 0 -473.5 84t-363 239t-232.5 374.5t-82 490.5zM855 1094q0 -238 90.5 -357.5t267.5 -119.5t266.5 119.5
t89.5 357.5t-89.5 357t-266.5 119t-267.5 -119t-90.5 -357z" />
    <glyph glyph-name="ntilde" unicode="&#xf1;" 
d="M889 0h-793v2205h793v-688q118 748 732 748q168 0 292.5 -57t206 -173t122 -292t40.5 -414v-1329h-793v1129q0 233 -71.5 346t-219.5 113q-153 0 -231 -116t-78 -351v-1121zM1829 2979q0 -167 -19 -285.5t-60 -194t-105 -110.5t-155 -35q-49 0 -92 9t-79 22t-64.5 27.5
t-48.5 25.5l-66 35q-16 9 -36.5 19.5t-44 19.5t-49 15t-51.5 6q-52 0 -81 -33t-29 -120v-6h-254v11q0 322 85 474.5t264 152.5q45 0 83.5 -8t70.5 -20t57.5 -25.5t43.5 -24.5l63 -35q17 -10 39.5 -21.5t49 -22t56.5 -17.5t63 -7q50 0 81 33t31 115v13h247v-13z" />
    <glyph glyph-name="ograve" unicode="&#xf2;" horiz-adv-x="2424" 
d="M54 1103q0 267 86.5 481.5t241 366t366.5 233t464 81.5t464.5 -81.5t366.5 -233t240.5 -366t86.5 -481.5q0 -178 -39 -333t-112 -284.5t-176 -231t-232 -171t-280 -106.5t-319 -37t-319 37t-279.5 106.5t-232 171t-176.5 231t-112 284.5t-39 333zM855 1103
q0 -244 91 -365t266 -121q177 0 267 121t90 365t-90 364.5t-267 120.5q-175 0 -266 -120.5t-91 -364.5zM513 2994h656l290 -639h-488z" />
    <glyph glyph-name="oacute" unicode="&#xf3;" horiz-adv-x="2424" 
d="M54 1103q0 267 86.5 481.5t241 366t366.5 233t464 81.5t464.5 -81.5t366.5 -233t240.5 -366t86.5 -481.5q0 -178 -39 -333t-112 -284.5t-176 -231t-232 -171t-280 -106.5t-319 -37t-319 37t-279.5 106.5t-232 171t-176.5 231t-112 284.5t-39 333zM855 1103
q0 -244 91 -365t266 -121q177 0 267 121t90 365t-90 364.5t-267 120.5q-175 0 -266 -120.5t-91 -364.5zM1911.01 2994h-655.96l-289.982 -639h487.97z" />
    <glyph glyph-name="ocircumflex" unicode="&#xf4;" horiz-adv-x="2424" 
d="M54 1103q0 267 86.5 481.5t241 366t366.5 233t464 81.5t464.5 -81.5t366.5 -233t240.5 -366t86.5 -481.5q0 -178 -39 -333t-112 -284.5t-176 -231t-232 -171t-280 -106.5t-319 -37t-319 37t-279.5 106.5t-232 171t-176.5 231t-112 284.5t-39 333zM855 1103
q0 -244 91 -365t266 -121q177 0 267 121t90 365t-90 364.5t-267 120.5q-175 0 -266 -120.5t-91 -364.5zM1384 2355l-171 275l-173 -275h-460l316 639h632l316 -639h-460z" />
    <glyph glyph-name="otilde" unicode="&#xf5;" horiz-adv-x="2424" 
d="M54 1103q0 267 86.5 481.5t241 366t366.5 233t464 81.5t464.5 -81.5t366.5 -233t240.5 -366t86.5 -481.5q0 -178 -39 -333t-112 -284.5t-176 -231t-232 -171t-280 -106.5t-319 -37t-319 37t-279.5 106.5t-232 171t-176.5 231t-112 284.5t-39 333zM855 1103
q0 -244 91 -365t266 -121q177 0 267 121t90 365t-90 364.5t-267 120.5q-175 0 -266 -120.5t-91 -364.5zM1852 2979q0 -167 -19 -285.5t-60 -194t-105 -110.5t-155 -35q-49 0 -92 9t-79 22t-64.5 27.5t-48.5 25.5l-66 35q-16 9 -36.5 19.5t-44 19.5t-49 15t-51.5 6
q-52 0 -81 -33t-29 -120v-6h-254v11q0 322 85 474.5t264 152.5q45 0 83.5 -8t70.5 -20t57.5 -25.5t43.5 -24.5l63 -35q17 -10 39.5 -21.5t49 -22t56.5 -17.5t63 -7q50 0 81 33t31 115v13h247v-13z" />
    <glyph glyph-name="odieresis" unicode="&#xf6;" horiz-adv-x="2424" 
d="M54 1103q0 267 86.5 481.5t241 366t366.5 233t464 81.5t464.5 -81.5t366.5 -233t240.5 -366t86.5 -481.5q0 -178 -39 -333t-112 -284.5t-176 -231t-232 -171t-280 -106.5t-319 -37t-319 37t-279.5 106.5t-232 171t-176.5 231t-112 284.5t-39 333zM855 1103
q0 -244 91 -365t266 -121q177 0 267 121t90 365t-90 364.5t-267 120.5q-175 0 -266 -120.5t-91 -364.5zM1132 2367h-581v598h581v-598zM1873 2367h-581v598h581v-598z" />
    <glyph glyph-name="divide" unicode="&#xf7;" horiz-adv-x="2464" 
d="M106.201 1163v566h2251.22v-566h-2251.22zM1562.82 1955h-653.418v673.219h653.418v-673.219zM1562.82 264h-653.418v673.219h653.418v-673.219z" />
    <glyph glyph-name="oslash" unicode="&#xf8;" horiz-adv-x="2424" 
d="M2067 1926q144 -151 223.5 -358.5t79.5 -464.5q0 -178 -39 -333t-112 -284.5t-176 -231t-232 -171t-280 -106.5t-319 -37q-165 0 -311.5 35t-273.5 102l-111 -137h-434l275 340q-144 151 -223.5 358.5t-79.5 464.5q0 267 86.5 481.5t241 366t366.5 233t464 81.5
q165 0 311.5 -35t273.5 -101l111 136h434zM855 1103q0 -87 12 -159l496 615q-66 29 -151 29q-175 0 -266 -120.5t-91 -364.5zM1060 647q66 -30 152 -30q177 0 267 121t90 365q0 87 -12 159z" />
    <glyph glyph-name="ugrave" unicode="&#xf9;" 
d="M1479 2205h793v-2205h-793v688q-118 -748 -732 -748q-335 0 -498 230.5t-163 705.5v1329h793v-1129q0 -232 71.5 -345.5t219.5 -113.5q153 0 231 116t78 351v1121zM480 2994h656l290 -639h-488z" />
    <glyph glyph-name="uacute" unicode="&#xfa;" 
d="M1479 2205h793v-2205h-793v688q-118 -748 -732 -748q-335 0 -498 230.5t-163 705.5v1329h793v-1129q0 -232 71.5 -345.5t219.5 -113.5q153 0 231 116t78 351v1121zM1878.01 2994h-655.96l-289.982 -639h487.97z" />
    <glyph glyph-name="ucircumflex" unicode="&#xfb;" 
d="M1479 2205h793v-2205h-793v688q-118 -748 -732 -748q-335 0 -498 230.5t-163 705.5v1329h793v-1129q0 -232 71.5 -345.5t219.5 -113.5q153 0 231 116t78 351v1121zM1351 2355l-171 275l-173 -275h-460l316 639h632l316 -639h-460z" />
    <glyph glyph-name="udieresis" unicode="&#xfc;" 
d="M1479 2205h793v-2205h-793v688q-118 -748 -732 -748q-335 0 -498 230.5t-163 705.5v1329h793v-1129q0 -232 71.5 -345.5t219.5 -113.5q153 0 231 116t78 351v1121zM1099 2367h-581v598h581v-598zM1840 2367h-581v598h581v-598z" />
    <glyph glyph-name="yacute" unicode="&#xfd;" horiz-adv-x="2391" 
d="M2399 2205l-769 -2190q-76 -217 -179.5 -374t-240.5 -259t-310.5 -151t-388.5 -49q-200 0 -448 45v614q85 -13 155 -19t131 -6q138 0 239 33.5t178 107.5l-775 2248h840l370 -1622l376 1622h822zM1894.01 2982h-655.96l-289.982 -639h487.97z" />
    <glyph glyph-name="thorn" unicode="&#xfe;" horiz-adv-x="2458" 
d="M889 1548q61 355 229 536t438 181q189 0 345 -84.5t268 -237.5t173.5 -367t61.5 -473t-61.5 -473t-173.5 -367.5t-268 -238t-345 -84.5q-270 0 -438 181.5t-229 536.5v-1415h-793v3717h793v-1412zM889 1103q0 -244 90.5 -366t268.5 -122q355 0 355 488q0 245 -88 366
t-267 121t-269 -122t-90 -365z" />
    <glyph glyph-name="ydieresis" unicode="&#xff;" horiz-adv-x="2391" 
d="M2399 2205l-769 -2190q-76 -217 -179.5 -374t-240.5 -259t-310.5 -151t-388.5 -49q-200 0 -448 45v614q85 -13 155 -19t131 -6q138 0 239 33.5t178 107.5l-775 2248h840l370 -1622l376 1622h822zM1116 2355h-581v598h581v-598zM1857 2355h-581v598h581v-598z" />
    <glyph glyph-name="Amacron" unicode="&#x100;" horiz-adv-x="2882" 
d="M-29 0l906 2860h1142l892 -2860h-901l-130 541h-893l-133 -541h-883zM1723 1193l-285 1183l-291 -1183h576zM2025 3087h-1168v392h1168v-392z" />
    <glyph glyph-name="amacron" unicode="&#x101;" horiz-adv-x="2398" 
d="M101 1357q0 211 77 379t221.5 285.5t351 180.5t465.5 63q261 0 464.5 -64t344 -186.5t214 -300.5t73.5 -406v-1308h-793v536q-34 -138 -105 -248t-172 -187.5t-229.5 -119t-277.5 -41.5q-157 0 -286 46t-221 129.5t-142 201t-50 261.5q0 162 65 288t189.5 213
t305.5 132.5t412 45.5h511v51q0 184 -81 282t-242 98q-158 0 -232 -86.5t-74 -244.5h-789zM1135 869q-149 0 -225 -49t-76 -145q0 -93 69.5 -144.5t194.5 -51.5q88 0 164.5 25t133.5 68.5t90 102t33 124.5v70h-384zM1800 2432h-1168v392h1168v-392z" />
    <glyph glyph-name="Abreve" unicode="&#x102;" horiz-adv-x="2882" 
d="M-29 0l906 2860h1142l892 -2860h-901l-130 541h-893l-133 -541h-883zM1723 1193l-285 1183l-291 -1183h576zM1210 3702q0 -71 16 -127t46 -95t73 -60t97 -21t97 21t72.5 60t45.5 95t16 127h336q0 -165 -34 -294t-104 -217.5t-177 -134.5t-253 -46t-253 46t-176.5 134.5
t-103.5 217.5t-34 294h336z" />
    <glyph glyph-name="abreve" unicode="&#x103;" horiz-adv-x="2398" 
d="M101 1357q0 211 77 379t221.5 285.5t351 180.5t465.5 63q261 0 464.5 -64t344 -186.5t214 -300.5t73.5 -406v-1308h-793v536q-34 -138 -105 -248t-172 -187.5t-229.5 -119t-277.5 -41.5q-157 0 -286 46t-221 129.5t-142 201t-50 261.5q0 162 65 288t189.5 213
t305.5 132.5t412 45.5h511v51q0 184 -81 282t-242 98q-158 0 -232 -86.5t-74 -244.5h-789zM1135 869q-149 0 -225 -49t-76 -145q0 -93 69.5 -144.5t194.5 -51.5q88 0 164.5 25t133.5 68.5t90 102t33 124.5v70h-384zM985 3047q0 -71 16 -127t46 -95t73 -60t97 -21t97 21
t72.5 60t45.5 95t16 127h336q0 -165 -34 -294t-104 -217.5t-177 -134.5t-253 -46t-253 46t-176.5 134.5t-103.5 217.5t-34 294h336z" />
    <glyph glyph-name="Aogonek" unicode="&#x104;" horiz-adv-x="2882" 
d="M-29 0l906 2860h1142l892 -2860h-901l-130 541h-893l-133 -541h-883zM1723 1193l-285 1183l-291 -1183h576zM2909 0q-79 0 -155.5 -18t-136 -46t-96 -62.5t-36.5 -66.5q0 -23 18.5 -40.5t52.5 -29.5t82 -18.5t108 -6.5q49 0 90 3.5t80 10.5v-417q-61 -8 -121.5 -11.5
t-115.5 -3.5q-119 0 -217.5 23.5t-169 66.5t-109.5 103.5t-39 133.5q0 89 56.5 164.5t156 131.5t236 88.5t295.5 34.5z" />
    <glyph glyph-name="aogonek" unicode="&#x105;" horiz-adv-x="2398" 
d="M101 1357q0 211 77 379t221.5 285.5t351 180.5t465.5 63q261 0 464.5 -64t344 -186.5t214 -300.5t73.5 -406v-1308h-793v536q-34 -138 -105 -248t-172 -187.5t-229.5 -119t-277.5 -41.5q-157 0 -286 46t-221 129.5t-142 201t-50 261.5q0 162 65 288t189.5 213
t305.5 132.5t412 45.5h511v51q0 184 -81 282t-242 98q-158 0 -232 -86.5t-74 -244.5h-789zM1135 869q-149 0 -225 -49t-76 -145q0 -93 69.5 -144.5t194.5 -51.5q88 0 164.5 25t133.5 68.5t90 102t33 124.5v70h-384zM2310 0q-79 0 -155.5 -18t-136 -46t-96 -62.5t-36.5 -66.5
q0 -23 18.5 -40.5t52.5 -29.5t82 -18.5t108 -6.5q49 0 90 3.5t80 10.5v-417q-61 -8 -121.5 -11.5t-115.5 -3.5q-119 0 -217.5 23.5t-169 66.5t-109.5 103.5t-39 133.5q0 89 56.5 164.5t156 131.5t236 88.5t295.5 34.5z" />
    <glyph glyph-name="Cacute" unicode="&#x106;" horiz-adv-x="2945" 
d="M928 1430q0 -400 147 -598t431 -198q224 0 353 137t170 419h836q-24 -194 -82 -362t-147 -306.5t-206 -247t-260 -182.5t-310 -113t-354 -39q-207 0 -393.5 47t-345.5 137t-287 220t-217.5 295.5t-138 364.5t-48.5 426t48.5 426t138 364.5t217.5 295.5t287 220t345.5 137
t393.5 47q187 0 354 -39t310 -113t260 -182.5t206 -247t147 -306.5t82 -362h-836q-41 282 -170 419t-353 137q-284 0 -431 -197.5t-147 -598.5zM2205.01 3649h-655.96l-289.982 -639h487.97z" />
    <glyph glyph-name="cacute" unicode="&#x107;" horiz-adv-x="2364" 
d="M855 1103q0 -242 91.5 -364t265.5 -122q68 0 119.5 19.5t89 57t62 92.5t38.5 125h789q-27 -221 -119 -400.5t-236 -306t-333 -195.5t-410 -69q-168 0 -319 37t-280 106.5t-232 171t-176 231t-112 284.5t-39 333q0 267 86.5 481.5t240.5 366t366.5 233t464.5 81.5
q221 0 410 -68.5t333 -195.5t236 -306t119 -401h-789q-14 71 -38.5 125.5t-62 92t-89 57t-119.5 19.5q-174 0 -265.5 -121.5t-91.5 -363.5zM1911.01 2995h-655.96l-289.982 -639h487.97z" />
    <glyph glyph-name="Ccircumflex" unicode="&#x108;" horiz-adv-x="2945" 
d="M928 1430q0 -400 147 -598t431 -198q224 0 353 137t170 419h836q-24 -194 -82 -362t-147 -306.5t-206 -247t-260 -182.5t-310 -113t-354 -39q-207 0 -393.5 47t-345.5 137t-287 220t-217.5 295.5t-138 364.5t-48.5 426t48.5 426t138 364.5t217.5 295.5t287 220t345.5 137
t393.5 47q187 0 354 -39t310 -113t260 -182.5t206 -247t147 -306.5t82 -362h-836q-41 282 -170 419t-353 137q-284 0 -431 -197.5t-147 -598.5zM1678 3010l-171 275l-173 -275h-460l316 639h632l316 -639h-460z" />
    <glyph glyph-name="ccircumflex" unicode="&#x109;" horiz-adv-x="2364" 
d="M855 1103q0 -242 91.5 -364t265.5 -122q68 0 119.5 19.5t89 57t62 92.5t38.5 125h789q-27 -221 -119 -400.5t-236 -306t-333 -195.5t-410 -69q-168 0 -319 37t-280 106.5t-232 171t-176 231t-112 284.5t-39 333q0 267 86.5 481.5t240.5 366t366.5 233t464.5 81.5
q221 0 410 -68.5t333 -195.5t236 -306t119 -401h-789q-14 71 -38.5 125.5t-62 92t-89 57t-119.5 19.5q-174 0 -265.5 -121.5t-91.5 -363.5zM1384 2356l-171 275l-173 -275h-460l316 639h632l316 -639h-460z" />
    <glyph glyph-name="Cdotaccent" unicode="&#x10a;" horiz-adv-x="2945" 
d="M928 1430q0 -400 147 -598t431 -198q224 0 353 137t170 419h836q-24 -194 -82 -362t-147 -306.5t-206 -247t-260 -182.5t-310 -113t-354 -39q-207 0 -393.5 47t-345.5 137t-287 220t-217.5 295.5t-138 364.5t-48.5 426t48.5 426t138 364.5t217.5 295.5t287 220t345.5 137
t393.5 47q187 0 354 -39t310 -113t260 -182.5t206 -247t147 -306.5t82 -362h-836q-41 282 -170 419t-353 137q-284 0 -431 -197.5t-147 -598.5zM1795 3022h-581v598h581v-598z" />
    <glyph glyph-name="cdotaccent" unicode="&#x10b;" horiz-adv-x="2364" 
d="M855 1103q0 -242 91.5 -364t265.5 -122q68 0 119.5 19.5t89 57t62 92.5t38.5 125h789q-27 -221 -119 -400.5t-236 -306t-333 -195.5t-410 -69q-168 0 -319 37t-280 106.5t-232 171t-176 231t-112 284.5t-39 333q0 267 86.5 481.5t240.5 366t366.5 233t464.5 81.5
q221 0 410 -68.5t333 -195.5t236 -306t119 -401h-789q-14 71 -38.5 125.5t-62 92t-89 57t-119.5 19.5q-174 0 -265.5 -121.5t-91.5 -363.5zM1501 2368h-581v598h581v-598z" />
    <glyph glyph-name="Ccaron" unicode="&#x10c;" horiz-adv-x="2945" 
d="M928 1430q0 -400 147 -598t431 -198q224 0 353 137t170 419h836q-24 -194 -82 -362t-147 -306.5t-206 -247t-260 -182.5t-310 -113t-354 -39q-207 0 -393.5 47t-345.5 137t-287 220t-217.5 295.5t-138 364.5t-48.5 426t48.5 426t138 364.5t217.5 295.5t287 220t345.5 137
t393.5 47q187 0 354 -39t310 -113t260 -182.5t206 -247t147 -306.5t82 -362h-836q-41 282 -170 419t-353 137q-284 0 -431 -197.5t-147 -598.5zM1822 3010h-632l-316 639h460l173 -275l171 275h460z" />
    <glyph glyph-name="ccaron" unicode="&#x10d;" horiz-adv-x="2364" 
d="M855 1103q0 -242 91.5 -364t265.5 -122q68 0 119.5 19.5t89 57t62 92.5t38.5 125h789q-27 -221 -119 -400.5t-236 -306t-333 -195.5t-410 -69q-168 0 -319 37t-280 106.5t-232 171t-176 231t-112 284.5t-39 333q0 267 86.5 481.5t240.5 366t366.5 233t464.5 81.5
q221 0 410 -68.5t333 -195.5t236 -306t119 -401h-789q-14 71 -38.5 125.5t-62 92t-89 57t-119.5 19.5q-174 0 -265.5 -121.5t-91.5 -363.5zM1528 2356h-632l-316 639h460l173 -275l171 275h460z" />
    <glyph glyph-name="Dcaron" unicode="&#x10e;" horiz-adv-x="2752" 
d="M106 2860h1145q211 0 398 -45t345.5 -131.5t285 -211t214.5 -283.5t135 -349.5t47 -409.5q0 -218 -47 -409t-135 -350t-214.5 -283.5t-285 -211t-346 -131.5t-397.5 -45h-1145v2860zM1222 694q296 0 449 183t153 553q0 371 -153 553.5t-449 182.5h-274v-1472h274z
M1564 3010h-632l-316 639h460l173 -275l171 275h460z" />
    <glyph glyph-name="dcaron" unicode="&#x10f;" horiz-adv-x="2458" 
d="M2362 2960v-2960h-793v658q-61 -355 -229 -536.5t-438 -181.5q-189 0 -345 84.5t-268 238t-173.5 367.5t-61.5 473t61.5 473t173.5 367t268 237.5t345 84.5q270 0 438 -181t229 -536v1412h793zM1569 1103q0 243 -90 365t-269 122q-178 0 -266.5 -121t-88.5 -366
q0 -488 355 -488q179 0 269 122t90 366zM2909 2009h-438l79 951h527z" />
    <glyph glyph-name="Dcroat" unicode="&#x110;" horiz-adv-x="2752" 
d="M106 2860h1145q211 0 398 -45t345.5 -131.5t285 -211t214.5 -283.5t135 -349.5t47 -409.5q0 -218 -47 -409t-135 -350t-214.5 -283.5t-285 -211t-346 -131.5t-397.5 -45h-1145v2860zM1222 694q296 0 449 183t153 553q0 371 -153 553.5t-449 182.5h-274v-1472h274z
M1417 1187h-1520v506h1520v-506z" />
    <glyph glyph-name="dcroat" unicode="&#x111;" horiz-adv-x="2458" 
d="M2362 2960v-2960h-793v658q-61 -355 -229 -536.5t-438 -181.5q-189 0 -345 84.5t-268 238t-173.5 367.5t-61.5 473t61.5 473t173.5 367t268 237.5t345 84.5q270 0 438 -181t229 -536v1412h793zM1569 1103q0 243 -90 365t-269 122q-178 0 -266.5 -121t-88.5 -366
q0 -488 355 -488q179 0 269 122t90 366zM2563 2303h-1466v460h1466v-460z" />
    <glyph glyph-name="Emacron" unicode="&#x112;" horiz-adv-x="2211" 
d="M2126 2860v-686h-1176v-430h1064v-630h-1064v-428h1208v-686h-2052v2860h2020zM1706 3086h-1168v392h1168v-392z" />
    <glyph glyph-name="emacron" unicode="&#x113;" horiz-adv-x="2366" 
d="M2303 763q-48 -191 -148.5 -343.5t-243.5 -259t-324 -163.5t-389 -57q-170 0 -321 38t-278 109.5t-228 174.5t-171.5 232t-108 282.5t-37.5 326.5t37 326.5t106.5 282.5t169.5 231.5t226 174t275.5 109.5t318.5 38q252 0 459.5 -83.5t355 -236.5t229 -367t81.5 -475
q0 -42 -2 -85t-7 -83h-1505q23 -194 131.5 -298.5t291.5 -104.5q132 0 221 57.5t140 173.5h721zM1580 1325q-33 185 -129 274.5t-259 89.5q-167 0 -264.5 -92t-124.5 -272h777zM1771 2432h-1168v392h1168v-392z" />
    <glyph glyph-name="Ebreve" unicode="&#x114;" horiz-adv-x="2211" 
d="M2126 2860v-686h-1176v-430h1064v-630h-1064v-428h1208v-686h-2052v2860h2020zM891 3701q0 -71 16 -127t46 -95t73 -60t97 -21t97 21t72.5 60t45.5 95t16 127h336q0 -165 -34 -294t-104 -217.5t-177 -134.5t-253 -46t-253 46t-176.5 134.5t-103.5 217.5t-34 294h336z" />
    <glyph glyph-name="ebreve" unicode="&#x115;" horiz-adv-x="2366" 
d="M2303 763q-48 -191 -148.5 -343.5t-243.5 -259t-324 -163.5t-389 -57q-170 0 -321 38t-278 109.5t-228 174.5t-171.5 232t-108 282.5t-37.5 326.5t37 326.5t106.5 282.5t169.5 231.5t226 174t275.5 109.5t318.5 38q252 0 459.5 -83.5t355 -236.5t229 -367t81.5 -475
q0 -42 -2 -85t-7 -83h-1505q23 -194 131.5 -298.5t291.5 -104.5q132 0 221 57.5t140 173.5h721zM1580 1325q-33 185 -129 274.5t-259 89.5q-167 0 -264.5 -92t-124.5 -272h777zM956 3047q0 -71 16 -127t46 -95t73 -60t97 -21t97 21t72.5 60t45.5 95t16 127h336
q0 -165 -34 -294t-104 -217.5t-177 -134.5t-253 -46t-253 46t-176.5 134.5t-103.5 217.5t-34 294h336z" />
    <glyph glyph-name="Edotaccent" unicode="&#x116;" horiz-adv-x="2211" 
d="M2126 2860v-686h-1176v-430h1064v-630h-1064v-428h1208v-686h-2052v2860h2020zM1412 3021h-581v598h581v-598z" />
    <glyph glyph-name="edotaccent" unicode="&#x117;" horiz-adv-x="2366" 
d="M2303 763q-48 -191 -148.5 -343.5t-243.5 -259t-324 -163.5t-389 -57q-170 0 -321 38t-278 109.5t-228 174.5t-171.5 232t-108 282.5t-37.5 326.5t37 326.5t106.5 282.5t169.5 231.5t226 174t275.5 109.5t318.5 38q252 0 459.5 -83.5t355 -236.5t229 -367t81.5 -475
q0 -42 -2 -85t-7 -83h-1505q23 -194 131.5 -298.5t291.5 -104.5q132 0 221 57.5t140 173.5h721zM1580 1325q-33 185 -129 274.5t-259 89.5q-167 0 -264.5 -92t-124.5 -272h777zM1476 2367h-581v598h581v-598z" />
    <glyph glyph-name="Eogonek" unicode="&#x118;" horiz-adv-x="2211" 
d="M2126 2860v-686h-1176v-430h1064v-630h-1064v-428h1208v-686h-2052v2860h2020zM2156 0q-79 0 -155.5 -18t-136 -46t-96 -62.5t-36.5 -66.5q0 -23 18.5 -40.5t52.5 -29.5t82 -18.5t108 -6.5q49 0 90 3.5t80 10.5v-417q-61 -8 -121.5 -11.5t-115.5 -3.5q-119 0 -217.5 23.5
t-169 66.5t-109.5 103.5t-39 133.5q0 89 56.5 164.5t156 131.5t236 88.5t295.5 34.5z" />
    <glyph glyph-name="eogonek" unicode="&#x119;" horiz-adv-x="2366" 
d="M2303 763q-48 -191 -148.5 -343.5t-243.5 -259t-324 -163.5t-389 -57q-170 0 -321 38t-278 109.5t-228 174.5t-171.5 232t-108 282.5t-37.5 326.5t37 326.5t106.5 282.5t169.5 231.5t226 174t275.5 109.5t318.5 38q252 0 459.5 -83.5t355 -236.5t229 -367t81.5 -475
q0 -42 -2 -85t-7 -83h-1505q23 -194 131.5 -298.5t291.5 -104.5q132 0 221 57.5t140 173.5h721zM1580 1325q-33 185 -129 274.5t-259 89.5q-167 0 -264.5 -92t-124.5 -272h777zM1905 177q-54 -38 -104.5 -83.5t-89 -94t-61.5 -95.5t-23 -88q0 -64 62 -101t204 -37q42 0 83 3
t88 11v-417q-62 -8 -121.5 -11.5t-107.5 -3.5q-126 0 -228.5 27t-174.5 75t-111.5 114t-39.5 144q0 60 23.5 116.5t64.5 109.5t97 103t122 96.5t139 90.5t147 85z" />
    <glyph glyph-name="Ecaron" unicode="&#x11a;" horiz-adv-x="2211" 
d="M2126 2860v-686h-1176v-430h1064v-630h-1064v-428h1208v-686h-2052v2860h2020zM1439 3009h-632l-316 639h460l173 -275l171 275h460z" />
    <glyph glyph-name="ecaron" unicode="&#x11b;" horiz-adv-x="2366" 
d="M2303 763q-48 -191 -148.5 -343.5t-243.5 -259t-324 -163.5t-389 -57q-170 0 -321 38t-278 109.5t-228 174.5t-171.5 232t-108 282.5t-37.5 326.5t37 326.5t106.5 282.5t169.5 231.5t226 174t275.5 109.5t318.5 38q252 0 459.5 -83.5t355 -236.5t229 -367t81.5 -475
q0 -42 -2 -85t-7 -83h-1505q23 -194 131.5 -298.5t291.5 -104.5q132 0 221 57.5t140 173.5h721zM1580 1325q-33 185 -129 274.5t-259 89.5q-167 0 -264.5 -92t-124.5 -272h777zM1503 2355h-632l-316 639h460l173 -275l171 275h460z" />
    <glyph glyph-name="Gcircumflex" unicode="&#x11c;" horiz-adv-x="3003" 
d="M928 1430q0 -408 148.5 -610.5t438.5 -202.5q119 0 221 28.5t178 84t123 137t57 187.5h-603v476h1406v-1530h-784v620q-61 -160 -152.5 -286t-208.5 -213.5t-257 -134t-299 -46.5q-160 0 -305 47.5t-269.5 137.5t-225.5 220.5t-172 296t-109.5 364t-38.5 424.5
q0 227 48.5 426t138 364.5t217.5 295.5t287 220t345.5 137t393.5 47q173 0 334 -35t303.5 -102t264 -165t216.5 -223.5t159.5 -277.5t93.5 -327h-836q-26 112 -75.5 194t-118.5 136t-155 80t-186 26q-284 0 -431 -197.5t-147 -598.5zM1678 3010l-171 275l-173 -275h-460
l316 639h632l316 -639h-460z" />
    <glyph glyph-name="gcircumflex" unicode="&#x11d;" horiz-adv-x="2458" 
d="M2362 2205v-2014q0 -237 -74.5 -424.5t-215.5 -317.5t-345 -198.5t-463 -68.5q-253 0 -457.5 63.5t-348.5 180.5t-222 283.5t-78 372.5h789q0 -157 78 -238t222 -81q160 0 241 106t81 316v636q-61 -329 -229 -495t-440 -166q-188 0 -344 77.5t-267.5 218.5t-173 338
t-61.5 435t61.5 429.5t173 326.5t267.5 207.5t344 72.5q271 0 439.5 -155.5t229.5 -475.5v571h793zM1569 1229q0 97 -23 165.5t-68 112t-112.5 63.5t-157.5 20q-88 0 -154.5 -19.5t-110.5 -62.5t-66 -111.5t-22 -167.5q0 -394 353 -394q180 0 270.5 99.5t90.5 294.5z
M1398 2355l-171 275l-173 -275h-460l316 639h632l316 -639h-460z" />
    <glyph glyph-name="Gbreve" unicode="&#x11e;" horiz-adv-x="3003" 
d="M928 1430q0 -408 148.5 -610.5t438.5 -202.5q119 0 221 28.5t178 84t123 137t57 187.5h-603v476h1406v-1530h-784v620q-61 -160 -152.5 -286t-208.5 -213.5t-257 -134t-299 -46.5q-160 0 -305 47.5t-269.5 137.5t-225.5 220.5t-172 296t-109.5 364t-38.5 424.5
q0 227 48.5 426t138 364.5t217.5 295.5t287 220t345.5 137t393.5 47q173 0 334 -35t303.5 -102t264 -165t216.5 -223.5t159.5 -277.5t93.5 -327h-836q-26 112 -75.5 194t-118.5 136t-155 80t-186 26q-284 0 -431 -197.5t-147 -598.5zM1275 3702q0 -71 16 -127t46 -95t73 -60
t97 -21t97 21t72.5 60t45.5 95t16 127h336q0 -165 -34 -294t-104 -217.5t-177 -134.5t-253 -46t-253 46t-176.5 134.5t-103.5 217.5t-34 294h336z" />
    <glyph glyph-name="gbreve" unicode="&#x11f;" horiz-adv-x="2458" 
d="M2362 2205v-2014q0 -237 -74.5 -424.5t-215.5 -317.5t-345 -198.5t-463 -68.5q-253 0 -457.5 63.5t-348.5 180.5t-222 283.5t-78 372.5h789q0 -157 78 -238t222 -81q160 0 241 106t81 316v636q-61 -329 -229 -495t-440 -166q-188 0 -344 77.5t-267.5 218.5t-173 338
t-61.5 435t61.5 429.5t173 326.5t267.5 207.5t344 72.5q271 0 439.5 -155.5t229.5 -475.5v571h793zM1569 1229q0 97 -23 165.5t-68 112t-112.5 63.5t-157.5 20q-88 0 -154.5 -19.5t-110.5 -62.5t-66 -111.5t-22 -167.5q0 -394 353 -394q180 0 270.5 99.5t90.5 294.5z
M995 3047q0 -71 16 -127t46 -95t73 -60t97 -21t97 21t72.5 60t45.5 95t16 127h336q0 -165 -34 -294t-104 -217.5t-177 -134.5t-253 -46t-253 46t-176.5 134.5t-103.5 217.5t-34 294h336z" />
    <glyph glyph-name="Gdotaccent" unicode="&#x120;" horiz-adv-x="3003" 
d="M928 1430q0 -408 148.5 -610.5t438.5 -202.5q119 0 221 28.5t178 84t123 137t57 187.5h-603v476h1406v-1530h-784v620q-61 -160 -152.5 -286t-208.5 -213.5t-257 -134t-299 -46.5q-160 0 -305 47.5t-269.5 137.5t-225.5 220.5t-172 296t-109.5 364t-38.5 424.5
q0 227 48.5 426t138 364.5t217.5 295.5t287 220t345.5 137t393.5 47q173 0 334 -35t303.5 -102t264 -165t216.5 -223.5t159.5 -277.5t93.5 -327h-836q-26 112 -75.5 194t-118.5 136t-155 80t-186 26q-284 0 -431 -197.5t-147 -598.5zM1795 3022h-581v598h581v-598z" />
    <glyph glyph-name="gdotaccent" unicode="&#x121;" horiz-adv-x="2458" 
d="M2362 2205v-2014q0 -237 -74.5 -424.5t-215.5 -317.5t-345 -198.5t-463 -68.5q-253 0 -457.5 63.5t-348.5 180.5t-222 283.5t-78 372.5h789q0 -157 78 -238t222 -81q160 0 241 106t81 316v636q-61 -329 -229 -495t-440 -166q-188 0 -344 77.5t-267.5 218.5t-173 338
t-61.5 435t61.5 429.5t173 326.5t267.5 207.5t344 72.5q271 0 439.5 -155.5t229.5 -475.5v571h793zM1569 1229q0 97 -23 165.5t-68 112t-112.5 63.5t-157.5 20q-88 0 -154.5 -19.5t-110.5 -62.5t-66 -111.5t-22 -167.5q0 -394 353 -394q180 0 270.5 99.5t90.5 294.5z
M1515 2367h-581v598h581v-598z" />
    <glyph glyph-name="uni0122" unicode="&#x122;" horiz-adv-x="3003" 
d="M928 1430q0 -408 148.5 -610.5t438.5 -202.5q119 0 221 28.5t178 84t123 137t57 187.5h-603v476h1406v-1530h-784v620q-61 -160 -152.5 -286t-208.5 -213.5t-257 -134t-299 -46.5q-160 0 -305 47.5t-269.5 137.5t-225.5 220.5t-172 296t-109.5 364t-38.5 424.5
q0 227 48.5 426t138 364.5t217.5 295.5t287 220t345.5 137t393.5 47q173 0 334 -35t303.5 -102t264 -165t216.5 -223.5t159.5 -277.5t93.5 -327h-836q-26 112 -75.5 194t-118.5 136t-155 80t-186 26q-284 0 -431 -197.5t-147 -598.5zM1551 -788h-498l110 638h638z" />
    <glyph glyph-name="uni0123" unicode="&#x123;" horiz-adv-x="2458" 
d="M2362 2205v-2014q0 -237 -74.5 -424.5t-215.5 -317.5t-345 -198.5t-463 -68.5q-253 0 -457.5 63.5t-348.5 180.5t-222 283.5t-78 372.5h789q0 -157 78 -238t222 -81q160 0 241 106t81 316v636q-61 -329 -229 -495t-440 -166q-188 0 -344 77.5t-267.5 218.5t-173 338
t-61.5 435t61.5 429.5t173 326.5t267.5 207.5t344 72.5q271 0 439.5 -155.5t229.5 -475.5v571h793zM1569 1229q0 97 -23 165.5t-68 112t-112.5 63.5t-157.5 20q-88 0 -154.5 -19.5t-110.5 -62.5t-66 -111.5t-22 -167.5q0 -394 353 -394q180 0 270.5 99.5t90.5 294.5z
M1160 3074h498l-110 -638h-638z" />
    <glyph glyph-name="Hcircumflex" unicode="&#x124;" horiz-adv-x="2752" 
d="M2646 0h-844v1080h-852v-1080h-844v2860h844v-1086h852v1086h844v-2860zM1548 3010l-171 275l-173 -275h-460l316 639h632l316 -639h-460z" />
    <glyph glyph-name="hcircumflex" unicode="&#x125;" 
d="M889 0h-793v2960h793v-1443q118 748 732 748q168 0 292.5 -57t206 -173t122 -292t40.5 -414v-1329h-793v1129q0 233 -71.5 346t-219.5 113q-153 0 -231 -116t-78 -351v-1121zM664 3110l-171 275l-173 -275h-460l316 639h632l316 -639h-460z" />
    <glyph glyph-name="Hbar" unicode="&#x126;" horiz-adv-x="2752" 
d="M2646 0h-844v1080h-852v-1080h-844v2860h844v-1086h852v1086h844v-2860zM2854 2081h-2956v434h2956v-434z" />
    <glyph glyph-name="hbar" unicode="&#x127;" 
d="M889 0h-793v2960h793v-1443q118 748 732 748q168 0 292.5 -57t206 -173t122 -292t40.5 -414v-1329h-793v1129q0 233 -71.5 346t-219.5 113q-153 0 -231 -116t-78 -351v-1121zM1364 2303h-1466v460h1466v-460z" />
    <glyph glyph-name="Itilde" unicode="&#x128;" horiz-adv-x="1056" 
d="M950 0h-844v2860h844v-2860zM1168 3634q0 -167 -19 -285.5t-60 -194t-105 -110.5t-155 -35q-49 0 -92 9t-79 22t-64.5 27.5t-48.5 25.5l-66 35q-16 9 -36.5 19.5t-44 19.5t-49 15t-51.5 6q-52 0 -81 -33t-29 -120v-6h-254v11q0 322 85 474.5t264 152.5q45 0 83.5 -8
t70.5 -20t57.5 -25.5t43.5 -24.5l63 -35q17 -10 39.5 -21.5t49 -22t56.5 -17.5t63 -7q50 0 81 33t31 115v13h247v-13z" />
    <glyph glyph-name="itilde" unicode="&#x129;" horiz-adv-x="1011" 
d="M902 0h-793v2205h793v-2205zM1146 2979q0 -167 -19 -285.5t-60 -194t-105 -110.5t-155 -35q-49 0 -92 9t-79 22t-64.5 27.5t-48.5 25.5l-66 35q-16 9 -36.5 19.5t-44 19.5t-49 15t-51.5 6q-52 0 -81 -33t-29 -120v-6h-254v11q0 322 85 474.5t264 152.5q45 0 83.5 -8
t70.5 -20t57.5 -25.5t43.5 -24.5l63 -35q17 -10 39.5 -21.5t49 -22t56.5 -17.5t63 -7q50 0 81 33t31 115v13h247v-13z" />
    <glyph glyph-name="Imacron" unicode="&#x12a;" horiz-adv-x="1056" 
d="M950 0h-844v2860h844v-2860zM1112 3087h-1168v392h1168v-392z" />
    <glyph glyph-name="imacron" unicode="&#x12b;" horiz-adv-x="1011" 
d="M902 0h-793v2205h793v-2205zM1089 2432h-1168v392h1168v-392z" />
    <glyph glyph-name="Ibreve" unicode="&#x12c;" horiz-adv-x="1056" 
d="M950 0h-844v2860h844v-2860zM297 3702q0 -71 16 -127t46 -95t73 -60t97 -21t97 21t72.5 60t45.5 95t16 127h336q0 -165 -34 -294t-104 -217.5t-177 -134.5t-253 -46t-253 46t-176.5 134.5t-103.5 217.5t-34 294h336z" />
    <glyph glyph-name="ibreve" unicode="&#x12d;" horiz-adv-x="1011" 
d="M902 0h-793v2205h793v-2205zM274 3047q0 -71 16 -127t46 -95t73 -60t97 -21t97 21t72.5 60t45.5 95t16 127h336q0 -165 -34 -294t-104 -217.5t-177 -134.5t-253 -46t-253 46t-176.5 134.5t-103.5 217.5t-34 294h336z" />
    <glyph glyph-name="Iogonek" unicode="&#x12e;" horiz-adv-x="1056" 
d="M950 0h-844v2860h844v-2860zM948 0q-79 0 -155.5 -18t-136 -46t-96 -62.5t-36.5 -66.5q0 -23 18.5 -40.5t52.5 -29.5t82 -18.5t108 -6.5q49 0 90 3.5t80 10.5v-417q-61 -8 -121.5 -11.5t-115.5 -3.5q-119 0 -217.5 23.5t-169 66.5t-109.5 103.5t-39 133.5
q0 89 56.5 164.5t156 131.5t236 88.5t295.5 34.5z" />
    <glyph glyph-name="iogonek" unicode="&#x12f;" horiz-adv-x="985" 
d="M891 2412h-797v548h797v-548zM889 0h-793v2205h793v-2205zM887 0q-79 0 -155.5 -18t-136 -46t-96 -62.5t-36.5 -66.5q0 -23 18.5 -40.5t52.5 -29.5t82 -18.5t108 -6.5q49 0 90 3.5t80 10.5v-417q-61 -8 -121.5 -11.5t-115.5 -3.5q-119 0 -217.5 23.5t-169 66.5
t-109.5 103.5t-39 133.5q0 89 56.5 164.5t156 131.5t236 88.5t295.5 34.5z" />
    <glyph glyph-name="Idotaccent" unicode="&#x130;" horiz-adv-x="1056" 
d="M950 0h-844v2860h844v-2860zM817 3022h-581v598h581v-598z" />
    <glyph glyph-name="dotlessi" unicode="&#x131;" horiz-adv-x="1011" 
d="M902 0h-793v2205h793v-2205z" />
    <glyph glyph-name="IJ" unicode="&#x132;" horiz-adv-x="3595" 
d="M950 0h-844v2860h844v-2860zM1109 1322h844v-298q0 -84 22 -155t66 -123.5t110 -82t154 -29.5t152 30t106 82.5t62 124t20 155.5v1834h844v-1850q0 -169 -40.5 -314.5t-115.5 -264.5t-182 -210.5t-239 -154t-287 -94.5t-326 -32t-326 32t-287 94.5t-239 154t-182 210.5
t-115.5 264.5t-40.5 314.5v312z" />
    <glyph glyph-name="ij" unicode="&#x133;" horiz-adv-x="1970" 
d="M891 2412h-797v548h797v-548zM889 0h-793v2205h793v-2205zM1876 2412h-797v548h797v-548zM1874 222q0 -192 -22.5 -343.5t-71 -267t-125.5 -197t-186 -133t-252.5 -75.5t-324.5 -24h-94v625h64q71 0 114.5 19.5t66.5 56.5t30.5 89.5t7.5 117.5v2115h793v-1983z" />
    <glyph glyph-name="Jcircumflex" unicode="&#x134;" horiz-adv-x="2539" 
d="M53 1322h844v-298q0 -84 22 -155t66 -123.5t110 -82t154 -29.5t152 30t106 82.5t62 124t20 155.5v1834h844v-1850q0 -169 -40.5 -314.5t-115.5 -264.5t-182 -210.5t-239 -154t-287 -94.5t-326 -32t-326 32t-287 94.5t-239 154t-182 210.5t-115.5 264.5t-40.5 314.5v312z
M2186 3010l-171 275l-173 -275h-460l316 639h632l316 -639h-460z" />
    <glyph glyph-name="jcircumflex" unicode="&#x135;" horiz-adv-x="985" 
d="M891 222q0 -192 -22.5 -343.5t-71 -267t-125.5 -197t-186.5 -133t-253 -75.5t-325.5 -24h-94v625h64q72 0 115.5 19.5t67 56.5t31 89.5t7.5 117.5v2115h793v-1983zM668 2355l-171 275l-173 -275h-460l316 639h632l316 -639h-460z" />
    <glyph glyph-name="uni0136" unicode="&#x136;" horiz-adv-x="2725" 
d="M1611 1438l1143 -1438h-1032l-772 1022v-1022h-844v2860h844v-1144l760 1144h966zM1364 -788h-498l110 638h638z" />
    <glyph glyph-name="uni0137" unicode="&#x137;" horiz-adv-x="2433" 
d="M1544 1108l888 -1108h-948l-595 784v-784h-793v2960h793v-1633l585 878h894zM1215 -788h-498l110 638h638z" />
    <glyph glyph-name="kgreenlandic" unicode="&#x138;" horiz-adv-x="2433" 
d="M1544 1108l888 -1108h-949l-594 784v-784h-793v2205h793v-878l585 878h894z" />
    <glyph glyph-name="Lacute" unicode="&#x139;" horiz-adv-x="2119" 
d="M950 2860v-2174h1128v-686h-1972v2860h844zM1226.01 3649h-655.96l-289.982 -639h487.97z" />
    <glyph glyph-name="lacute" unicode="&#x13a;" horiz-adv-x="985" 
d="M889 0h-793v2960h793v-2960zM1192.01 3749h-655.96l-289.982 -639h487.97z" />
    <glyph glyph-name="uni013B" unicode="&#x13b;" horiz-adv-x="2119" 
d="M950 2860v-2174h1128v-686h-1972v2860h844zM1161 -788h-498l110 638h638z" />
    <glyph glyph-name="uni013C" unicode="&#x13c;" horiz-adv-x="985" 
d="M889 0h-793v2960h793v-2960zM558 -788h-498l110 638h638z" />
    <glyph glyph-name="Lcaron" unicode="&#x13d;" horiz-adv-x="2119" 
d="M950 2860v-2174h1128v-686h-1972v2860h844zM1976 1909h-438l79 951h527z" />
    <glyph glyph-name="lcaron" unicode="&#x13e;" horiz-adv-x="985" 
d="M889 0h-793v2960h793v-2960zM1440 2009h-438l79 951h527z" />
    <glyph glyph-name="Ldot" unicode="&#x13f;" horiz-adv-x="2119" 
d="M950 2860v-2174h1128v-686h-1972v2860h844zM2051 1438h-581v598h581v-598z" />
    <glyph glyph-name="ldot" unicode="&#x140;" horiz-adv-x="985" 
d="M889 0h-793v2960h793v-2960zM1644 939h-581v598h581v-598z" />
    <glyph glyph-name="Lslash" unicode="&#x141;" horiz-adv-x="2119" 
d="M950 2860v-2174h1128v-686h-1972v2860h844zM1418 1503l-1549 -699v476l1549 700v-477z" />
    <glyph glyph-name="lslash" unicode="&#x142;" horiz-adv-x="985" 
d="M889 0h-793v2960h793v-2960zM1120 1374l-1232 -556v465l1232 556v-465z" />
    <glyph glyph-name="Nacute" unicode="&#x143;" horiz-adv-x="2911" 
d="M2805 0h-1111l-786 1997v-1997h-802v2860h1171l726 -1833v1833h802v-2860zM2154.01 3637h-655.96l-289.982 -639h487.97z" />
    <glyph glyph-name="nacute" unicode="&#x144;" 
d="M889 0h-793v2205h793v-688q118 748 732 748q168 0 292.5 -57t206 -173t122 -292t40.5 -414v-1329h-793v1129q0 233 -71.5 346t-219.5 113q-153 0 -231 -116t-78 -351v-1121zM1888.01 2994h-655.96l-289.982 -639h487.97z" />
    <glyph glyph-name="uni0145" unicode="&#x145;" horiz-adv-x="2911" 
d="M2805 0h-1111l-786 1997v-1997h-802v2860h1171l726 -1833v1833h802v-2860zM1355 -788h-498l110 638h638z" />
    <glyph glyph-name="uni0146" unicode="&#x146;" 
d="M889 0h-793v2205h793v-688q118 748 732 748q168 0 292.5 -57t206 -173t122 -292t40.5 -414v-1329h-793v1129q0 233 -71.5 346t-219.5 113q-153 0 -231 -116t-78 -351v-1121zM1230 -788h-498l110 638h638z" />
    <glyph glyph-name="Ncaron" unicode="&#x147;" horiz-adv-x="2911" 
d="M2805 0h-1111l-786 1997v-1997h-802v2860h1171l726 -1833v1833h802v-2860zM1772 2998h-632l-316 639h460l173 -275l171 275h460z" />
    <glyph glyph-name="ncaron" unicode="&#x148;" 
d="M889 0h-793v2205h793v-688q118 748 732 748q168 0 292.5 -57t206 -173t122 -292t40.5 -414v-1329h-793v1129q0 233 -71.5 346t-219.5 113q-153 0 -231 -116t-78 -351v-1121zM1505 2355h-632l-316 639h460l173 -275l171 275h460z" />
    <glyph glyph-name="napostrophe" unicode="&#x149;" horiz-adv-x="3059" 
d="M106 2860h2847v-2860h-2847v2860zM1529 1710l661 725h-1320zM585 675l689 755l-689 756v-1511zM2474 673v1512l-689 -755zM868 425h1320l-659 724z" />
    <glyph glyph-name="Eng" unicode="&#x14a;" horiz-adv-x="3059" 
d="M106 2860h2847v-2860h-2847v2860zM1529 1710l661 725h-1320zM585 675l689 755l-689 756v-1511zM2474 673v1512l-689 -755zM868 425h1320l-659 724z" />
    <glyph glyph-name="eng" unicode="&#x14b;" horiz-adv-x="3059" 
d="M106 2860h2847v-2860h-2847v2860zM1529 1710l661 725h-1320zM585 675l689 755l-689 756v-1511zM2474 673v1512l-689 -755zM868 425h1320l-659 724z" />
    <glyph glyph-name="Omacron" unicode="&#x14c;" horiz-adv-x="3012" 
d="M76 1430q0 227 48.5 426t138.5 364.5t217.5 295.5t286.5 220t345.5 137t393.5 47t393.5 -47t345.5 -137t287 -220t218 -295.5t138.5 -364.5t48.5 -426t-48.5 -426t-138.5 -364.5t-218 -295.5t-287 -220t-345.5 -137t-393.5 -47t-393.5 47t-345.5 137t-286.5 220
t-217.5 295.5t-138.5 364.5t-48.5 426zM928 1430q0 -400 147 -598t431 -198t431.5 198t147.5 598q0 401 -147.5 598.5t-431.5 197.5t-431 -197.5t-147 -598.5zM2090 3087h-1168v392h1168v-392z" />
    <glyph glyph-name="omacron" unicode="&#x14d;" horiz-adv-x="2424" 
d="M54 1103q0 267 86.5 481.5t241 366t366.5 233t464 81.5t464.5 -81.5t366.5 -233t240.5 -366t86.5 -481.5q0 -178 -39 -333t-112 -284.5t-176 -231t-232 -171t-280 -106.5t-319 -37t-319 37t-279.5 106.5t-232 171t-176.5 231t-112 284.5t-39 333zM855 1103
q0 -244 91 -365t266 -121q177 0 267 121t90 365t-90 364.5t-267 120.5q-175 0 -266 -120.5t-91 -364.5zM1796 2432h-1168v392h1168v-392z" />
    <glyph glyph-name="Obreve" unicode="&#x14e;" horiz-adv-x="3012" 
d="M76 1430q0 227 48.5 426t138.5 364.5t217.5 295.5t286.5 220t345.5 137t393.5 47t393.5 -47t345.5 -137t287 -220t218 -295.5t138.5 -364.5t48.5 -426t-48.5 -426t-138.5 -364.5t-218 -295.5t-287 -220t-345.5 -137t-393.5 -47t-393.5 47t-345.5 137t-286.5 220
t-217.5 295.5t-138.5 364.5t-48.5 426zM928 1430q0 -400 147 -598t431 -198t431.5 198t147.5 598q0 401 -147.5 598.5t-431.5 197.5t-431 -197.5t-147 -598.5zM1275 3702q0 -71 16 -127t46 -95t73 -60t97 -21t97 21t72.5 60t45.5 95t16 127h336q0 -165 -34 -294t-104 -217.5
t-177 -134.5t-253 -46t-253 46t-176.5 134.5t-103.5 217.5t-34 294h336z" />
    <glyph glyph-name="obreve" unicode="&#x14f;" horiz-adv-x="2424" 
d="M54 1103q0 267 86.5 481.5t241 366t366.5 233t464 81.5t464.5 -81.5t366.5 -233t240.5 -366t86.5 -481.5q0 -178 -39 -333t-112 -284.5t-176 -231t-232 -171t-280 -106.5t-319 -37t-319 37t-279.5 106.5t-232 171t-176.5 231t-112 284.5t-39 333zM855 1103
q0 -244 91 -365t266 -121q177 0 267 121t90 365t-90 364.5t-267 120.5q-175 0 -266 -120.5t-91 -364.5zM981 3047q0 -71 16 -127t46 -95t73 -60t97 -21t97 21t72.5 60t45.5 95t16 127h336q0 -165 -34 -294t-104 -217.5t-177 -134.5t-253 -46t-253 46t-176.5 134.5
t-103.5 217.5t-34 294h336z" />
    <glyph glyph-name="Ohungarumlaut" unicode="&#x150;" horiz-adv-x="3012" 
d="M76 1430q0 227 48.5 426t138.5 364.5t217.5 295.5t286.5 220t345.5 137t393.5 47t393.5 -47t345.5 -137t287 -220t218 -295.5t138.5 -364.5t48.5 -426t-48.5 -426t-138.5 -364.5t-218 -295.5t-287 -220t-345.5 -137t-393.5 -47t-393.5 47t-345.5 137t-286.5 220
t-217.5 295.5t-138.5 364.5t-48.5 426zM928 1430q0 -400 147 -598t431 -198t431.5 198t147.5 598q0 401 -147.5 598.5t-431.5 197.5t-431 -197.5t-147 -598.5zM880 3010l214 639h586l-324 -639h-476zM1578 3010l214 639h586l-324 -639h-476z" />
    <glyph glyph-name="ohungarumlaut" unicode="&#x151;" horiz-adv-x="2424" 
d="M54 1103q0 267 86.5 481.5t241 366t366.5 233t464 81.5t464.5 -81.5t366.5 -233t240.5 -366t86.5 -481.5q0 -178 -39 -333t-112 -284.5t-176 -231t-232 -171t-280 -106.5t-319 -37t-319 37t-279.5 106.5t-232 171t-176.5 231t-112 284.5t-39 333zM855 1103
q0 -244 91 -365t266 -121q177 0 267 121t90 365t-90 364.5t-267 120.5q-175 0 -266 -120.5t-91 -364.5zM587 2355l214 639h586l-324 -639h-476zM1285 2355l214 639h586l-324 -639h-476z" />
    <glyph glyph-name="OE" unicode="&#x152;" horiz-adv-x="3821" 
d="M3736 2174h-1176v-430h1064v-630h-1064v-428h1208v-686h-2262q-207 0 -393.5 45.5t-345.5 131.5t-287 210.5t-217.5 283.5t-138 350t-48.5 409t48.5 409t138 350t217.5 283.5t287 210.5t345.5 131.5t393.5 45.5h2230v-686zM928 1430q0 -370 147 -553t431 -183h210v1472
h-210q-284 0 -431 -182.5t-147 -553.5z" />
    <glyph glyph-name="oe" unicode="&#x153;" horiz-adv-x="3944" 
d="M54 1103q0 267 86.5 481.5t241 366t366.5 233t464 81.5q237 0 436 -72.5t348 -208.5q146 135 339.5 208t428.5 73q168 0 317 -37.5t274 -109t224.5 -173.5t168.5 -231.5t105.5 -283t36.5 -327.5q0 -42 -2.5 -85t-7.5 -83h-1504q22 -194 131 -298.5t292 -104.5
q132 0 221 57.5t140 173.5h721q-48 -191 -148.5 -343.5t-243.5 -259t-324 -163.5t-389 -57q-238 0 -434.5 73.5t-342.5 210.5q-151 -137 -350 -210.5t-437 -73.5q-168 0 -319 37t-279.5 106.5t-232 171t-176.5 231t-112 284.5t-39 333zM3158 1325q-33 185 -129.5 274.5
t-259.5 89.5q-166 0 -264 -92t-125 -272h778zM855 1103q0 -242 91.5 -364t265.5 -122q177 0 267 121t90 365t-90 364.5t-267 120.5q-175 0 -266 -120.5t-91 -364.5z" />
    <glyph glyph-name="Racute" unicode="&#x154;" horiz-adv-x="2773" 
d="M106 0v2862h1445q268 0 473.5 -60t344.5 -174t210 -279t71 -375q0 -181 -55.5 -328.5t-159 -253.5t-250 -166t-328.5 -66q360 -24 552 -451l318 -709h-941l-325 707q-41 89 -72.5 144.5t-63.5 86.5t-69.5 42.5t-90.5 11.5h-215v-992h-844zM1460 1622q168 0 256.5 76
t88.5 219q0 142 -88.5 216.5t-256.5 74.5h-510v-586h510zM1836.01 3649h-655.96l-289.982 -639h487.97z" />
    <glyph glyph-name="racute" unicode="&#x155;" horiz-adv-x="1713" 
d="M889 0h-793v2205h793v-828q21 189 64.5 342t117.5 261t181.5 166.5t256.5 58.5h163v-741h-363q-126 0 -207.5 -31.5t-129 -97.5t-65.5 -168.5t-18 -244.5v-922zM1532.01 2994h-655.96l-289.982 -639h487.97z" />
    <glyph glyph-name="uni0156" unicode="&#x156;" horiz-adv-x="2773" 
d="M106 0v2862h1445q268 0 473.5 -60t344.5 -174t210 -279t71 -375q0 -181 -55.5 -328.5t-159 -253.5t-250 -166t-328.5 -66q360 -24 552 -451l318 -709h-941l-325 707q-41 89 -72.5 144.5t-63.5 86.5t-69.5 42.5t-90.5 11.5h-215v-992h-844zM1460 1622q168 0 256.5 76
t88.5 219q0 142 -88.5 216.5t-256.5 74.5h-510v-586h510zM1387 -788h-498l110 638h638z" />
    <glyph glyph-name="uni0157" unicode="&#x157;" horiz-adv-x="1713" 
d="M889 0h-793v2205h793v-828q21 189 64.5 342t117.5 261t181.5 166.5t256.5 58.5h163v-741h-363q-126 0 -207.5 -31.5t-129 -97.5t-65.5 -168.5t-18 -244.5v-922zM558 -788h-498l110 638h638z" />
    <glyph glyph-name="Rcaron" unicode="&#x158;" horiz-adv-x="2773" 
d="M106 0v2862h1445q268 0 473.5 -60t344.5 -174t210 -279t71 -375q0 -181 -55.5 -328.5t-159 -253.5t-250 -166t-328.5 -66q360 -24 552 -451l318 -709h-941l-325 707q-41 89 -72.5 144.5t-63.5 86.5t-69.5 42.5t-90.5 11.5h-215v-992h-844zM1460 1622q168 0 256.5 76
t88.5 219q0 142 -88.5 216.5t-256.5 74.5h-510v-586h510zM1453 3010h-632l-316 639h460l173 -275l171 275h460z" />
    <glyph glyph-name="rcaron" unicode="&#x159;" horiz-adv-x="1713" 
d="M889 0h-793v2205h793v-828q21 189 64.5 342t117.5 261t181.5 166.5t256.5 58.5h163v-741h-363q-126 0 -207.5 -31.5t-129 -97.5t-65.5 -168.5t-18 -244.5v-922zM1150 2355h-632l-316 639h460l173 -275l171 275h460z" />
    <glyph glyph-name="Sacute" unicode="&#x15a;" horiz-adv-x="2749" 
d="M1363 2920q295 0 528 -68.5t395 -197.5t247.5 -315t85.5 -421h-802q0 82 -32.5 147.5t-93.5 111t-147 70t-194 24.5q-88 0 -165.5 -16.5t-134.5 -48t-90 -76.5t-33 -102q0 -64 31.5 -103t98 -64.5t170 -43.5t247.5 -39l85 -12q89 -13 185 -28t193.5 -37.5t192.5 -54
t180.5 -77.5t158 -107.5t125.5 -144t83 -187.5t30 -238q0 -228 -90.5 -405t-261.5 -298.5t-417.5 -185t-557.5 -63.5q-330 0 -580 70.5t-418.5 203t-254 323.5t-85.5 431h802q0 -90 36.5 -160t105.5 -119t168 -74.5t224 -25.5q106 0 195.5 18.5t154.5 53t101.5 84.5
t36.5 113q0 68 -32.5 109.5t-99.5 67.5t-170.5 42.5t-244.5 34.5l-117 16q-85 11 -178 24.5t-187.5 34t-187 49.5t-176 72.5t-155 102.5t-123.5 138.5t-81.5 182t-29.5 232.5q0 154 43 285t122.5 237t193.5 187t256 136t309.5 83t354.5 28zM2040.01 3649h-655.96
l-289.982 -639h487.97z" />
    <glyph glyph-name="sacute" unicode="&#x15b;" horiz-adv-x="2314" 
d="M1114 2265q261 0 466.5 -55t347 -159.5t216.5 -254.5t75 -339h-787q0 138 -74 210t-220 72q-61 0 -111 -12t-86 -34t-55.5 -53t-19.5 -68q0 -52 28 -85t79.5 -55.5t124.5 -37.5t162 -32l147 -27q86 -15 183 -35.5t193 -52.5t184 -79.5t156 -117.5t108 -166.5t40 -226.5
q0 -170 -73 -303.5t-213 -225.5t-343.5 -140t-464.5 -48q-276 0 -488.5 54.5t-357.5 159.5t-219.5 258.5t-74.5 352.5h787q0 -143 85.5 -217t259.5 -74q72 0 130 12.5t99.5 35t64 54.5t22.5 72q0 51 -24.5 83t-75.5 53.5t-128.5 38t-182.5 35.5l-148 26q-78 14 -171.5 33.5
t-187.5 51t-182 78.5t-155.5 117.5t-108.5 167t-41 226.5q0 166 70 297.5t203 222.5t325 139t436 48zM1814.01 2994h-655.96l-289.982 -639h487.97z" />
    <glyph glyph-name="Scircumflex" unicode="&#x15c;" horiz-adv-x="2749" 
d="M1363 2920q295 0 528 -68.5t395 -197.5t247.5 -315t85.5 -421h-802q0 82 -32.5 147.5t-93.5 111t-147 70t-194 24.5q-88 0 -165.5 -16.5t-134.5 -48t-90 -76.5t-33 -102q0 -64 31.5 -103t98 -64.5t170 -43.5t247.5 -39l85 -12q89 -13 185 -28t193.5 -37.5t192.5 -54
t180.5 -77.5t158 -107.5t125.5 -144t83 -187.5t30 -238q0 -228 -90.5 -405t-261.5 -298.5t-417.5 -185t-557.5 -63.5q-330 0 -580 70.5t-418.5 203t-254 323.5t-85.5 431h802q0 -90 36.5 -160t105.5 -119t168 -74.5t224 -25.5q106 0 195.5 18.5t154.5 53t101.5 84.5
t36.5 113q0 68 -32.5 109.5t-99.5 67.5t-170.5 42.5t-244.5 34.5l-117 16q-85 11 -178 24.5t-187.5 34t-187 49.5t-176 72.5t-155 102.5t-123.5 138.5t-81.5 182t-29.5 232.5q0 154 43 285t122.5 237t193.5 187t256 136t309.5 83t354.5 28zM1513 3010l-171 275l-173 -275
h-460l316 639h632l316 -639h-460z" />
    <glyph glyph-name="scircumflex" unicode="&#x15d;" horiz-adv-x="2314" 
d="M1114 2265q261 0 466.5 -55t347 -159.5t216.5 -254.5t75 -339h-787q0 138 -74 210t-220 72q-61 0 -111 -12t-86 -34t-55.5 -53t-19.5 -68q0 -52 28 -85t79.5 -55.5t124.5 -37.5t162 -32l147 -27q86 -15 183 -35.5t193 -52.5t184 -79.5t156 -117.5t108 -166.5t40 -226.5
q0 -170 -73 -303.5t-213 -225.5t-343.5 -140t-464.5 -48q-276 0 -488.5 54.5t-357.5 159.5t-219.5 258.5t-74.5 352.5h787q0 -143 85.5 -217t259.5 -74q72 0 130 12.5t99.5 35t64 54.5t22.5 72q0 51 -24.5 83t-75.5 53.5t-128.5 38t-182.5 35.5l-148 26q-78 14 -171.5 33.5
t-187.5 51t-182 78.5t-155.5 117.5t-108.5 167t-41 226.5q0 166 70 297.5t203 222.5t325 139t436 48zM1287 2355l-171 275l-173 -275h-460l316 639h632l316 -639h-460z" />
    <glyph glyph-name="Scedilla" unicode="&#x15e;" horiz-adv-x="2749" 
d="M1363 2920q295 0 528 -68.5t395 -197.5t247.5 -315t85.5 -421h-802q0 82 -32.5 147.5t-93.5 111t-147 70t-194 24.5q-88 0 -165.5 -16.5t-134.5 -48t-90 -76.5t-33 -102q0 -64 31.5 -103t98 -64.5t170 -43.5t247.5 -39l85 -12q89 -13 185 -28t193.5 -37.5t192.5 -54
t180.5 -77.5t158 -107.5t125.5 -144t83 -187.5t30 -238q0 -228 -90.5 -405t-261.5 -298.5t-417.5 -185t-557.5 -63.5q-330 0 -580 70.5t-418.5 203t-254 323.5t-85.5 431h802q0 -90 36.5 -160t105.5 -119t168 -74.5t224 -25.5q106 0 195.5 18.5t154.5 53t101.5 84.5
t36.5 113q0 68 -32.5 109.5t-99.5 67.5t-170.5 42.5t-244.5 34.5l-117 16q-85 11 -178 24.5t-187.5 34t-187 49.5t-176 72.5t-155 102.5t-123.5 138.5t-81.5 182t-29.5 232.5q0 154 43 285t122.5 237t193.5 187t256 136t309.5 83t354.5 28zM1507 8l-31 -160
q108 -2 196 -24.5t150.5 -62t96.5 -95t34 -122.5q0 -73 -40 -133.5t-113 -103.5t-175 -66.5t-225 -23.5q-59 0 -122.5 6t-132.5 17v276q54 -12 100.5 -17.5t87.5 -5.5q99 0 151.5 27t52.5 65q0 23 -20 44t-60.5 37.5t-101.5 26.5t-143 10l55 305h240z" />
    <glyph glyph-name="scedilla" unicode="&#x15f;" horiz-adv-x="2314" 
d="M1114 2265q261 0 466.5 -55t347 -159.5t216.5 -254.5t75 -339h-787q0 138 -74 210t-220 72q-61 0 -111 -12t-86 -34t-55.5 -53t-19.5 -68q0 -52 28 -85t79.5 -55.5t124.5 -37.5t162 -32l147 -27q86 -15 183 -35.5t193 -52.5t184 -79.5t156 -117.5t108 -166.5t40 -226.5
q0 -170 -73 -303.5t-213 -225.5t-343.5 -140t-464.5 -48q-276 0 -488.5 54.5t-357.5 159.5t-219.5 258.5t-74.5 352.5h787q0 -143 85.5 -217t259.5 -74q72 0 130 12.5t99.5 35t64 54.5t22.5 72q0 51 -24.5 83t-75.5 53.5t-128.5 38t-182.5 35.5l-148 26q-78 14 -171.5 33.5
t-187.5 51t-182 78.5t-155.5 117.5t-108.5 167t-41 226.5q0 166 70 297.5t203 222.5t325 139t436 48zM1304 8l-31 -160q108 -2 196 -24.5t150.5 -62t96.5 -95t34 -122.5q0 -73 -40 -133.5t-113 -103.5t-175 -66.5t-225 -23.5q-59 0 -122.5 6t-132.5 17v276
q54 -12 100.5 -17.5t87.5 -5.5q99 0 151.5 27t52.5 65q0 23 -20 44t-60.5 37.5t-101.5 26.5t-143 10l55 305h240z" />
    <glyph glyph-name="Scaron" unicode="&#x160;" horiz-adv-x="2749" 
d="M1363 2920q295 0 528 -68.5t395 -197.5t247.5 -315t85.5 -421h-802q0 82 -32.5 147.5t-93.5 111t-147 70t-194 24.5q-88 0 -165.5 -16.5t-134.5 -48t-90 -76.5t-33 -102q0 -64 31.5 -103t98 -64.5t170 -43.5t247.5 -39l85 -12q89 -13 185 -28t193.5 -37.5t192.5 -54
t180.5 -77.5t158 -107.5t125.5 -144t83 -187.5t30 -238q0 -228 -90.5 -405t-261.5 -298.5t-417.5 -185t-557.5 -63.5q-330 0 -580 70.5t-418.5 203t-254 323.5t-85.5 431h802q0 -90 36.5 -160t105.5 -119t168 -74.5t224 -25.5q106 0 195.5 18.5t154.5 53t101.5 84.5
t36.5 113q0 68 -32.5 109.5t-99.5 67.5t-170.5 42.5t-244.5 34.5l-117 16q-85 11 -178 24.5t-187.5 34t-187 49.5t-176 72.5t-155 102.5t-123.5 138.5t-81.5 182t-29.5 232.5q0 154 43 285t122.5 237t193.5 187t256 136t309.5 83t354.5 28zM1658 3010h-632l-316 639h460
l173 -275l171 275h460z" />
    <glyph glyph-name="scaron" unicode="&#x161;" horiz-adv-x="2314" 
d="M1114 2265q261 0 466.5 -55t347 -159.5t216.5 -254.5t75 -339h-787q0 138 -74 210t-220 72q-61 0 -111 -12t-86 -34t-55.5 -53t-19.5 -68q0 -52 28 -85t79.5 -55.5t124.5 -37.5t162 -32l147 -27q86 -15 183 -35.5t193 -52.5t184 -79.5t156 -117.5t108 -166.5t40 -226.5
q0 -170 -73 -303.5t-213 -225.5t-343.5 -140t-464.5 -48q-276 0 -488.5 54.5t-357.5 159.5t-219.5 258.5t-74.5 352.5h787q0 -143 85.5 -217t259.5 -74q72 0 130 12.5t99.5 35t64 54.5t22.5 72q0 51 -24.5 83t-75.5 53.5t-128.5 38t-182.5 35.5l-148 26q-78 14 -171.5 33.5
t-187.5 51t-182 78.5t-155.5 117.5t-108.5 167t-41 226.5q0 166 70 297.5t203 222.5t325 139t436 48zM1432 2355h-632l-316 639h460l173 -275l171 275h460z" />
    <glyph glyph-name="uni0162" unicode="&#x162;" horiz-adv-x="2514" 
d="M2483 2174h-804v-2174h-844v2174h-804v686h2452v-686zM1382 8l-31 -160q108 -2 196 -24.5t150.5 -62t96.5 -95t34 -122.5q0 -73 -40 -133.5t-113 -103.5t-175 -66.5t-225 -23.5q-59 0 -122.5 6t-132.5 17v276q54 -12 100.5 -17.5t87.5 -5.5q99 0 151.5 27t52.5 65
q0 23 -20 44t-60.5 37.5t-101.5 26.5t-143 10l55 305h240z" />
    <glyph glyph-name="uni0163" unicode="&#x163;" horiz-adv-x="1660" 
d="M1599 17q-153 -38 -285 -57.5t-247 -19.5q-799 0 -799 909v744h-252v612h252v508h793v-508h538v-612h-538v-746q0 -80 14 -137.5t43.5 -94t76 -54t111.5 -17.5q53 0 123.5 11.5t169.5 35.5v-574zM1094 8l-31 -160q108 -2 196 -24.5t150.5 -62t96.5 -95t34 -122.5
q0 -73 -40 -133.5t-113 -103.5t-175 -66.5t-225 -23.5q-59 0 -122.5 6t-132.5 17v276q54 -12 100.5 -17.5t87.5 -5.5q99 0 151.5 27t52.5 65q0 23 -20 44t-60.5 37.5t-101.5 26.5t-143 10l55 305h240z" />
    <glyph glyph-name="Tcaron" unicode="&#x164;" horiz-adv-x="2514" 
d="M2483 2174h-804v-2174h-844v2174h-804v686h2452v-686zM1574 3010h-632l-316 639h460l173 -275l171 275h460z" />
    <glyph glyph-name="tcaron" unicode="&#x165;" horiz-adv-x="1660" 
d="M1599 17q-153 -38 -285 -57.5t-247 -19.5q-799 0 -799 909v744h-252v612h252v508h793v-508h538v-612h-538v-746q0 -80 14 -137.5t43.5 -94t76 -54t111.5 -17.5q53 0 123.5 11.5t169.5 35.5v-574zM1641 2335h-438l79 951h527z" />
    <glyph glyph-name="Tbar" unicode="&#x166;" horiz-adv-x="2514" 
d="M2483 2174h-804v-2174h-844v2174h-804v686h2452v-686zM2157 1010h-1799v432h1799v-432z" />
    <glyph glyph-name="tbar" unicode="&#x167;" horiz-adv-x="1660" 
d="M1599 17q-153 -38 -285 -57.5t-247 -19.5q-799 0 -799 909v744h-252v612h252v508h793v-508h538v-612h-538v-746q0 -80 14 -137.5t43.5 -94t76 -54t111.5 -17.5q53 0 123.5 11.5t169.5 35.5v-574zM1544 978h-1527v389h1527v-389z" />
    <glyph glyph-name="Utilde" unicode="&#x168;" horiz-adv-x="2764" 
d="M106 2860h844v-1652q0 -158 27.5 -267.5t82 -177.5t135.5 -98.5t187 -30.5q107 0 187.5 30.5t135 98.5t82 177.5t27.5 267.5v1652h844v-1740q0 -193 -43.5 -355.5t-123.5 -293.5t-194 -230.5t-256 -166t-308.5 -100.5t-350.5 -34t-350.5 34t-308.5 100.5t-256 166
t-194 230.5t-123.5 293.5t-43.5 355.5v1740zM2022 3634q0 -167 -19 -285.5t-60 -194t-105 -110.5t-155 -35q-49 0 -92 9t-79 22t-64.5 27.5t-48.5 25.5l-66 35q-16 9 -36.5 19.5t-44 19.5t-49 15t-51.5 6q-52 0 -81 -33t-29 -120v-6h-254v11q0 322 85 474.5t264 152.5
q45 0 83.5 -8t70.5 -20t57.5 -25.5t43.5 -24.5l63 -35q17 -10 39.5 -21.5t49 -22t56.5 -17.5t63 -7q50 0 81 33t31 115v13h247v-13z" />
    <glyph glyph-name="utilde" unicode="&#x169;" 
d="M1479 2205h793v-2205h-793v688q-118 -748 -732 -748q-335 0 -498 230.5t-163 705.5v1329h793v-1129q0 -232 71.5 -345.5t219.5 -113.5q153 0 231 116t78 351v1121zM1819 2979q0 -167 -19 -285.5t-60 -194t-105 -110.5t-155 -35q-49 0 -92 9t-79 22t-64.5 27.5t-48.5 25.5
l-66 35q-16 9 -36.5 19.5t-44 19.5t-49 15t-51.5 6q-52 0 -81 -33t-29 -120v-6h-254v11q0 322 85 474.5t264 152.5q45 0 83.5 -8t70.5 -20t57.5 -25.5t43.5 -24.5l63 -35q17 -10 39.5 -21.5t49 -22t56.5 -17.5t63 -7q50 0 81 33t31 115v13h247v-13z" />
    <glyph glyph-name="Umacron" unicode="&#x16a;" horiz-adv-x="2764" 
d="M106 2860h844v-1652q0 -158 27.5 -267.5t82 -177.5t135.5 -98.5t187 -30.5q107 0 187.5 30.5t135 98.5t82 177.5t27.5 267.5v1652h844v-1740q0 -193 -43.5 -355.5t-123.5 -293.5t-194 -230.5t-256 -166t-308.5 -100.5t-350.5 -34t-350.5 34t-308.5 100.5t-256 166
t-194 230.5t-123.5 293.5t-43.5 355.5v1740zM1966 3087h-1168v392h1168v-392z" />
    <glyph glyph-name="umacron" unicode="&#x16b;" 
d="M1479 2205h793v-2205h-793v688q-118 -748 -732 -748q-335 0 -498 230.5t-163 705.5v1329h793v-1129q0 -232 71.5 -345.5t219.5 -113.5q153 0 231 116t78 351v1121zM1763 2432h-1168v392h1168v-392z" />
    <glyph glyph-name="Ubreve" unicode="&#x16c;" horiz-adv-x="2764" 
d="M106 2860h844v-1652q0 -158 27.5 -267.5t82 -177.5t135.5 -98.5t187 -30.5q107 0 187.5 30.5t135 98.5t82 177.5t27.5 267.5v1652h844v-1740q0 -193 -43.5 -355.5t-123.5 -293.5t-194 -230.5t-256 -166t-308.5 -100.5t-350.5 -34t-350.5 34t-308.5 100.5t-256 166
t-194 230.5t-123.5 293.5t-43.5 355.5v1740zM1151 3702q0 -71 16 -127t46 -95t73 -60t97 -21t97 21t72.5 60t45.5 95t16 127h336q0 -165 -34 -294t-104 -217.5t-177 -134.5t-253 -46t-253 46t-176.5 134.5t-103.5 217.5t-34 294h336z" />
    <glyph glyph-name="ubreve" unicode="&#x16d;" 
d="M1479 2205h793v-2205h-793v688q-118 -748 -732 -748q-335 0 -498 230.5t-163 705.5v1329h793v-1129q0 -232 71.5 -345.5t219.5 -113.5q153 0 231 116t78 351v1121zM948 3047q0 -71 16 -127t46 -95t73 -60t97 -21t97 21t72.5 60t45.5 95t16 127h336q0 -165 -34 -294
t-104 -217.5t-177 -134.5t-253 -46t-253 46t-176.5 134.5t-103.5 217.5t-34 294h336z" />
    <glyph glyph-name="Uring" unicode="&#x16e;" horiz-adv-x="2764" 
d="M106 2860h844v-1652q0 -158 27.5 -267.5t82 -177.5t135.5 -98.5t187 -30.5q107 0 187.5 30.5t135 98.5t82 177.5t27.5 267.5v1652h844v-1740q0 -193 -43.5 -355.5t-123.5 -293.5t-194 -230.5t-256 -166t-308.5 -100.5t-350.5 -34t-350.5 34t-308.5 100.5t-256 166
t-194 230.5t-123.5 293.5t-43.5 355.5v1740zM938 3445q0 100 33 180.5t91.5 137t140 87t177.5 30.5t176.5 -30.5t139 -87t91.5 -137t33 -180.5q0 -99 -33 -179.5t-91.5 -137.5t-139 -87.5t-176.5 -30.5t-177.5 30.5t-140 87.5t-91.5 137.5t-33 179.5zM1237 3445
q0 -84 39.5 -126t103.5 -42q63 0 102.5 42t39.5 126q0 85 -39.5 126.5t-102.5 41.5q-64 0 -103.5 -41.5t-39.5 -126.5z" />
    <glyph glyph-name="uring" unicode="&#x16f;" 
d="M1479 2205h793v-2205h-793v688q-118 -748 -732 -748q-335 0 -498 230.5t-163 705.5v1329h793v-1129q0 -232 71.5 -345.5t219.5 -113.5q153 0 231 116t78 351v1121zM734 2790q0 100 33 180.5t91.5 137t140 87t177.5 30.5t176.5 -30.5t139 -87t91.5 -137t33 -180.5
q0 -99 -33 -179.5t-91.5 -137.5t-139 -87.5t-176.5 -30.5t-177.5 30.5t-140 87.5t-91.5 137.5t-33 179.5zM1033 2790q0 -84 39.5 -126t103.5 -42q63 0 102.5 42t39.5 126q0 85 -39.5 126.5t-102.5 41.5q-64 0 -103.5 -41.5t-39.5 -126.5z" />
    <glyph glyph-name="Uhungarumlaut" unicode="&#x170;" horiz-adv-x="2764" 
d="M106 2860h844v-1652q0 -158 27.5 -267.5t82 -177.5t135.5 -98.5t187 -30.5q107 0 187.5 30.5t135 98.5t82 177.5t27.5 267.5v1652h844v-1740q0 -193 -43.5 -355.5t-123.5 -293.5t-194 -230.5t-256 -166t-308.5 -100.5t-350.5 -34t-350.5 34t-308.5 100.5t-256 166
t-194 230.5t-123.5 293.5t-43.5 355.5v1740zM757 3010l214 639h586l-324 -639h-476zM1455 3010l214 639h586l-324 -639h-476z" />
    <glyph glyph-name="uhungarumlaut" unicode="&#x171;" 
d="M1479 2205h793v-2205h-793v688q-118 -748 -732 -748q-335 0 -498 230.5t-163 705.5v1329h793v-1129q0 -232 71.5 -345.5t219.5 -113.5q153 0 231 116t78 351v1121zM553 2355l214 639h586l-324 -639h-476zM1251 2355l214 639h586l-324 -639h-476z" />
    <glyph glyph-name="Uogonek" unicode="&#x172;" horiz-adv-x="2764" 
d="M106 2860h844v-1652q0 -158 27.5 -267.5t82 -177.5t135.5 -98.5t187 -30.5q107 0 187.5 30.5t135 98.5t82 177.5t27.5 267.5v1652h844v-1740q0 -193 -43.5 -355.5t-123.5 -293.5t-194 -230.5t-256 -166t-308.5 -100.5t-350.5 -34t-350.5 34t-308.5 100.5t-256 166
t-194 230.5t-123.5 293.5t-43.5 355.5v1740zM1832 0q-79 0 -155.5 -18t-136 -46t-96 -62.5t-36.5 -66.5q0 -23 18.5 -40.5t52.5 -29.5t82 -18.5t108 -6.5q49 0 90 3.5t80 10.5v-417q-61 -8 -121.5 -11.5t-115.5 -3.5q-119 0 -217.5 23.5t-169 66.5t-109.5 103.5t-39 133.5
q0 89 56.5 164.5t156 131.5t236 88.5t295.5 34.5z" />
    <glyph glyph-name="uogonek" unicode="&#x173;" 
d="M1479 2205h793v-2205h-793v688q-118 -748 -732 -748q-335 0 -498 230.5t-163 705.5v1329h793v-1129q0 -232 71.5 -345.5t219.5 -113.5q153 0 231 116t78 351v1121zM2270 0q-79 0 -155.5 -18t-136 -46t-96 -62.5t-36.5 -66.5q0 -23 18.5 -40.5t52.5 -29.5t82 -18.5
t108 -6.5q49 0 90 3.5t80 10.5v-417q-61 -8 -121.5 -11.5t-115.5 -3.5q-119 0 -217.5 23.5t-169 66.5t-109.5 103.5t-39 133.5q0 89 56.5 164.5t156 131.5t236 88.5t295.5 34.5z" />
    <glyph glyph-name="Wcircumflex" unicode="&#x174;" horiz-adv-x="4379" 
d="M2762 2860l320 -2319l390 2319h861l-646 -2860h-1158l-340 2259l-342 -2259h-1158l-643 2860h903l388 -2319l322 2319h1103zM2362 3010l-171 275l-173 -275h-460l316 639h632l316 -639h-460z" />
    <glyph glyph-name="wcircumflex" unicode="&#x175;" horiz-adv-x="3715" 
d="M2402 2205l242 -1660l295 1660h770l-496 -2205h-1098l-257 1703l-258 -1703h-1098l-495 2205h807l294 -1697l245 1697h1049zM2029 2355l-171 275l-173 -275h-460l316 639h632l316 -639h-460z" />
    <glyph glyph-name="Ycircumflex" unicode="&#x176;" horiz-adv-x="2750" 
d="M2789 2860l-993 -1860v-1000h-844v1000l-991 1860h909l509 -1093l519 1093h891zM1547 3010l-171 275l-173 -275h-460l316 639h632l316 -639h-460z" />
    <glyph glyph-name="ycircumflex" unicode="&#x177;" horiz-adv-x="2391" 
d="M2399 2205l-769 -2190q-76 -217 -179.5 -374t-240.5 -259t-310.5 -151t-388.5 -49q-200 0 -448 45v614q85 -13 155 -19t131 -6q138 0 239 33.5t178 107.5l-775 2248h840l370 -1622l376 1622h822zM1368 2343l-171 275l-173 -275h-460l316 639h632l316 -639h-460z" />
    <glyph glyph-name="Ydieresis" unicode="&#x178;" horiz-adv-x="2750" 
d="M2789 2860l-993 -1860v-1000h-844v1000l-991 1860h909l509 -1093l519 1093h891zM1296 3022h-581v598h581v-598zM2037 3022h-581v598h581v-598z" />
    <glyph glyph-name="Zacute" unicode="&#x179;" horiz-adv-x="2557" 
d="M1090 686h1361v-686h-2345v716l1264 1458h-1214v686h2195v-716zM1972.01 3649h-655.96l-289.982 -639h487.97z" />
    <glyph glyph-name="zacute" unicode="&#x17a;" horiz-adv-x="2192" 
d="M930 612h1211v-612h-2090v649l1092 944h-1053v612h1974v-649zM1793.01 2982h-655.96l-289.982 -639h487.97z" />
    <glyph glyph-name="Zdotaccent" unicode="&#x17b;" horiz-adv-x="2557" 
d="M1090 686h1361v-686h-2345v716l1264 1458h-1214v686h2195v-716zM1563 3022h-581v598h581v-598z" />
    <glyph glyph-name="zdotaccent" unicode="&#x17c;" horiz-adv-x="2192" 
d="M930 612h1211v-612h-2090v649l1092 944h-1053v612h1974v-649zM1383 2355h-581v598h581v-598z" />
    <glyph glyph-name="Zcaron" unicode="&#x17d;" horiz-adv-x="2557" 
d="M1090 686h1361v-686h-2345v716l1264 1458h-1214v686h2195v-716zM1590 3010h-632l-316 639h460l173 -275l171 275h460z" />
    <glyph glyph-name="zcaron" unicode="&#x17e;" horiz-adv-x="2192" 
d="M930 612h1211v-612h-2090v649l1092 944h-1053v612h1974v-649zM1410 2343h-632l-316 639h460l173 -275l171 275h460z" />
    <glyph glyph-name="longs" unicode="&#x17f;" horiz-adv-x="3059" 
d="M106 2860h2847v-2860h-2847v2860zM1529 1710l661 725h-1320zM585 675l689 755l-689 756v-1511zM2474 673v1512l-689 -755zM868 425h1320l-659 724z" />
    <glyph glyph-name="florin" unicode="&#x192;" horiz-adv-x="1957" 
d="M1931 2477q-72 11 -140.5 16.5t-128.5 5.5q-169 0 -246 -56t-77 -178v-60h592v-612h-556v-1609q0 -195 -60 -344.5t-176.5 -251.5t-287.5 -154t-394 -52q-100 0 -210 10t-221 29v574q67 -11 132 -16.5t121 -5.5q159 0 231 56t72 178v1586h-259v612h259v74q0 197 60 348.5
t176.5 254t288 155.5t394.5 53q99 0 209 -10t221 -29v-574z" />
    <glyph glyph-name="AEacute" unicode="&#x1fc;" horiz-adv-x="3716" 
d="M-29 0l1083 2860h2577v-686h-1176v-430h1064v-630h-1064v-428h1208v-686h-2052v531h-587l-167 -531h-886zM1611 1183v1218l-383 -1218h383zM3043.01 3649h-655.96l-289.982 -639h487.97z" />
    <glyph glyph-name="aeacute" unicode="&#x1fd;" horiz-adv-x="3832" 
d="M101 1357q0 211 77 379t221.5 285.5t351 180.5t465.5 63q238 0 426.5 -55.5t324.5 -161.5q137 105 309 161t376 56q252 0 459.5 -83.5t355 -236.5t229 -367t81.5 -475q0 -42 -2 -85t-7 -83h-1505q11 -96 43.5 -171t84.5 -126.5t122.5 -78.5t158.5 -27q245 0 348 219h721
q-49 -189 -149 -339t-241 -255t-319 -161t-382 -56q-189 0 -354.5 48t-299.5 138t-234.5 218t-160.5 287q-22 -159 -92.5 -286.5t-179.5 -217.5t-252.5 -138.5t-311.5 -48.5q-164 0 -298.5 46t-230 130t-148 202t-52.5 263q0 161 65 286.5t189.5 212t305.5 132t412 45.5h511
v51q0 184 -81 282t-242 98q-158 0 -232 -86.5t-74 -244.5h-789zM3045 1325q-33 185 -129 274.5t-259 89.5q-167 0 -264.5 -92t-124.5 -272h777zM1135 869q-149 0 -225 -49t-76 -145q0 -93 69.5 -144.5t194.5 -51.5q88 0 164.5 25t133.5 68.5t90 102t33 124.5v70h-384z
M2608.01 2994h-655.96l-289.982 -639h487.97z" />
    <glyph glyph-name="Oslashacute" unicode="&#x1fe;" horiz-adv-x="3012" 
d="M442 384q-87 96 -155 211t-115 246.5t-71.5 279t-24.5 309.5q0 227 48.5 426t138 364.5t217.5 295.5t287 220t345.5 137t393.5 47q200 0 379.5 -43.5t334.5 -127.5l138 171h571l-359 -445q87 -96 155 -211t115 -246.5t71.5 -278.5t24.5 -309q0 -227 -48.5 -426
t-138.5 -364.5t-217.5 -295.5t-286.5 -220t-345.5 -137t-393.5 -47q-201 0 -381 43.5t-336 128.5l-139 -172h-564zM928 1430q0 -95 8 -177.5t24 -154.5l840 1056q-121 72 -294 72q-284 0 -431 -197.5t-147 -598.5zM1215 704q119 -70 291 -70q284 0 431 198t147 598
q0 184 -32 327zM2205.01 3649h-655.96l-289.982 -639h487.97z" />
    <glyph glyph-name="oslashacute" unicode="&#x1ff;" horiz-adv-x="2424" 
d="M2067 1926q144 -151 223.5 -358.5t79.5 -464.5q0 -178 -39 -333t-112 -284.5t-176 -231t-232 -171t-280 -106.5t-319 -37q-165 0 -311.5 35t-273.5 102l-111 -137h-434l275 340q-144 151 -223.5 358.5t-79.5 464.5q0 267 86.5 481.5t241 366t366.5 233t464 81.5
q165 0 311.5 -35t273.5 -101l111 136h434zM855 1103q0 -87 12 -159l496 615q-66 29 -151 29q-175 0 -266 -120.5t-91 -364.5zM1060 647q66 -30 152 -30q177 0 267 121t90 365q0 87 -12 159zM1911.01 2994h-655.96l-289.982 -639h487.97z" />
    <glyph glyph-name="uni0218" unicode="&#x218;" horiz-adv-x="2749" 
d="M1363 2920q295 0 528 -68.5t395 -197.5t247.5 -315t85.5 -421h-802q0 82 -32.5 147.5t-93.5 111t-147 70t-194 24.5q-88 0 -165.5 -16.5t-134.5 -48t-90 -76.5t-33 -102q0 -64 31.5 -103t98 -64.5t170 -43.5t247.5 -39l85 -12q89 -13 185 -28t193.5 -37.5t192.5 -54
t180.5 -77.5t158 -107.5t125.5 -144t83 -187.5t30 -238q0 -228 -90.5 -405t-261.5 -298.5t-417.5 -185t-557.5 -63.5q-330 0 -580 70.5t-418.5 203t-254 323.5t-85.5 431h802q0 -90 36.5 -160t105.5 -119t168 -74.5t224 -25.5q106 0 195.5 18.5t154.5 53t101.5 84.5
t36.5 113q0 68 -32.5 109.5t-99.5 67.5t-170.5 42.5t-244.5 34.5l-117 16q-85 11 -178 24.5t-187.5 34t-187 49.5t-176 72.5t-155 102.5t-123.5 138.5t-81.5 182t-29.5 232.5q0 154 43 285t122.5 237t193.5 187t256 136t309.5 83t354.5 28zM1451 -788h-498l110 638h638z" />
    <glyph glyph-name="uni0219" unicode="&#x219;" horiz-adv-x="2314" 
d="M1114 2265q261 0 466.5 -55t347 -159.5t216.5 -254.5t75 -339h-787q0 138 -74 210t-220 72q-61 0 -111 -12t-86 -34t-55.5 -53t-19.5 -68q0 -52 28 -85t79.5 -55.5t124.5 -37.5t162 -32l147 -27q86 -15 183 -35.5t193 -52.5t184 -79.5t156 -117.5t108 -166.5t40 -226.5
q0 -170 -73 -303.5t-213 -225.5t-343.5 -140t-464.5 -48q-276 0 -488.5 54.5t-357.5 159.5t-219.5 258.5t-74.5 352.5h787q0 -143 85.5 -217t259.5 -74q72 0 130 12.5t99.5 35t64 54.5t22.5 72q0 51 -24.5 83t-75.5 53.5t-128.5 38t-182.5 35.5l-148 26q-78 14 -171.5 33.5
t-187.5 51t-182 78.5t-155.5 117.5t-108.5 167t-41 226.5q0 166 70 297.5t203 222.5t325 139t436 48zM1248 -788h-498l110 638h638z" />
    <glyph glyph-name="uni021A" unicode="&#x21a;" horiz-adv-x="2514" 
d="M2483 2174h-804v-2174h-844v2174h-804v686h2452v-686zM1326 -788h-498l110 638h638z" />
    <glyph glyph-name="uni021B" unicode="&#x21b;" horiz-adv-x="1660" 
d="M1599 17q-153 -38 -285 -57.5t-247 -19.5q-799 0 -799 909v744h-252v612h252v508h793v-508h538v-612h-538v-746q0 -80 14 -137.5t43.5 -94t76 -54t111.5 -17.5q53 0 123.5 11.5t169.5 35.5v-574zM1038 -788h-498l110 638h638z" />
    <glyph glyph-name="uni0237" unicode="&#x237;" horiz-adv-x="985" 
d="M891 222q0 -192 -22.5 -343.5t-71 -267t-125.5 -197t-186.5 -133t-253 -75.5t-325.5 -24h-94v625h64q72 0 115.5 19.5t67 56.5t31 89.5t7.5 117.5v2115h793v-1983z" />
    <glyph glyph-name="circumflex" unicode="&#x2c6;" horiz-adv-x="1476" 
d="M910 2295l-171 275l-173 -275h-460l316 639h632l316 -639h-460z" />
    <glyph glyph-name="caron" unicode="&#x2c7;" horiz-adv-x="1476" 
d="M1054 2295h-632l-316 639h460l173 -275l171 275h460z" />
    <glyph glyph-name="breve" unicode="&#x2d8;" horiz-adv-x="1348" 
d="M442 2987q0 -71 16 -127t46 -95t73 -60t97 -21t97 21t72.5 60t45.5 95t16 127h336q0 -165 -34 -294t-104 -217.5t-177 -134.5t-253 -46t-253 46t-176.5 134.5t-103.5 217.5t-34 294h336z" />
    <glyph glyph-name="dotaccent" unicode="&#x2d9;" horiz-adv-x="794" 
d="M687 2307h-581v598h581v-598z" />
    <glyph glyph-name="ring" unicode="&#x2da;" horiz-adv-x="1093" 
d="M102 2730q0 100 33 180.5t91.5 137t140 87t177.5 30.5t176.5 -30.5t139 -87t91.5 -137t33 -180.5q0 -99 -33 -179.5t-91.5 -137.5t-139 -87.5t-176.5 -30.5t-177.5 30.5t-140 87.5t-91.5 137.5t-33 179.5zM401 2730q0 -84 39.5 -126t103.5 -42q63 0 102.5 42t39.5 126
q0 85 -39.5 126.5t-102.5 41.5q-64 0 -103.5 -41.5t-39.5 -126.5z" />
    <glyph glyph-name="ogonek" unicode="&#x2db;" horiz-adv-x="986" 
d="M872 -59q-79 0 -155.5 -18t-136 -46t-96 -62.5t-36.5 -66.5q0 -23 18.5 -40.5t52.5 -29.5t82 -18.5t108 -6.5q49 0 90 3.5t80 10.5v-417q-61 -8 -121.5 -11.5t-115.5 -3.5q-119 0 -217.5 23.5t-169 66.5t-109.5 103.5t-39 133.5q0 89 56.5 164.5t156 131.5t236 88.5
t295.5 34.5z" />
    <glyph glyph-name="tilde" unicode="&#x2dc;" horiz-adv-x="1445" 
d="M1341 2919q0 -167 -19 -285.5t-60 -194t-105 -110.5t-155 -35q-49 0 -92 9t-79 22t-64.5 27.5t-48.5 25.5l-66 35q-16 9 -36.5 19.5t-44 19.5t-49 15t-51.5 6q-52 0 -81 -33t-29 -120v-6h-254v11q0 322 85 474.5t264 152.5q45 0 83.5 -8t70.5 -20t57.5 -25.5t43.5 -24.5
l63 -35q17 -10 39.5 -21.5t49 -22t56.5 -17.5t63 -7q50 0 81 33t31 115v13h247v-13z" />
    <glyph glyph-name="hungarumlaut" unicode="&#x2dd;" horiz-adv-x="1711" 
d="M106 2295l214 639h586l-324 -639h-476zM804 2295l214 639h586l-324 -639h-476z" />
    <glyph glyph-name="uni03BC" unicode="&#x3bc;" horiz-adv-x="3059" 
d="M106 2860h2847v-2860h-2847v2860zM1529 1710l661 725h-1320zM585 675l689 755l-689 756v-1511zM2474 673v1512l-689 -755zM868 425h1320l-659 724z" />
    <glyph glyph-name="Wgrave" unicode="&#x1e80;" horiz-adv-x="4379" 
d="M2762 2860l320 -2319l390 2319h861l-646 -2860h-1158l-340 2259l-342 -2259h-1158l-643 2860h903l388 -2319l322 2319h1103zM1491 3649h656l290 -639h-488z" />
    <glyph glyph-name="wgrave" unicode="&#x1e81;" horiz-adv-x="3715" 
d="M2402 2205l242 -1660l295 1660h770l-496 -2205h-1098l-257 1703l-258 -1703h-1098l-495 2205h807l294 -1697l245 1697h1049zM1159 2994h656l290 -639h-488z" />
    <glyph glyph-name="Wacute" unicode="&#x1e82;" horiz-adv-x="4379" 
d="M2762 2860l320 -2319l390 2319h861l-646 -2860h-1158l-340 2259l-342 -2259h-1158l-643 2860h903l388 -2319l322 2319h1103zM2889.01 3649h-655.96l-289.982 -639h487.97z" />
    <glyph glyph-name="wacute" unicode="&#x1e83;" horiz-adv-x="3715" 
d="M2402 2205l242 -1660l295 1660h770l-496 -2205h-1098l-257 1703l-258 -1703h-1098l-495 2205h807l294 -1697l245 1697h1049zM2556.01 2994h-655.96l-289.982 -639h487.97z" />
    <glyph glyph-name="Wdieresis" unicode="&#x1e84;" horiz-adv-x="4379" 
d="M2762 2860l320 -2319l390 2319h861l-646 -2860h-1158l-340 2259l-342 -2259h-1158l-643 2860h903l388 -2319l322 2319h1103zM2110 3022h-581v598h581v-598zM2851 3022h-581v598h581v-598z" />
    <glyph glyph-name="wdieresis" unicode="&#x1e85;" horiz-adv-x="3715" 
d="M2402 2205l242 -1660l295 1660h770l-496 -2205h-1098l-257 1703l-258 -1703h-1098l-495 2205h807l294 -1697l245 1697h1049zM1778 2367h-581v598h581v-598zM2519 2367h-581v598h581v-598z" />
    <glyph glyph-name="Ygrave" unicode="&#x1ef2;" horiz-adv-x="2750" 
d="M2789 2860l-993 -1860v-1000h-844v1000l-991 1860h909l509 -1093l519 1093h891zM677 3649h656l290 -639h-488z" />
    <glyph glyph-name="ygrave" unicode="&#x1ef3;" horiz-adv-x="2391" 
d="M2399 2205l-769 -2190q-76 -217 -179.5 -374t-240.5 -259t-310.5 -151t-388.5 -49q-200 0 -448 45v614q85 -13 155 -19t131 -6q138 0 239 33.5t178 107.5l-775 2248h840l370 -1622l376 1622h822zM497 2982h656l290 -639h-488z" />
    <glyph glyph-name="endash" unicode="&#x2013;" horiz-adv-x="2913" 
d="M2807 831h-2701v654h2701v-654z" />
    <glyph glyph-name="emdash" unicode="&#x2014;" horiz-adv-x="4172" 
d="M4066 831h-3960v654h3960v-654z" />
    <glyph glyph-name="quoteleft" unicode="&#x2018;" horiz-adv-x="1107" 
d="M502.029 2959.95h497.97l-143.991 -1505.91h-749.955z" />
    <glyph glyph-name="quoteright" unicode="&#x2019;" horiz-adv-x="1107" 
d="M605.001 1454.23h-497.939l143.983 1505.82h749.909z" />
    <glyph glyph-name="quotesinglbase" unicode="&#x201a;" horiz-adv-x="939" 
d="M475 -758h-498l144 1506h750z" />
    <glyph glyph-name="quotedblleft" unicode="&#x201c;" horiz-adv-x="1948" 
d="M503.029 2959.95h497.97l-143.991 -1505.91h-749.955zM1343.03 2959.95h497.97l-143.991 -1505.91h-749.955z" />
    <glyph glyph-name="quotedblright" unicode="&#x201d;" horiz-adv-x="1948" 
d="M1445 1454.23h-497.938l143.982 1505.82h749.909zM605.053 1454.23h-497.939l143.982 1505.82h749.909z" />
    <glyph glyph-name="quotedblbase" unicode="&#x201e;" horiz-adv-x="1780" 
d="M475 -758h-498l144 1506h750zM1315 -758h-498l144 1506h750z" />
    <glyph glyph-name="dagger" unicode="&#x2020;" horiz-adv-x="1936" 
d="M1390 2860v-655h440v-576h-440v-1629h-844v1629h-440v576h440v655h844z" />
    <glyph glyph-name="daggerdbl" unicode="&#x2021;" horiz-adv-x="1937" 
d="M1391 2860v-655h440v-576h-440v-397h440v-576h-440v-656h-845v656h-440v576h440v397h-440v576h440v655h845z" />
    <glyph glyph-name="bullet" unicode="&#x2022;" horiz-adv-x="1216" 
d="M1109 714h-1003v953h1003v-953z" />
    <glyph glyph-name="ellipsis" unicode="&#x2026;" horiz-adv-x="2816" 
d="M832 0h-726v748h726v-748zM1771 0h-726v748h726v-748zM2710 0h-726v748h726v-748z" />
    <glyph glyph-name="perthousand" unicode="&#x2030;" horiz-adv-x="5132" 
d="M107 2153q0 173 51 314.5t144.5 242t225.5 155.5t293 55t292 -55t224 -155.5t143.5 -242t50.5 -314.5q0 -172 -50 -311t-143 -237t-224.5 -151t-293.5 -53t-294 53t-225 151.5t-143.5 237.5t-50.5 310zM2932 2862l-1771 -2860h-569l1766 2860h574zM602 2151
q0 -142 55 -217.5t161 -75.5q105 0 160 75t55 217q0 74 -14.5 132t-42.5 98t-68 61.5t-90 21.5t-90 -21.5t-68 -61.5t-43 -98t-15 -131zM1979 692q0 173 51 314.5t144.5 242t225.5 155.5t293 55t292 -55t224 -155.5t143.5 -242t50.5 -314.5q0 -172 -50 -311t-143 -237
t-224.5 -151t-293.5 -53t-294 53t-225 151.5t-143.5 237.5t-50.5 310zM3602 692q0 173 51 314.5t144.5 242t225.5 155.5t293 55t292 -55t224 -155.5t143.5 -242t50.5 -314.5q0 -172 -50 -311t-143 -237t-224.5 -151t-293.5 -53t-294 53t-225 151.5t-143.5 237.5t-50.5 310z
M2474 690q0 -142 55 -217.5t161 -75.5q105 0 160 75t55 217q0 74 -14.5 132t-42.5 98t-68 61.5t-90 21.5t-90 -21.5t-68 -61.5t-43 -98t-15 -131zM4097 690q0 -142 55.5 -217.5t160.5 -75.5t160.5 75t55.5 217q0 74 -15 132t-43 98t-68 61.5t-90 21.5t-90 -21.5t-68 -61.5
t-43 -98t-15 -131z" />
    <glyph glyph-name="guilsinglleft" unicode="&#x2039;" horiz-adv-x="1904" 
d="M990 2098h861l-923 -995l923 -994h-861l-883 992z" />
    <glyph glyph-name="guilsinglright" unicode="&#x203a;" horiz-adv-x="1904" 
d="M914.061 109.128h-860.947l922.943 994.939l-922.943 993.939h860.947l882.946 -991.939z" />
    <glyph glyph-name="fraction" unicode="&#x2044;" horiz-adv-x="2784" 
d="M106 0l2084 2960h488l-2084 -2960h-488z" />
    <glyph glyph-name="uni2074" unicode="&#x2074;" horiz-adv-x="1573" 
d="M870 1430v271h-764v360l665 799h525v-816h170v-343h-170v-271h-426zM870 2044v414l-341 -414h341z" />
    <glyph glyph-name="Euro" unicode="&#x20ac;" horiz-adv-x="3124" 
d="M76 1311h187q-2 29 -3 59t-1 60q0 59 3 117h-186v318h233q60 246 186.5 441.5t306 332t404.5 209t483 72.5q187 0 354 -39t310 -113t260 -182.5t206 -247t147 -306.5t82 -362h-836q-41 282 -170 419t-353 137q-193 0 -322 -89t-194 -272h622v-318h-681q-3 -57 -3 -117
q0 -31 1 -60.5t3 -58.5h680v-318h-621q65 -182 194 -270.5t321 -88.5q224 0 353 137t170 419h836q-24 -194 -82 -362t-147 -306.5t-206 -247t-260 -182.5t-310 -113t-354 -39q-258 0 -482.5 72.5t-403.5 208.5t-305.5 331.5t-187.5 440.5h-234v318z" />
    <glyph glyph-name="trademark" unicode="&#x2122;" horiz-adv-x="3514" 
d="M3438 2860v-1573h-481v1160l-258 -1160h-442l-257 1160v-1160h-458v1573h747l216 -1006l217 1006h716zM1369 2467h-407v-1180h-480v1180h-406v393h1293v-393z" />
    <glyph glyph-name="minus" unicode="&#x2212;" horiz-adv-x="2088" 
d="M106 1163v566h1876v-566h-1876z" />
    <glyph glyph-name="ethbar" horiz-adv-x="1732" 
d="M1626 425h-1520v506h1520v-506z" />
    <glyph glyph-name="crossbar" horiz-adv-x="1762" 
d="M1655 1702l-1549 -699v476l1549 700v-477z" />
    <glyph glyph-name="ethbar.case" horiz-adv-x="1680" 
d="M1573 394h-1466v460h1466v-460z" />
    <glyph glyph-name="crossbar.case" horiz-adv-x="1445" 
d="M1338 791l-1232 -556v465l1232 556v-465z" />
    <glyph glyph-name="commaccent" horiz-adv-x="818" 
d="M544 -971h-438l79 951h527z" />
    <glyph glyph-name="commaccent2" horiz-adv-x="961" 
d="M604 -788h-498l110 638h638z" />
    <glyph glyph-name="commaccent3" horiz-adv-x="961" 
d="M357 809h498l-110 -638h-638z" />
    <glyph glyph-name="tbarnew" horiz-adv-x="1739" 
d="M1633 495h-1527v389h1527v-389z" />
    <glyph glyph-name="ogonek2" horiz-adv-x="996" 
d="M731 152q-54 -38 -104.5 -83.5t-89 -94t-61.5 -95.5t-23 -88q0 -64 62 -101t204 -37q42 0 83 3t88 11v-417q-62 -8 -121.5 -11.5t-107.5 -3.5q-126 0 -228.5 27t-174.5 75t-111.5 114t-39.5 144q0 60 23.5 116.5t64.5 109.5t97 103t122 96.5t139 90.5t147 85z" />
    <glyph glyph-name="custombarH" horiz-adv-x="3168" 
d="M3062 461h-2956v434h2956v-434z" />
    <glyph glyph-name="dotaccent2" horiz-adv-x="794" 
d="M687 2307h-581v598h581v-598z" />
    <glyph glyph-name="Toverlaybar" horiz-adv-x="2010" 
d="M1905 521h-1799v432h1799v-432z" />
    <glyph glyph-name="ogonek3" horiz-adv-x="1000" 
d="M879 -59q-79 0 -155.5 -18t-136 -46t-96 -62.5t-36.5 -66.5q0 -23 18.5 -40.5t52.5 -29.5t82 -18.5t108 -6.5q49 0 90 3.5t80 10.5v-417q-61 -8 -121.5 -11.5t-115.5 -3.5q-119 0 -217.5 23.5t-169 66.5t-109.5 103.5t-39 133.5q0 89 56.5 164.5t156 131.5t236 88.5
t295.5 34.5z" />
    </font>
</defs>
</svg>
