<?xml version="1.0" standalone="no"?>
<!DOCTYPE svg PUBLIC "-//W3C//DTD SVG 1.1//EN" "http://www.w3.org/Graphics/SVG/1.1/DTD/svg11.dtd" >
<svg xmlns="http://www.w3.org/2000/svg" xmlns:xlink="http://www.w3.org/1999/xlink" version="1.1">
<metadata>
Created by FontForge 20201107 at Fri Sep 22 12:26:39 2023
 By 
(c)rajeshrajput
</metadata>
<defs>
<font id="Nohemi-Bold" horiz-adv-x="2360" >
  <font-face 
    font-family="Nohemi"
    font-weight="700"
    font-stretch="normal"
    units-per-em="4000"
    panose-1="0 0 0 0 0 0 0 0 0 0"
    ascent="3200"
    descent="-800"
    x-height="2205"
    cap-height="2860"
    bbox="-227 -971 5006 3882"
    underline-thickness="100"
    underline-position="-250"
    unicode-range="U+000D-FB02"
  />
<missing-glyph horiz-adv-x="3091" 
d="M122 2860h2847v-2860h-2847v2860zM1545 1695l703 770h-1403zM569 624l735 806l-735 807v-1613zM2522 622v1614l-735 -806zM843 395h1402l-700 770z" />
    <glyph glyph-name="fi" unicode="fi" horiz-adv-x="2605" 
d="M310 1661h-278v544h278v68q0 199 57.5 351.5t170 256t278 156.5t380.5 53q95 0 200 -10t212 -29v-518q-75 13 -146 19.5t-131 6.5q-184 0 -270.5 -72t-86.5 -224v-58h634v-544h-602v-1661h-696v1661zM2497 2424h-704v536h704v-536zM2493 0h-696v2205h696v-2205z" />
    <glyph glyph-name="fl" unicode="fl" horiz-adv-x="2605" 
d="M310 1661h-278v544h278v68q0 199 57.5 351.5t170 256t278 156.5t380.5 53q95 0 200 -10t212 -29v-518q-75 13 -146 19.5t-131 6.5q-184 0 -270.5 -72t-86.5 -224v-58h634v-544h-602v-1661h-696v1661zM2493 0h-696v2960h696v-2960z" />
    <glyph glyph-name=".notdef" horiz-adv-x="3091" 
d="M122 2860h2847v-2860h-2847v2860zM1545 1695l703 770h-1403zM569 624l735 806l-735 807v-1613zM2522 622v1614l-735 -806zM843 395h1402l-700 770z" />
    <glyph glyph-name=".null" horiz-adv-x="0" 
 />
    <glyph glyph-name="uni000D" unicode="&#xd;" horiz-adv-x="500" 
 />
    <glyph glyph-name="space" unicode=" " horiz-adv-x="948" 
 />
    <glyph glyph-name="exclam" unicode="!" horiz-adv-x="929" 
d="M788 2860v-495l-54 -1445h-540l-54 1445v495h648zM801 0h-672v696h672v-696z" />
    <glyph glyph-name="quotedbl" unicode="&#x22;" horiz-adv-x="1649" 
d="M684 1523h-480l-82 1337h648zM1441 1523h-480l-82 1337h648z" />
    <glyph glyph-name="numbersign" unicode="#" horiz-adv-x="3048" 
d="M1675 616h-505l-76 -616h-534l77 616h-542v505h605l77 619h-563v509h626l76 611h533l-76 -611h505l76 611h534l-76 -611h541v-509h-604l-77 -619h562v-505h-625l-77 -616h-534zM1738 1121l77 619h-505l-77 -619h505z" />
    <glyph glyph-name="dollar" unicode="$" horiz-adv-x="2713" 
d="M1102 -47q-256 27 -452 106.5t-328.5 206.5t-200 299t-67.5 383h704q0 -100 41.5 -179.5t119.5 -134t190 -83.5t253 -29q120 0 223 21t178.5 62.5t119 103t43.5 142.5t-37.5 130t-111 80t-183 49.5t-253.5 37.5l-134 19q-87 12 -180.5 25.5t-187.5 34t-185.5 50t-174 72
t-152.5 100t-121 135t-79.5 177t-28.5 225.5q0 201 74 360.5t206.5 276t317 188t406.5 96.5l-37 453h584l-39 -457q225 -29 403 -108t301 -202.5t188 -288.5t65 -366h-704q0 93 -37.5 167t-106.5 125.5t-167 79.5t-219 28q-100 0 -190.5 -19.5t-159.5 -57.5t-109.5 -94
t-40.5 -130q0 -75 36.5 -121t110.5 -76t185.5 -50t262.5 -42l101 -15q89 -13 185 -28.5t192 -37.5t189 -53t177 -76t155 -105.5t122.5 -141t80.5 -184t29 -233.5q0 -202 -72 -362.5t-207 -277.5t-329 -188t-439 -95l37 -452h-584z" />
    <glyph glyph-name="percent" unicode="%" horiz-adv-x="3557" 
d="M123 2154q0 173 52 314t146.5 241.5t228.5 155.5t297 55t295.5 -54.5t227 -155t146 -242t51.5 -314.5q0 -172 -51 -311t-145 -237.5t-227 -151.5t-298 -53t-298.5 53.5t-228 151.5t-145.5 237t-51 311zM2936 2860l-1771 -2860h-529l1766 2860h534zM593 2150
q0 -155 64.5 -237.5t186.5 -82.5t186.5 82.5t64.5 237.5q0 80 -17.5 143t-49.5 106.5t-78.5 67t-105.5 23.5q-58 0 -105 -23.5t-79 -67t-49.5 -106.5t-17.5 -143zM1991 693q0 173 52 314t147 241.5t228.5 155.5t296.5 55t295.5 -54.5t227 -155t146 -242t51.5 -314.5
q0 -172 -51 -311t-145 -237.5t-227 -151.5t-298 -53t-298.5 53.5t-228 151.5t-145.5 237t-51 311zM2461 689q0 -155 65 -237.5t186 -82.5q122 0 186.5 82.5t64.5 237.5q0 80 -17 143t-49.5 106.5t-79 67t-105.5 23.5q-58 0 -105 -23.5t-79 -67t-49.5 -106.5t-17.5 -143z" />
    <glyph glyph-name="ampersand" unicode="&#x26;" horiz-adv-x="2911" 
d="M2522 885q0 -138 -40.5 -261.5t-116 -228.5t-183.5 -189t-242 -143.5t-292 -91t-334 -31.5q-174 0 -332.5 31t-294 88.5t-245.5 138.5t-188 181t-120 217t-42 246q0 123 38.5 226t109.5 179t171 123.5t224 59.5q-125 12 -225.5 57.5t-171 120.5t-108.5 177t-38 226
q0 130 41.5 247.5t118 218.5t184.5 183t241.5 139.5t289 89t326.5 31.5q169 0 321.5 -31t284.5 -88.5t240 -140.5t187.5 -186.5t128.5 -226t62 -259.5h-716q-16 80 -59 144t-108 109t-150.5 69.5t-186.5 24.5q-106 0 -194.5 -26.5t-152.5 -74.5t-99 -114.5t-35 -146.5
q0 -142 116 -214t351 -72h1536v-508h-297v-294zM1308 1179q-241 0 -364.5 -77t-123.5 -225q0 -79 35 -144t99 -111t154 -71t200 -25q116 0 209.5 29t159.5 83t101.5 130.5t35.5 170.5v240h-506z" />
    <glyph glyph-name="quotesingle" unicode="'" horiz-adv-x="893" 
d="M684 1523h-480l-82 1337h648z" />
    <glyph glyph-name="parenleft" unicode="(" horiz-adv-x="1420" 
d="M1378 2927q-140 -204 -246 -412t-177 -418t-106.5 -419t-35.5 -414t35.5 -412.5t106.5 -414.5t177 -411t246 -401l-302 -236q-244 204 -428 427t-307.5 461.5t-185.5 489.5t-62 509q0 260 62.5 512t186 490.5t307.5 461t427 423.5z" />
    <glyph glyph-name="parenright" unicode=")" horiz-adv-x="1420" 
d="M42.084 -374.821q139.991 203.987 245.985 411.975q105.993 207.987 176.989 417.975q70.9951 209.987 106.493 418.975t35.498 413.975t-35.498 412.475t-106.493 414.475q-70.9961 206.987 -176.989 410.976q-105.994 203.987 -245.985 400.976l301.981 235.985
q243.985 -203.987 427.974 -426.975q183.989 -222.986 307.481 -461.472q123.493 -238.485 185.489 -489.47t61.9961 -508.969q0 -259.984 -62.4961 -511.969t-185.989 -490.471q-123.492 -238.485 -307.48 -460.972q-183.989 -222.486 -426.975 -423.474z" />
    <glyph glyph-name="asterisk" unicode="*" horiz-adv-x="1859" 
d="M612 2087l-508 73l174 536l460 -242l-88 506h564l-88 -511l454 239l175 -536l-514 -74l368 -358l-457 -331l-229 465l-226 -460l-457 331z" />
    <glyph glyph-name="plus" unicode="+" horiz-adv-x="2120" 
d="M784 508v679h-662v518h662v679h552v-679h662v-518h-662v-679h-552z" />
    <glyph glyph-name="comma" unicode="," horiz-adv-x="917" 
d="M455 -758h-456l142 1454h690z" />
    <glyph glyph-name="hyphen" unicode="-" horiz-adv-x="2045" 
d="M1922 864h-1800v588h1800v-588z" />
    <glyph glyph-name="period" unicode="." horiz-adv-x="917" 
d="M794 0h-672v696h672v-696z" />
    <glyph glyph-name="slash" unicode="/" horiz-adv-x="1867" 
d="M126 -758l952 3718h677l-952 -3718h-677z" />
    <glyph glyph-name="zero" unicode="0" horiz-adv-x="2864" 
d="M92 1430q0 226 45 424.5t129 364t203.5 295.5t268 220.5t324 138t370.5 47.5q196 0 371 -47.5t324 -138t268.5 -220.5t203 -295.5t128.5 -364t45 -424.5t-45 -424.5t-128.5 -364t-203 -295.5t-268.5 -220.5t-324.5 -138t-370.5 -47.5t-370.5 47.5t-324 138t-268 220.5
t-203.5 295.5t-129 364t-45 424.5zM836 1430q0 -214 39 -377.5t115 -273t187 -165.5t255 -56t255 56t187 165.5t115 273t39 377.5q0 215 -39 378t-115 273t-187 165.5t-255 55.5t-255 -55.5t-187 -165.5t-115 -273t-39 -378z" />
    <glyph glyph-name="one" unicode="1" horiz-adv-x="1854" 
d="M1326 606h406v-606h-1551v606h407v1342h-526v570h182q127 0 210.5 17.5t133 62.5t69.5 123.5t20 199.5h649v-2315z" />
    <glyph glyph-name="two" unicode="2" horiz-adv-x="2614" 
d="M122 0v449q0 177 43.5 311.5t117.5 236t172 174.5t206.5 126.5t221.5 92t216 70.5l94 29q81 25 156 49.5t140.5 52.5t120 60.5t93 74.5t60 94.5t21.5 119.5q0 79 -32.5 145.5t-92.5 114.5t-145.5 75t-192.5 27q-234 0 -356 -127.5t-122 -370.5v-57h-708v65
q0 255 84.5 460t242.5 349t383 221.5t507 77.5q267 0 478.5 -70t358.5 -199t225 -313t78 -412q0 -132 -25.5 -238.5t-70 -192t-105.5 -152t-133 -117.5t-151.5 -89.5t-160.5 -67.5t-161.5 -51.5t-153.5 -41.5l-146 -38q-88 -23 -176.5 -49.5t-163 -64t-128.5 -90t-74 -128.5
h1640v-606h-2361z" />
    <glyph glyph-name="three" unicode="3" horiz-adv-x="2716" 
d="M92 1914q0 241 80 428.5t233.5 315.5t377.5 195t513 67q269 0 488.5 -56.5t375.5 -160.5t241 -250.5t85 -326.5q0 -132 -45 -244t-126.5 -197t-195 -138.5t-249.5 -67.5q176 -10 316 -61t237.5 -137.5t149 -206t51.5 -268.5q0 -196 -90 -356t-255 -273.5t-398 -175
t-520 -61.5q-303 0 -539 70t-398.5 205t-247 332t-84.5 451v5h708v-30q0 -94 39.5 -170.5t111.5 -131t174 -84t227 -29.5q122 0 225 28t178 77.5t117 118t42 149.5q0 125 -108.5 182.5t-341.5 57.5h-478v562h444q174 0 266 62t92 177q0 74 -37 134.5t-103.5 104t-160 67.5
t-206.5 24q-114 0 -203.5 -25t-151 -73t-94 -117t-32.5 -158v-20h-708v5z" />
    <glyph glyph-name="four" unicode="4" horiz-adv-x="2925" 
d="M1723 0v575h-1601v686l1439 1599h882v-1691h360v-594h-360v-575h-720zM1723 1169v1018l-911 -1018h911z" />
    <glyph glyph-name="five" unicode="5" horiz-adv-x="2700" 
d="M2608 999q0 -242 -88.5 -437.5t-252.5 -333.5t-396.5 -212.5t-519.5 -74.5q-183 0 -345 30.5t-299 87.5t-245 138.5t-184 184.5t-116 225.5t-40 260.5v23h731v-18q0 -65 38.5 -121.5t105 -98.5t156 -66.5t191.5 -24.5q115 0 210.5 31t164.5 87t107 134t38 171
q0 89 -35 161.5t-100.5 125t-159.5 81t-211 28.5q-88 0 -166.5 -17t-142 -47t-109.5 -71t-69 -90h-720v1704h2268v-612h-1548v-882q35 114 107.5 208t177.5 160.5t242 103t301 36.5q216 0 385.5 -62.5t285.5 -177.5t177 -276t61 -359z" />
    <glyph glyph-name="six" unicode="6" horiz-adv-x="2767" 
d="M1430 2920q264 0 480.5 -68t371 -192.5t239.5 -298t85 -385.5v-53h-708v35q0 74 -35 137t-97.5 109t-147.5 71.5t-186 25.5q-145 0 -260.5 -56t-195 -162.5t-122 -260t-42.5 -348.5v-308q26 138 96.5 243.5t184 177t268.5 108t350 36.5q234 0 414 -53t302.5 -156
t185 -254.5t62.5 -348.5q0 -231 -84.5 -413t-244 -308t-391 -192t-525.5 -66q-671 0 -1004.5 352t-333.5 1042v27q0 374 89 664.5t259.5 489t419.5 302t570 103.5zM1427 559q246 0 374 102t128 299q0 195 -126.5 296.5t-368.5 101.5q-127 0 -230 -28t-176 -80.5
t-112.5 -127.5t-39.5 -168q0 -91 38.5 -164.5t110 -124.5t173.5 -78.5t229 -27.5z" />
    <glyph glyph-name="seven" unicode="7" horiz-adv-x="2468" 
d="M619 0q15 241 50.5 453.5t96 405.5t147.5 370t205 346.5t270 335.5t341 337h-1667v612h2284v-638q-164 -172 -293.5 -331t-228.5 -319t-171.5 -328t-124 -358t-84.5 -408t-53 -478h-772z" />
    <glyph glyph-name="eight" unicode="8" horiz-adv-x="2794" 
d="M1389 -60q-302 0 -542.5 59t-408 170t-257 270t-89.5 358q0 140 45 255t133 202t217 146t298 87q-145 24 -257 75.5t-187.5 128t-114.5 177.5t-39 224q0 187 87 340t246.5 261.5t384.5 167.5t500 59q274 0 497.5 -59t382 -167t245 -260.5t86.5 -340.5q0 -249 -154 -403
t-452 -203q345 -51 518.5 -218.5t173.5 -449.5q0 -205 -90.5 -368t-260 -276.5t-413 -174t-549.5 -60.5zM1397 1667q526 0 526 326q0 158 -128.5 233.5t-395.5 75.5q-268 0 -396.5 -76.5t-128.5 -234.5q0 -324 523 -324zM1397 558q302 0 451 90.5t149 273.5q0 89 -35.5 154
t-109 107t-187 62.5t-268.5 20.5t-268.5 -20.5t-187 -62.5t-109 -107t-35.5 -154q0 -184 148.5 -274t451.5 -90z" />
    <glyph glyph-name="nine" unicode="9" horiz-adv-x="2767" 
d="M1337 -60q-176 0 -331.5 31t-286 88.5t-234 141t-175.5 188t-110.5 229.5t-38.5 266v53h708v-34q0 -74 35 -137t97.5 -109t148 -72t185.5 -26q146 0 261 56.5t194.5 163t122 260t42.5 347.5v309q-26 -138 -96.5 -243.5t-184 -177.5t-268.5 -108.5t-350 -36.5
q-234 0 -414 53t-302.5 156t-185 254.5t-62.5 349.5q0 231 84.5 412.5t244 307.5t391 192t525.5 66q671 0 1004.5 -351.5t333.5 -1041.5v-28q0 -374 -89 -664.5t-259.5 -489t-419.5 -302t-570 -103.5zM1340 2301q-246 0 -374 -101.5t-128 -298.5q0 -195 126.5 -297
t368.5 -102q127 0 230 28.5t176 81t112.5 127t39.5 167.5q0 92 -38.5 165t-110 124t-173.5 78.5t-229 27.5z" />
    <glyph glyph-name="colon" unicode=":" horiz-adv-x="917" 
d="M794 0h-672v696h672v-696zM794 1521h-672v696h672v-696z" />
    <glyph glyph-name="semicolon" unicode=";" horiz-adv-x="917" 
d="M794 1521h-672v696h672v-696zM455 -758h-456l142 1454h690z" />
    <glyph glyph-name="less" unicode="&#x3c;" horiz-adv-x="2225" 
d="M2103 1670l-1585 -407l1585 -406v-648l-1981 772v566l1981 771v-648z" />
    <glyph glyph-name="equal" unicode="=" horiz-adv-x="2120" 
d="M122 1593v518h1876v-518h-1876zM122 781v518h1876v-518h-1876z" />
    <glyph glyph-name="greater" unicode="&#x3e;" horiz-adv-x="2225" 
d="M122.128 857.102l1584.9 406.976l-1584.9 405.976v647.96l1980.88 -771.953v-565.965l-1980.88 -770.953v647.96z" />
    <glyph glyph-name="question" unicode="?" horiz-adv-x="2514" 
d="M1463 880h-612v168q0 100 21 179t56.5 141.5t82.5 110t99 85t105 66.5t102 53l83 42q58 29 108.5 57t88 62.5t59.5 80t22 109.5q0 68 -31 123t-88.5 94t-138.5 60t-181 21q-233 0 -354.5 -121.5t-121.5 -377.5v-48h-702v61q0 539 300 806.5t882 267.5q275 0 488.5 -58
t360.5 -169t223.5 -272.5t76.5 -369.5q0 -123 -25 -219t-67.5 -170.5t-97.5 -130t-115 -97.5t-120.5 -73t-113.5 -56l-80 -39q-58 -28 -114 -56.5t-99.5 -64t-70 -80t-26.5 -103.5v-82zM1493 0h-672v696h672v-696z" />
    <glyph glyph-name="at" unicode="@" horiz-adv-x="3839" 
d="M1977 -577q-281 0 -530 58t-458.5 166.5t-375.5 264.5t-282 351t-177.5 426.5t-61.5 491.5q0 261 61.5 494t176.5 430.5t278.5 356t368 269.5t445 170.5t509.5 59.5q263 0 499.5 -56.5t438 -162t364 -255t277 -335.5t176 -403.5t61.5 -459.5q0 -245 -63 -443.5
t-178 -338.5t-277 -216t-359 -76q-141 0 -258 40t-204.5 116.5t-142.5 188.5t-73 256q-25 -146 -72.5 -258.5t-116.5 -189t-158.5 -115.5t-198.5 -39q-147 0 -269.5 69t-210.5 194t-137 299t-49 383t48.5 382.5t136.5 298t210.5 193.5t269.5 69q213 0 349 -144.5t190 -424.5
v509h573v-1060q0 -143 45 -215t142 -72q70 0 122.5 37.5t87 106.5t51.5 165.5t17 214.5q0 191 -42 358.5t-121 308t-192 251.5t-255 188t-311 118t-359 41q-195 0 -368.5 -42.5t-319.5 -122.5t-262.5 -194t-197.5 -257t-124.5 -313t-43.5 -360q0 -192 44 -362.5t126 -314.5
t199.5 -258.5t264.5 -194.5t320.5 -122.5t368.5 -42.5q92 0 184 10t186 30.5t191 51t200 72.5l157 -459q-76 -43 -176 -76.5t-215.5 -57t-242 -36t-256.5 -12.5zM2184 1158q0 214 -78 324t-228 110q-149 0 -223.5 -108.5t-74.5 -325.5q0 -216 74.5 -324.5t223.5 -108.5
q150 0 228 110t78 323z" />
    <glyph glyph-name="A" unicode="A" horiz-adv-x="2866" 
d="M-13 0l946 2860h1014l932 -2860h-787l-160 585h-1011l-163 -585h-771zM1773 1169l-342 1251l-348 -1251h690z" />
    <glyph glyph-name="B" unicode="B" horiz-adv-x="2757" 
d="M1573 2860q233 0 418.5 -47.5t315 -139t199 -225t69.5 -304.5q0 -138 -44.5 -253.5t-123.5 -201t-188 -139t-238 -68.5q155 -14 286 -71.5t226.5 -150.5t149 -217t53.5 -272q0 -180 -80.5 -323t-226 -242.5t-349.5 -152.5t-450 -53h-1468v2860h1451zM1486 1694
q81 0 147.5 20.5t113 60t72 97t25.5 132.5q0 146 -94.5 219t-264.5 73h-625v-602h626zM1553 564q200 0 302 75t102 236t-101.5 236t-302.5 75h-693v-622h693z" />
    <glyph glyph-name="C" unicode="C" horiz-adv-x="2943" 
d="M836 1430q0 -214 43.5 -377.5t128.5 -273t209 -165.5t285 -56q255 0 407 152.5t201 459.5h732q-25 -191 -83.5 -356.5t-146.5 -302t-203.5 -243t-256 -179.5t-304.5 -111t-347 -38q-205 0 -389.5 47.5t-341 138t-282 220.5t-213.5 295.5t-135.5 364t-47.5 424.5
t47.5 424.5t135.5 364t213.5 295.5t282 220.5t341 138t389.5 47.5q275 0 504.5 -84.5t403 -243.5t284.5 -387t149 -515h-732q-49 308 -201 460t-407 152q-161 0 -285 -55.5t-209 -165.5t-128.5 -273t-43.5 -378z" />
    <glyph glyph-name="D" unicode="D" horiz-adv-x="2744" 
d="M122 2860h1094q213 0 402 -45.5t349 -131.5t286.5 -211t215.5 -284t136 -349.5t47 -408.5t-47 -408.5t-136 -349.5t-215.5 -284t-286.5 -211t-349 -131.5t-402 -45.5h-1094v2860zM1195 618q172 0 305 52t223.5 154t137.5 254t47 352t-47 352t-137.5 254t-223.5 154
t-305 52h-339v-1624h339z" />
    <glyph glyph-name="E" unicode="E" horiz-adv-x="2215" 
d="M2120 2860v-612h-1260v-535h1146v-570h-1146v-531h1294v-612h-2032v2860h1998z" />
    <glyph glyph-name="F" unicode="F" horiz-adv-x="2181" 
d="M2120 2248h-1260v-575h1146v-588h-1146v-1085h-738v2860h1998v-612z" />
    <glyph glyph-name="G" unicode="G" horiz-adv-x="2997" 
d="M836 1430q0 -217 43 -383t127 -277.5t208 -168.5t286 -57q140 0 259 37t208 106t143 168t63 223h-700v452h1402v-1530h-688v665q-59 -168 -152.5 -302.5t-216 -228.5t-270.5 -144t-316 -50q-164 0 -312 48t-275 139t-229 222t-174 296.5t-111 363t-39 421.5
q0 226 47.5 424t135.5 363.5t213.5 296t282 221t341 138t389.5 47.5q171 0 329.5 -34.5t298.5 -100.5t259.5 -162.5t212.5 -219.5t157 -272t93 -321h-732q-29 124 -85.5 216t-136 153.5t-179.5 92t-216 30.5q-161 0 -285 -56t-209 -165.5t-128.5 -272.5t-43.5 -378z" />
    <glyph glyph-name="H" unicode="H" horiz-adv-x="2744" 
d="M2622 0h-738v1118h-1024v-1118h-738v2860h738v-1124h1024v1124h738v-2860z" />
    <glyph glyph-name="I" unicode="I" horiz-adv-x="982" 
d="M860 0h-738v2860h738v-2860z" />
    <glyph glyph-name="J" unicode="J" horiz-adv-x="2523" 
d="M61 1304h738v-266q0 -103 29.5 -191t85 -152.5t136.5 -100.5t184 -36q104 0 184 36.5t134.5 101.5t82.5 153.5t28 192.5v1818h738v-1830q0 -171 -39.5 -318t-112.5 -268t-177.5 -215t-234.5 -158t-283 -97.5t-323 -33.5t-323 33.5t-283 97.5t-234.5 158t-177.5 215
t-112.5 268t-39.5 318v274z" />
    <glyph glyph-name="K" unicode="K" horiz-adv-x="2717" 
d="M1451 1428l1279 -1428h-934l-936 1070v-1070h-738v2860h738v-1184l912 1184h872z" />
    <glyph glyph-name="L" unicode="L" horiz-adv-x="2126" 
d="M860 2860v-2248h1214v-612h-1952v2860h738z" />
    <glyph glyph-name="M" unicode="M" horiz-adv-x="3686" 
d="M3564 2860v-2860h-738v2241l-632 -2241h-740l-628 2242v-2242h-704v2860h1164l577 -2062l580 2062h1121z" />
    <glyph glyph-name="N" unicode="N" horiz-adv-x="2903" 
d="M2781 0h-1004l-951 2146v-2146h-704v2860h1064l891 -1996v1996h704v-2860z" />
    <glyph glyph-name="O" unicode="O" horiz-adv-x="3004" 
d="M92 1430q0 226 47.5 424.5t135.5 364t213.5 295.5t282 220.5t341 138t390.5 47.5t390 -47.5t341 -138t282.5 -220.5t213.5 -295.5t135.5 -364t47.5 -424.5t-47.5 -424.5t-135.5 -364t-213.5 -295.5t-282.5 -220.5t-341.5 -138t-389.5 -47.5q-206 0 -390.5 47.5t-341 138
t-282 220.5t-213.5 295.5t-135.5 364t-47.5 424.5zM836 1430q0 -214 43.5 -377.5t128 -273t209 -165.5t285.5 -56t285 56t209 165.5t128.5 273t43.5 377.5q0 215 -43.5 378t-128.5 273t-209 165.5t-285 55.5t-285.5 -55.5t-209 -165.5t-128 -273t-43.5 -378z" />
    <glyph glyph-name="P" unicode="P" horiz-adv-x="2708" 
d="M122 2860h1367q168 0 316.5 -32t273.5 -92t224.5 -145.5t169 -193.5t106.5 -236t37 -272t-37 -272.5t-106.5 -236.5t-169.5 -194t-225 -146t-273.5 -92t-315.5 -32h-629v-916h-738v2860zM1455 1504q100 0 178.5 26t133 75.5t83 121t28.5 162.5q0 90 -28.5 161.5
t-82.5 120.5t-132 75t-177 26h-598v-768h595z" />
    <glyph glyph-name="Q" unicode="Q" horiz-adv-x="3004" 
d="M92 1430q0 226 47.5 424.5t135.5 364t213.5 295.5t282.5 220.5t341.5 138t389.5 47.5q206 0 390.5 -47.5t341 -138t282 -220.5t213.5 -295.5t135.5 -364t47.5 -424.5q0 -213 -42 -401t-120.5 -347t-190.5 -288t-253 -223l539 -595h-740l-314 389q-70 -12 -142 -18.5
t-147 -6.5q-205 0 -389.5 47.5t-341.5 138t-282.5 220.5t-213.5 295.5t-135.5 364t-47.5 424.5zM818 1430q0 -214 46.5 -377.5t134.5 -273t215 -165.5t288 -56t288 56t215 165.5t134.5 273t46.5 377.5q0 215 -46.5 378t-134.5 273t-215 165.5t-288 55.5t-288 -55.5
t-215 -165.5t-134.5 -273t-46.5 -378z" />
    <glyph glyph-name="R" unicode="R" horiz-adv-x="2757" 
d="M122 0v2861h1429q255 0 453.5 -60.5t335 -173.5t207.5 -275.5t71 -366.5q0 -177 -56 -321.5t-159.5 -248t-250 -162.5t-328.5 -65q176 -12 310 -124.5t230 -326.5l331 -737h-821l-337 736q-39 86 -74 141.5t-75.5 87.5t-91 44.5t-121.5 12.5h-315v-1022h-738zM1470 1592
q98 0 174 23t128 67t79.5 108.5t27.5 146.5q0 164 -105.5 250t-304.5 86h-609v-681h610z" />
    <glyph glyph-name="S" unicode="S" horiz-adv-x="2713" 
d="M1343 2920q285 0 512 -67.5t385.5 -194t242.5 -308.5t84 -412h-704q0 93 -37.5 167t-106.5 125.5t-167 79.5t-219 28q-100 0 -190.5 -19.5t-159.5 -57.5t-109.5 -94t-40.5 -130q0 -75 36.5 -121t110.5 -76t185.5 -50t262.5 -42l101 -15q89 -13 185 -28.5t192 -37.5
t189 -53t177 -76t155 -105.5t122.5 -141t80.5 -184t29 -233.5q0 -226 -90 -400.5t-258 -293t-407.5 -179.5t-538.5 -61q-319 0 -564 69t-411 198.5t-251 316.5t-85 424h704q0 -100 41.5 -179.5t119.5 -134t190 -83.5t253 -29q120 0 223 21t178.5 62.5t119 103t43.5 142.5
t-37.5 130t-111 80t-183 49.5t-253.5 37.5l-134 19q-87 12 -180.5 25.5t-187.5 34t-185.5 50t-174 72t-152.5 100t-121 135t-79.5 177t-28.5 225.5q0 152 42.5 280t121 231.5t190.5 182.5t250 132.5t300 80.5t341 27z" />
    <glyph glyph-name="T" unicode="T" horiz-adv-x="2494" 
d="M2462 2248h-846v-2248h-738v2248h-846v612h2430v-612z" />
    <glyph glyph-name="U" unicode="U" horiz-adv-x="2768" 
d="M122 2860h738v-1654q0 -170 34 -292.5t100.5 -201.5t164.5 -116.5t225 -37.5q128 0 226 37.5t164 116.5t100 201.5t34 292.5v1654h738v-1720q0 -289 -93 -512.5t-260.5 -376.5t-399 -232t-509.5 -79q-185 0 -350 35.5t-305.5 104.5t-252.5 171t-191 235.5t-121 297
t-42 356.5v1720z" />
    <glyph glyph-name="V" unicode="V" horiz-adv-x="2762" 
d="M2775 2860l-894 -2860h-1014l-880 2860h787l609 -2321l621 2321h771z" />
    <glyph glyph-name="W" unicode="W" horiz-adv-x="4374" 
d="M2686 2860l407 -2385l464 2385h755l-680 -2860h-1026l-420 2310l-424 -2310h-1026l-674 2860h789l458 -2385l413 2385h964z" />
    <glyph glyph-name="X" unicode="X" horiz-adv-x="2795" 
d="M1881 1455l906 -1455h-862l-564 998l-547 -998h-807l857 1456l-812 1404h858l486 -957l528 957h807z" />
    <glyph glyph-name="Y" unicode="Y" horiz-adv-x="2742" 
d="M2765 2860l-1027 -1841v-1019h-738v1019l-1023 1841h803l594 -1166l604 1166h787z" />
    <glyph glyph-name="Z" unicode="Z" horiz-adv-x="2549" 
d="M980 612h1447v-612h-2305v642l1349 1606h-1299v612h2155v-642z" />
    <glyph glyph-name="bracketleft" unicode="[" horiz-adv-x="1216" 
d="M1164 3012v-508h-372v-2434h372v-508h-1072v3450h1072z" />
    <glyph glyph-name="backslash" unicode="\" horiz-adv-x="1867" 
d="M1741.01 -758l-951.942 3718h-676.958l951.941 -3718h676.959z" />
    <glyph glyph-name="bracketright" unicode="]" horiz-adv-x="1216" 
d="M52.0713 -437.816v507.969h371.978v2433.85h-371.978v507.97h1071.93v-3449.79h-1071.93z" />
    <glyph glyph-name="asciicircum" unicode="^" horiz-adv-x="1743" 
d="M871 2469l-298 -939h-451l452 1330h594l452 -1330h-451z" />
    <glyph glyph-name="underscore" unicode="_" horiz-adv-x="2247" 
d="M2125 -480h-2003v480h2003v-480z" />
    <glyph glyph-name="grave" unicode="`" horiz-adv-x="1132" 
d="M122 2934h592l296 -639h-436z" />
    <glyph glyph-name="a" unicode="a" horiz-adv-x="2390" 
d="M117 1377q0 206 75.5 370t216.5 279.5t342.5 177t453.5 61.5q257 0 458 -64.5t340 -187t212 -300.5t73 -405v-1308h-696v550q-35 -141 -108.5 -254t-179 -192t-239 -121.5t-288.5 -42.5q-163 0 -296.5 46.5t-229 131t-147.5 203t-52 263.5q0 159 63.5 284.5t185 211.5
t297 131.5t398.5 45.5h596v51q0 103 -26.5 183.5t-78 136t-126.5 84.5t-173 29t-169 -25t-117.5 -71.5t-69 -114t-22.5 -153.5h-693zM1090 881q-168 0 -253.5 -55.5t-85.5 -164.5t85 -169t241 -60q110 0 204 29.5t163 80.5t108.5 121t39.5 151v67h-502z" />
    <glyph glyph-name="b" unicode="b" horiz-adv-x="2450" 
d="M808 1542q34 176 96 311t151.5 226.5t204 138.5t253.5 47q129 0 243 -38.5t210.5 -110t173.5 -174.5t131 -232t82.5 -282t28.5 -325t-28.5 -325t-82.5 -282.5t-131 -232t-173.5 -174.5t-211 -110.5t-242.5 -38.5q-139 0 -253.5 47t-204 139t-151.5 227t-96 311v-664h-696
v2960h696v-1418zM808 1103q0 -138 29 -244t84.5 -178t137.5 -109t188 -37q216 0 324.5 142t108.5 426q0 282 -109 424.5t-324 142.5q-106 0 -188 -37t-137.5 -108.5t-84.5 -177.5t-29 -244z" />
    <glyph glyph-name="c" unicode="c" horiz-adv-x="2352" 
d="M770 1103q0 -137 29 -242.5t84.5 -177t137 -108t185.5 -36.5q86 0 151 25t112 71t77 111t45 145h693q-26 -213 -115 -388t-229.5 -300.5t-326.5 -194t-407 -68.5q-166 0 -315 37t-275.5 107.5t-228 172t-172.5 230.5t-109 284t-38 332t38 331.5t109 284t172.5 231
t228 171.5t275.5 107t315 37q221 0 407.5 -68.5t326.5 -193.5t229 -300.5t115 -388.5h-693q-15 80 -45 145t-77 111t-112 71t-151 25q-104 0 -185.5 -36.5t-137 -107.5t-84.5 -176.5t-29 -242.5z" />
    <glyph glyph-name="d" unicode="d" horiz-adv-x="2450" 
d="M2338 2960v-2960h-696v664q-34 -176 -96 -311t-151.5 -227t-204 -139t-253.5 -47q-128 0 -242.5 38.5t-211 110.5t-173.5 174.5t-131 232t-82.5 282.5t-28.5 325t28.5 325t82.5 282t131 232t173.5 174.5t211 110t242.5 38.5q139 0 253.5 -47t204 -138.5t151.5 -226.5
t96 -311v1418h696zM1642 1103q0 138 -29 244t-84.5 177.5t-137.5 108.5t-188 37q-214 0 -323.5 -142.5t-109.5 -424.5q0 -284 108.5 -426t324.5 -142q106 0 188 37t137.5 109t84.5 178t29 244z" />
    <glyph glyph-name="e" unicode="e" horiz-adv-x="2356" 
d="M2278 755q-46 -190 -144 -341t-238 -256.5t-317.5 -161.5t-381.5 -56q-168 0 -317 38t-274.5 109.5t-225 174t-169 232t-106.5 283.5t-37 327t36.5 326.5t105 282.5t167 231.5t223 173.5t272 109t313.5 38t312 -37.5t268.5 -108t219.5 -172.5t164.5 -231t103 -282.5
t35.5 -327.5q0 -83 -9 -166h-1550q13 -110 52 -196t101 -145.5t146.5 -91t188.5 -31.5q154 0 257.5 69.5t162.5 209.5h641zM1634 1320q-71 421 -444 421q-192 0 -307.5 -108t-147.5 -313h899z" />
    <glyph glyph-name="f" unicode="f" horiz-adv-x="1685" 
d="M310 1661h-278v544h278v68q0 199 57.5 351.5t170 256t278 156.5t380.5 53q95 0 200 -10t212 -29v-518q-75 13 -146 19.5t-131 6.5q-184 0 -270.5 -72t-86.5 -224v-58h634v-544h-602v-1661h-696v1661z" />
    <glyph glyph-name="g" unicode="g" horiz-adv-x="2450" 
d="M2338 2205v-1962q0 -246 -75 -442.5t-216 -334t-343.5 -211t-457.5 -73.5q-161 0 -303 28.5t-261.5 82.5t-214 131.5t-160 175.5t-100.5 215t-35 249h693q0 -84 26.5 -150.5t74.5 -113t116 -71t151 -24.5q98 0 174 36t128.5 104t79.5 167.5t27 226.5v564
q-34 -163 -96.5 -289t-152 -211t-205 -129t-255.5 -44q-127 0 -240.5 35.5t-210 102.5t-173 162.5t-130.5 215.5t-82.5 262t-28.5 302q0 239 63.5 434t178 333t273.5 213t350 75q281 0 461 -163.5t248 -486.5v590h696zM1642 1210q0 234 -113.5 347t-329.5 113
q-106 0 -186 -27t-134 -83t-81.5 -143t-27.5 -207q0 -241 108 -363t321 -122q108 0 190.5 32t138.5 93.5t85 152t29 207.5z" />
    <glyph glyph-name="h" unicode="h" 
d="M808 0h-696v2960h696v-1430q65 364 255 549.5t498 185.5q347 0 522 -241.5t175 -718.5v-1305h-696v1155q0 257 -89 384t-271 127q-192 0 -293 -133.5t-101 -393.5v-1139z" />
    <glyph glyph-name="i" unicode="i" horiz-adv-x="920" 
d="M812 2424h-704v536h704v-536zM808 0h-696v2205h696v-2205z" />
    <glyph glyph-name="j" unicode="j" horiz-adv-x="920" 
d="M812 2424h-704v536h704v-536zM808 189q0 -273 -52 -464t-165.5 -312t-293.5 -176t-437 -55h-87v560h64q94 0 149 29.5t83 78.5t35.5 111.5t7.5 128.5v2115h696v-2016z" />
    <glyph glyph-name="k" unicode="k" horiz-adv-x="2401" 
d="M1384 1101l1000 -1101h-857l-719 817v-817h-696v2960h696v-1659l701 904h800z" />
    <glyph glyph-name="l" unicode="l" horiz-adv-x="920" 
d="M808 0h-696v2960h696v-2960z" />
    <glyph glyph-name="m" unicode="m" horiz-adv-x="3706" 
d="M808 0h-696v2205h696v-666q64 358 247.5 542t478.5 184q599 0 663 -774q56 380 243.5 577t491.5 197q335 0 503.5 -241.5t168.5 -718.5v-1305h-696v1155q0 257 -83 384t-253 127q-178 0 -272 -133.5t-94 -393.5v-1139h-696v1155q0 257 -83 384t-253 127
q-178 0 -272 -133.5t-94 -393.5v-1139z" />
    <glyph glyph-name="n" unicode="n" 
d="M808 0h-696v2205h696v-675q65 364 255 549.5t498 185.5q347 0 522 -241.5t175 -718.5v-1305h-696v1155q0 257 -89 384t-271 127q-192 0 -293 -133.5t-101 -393.5v-1139z" />
    <glyph glyph-name="o" unicode="o" horiz-adv-x="2412" 
d="M68 1103q0 177 38 331.5t109 284t172.5 231t228 171.5t275.5 107t315 37q167 0 316 -37t275 -107t227.5 -171.5t172.5 -231t109 -284t38 -331.5t-38 -332t-109 -284t-172.5 -230.5t-227.5 -172t-275 -107.5t-316 -37q-166 0 -315 37t-275.5 107.5t-228 172t-172.5 230.5
t-109 284t-38 332zM770 1103q0 -137 29 -242.5t85 -177t137 -108t186 -36.5t186 36.5t136.5 108t84 177t28.5 242.5t-28.5 242.5t-84 176.5t-136.5 107.5t-186 36.5t-186 -36.5t-137 -107.5t-85 -176.5t-29 -242.5z" />
    <glyph glyph-name="p" unicode="p" horiz-adv-x="2450" 
d="M808 1542q34 176 96 311t151.5 226.5t204 138.5t253.5 47q129 0 243 -38.5t210.5 -110t173.5 -174.5t131 -232t82.5 -282t28.5 -325t-28.5 -325t-82.5 -282.5t-131 -232t-173.5 -174.5t-211 -110.5t-242.5 -38.5q-139 0 -253.5 47t-204 139t-151.5 227t-96 311v-1421
h-696v2962h696v-663zM808 1103q0 -138 29 -244t84.5 -178t137.5 -109t188 -37q216 0 324.5 142t108.5 426q0 282 -109 424.5t-324 142.5q-106 0 -188 -37t-137.5 -108.5t-84.5 -177.5t-29 -244z" />
    <glyph glyph-name="q" unicode="q" horiz-adv-x="2450" 
d="M2338 2205v-2962h-696v1421q-34 -176 -96 -311t-151.5 -227t-204 -139t-253.5 -47q-128 0 -242.5 38.5t-211 110.5t-173.5 174.5t-131 232t-82.5 282.5t-28.5 325t28.5 325t82.5 282t131 232t173.5 174.5t211 110t242.5 38.5q139 0 253.5 -47t204 -138.5t151.5 -226.5
t96 -311v663h696zM1642 1103q0 138 -29 244t-84.5 177.5t-137.5 108.5t-188 37q-214 0 -323.5 -142.5t-109.5 -424.5q0 -284 108.5 -426t324.5 -142q106 0 188 37t137.5 109t84.5 178t29 244z" />
    <glyph glyph-name="r" unicode="r" horiz-adv-x="1691" 
d="M808 0h-696v2205h696v-797q26 183 76.5 330.5t132.5 251t198 159.5t272 56h147v-652h-298q-155 0 -257 -35t-162 -107t-84.5 -183t-24.5 -263v-965z" />
    <glyph glyph-name="s" unicode="s" horiz-adv-x="2278" 
d="M1100 2265q252 0 450 -54t334.5 -156t208 -248t71.5 -330h-689q0 146 -90 226t-267 80q-75 0 -137.5 -14.5t-107.5 -41t-69.5 -64t-24.5 -82.5q0 -58 33 -95.5t91 -62t135.5 -40.5t167.5 -32l148 -26q87 -15 185.5 -35t195 -51.5t185 -79t156 -117.5t108 -166.5
t40.5 -227.5q0 -169 -71 -300.5t-207.5 -222t-335 -138t-454.5 -47.5q-270 0 -476.5 53t-346.5 155.5t-212 252.5t-72 344h689q0 -155 102 -236t310 -81q89 0 160 14.5t121 41.5t77 66t27 88q0 61 -31 99.5t-89.5 64t-142.5 43t-190 36.5l-148 27q-80 14 -173.5 33t-187 50
t-181 77t-154.5 114.5t-107 163t-40 222.5q0 163 69 292t198.5 219t317 138t424.5 48z" />
    <glyph glyph-name="t" unicode="t" horiz-adv-x="1655" 
d="M1578 17q-147 -38 -274.5 -57.5t-239.5 -19.5q-380 0 -574 221t-194 658v842h-264v544h264v508h696v-508h586v-544h-586v-843q0 -175 63.5 -255t204.5 -80q58 0 135 13t183 39v-518z" />
    <glyph glyph-name="u" unicode="u" 
d="M1552 2205h696v-2205h-696v675q-65 -364 -255 -549.5t-498 -185.5q-346 0 -521.5 241.5t-175.5 718.5v1305h696v-1155q0 -257 89 -384t271 -127q192 0 293 133.5t101 393.5v1139z" />
    <glyph glyph-name="v" unicode="v" horiz-adv-x="2372" 
d="M2365 2205l-718 -2205h-930l-710 2205h735l449 -1746l455 1746h719z" />
    <glyph glyph-name="w" unicode="w" horiz-adv-x="3707" 
d="M2324 2205l321 -1727l360 1727h680l-535 -2205h-966l-330 1735l-330 -1735h-966l-535 2205h711l358 -1754l324 1754h908z" />
    <glyph glyph-name="x" unicode="x" horiz-adv-x="2525" 
d="M1785 1118l722 -1118h-802l-458 784l-443 -784h-761l681 1109l-689 1096h803l425 -776l418 776h760z" />
    <glyph glyph-name="y" unicode="y" horiz-adv-x="2372" 
d="M2365 2205l-806 -2229q-74 -206 -174.5 -356t-232.5 -247.5t-299 -144t-373 -46.5q-175 0 -382 36v550q77 -11 140.5 -16.5t120.5 -5.5q79 0 145 11t121.5 33.5t102 58t85.5 85.5l-806 2271h735l449 -1684l455 1684h719z" />
    <glyph glyph-name="z" unicode="z" horiz-adv-x="2173" 
d="M837 544h1269v-544h-2039v578l1163 1083h-1124v544h1923v-578z" />
    <glyph glyph-name="braceleft" unicode="{" horiz-adv-x="1560" 
d="M1508 2504h-90q-163 0 -238.5 -83.5t-75.5 -255.5v-242q0 -74 -6 -147t-22.5 -140.5t-44.5 -127t-72.5 -106t-107 -76.5t-147.5 -40q86 -9 148.5 -39.5t107 -76t72.5 -105t44 -128t22 -143.5t6 -152v-242q0 -166 75.5 -248t238.5 -82h90v-508h-229q-434 0 -654.5 211
t-220.5 628v284q0 84 -15 145t-47 100t-81.5 57.5t-118.5 18.5h-50v562h50q70 0 120 18t81.5 56.5t46 99.5t14.5 147v284q0 839 874 839h230v-508z" />
    <glyph glyph-name="bar" unicode="|" horiz-adv-x="881" 
d="M122 -370v3600h636v-3600h-636z" />
    <glyph glyph-name="braceright" unicode="}" horiz-adv-x="1560" 
d="M52.0918 70.1523h89.9951q162.989 0 238.485 83.4951q75.4951 83.4951 75.4951 255.484v241.985q0 73.9961 6 146.991q5.99902 72.9951 22.498 140.491t44.4971 126.992q27.999 59.4971 72.4961 105.994t106.993 76.4951t147.491 39.9971q-85.9951 9 -148.491 39.498
t-106.993 75.9951t-72.4961 104.994q-27.998 59.4961 -43.9971 127.992q-15.999 68.4951 -21.998 143.491q-6 74.9951 -6 151.99v241.985q0 165.99 -75.4951 247.985q-75.4961 81.9941 -238.485 81.9941h-89.9951v507.97h228.986q433.974 0 654.46 -210.987
t220.486 -627.962v-283.982q0 -83.9951 14.999 -144.991t46.9971 -99.9941q31.998 -38.9971 81.4951 -57.4961t118.493 -18.499h49.9971v-561.966h-49.9971q-69.9961 0 -119.993 -17.999q-49.9961 -17.999 -81.4951 -56.4961q-31.498 -38.498 -45.9971 -99.4941
t-14.499 -146.991v-283.982q0 -838.949 -873.946 -838.949h-229.986v507.969z" />
    <glyph glyph-name="asciitilde" unicode="~" horiz-adv-x="2381" 
d="M2258 2303q0 -271 -27.5 -458t-89 -303t-161 -168t-243.5 -52q-95 0 -183 19.5t-166 48.5t-145 62t-120 61l-89 47q-39 21 -82.5 43t-88 40t-89 29.5t-87.5 11.5q-48 0 -81.5 -17.5t-54 -57t-30 -102t-9.5 -152.5v-13h-390v19q0 257 31 442.5t96 305t165.5 176
t240.5 56.5q81 0 157.5 -17.5t145 -43.5t128.5 -57.5t109 -58.5l90 -48q42 -22 89.5 -46t97.5 -44.5t102.5 -33.5t104.5 -13q53 0 89 16.5t58.5 53t32.5 96t10 146.5v31h389v-19z" />
    <glyph glyph-name="exclamdown" unicode="&#xa1;" horiz-adv-x="929" 
d="M788 -654.825v494.97l-54 1444.91h-540l-54 -1444.91v-494.97h648zM801 2205h-672v-695.957h672v695.957z" />
    <glyph glyph-name="cent" unicode="&#xa2;" horiz-adv-x="2352" 
d="M770 1103q0 -137 29 -242.5t84.5 -177t137 -108t185.5 -36.5q86 0 151 25t112 71t77 111t45 145h693q-22 -181 -90 -334.5t-174 -273t-247 -200.5t-311 -117l36 -467h-584l37 465q-198 38 -360.5 134.5t-279 243t-180 339t-63.5 422.5t63.5 422t180 338.5t279 243
t360.5 134.5l-37 464h584l-37 -466q170 -35 311.5 -116t248 -200.5t174 -273.5t89.5 -335h-693q-15 80 -45 145t-77 111t-112 71t-151 25q-104 0 -185.5 -36.5t-137 -107.5t-84.5 -176.5t-29 -242.5z" />
    <glyph glyph-name="sterling" unicode="&#xa3;" horiz-adv-x="2749" 
d="M1931 1938v67q0 74 -32.5 134.5t-92 104t-142.5 67.5t-184 24q-107 0 -192 -27.5t-144 -79t-90.5 -125.5t-31.5 -167q0 -78 20.5 -169t48.5 -184l10 -33h1074v-488h-969q0 -85 -20 -163t-61.5 -142t-105 -111t-149.5 -70h1787v-576h-2535v576h247q128 0 189.5 58.5
t61.5 184.5q0 54 -11 114t-32 129h-455v488h284q-32 100 -55 214t-23 232q0 137 37.5 258.5t108 224.5t171 184.5t227 138.5t276.5 87.5t318 30.5q170 0 321.5 -30.5t280.5 -87.5t232.5 -138.5t176 -183t111.5 -221t39 -252.5v-69h-696z" />
    <glyph glyph-name="currency" unicode="&#xa4;" horiz-adv-x="3091" 
d="M122 2860h2847v-2860h-2847v2860zM1545 1695l703 770h-1403zM569 624l735 806l-735 807v-1613zM2522 622v1614l-735 -806zM843 395h1402l-700 770z" />
    <glyph glyph-name="yen" unicode="&#xa5;" horiz-adv-x="2742" 
d="M2393 1300h-498l-123 -220h621v-432h-655v-648h-738v648h-655v432h621l-122 220h-499v432h259l-627 1128h803l594 -1166l604 1166h787l-629 -1128h257v-432z" />
    <glyph glyph-name="brokenbar" unicode="&#xa6;" horiz-adv-x="881" 
d="M122 1670v1560h636v-1560h-636zM122 -370v1560h636v-1560h-636z" />
    <glyph glyph-name="section" unicode="&#xa7;" horiz-adv-x="2278" 
d="M1099 2920q252 0 450 -54t334.5 -156t208.5 -248t72 -330h-689q0 147 -90.5 226.5t-267.5 79.5q-75 0 -137.5 -14.5t-107 -41t-69 -64t-24.5 -82.5q0 -58 33 -95.5t90.5 -62t135.5 -40.5t168 -32l147 -26q87 -15 185.5 -35t195 -51.5t185 -78.5t156.5 -117.5t108 -167
t40 -227.5q0 -137 -47 -247.5t-139 -195.5q84 -72 135 -177t51 -254q0 -168 -71 -299.5t-207 -222t-334.5 -138t-454.5 -47.5q-270 0 -476.5 53t-347 155.5t-212 252.5t-71.5 344h689q0 -155 101.5 -236t310.5 -81q89 0 160 14.5t121 41.5t77 66t27 88q0 61 -31.5 99.5
t-90 64t-142.5 43t-190 36.5l-147 27q-80 14 -173.5 33t-187 50t-181 77t-154.5 114.5t-107 163t-40 222.5q0 137 49 249t144 197q-43 36 -78.5 79.5t-61 96t-39.5 115.5t-14 137q0 162 68.5 291t198.5 219t317 138t424 48zM996 1552q-100 -19 -158.5 -68.5t-58.5 -120.5
q0 -58 33 -95.5t90.5 -62t135.5 -40.5t168 -32l132 -24q92 22 144.5 70t52.5 115q0 60 -31.5 98.5t-90 64t-142.5 43.5t-190 37z" />
    <glyph glyph-name="dieresis" unicode="&#xa8;" horiz-adv-x="1487" 
d="M659 2323h-537v557h537v-557zM1364 2323h-537v557h537v-557z" />
    <glyph glyph-name="copyright" unicode="&#xa9;" horiz-adv-x="3765" 
d="M1897 3218q252 0 481.5 -61.5t426.5 -174.5t357 -273t273.5 -357t175 -426.5t61.5 -481.5q0 -254 -63 -487t-178 -433.5t-277.5 -364t-362 -279t-430.5 -178.5t-484 -63q-251 0 -481 62.5t-428.5 177t-360 276t-275.5 359.5t-176.5 428.5t-62.5 481.5q0 253 63 484.5
t178.5 430.5t278.5 361.5t363.5 277.5t433.5 177.5t487 62.5zM1894 2822q-199 0 -378 -47.5t-331.5 -135t-275.5 -212.5t-209.5 -280t-133 -336.5t-46.5 -382.5q0 -200 46 -381.5t131.5 -336t207 -279.5t271.5 -213t325.5 -135.5t369.5 -47.5q197 0 375 48.5t330.5 138.5
t276 217t211 284.5t134.5 341t47 386.5q0 199 -45.5 378t-130.5 331.5t-205.5 274.5t-270.5 208t-326.5 132.5t-372.5 46.5zM1553 1428q0 -238 92 -359.5t265 -121.5q146 0 228 84t106 237h487q-18 -166 -85.5 -302t-175.5 -233.5t-251.5 -151t-313.5 -53.5
q-124 0 -235 28.5t-205.5 83t-169.5 133.5t-128 179t-81.5 219.5t-28.5 256.5q0 206 63 372t175.5 283.5t268 181t341.5 63.5q171 0 314.5 -53.5t251 -150.5t175 -233.5t85.5 -302.5h-487q-24 153 -106 237t-228 84q-174 0 -265.5 -121.5t-91.5 -359.5z" />
    <glyph glyph-name="ordfeminine" unicode="&#xaa;" horiz-adv-x="1698" 
d="M164 2343q0 134 49 241t140.5 182t222.5 115t295 40q167 0 298 -42t221 -121.5t137.5 -195.5t47.5 -263v-851h-464v357q-23 -91 -70.5 -164.5t-115 -125t-153 -79t-185.5 -27.5q-105 0 -190.5 30t-146.5 85t-94.5 132.5t-33.5 171.5q0 104 41.5 185t120 137t192.5 85.5
t259 29.5h376v23q0 134 -64.5 207t-185.5 73t-177.5 -59.5t-56.5 -165.5h-463zM805 2009q-107 0 -162 -33t-55 -99q0 -65 52.5 -100.5t148.5 -35.5q69 0 127.5 18t102 50t68 75t24.5 92v33h-306z" />
    <glyph glyph-name="guillemotleft" unicode="&#xab;" horiz-adv-x="3104" 
d="M1070 2098h770l-978 -995l978 -994h-770l-947 992zM2272 2098h770l-978 -995l978 -994h-770l-947 992z" />
    <glyph glyph-name="logicalnot" unicode="&#xac;" horiz-adv-x="3091" 
d="M122 2860h2847v-2860h-2847v2860zM1545 1695l703 770h-1403zM569 624l735 806l-735 807v-1613zM2522 622v1614l-735 -806zM843 395h1402l-700 770z" />
    <glyph glyph-name="registered" unicode="&#xae;" horiz-adv-x="3765" 
d="M1897 3218q252 0 481.5 -61.5t426.5 -174.5t357.5 -273t273.5 -357.5t174.5 -426.5t61.5 -481q0 -254 -62.5 -487t-178 -433.5t-277.5 -364t-361.5 -279t-431 -178.5t-484.5 -63q-251 0 -481 62.5t-428.5 177t-360 276t-275.5 360t-176.5 428.5t-62.5 482q0 253 63 484
t178.5 430t278.5 361.5t363.5 277.5t433.5 177.5t487 62.5zM1894 2822q-198 0 -377 -47.5t-332 -135t-276 -212t-209.5 -279.5t-133 -336.5t-46.5 -383.5q0 -200 46 -381t131.5 -336t206.5 -280t271.5 -213t326 -135.5t369.5 -47.5q197 0 375 48.5t330.5 138.5t276 217.5
t211 285t134.5 341t47 386.5q0 199 -45.5 378t-130.5 331t-205.5 274.5t-270.5 208.5t-326.5 132t-372.5 46zM1187 585v1676h869q148 0 265 -35t198 -101.5t123.5 -162t42.5 -216.5q0 -103 -34.5 -188.5t-97.5 -147.5t-151 -98.5t-195 -40.5q221 -15 331 -260l192 -426h-540
l-194 410q-24 51 -44 82.5t-41.5 48.5t-47 23t-60.5 6h-125v-570h-491zM1964 1525q110 0 169.5 43t59.5 124t-59 123t-171 42h-285v-332h286z" />
    <glyph glyph-name="macron" unicode="&#xaf;" horiz-adv-x="1380" 
d="M1258 2420h-1136v364h1136v-364z" />
    <glyph glyph-name="degree" unicode="&#xb0;" horiz-adv-x="1400" 
d="M93 2322q0 130 45.5 240t126 189.5t192 124.5t243.5 45t243.5 -45t192 -124.5t126 -189.5t45.5 -240t-45.5 -240.5t-126 -190t-192 -124.5t-243.5 -45t-243.5 45t-192 124.5t-126 190t-45.5 240.5zM472 2322q0 -123 60 -190.5t169 -67.5t168.5 67t59.5 191
q0 123 -59.5 190t-168.5 67t-169 -67.5t-60 -189.5z" />
    <glyph glyph-name="plusminus" unicode="&#xb1;" horiz-adv-x="2120" 
d="M784 508v679h-662v518h662v679h552v-679h662v-518h-662v-679h-552zM122 0v518h1876v-518h-1876z" />
    <glyph glyph-name="twosuperior" unicode="&#xb2;" horiz-adv-x="1452" 
d="M122 1431v227q0 89 21.5 157t57 119t81.5 87.5t95.5 62t99 43t91.5 31.5l122 39q43 14 88 30.5t82 41.5t61 60.5t24 87.5q0 78 -56 121t-158 43q-112 0 -164.5 -56t-52.5 -175v-28h-385v33q0 130 43 234.5t123 178t194 113t256 39.5q135 0 243.5 -36t184 -102.5
t116.5 -162t41 -214.5q0 -90 -22 -157.5t-59 -117t-84.5 -84t-98.5 -58t-101.5 -38.5t-92.5 -27l-116 -31q-33 -9 -68 -19.5t-67 -25.5t-58 -35.5t-40 -49.5h803v-331h-1204z" />
    <glyph glyph-name="threesuperior" unicode="&#xb3;" horiz-adv-x="1528" 
d="M122 2410q0 122 40.5 217t118.5 160t192 99t260 34q137 0 248 -29t190 -82t122 -127.5t43 -165.5q0 -67 -23 -124t-64 -100t-98.5 -70t-126.5 -34q89 -5 160 -31t120.5 -70t75.5 -104.5t26 -135.5q0 -99 -45.5 -180t-129 -138.5t-202 -88.5t-264.5 -31q-153 0 -273 35
t-202 103.5t-125 168t-43 228.5v4h379v-15q0 -90 66.5 -138.5t191.5 -48.5q61 0 109.5 11.5t82.5 33.5t52.5 53t18.5 70q0 29 -11 49.5t-36 33.5t-64.5 18.5t-96.5 5.5h-238v309h220q84 0 123 26t39 80q0 70 -60.5 108t-171.5 38q-221 0 -221 -164v-11h-383v3z" />
    <glyph glyph-name="acute" unicode="&#xb4;" horiz-adv-x="1132" 
d="M1010.01 2934h-591.964l-295.982 -639h435.974z" />
    <glyph glyph-name="paragraph" unicode="&#xb6;" horiz-adv-x="3116" 
d="M2994 -758h-696v3618h696v-3618zM2007 -758h-696v1576h-84q-165 0 -311.5 33t-269 95.5t-220 152t-165 203t-103.5 249t-36 288.5t36 288.5t103.5 249t165 203t220 152t269 95.5t311.5 33h780v-3618z" />
    <glyph glyph-name="periodcentered" unicode="&#xb7;" horiz-adv-x="917" 
d="M794 850h-672v696h672v-696z" />
    <glyph glyph-name="cedilla" unicode="&#xb8;" horiz-adv-x="1038" 
d="M464 8l-30 -160q110 -2 199 -24t152 -61.5t97 -94.5t34 -123q0 -73 -39.5 -133.5t-111.5 -103.5t-173 -66.5t-224 -23.5q-57 0 -118.5 5.5t-127.5 16.5v262q107 -22 195 -22q109 0 168 28.5t59 72.5q0 26 -22 49t-66.5 40t-110.5 27t-155 10l54 301h220z" />
    <glyph glyph-name="onesuperior" unicode="&#xb9;" horiz-adv-x="1091" 
d="M772 1758h197v-327h-787v327h197v629h-257v309h91q63 0 105 8t67 27t35 51t10 80h342v-1104z" />
    <glyph glyph-name="ordmasculine" unicode="&#xba;" horiz-adv-x="1724" 
d="M122 2165q0 172 54.5 311.5t153 238t234.5 152t298 53.5t298 -53.5t234 -152t153 -238t55 -311.5t-55 -312t-153 -238.5t-234 -152t-298 -53.5t-298 53.5t-234 152t-153 238.5t-55 312zM591 2165q0 -174 70 -264t201 -90t201 90t70 264t-70 263.5t-201 89.5t-201 -89.5
t-70 -263.5z" />
    <glyph glyph-name="guillemotright" unicode="&#xbb;" horiz-adv-x="3104" 
d="M2034.07 109.128h-769.953l977.94 994.939l-977.94 993.939h769.953l946.942 -991.939zM832.139 109.128h-769.953l977.94 994.939l-977.94 993.939h769.953l946.942 -991.939z" />
    <glyph glyph-name="onequarter" unicode="&#xbc;" horiz-adv-x="2915" 
d="M772 1757h197v-327h-787v327h197v629h-257v309h91q63 0 105 8t67 27t35 51t10 80h342v-1104zM2220 0v288h-768v343l688 799h472v-821h180v-321h-180v-288h-392zM2220 609v440l-376 -440h376zM221 0l2084 2960h441l-2084 -2960h-441z" />
    <glyph glyph-name="onehalf" unicode="&#xbd;" horiz-adv-x="3039" 
d="M216 0l2084 2960h441l-2084 -2960h-441zM1708 0v227q0 89 21.5 157t57 119t81.5 87.5t95.5 62t99 43t91.5 31.5l122 39q43 14 88 30.5t82 41.5t61 60.5t24 87.5q0 78 -56 121t-158 43q-112 0 -164.5 -56t-52.5 -175v-28h-385v33q0 130 43 234.5t123 178t194 113t256 39.5
q135 0 243.5 -36t184 -102.5t116.5 -162t41 -214.5q0 -90 -22 -157.5t-59 -117t-84.5 -84t-98.5 -58t-101.5 -38.5t-92.5 -27l-116 -31q-33 -9 -68 -19.5t-67 -25.5t-58 -35.5t-40 -49.5h803v-331h-1204zM772 1758h197v-327h-787v327h197v629h-257v309h91q63 0 105 8t67 27
t35 51t10 80h342v-1104z" />
    <glyph glyph-name="threequarters" unicode="&#xbe;" horiz-adv-x="3153" 
d="M2458 0v288h-768v343l688 799h472v-821h180v-321h-180v-288h-392zM2458 609v440l-376 -440h376zM122 2410q0 122 40.5 217t118.5 160t192 99t260 34q137 0 248 -29t190 -82t122 -127.5t43 -165.5q0 -67 -23 -124t-64 -100t-98.5 -70t-126.5 -34q89 -5 160 -31t120.5 -70
t75.5 -104.5t26 -135.5q0 -99 -45.5 -180t-129 -138.5t-202 -88.5t-264.5 -31q-153 0 -273 35t-202 103.5t-125 168t-43 228.5v4h379v-15q0 -90 66.5 -138.5t191.5 -48.5q61 0 109.5 11.5t82.5 33.5t52.5 53t18.5 70q0 29 -11 49.5t-36 33.5t-64.5 18.5t-96.5 5.5h-238v309
h220q84 0 123 26t39 80q0 70 -60.5 108t-171.5 38q-221 0 -221 -164v-11h-383v3zM456 0l2084 2960h441l-2084 -2960h-441z" />
    <glyph glyph-name="questiondown" unicode="&#xbf;" horiz-adv-x="2514" 
d="M1051.09 1325.05h611.963v-167.989q0 -99.9941 -20.999 -178.989q-20.998 -78.9951 -56.4961 -141.491q-35.498 -62.4971 -82.4951 -109.994t-98.9941 -84.9941q-51.9961 -37.498 -104.993 -66.4961t-101.994 -52.9971l-82.9941 -41.9971
q-57.9971 -28.998 -108.494 -56.9971q-50.4971 -27.998 -87.9941 -62.4961q-37.498 -34.498 -59.4961 -79.9951q-21.999 -45.4971 -21.999 -109.493q0 -67.9961 30.998 -122.992q30.998 -54.9971 88.4941 -93.9941q57.4971 -38.998 138.492 -59.9971
q80.9951 -20.998 180.988 -20.998q232.986 0 354.479 121.492q121.493 121.493 121.493 377.478v47.9971h701.957v-60.9971q0 -538.967 -299.981 -806.45q-299.982 -267.484 -881.946 -267.484q-274.983 0 -488.471 57.9971q-213.486 57.9961 -360.478 168.989
t-223.486 272.483t-76.4951 369.478q0 122.992 24.998 218.986t67.4961 170.49q42.4971 74.4951 97.4941 129.992q54.9961 55.4961 114.992 97.4941q59.9971 41.9971 120.493 72.9951t113.493 55.9971l79.9951 38.9971q57.9961 27.998 113.993 56.4971
q55.9961 28.498 99.4932 63.9961q43.498 35.4971 69.9961 79.9951q26.498 44.4971 26.498 103.493v81.9951zM1021.09 2205h671.959v-695.957h-671.959v695.957z" />
    <glyph glyph-name="Agrave" unicode="&#xc0;" horiz-adv-x="2866" 
d="M-13 0l946 2860h1014l932 -2860h-787l-160 585h-1011l-163 -585h-771zM1773 1169l-342 1251l-348 -1251h690zM765 3649h592l296 -639h-436z" />
    <glyph glyph-name="Aacute" unicode="&#xc1;" horiz-adv-x="2866" 
d="M-13 0l946 2860h1014l932 -2860h-787l-160 585h-1011l-163 -585h-771zM1773 1169l-342 1251l-348 -1251h690zM2102.01 3649h-591.964l-295.982 -639h435.974z" />
    <glyph glyph-name="Acircumflex" unicode="&#xc2;" horiz-adv-x="2866" 
d="M-13 0l946 2860h1014l932 -2860h-787l-160 585h-1011l-163 -585h-771zM1773 1169l-342 1251l-348 -1251h690zM1613 3010l-179 308l-181 -308h-410l308 639h564l308 -639h-410z" />
    <glyph glyph-name="Atilde" unicode="&#xc3;" horiz-adv-x="2866" 
d="M-13 0l946 2860h1014l932 -2860h-787l-160 585h-1011l-163 -585h-771zM1773 1169l-342 1251l-348 -1251h690zM2054 3616q0 -156 -18.5 -267.5t-58.5 -183t-102.5 -105.5t-149.5 -34q-50 0 -93 9.5t-79 23.5t-64.5 30t-49.5 29l-60 35q-16 9 -35.5 19.5t-42 20t-46.5 15.5
t-50 6q-52 0 -80 -35.5t-28 -126.5v-6h-239v10q0 303 83.5 448.5t257.5 145.5q45 0 84 -8.5t71 -21.5t57 -27.5t44 -25.5l59 -35q17 -10 39 -22.5t48 -23t55 -18t60 -7.5q49 0 77 35t28 120v15h233v-15z" />
    <glyph glyph-name="Adieresis" unicode="&#xc4;" horiz-adv-x="2866" 
d="M-13 0l946 2860h1014l932 -2860h-787l-160 585h-1011l-163 -585h-771zM1773 1169l-342 1251l-348 -1251h690zM1349 3038h-537v557h537v-557zM2054 3038h-537v557h537v-557z" />
    <glyph glyph-name="Aring" unicode="&#xc5;" horiz-adv-x="2866" 
d="M-13 0l946 2860h1014l932 -2860h-787l-160 585h-1011l-163 -585h-771zM1773 1169l-342 1251l-348 -1251h690zM986 3447q0 99 32.5 179.5t91 137t140 87.5t178.5 31q96 0 177 -31t139.5 -88t91.5 -137t33 -179t-33 -179.5t-91.5 -137.5t-139.5 -88t-177 -31
q-97 0 -178.5 31t-140 88t-91 137.5t-32.5 179.5zM1267 3447q0 -89 44.5 -136t116.5 -47t116 47t44 136t-44 135.5t-116 46.5t-116.5 -47t-44.5 -135z" />
    <glyph glyph-name="AE" unicode="&#xc6;" horiz-adv-x="3712" 
d="M-13 0l1144 2860h2486v-612h-1260v-534h1146v-570h-1146v-532h1294v-612h-2032v565h-656l-199 -565h-777zM1619 1149v1276l-450 -1276h450z" />
    <glyph glyph-name="Ccedilla" unicode="&#xc7;" horiz-adv-x="2943" 
d="M836 1430q0 -214 43.5 -377.5t128.5 -273t209 -165.5t285 -56q255 0 407 152.5t201 459.5h732q-25 -191 -83.5 -356.5t-146.5 -302t-203.5 -243t-256 -179.5t-304.5 -111t-347 -38q-205 0 -389.5 47.5t-341 138t-282 220.5t-213.5 295.5t-135.5 364t-47.5 424.5
t47.5 424.5t135.5 364t213.5 295.5t282 220.5t341 138t389.5 47.5q275 0 504.5 -84.5t403 -243.5t284.5 -387t149 -515h-732q-49 308 -201 460t-407 152q-161 0 -285 -55.5t-209 -165.5t-128.5 -273t-43.5 -378zM1618 8l-30 -160q110 -2 199 -24t152 -61.5t97 -94.5t34 -123
q0 -73 -39.5 -133.5t-111.5 -103.5t-173 -66.5t-224 -23.5q-57 0 -118.5 5.5t-127.5 16.5v262q107 -22 195 -22q109 0 168 28.5t59 72.5q0 26 -22 49t-66.5 40t-110.5 27t-155 10l54 301h220z" />
    <glyph glyph-name="Egrave" unicode="&#xc8;" horiz-adv-x="2215" 
d="M2120 2860v-612h-1260v-535h1146v-570h-1146v-531h1294v-612h-2032v2860h1998zM459 3648h592l296 -639h-436z" />
    <glyph glyph-name="Eacute" unicode="&#xc9;" horiz-adv-x="2215" 
d="M2120 2860v-612h-1260v-535h1146v-570h-1146v-531h1294v-612h-2032v2860h1998zM1796.01 3648h-591.964l-295.982 -639h435.974z" />
    <glyph glyph-name="Ecircumflex" unicode="&#xca;" horiz-adv-x="2215" 
d="M2120 2860v-612h-1260v-535h1146v-570h-1146v-531h1294v-612h-2032v2860h1998zM1307 3009l-179 308l-181 -308h-410l308 639h564l308 -639h-410z" />
    <glyph glyph-name="Edieresis" unicode="&#xcb;" horiz-adv-x="2215" 
d="M2120 2860v-612h-1260v-535h1146v-570h-1146v-531h1294v-612h-2032v2860h1998zM1043 3037h-537v557h537v-557zM1748 3037h-537v557h537v-557z" />
    <glyph glyph-name="Igrave" unicode="&#xcc;" horiz-adv-x="982" 
d="M860 0h-738v2860h738v-2860zM-177 3649h592l296 -639h-436z" />
    <glyph glyph-name="Iacute" unicode="&#xcd;" horiz-adv-x="982" 
d="M860 0h-738v2860h738v-2860zM1160.01 3649h-591.964l-295.982 -639h435.974z" />
    <glyph glyph-name="Icircumflex" unicode="&#xce;" horiz-adv-x="982" 
d="M860 0h-738v2860h738v-2860zM671 3010l-179 308l-181 -308h-410l308 639h564l308 -639h-410z" />
    <glyph glyph-name="Idieresis" unicode="&#xcf;" horiz-adv-x="982" 
d="M860 0h-738v2860h738v-2860zM407 3038h-537v557h537v-557zM1112 3038h-537v557h537v-557z" />
    <glyph glyph-name="Eth" unicode="&#xd0;" horiz-adv-x="2744" 
d="M122 2860h1094q213 0 402 -45.5t349 -131.5t286.5 -211t215.5 -284t136 -349.5t47 -408.5t-47 -408.5t-136 -349.5t-215.5 -284t-286.5 -211t-349 -131.5t-402 -45.5h-1094v2860zM1195 618q172 0 305 52t223.5 154t137.5 254t47 352t-47 352t-137.5 254t-223.5 154
t-305 52h-339v-1624h339zM1405 1209h-1520v462h1520v-462z" />
    <glyph glyph-name="Ntilde" unicode="&#xd1;" horiz-adv-x="2903" 
d="M2781 0h-1004l-951 2146v-2146h-704v2860h1064l891 -1996v1996h704v-2860zM2073 3592q0 -156 -18.5 -267.5t-58.5 -183t-102.5 -105.5t-149.5 -34q-50 0 -93 9.5t-79 23.5t-64.5 30t-49.5 29l-60 35q-16 9 -35.5 19.5t-42 20t-46.5 15.5t-50 6q-52 0 -80 -35.5
t-28 -126.5v-6h-239v10q0 303 83.5 448.5t257.5 145.5q45 0 84 -8.5t71 -21.5t57 -27.5t44 -25.5l59 -35q17 -10 39 -22.5t48 -23t55 -18t60 -7.5q49 0 77 35t28 120v15h233v-15z" />
    <glyph glyph-name="Ograve" unicode="&#xd2;" horiz-adv-x="3004" 
d="M92 1430q0 226 47.5 424.5t135.5 364t213.5 295.5t282 220.5t341 138t390.5 47.5t390 -47.5t341 -138t282.5 -220.5t213.5 -295.5t135.5 -364t47.5 -424.5t-47.5 -424.5t-135.5 -364t-213.5 -295.5t-282.5 -220.5t-341.5 -138t-389.5 -47.5q-206 0 -390.5 47.5t-341 138
t-282 220.5t-213.5 295.5t-135.5 364t-47.5 424.5zM836 1430q0 -214 43.5 -377.5t128 -273t209 -165.5t285.5 -56t285 56t209 165.5t128.5 273t43.5 377.5q0 215 -43.5 378t-128.5 273t-209 165.5t-285 55.5t-285.5 -55.5t-209 -165.5t-128 -273t-43.5 -378zM833 3649h592
l296 -639h-436z" />
    <glyph glyph-name="Oacute" unicode="&#xd3;" horiz-adv-x="3004" 
d="M92 1430q0 226 47.5 424.5t135.5 364t213.5 295.5t282 220.5t341 138t390.5 47.5t390 -47.5t341 -138t282.5 -220.5t213.5 -295.5t135.5 -364t47.5 -424.5t-47.5 -424.5t-135.5 -364t-213.5 -295.5t-282.5 -220.5t-341.5 -138t-389.5 -47.5q-206 0 -390.5 47.5t-341 138
t-282 220.5t-213.5 295.5t-135.5 364t-47.5 424.5zM836 1430q0 -214 43.5 -377.5t128 -273t209 -165.5t285.5 -56t285 56t209 165.5t128.5 273t43.5 377.5q0 215 -43.5 378t-128.5 273t-209 165.5t-285 55.5t-285.5 -55.5t-209 -165.5t-128 -273t-43.5 -378zM2170.01 3649
h-591.964l-295.982 -639h435.974z" />
    <glyph glyph-name="Ocircumflex" unicode="&#xd4;" horiz-adv-x="3004" 
d="M92 1430q0 226 47.5 424.5t135.5 364t213.5 295.5t282 220.5t341 138t390.5 47.5t390 -47.5t341 -138t282.5 -220.5t213.5 -295.5t135.5 -364t47.5 -424.5t-47.5 -424.5t-135.5 -364t-213.5 -295.5t-282.5 -220.5t-341.5 -138t-389.5 -47.5q-206 0 -390.5 47.5t-341 138
t-282 220.5t-213.5 295.5t-135.5 364t-47.5 424.5zM836 1430q0 -214 43.5 -377.5t128 -273t209 -165.5t285.5 -56t285 56t209 165.5t128.5 273t43.5 377.5q0 215 -43.5 378t-128.5 273t-209 165.5t-285 55.5t-285.5 -55.5t-209 -165.5t-128 -273t-43.5 -378zM1681 3010
l-179 308l-181 -308h-410l308 639h564l308 -639h-410z" />
    <glyph glyph-name="Otilde" unicode="&#xd5;" horiz-adv-x="3004" 
d="M92 1430q0 226 47.5 424.5t135.5 364t213.5 295.5t282 220.5t341 138t390.5 47.5t390 -47.5t341 -138t282.5 -220.5t213.5 -295.5t135.5 -364t47.5 -424.5t-47.5 -424.5t-135.5 -364t-213.5 -295.5t-282.5 -220.5t-341.5 -138t-389.5 -47.5q-206 0 -390.5 47.5t-341 138
t-282 220.5t-213.5 295.5t-135.5 364t-47.5 424.5zM836 1430q0 -214 43.5 -377.5t128 -273t209 -165.5t285.5 -56t285 56t209 165.5t128.5 273t43.5 377.5q0 215 -43.5 378t-128.5 273t-209 165.5t-285 55.5t-285.5 -55.5t-209 -165.5t-128 -273t-43.5 -378zM2123 3616
q0 -156 -18.5 -267.5t-58.5 -183t-102.5 -105.5t-149.5 -34q-50 0 -93 9.5t-79 23.5t-64.5 30t-49.5 29l-60 35q-16 9 -35.5 19.5t-42 20t-46.5 15.5t-50 6q-52 0 -80 -35.5t-28 -126.5v-6h-239v10q0 303 83.5 448.5t257.5 145.5q45 0 84 -8.5t71 -21.5t57 -27.5t44 -25.5
l59 -35q17 -10 39 -22.5t48 -23t55 -18t60 -7.5q49 0 77 35t28 120v15h233v-15z" />
    <glyph glyph-name="Odieresis" unicode="&#xd6;" horiz-adv-x="3004" 
d="M92 1430q0 226 47.5 424.5t135.5 364t213.5 295.5t282 220.5t341 138t390.5 47.5t390 -47.5t341 -138t282.5 -220.5t213.5 -295.5t135.5 -364t47.5 -424.5t-47.5 -424.5t-135.5 -364t-213.5 -295.5t-282.5 -220.5t-341.5 -138t-389.5 -47.5q-206 0 -390.5 47.5t-341 138
t-282 220.5t-213.5 295.5t-135.5 364t-47.5 424.5zM836 1430q0 -214 43.5 -377.5t128 -273t209 -165.5t285.5 -56t285 56t209 165.5t128.5 273t43.5 377.5q0 215 -43.5 378t-128.5 273t-209 165.5t-285 55.5t-285.5 -55.5t-209 -165.5t-128 -273t-43.5 -378zM1417 3038h-537
v557h537v-557zM2122 3038h-537v557h537v-557z" />
    <glyph glyph-name="multiply" unicode="&#xd7;" horiz-adv-x="2083" 
d="M1588 532l-546 546l-552 -551l-368 368l552 551l-546 547l367 367l547 -546l551 551l368 -367l-552 -552l547 -546z" />
    <glyph glyph-name="Oslash" unicode="&#xd8;" horiz-adv-x="3004" 
d="M459 379q-87 96 -155 211.5t-115.5 248t-72 281t-24.5 310.5q0 226 47.5 424.5t135.5 364t213.5 295.5t282.5 220.5t341.5 138t389.5 47.5q204 0 385 -46t337 -134l142 180h531l-351 -439q87 -97 155 -212.5t115 -247.5t71.5 -280.5t24.5 -310.5q0 -226 -47.5 -424.5
t-135.5 -364t-213.5 -295.5t-282 -220.5t-341 -138t-390.5 -47.5q-204 0 -386.5 46.5t-338.5 135.5l-148 -182h-517zM836 1430q0 -254 62 -438l955 1219q-146 91 -351 91q-161 0 -285 -55.5t-209 -165.5t-128.5 -273t-43.5 -378zM1153 647q145 -89 349 -89q161 0 285.5 56
t209 165.5t128 273t43.5 377.5q0 128 -15.5 236.5t-45.5 199.5z" />
    <glyph glyph-name="Ugrave" unicode="&#xd9;" horiz-adv-x="2768" 
d="M122 2860h738v-1654q0 -170 34 -292.5t100.5 -201.5t164.5 -116.5t225 -37.5q128 0 226 37.5t164 116.5t100 201.5t34 292.5v1654h738v-1720q0 -289 -93 -512.5t-260.5 -376.5t-399 -232t-509.5 -79q-185 0 -350 35.5t-305.5 104.5t-252.5 171t-191 235.5t-121 297
t-42 356.5v1720zM716 3649h592l296 -639h-436z" />
    <glyph glyph-name="Uacute" unicode="&#xda;" horiz-adv-x="2768" 
d="M122 2860h738v-1654q0 -170 34 -292.5t100.5 -201.5t164.5 -116.5t225 -37.5q128 0 226 37.5t164 116.5t100 201.5t34 292.5v1654h738v-1720q0 -289 -93 -512.5t-260.5 -376.5t-399 -232t-509.5 -79q-185 0 -350 35.5t-305.5 104.5t-252.5 171t-191 235.5t-121 297
t-42 356.5v1720zM2053.01 3649h-591.964l-295.982 -639h435.974z" />
    <glyph glyph-name="Ucircumflex" unicode="&#xdb;" horiz-adv-x="2768" 
d="M122 2860h738v-1654q0 -170 34 -292.5t100.5 -201.5t164.5 -116.5t225 -37.5q128 0 226 37.5t164 116.5t100 201.5t34 292.5v1654h738v-1720q0 -289 -93 -512.5t-260.5 -376.5t-399 -232t-509.5 -79q-185 0 -350 35.5t-305.5 104.5t-252.5 171t-191 235.5t-121 297
t-42 356.5v1720zM1564 3010l-179 308l-181 -308h-410l308 639h564l308 -639h-410z" />
    <glyph glyph-name="Udieresis" unicode="&#xdc;" horiz-adv-x="2768" 
d="M122 2860h738v-1654q0 -170 34 -292.5t100.5 -201.5t164.5 -116.5t225 -37.5q128 0 226 37.5t164 116.5t100 201.5t34 292.5v1654h738v-1720q0 -289 -93 -512.5t-260.5 -376.5t-399 -232t-509.5 -79q-185 0 -350 35.5t-305.5 104.5t-252.5 171t-191 235.5t-121 297
t-42 356.5v1720zM1300 3038h-537v557h537v-557zM2005 3038h-537v557h537v-557z" />
    <glyph glyph-name="Yacute" unicode="&#xdd;" horiz-adv-x="2742" 
d="M2765 2860l-1027 -1841v-1019h-738v1019l-1023 1841h803l594 -1166l604 1166h787zM2040.01 3649h-591.964l-295.982 -639h435.974z" />
    <glyph glyph-name="Thorn" unicode="&#xde;" horiz-adv-x="2708" 
d="M122 2860h738v-484h581q172 0 325.5 -31t284.5 -90.5t235.5 -144.5t177.5 -192.5t112.5 -236.5t39.5 -275t-37.5 -275.5t-106.5 -237.5t-168 -193.5t-222 -145t-267.5 -91t-305.5 -31.5h-649v-432h-738v2860zM1439 1020q105 0 186.5 25.5t137.5 75t85.5 121t29.5 163.5
t-29 163t-85 120t-137 74.5t-185 25.5h-582v-768h579z" />
    <glyph glyph-name="germandbls" unicode="&#xdf;" horiz-adv-x="2535" 
d="M122 1874q0 254 73 449t214 327.5t348.5 201t476.5 68.5q248 0 451.5 -56.5t348 -159.5t223.5 -248.5t79 -322.5q0 -136 -46.5 -251.5t-130.5 -202.5t-201 -141.5t-259 -68.5q183 -10 326.5 -61.5t243.5 -139.5t152.5 -211t52.5 -276q0 -186 -76 -340.5t-213 -266
t-327 -173.5t-419 -62q-103 0 -185.5 14t-156.5 43v595q92 -32 204 -32q101 0 186.5 25.5t147 71t96 108t34.5 135.5q0 131 -117.5 201.5t-359.5 70.5h-192v562h163q185 0 282 67t97 194q0 69 -29 126t-81.5 97.5t-126.5 62.5t-165 22q-199 0 -302.5 -105t-103.5 -307v-1890
h-708v1874z" />
    <glyph glyph-name="agrave" unicode="&#xe0;" horiz-adv-x="2390" 
d="M117 1377q0 206 75.5 370t216.5 279.5t342.5 177t453.5 61.5q257 0 458 -64.5t340 -187t212 -300.5t73 -405v-1308h-696v550q-35 -141 -108.5 -254t-179 -192t-239 -121.5t-288.5 -42.5q-163 0 -296.5 46.5t-229 131t-147.5 203t-52 263.5q0 159 63.5 284.5t185 211.5
t297 131.5t398.5 45.5h596v51q0 103 -26.5 183.5t-78 136t-126.5 84.5t-173 29t-169 -25t-117.5 -71.5t-69 -114t-22.5 -153.5h-693zM1090 881q-168 0 -253.5 -55.5t-85.5 -164.5t85 -169t241 -60q110 0 204 29.5t163 80.5t108.5 121t39.5 151v67h-502zM536 2994h592
l296 -639h-436z" />
    <glyph glyph-name="aacute" unicode="&#xe1;" horiz-adv-x="2390" 
d="M117 1377q0 206 75.5 370t216.5 279.5t342.5 177t453.5 61.5q257 0 458 -64.5t340 -187t212 -300.5t73 -405v-1308h-696v550q-35 -141 -108.5 -254t-179 -192t-239 -121.5t-288.5 -42.5q-163 0 -296.5 46.5t-229 131t-147.5 203t-52 263.5q0 159 63.5 284.5t185 211.5
t297 131.5t398.5 45.5h596v51q0 103 -26.5 183.5t-78 136t-126.5 84.5t-173 29t-169 -25t-117.5 -71.5t-69 -114t-22.5 -153.5h-693zM1090 881q-168 0 -253.5 -55.5t-85.5 -164.5t85 -169t241 -60q110 0 204 29.5t163 80.5t108.5 121t39.5 151v67h-502zM1873.01 2994
h-591.964l-295.982 -639h435.974z" />
    <glyph glyph-name="acircumflex" unicode="&#xe2;" horiz-adv-x="2390" 
d="M117 1377q0 206 75.5 370t216.5 279.5t342.5 177t453.5 61.5q257 0 458 -64.5t340 -187t212 -300.5t73 -405v-1308h-696v550q-35 -141 -108.5 -254t-179 -192t-239 -121.5t-288.5 -42.5q-163 0 -296.5 46.5t-229 131t-147.5 203t-52 263.5q0 159 63.5 284.5t185 211.5
t297 131.5t398.5 45.5h596v51q0 103 -26.5 183.5t-78 136t-126.5 84.5t-173 29t-169 -25t-117.5 -71.5t-69 -114t-22.5 -153.5h-693zM1090 881q-168 0 -253.5 -55.5t-85.5 -164.5t85 -169t241 -60q110 0 204 29.5t163 80.5t108.5 121t39.5 151v67h-502zM1385 2355l-179 308
l-181 -308h-410l308 639h564l308 -639h-410z" />
    <glyph glyph-name="atilde" unicode="&#xe3;" horiz-adv-x="2390" 
d="M117 1377q0 206 75.5 370t216.5 279.5t342.5 177t453.5 61.5q257 0 458 -64.5t340 -187t212 -300.5t73 -405v-1308h-696v550q-35 -141 -108.5 -254t-179 -192t-239 -121.5t-288.5 -42.5q-163 0 -296.5 46.5t-229 131t-147.5 203t-52 263.5q0 159 63.5 284.5t185 211.5
t297 131.5t398.5 45.5h596v51q0 103 -26.5 183.5t-78 136t-126.5 84.5t-173 29t-169 -25t-117.5 -71.5t-69 -114t-22.5 -153.5h-693zM1090 881q-168 0 -253.5 -55.5t-85.5 -164.5t85 -169t241 -60q110 0 204 29.5t163 80.5t108.5 121t39.5 151v67h-502zM1826 2961
q0 -156 -18.5 -267.5t-58.5 -183t-102.5 -105.5t-149.5 -34q-50 0 -93 9.5t-79 23.5t-64.5 30t-49.5 29l-60 35q-16 9 -35.5 19.5t-42 20t-46.5 15.5t-50 6q-52 0 -80 -35.5t-28 -126.5v-6h-239v10q0 303 83.5 448.5t257.5 145.5q45 0 84 -8.5t71 -21.5t57 -27.5t44 -25.5
l59 -35q17 -10 39 -22.5t48 -23t55 -18t60 -7.5q49 0 77 35t28 120v15h233v-15z" />
    <glyph glyph-name="adieresis" unicode="&#xe4;" horiz-adv-x="2390" 
d="M117 1377q0 206 75.5 370t216.5 279.5t342.5 177t453.5 61.5q257 0 458 -64.5t340 -187t212 -300.5t73 -405v-1308h-696v550q-35 -141 -108.5 -254t-179 -192t-239 -121.5t-288.5 -42.5q-163 0 -296.5 46.5t-229 131t-147.5 203t-52 263.5q0 159 63.5 284.5t185 211.5
t297 131.5t398.5 45.5h596v51q0 103 -26.5 183.5t-78 136t-126.5 84.5t-173 29t-169 -25t-117.5 -71.5t-69 -114t-22.5 -153.5h-693zM1090 881q-168 0 -253.5 -55.5t-85.5 -164.5t85 -169t241 -60q110 0 204 29.5t163 80.5t108.5 121t39.5 151v67h-502zM1120 2383h-537v557
h537v-557zM1825 2383h-537v557h537v-557z" />
    <glyph glyph-name="aring" unicode="&#xe5;" horiz-adv-x="2390" 
d="M117 1377q0 206 75.5 370t216.5 279.5t342.5 177t453.5 61.5q257 0 458 -64.5t340 -187t212 -300.5t73 -405v-1308h-696v550q-35 -141 -108.5 -254t-179 -192t-239 -121.5t-288.5 -42.5q-163 0 -296.5 46.5t-229 131t-147.5 203t-52 263.5q0 159 63.5 284.5t185 211.5
t297 131.5t398.5 45.5h596v51q0 103 -26.5 183.5t-78 136t-126.5 84.5t-173 29t-169 -25t-117.5 -71.5t-69 -114t-22.5 -153.5h-693zM1090 881q-168 0 -253.5 -55.5t-85.5 -164.5t85 -169t241 -60q110 0 204 29.5t163 80.5t108.5 121t39.5 151v67h-502zM757 2792
q0 99 32.5 179.5t91 137t140 87.5t178.5 31q96 0 177 -31t139.5 -88t91.5 -137t33 -179t-33 -179.5t-91.5 -137.5t-139.5 -88t-177 -31q-97 0 -178.5 31t-140 88t-91 137.5t-32.5 179.5zM1038 2792q0 -89 44.5 -136t116.5 -47t116 47t44 136t-44 135.5t-116 46.5t-116.5 -47
t-44.5 -135z" />
    <glyph glyph-name="ae" unicode="&#xe6;" horiz-adv-x="3881" 
d="M117 1377q0 206 75.5 370t216.5 279.5t342.5 177t453.5 61.5q254 0 451 -66t332 -192q138 124 320 191t401 67q166 0 312 -37.5t268.5 -108t219.5 -172.5t164.5 -231t103 -282.5t35.5 -327.5q0 -83 -9 -166h-1550q12 -110 50 -196t99 -145.5t143.5 -91t184.5 -31.5
q286 0 406 255h642q-49 -184 -146.5 -331t-235.5 -249t-311.5 -156.5t-373.5 -54.5q-190 0 -355 49t-298.5 140.5t-232.5 222t-157 293.5q-24 -162 -96.5 -292.5t-185 -222t-260.5 -141t-322 -49.5q-169 0 -307.5 46.5t-237.5 131.5t-153 204.5t-54 265.5q0 158 63.5 282
t185 210t297 131.5t398.5 45.5h596v51q0 103 -26.5 183.5t-78 136t-126.5 84.5t-173 29t-169 -25t-117.5 -71.5t-69 -114t-22.5 -153.5h-693zM3158 1320q-71 421 -444 421q-192 0 -307.5 -108t-147.5 -313h899zM1090 881q-168 0 -253.5 -55.5t-85.5 -164.5t85 -169t241 -60
q110 0 204 29.5t163 80.5t108.5 121t39.5 151v67h-502z" />
    <glyph glyph-name="ccedilla" unicode="&#xe7;" horiz-adv-x="2352" 
d="M770 1103q0 -137 29 -242.5t84.5 -177t137 -108t185.5 -36.5q86 0 151 25t112 71t77 111t45 145h693q-26 -213 -115 -388t-229.5 -300.5t-326.5 -194t-407 -68.5q-166 0 -315 37t-275.5 107.5t-228 172t-172.5 230.5t-109 284t-38 332t38 331.5t109 284t172.5 231
t228 171.5t275.5 107t315 37q221 0 407.5 -68.5t326.5 -193.5t229 -300.5t115 -388.5h-693q-15 80 -45 145t-77 111t-112 71t-151 25q-104 0 -185.5 -36.5t-137 -107.5t-84.5 -176.5t-29 -242.5zM1305 8l-30 -160q110 -2 199 -24t152 -61.5t97 -94.5t34 -123
q0 -73 -39.5 -133.5t-111.5 -103.5t-173 -66.5t-224 -23.5q-57 0 -118.5 5.5t-127.5 16.5v262q107 -22 195 -22q109 0 168 28.5t59 72.5q0 26 -22 49t-66.5 40t-110.5 27t-155 10l54 301h220z" />
    <glyph glyph-name="egrave" unicode="&#xe8;" horiz-adv-x="2356" 
d="M2278 755q-46 -190 -144 -341t-238 -256.5t-317.5 -161.5t-381.5 -56q-168 0 -317 38t-274.5 109.5t-225 174t-169 232t-106.5 283.5t-37 327t36.5 326.5t105 282.5t167 231.5t223 173.5t272 109t313.5 38t312 -37.5t268.5 -108t219.5 -172.5t164.5 -231t103 -282.5
t35.5 -327.5q0 -83 -9 -166h-1550q13 -110 52 -196t101 -145.5t146.5 -91t188.5 -31.5q154 0 257.5 69.5t162.5 209.5h641zM1634 1320q-71 421 -444 421q-192 0 -307.5 -108t-147.5 -313h899zM517 2994h592l296 -639h-436z" />
    <glyph glyph-name="eacute" unicode="&#xe9;" horiz-adv-x="2356" 
d="M2278 755q-46 -190 -144 -341t-238 -256.5t-317.5 -161.5t-381.5 -56q-168 0 -317 38t-274.5 109.5t-225 174t-169 232t-106.5 283.5t-37 327t36.5 326.5t105 282.5t167 231.5t223 173.5t272 109t313.5 38t312 -37.5t268.5 -108t219.5 -172.5t164.5 -231t103 -282.5
t35.5 -327.5q0 -83 -9 -166h-1550q13 -110 52 -196t101 -145.5t146.5 -91t188.5 -31.5q154 0 257.5 69.5t162.5 209.5h641zM1634 1320q-71 421 -444 421q-192 0 -307.5 -108t-147.5 -313h899zM1854.01 2994h-591.964l-295.982 -639h435.974z" />
    <glyph glyph-name="ecircumflex" unicode="&#xea;" horiz-adv-x="2356" 
d="M2278 755q-46 -190 -144 -341t-238 -256.5t-317.5 -161.5t-381.5 -56q-168 0 -317 38t-274.5 109.5t-225 174t-169 232t-106.5 283.5t-37 327t36.5 326.5t105 282.5t167 231.5t223 173.5t272 109t313.5 38t312 -37.5t268.5 -108t219.5 -172.5t164.5 -231t103 -282.5
t35.5 -327.5q0 -83 -9 -166h-1550q13 -110 52 -196t101 -145.5t146.5 -91t188.5 -31.5q154 0 257.5 69.5t162.5 209.5h641zM1634 1320q-71 421 -444 421q-192 0 -307.5 -108t-147.5 -313h899zM1365 2355l-179 308l-181 -308h-410l308 639h564l308 -639h-410z" />
    <glyph glyph-name="edieresis" unicode="&#xeb;" horiz-adv-x="2356" 
d="M2278 755q-46 -190 -144 -341t-238 -256.5t-317.5 -161.5t-381.5 -56q-168 0 -317 38t-274.5 109.5t-225 174t-169 232t-106.5 283.5t-37 327t36.5 326.5t105 282.5t167 231.5t223 173.5t272 109t313.5 38t312 -37.5t268.5 -108t219.5 -172.5t164.5 -231t103 -282.5
t35.5 -327.5q0 -83 -9 -166h-1550q13 -110 52 -196t101 -145.5t146.5 -91t188.5 -31.5q154 0 257.5 69.5t162.5 209.5h641zM1634 1320q-71 421 -444 421q-192 0 -307.5 -108t-147.5 -313h899zM1101 2383h-537v557h537v-557zM1806 2383h-537v557h537v-557z" />
    <glyph glyph-name="igrave" unicode="&#xec;" horiz-adv-x="972" 
d="M834 0h-696v2205h696v-2205zM-182 2994h592l296 -639h-436z" />
    <glyph glyph-name="iacute" unicode="&#xed;" horiz-adv-x="972" 
d="M834 0h-696v2205h696v-2205zM1155.01 2994h-591.964l-295.982 -639h435.974z" />
    <glyph glyph-name="icircumflex" unicode="&#xee;" horiz-adv-x="972" 
d="M834 0h-696v2205h696v-2205zM666 2355l-179 308l-181 -308h-410l308 639h564l308 -639h-410z" />
    <glyph glyph-name="idieresis" unicode="&#xef;" horiz-adv-x="972" 
d="M834 0h-696v2205h696v-2205zM402 2383h-537v557h537v-557zM1107 2383h-537v557h537v-557z" />
    <glyph glyph-name="eth" unicode="&#xf0;" horiz-adv-x="2412" 
d="M68 1118q0 154 27 292.5t77 256t122.5 211.5t162.5 160t197 101.5t227 35.5q144 0 268 -52t222.5 -148.5t168 -234t103.5 -307.5q-18 162 -54.5 302t-95.5 264.5t-143.5 237t-198.5 219.5l-425 -203l-135 273l299 143q-63 46 -132 91.5t-146 93.5l226 351
q156 -68 294 -141.5t260 -154.5l407 194l135 -274l-269 -128q173 -153 300.5 -328.5t211.5 -376.5t125.5 -428t41.5 -482q0 -171 -37 -322.5t-107 -278.5t-171 -228.5t-228 -171.5t-278 -107.5t-322 -37.5t-321.5 37.5t-276.5 108.5t-225 174t-168 234t-105.5 288t-36.5 336
zM770 1085q0 -132 29 -234t84.5 -171t137 -105t186.5 -36q211 0 323 140t112 406t-112 405.5t-323 139.5q-105 0 -186.5 -35.5t-137 -105t-84.5 -171t-29 -233.5z" />
    <glyph glyph-name="ntilde" unicode="&#xf1;" 
d="M808 0h-696v2205h696v-675q65 364 255 549.5t498 185.5q347 0 522 -241.5t175 -718.5v-1305h-696v1155q0 257 -89 384t-271 127q-192 0 -293 -133.5t-101 -393.5v-1139zM1806 2961q0 -156 -18.5 -267.5t-58.5 -183t-102.5 -105.5t-149.5 -34q-50 0 -93 9.5t-79 23.5
t-64.5 30t-49.5 29l-60 35q-16 9 -35.5 19.5t-42 20t-46.5 15.5t-50 6q-52 0 -80 -35.5t-28 -126.5v-6h-239v10q0 303 83.5 448.5t257.5 145.5q45 0 84 -8.5t71 -21.5t57 -27.5t44 -25.5l59 -35q17 -10 39 -22.5t48 -23t55 -18t60 -7.5q49 0 77 35t28 120v15h233v-15z" />
    <glyph glyph-name="ograve" unicode="&#xf2;" horiz-adv-x="2412" 
d="M68 1103q0 177 38 331.5t109 284t172.5 231t228 171.5t275.5 107t315 37q167 0 316 -37t275 -107t227.5 -171.5t172.5 -231t109 -284t38 -331.5t-38 -332t-109 -284t-172.5 -230.5t-227.5 -172t-275 -107.5t-316 -37q-166 0 -315 37t-275.5 107.5t-228 172t-172.5 230.5
t-109 284t-38 332zM770 1103q0 -137 29 -242.5t85 -177t137 -108t186 -36.5t186 36.5t136.5 108t84 177t28.5 242.5t-28.5 242.5t-84 176.5t-136.5 107.5t-186 36.5t-186 -36.5t-137 -107.5t-85 -176.5t-29 -242.5zM538 2994h592l296 -639h-436z" />
    <glyph glyph-name="oacute" unicode="&#xf3;" horiz-adv-x="2412" 
d="M68 1103q0 177 38 331.5t109 284t172.5 231t228 171.5t275.5 107t315 37q167 0 316 -37t275 -107t227.5 -171.5t172.5 -231t109 -284t38 -331.5t-38 -332t-109 -284t-172.5 -230.5t-227.5 -172t-275 -107.5t-316 -37q-166 0 -315 37t-275.5 107.5t-228 172t-172.5 230.5
t-109 284t-38 332zM770 1103q0 -137 29 -242.5t85 -177t137 -108t186 -36.5t186 36.5t136.5 108t84 177t28.5 242.5t-28.5 242.5t-84 176.5t-136.5 107.5t-186 36.5t-186 -36.5t-137 -107.5t-85 -176.5t-29 -242.5zM1875.01 2994h-591.964l-295.982 -639h435.974z" />
    <glyph glyph-name="ocircumflex" unicode="&#xf4;" horiz-adv-x="2412" 
d="M68 1103q0 177 38 331.5t109 284t172.5 231t228 171.5t275.5 107t315 37q167 0 316 -37t275 -107t227.5 -171.5t172.5 -231t109 -284t38 -331.5t-38 -332t-109 -284t-172.5 -230.5t-227.5 -172t-275 -107.5t-316 -37q-166 0 -315 37t-275.5 107.5t-228 172t-172.5 230.5
t-109 284t-38 332zM770 1103q0 -137 29 -242.5t85 -177t137 -108t186 -36.5t186 36.5t136.5 108t84 177t28.5 242.5t-28.5 242.5t-84 176.5t-136.5 107.5t-186 36.5t-186 -36.5t-137 -107.5t-85 -176.5t-29 -242.5zM1386 2355l-179 308l-181 -308h-410l308 639h564l308 -639
h-410z" />
    <glyph glyph-name="otilde" unicode="&#xf5;" horiz-adv-x="2412" 
d="M68 1103q0 177 38 331.5t109 284t172.5 231t228 171.5t275.5 107t315 37q167 0 316 -37t275 -107t227.5 -171.5t172.5 -231t109 -284t38 -331.5t-38 -332t-109 -284t-172.5 -230.5t-227.5 -172t-275 -107.5t-316 -37q-166 0 -315 37t-275.5 107.5t-228 172t-172.5 230.5
t-109 284t-38 332zM770 1103q0 -137 29 -242.5t85 -177t137 -108t186 -36.5t186 36.5t136.5 108t84 177t28.5 242.5t-28.5 242.5t-84 176.5t-136.5 107.5t-186 36.5t-186 -36.5t-137 -107.5t-85 -176.5t-29 -242.5zM1827 2961q0 -156 -18.5 -267.5t-58.5 -183t-102.5 -105.5
t-149.5 -34q-50 0 -93 9.5t-79 23.5t-64.5 30t-49.5 29l-60 35q-16 9 -35.5 19.5t-42 20t-46.5 15.5t-50 6q-52 0 -80 -35.5t-28 -126.5v-6h-239v10q0 303 83.5 448.5t257.5 145.5q45 0 84 -8.5t71 -21.5t57 -27.5t44 -25.5l59 -35q17 -10 39 -22.5t48 -23t55 -18t60 -7.5
q49 0 77 35t28 120v15h233v-15z" />
    <glyph glyph-name="odieresis" unicode="&#xf6;" horiz-adv-x="2412" 
d="M68 1103q0 177 38 331.5t109 284t172.5 231t228 171.5t275.5 107t315 37q167 0 316 -37t275 -107t227.5 -171.5t172.5 -231t109 -284t38 -331.5t-38 -332t-109 -284t-172.5 -230.5t-227.5 -172t-275 -107.5t-316 -37q-166 0 -315 37t-275.5 107.5t-228 172t-172.5 230.5
t-109 284t-38 332zM770 1103q0 -137 29 -242.5t85 -177t137 -108t186 -36.5t186 36.5t136.5 108t84 177t28.5 242.5t-28.5 242.5t-84 176.5t-136.5 107.5t-186 36.5t-186 -36.5t-137 -107.5t-85 -176.5t-29 -242.5zM1122 2383h-537v557h537v-557zM1827 2383h-537v557h537
v-557z" />
    <glyph glyph-name="divide" unicode="&#xf7;" horiz-adv-x="2496" 
d="M122.401 1187v518h2251.22v-518h-2251.22zM1549.62 1955h-604.816v626.417h604.816v-626.417zM1549.62 310h-604.816v626.417h604.816v-626.417z" />
    <glyph glyph-name="oslash" unicode="&#xf8;" horiz-adv-x="2412" 
d="M2047 1927q142 -152 219.5 -359.5t77.5 -464.5q0 -177 -38 -332t-109 -284t-172.5 -230.5t-227.5 -172t-275 -107.5t-316 -37q-165 0 -310.5 35.5t-271.5 104.5l-112 -140h-418l272 339q-142 152 -220 359.5t-78 464.5q0 177 38 331.5t109 284t172.5 231t228 171.5
t275.5 107t315 37q165 0 311 -35.5t271 -103.5l112 139h418zM770 1103q0 -71 8 -132.5t23 -115.5l609 766q-44 22 -94.5 33.5t-108.5 11.5q-105 0 -186 -36.5t-137 -107.5t-85 -176.5t-29 -242.5zM1003 585q89 -46 204 -46q105 0 186 36.5t136.5 108t84 177t28.5 242.5
q0 141 -30 247z" />
    <glyph glyph-name="ugrave" unicode="&#xf9;" 
d="M1552 2205h696v-2205h-696v675q-65 -364 -255 -549.5t-498 -185.5q-346 0 -521.5 241.5t-175.5 718.5v1305h696v-1155q0 -257 89 -384t271 -127q192 0 293 133.5t101 393.5v1139zM507 2994h592l296 -639h-436z" />
    <glyph glyph-name="uacute" unicode="&#xfa;" 
d="M1552 2205h696v-2205h-696v675q-65 -364 -255 -549.5t-498 -185.5q-346 0 -521.5 241.5t-175.5 718.5v1305h696v-1155q0 -257 89 -384t271 -127q192 0 293 133.5t101 393.5v1139zM1843.01 2994h-591.964l-295.982 -639h435.974z" />
    <glyph glyph-name="ucircumflex" unicode="&#xfb;" 
d="M1552 2205h696v-2205h-696v675q-65 -364 -255 -549.5t-498 -185.5q-346 0 -521.5 241.5t-175.5 718.5v1305h696v-1155q0 -257 89 -384t271 -127q192 0 293 133.5t101 393.5v1139zM1355 2355l-179 308l-181 -308h-410l308 639h564l308 -639h-410z" />
    <glyph glyph-name="udieresis" unicode="&#xfc;" 
d="M1552 2205h696v-2205h-696v675q-65 -364 -255 -549.5t-498 -185.5q-346 0 -521.5 241.5t-175.5 718.5v1305h696v-1155q0 -257 89 -384t271 -127q192 0 293 133.5t101 393.5v1139zM1091 2383h-537v557h537v-557zM1796 2383h-537v557h537v-557z" />
    <glyph glyph-name="yacute" unicode="&#xfd;" horiz-adv-x="2372" 
d="M2365 2205l-806 -2229q-74 -206 -174.5 -356t-232.5 -247.5t-299 -144t-373 -46.5q-175 0 -382 36v550q77 -11 140.5 -16.5t120.5 -5.5q79 0 145 11t121.5 33.5t102 58t85.5 85.5l-806 2271h735l449 -1684l455 1684h719zM1854.01 2970h-591.964l-295.982 -639h435.974z
" />
    <glyph glyph-name="thorn" unicode="&#xfe;" horiz-adv-x="2450" 
d="M808 1542q34 176 96 311t151.5 226.5t204 138.5t253.5 47q129 0 243 -38.5t210.5 -110t173.5 -174.5t131 -232t82.5 -282t28.5 -325t-28.5 -325t-82.5 -282.5t-131 -232t-173.5 -174.5t-211 -110.5t-242.5 -38.5q-139 0 -253.5 47t-204 139t-151.5 227t-96 311v-1421
h-696v3717h696v-1418zM808 1103q0 -138 29 -244t84.5 -178t137.5 -109t188 -37q216 0 324.5 142t108.5 426q0 282 -109 424.5t-324 142.5q-106 0 -188 -37t-137.5 -108.5t-84.5 -177.5t-29 -244z" />
    <glyph glyph-name="ydieresis" unicode="&#xff;" horiz-adv-x="2372" 
d="M2365 2205l-806 -2229q-74 -206 -174.5 -356t-232.5 -247.5t-299 -144t-373 -46.5q-175 0 -382 36v550q77 -11 140.5 -16.5t120.5 -5.5q79 0 145 11t121.5 33.5t102 58t85.5 85.5l-806 2271h735l449 -1684l455 1684h719zM1102 2359h-537v557h537v-557zM1807 2359h-537
v557h537v-557z" />
    <glyph glyph-name="Amacron" unicode="&#x100;" horiz-adv-x="2866" 
d="M-13 0l946 2860h1014l932 -2860h-787l-160 585h-1011l-163 -585h-771zM1773 1169l-342 1251l-348 -1251h690zM2001 3099h-1136v364h1136v-364z" />
    <glyph glyph-name="amacron" unicode="&#x101;" horiz-adv-x="2390" 
d="M117 1377q0 206 75.5 370t216.5 279.5t342.5 177t453.5 61.5q257 0 458 -64.5t340 -187t212 -300.5t73 -405v-1308h-696v550q-35 -141 -108.5 -254t-179 -192t-239 -121.5t-288.5 -42.5q-163 0 -296.5 46.5t-229 131t-147.5 203t-52 263.5q0 159 63.5 284.5t185 211.5
t297 131.5t398.5 45.5h596v51q0 103 -26.5 183.5t-78 136t-126.5 84.5t-173 29t-169 -25t-117.5 -71.5t-69 -114t-22.5 -153.5h-693zM1090 881q-168 0 -253.5 -55.5t-85.5 -164.5t85 -169t241 -60q110 0 204 29.5t163 80.5t108.5 121t39.5 151v67h-502zM1773 2444h-1136v364
h1136v-364z" />
    <glyph glyph-name="Abreve" unicode="&#x102;" horiz-adv-x="2866" 
d="M-13 0l946 2860h1014l932 -2860h-787l-160 585h-1011l-163 -585h-771zM1773 1169l-342 1251l-348 -1251h690zM1198 3676q0 -146 62 -227.5t174 -81.5q111 0 173 81.5t62 227.5h315q0 -160 -33.5 -284t-102 -209t-172 -129t-243.5 -44q-139 0 -242.5 44t-172 129t-102 209
t-33.5 284h315z" />
    <glyph glyph-name="abreve" unicode="&#x103;" horiz-adv-x="2390" 
d="M117 1377q0 206 75.5 370t216.5 279.5t342.5 177t453.5 61.5q257 0 458 -64.5t340 -187t212 -300.5t73 -405v-1308h-696v550q-35 -141 -108.5 -254t-179 -192t-239 -121.5t-288.5 -42.5q-163 0 -296.5 46.5t-229 131t-147.5 203t-52 263.5q0 159 63.5 284.5t185 211.5
t297 131.5t398.5 45.5h596v51q0 103 -26.5 183.5t-78 136t-126.5 84.5t-173 29t-169 -25t-117.5 -71.5t-69 -114t-22.5 -153.5h-693zM1090 881q-168 0 -253.5 -55.5t-85.5 -164.5t85 -169t241 -60q110 0 204 29.5t163 80.5t108.5 121t39.5 151v67h-502zM969 3021
q0 -146 62 -227.5t174 -81.5q111 0 173 81.5t62 227.5h315q0 -160 -33.5 -284t-102 -209t-172 -129t-243.5 -44q-139 0 -242.5 44t-172 129t-102 209t-33.5 284h315z" />
    <glyph glyph-name="Aogonek" unicode="&#x104;" horiz-adv-x="2866" 
d="M-13 0l946 2860h1014l932 -2860h-787l-160 585h-1011l-163 -585h-771zM1773 1169l-342 1251l-348 -1251h690zM2877 0q-80 0 -157.5 -19.5t-138.5 -50.5t-98.5 -69.5t-37.5 -75.5q0 -51 72 -79t196 -28q46 0 87.5 3.5t83.5 10.5v-383q-60 -8 -118.5 -11.5t-111.5 -3.5
q-117 0 -213.5 23.5t-165.5 66.5t-107 103.5t-38 133.5q0 89 55 164.5t152.5 131.5t230.5 88.5t289 34.5z" />
    <glyph glyph-name="aogonek" unicode="&#x105;" horiz-adv-x="2390" 
d="M117 1377q0 206 75.5 370t216.5 279.5t342.5 177t453.5 61.5q257 0 458 -64.5t340 -187t212 -300.5t73 -405v-1308h-696v550q-35 -141 -108.5 -254t-179 -192t-239 -121.5t-288.5 -42.5q-163 0 -296.5 46.5t-229 131t-147.5 203t-52 263.5q0 159 63.5 284.5t185 211.5
t297 131.5t398.5 45.5h596v51q0 103 -26.5 183.5t-78 136t-126.5 84.5t-173 29t-169 -25t-117.5 -71.5t-69 -114t-22.5 -153.5h-693zM1090 881q-168 0 -253.5 -55.5t-85.5 -164.5t85 -169t241 -60q110 0 204 29.5t163 80.5t108.5 121t39.5 151v67h-502zM2286 0
q-80 0 -157.5 -19.5t-138.5 -50.5t-98.5 -69.5t-37.5 -75.5q0 -51 72 -79t196 -28q46 0 87.5 3.5t83.5 10.5v-383q-60 -8 -118.5 -11.5t-111.5 -3.5q-117 0 -213.5 23.5t-165.5 66.5t-107 103.5t-38 133.5q0 89 55 164.5t152.5 131.5t230.5 88.5t289 34.5z" />
    <glyph glyph-name="Cacute" unicode="&#x106;" horiz-adv-x="2943" 
d="M836 1430q0 -214 43.5 -377.5t128.5 -273t209 -165.5t285 -56q255 0 407 152.5t201 459.5h732q-25 -191 -83.5 -356.5t-146.5 -302t-203.5 -243t-256 -179.5t-304.5 -111t-347 -38q-205 0 -389.5 47.5t-341 138t-282 220.5t-213.5 295.5t-135.5 364t-47.5 424.5
t47.5 424.5t135.5 364t213.5 295.5t282 220.5t341 138t389.5 47.5q275 0 504.5 -84.5t403 -243.5t284.5 -387t149 -515h-732q-49 308 -201 460t-407 152q-161 0 -285 -55.5t-209 -165.5t-128.5 -273t-43.5 -378zM2170.01 3649h-591.964l-295.982 -639h435.974z" />
    <glyph glyph-name="cacute" unicode="&#x107;" horiz-adv-x="2352" 
d="M770 1103q0 -137 29 -242.5t84.5 -177t137 -108t185.5 -36.5q86 0 151 25t112 71t77 111t45 145h693q-26 -213 -115 -388t-229.5 -300.5t-326.5 -194t-407 -68.5q-166 0 -315 37t-275.5 107.5t-228 172t-172.5 230.5t-109 284t-38 332t38 331.5t109 284t172.5 231
t228 171.5t275.5 107t315 37q221 0 407.5 -68.5t326.5 -193.5t229 -300.5t115 -388.5h-693q-15 80 -45 145t-77 111t-112 71t-151 25q-104 0 -185.5 -36.5t-137 -107.5t-84.5 -176.5t-29 -242.5zM1875.01 2995h-591.964l-295.982 -639h435.974z" />
    <glyph glyph-name="Ccircumflex" unicode="&#x108;" horiz-adv-x="2943" 
d="M836 1430q0 -214 43.5 -377.5t128.5 -273t209 -165.5t285 -56q255 0 407 152.5t201 459.5h732q-25 -191 -83.5 -356.5t-146.5 -302t-203.5 -243t-256 -179.5t-304.5 -111t-347 -38q-205 0 -389.5 47.5t-341 138t-282 220.5t-213.5 295.5t-135.5 364t-47.5 424.5
t47.5 424.5t135.5 364t213.5 295.5t282 220.5t341 138t389.5 47.5q275 0 504.5 -84.5t403 -243.5t284.5 -387t149 -515h-732q-49 308 -201 460t-407 152q-161 0 -285 -55.5t-209 -165.5t-128.5 -273t-43.5 -378zM1681 3010l-179 308l-181 -308h-410l308 639h564l308 -639
h-410z" />
    <glyph glyph-name="ccircumflex" unicode="&#x109;" horiz-adv-x="2352" 
d="M770 1103q0 -137 29 -242.5t84.5 -177t137 -108t185.5 -36.5q86 0 151 25t112 71t77 111t45 145h693q-26 -213 -115 -388t-229.5 -300.5t-326.5 -194t-407 -68.5q-166 0 -315 37t-275.5 107.5t-228 172t-172.5 230.5t-109 284t-38 332t38 331.5t109 284t172.5 231
t228 171.5t275.5 107t315 37q221 0 407.5 -68.5t326.5 -193.5t229 -300.5t115 -388.5h-693q-15 80 -45 145t-77 111t-112 71t-151 25q-104 0 -185.5 -36.5t-137 -107.5t-84.5 -176.5t-29 -242.5zM1386 2356l-179 308l-181 -308h-410l308 639h564l308 -639h-410z" />
    <glyph glyph-name="Cdotaccent" unicode="&#x10a;" horiz-adv-x="2943" 
d="M836 1430q0 -214 43.5 -377.5t128.5 -273t209 -165.5t285 -56q255 0 407 152.5t201 459.5h732q-25 -191 -83.5 -356.5t-146.5 -302t-203.5 -243t-256 -179.5t-304.5 -111t-347 -38q-205 0 -389.5 47.5t-341 138t-282 220.5t-213.5 295.5t-135.5 364t-47.5 424.5
t47.5 424.5t135.5 364t213.5 295.5t282 220.5t341 138t389.5 47.5q275 0 504.5 -84.5t403 -243.5t284.5 -387t149 -515h-732q-49 308 -201 460t-407 152q-161 0 -285 -55.5t-209 -165.5t-128.5 -273t-43.5 -378zM1768 3038h-537v557h537v-557z" />
    <glyph glyph-name="cdotaccent" unicode="&#x10b;" horiz-adv-x="2352" 
d="M770 1103q0 -137 29 -242.5t84.5 -177t137 -108t185.5 -36.5q86 0 151 25t112 71t77 111t45 145h693q-26 -213 -115 -388t-229.5 -300.5t-326.5 -194t-407 -68.5q-166 0 -315 37t-275.5 107.5t-228 172t-172.5 230.5t-109 284t-38 332t38 331.5t109 284t172.5 231
t228 171.5t275.5 107t315 37q221 0 407.5 -68.5t326.5 -193.5t229 -300.5t115 -388.5h-693q-15 80 -45 145t-77 111t-112 71t-151 25q-104 0 -185.5 -36.5t-137 -107.5t-84.5 -176.5t-29 -242.5zM1473 2384h-537v557h537v-557z" />
    <glyph glyph-name="Ccaron" unicode="&#x10c;" horiz-adv-x="2943" 
d="M836 1430q0 -214 43.5 -377.5t128.5 -273t209 -165.5t285 -56q255 0 407 152.5t201 459.5h732q-25 -191 -83.5 -356.5t-146.5 -302t-203.5 -243t-256 -179.5t-304.5 -111t-347 -38q-205 0 -389.5 47.5t-341 138t-282 220.5t-213.5 295.5t-135.5 364t-47.5 424.5
t47.5 424.5t135.5 364t213.5 295.5t282 220.5t341 138t389.5 47.5q275 0 504.5 -84.5t403 -243.5t284.5 -387t149 -515h-732q-49 308 -201 460t-407 152q-161 0 -285 -55.5t-209 -165.5t-128.5 -273t-43.5 -378zM1784 3010h-564l-308 639h410l181 -308l179 308h410z" />
    <glyph glyph-name="ccaron" unicode="&#x10d;" horiz-adv-x="2352" 
d="M770 1103q0 -137 29 -242.5t84.5 -177t137 -108t185.5 -36.5q86 0 151 25t112 71t77 111t45 145h693q-26 -213 -115 -388t-229.5 -300.5t-326.5 -194t-407 -68.5q-166 0 -315 37t-275.5 107.5t-228 172t-172.5 230.5t-109 284t-38 332t38 331.5t109 284t172.5 231
t228 171.5t275.5 107t315 37q221 0 407.5 -68.5t326.5 -193.5t229 -300.5t115 -388.5h-693q-15 80 -45 145t-77 111t-112 71t-151 25q-104 0 -185.5 -36.5t-137 -107.5t-84.5 -176.5t-29 -242.5zM1489 2356h-564l-308 639h410l181 -308l179 308h410z" />
    <glyph glyph-name="Dcaron" unicode="&#x10e;" horiz-adv-x="2744" 
d="M122 2860h1094q213 0 402 -45.5t349 -131.5t286.5 -211t215.5 -284t136 -349.5t47 -408.5t-47 -408.5t-136 -349.5t-215.5 -284t-286.5 -211t-349 -131.5t-402 -45.5h-1094v2860zM1195 618q172 0 305 52t223.5 154t137.5 254t47 352t-47 352t-137.5 254t-223.5 154
t-305 52h-339v-1624h339zM1496 3010h-564l-308 639h410l181 -308l179 308h410z" />
    <glyph glyph-name="dcaron" unicode="&#x10f;" horiz-adv-x="2450" 
d="M2338 2960v-2960h-696v664q-34 -176 -96 -311t-151.5 -227t-204 -139t-253.5 -47q-128 0 -242.5 38.5t-211 110.5t-173.5 174.5t-131 232t-82.5 282.5t-28.5 325t28.5 325t82.5 282t131 232t173.5 174.5t211 110t242.5 38.5q139 0 253.5 -47t204 -138.5t151.5 -226.5
t96 -311v1418h696zM1642 1103q0 138 -29 244t-84.5 177.5t-137.5 108.5t-188 37q-214 0 -323.5 -142.5t-109.5 -424.5q0 -284 108.5 -426t324.5 -142q106 0 188 37t137.5 109t84.5 178t29 244zM2861 2009h-406l79 951h495z" />
    <glyph glyph-name="Dcroat" unicode="&#x110;" horiz-adv-x="2744" 
d="M122 2860h1094q213 0 402 -45.5t349 -131.5t286.5 -211t215.5 -284t136 -349.5t47 -408.5t-47 -408.5t-136 -349.5t-215.5 -284t-286.5 -211t-349 -131.5t-402 -45.5h-1094v2860zM1195 618q172 0 305 52t223.5 154t137.5 254t47 352t-47 352t-137.5 254t-223.5 154
t-305 52h-339v-1624h339zM1405 1209h-1520v462h1520v-462z" />
    <glyph glyph-name="dcroat" unicode="&#x111;" horiz-adv-x="2450" 
d="M2338 2960v-2960h-696v664q-34 -176 -96 -311t-151.5 -227t-204 -139t-253.5 -47q-128 0 -242.5 38.5t-211 110.5t-173.5 174.5t-131 232t-82.5 282.5t-28.5 325t28.5 325t82.5 282t131 232t173.5 174.5t211 110t242.5 38.5q139 0 253.5 -47t204 -138.5t151.5 -226.5
t96 -311v1418h696zM1642 1103q0 138 -29 244t-84.5 177.5t-137.5 108.5t-188 37q-214 0 -323.5 -142.5t-109.5 -424.5q0 -284 108.5 -426t324.5 -142q106 0 188 37t137.5 109t84.5 178t29 244zM2553 2323h-1442v420h1442v-420z" />
    <glyph glyph-name="Emacron" unicode="&#x112;" horiz-adv-x="2215" 
d="M2120 2860v-612h-1260v-535h1146v-570h-1146v-531h1294v-612h-2032v2860h1998zM1695 3098h-1136v364h1136v-364z" />
    <glyph glyph-name="emacron" unicode="&#x113;" horiz-adv-x="2356" 
d="M2278 755q-46 -190 -144 -341t-238 -256.5t-317.5 -161.5t-381.5 -56q-168 0 -317 38t-274.5 109.5t-225 174t-169 232t-106.5 283.5t-37 327t36.5 326.5t105 282.5t167 231.5t223 173.5t272 109t313.5 38t312 -37.5t268.5 -108t219.5 -172.5t164.5 -231t103 -282.5
t35.5 -327.5q0 -83 -9 -166h-1550q13 -110 52 -196t101 -145.5t146.5 -91t188.5 -31.5q154 0 257.5 69.5t162.5 209.5h641zM1634 1320q-71 421 -444 421q-192 0 -307.5 -108t-147.5 -313h899zM1753 2444h-1136v364h1136v-364z" />
    <glyph glyph-name="Ebreve" unicode="&#x114;" horiz-adv-x="2215" 
d="M2120 2860v-612h-1260v-535h1146v-570h-1146v-531h1294v-612h-2032v2860h1998zM892 3675q0 -146 62 -227.5t174 -81.5q111 0 173 81.5t62 227.5h315q0 -160 -33.5 -284t-102 -209t-172 -129t-243.5 -44q-139 0 -242.5 44t-172 129t-102 209t-33.5 284h315z" />
    <glyph glyph-name="ebreve" unicode="&#x115;" horiz-adv-x="2356" 
d="M2278 755q-46 -190 -144 -341t-238 -256.5t-317.5 -161.5t-381.5 -56q-168 0 -317 38t-274.5 109.5t-225 174t-169 232t-106.5 283.5t-37 327t36.5 326.5t105 282.5t167 231.5t223 173.5t272 109t313.5 38t312 -37.5t268.5 -108t219.5 -172.5t164.5 -231t103 -282.5
t35.5 -327.5q0 -83 -9 -166h-1550q13 -110 52 -196t101 -145.5t146.5 -91t188.5 -31.5q154 0 257.5 69.5t162.5 209.5h641zM1634 1320q-71 421 -444 421q-192 0 -307.5 -108t-147.5 -313h899zM950 3021q0 -146 62 -227.5t174 -81.5q111 0 173 81.5t62 227.5h315
q0 -160 -33.5 -284t-102 -209t-172 -129t-243.5 -44q-139 0 -242.5 44t-172 129t-102 209t-33.5 284h315z" />
    <glyph glyph-name="Edotaccent" unicode="&#x116;" horiz-adv-x="2215" 
d="M2120 2860v-612h-1260v-535h1146v-570h-1146v-531h1294v-612h-2032v2860h1998zM1395 3037h-537v557h537v-557z" />
    <glyph glyph-name="edotaccent" unicode="&#x117;" horiz-adv-x="2356" 
d="M2278 755q-46 -190 -144 -341t-238 -256.5t-317.5 -161.5t-381.5 -56q-168 0 -317 38t-274.5 109.5t-225 174t-169 232t-106.5 283.5t-37 327t36.5 326.5t105 282.5t167 231.5t223 173.5t272 109t313.5 38t312 -37.5t268.5 -108t219.5 -172.5t164.5 -231t103 -282.5
t35.5 -327.5q0 -83 -9 -166h-1550q13 -110 52 -196t101 -145.5t146.5 -91t188.5 -31.5q154 0 257.5 69.5t162.5 209.5h641zM1634 1320q-71 421 -444 421q-192 0 -307.5 -108t-147.5 -313h899zM1452 2383h-537v557h537v-557z" />
    <glyph glyph-name="Eogonek" unicode="&#x118;" horiz-adv-x="2215" 
d="M2120 2860v-612h-1260v-535h1146v-570h-1146v-531h1294v-612h-2032v2860h1998zM2152 0q-80 0 -157.5 -19.5t-138.5 -50.5t-98.5 -69.5t-37.5 -75.5q0 -51 72 -79t196 -28q46 0 87.5 3.5t83.5 10.5v-383q-60 -8 -118.5 -11.5t-111.5 -3.5q-117 0 -213.5 23.5t-165.5 66.5
t-107 103.5t-38 133.5q0 89 55 164.5t152.5 131.5t230.5 88.5t289 34.5z" />
    <glyph glyph-name="eogonek" unicode="&#x119;" horiz-adv-x="2356" 
d="M2278 755q-46 -190 -144 -341t-238 -256.5t-317.5 -161.5t-381.5 -56q-168 0 -317 38t-274.5 109.5t-225 174t-169 232t-106.5 283.5t-37 327t36.5 326.5t105 282.5t167 231.5t223 173.5t272 109t313.5 38t312 -37.5t268.5 -108t219.5 -172.5t164.5 -231t103 -282.5
t35.5 -327.5q0 -83 -9 -166h-1550q13 -110 52 -196t101 -145.5t146.5 -91t188.5 -31.5q154 0 257.5 69.5t162.5 209.5h641zM1634 1320q-71 421 -444 421q-192 0 -307.5 -108t-147.5 -313h899zM1888 170q-58 -40 -110 -88t-91 -98t-62 -99.5t-23 -92.5q0 -72 67 -111t212 -39
q42 0 85 3t92 11v-383q-60 -8 -119.5 -11.5t-107.5 -3.5q-124 0 -225.5 26.5t-172.5 74t-110 114t-39 146.5q0 87 46.5 167.5t125 155t183 142.5t220.5 131z" />
    <glyph glyph-name="Ecaron" unicode="&#x11a;" horiz-adv-x="2215" 
d="M2120 2860v-612h-1260v-535h1146v-570h-1146v-531h1294v-612h-2032v2860h1998zM1410 3009h-564l-308 639h410l181 -308l179 308h410z" />
    <glyph glyph-name="ecaron" unicode="&#x11b;" horiz-adv-x="2356" 
d="M2278 755q-46 -190 -144 -341t-238 -256.5t-317.5 -161.5t-381.5 -56q-168 0 -317 38t-274.5 109.5t-225 174t-169 232t-106.5 283.5t-37 327t36.5 326.5t105 282.5t167 231.5t223 173.5t272 109t313.5 38t312 -37.5t268.5 -108t219.5 -172.5t164.5 -231t103 -282.5
t35.5 -327.5q0 -83 -9 -166h-1550q13 -110 52 -196t101 -145.5t146.5 -91t188.5 -31.5q154 0 257.5 69.5t162.5 209.5h641zM1634 1320q-71 421 -444 421q-192 0 -307.5 -108t-147.5 -313h899zM1468 2355h-564l-308 639h410l181 -308l179 308h410z" />
    <glyph glyph-name="Gcircumflex" unicode="&#x11c;" horiz-adv-x="2997" 
d="M836 1430q0 -217 43 -383t127 -277.5t208 -168.5t286 -57q140 0 259 37t208 106t143 168t63 223h-700v452h1402v-1530h-688v665q-59 -168 -152.5 -302.5t-216 -228.5t-270.5 -144t-316 -50q-164 0 -312 48t-275 139t-229 222t-174 296.5t-111 363t-39 421.5
q0 226 47.5 424t135.5 363.5t213.5 296t282 221t341 138t389.5 47.5q171 0 329.5 -34.5t298.5 -100.5t259.5 -162.5t212.5 -219.5t157 -272t93 -321h-732q-29 124 -85.5 216t-136 153.5t-179.5 92t-216 30.5q-161 0 -285 -56t-209 -165.5t-128.5 -272.5t-43.5 -378z
M1681 3010l-179 308l-181 -308h-410l308 639h564l308 -639h-410z" />
    <glyph glyph-name="gcircumflex" unicode="&#x11d;" horiz-adv-x="2450" 
d="M2338 2205v-1962q0 -246 -75 -442.5t-216 -334t-343.5 -211t-457.5 -73.5q-161 0 -303 28.5t-261.5 82.5t-214 131.5t-160 175.5t-100.5 215t-35 249h693q0 -84 26.5 -150.5t74.5 -113t116 -71t151 -24.5q98 0 174 36t128.5 104t79.5 167.5t27 226.5v564
q-34 -163 -96.5 -289t-152 -211t-205 -129t-255.5 -44q-127 0 -240.5 35.5t-210 102.5t-173 162.5t-130.5 215.5t-82.5 262t-28.5 302q0 239 63.5 434t178 333t273.5 213t350 75q281 0 461 -163.5t248 -486.5v590h696zM1642 1210q0 234 -113.5 347t-329.5 113
q-106 0 -186 -27t-134 -83t-81.5 -143t-27.5 -207q0 -241 108 -363t321 -122q108 0 190.5 32t138.5 93.5t85 152t29 207.5zM1414 2355l-179 308l-181 -308h-410l308 639h564l308 -639h-410z" />
    <glyph glyph-name="Gbreve" unicode="&#x11e;" horiz-adv-x="2997" 
d="M836 1430q0 -217 43 -383t127 -277.5t208 -168.5t286 -57q140 0 259 37t208 106t143 168t63 223h-700v452h1402v-1530h-688v665q-59 -168 -152.5 -302.5t-216 -228.5t-270.5 -144t-316 -50q-164 0 -312 48t-275 139t-229 222t-174 296.5t-111 363t-39 421.5
q0 226 47.5 424t135.5 363.5t213.5 296t282 221t341 138t389.5 47.5q171 0 329.5 -34.5t298.5 -100.5t259.5 -162.5t212.5 -219.5t157 -272t93 -321h-732q-29 124 -85.5 216t-136 153.5t-179.5 92t-216 30.5q-161 0 -285 -56t-209 -165.5t-128.5 -272.5t-43.5 -378z
M1266 3676q0 -146 62 -227.5t174 -81.5q111 0 173 81.5t62 227.5h315q0 -160 -33.5 -284t-102 -209t-172 -129t-243.5 -44q-139 0 -242.5 44t-172 129t-102 209t-33.5 284h315z" />
    <glyph glyph-name="gbreve" unicode="&#x11f;" horiz-adv-x="2450" 
d="M2338 2205v-1962q0 -246 -75 -442.5t-216 -334t-343.5 -211t-457.5 -73.5q-161 0 -303 28.5t-261.5 82.5t-214 131.5t-160 175.5t-100.5 215t-35 249h693q0 -84 26.5 -150.5t74.5 -113t116 -71t151 -24.5q98 0 174 36t128.5 104t79.5 167.5t27 226.5v564
q-34 -163 -96.5 -289t-152 -211t-205 -129t-255.5 -44q-127 0 -240.5 35.5t-210 102.5t-173 162.5t-130.5 215.5t-82.5 262t-28.5 302q0 239 63.5 434t178 333t273.5 213t350 75q281 0 461 -163.5t248 -486.5v590h696zM1642 1210q0 234 -113.5 347t-329.5 113
q-106 0 -186 -27t-134 -83t-81.5 -143t-27.5 -207q0 -241 108 -363t321 -122q108 0 190.5 32t138.5 93.5t85 152t29 207.5zM999 3021q0 -146 62 -227.5t174 -81.5q111 0 173 81.5t62 227.5h315q0 -160 -33.5 -284t-102 -209t-172 -129t-243.5 -44q-139 0 -242.5 44t-172 129
t-102 209t-33.5 284h315z" />
    <glyph glyph-name="Gdotaccent" unicode="&#x120;" horiz-adv-x="2997" 
d="M836 1430q0 -217 43 -383t127 -277.5t208 -168.5t286 -57q140 0 259 37t208 106t143 168t63 223h-700v452h1402v-1530h-688v665q-59 -168 -152.5 -302.5t-216 -228.5t-270.5 -144t-316 -50q-164 0 -312 48t-275 139t-229 222t-174 296.5t-111 363t-39 421.5
q0 226 47.5 424t135.5 363.5t213.5 296t282 221t341 138t389.5 47.5q171 0 329.5 -34.5t298.5 -100.5t259.5 -162.5t212.5 -219.5t157 -272t93 -321h-732q-29 124 -85.5 216t-136 153.5t-179.5 92t-216 30.5q-161 0 -285 -56t-209 -165.5t-128.5 -272.5t-43.5 -378z
M1768 3038h-537v557h537v-557z" />
    <glyph glyph-name="gdotaccent" unicode="&#x121;" horiz-adv-x="2450" 
d="M2338 2205v-1962q0 -246 -75 -442.5t-216 -334t-343.5 -211t-457.5 -73.5q-161 0 -303 28.5t-261.5 82.5t-214 131.5t-160 175.5t-100.5 215t-35 249h693q0 -84 26.5 -150.5t74.5 -113t116 -71t151 -24.5q98 0 174 36t128.5 104t79.5 167.5t27 226.5v564
q-34 -163 -96.5 -289t-152 -211t-205 -129t-255.5 -44q-127 0 -240.5 35.5t-210 102.5t-173 162.5t-130.5 215.5t-82.5 262t-28.5 302q0 239 63.5 434t178 333t273.5 213t350 75q281 0 461 -163.5t248 -486.5v590h696zM1642 1210q0 234 -113.5 347t-329.5 113
q-106 0 -186 -27t-134 -83t-81.5 -143t-27.5 -207q0 -241 108 -363t321 -122q108 0 190.5 32t138.5 93.5t85 152t29 207.5zM1501 2383h-537v557h537v-557z" />
    <glyph glyph-name="uni0122" unicode="&#x122;" horiz-adv-x="2997" 
d="M836 1430q0 -217 43 -383t127 -277.5t208 -168.5t286 -57q140 0 259 37t208 106t143 168t63 223h-700v452h1402v-1530h-688v665q-59 -168 -152.5 -302.5t-216 -228.5t-270.5 -144t-316 -50q-164 0 -312 48t-275 139t-229 222t-174 296.5t-111 363t-39 421.5
q0 226 47.5 424t135.5 363.5t213.5 296t282 221t341 138t389.5 47.5q171 0 329.5 -34.5t298.5 -100.5t259.5 -162.5t212.5 -219.5t157 -272t93 -321h-732q-29 124 -85.5 216t-136 153.5t-179.5 92t-216 30.5q-161 0 -285 -56t-209 -165.5t-128.5 -272.5t-43.5 -378z
M1498 -788h-436l102 638h576z" />
    <glyph glyph-name="uni0123" unicode="&#x123;" horiz-adv-x="2450" 
d="M2338 2205v-1962q0 -246 -75 -442.5t-216 -334t-343.5 -211t-457.5 -73.5q-161 0 -303 28.5t-261.5 82.5t-214 131.5t-160 175.5t-100.5 215t-35 249h693q0 -84 26.5 -150.5t74.5 -113t116 -71t151 -24.5q98 0 174 36t128.5 104t79.5 167.5t27 226.5v564
q-34 -163 -96.5 -289t-152 -211t-205 -129t-255.5 -44q-127 0 -240.5 35.5t-210 102.5t-173 162.5t-130.5 215.5t-82.5 262t-28.5 302q0 239 63.5 434t178 333t273.5 213t350 75q281 0 461 -163.5t248 -486.5v590h696zM1642 1210q0 234 -113.5 347t-329.5 113
q-106 0 -186 -27t-134 -83t-81.5 -143t-27.5 -207q0 -241 108 -363t321 -122q108 0 190.5 32t138.5 93.5t85 152t29 207.5zM1190 3074h436l-102 -638h-576z" />
    <glyph glyph-name="Hcircumflex" unicode="&#x124;" horiz-adv-x="2744" 
d="M2622 0h-738v1118h-1024v-1118h-738v2860h738v-1124h1024v1124h738v-2860zM1552 3010l-179 308l-181 -308h-410l308 639h564l308 -639h-410z" />
    <glyph glyph-name="hcircumflex" unicode="&#x125;" 
d="M808 0h-696v2960h696v-1430q65 364 255 549.5t498 185.5q347 0 522 -241.5t175 -718.5v-1305h-696v1155q0 257 -89 384t-271 127q-192 0 -293 -133.5t-101 -393.5v-1139zM639 3110l-179 308l-181 -308h-410l308 639h564l308 -639h-410z" />
    <glyph glyph-name="Hbar" unicode="&#x126;" horiz-adv-x="2744" 
d="M2622 0h-738v1118h-1024v-1118h-738v2860h738v-1124h1024v1124h738v-2860zM2840 2094h-2936v408h2936v-408z" />
    <glyph glyph-name="hbar" unicode="&#x127;" 
d="M808 0h-696v2960h696v-1430q65 364 255 549.5t498 185.5q347 0 522 -241.5t175 -718.5v-1305h-696v1155q0 257 -89 384t-271 127q-192 0 -293 -133.5t-101 -393.5v-1139zM1341 2323h-1442v420h1442v-420z" />
    <glyph glyph-name="Itilde" unicode="&#x128;" horiz-adv-x="982" 
d="M860 0h-738v2860h738v-2860zM1112 3616q0 -156 -18.5 -267.5t-58.5 -183t-102.5 -105.5t-149.5 -34q-50 0 -93 9.5t-79 23.5t-64.5 30t-49.5 29l-60 35q-16 9 -35.5 19.5t-42 20t-46.5 15.5t-50 6q-52 0 -80 -35.5t-28 -126.5v-6h-239v10q0 303 83.5 448.5t257.5 145.5
q45 0 84 -8.5t71 -21.5t57 -27.5t44 -25.5l59 -35q17 -10 39 -22.5t48 -23t55 -18t60 -7.5q49 0 77 35t28 120v15h233v-15z" />
    <glyph glyph-name="itilde" unicode="&#x129;" horiz-adv-x="972" 
d="M834 0h-696v2205h696v-2205zM1107 2961q0 -156 -18.5 -267.5t-58.5 -183t-102.5 -105.5t-149.5 -34q-50 0 -93 9.5t-79 23.5t-64.5 30t-49.5 29l-60 35q-16 9 -35.5 19.5t-42 20t-46.5 15.5t-50 6q-52 0 -80 -35.5t-28 -126.5v-6h-239v10q0 303 83.5 448.5t257.5 145.5
q45 0 84 -8.5t71 -21.5t57 -27.5t44 -25.5l59 -35q17 -10 39 -22.5t48 -23t55 -18t60 -7.5q49 0 77 35t28 120v15h233v-15z" />
    <glyph glyph-name="Imacron" unicode="&#x12a;" horiz-adv-x="982" 
d="M860 0h-738v2860h738v-2860zM1059 3099h-1136v364h1136v-364z" />
    <glyph glyph-name="imacron" unicode="&#x12b;" horiz-adv-x="972" 
d="M834 0h-696v2205h696v-2205zM1054 2444h-1136v364h1136v-364z" />
    <glyph glyph-name="Ibreve" unicode="&#x12c;" horiz-adv-x="982" 
d="M860 0h-738v2860h738v-2860zM256 3676q0 -146 62 -227.5t174 -81.5q111 0 173 81.5t62 227.5h315q0 -160 -33.5 -284t-102 -209t-172 -129t-243.5 -44q-139 0 -242.5 44t-172 129t-102 209t-33.5 284h315z" />
    <glyph glyph-name="ibreve" unicode="&#x12d;" horiz-adv-x="972" 
d="M834 0h-696v2205h696v-2205zM251 3021q0 -146 62 -227.5t174 -81.5q111 0 173 81.5t62 227.5h315q0 -160 -33.5 -284t-102 -209t-172 -129t-243.5 -44q-139 0 -242.5 44t-172 129t-102 209t-33.5 284h315z" />
    <glyph glyph-name="Iogonek" unicode="&#x12e;" horiz-adv-x="982" 
d="M860 0h-738v2860h738v-2860zM858 0q-80 0 -157.5 -19.5t-138.5 -50.5t-98.5 -69.5t-37.5 -75.5q0 -51 72 -79t196 -28q46 0 87.5 3.5t83.5 10.5v-383q-60 -8 -118.5 -11.5t-111.5 -3.5q-117 0 -213.5 23.5t-165.5 66.5t-107 103.5t-38 133.5q0 89 55 164.5t152.5 131.5
t230.5 88.5t289 34.5z" />
    <glyph glyph-name="iogonek" unicode="&#x12f;" horiz-adv-x="920" 
d="M812 2424h-704v536h704v-536zM808 0h-696v2205h696v-2205zM806 0q-80 0 -157.5 -19.5t-138.5 -50.5t-98.5 -69.5t-37.5 -75.5q0 -51 72 -79t196 -28q46 0 87.5 3.5t83.5 10.5v-383q-60 -8 -118.5 -11.5t-111.5 -3.5q-117 0 -213.5 23.5t-165.5 66.5t-107 103.5t-38 133.5
q0 89 55 164.5t152.5 131.5t230.5 88.5t289 34.5z" />
    <glyph glyph-name="Idotaccent" unicode="&#x130;" horiz-adv-x="982" 
d="M860 0h-738v2860h738v-2860zM758 3038h-537v557h537v-557z" />
    <glyph glyph-name="dotlessi" unicode="&#x131;" horiz-adv-x="972" 
d="M834 0h-696v2205h696v-2205z" />
    <glyph glyph-name="IJ" unicode="&#x132;" horiz-adv-x="3505" 
d="M860 0h-738v2860h738v-2860zM1043 1304h738v-266q0 -103 29.5 -191t85 -152.5t136.5 -100.5t184 -36q104 0 184 36.5t134.5 101.5t82.5 153.5t28 192.5v1818h738v-1830q0 -171 -39.5 -318t-112.5 -268t-177.5 -215t-234.5 -158t-283 -97.5t-323 -33.5t-323 33.5
t-283 97.5t-234.5 158t-177.5 215t-112.5 268t-39.5 318v274z" />
    <glyph glyph-name="ij" unicode="&#x133;" horiz-adv-x="1840" 
d="M812 2424h-704v536h704v-536zM808 0h-696v2205h696v-2205zM1732 2424h-704v536h704v-536zM1728 189q0 -273 -52 -464t-165.5 -312t-293.5 -176t-437 -55h-87v560h64q94 0 149 29.5t83 78.5t35.5 111.5t7.5 128.5v2115h696v-2016z" />
    <glyph glyph-name="Jcircumflex" unicode="&#x134;" horiz-adv-x="2523" 
d="M61 1304h738v-266q0 -103 29.5 -191t85 -152.5t136.5 -100.5t184 -36q104 0 184 36.5t134.5 101.5t82.5 153.5t28 192.5v1818h738v-1830q0 -171 -39.5 -318t-112.5 -268t-177.5 -215t-234.5 -158t-283 -97.5t-323 -33.5t-323 33.5t-283 97.5t-234.5 158t-177.5 215
t-112.5 268t-39.5 318v274zM2215 3010l-179 308l-181 -308h-410l308 639h564l308 -639h-410z" />
    <glyph glyph-name="jcircumflex" unicode="&#x135;" horiz-adv-x="920" 
d="M811 189q0 -273 -52 -464t-165.5 -312t-294.5 -176t-439 -55h-87v560h64q96 0 151 29.5t83.5 78.5t36 111.5t7.5 128.5v2115h696v-2016zM646 2355l-179 308l-181 -308h-410l308 639h564l308 -639h-410z" />
    <glyph glyph-name="uni0136" unicode="&#x136;" horiz-adv-x="2717" 
d="M1451 1428l1279 -1428h-934l-936 1070v-1070h-738v2860h738v-1184l912 1184h872zM1330 -788h-436l102 638h576z" />
    <glyph glyph-name="uni0137" unicode="&#x137;" horiz-adv-x="2401" 
d="M1384 1101l1000 -1101h-857l-719 817v-817h-696v2960h696v-1659l701 904h800zM1168 -788h-436l102 638h576z" />
    <glyph glyph-name="kgreenlandic" unicode="&#x138;" horiz-adv-x="2401" 
d="M1384 1100l1000 -1100h-857l-719 817v-817h-696v2205h696v-904l701 904h800z" />
    <glyph glyph-name="Lacute" unicode="&#x139;" horiz-adv-x="2126" 
d="M860 2860v-2248h1214v-612h-1952v2860h738zM1159.01 3649h-591.964l-295.982 -639h435.974z" />
    <glyph glyph-name="lacute" unicode="&#x13a;" horiz-adv-x="920" 
d="M808 0h-696v2960h696v-2960zM1130.01 3749h-591.964l-295.982 -639h435.974z" />
    <glyph glyph-name="uni013B" unicode="&#x13b;" horiz-adv-x="2126" 
d="M860 2860v-2248h1214v-612h-1952v2860h738zM1144 -788h-436l102 638h576z" />
    <glyph glyph-name="uni013C" unicode="&#x13c;" horiz-adv-x="920" 
d="M808 0h-696v2960h696v-2960zM497 -788h-436l102 638h576z" />
    <glyph glyph-name="Lcaron" unicode="&#x13d;" horiz-adv-x="2126" 
d="M860 2860v-2248h1214v-612h-1952v2860h738zM1948 1909h-406l79 951h495z" />
    <glyph glyph-name="lcaron" unicode="&#x13e;" horiz-adv-x="920" 
d="M808 0h-696v2960h696v-2960zM1339 2009h-406l79 951h495z" />
    <glyph glyph-name="Ldot" unicode="&#x13f;" horiz-adv-x="2126" 
d="M860 2860v-2248h1214v-612h-1952v2860h738zM2022 1424h-537v557h537v-557z" />
    <glyph glyph-name="ldot" unicode="&#x140;" horiz-adv-x="920" 
d="M808 0h-696v2960h696v-2960zM1534 961h-537v557h537v-557z" />
    <glyph glyph-name="Lslash" unicode="&#x141;" horiz-adv-x="2126" 
d="M860 2860v-2248h1214v-612h-1952v2860h738zM1392 1507l-1514 -683v438l1514 684v-439z" />
    <glyph glyph-name="lslash" unicode="&#x142;" horiz-adv-x="920" 
d="M808 0h-696v2960h696v-2960zM1060 1382l-1179 -533v425l1179 532v-424z" />
    <glyph glyph-name="Nacute" unicode="&#x143;" horiz-adv-x="2903" 
d="M2781 0h-1004l-951 2146v-2146h-704v2860h1064l891 -1996v1996h704v-2860zM2120.01 3625h-591.964l-295.982 -639h435.974z" />
    <glyph glyph-name="nacute" unicode="&#x144;" 
d="M808 0h-696v2205h696v-675q65 364 255 549.5t498 185.5q347 0 522 -241.5t175 -718.5v-1305h-696v1155q0 257 -89 384t-271 127q-192 0 -293 -133.5t-101 -393.5v-1139zM1854.01 2994h-591.964l-295.982 -639h435.974z" />
    <glyph glyph-name="uni0145" unicode="&#x145;" horiz-adv-x="2903" 
d="M2781 0h-1004l-951 2146v-2146h-704v2860h1064l891 -1996v1996h704v-2860zM1336 -788h-436l102 638h576z" />
    <glyph glyph-name="uni0146" unicode="&#x146;" 
d="M808 0h-696v2205h696v-675q65 364 255 549.5t498 185.5q347 0 522 -241.5t175 -718.5v-1305h-696v1155q0 257 -89 384t-271 127q-192 0 -293 -133.5t-101 -393.5v-1139zM1211 -788h-436l102 638h576z" />
    <glyph glyph-name="Ncaron" unicode="&#x147;" horiz-adv-x="2903" 
d="M2781 0h-1004l-951 2146v-2146h-704v2860h1064l891 -1996v1996h704v-2860zM1734 2986h-564l-308 639h410l181 -308l179 308h410z" />
    <glyph glyph-name="ncaron" unicode="&#x148;" 
d="M808 0h-696v2205h696v-675q65 364 255 549.5t498 185.5q347 0 522 -241.5t175 -718.5v-1305h-696v1155q0 257 -89 384t-271 127q-192 0 -293 -133.5t-101 -393.5v-1139zM1468 2355h-564l-308 639h410l181 -308l179 308h410z" />
    <glyph glyph-name="napostrophe" unicode="&#x149;" horiz-adv-x="3091" 
d="M122 2860h2847v-2860h-2847v2860zM1545 1695l703 770h-1403zM569 624l735 806l-735 807v-1613zM2522 622v1614l-735 -806zM843 395h1402l-700 770z" />
    <glyph glyph-name="Eng" unicode="&#x14a;" horiz-adv-x="3091" 
d="M122 2860h2847v-2860h-2847v2860zM1545 1695l703 770h-1403zM569 624l735 806l-735 807v-1613zM2522 622v1614l-735 -806zM843 395h1402l-700 770z" />
    <glyph glyph-name="eng" unicode="&#x14b;" horiz-adv-x="3091" 
d="M122 2860h2847v-2860h-2847v2860zM1545 1695l703 770h-1403zM569 624l735 806l-735 807v-1613zM2522 622v1614l-735 -806zM843 395h1402l-700 770z" />
    <glyph glyph-name="Omacron" unicode="&#x14c;" horiz-adv-x="3004" 
d="M92 1430q0 226 47.5 424.5t135.5 364t213.5 295.5t282 220.5t341 138t390.5 47.5t390 -47.5t341 -138t282.5 -220.5t213.5 -295.5t135.5 -364t47.5 -424.5t-47.5 -424.5t-135.5 -364t-213.5 -295.5t-282.5 -220.5t-341.5 -138t-389.5 -47.5q-206 0 -390.5 47.5t-341 138
t-282 220.5t-213.5 295.5t-135.5 364t-47.5 424.5zM836 1430q0 -214 43.5 -377.5t128 -273t209 -165.5t285.5 -56t285 56t209 165.5t128.5 273t43.5 377.5q0 215 -43.5 378t-128.5 273t-209 165.5t-285 55.5t-285.5 -55.5t-209 -165.5t-128 -273t-43.5 -378zM2069 3099
h-1136v364h1136v-364z" />
    <glyph glyph-name="omacron" unicode="&#x14d;" horiz-adv-x="2412" 
d="M68 1103q0 177 38 331.5t109 284t172.5 231t228 171.5t275.5 107t315 37q167 0 316 -37t275 -107t227.5 -171.5t172.5 -231t109 -284t38 -331.5t-38 -332t-109 -284t-172.5 -230.5t-227.5 -172t-275 -107.5t-316 -37q-166 0 -315 37t-275.5 107.5t-228 172t-172.5 230.5
t-109 284t-38 332zM770 1103q0 -137 29 -242.5t85 -177t137 -108t186 -36.5t186 36.5t136.5 108t84 177t28.5 242.5t-28.5 242.5t-84 176.5t-136.5 107.5t-186 36.5t-186 -36.5t-137 -107.5t-85 -176.5t-29 -242.5zM1774 2444h-1136v364h1136v-364z" />
    <glyph glyph-name="Obreve" unicode="&#x14e;" horiz-adv-x="3004" 
d="M92 1430q0 226 47.5 424.5t135.5 364t213.5 295.5t282 220.5t341 138t390.5 47.5t390 -47.5t341 -138t282.5 -220.5t213.5 -295.5t135.5 -364t47.5 -424.5t-47.5 -424.5t-135.5 -364t-213.5 -295.5t-282.5 -220.5t-341.5 -138t-389.5 -47.5q-206 0 -390.5 47.5t-341 138
t-282 220.5t-213.5 295.5t-135.5 364t-47.5 424.5zM836 1430q0 -214 43.5 -377.5t128 -273t209 -165.5t285.5 -56t285 56t209 165.5t128.5 273t43.5 377.5q0 215 -43.5 378t-128.5 273t-209 165.5t-285 55.5t-285.5 -55.5t-209 -165.5t-128 -273t-43.5 -378zM1266 3676
q0 -146 62 -227.5t174 -81.5q111 0 173 81.5t62 227.5h315q0 -160 -33.5 -284t-102 -209t-172 -129t-243.5 -44q-139 0 -242.5 44t-172 129t-102 209t-33.5 284h315z" />
    <glyph glyph-name="obreve" unicode="&#x14f;" horiz-adv-x="2412" 
d="M68 1103q0 177 38 331.5t109 284t172.5 231t228 171.5t275.5 107t315 37q167 0 316 -37t275 -107t227.5 -171.5t172.5 -231t109 -284t38 -331.5t-38 -332t-109 -284t-172.5 -230.5t-227.5 -172t-275 -107.5t-316 -37q-166 0 -315 37t-275.5 107.5t-228 172t-172.5 230.5
t-109 284t-38 332zM770 1103q0 -137 29 -242.5t85 -177t137 -108t186 -36.5t186 36.5t136.5 108t84 177t28.5 242.5t-28.5 242.5t-84 176.5t-136.5 107.5t-186 36.5t-186 -36.5t-137 -107.5t-85 -176.5t-29 -242.5zM971 3021q0 -146 62 -227.5t174 -81.5q111 0 173 81.5
t62 227.5h315q0 -160 -33.5 -284t-102 -209t-172 -129t-243.5 -44q-139 0 -242.5 44t-172 129t-102 209t-33.5 284h315z" />
    <glyph glyph-name="Ohungarumlaut" unicode="&#x150;" horiz-adv-x="3004" 
d="M92 1430q0 226 47.5 424.5t135.5 364t213.5 295.5t282 220.5t341 138t390.5 47.5t390 -47.5t341 -138t282.5 -220.5t213.5 -295.5t135.5 -364t47.5 -424.5t-47.5 -424.5t-135.5 -364t-213.5 -295.5t-282.5 -220.5t-341.5 -138t-389.5 -47.5q-206 0 -390.5 47.5t-341 138
t-282 220.5t-213.5 295.5t-135.5 364t-47.5 424.5zM836 1430q0 -214 43.5 -377.5t128 -273t209 -165.5t285.5 -56t285 56t209 165.5t128.5 273t43.5 377.5q0 215 -43.5 378t-128.5 273t-209 165.5t-285 55.5t-285.5 -55.5t-209 -165.5t-128 -273t-43.5 -378zM923 3010
l214 639h532l-324 -639h-422zM1579 3010l214 639h532l-324 -639h-422z" />
    <glyph glyph-name="ohungarumlaut" unicode="&#x151;" horiz-adv-x="2412" 
d="M68 1103q0 177 38 331.5t109 284t172.5 231t228 171.5t275.5 107t315 37q167 0 316 -37t275 -107t227.5 -171.5t172.5 -231t109 -284t38 -331.5t-38 -332t-109 -284t-172.5 -230.5t-227.5 -172t-275 -107.5t-316 -37q-166 0 -315 37t-275.5 107.5t-228 172t-172.5 230.5
t-109 284t-38 332zM770 1103q0 -137 29 -242.5t85 -177t137 -108t186 -36.5t186 36.5t136.5 108t84 177t28.5 242.5t-28.5 242.5t-84 176.5t-136.5 107.5t-186 36.5t-186 -36.5t-137 -107.5t-85 -176.5t-29 -242.5zM627 2355l214 639h532l-324 -639h-422zM1283 2355l214 639
h532l-324 -639h-422z" />
    <glyph glyph-name="OE" unicode="&#x152;" horiz-adv-x="3825" 
d="M3730 2248h-1260v-534h1146v-570h-1146v-532h1294v-612h-2262q-205 0 -389.5 45.5t-341.5 132.5t-282.5 212t-213.5 284t-135.5 349t-47.5 407t47.5 407t135.5 349t213.5 284t282.5 212t341.5 132.5t389.5 45.5h2228v-612zM836 1430q0 -200 43.5 -352t128.5 -254
t209 -154t285 -52h230v1624h-230q-161 0 -285 -52t-209 -154t-128.5 -254t-43.5 -352z" />
    <glyph glyph-name="oe" unicode="&#x153;" horiz-adv-x="3977" 
d="M68 1103q0 177 38 331.5t109 284t172.5 231t228 171.5t275.5 107t315 37q250 0 454.5 -83t352.5 -237q144 153 345 236.5t449 83.5q166 0 312 -37.5t268.5 -108t219.5 -172.5t164.5 -231t103 -282.5t35.5 -327.5q0 -83 -9 -166h-1550q13 -110 51.5 -196t101 -145.5
t147 -91t188.5 -31.5q154 0 257 69.5t162 209.5h642q-46 -190 -144 -341t-238.5 -256.5t-317.5 -161.5t-382 -56q-251 0 -454 84t-349 239q-148 -155 -353 -239t-456 -84q-166 0 -315 37t-275.5 107.5t-228 172t-172.5 230.5t-109 284t-38 332zM3256 1320q-72 421 -445 421
q-192 0 -307.5 -108t-147.5 -313h900zM770 1103q0 -137 29 -242.5t85 -177t137 -108t186 -36.5t186 36.5t136.5 108t84 177t28.5 242.5t-28.5 242.5t-84 176.5t-136.5 107.5t-186 36.5t-186 -36.5t-137 -107.5t-85 -176.5t-29 -242.5z" />
    <glyph glyph-name="Racute" unicode="&#x154;" horiz-adv-x="2757" 
d="M122 0v2861h1429q255 0 453.5 -60.5t335 -173.5t207.5 -275.5t71 -366.5q0 -177 -56 -321.5t-159.5 -248t-250 -162.5t-328.5 -65q176 -12 310 -124.5t230 -326.5l331 -737h-821l-337 736q-39 86 -74 141.5t-75.5 87.5t-91 44.5t-121.5 12.5h-315v-1022h-738zM1470 1592
q98 0 174 23t128 67t79.5 108.5t27.5 146.5q0 164 -105.5 250t-304.5 86h-609v-681h610zM1823.01 3649h-591.964l-295.982 -639h435.974z" />
    <glyph glyph-name="racute" unicode="&#x155;" horiz-adv-x="1691" 
d="M808 0h-696v2205h696v-797q26 183 76.5 330.5t132.5 251t198 159.5t272 56h147v-652h-298q-155 0 -257 -35t-162 -107t-84.5 -183t-24.5 -263v-965zM1512.01 2994h-591.964l-295.982 -639h435.974z" />
    <glyph glyph-name="uni0156" unicode="&#x156;" horiz-adv-x="2757" 
d="M122 0v2861h1429q255 0 453.5 -60.5t335 -173.5t207.5 -275.5t71 -366.5q0 -177 -56 -321.5t-159.5 -248t-250 -162.5t-328.5 -65q176 -12 310 -124.5t230 -326.5l331 -737h-821l-337 736q-39 86 -74 141.5t-75.5 87.5t-91 44.5t-121.5 12.5h-315v-1022h-738zM1470 1592
q98 0 174 23t128 67t79.5 108.5t27.5 146.5q0 164 -105.5 250t-304.5 86h-609v-681h610zM1359 -788h-436l102 638h576z" />
    <glyph glyph-name="uni0157" unicode="&#x157;" horiz-adv-x="1691" 
d="M808 0h-696v2205h696v-797q26 183 76.5 330.5t132.5 251t198 159.5t272 56h147v-652h-298q-155 0 -257 -35t-162 -107t-84.5 -183t-24.5 -263v-965zM497 -788h-436l102 638h576z" />
    <glyph glyph-name="Rcaron" unicode="&#x158;" horiz-adv-x="2757" 
d="M122 0v2861h1429q255 0 453.5 -60.5t335 -173.5t207.5 -275.5t71 -366.5q0 -177 -56 -321.5t-159.5 -248t-250 -162.5t-328.5 -65q176 -12 310 -124.5t230 -326.5l331 -737h-821l-337 736q-39 86 -74 141.5t-75.5 87.5t-91 44.5t-121.5 12.5h-315v-1022h-738zM1470 1592
q98 0 174 23t128 67t79.5 108.5t27.5 146.5q0 164 -105.5 250t-304.5 86h-609v-681h610zM1437 3010h-564l-308 639h410l181 -308l179 308h410z" />
    <glyph glyph-name="rcaron" unicode="&#x159;" horiz-adv-x="1691" 
d="M808 0h-696v2205h696v-797q26 183 76.5 330.5t132.5 251t198 159.5t272 56h147v-652h-298q-155 0 -257 -35t-162 -107t-84.5 -183t-24.5 -263v-965zM1126 2355h-564l-308 639h410l181 -308l179 308h410z" />
    <glyph glyph-name="Sacute" unicode="&#x15a;" horiz-adv-x="2713" 
d="M1343 2920q285 0 512 -67.5t385.5 -194t242.5 -308.5t84 -412h-704q0 93 -37.5 167t-106.5 125.5t-167 79.5t-219 28q-100 0 -190.5 -19.5t-159.5 -57.5t-109.5 -94t-40.5 -130q0 -75 36.5 -121t110.5 -76t185.5 -50t262.5 -42l101 -15q89 -13 185 -28.5t192 -37.5
t189 -53t177 -76t155 -105.5t122.5 -141t80.5 -184t29 -233.5q0 -226 -90 -400.5t-258 -293t-407.5 -179.5t-538.5 -61q-319 0 -564 69t-411 198.5t-251 316.5t-85 424h704q0 -100 41.5 -179.5t119.5 -134t190 -83.5t253 -29q120 0 223 21t178.5 62.5t119 103t43.5 142.5
t-37.5 130t-111 80t-183 49.5t-253.5 37.5l-134 19q-87 12 -180.5 25.5t-187.5 34t-185.5 50t-174 72t-152.5 100t-121 135t-79.5 177t-28.5 225.5q0 152 42.5 280t121 231.5t190.5 182.5t250 132.5t300 80.5t341 27zM1999.01 3649h-591.964l-295.982 -639h435.974z" />
    <glyph glyph-name="sacute" unicode="&#x15b;" horiz-adv-x="2278" 
d="M1100 2265q252 0 450 -54t334.5 -156t208 -248t71.5 -330h-689q0 146 -90 226t-267 80q-75 0 -137.5 -14.5t-107.5 -41t-69.5 -64t-24.5 -82.5q0 -58 33 -95.5t91 -62t135.5 -40.5t167.5 -32l148 -26q87 -15 185.5 -35t195 -51.5t185 -79t156 -117.5t108 -166.5
t40.5 -227.5q0 -169 -71 -300.5t-207.5 -222t-335 -138t-454.5 -47.5q-270 0 -476.5 53t-346.5 155.5t-212 252.5t-72 344h689q0 -155 102 -236t310 -81q89 0 160 14.5t121 41.5t77 66t27 88q0 61 -31 99.5t-89.5 64t-142.5 43t-190 36.5l-148 27q-80 14 -173.5 33t-187 50
t-181 77t-154.5 114.5t-107 163t-40 222.5q0 163 69 292t198.5 219t317 138t424.5 48zM1771.01 2994h-591.964l-295.982 -639h435.974z" />
    <glyph glyph-name="Scircumflex" unicode="&#x15c;" horiz-adv-x="2713" 
d="M1343 2920q285 0 512 -67.5t385.5 -194t242.5 -308.5t84 -412h-704q0 93 -37.5 167t-106.5 125.5t-167 79.5t-219 28q-100 0 -190.5 -19.5t-159.5 -57.5t-109.5 -94t-40.5 -130q0 -75 36.5 -121t110.5 -76t185.5 -50t262.5 -42l101 -15q89 -13 185 -28.5t192 -37.5
t189 -53t177 -76t155 -105.5t122.5 -141t80.5 -184t29 -233.5q0 -226 -90 -400.5t-258 -293t-407.5 -179.5t-538.5 -61q-319 0 -564 69t-411 198.5t-251 316.5t-85 424h704q0 -100 41.5 -179.5t119.5 -134t190 -83.5t253 -29q120 0 223 21t178.5 62.5t119 103t43.5 142.5
t-37.5 130t-111 80t-183 49.5t-253.5 37.5l-134 19q-87 12 -180.5 25.5t-187.5 34t-185.5 50t-174 72t-152.5 100t-121 135t-79.5 177t-28.5 225.5q0 152 42.5 280t121 231.5t190.5 182.5t250 132.5t300 80.5t341 27zM1510 3010l-179 308l-181 -308h-410l308 639h564
l308 -639h-410z" />
    <glyph glyph-name="scircumflex" unicode="&#x15d;" horiz-adv-x="2278" 
d="M1100 2265q252 0 450 -54t334.5 -156t208 -248t71.5 -330h-689q0 146 -90 226t-267 80q-75 0 -137.5 -14.5t-107.5 -41t-69.5 -64t-24.5 -82.5q0 -58 33 -95.5t91 -62t135.5 -40.5t167.5 -32l148 -26q87 -15 185.5 -35t195 -51.5t185 -79t156 -117.5t108 -166.5
t40.5 -227.5q0 -169 -71 -300.5t-207.5 -222t-335 -138t-454.5 -47.5q-270 0 -476.5 53t-346.5 155.5t-212 252.5t-72 344h689q0 -155 102 -236t310 -81q89 0 160 14.5t121 41.5t77 66t27 88q0 61 -31 99.5t-89.5 64t-142.5 43t-190 36.5l-148 27q-80 14 -173.5 33t-187 50
t-181 77t-154.5 114.5t-107 163t-40 222.5q0 163 69 292t198.5 219t317 138t424.5 48zM1283 2355l-179 308l-181 -308h-410l308 639h564l308 -639h-410z" />
    <glyph glyph-name="Scedilla" unicode="&#x15e;" horiz-adv-x="2713" 
d="M1343 2920q285 0 512 -67.5t385.5 -194t242.5 -308.5t84 -412h-704q0 93 -37.5 167t-106.5 125.5t-167 79.5t-219 28q-100 0 -190.5 -19.5t-159.5 -57.5t-109.5 -94t-40.5 -130q0 -75 36.5 -121t110.5 -76t185.5 -50t262.5 -42l101 -15q89 -13 185 -28.5t192 -37.5
t189 -53t177 -76t155 -105.5t122.5 -141t80.5 -184t29 -233.5q0 -226 -90 -400.5t-258 -293t-407.5 -179.5t-538.5 -61q-319 0 -564 69t-411 198.5t-251 316.5t-85 424h704q0 -100 41.5 -179.5t119.5 -134t190 -83.5t253 -29q120 0 223 21t178.5 62.5t119 103t43.5 142.5
t-37.5 130t-111 80t-183 49.5t-253.5 37.5l-134 19q-87 12 -180.5 25.5t-187.5 34t-185.5 50t-174 72t-152.5 100t-121 135t-79.5 177t-28.5 225.5q0 152 42.5 280t121 231.5t190.5 182.5t250 132.5t300 80.5t341 27zM1484 8l-30 -160q110 -2 199 -24t152 -61.5t97 -94.5
t34 -123q0 -73 -39.5 -133.5t-111.5 -103.5t-173 -66.5t-224 -23.5q-57 0 -118.5 5.5t-127.5 16.5v262q107 -22 195 -22q109 0 168 28.5t59 72.5q0 26 -22 49t-66.5 40t-110.5 27t-155 10l54 301h220z" />
    <glyph glyph-name="scedilla" unicode="&#x15f;" horiz-adv-x="2278" 
d="M1100 2265q252 0 450 -54t334.5 -156t208 -248t71.5 -330h-689q0 146 -90 226t-267 80q-75 0 -137.5 -14.5t-107.5 -41t-69.5 -64t-24.5 -82.5q0 -58 33 -95.5t91 -62t135.5 -40.5t167.5 -32l148 -26q87 -15 185.5 -35t195 -51.5t185 -79t156 -117.5t108 -166.5
t40.5 -227.5q0 -169 -71 -300.5t-207.5 -222t-335 -138t-454.5 -47.5q-270 0 -476.5 53t-346.5 155.5t-212 252.5t-72 344h689q0 -155 102 -236t310 -81q89 0 160 14.5t121 41.5t77 66t27 88q0 61 -31 99.5t-89.5 64t-142.5 43t-190 36.5l-148 27q-80 14 -173.5 33t-187 50
t-181 77t-154.5 114.5t-107 163t-40 222.5q0 163 69 292t198.5 219t317 138t424.5 48zM1273 8l-30 -160q110 -2 199 -24t152 -61.5t97 -94.5t34 -123q0 -73 -39.5 -133.5t-111.5 -103.5t-173 -66.5t-224 -23.5q-57 0 -118.5 5.5t-127.5 16.5v262q107 -22 195 -22
q109 0 168 28.5t59 72.5q0 26 -22 49t-66.5 40t-110.5 27t-155 10l54 301h220z" />
    <glyph glyph-name="Scaron" unicode="&#x160;" horiz-adv-x="2713" 
d="M1343 2920q285 0 512 -67.5t385.5 -194t242.5 -308.5t84 -412h-704q0 93 -37.5 167t-106.5 125.5t-167 79.5t-219 28q-100 0 -190.5 -19.5t-159.5 -57.5t-109.5 -94t-40.5 -130q0 -75 36.5 -121t110.5 -76t185.5 -50t262.5 -42l101 -15q89 -13 185 -28.5t192 -37.5
t189 -53t177 -76t155 -105.5t122.5 -141t80.5 -184t29 -233.5q0 -226 -90 -400.5t-258 -293t-407.5 -179.5t-538.5 -61q-319 0 -564 69t-411 198.5t-251 316.5t-85 424h704q0 -100 41.5 -179.5t119.5 -134t190 -83.5t253 -29q120 0 223 21t178.5 62.5t119 103t43.5 142.5
t-37.5 130t-111 80t-183 49.5t-253.5 37.5l-134 19q-87 12 -180.5 25.5t-187.5 34t-185.5 50t-174 72t-152.5 100t-121 135t-79.5 177t-28.5 225.5q0 152 42.5 280t121 231.5t190.5 182.5t250 132.5t300 80.5t341 27zM1613 3010h-564l-308 639h410l181 -308l179 308h410z
" />
    <glyph glyph-name="scaron" unicode="&#x161;" horiz-adv-x="2278" 
d="M1100 2265q252 0 450 -54t334.5 -156t208 -248t71.5 -330h-689q0 146 -90 226t-267 80q-75 0 -137.5 -14.5t-107.5 -41t-69.5 -64t-24.5 -82.5q0 -58 33 -95.5t91 -62t135.5 -40.5t167.5 -32l148 -26q87 -15 185.5 -35t195 -51.5t185 -79t156 -117.5t108 -166.5
t40.5 -227.5q0 -169 -71 -300.5t-207.5 -222t-335 -138t-454.5 -47.5q-270 0 -476.5 53t-346.5 155.5t-212 252.5t-72 344h689q0 -155 102 -236t310 -81q89 0 160 14.5t121 41.5t77 66t27 88q0 61 -31 99.5t-89.5 64t-142.5 43t-190 36.5l-148 27q-80 14 -173.5 33t-187 50
t-181 77t-154.5 114.5t-107 163t-40 222.5q0 163 69 292t198.5 219t317 138t424.5 48zM1385 2355h-564l-308 639h410l181 -308l179 308h410z" />
    <glyph glyph-name="uni0162" unicode="&#x162;" horiz-adv-x="2494" 
d="M2462 2248h-846v-2248h-738v2248h-846v612h2430v-612zM1360 8l-30 -160q110 -2 199 -24t152 -61.5t97 -94.5t34 -123q0 -73 -39.5 -133.5t-111.5 -103.5t-173 -66.5t-224 -23.5q-57 0 -118.5 5.5t-127.5 16.5v262q107 -22 195 -22q109 0 168 28.5t59 72.5q0 26 -22 49
t-66.5 40t-110.5 27t-155 10l54 301h220z" />
    <glyph glyph-name="uni0163" unicode="&#x163;" horiz-adv-x="1655" 
d="M1578 17q-147 -38 -274.5 -57.5t-239.5 -19.5q-380 0 -574 221t-194 658v842h-264v544h264v508h696v-508h586v-544h-586v-843q0 -175 63.5 -255t204.5 -80q58 0 135 13t183 39v-518zM1078 8l-30 -160q110 -2 199 -24t152 -61.5t97 -94.5t34 -123q0 -73 -39.5 -133.5
t-111.5 -103.5t-173 -66.5t-224 -23.5q-57 0 -118.5 5.5t-127.5 16.5v262q107 -22 195 -22q109 0 168 28.5t59 72.5q0 26 -22 49t-66.5 40t-110.5 27t-155 10l54 301h220z" />
    <glyph glyph-name="Tcaron" unicode="&#x164;" horiz-adv-x="2494" 
d="M2462 2248h-846v-2248h-738v2248h-846v612h2430v-612zM1530 3010h-564l-308 639h410l181 -308l179 308h410z" />
    <glyph glyph-name="tcaron" unicode="&#x165;" horiz-adv-x="1655" 
d="M1578 17q-147 -38 -274.5 -57.5t-239.5 -19.5q-380 0 -574 221t-194 658v842h-264v544h264v508h696v-508h586v-544h-586v-843q0 -175 63.5 -255t204.5 -80q58 0 135 13t183 39v-518zM1571 2335h-406l79 951h495z" />
    <glyph glyph-name="Tbar" unicode="&#x166;" horiz-adv-x="2494" 
d="M2462 2248h-846v-2248h-738v2248h-846v612h2430v-612zM2132 1052h-1769v407h1769v-407z" />
    <glyph glyph-name="tbar" unicode="&#x167;" horiz-adv-x="1655" 
d="M1578 17q-147 -38 -274.5 -57.5t-239.5 -19.5q-380 0 -574 221t-194 658v842h-264v544h264v508h696v-508h586v-544h-586v-843q0 -175 63.5 -255t204.5 -80q58 0 135 13t183 39v-518zM1526 992h-1494v367h1494v-367z" />
    <glyph glyph-name="Utilde" unicode="&#x168;" horiz-adv-x="2768" 
d="M122 2860h738v-1654q0 -170 34 -292.5t100.5 -201.5t164.5 -116.5t225 -37.5q128 0 226 37.5t164 116.5t100 201.5t34 292.5v1654h738v-1720q0 -289 -93 -512.5t-260.5 -376.5t-399 -232t-509.5 -79q-185 0 -350 35.5t-305.5 104.5t-252.5 171t-191 235.5t-121 297
t-42 356.5v1720zM2005 3616q0 -156 -18.5 -267.5t-58.5 -183t-102.5 -105.5t-149.5 -34q-50 0 -93 9.5t-79 23.5t-64.5 30t-49.5 29l-60 35q-16 9 -35.5 19.5t-42 20t-46.5 15.5t-50 6q-52 0 -80 -35.5t-28 -126.5v-6h-239v10q0 303 83.5 448.5t257.5 145.5q45 0 84 -8.5
t71 -21.5t57 -27.5t44 -25.5l59 -35q17 -10 39 -22.5t48 -23t55 -18t60 -7.5q49 0 77 35t28 120v15h233v-15z" />
    <glyph glyph-name="utilde" unicode="&#x169;" 
d="M1552 2205h696v-2205h-696v675q-65 -364 -255 -549.5t-498 -185.5q-346 0 -521.5 241.5t-175.5 718.5v1305h696v-1155q0 -257 89 -384t271 -127q192 0 293 133.5t101 393.5v1139zM1796 2961q0 -156 -18.5 -267.5t-58.5 -183t-102.5 -105.5t-149.5 -34q-50 0 -93 9.5
t-79 23.5t-64.5 30t-49.5 29l-60 35q-16 9 -35.5 19.5t-42 20t-46.5 15.5t-50 6q-52 0 -80 -35.5t-28 -126.5v-6h-239v10q0 303 83.5 448.5t257.5 145.5q45 0 84 -8.5t71 -21.5t57 -27.5t44 -25.5l59 -35q17 -10 39 -22.5t48 -23t55 -18t60 -7.5q49 0 77 35t28 120v15h233
v-15z" />
    <glyph glyph-name="Umacron" unicode="&#x16a;" horiz-adv-x="2768" 
d="M122 2860h738v-1654q0 -170 34 -292.5t100.5 -201.5t164.5 -116.5t225 -37.5q128 0 226 37.5t164 116.5t100 201.5t34 292.5v1654h738v-1720q0 -289 -93 -512.5t-260.5 -376.5t-399 -232t-509.5 -79q-185 0 -350 35.5t-305.5 104.5t-252.5 171t-191 235.5t-121 297
t-42 356.5v1720zM1952 3099h-1136v364h1136v-364z" />
    <glyph glyph-name="umacron" unicode="&#x16b;" 
d="M1552 2205h696v-2205h-696v675q-65 -364 -255 -549.5t-498 -185.5q-346 0 -521.5 241.5t-175.5 718.5v1305h696v-1155q0 -257 89 -384t271 -127q192 0 293 133.5t101 393.5v1139zM1743 2444h-1136v364h1136v-364z" />
    <glyph glyph-name="Ubreve" unicode="&#x16c;" horiz-adv-x="2768" 
d="M122 2860h738v-1654q0 -170 34 -292.5t100.5 -201.5t164.5 -116.5t225 -37.5q128 0 226 37.5t164 116.5t100 201.5t34 292.5v1654h738v-1720q0 -289 -93 -512.5t-260.5 -376.5t-399 -232t-509.5 -79q-185 0 -350 35.5t-305.5 104.5t-252.5 171t-191 235.5t-121 297
t-42 356.5v1720zM1149 3676q0 -146 62 -227.5t174 -81.5q111 0 173 81.5t62 227.5h315q0 -160 -33.5 -284t-102 -209t-172 -129t-243.5 -44q-139 0 -242.5 44t-172 129t-102 209t-33.5 284h315z" />
    <glyph glyph-name="ubreve" unicode="&#x16d;" 
d="M1552 2205h696v-2205h-696v675q-65 -364 -255 -549.5t-498 -185.5q-346 0 -521.5 241.5t-175.5 718.5v1305h696v-1155q0 -257 89 -384t271 -127q192 0 293 133.5t101 393.5v1139zM940 3021q0 -146 62 -227.5t174 -81.5q111 0 173 81.5t62 227.5h315q0 -160 -33.5 -284
t-102 -209t-172 -129t-243.5 -44q-139 0 -242.5 44t-172 129t-102 209t-33.5 284h315z" />
    <glyph glyph-name="Uring" unicode="&#x16e;" horiz-adv-x="2768" 
d="M122 2860h738v-1654q0 -170 34 -292.5t100.5 -201.5t164.5 -116.5t225 -37.5q128 0 226 37.5t164 116.5t100 201.5t34 292.5v1654h738v-1720q0 -289 -93 -512.5t-260.5 -376.5t-399 -232t-509.5 -79q-185 0 -350 35.5t-305.5 104.5t-252.5 171t-191 235.5t-121 297
t-42 356.5v1720zM937 3447q0 99 32.5 179.5t91 137t140 87.5t178.5 31q96 0 177 -31t139.5 -88t91.5 -137t33 -179t-33 -179.5t-91.5 -137.5t-139.5 -88t-177 -31q-97 0 -178.5 31t-140 88t-91 137.5t-32.5 179.5zM1218 3447q0 -89 44.5 -136t116.5 -47t116 47t44 136
t-44 135.5t-116 46.5t-116.5 -47t-44.5 -135z" />
    <glyph glyph-name="uring" unicode="&#x16f;" 
d="M1552 2205h696v-2205h-696v675q-65 -364 -255 -549.5t-498 -185.5q-346 0 -521.5 241.5t-175.5 718.5v1305h696v-1155q0 -257 89 -384t271 -127q192 0 293 133.5t101 393.5v1139zM728 2792q0 99 32.5 179.5t91 137t140 87.5t178.5 31q96 0 177 -31t139.5 -88t91.5 -137
t33 -179t-33 -179.5t-91.5 -137.5t-139.5 -88t-177 -31q-97 0 -178.5 31t-140 88t-91 137.5t-32.5 179.5zM1009 2792q0 -89 44.5 -136t116.5 -47t116 47t44 136t-44 135.5t-116 46.5t-116.5 -47t-44.5 -135z" />
    <glyph glyph-name="Uhungarumlaut" unicode="&#x170;" horiz-adv-x="2768" 
d="M122 2860h738v-1654q0 -170 34 -292.5t100.5 -201.5t164.5 -116.5t225 -37.5q128 0 226 37.5t164 116.5t100 201.5t34 292.5v1654h738v-1720q0 -289 -93 -512.5t-260.5 -376.5t-399 -232t-509.5 -79q-185 0 -350 35.5t-305.5 104.5t-252.5 171t-191 235.5t-121 297
t-42 356.5v1720zM805 3010l214 639h532l-324 -639h-422zM1461 3010l214 639h532l-324 -639h-422z" />
    <glyph glyph-name="uhungarumlaut" unicode="&#x171;" 
d="M1552 2205h696v-2205h-696v675q-65 -364 -255 -549.5t-498 -185.5q-346 0 -521.5 241.5t-175.5 718.5v1305h696v-1155q0 -257 89 -384t271 -127q192 0 293 133.5t101 393.5v1139zM596 2355l214 639h532l-324 -639h-422zM1252 2355l214 639h532l-324 -639h-422z" />
    <glyph glyph-name="Uogonek" unicode="&#x172;" horiz-adv-x="2768" 
d="M122 2860h738v-1654q0 -170 34 -292.5t100.5 -201.5t164.5 -116.5t225 -37.5q128 0 226 37.5t164 116.5t100 201.5t34 292.5v1654h738v-1720q0 -289 -93 -512.5t-260.5 -376.5t-399 -232t-509.5 -79q-185 0 -350 35.5t-305.5 104.5t-252.5 171t-191 235.5t-121 297
t-42 356.5v1720zM1823 0q-80 0 -157.5 -19.5t-138.5 -50.5t-98.5 -69.5t-37.5 -75.5q0 -51 72 -79t196 -28q46 0 87.5 3.5t83.5 10.5v-383q-60 -8 -118.5 -11.5t-111.5 -3.5q-117 0 -213.5 23.5t-165.5 66.5t-107 103.5t-38 133.5q0 89 55 164.5t152.5 131.5t230.5 88.5
t289 34.5z" />
    <glyph glyph-name="uogonek" unicode="&#x173;" 
d="M1552 2205h696v-2205h-696v675q-65 -364 -255 -549.5t-498 -185.5q-346 0 -521.5 241.5t-175.5 718.5v1305h696v-1155q0 -257 89 -384t271 -127q192 0 293 133.5t101 393.5v1139zM2246 0q-80 0 -157.5 -19.5t-138.5 -50.5t-98.5 -69.5t-37.5 -75.5q0 -51 72 -79t196 -28
q46 0 87.5 3.5t83.5 10.5v-383q-60 -8 -118.5 -11.5t-111.5 -3.5q-117 0 -213.5 23.5t-165.5 66.5t-107 103.5t-38 133.5q0 89 55 164.5t152.5 131.5t230.5 88.5t289 34.5z" />
    <glyph glyph-name="Wcircumflex" unicode="&#x174;" horiz-adv-x="4374" 
d="M2686 2860l407 -2385l464 2385h755l-680 -2860h-1026l-420 2310l-424 -2310h-1026l-674 2860h789l458 -2385l413 2385h964zM2367 3010l-179 308l-181 -308h-410l308 639h564l308 -639h-410z" />
    <glyph glyph-name="wcircumflex" unicode="&#x175;" horiz-adv-x="3707" 
d="M2324 2205l321 -1727l360 1727h680l-535 -2205h-966l-330 1735l-330 -1735h-966l-535 2205h711l358 -1754l324 1754h908zM2034 2355l-179 308l-181 -308h-410l308 639h564l308 -639h-410z" />
    <glyph glyph-name="Ycircumflex" unicode="&#x176;" horiz-adv-x="2742" 
d="M2765 2860l-1027 -1841v-1019h-738v1019l-1023 1841h803l594 -1166l604 1166h787zM1551 3010l-179 308l-181 -308h-410l308 639h564l308 -639h-410z" />
    <glyph glyph-name="ycircumflex" unicode="&#x177;" horiz-adv-x="2372" 
d="M2365 2205l-806 -2229q-74 -206 -174.5 -356t-232.5 -247.5t-299 -144t-373 -46.5q-175 0 -382 36v550q77 -11 140.5 -16.5t120.5 -5.5q79 0 145 11t121.5 33.5t102 58t85.5 85.5l-806 2271h735l449 -1684l455 1684h719zM1366 2331l-179 308l-181 -308h-410l308 639h564
l308 -639h-410z" />
    <glyph glyph-name="Ydieresis" unicode="&#x178;" horiz-adv-x="2742" 
d="M2765 2860l-1027 -1841v-1019h-738v1019l-1023 1841h803l594 -1166l604 1166h787zM1287 3038h-537v557h537v-557zM1992 3038h-537v557h537v-557z" />
    <glyph glyph-name="Zacute" unicode="&#x179;" horiz-adv-x="2549" 
d="M980 612h1447v-612h-2305v642l1349 1606h-1299v612h2155v-642zM1933.01 3649h-591.964l-295.982 -639h435.974z" />
    <glyph glyph-name="zacute" unicode="&#x17a;" horiz-adv-x="2173" 
d="M837 544h1269v-544h-2039v578l1163 1083h-1124v544h1923v-578zM1751.01 2970h-591.964l-295.982 -639h435.974z" />
    <glyph glyph-name="Zdotaccent" unicode="&#x17b;" horiz-adv-x="2549" 
d="M980 612h1447v-612h-2305v642l1349 1606h-1299v612h2155v-642zM1531 3038h-537v557h537v-557z" />
    <glyph glyph-name="zdotaccent" unicode="&#x17c;" horiz-adv-x="2173" 
d="M837 544h1269v-544h-2039v578l1163 1083h-1124v544h1923v-578zM1350 2359h-537v557h537v-557z" />
    <glyph glyph-name="Zcaron" unicode="&#x17d;" horiz-adv-x="2549" 
d="M980 612h1447v-612h-2305v642l1349 1606h-1299v612h2155v-642zM1547 3010h-564l-308 639h410l181 -308l179 308h410z" />
    <glyph glyph-name="zcaron" unicode="&#x17e;" horiz-adv-x="2173" 
d="M837 544h1269v-544h-2039v578l1163 1083h-1124v544h1923v-578zM1365 2331h-564l-308 639h410l181 -308l179 308h410z" />
    <glyph glyph-name="longs" unicode="&#x17f;" horiz-adv-x="3091" 
d="M122 2860h2847v-2860h-2847v2860zM1545 1695l703 770h-1403zM569 624l735 806l-735 807v-1613zM2522 622v1614l-735 -806zM843 395h1402l-700 770z" />
    <glyph glyph-name="florin" unicode="&#x192;" horiz-adv-x="1984" 
d="M1942 2533q-75 13 -146 19.5t-131 6.5q-184 0 -270.5 -72t-86.5 -224v-58h634v-544h-602v-1681q0 -194 -57.5 -343t-169.5 -250t-277.5 -153t-380.5 -52q-96 0 -201 10t-212 29v518q72 -13 139 -19.5t124 -6.5q176 0 257.5 72t81.5 224v1652h-278v544h278v68
q0 199 57.5 351.5t170 256t277.5 156.5t381 53q95 0 200 -10t212 -29v-518z" />
    <glyph glyph-name="AEacute" unicode="&#x1fc;" horiz-adv-x="3712" 
d="M-13 0l1144 2860h2486v-612h-1260v-534h1146v-570h-1146v-532h1294v-612h-2032v565h-656l-199 -565h-777zM1619 1149v1276l-450 -1276h450zM3042.01 3649h-591.964l-295.982 -639h435.974z" />
    <glyph glyph-name="aeacute" unicode="&#x1fd;" horiz-adv-x="3881" 
d="M117 1377q0 206 75.5 370t216.5 279.5t342.5 177t453.5 61.5q254 0 451 -66t332 -192q138 124 320 191t401 67q166 0 312 -37.5t268.5 -108t219.5 -172.5t164.5 -231t103 -282.5t35.5 -327.5q0 -83 -9 -166h-1550q12 -110 50 -196t99 -145.5t143.5 -91t184.5 -31.5
q286 0 406 255h642q-49 -184 -146.5 -331t-235.5 -249t-311.5 -156.5t-373.5 -54.5q-190 0 -355 49t-298.5 140.5t-232.5 222t-157 293.5q-24 -162 -96.5 -292.5t-185 -222t-260.5 -141t-322 -49.5q-169 0 -307.5 46.5t-237.5 131.5t-153 204.5t-54 265.5q0 158 63.5 282
t185 210t297 131.5t398.5 45.5h596v51q0 103 -26.5 183.5t-78 136t-126.5 84.5t-173 29t-169 -25t-117.5 -71.5t-69 -114t-22.5 -153.5h-693zM3158 1320q-71 421 -444 421q-192 0 -307.5 -108t-147.5 -313h899zM1090 881q-168 0 -253.5 -55.5t-85.5 -164.5t85 -169t241 -60
q110 0 204 29.5t163 80.5t108.5 121t39.5 151v67h-502zM2602.01 2994h-591.964l-295.982 -639h435.974z" />
    <glyph glyph-name="Oslashacute" unicode="&#x1fe;" horiz-adv-x="3004" 
d="M459 379q-87 96 -155 211.5t-115.5 248t-72 281t-24.5 310.5q0 226 47.5 424.5t135.5 364t213.5 295.5t282.5 220.5t341.5 138t389.5 47.5q204 0 385 -46t337 -134l142 180h531l-351 -439q87 -97 155 -212.5t115 -247.5t71.5 -280.5t24.5 -310.5q0 -226 -47.5 -424.5
t-135.5 -364t-213.5 -295.5t-282 -220.5t-341 -138t-390.5 -47.5q-204 0 -386.5 46.5t-338.5 135.5l-148 -182h-517zM836 1430q0 -254 62 -438l955 1219q-146 91 -351 91q-161 0 -285 -55.5t-209 -165.5t-128.5 -273t-43.5 -378zM1153 647q145 -89 349 -89q161 0 285.5 56
t209 165.5t128 273t43.5 377.5q0 128 -15.5 236.5t-45.5 199.5zM2170.01 3649h-591.964l-295.982 -639h435.974z" />
    <glyph glyph-name="oslashacute" unicode="&#x1ff;" horiz-adv-x="2412" 
d="M2047 1927q142 -152 219.5 -359.5t77.5 -464.5q0 -177 -38 -332t-109 -284t-172.5 -230.5t-227.5 -172t-275 -107.5t-316 -37q-165 0 -310.5 35.5t-271.5 104.5l-112 -140h-418l272 339q-142 152 -220 359.5t-78 464.5q0 177 38 331.5t109 284t172.5 231t228 171.5
t275.5 107t315 37q165 0 311 -35.5t271 -103.5l112 139h418zM770 1103q0 -71 8 -132.5t23 -115.5l609 766q-44 22 -94.5 33.5t-108.5 11.5q-105 0 -186 -36.5t-137 -107.5t-85 -176.5t-29 -242.5zM1003 585q89 -46 204 -46q105 0 186 36.5t136.5 108t84 177t28.5 242.5
q0 141 -30 247zM1875.01 2994h-591.964l-295.982 -639h435.974z" />
    <glyph glyph-name="uni0218" unicode="&#x218;" horiz-adv-x="2713" 
d="M1343 2920q285 0 512 -67.5t385.5 -194t242.5 -308.5t84 -412h-704q0 93 -37.5 167t-106.5 125.5t-167 79.5t-219 28q-100 0 -190.5 -19.5t-159.5 -57.5t-109.5 -94t-40.5 -130q0 -75 36.5 -121t110.5 -76t185.5 -50t262.5 -42l101 -15q89 -13 185 -28.5t192 -37.5
t189 -53t177 -76t155 -105.5t122.5 -141t80.5 -184t29 -233.5q0 -226 -90 -400.5t-258 -293t-407.5 -179.5t-538.5 -61q-319 0 -564 69t-411 198.5t-251 316.5t-85 424h704q0 -100 41.5 -179.5t119.5 -134t190 -83.5t253 -29q120 0 223 21t178.5 62.5t119 103t43.5 142.5
t-37.5 130t-111 80t-183 49.5t-253.5 37.5l-134 19q-87 12 -180.5 25.5t-187.5 34t-185.5 50t-174 72t-152.5 100t-121 135t-79.5 177t-28.5 225.5q0 152 42.5 280t121 231.5t190.5 182.5t250 132.5t300 80.5t341 27zM1416 -788h-436l102 638h576z" />
    <glyph glyph-name="uni0219" unicode="&#x219;" horiz-adv-x="2278" 
d="M1100 2265q252 0 450 -54t334.5 -156t208 -248t71.5 -330h-689q0 146 -90 226t-267 80q-75 0 -137.5 -14.5t-107.5 -41t-69.5 -64t-24.5 -82.5q0 -58 33 -95.5t91 -62t135.5 -40.5t167.5 -32l148 -26q87 -15 185.5 -35t195 -51.5t185 -79t156 -117.5t108 -166.5
t40.5 -227.5q0 -169 -71 -300.5t-207.5 -222t-335 -138t-454.5 -47.5q-270 0 -476.5 53t-346.5 155.5t-212 252.5t-72 344h689q0 -155 102 -236t310 -81q89 0 160 14.5t121 41.5t77 66t27 88q0 61 -31 99.5t-89.5 64t-142.5 43t-190 36.5l-148 27q-80 14 -173.5 33t-187 50
t-181 77t-154.5 114.5t-107 163t-40 222.5q0 163 69 292t198.5 219t317 138t424.5 48zM1205 -788h-436l102 638h576z" />
    <glyph glyph-name="uni021A" unicode="&#x21a;" horiz-adv-x="2494" 
d="M2462 2248h-846v-2248h-738v2248h-846v612h2430v-612zM1292 -788h-436l102 638h576z" />
    <glyph glyph-name="uni021B" unicode="&#x21b;" horiz-adv-x="1655" 
d="M1578 17q-147 -38 -274.5 -57.5t-239.5 -19.5q-380 0 -574 221t-194 658v842h-264v544h264v508h696v-508h586v-544h-586v-843q0 -175 63.5 -255t204.5 -80q58 0 135 13t183 39v-518zM1009 -788h-436l102 638h576z" />
    <glyph glyph-name="uni0237" unicode="&#x237;" horiz-adv-x="920" 
d="M811 189q0 -273 -52 -464t-165.5 -312t-294.5 -176t-439 -55h-87v560h64q96 0 151 29.5t83.5 78.5t36 111.5t7.5 128.5v2115h696v-2016z" />
    <glyph glyph-name="circumflex" unicode="&#x2c6;" horiz-adv-x="1424" 
d="M892 2295l-179 308l-181 -308h-410l308 639h564l308 -639h-410z" />
    <glyph glyph-name="caron" unicode="&#x2c7;" horiz-adv-x="1424" 
d="M994 2295h-564l-308 639h410l181 -308l179 308h410z" />
    <glyph glyph-name="breve" unicode="&#x2d8;" horiz-adv-x="1345" 
d="M437 2961q0 -146 62 -227.5t174 -81.5q111 0 173 81.5t62 227.5h315q0 -160 -33.5 -284t-102 -209t-172 -129t-243.5 -44q-139 0 -242.5 44t-172 129t-102 209t-33.5 284h315z" />
    <glyph glyph-name="dotaccent" unicode="&#x2d9;" horiz-adv-x="783" 
d="M659 2323h-537v557h537v-557z" />
    <glyph glyph-name="ring" unicode="&#x2da;" horiz-adv-x="1124" 
d="M115 2732q0 99 32.5 179.5t91 137t140 87.5t178.5 31q96 0 177 -31t139.5 -88t91.5 -137t33 -179t-33 -179.5t-91.5 -137.5t-139.5 -88t-177 -31q-97 0 -178.5 31t-140 88t-91 137.5t-32.5 179.5zM396 2732q0 -89 44.5 -136t116.5 -47t116 47t44 136t-44 135.5t-116 46.5
t-116.5 -47t-44.5 -135z" />
    <glyph glyph-name="ogonek" unicode="&#x2db;" horiz-adv-x="1000" 
d="M870 -59q-80 0 -157.5 -19.5t-138.5 -50.5t-98.5 -69.5t-37.5 -75.5q0 -51 72 -79t196 -28q46 0 87.5 3.5t83.5 10.5v-383q-60 -8 -118.5 -11.5t-111.5 -3.5q-117 0 -213.5 23.5t-165.5 66.5t-107 103.5t-38 133.5q0 89 55 164.5t152.5 131.5t230.5 88.5t289 34.5z" />
    <glyph glyph-name="tilde" unicode="&#x2dc;" horiz-adv-x="1438" 
d="M1319 2901q0 -156 -18.5 -267.5t-58.5 -183t-102.5 -105.5t-149.5 -34q-50 0 -93 9.5t-79 23.5t-64.5 30t-49.5 29l-60 35q-16 9 -35.5 19.5t-42 20t-46.5 15.5t-50 6q-52 0 -80 -35.5t-28 -126.5v-6h-239v10q0 303 83.5 448.5t257.5 145.5q45 0 84 -8.5t71 -21.5
t57 -27.5t44 -25.5l59 -35q17 -10 39 -22.5t48 -23t55 -18t60 -7.5q49 0 77 35t28 120v15h233v-15z" />
    <glyph glyph-name="hungarumlaut" unicode="&#x2dd;" horiz-adv-x="1647" 
d="M122 2295l214 639h532l-324 -639h-422zM778 2295l214 639h532l-324 -639h-422z" />
    <glyph glyph-name="uni03BC" unicode="&#x3bc;" horiz-adv-x="3091" 
d="M122 2860h2847v-2860h-2847v2860zM1545 1695l703 770h-1403zM569 624l735 806l-735 807v-1613zM2522 622v1614l-735 -806zM843 395h1402l-700 770z" />
    <glyph glyph-name="Wgrave" unicode="&#x1e80;" horiz-adv-x="4374" 
d="M2686 2860l407 -2385l464 2385h755l-680 -2860h-1026l-420 2310l-424 -2310h-1026l-674 2860h789l458 -2385l413 2385h964zM1519 3649h592l296 -639h-436z" />
    <glyph glyph-name="wgrave" unicode="&#x1e81;" horiz-adv-x="3707" 
d="M2324 2205l321 -1727l360 1727h680l-535 -2205h-966l-330 1735l-330 -1735h-966l-535 2205h711l358 -1754l324 1754h908zM1185 2994h592l296 -639h-436z" />
    <glyph glyph-name="Wacute" unicode="&#x1e82;" horiz-adv-x="4374" 
d="M2686 2860l407 -2385l464 2385h755l-680 -2860h-1026l-420 2310l-424 -2310h-1026l-674 2860h789l458 -2385l413 2385h964zM2856.01 3649h-591.964l-295.982 -639h435.974z" />
    <glyph glyph-name="wacute" unicode="&#x1e83;" horiz-adv-x="3707" 
d="M2324 2205l321 -1727l360 1727h680l-535 -2205h-966l-330 1735l-330 -1735h-966l-535 2205h711l358 -1754l324 1754h908zM2522.01 2994h-591.964l-295.982 -639h435.974z" />
    <glyph glyph-name="Wdieresis" unicode="&#x1e84;" horiz-adv-x="4374" 
d="M2686 2860l407 -2385l464 2385h755l-680 -2860h-1026l-420 2310l-424 -2310h-1026l-674 2860h789l458 -2385l413 2385h964zM2103 3038h-537v557h537v-557zM2808 3038h-537v557h537v-557z" />
    <glyph glyph-name="wdieresis" unicode="&#x1e85;" horiz-adv-x="3707" 
d="M2324 2205l321 -1727l360 1727h680l-535 -2205h-966l-330 1735l-330 -1735h-966l-535 2205h711l358 -1754l324 1754h908zM1769 2383h-537v557h537v-557zM2474 2383h-537v557h537v-557z" />
    <glyph glyph-name="Ygrave" unicode="&#x1ef2;" horiz-adv-x="2742" 
d="M2765 2860l-1027 -1841v-1019h-738v1019l-1023 1841h803l594 -1166l604 1166h787zM703 3649h592l296 -639h-436z" />
    <glyph glyph-name="ygrave" unicode="&#x1ef3;" horiz-adv-x="2372" 
d="M2365 2205l-806 -2229q-74 -206 -174.5 -356t-232.5 -247.5t-299 -144t-373 -46.5q-175 0 -382 36v550q77 -11 140.5 -16.5t120.5 -5.5q79 0 145 11t121.5 33.5t102 58t85.5 85.5l-806 2271h735l449 -1684l455 1684h719zM518 2970h592l296 -639h-436z" />
    <glyph glyph-name="endash" unicode="&#x2013;" horiz-adv-x="2945" 
d="M2823 864h-2701v588h2701v-588z" />
    <glyph glyph-name="emdash" unicode="&#x2014;" horiz-adv-x="4204" 
d="M4082 864h-3960v588h3960v-588z" />
    <glyph glyph-name="quoteleft" unicode="&#x2018;" horiz-adv-x="1077" 
d="M498.027 2959.95h455.973l-141.991 -1453.91h-689.958z" />
    <glyph glyph-name="quoteright" unicode="&#x2019;" horiz-adv-x="1077" 
d="M579.003 1506.23h-455.944l141.982 1453.82h689.916z" />
    <glyph glyph-name="quotesinglbase" unicode="&#x201a;" horiz-adv-x="917" 
d="M455 -758h-456l142 1454h690z" />
    <glyph glyph-name="quotedblleft" unicode="&#x201c;" horiz-adv-x="1858" 
d="M498.027 2959.95h455.973l-141.991 -1453.91h-689.958zM1278.03 2959.95h455.973l-141.991 -1453.91h-689.958z" />
    <glyph glyph-name="quotedblright" unicode="&#x201d;" horiz-adv-x="1858" 
d="M1360 1506.23h-455.944l141.982 1453.82h689.916zM580.051 1506.23h-455.945l141.983 1453.82h689.915z" />
    <glyph glyph-name="quotedblbase" unicode="&#x201e;" horiz-adv-x="1698" 
d="M455 -758h-456l142 1454h690zM1235 -758h-456l142 1454h690z" />
    <glyph glyph-name="dagger" unicode="&#x2020;" horiz-adv-x="1942" 
d="M1340 2860v-655h480v-522h-480v-1683h-738v1683h-480v522h480v655h738z" />
    <glyph glyph-name="daggerdbl" unicode="&#x2021;" horiz-adv-x="1943" 
d="M1341 2860v-655h480v-522h-480v-506h480v-522h-480v-655h-739v655h-480v522h480v506h-480v522h480v655h739z" />
    <glyph glyph-name="bullet" unicode="&#x2022;" horiz-adv-x="1195" 
d="M1072 739h-950v902h950v-902z" />
    <glyph glyph-name="ellipsis" unicode="&#x2026;" horiz-adv-x="2750" 
d="M794 0h-672v696h672v-696zM1711 0h-672v696h672v-696zM2627 0h-672v696h672v-696z" />
    <glyph glyph-name="perthousand" unicode="&#x2030;" horiz-adv-x="5128" 
d="M123 2153q0 173 51 314.5t144 242t224.5 155.5t292.5 55q160 0 290.5 -55t223.5 -155.5t143.5 -242t50.5 -314.5q0 -172 -50 -311t-142.5 -237t-223.5 -151t-293 -53t-293.5 53t-224 151.5t-143 237.5t-50.5 310zM2912 2862l-1771 -2860h-529l1766 2860h534zM593 2150
q0 -155 61.5 -237.5t177.5 -82.5t177.5 82t61.5 237q0 80 -16.5 143t-47 107t-75 67.5t-100.5 23.5t-100.5 -23t-75 -67t-47 -107t-16.5 -143zM1967 692q0 173 51 314.5t144.5 242t225 155.5t291.5 55t290.5 -55t223.5 -155.5t143.5 -242t50.5 -314.5q0 -172 -50 -311
t-142.5 -237t-223.5 -151t-293 -53t-293.5 53t-224 151.5t-143 237.5t-50.5 310zM3586 692q0 173 51 314.5t144 242t224.5 155.5t292.5 55q160 0 290.5 -55t223.5 -155.5t143.5 -242t50.5 -314.5q0 -172 -50 -311t-142.5 -237t-223.5 -151t-293 -53t-293.5 53t-224 151.5
t-143 237.5t-50.5 310zM2437 689q0 -155 61.5 -237.5t177.5 -82.5t177.5 82t61.5 237q0 80 -16.5 143t-47 107t-75 67.5t-100.5 23.5t-100.5 -23t-75 -67t-47 -107t-16.5 -143zM4056 689q0 -155 61 -237.5t178 -82.5q116 0 177 82t61 237q0 80 -16.5 143t-47 107t-74.5 67.5
t-100 23.5t-100.5 -23t-75 -67t-47 -107t-16.5 -143z" />
    <glyph glyph-name="guilsinglleft" unicode="&#x2039;" horiz-adv-x="1902" 
d="M1070 2098h770l-978 -995l978 -994h-770l-947 992z" />
    <glyph glyph-name="guilsinglright" unicode="&#x203a;" horiz-adv-x="1902" 
d="M832.065 109.128h-769.953l977.94 994.939l-977.94 993.939h769.953l946.942 -991.939z" />
    <glyph glyph-name="fraction" unicode="&#x2044;" horiz-adv-x="2769" 
d="M122 0l2084 2960h441l-2084 -2960h-441z" />
    <glyph glyph-name="uni2074" unicode="&#x2074;" horiz-adv-x="1585" 
d="M890 1430v288h-768v343l688 799h472v-821h180v-321h-180v-288h-392zM890 2039v440l-376 -440h376z" />
    <glyph glyph-name="Euro" unicode="&#x20ac;" horiz-adv-x="3142" 
d="M92 1305h211q-2 31 -3 62t-1 63t1 62t3 61h-211v306h255q59 246 183 442.5t300.5 334t399 211t478.5 73.5q275 0 504.5 -84.5t403 -243.5t284.5 -387t149 -515h-732q-49 308 -201 460t-407 152q-230 0 -383 -111.5t-224 -331.5h677v-306h-732q-2 -30 -3 -60.5t-1 -62.5
t1 -63.5t3 -61.5h732v-306h-676q72 -220 224.5 -330.5t381.5 -110.5q255 0 407 152.5t201 459.5h732q-25 -191 -83.5 -356.5t-146.5 -302t-203.5 -243t-256 -179.5t-304 -111t-347.5 -38q-170 0 -326.5 33t-294.5 96t-256 155t-212 209.5t-163 259.5t-108 306h-256v306z" />
    <glyph glyph-name="trademark" unicode="&#x2122;" horiz-adv-x="3514" 
d="M3422 2860v-1573h-438v1185l-288 -1185h-423l-285 1185v-1185h-419v1573h688l249 -1059l251 1059h665zM1387 2491h-429v-1204h-438v1204h-428v369h1295v-369z" />
    <glyph glyph-name="minus" unicode="&#x2212;" horiz-adv-x="2120" 
d="M122 1187v518h1876v-518h-1876z" />
    <glyph glyph-name="ethbar" horiz-adv-x="1764" 
d="M1642 447h-1520v462h1520v-462z" />
    <glyph glyph-name="crossbar" horiz-adv-x="1759" 
d="M1637 1706l-1514 -683v438l1514 684v-439z" />
    <glyph glyph-name="ethbar.case" horiz-adv-x="1688" 
d="M1565 414h-1442v420h1442v-420z" />
    <glyph glyph-name="crossbar.case" horiz-adv-x="1424" 
d="M1301 799l-1179 -533v425l1179 532v-424z" />
    <glyph glyph-name="commaccent" horiz-adv-x="818" 
d="M528 -971h-406l79 951h495z" />
    <glyph glyph-name="commaccent2" horiz-adv-x="923" 
d="M558 -788h-436l102 638h576z" />
    <glyph glyph-name="commaccent3" horiz-adv-x="923" 
d="M365 809h436l-102 -638h-576z" />
    <glyph glyph-name="tbarnew" horiz-adv-x="1738" 
d="M1616 517h-1494v367h1494v-367z" />
    <glyph glyph-name="ogonek2" horiz-adv-x="1020" 
d="M727 147q-58 -40 -110 -88t-91 -98t-62 -99.5t-23 -92.5q0 -72 67 -111t212 -39q42 0 85 3t92 11v-383q-60 -8 -119.5 -11.5t-107.5 -3.5q-124 0 -225.5 26.5t-172.5 74t-110 114t-39 146.5q0 87 46.5 167.5t125 155t183 142.5t220.5 131z" />
    <glyph glyph-name="custombarH" horiz-adv-x="3180" 
d="M3058 474h-2936v408h2936v-408z" />
    <glyph glyph-name="dotaccent2" horiz-adv-x="783" 
d="M660 2323h-537v557h537v-557z" />
    <glyph glyph-name="Toverlaybar" horiz-adv-x="2013" 
d="M1891 563h-1769v407h1769v-407z" />
    <glyph glyph-name="ogonek3" horiz-adv-x="1000" 
d="M870 -59q-80 0 -157.5 -19.5t-138.5 -50.5t-98.5 -69.5t-37.5 -75.5q0 -51 72 -79t196 -28q46 0 87.5 3.5t83.5 10.5v-383q-60 -8 -118.5 -11.5t-111.5 -3.5q-117 0 -213.5 23.5t-165.5 66.5t-107 103.5t-38 133.5q0 89 55 164.5t152.5 131.5t230.5 88.5t289 34.5z" />
    </font>
</defs>
</svg>
