<svg width="1438" height="660" viewBox="0 0 1438 660" fill="none" xmlns="http://www.w3.org/2000/svg">
<g clip-path="url(#clip0_343_2)">
<path d="M1394.08 -158.775L1367.73 -158.775L1353.38 -133.81L1381.59 -133.81L1394.95 -110.56L1367.24 -110.56L1381.34 -86.0321L1367.7 -62.3529L1341.87 -62.3529C1341.77 -62.7094 1341.56 -63.0247 1341.27 -63.2516C1340.98 -63.4786 1340.63 -63.6051 1340.26 -63.6122C1340.11 -63.6061 1339.97 -63.5831 1339.82 -63.5437L1326.77 -86.2463L1326.65 -86.4605L1297.95 -86.4605L1312.06 -61.9245L1298.19 -37.8254L1312.06 -13.7178L1298.41 9.95292L1271.22 9.95292L1257.11 -14.5745L1243.01 9.99575L1214.8 9.99575L1229.03 34.7288L1229.15 34.943L1256.38 34.943L1243.7 57.0031C1243.55 56.9623 1243.41 56.9393 1243.26 56.9345C1242.89 56.9417 1242.54 57.0682 1242.25 57.2952C1241.96 57.5221 1241.75 57.8374 1241.65 58.1939L1188.07 58.1939L1174.34 34.3004L1174.22 34.0863L1145.51 34.0863L1159.74 58.8279L1159.86 59.042L1187.58 59.042L1201.23 82.7128L1187.83 105.947L1174.34 82.4814L1174.22 82.2673L1145.51 82.2673L1159.74 107.017L1159.86 107.232L1214.81 107.232L1202.12 129.292C1201.98 129.247 1201.84 129.224 1201.69 129.223C1201.32 129.23 1200.96 129.357 1200.67 129.584C1200.38 129.811 1200.17 130.126 1200.08 130.483L1173.72 130.483L1160.07 154.153L1146.71 130.911L1146.96 130.483L1146.47 130.483L1146.22 130.054L1145.97 130.483L1118.25 130.483L1105.08 153.391C1104.94 153.353 1104.79 153.333 1104.65 153.331C1104.19 153.331 1103.76 153.511 1103.44 153.833C1103.12 154.154 1102.94 154.59 1102.94 155.044C1102.94 155.499 1103.12 155.934 1103.44 156.256C1103.76 156.577 1104.19 156.758 1104.65 156.758C1105.01 156.751 1105.37 156.626 1105.66 156.4C1105.95 156.175 1106.16 155.862 1106.26 155.507L1132.12 155.507L1146.22 180.043L1160.07 155.935L1173.57 179.4L1173.69 179.614L1201.43 179.614L1201.68 180.043L1201.93 179.614L1229.65 179.614L1243.23 155.901L1256.73 179.375L1256.88 179.623L1285.57 179.623L1271.39 154.839L1271.27 154.624L1243.99 154.624L1215.79 154.624L1202.87 132.145C1203.07 131.933 1203.22 131.67 1203.3 131.382L1229.64 131.382L1243.23 107.66L1256.72 131.125L1256.84 131.339L1284.57 131.339L1297.48 153.802C1297.33 153.957 1297.2 154.142 1297.12 154.347C1297.03 154.551 1296.99 154.771 1296.99 154.993C1296.99 155.447 1297.17 155.883 1297.49 156.204C1297.81 156.526 1298.24 156.706 1298.7 156.706C1299.06 156.7 1299.42 156.574 1299.71 156.349C1300 156.124 1300.21 155.81 1300.31 155.455L1353.85 155.455L1367.61 179.383L1367.73 179.597L1396.44 179.597L1423.68 179.597L1437.54 155.498L1438.03 155.498L1437.79 155.07L1438.03 154.642L1437.54 154.642L1423.8 130.748L1423.68 130.534L1394.95 130.534L1408.36 153.879C1408.05 154.196 1407.87 154.623 1407.87 155.07C1407.87 155.516 1408.05 155.944 1408.36 156.261L1395.68 178.338L1382.55 155.498L1368.45 130.962L1382.55 106.435L1354.35 106.435L1340.63 82.5586L1340.51 82.3444L1314.16 82.3444C1314.06 81.9895 1313.85 81.6761 1313.56 81.4508C1313.27 81.2254 1312.92 81.1002 1312.55 81.0936C1312.1 81.0936 1311.66 81.2741 1311.34 81.5954C1311.02 81.9167 1310.84 82.3526 1310.84 82.807C1310.84 83.2614 1311.02 83.6972 1311.34 84.0185C1311.66 84.3399 1312.1 84.5204 1312.55 84.5204C1312.7 84.5157 1312.84 84.4927 1312.99 84.4519L1326.04 107.155L1326.16 107.369L1353.37 107.369L1340.02 130.594L1285.04 130.594L1271.46 106.803L1285.57 82.2673L1257.36 82.2673L1244.44 59.7874C1244.65 59.5755 1244.8 59.3127 1244.87 59.0249L1271.23 59.0249L1284.4 36.1081C1284.54 36.146 1284.69 36.1661 1284.83 36.1681C1284.98 36.1661 1285.13 36.146 1285.27 36.1081L1298.32 58.8279L1298.45 59.042L1353.84 59.042L1366.7 81.3848C1366.48 81.5417 1366.3 81.7475 1366.18 81.9856C1366.06 82.2236 1365.99 82.4874 1365.99 82.7556C1365.99 83.21 1366.17 83.6458 1366.49 83.9671C1366.81 84.2885 1367.24 84.469 1367.7 84.469C1368.06 84.4624 1368.42 84.3371 1368.71 84.1118C1369 83.8865 1369.21 83.5731 1369.31 83.2182L1396.46 83.2182L1382.6 59.1106L1409.82 59.1106L1424.18 34.1548L1395.44 34.1548L1381.84 57.7998L1368.47 34.5403L1381.44 12.0261C1381.58 12.0697 1381.73 12.0928 1381.87 12.0947C1382.33 12.0947 1382.76 11.9142 1383.08 11.5928C1383.4 11.2715 1383.58 10.8357 1383.58 10.3813C1383.58 9.92684 1383.4 9.49103 1383.08 9.1697C1382.76 8.84838 1382.33 8.66785 1381.87 8.66785C1381.51 8.67446 1381.15 8.79972 1380.86 9.02504C1380.57 9.25037 1380.36 9.56374 1380.26 9.91864L1326.65 9.91865L1313 -13.7521L1326.37 -37.003L1339.89 -13.4779L1340.02 -13.2637L1367.73 -13.2637L1367.98 -12.8354L1368.22 -13.2637L1395.45 -13.2637L1409.18 10.6211L1409.31 10.8353L1438.01 10.8353L1423.78 -13.9063L1423.66 -14.1205L1396.44 -14.1205L1409.8 -37.3714L1410.29 -37.3714L1410.04 -37.7997L1424.15 -62.3271L1397.31 -62.3271C1397.23 -62.6191 1397.08 -62.8857 1396.87 -63.0982L1409.8 -85.5781L1438 -85.5781L1424.15 -109.677L1409.92 -134.427L1409.8 -134.642L1382.57 -134.642L1395.26 -156.702C1395.4 -156.661 1395.55 -156.638 1395.69 -156.633C1396.15 -156.633 1396.58 -156.814 1396.9 -157.135C1397.22 -157.456 1397.4 -157.892 1397.4 -158.347C1397.4 -158.801 1397.22 -159.237 1396.9 -159.558C1396.58 -159.879 1396.15 -160.06 1395.69 -160.06C1395.32 -160.051 1394.96 -159.921 1394.67 -159.689C1394.38 -159.457 1394.17 -159.136 1394.08 -158.775ZM1160.33 106.375L1146.96 83.124L1173.7 83.124L1187.06 106.375L1160.33 106.375ZM1270.73 155.481L1284.09 178.766L1257.36 178.766L1244 155.515L1270.73 155.481ZM1396.43 131.339L1423.16 131.339L1436.52 154.59L1411.16 154.59C1411.06 154.235 1410.85 153.922 1410.56 153.697C1410.27 153.471 1409.92 153.346 1409.55 153.339C1409.4 153.342 1409.25 153.362 1409.11 153.399L1396.43 131.339ZM1411.16 155.447L1436.52 155.447L1423.16 178.689L1396.43 178.689L1409.11 156.638C1409.25 156.675 1409.4 156.695 1409.55 156.698C1409.92 156.691 1410.27 156.566 1410.56 156.34C1410.85 156.115 1411.06 155.802 1411.16 155.447ZM1395.44 -109.677L1408.81 -86.4348L1382.09 -86.4348L1368.72 -109.677L1395.44 -109.677ZM1394.08 -61.4705C1394.16 -61.1826 1394.31 -60.9198 1394.52 -60.708L1381.84 -38.6564L1368.72 -61.4705L1394.08 -61.4705ZM1353.87 -38.2281L1327.15 -38.2281L1339.82 -60.2539C1339.97 -60.2103 1340.11 -60.1873 1340.26 -60.1854C1340.63 -60.192 1340.98 -60.3173 1341.27 -60.5426C1341.56 -60.7679 1341.77 -61.0813 1341.87 -61.4362L1367.24 -61.4362L1353.87 -38.2281ZM1338.65 -61.4705C1338.72 -61.1826 1338.87 -60.9198 1339.08 -60.708L1326.4 -38.6564L1313.28 -61.4705L1338.65 -61.4705ZM1354.62 -37.7997L1367.98 -61.0421L1374.05 -50.4875L1381.34 -37.7997L1367.98 -14.5488L1361.91 -25.112L1354.62 -37.7997ZM1382.57 -38.2281L1395.26 -60.2539C1395.4 -60.209 1395.55 -60.1859 1395.69 -60.1854C1395.84 -60.1859 1395.99 -60.209 1396.13 -60.2539L1408.82 -38.1938L1382.57 -38.2281ZM1326.16 -85.5781L1339.08 -63.0982C1338.87 -62.884 1338.72 -62.618 1338.65 -62.3271L1312.8 -62.3271L1299.43 -85.5781L1326.16 -85.5781ZM1283.22 34.0863L1257.86 34.0863L1271.22 10.8525L1297.95 10.8525L1285.27 32.9126C1285.13 32.8747 1284.98 32.8545 1284.83 32.8526C1284.47 32.8581 1284.11 32.9809 1283.82 33.2029C1283.53 33.4249 1283.32 33.7345 1283.22 34.0863ZM1286.44 34.0862C1286.37 33.7969 1286.22 33.5331 1286.01 33.3238L1298.69 11.2722L1311.81 34.0862L1286.44 34.0862ZM1270.48 10.407L1257.11 33.6579L1250.56 22.2552L1243.74 10.407L1257.11 -12.8354L1270.48 10.407ZM1229.64 34.0863L1216.28 10.8525L1243.01 10.8525L1256.37 34.0863L1229.64 34.0863ZM1160.35 58.1939L1146.99 34.943L1173.72 34.943L1187.08 58.1939L1160.35 58.1939ZM1215.3 59.0506L1219.67 66.6496L1228.66 82.293L1201.94 82.293L1188.57 59.0506L1215.3 59.0506ZM1256.37 83.1497L1249.69 94.8094L1243.01 106.435L1216.28 106.435L1222.96 94.8094L1229.64 83.1839L1256.37 83.1497ZM1188.57 106.401L1201.94 83.1497L1228.66 83.1497L1221.98 94.8094L1215.3 106.435L1188.57 106.401ZM1200.08 131.365C1200.15 131.654 1200.3 131.918 1200.51 132.127L1187.58 154.607L1160.85 154.607L1174.22 131.365L1200.08 131.365ZM1118.78 131.365L1145.51 131.365L1132.15 154.607L1106.29 154.607C1106.22 154.319 1106.07 154.057 1105.86 153.845L1118.78 131.365ZM1132.88 155.036L1146.25 131.793L1159.37 154.607L1159.62 155.036L1159.37 155.464L1146.25 178.287L1132.88 155.036ZM1174.22 178.715L1160.85 155.464L1187.58 155.464L1200.95 178.715L1174.22 178.715ZM1202.42 178.715L1215.79 155.464L1242.52 155.464L1229.16 178.715L1202.42 178.715ZM1215.08 155.036L1201.69 178.287L1195.61 167.723L1188.32 155.036L1201.25 132.504C1201.39 132.549 1201.54 132.572 1201.69 132.573C1201.84 132.572 1201.98 132.549 1202.12 132.504L1215.08 155.036ZM1203.33 130.508C1203.25 130.217 1203.1 129.951 1202.89 129.737L1215.82 107.257L1242.52 107.257L1229.16 130.508L1203.33 130.508ZM1257.39 130.508L1244.02 107.257L1270.73 107.257L1284.09 130.508L1257.39 130.508ZM1300.32 154.59C1300.22 154.231 1300.01 153.915 1299.71 153.689C1299.42 153.463 1299.06 153.34 1298.69 153.339C1298.54 153.343 1298.39 153.363 1298.25 153.399L1285.57 131.339L1312.34 131.339L1325.7 154.59L1300.32 154.59ZM1340.04 131.339L1353.41 154.59L1326.65 154.59L1313.28 131.339L1340.04 131.339ZM1381.61 155.481L1394.95 178.766L1368.22 178.766L1354.85 155.515L1381.61 155.481ZM1354.4 154.624L1341.03 131.374L1367.75 131.374L1381.12 154.624L1354.4 154.624ZM1326.68 106.435L1313.75 83.955C1313.96 83.7407 1314.11 83.4748 1314.19 83.1839L1340.04 83.1839L1353.41 106.435L1326.68 106.435ZM1354.87 107.292L1381.1 107.292L1367.73 130.534L1341 130.534L1354.35 107.309L1354.86 107.309L1354.87 107.292ZM1284.12 83.2011L1270.76 106.452L1243.99 106.452L1250.68 94.8094L1257.36 83.1839L1284.12 83.2011ZM1256.4 82.3444L1229.64 82.3444L1222.01 69.0655L1216.28 59.102L1241.65 59.102C1241.75 59.4432 1241.97 59.7423 1242.25 59.9574C1242.53 60.1725 1242.88 60.2928 1243.23 60.3014C1243.38 60.3009 1243.53 60.2778 1243.67 60.2329L1256.4 82.3444ZM1270.76 58.2453L1244.87 58.2453C1244.8 57.9544 1244.65 57.6885 1244.44 57.4743L1257.36 34.9944L1283.22 34.9944C1283.29 35.2838 1283.44 35.5475 1283.66 35.7568L1270.76 58.2453ZM1298.96 58.2453L1286.01 35.6969C1286.22 35.4876 1286.37 35.2238 1286.44 34.9344L1312.34 34.9344L1312.58 35.3628L1325.7 58.1853L1298.96 58.2453ZM1354.41 58.2453L1341.04 34.9944L1367.77 34.9944L1381.14 58.2453L1354.41 58.2453ZM1340.05 34.9944L1353.42 58.2453L1326.65 58.2453L1313.28 34.9944L1340.05 34.9944ZM1394.99 82.3872L1369.32 82.3872C1369.22 82.0307 1369.01 81.7154 1368.72 81.4885C1368.43 81.2615 1368.07 81.135 1367.7 81.1278C1367.65 81.1278 1367.6 81.1278 1367.55 81.1278L1354.89 59.1191L1381.63 59.1191L1394.99 82.3872ZM1422.7 35.0372L1409.34 58.2796L1382.56 58.2796L1395.94 34.9858L1422.7 35.0372ZM1380.22 10.8525C1380.29 11.1433 1380.44 11.4092 1380.65 11.6235L1367.73 34.1034L1341 34.1034L1354.37 10.8525L1380.22 10.8525ZM1340.01 34.1034L1313.28 34.1034L1326.65 10.8525L1353.38 10.8525L1340.01 34.1034ZM1325.91 10.4241L1312.55 33.675L1299.18 10.4327L1299.43 9.99575L1312.55 -12.8183L1325.91 10.4241ZM1299.18 -37.7826L1312.55 -61.025L1325.66 -38.211L1325.91 -37.7826L1325.66 -37.3543L1312.55 -14.5317L1299.18 -37.7826ZM1340.49 -14.1204L1327.13 -37.3714L1353.86 -37.3714L1367.23 -14.1204L1340.49 -14.1204ZM1423.15 -13.2637L1436.53 9.99574L1409.8 9.99574L1396.44 -13.2466L1423.15 -13.2637ZM1395.43 -14.1205L1368.72 -14.1204L1382.09 -37.3714L1408.82 -37.3714L1395.43 -14.1205ZM1409.59 -38.6564L1396.91 -60.708C1397.12 -60.9173 1397.27 -61.181 1397.34 -61.4705L1422.7 -61.4705L1409.59 -38.6564ZM1394.12 -62.3271L1368.72 -62.3271L1382.09 -85.5781L1408.82 -85.5781L1396.13 -63.518C1395.99 -63.5588 1395.84 -63.5818 1395.69 -63.5865C1395.33 -63.5794 1394.97 -63.4529 1394.68 -63.2259C1394.39 -62.9989 1394.18 -62.6837 1394.08 -62.3271L1394.12 -62.3271ZM1436.56 -86.4348L1409.8 -86.4348L1396.44 -109.677L1423.16 -109.677L1436.56 -86.4348ZM1409.34 -133.785L1422.7 -110.534L1395.94 -110.534L1382.57 -133.785L1409.34 -133.785ZM1381.63 -134.642L1354.86 -134.642L1368.22 -157.918L1394.08 -157.918C1394.16 -157.627 1394.31 -157.361 1394.52 -157.147L1381.63 -134.642Z" fill="url(#paint0_linear_343_2)"/>
</g>
<g clip-path="url(#clip1_343_2)">
<path d="M1428 473.107L1399.85 489.34L1427.23 505.194L1427.48 505.334V537.811L1427.98 538.101L1427.48 538.391V570.858L1399.84 586.851L1427.26 602.665L1427.51 602.805V636.391L1398.6 619.718L1398.35 619.578V587.661V554.604L1372.1 539.48C1371.85 539.726 1371.54 539.902 1371.2 539.99V603.335L1343.05 619.568V652.035L1316.29 667.469C1316.33 667.639 1316.35 667.813 1316.36 667.989C1316.35 668.161 1316.33 668.332 1316.29 668.499L1342.8 683.792L1343.05 683.932V715.83L1370.2 700.186V634.652L1397.45 650.376C1397.66 650.135 1397.92 649.947 1398.22 649.828C1398.52 649.709 1398.84 649.663 1399.15 649.693C1399.47 649.722 1399.78 649.827 1400.04 649.999C1400.31 650.17 1400.54 650.403 1400.7 650.679C1400.86 650.954 1400.95 651.264 1400.97 651.582C1400.98 651.9 1400.92 652.217 1400.79 652.507C1400.66 652.797 1400.46 653.052 1400.21 653.25C1399.96 653.448 1399.67 653.583 1399.35 653.645V716.379L1427.3 732.503L1427.55 732.643V766.279L1399.33 749.996L1370.68 733.473L1342.02 749.996V717.009L1314.17 700.906L1313.92 700.756V669.888C1313.52 669.752 1313.18 669.497 1312.94 669.158C1312.7 668.82 1312.57 668.414 1312.57 667.999C1312.57 667.583 1312.7 667.178 1312.94 666.839C1313.18 666.501 1313.52 666.246 1313.92 666.11V635.232L1342.07 618.988V587.061L1314.92 571.407V603.335L1286.76 619.578V620.148L1286.26 619.868L1285.76 620.148V619.578L1257.86 603.485L1257.61 603.335V569.708L1284.87 585.432C1285.05 585.245 1285.27 585.096 1285.51 584.994C1285.75 584.893 1286 584.84 1286.26 584.84C1286.53 584.84 1286.78 584.893 1287.02 584.994C1287.26 585.096 1287.48 585.245 1287.66 585.432L1313.92 570.288V504.754L1342.57 521.278L1370.2 505.334L1397.85 489.34L1370.7 473.687L1370.2 473.976V473.397L1369.7 473.107L1370.2 472.817V440.34L1398.35 424.126V393.828C1397.99 393.741 1397.65 393.552 1397.38 393.282C1397.12 393.012 1396.94 392.672 1396.86 392.302C1396.78 391.933 1396.81 391.548 1396.94 391.193C1397.07 390.839 1397.3 390.528 1397.6 390.298C1397.9 390.067 1398.25 389.927 1398.63 389.892C1399.01 389.858 1399.39 389.931 1399.72 390.102C1400.06 390.274 1400.34 390.538 1400.54 390.863C1400.73 391.188 1400.83 391.561 1400.81 391.939C1400.81 392.111 1400.79 392.283 1400.74 392.449L1427.25 407.743L1427.5 407.883V441.539L1399.35 425.296V456.623L1428 473.107ZM1399.37 618.998L1426.53 634.652V603.335L1399.37 587.681V618.998ZM1426.5 505.914L1399.35 490.25V521.567L1426.5 537.231V505.914ZM1426.5 538.96L1399.35 554.624V585.942L1426.5 570.288V538.96ZM1398.85 553.755L1426 538.081L1413.67 530.964L1398.85 522.417L1372.59 537.571C1372.69 537.896 1372.69 538.245 1372.59 538.571L1398.85 553.755ZM1370.2 570.278V539.99C1369.86 539.9 1369.55 539.725 1369.31 539.48L1356.62 546.787L1343.05 554.624V585.942L1356.62 578.115L1370.2 570.278ZM1371.2 700.176L1398.35 715.84V684.522L1371.2 668.858V700.176ZM1371.2 636.391V667.709L1398.35 683.363V653.645C1397.94 653.53 1397.57 653.285 1397.3 652.944C1397.04 652.604 1396.89 652.187 1396.88 651.755C1396.89 651.583 1396.92 651.412 1396.96 651.245L1371.2 636.391ZM1399.39 748.886L1426.55 764.55V733.223L1399.37 717.559L1399.39 748.886ZM1398.39 716.999L1371.2 701.335V732.653L1398.35 748.317L1398.39 716.999ZM1343.08 748.317L1370.2 732.653V701.335L1343.05 717.009V717.599L1343.08 748.317ZM1342.08 715.84V684.522L1315.82 669.378C1315.57 669.623 1315.26 669.798 1314.93 669.888V700.176L1342.08 715.84ZM1314.93 635.802V666.11C1315.26 666.196 1315.57 666.369 1315.82 666.609L1342.08 651.465V620.148L1314.93 635.802ZM1370.2 602.755V571.437L1356.62 579.264L1343.05 587.061V618.419L1370.2 602.755ZM1258.59 571.437V602.755L1285.74 618.419V588.701C1285.33 588.584 1284.96 588.338 1284.7 587.998C1284.43 587.657 1284.29 587.241 1284.28 586.811C1284.28 586.638 1284.31 586.466 1284.36 586.301L1258.59 571.437ZM1286.74 588.701V618.419L1313.9 602.755V571.437L1288.15 586.301C1288.2 586.466 1288.23 586.638 1288.23 586.811C1288.22 587.245 1288.07 587.664 1287.8 588.005C1287.53 588.346 1287.16 588.59 1286.74 588.701ZM1314.9 570.278L1342.05 585.942V554.624L1314.9 538.96V570.278ZM1314.9 537.811L1342.05 553.465V522.147L1314.9 506.483V537.811ZM1343.05 522.147V553.465L1356.62 545.638L1368.82 538.641C1368.76 538.476 1368.74 538.304 1368.74 538.131C1368.74 537.701 1368.89 537.285 1369.15 536.944C1369.42 536.604 1369.78 536.358 1370.2 536.242V506.493L1343.05 522.147ZM1371.2 536.212C1371.54 536.296 1371.85 536.473 1372.1 536.721L1398.35 521.567V490.25L1371.2 505.914V536.212ZM1398.35 488.521L1398.85 488.811L1399.35 488.521L1426 473.107L1398.85 457.443L1371.7 473.107L1398.35 488.521ZM1371.2 472.277L1398.35 456.623V425.296L1371.2 440.96V472.277ZM1426.5 439.81V408.483L1400.21 393.339C1399.97 393.583 1399.66 393.759 1399.32 393.848V424.126L1426.5 439.81ZM1260.06 635.522C1260.05 635.694 1260.03 635.865 1259.98 636.032L1286.49 651.325L1286.74 651.465V716.379L1312.84 731.433C1313.03 731.181 1313.27 730.976 1313.55 730.834C1313.83 730.691 1314.13 730.616 1314.45 730.614C1314.98 730.614 1315.49 730.824 1315.86 731.199C1316.24 731.574 1316.45 732.083 1316.45 732.613C1316.44 733.044 1316.29 733.461 1316.03 733.802C1315.76 734.142 1315.39 734.388 1314.98 734.502V766.279L1286.79 749.996V781.933L1257.63 798.756V765.12L1285.26 749.186L1258.13 733.523L1231.87 748.667C1231.92 748.833 1231.94 749.004 1231.95 749.176C1231.95 749.707 1231.74 750.215 1231.36 750.59C1230.99 750.965 1230.48 751.176 1229.95 751.176C1229.42 751.176 1228.91 750.965 1228.53 750.59C1228.16 750.215 1227.95 749.707 1227.95 749.176C1227.95 748.746 1228.1 748.33 1228.36 747.99C1228.63 747.65 1228.99 747.403 1229.41 747.287V717.569V684.522L1201.76 668.529L1174.61 684.192L1202.04 700.016L1202.29 700.166V732.653L1202.79 732.943L1202.29 733.233V765.13L1230.19 781.224L1230.44 781.373V814.97L1201.54 798.297L1201.29 798.157V766.289L1174.14 781.983V782.563L1173.64 782.273L1144.99 798.806V767.349C1144.65 767.267 1144.34 767.09 1144.09 766.839L1117.83 781.983V814.97L1089.68 798.746L1060.78 782.093L1060.53 781.943V749.996L1033.38 765.71V766.289L1032.88 766L1032.38 766.289V765.71L1004.73 749.716L976.074 766.289V733.233L948.959 717.579V749.476L919.773 766.289L891.617 782.523V749.476L865.362 734.332C864.989 734.702 864.486 734.91 863.961 734.912C863.43 734.912 862.921 734.701 862.546 734.326C862.171 733.952 861.96 733.443 861.96 732.913C861.96 732.383 862.171 731.874 862.546 731.499C862.921 731.124 863.43 730.914 863.961 730.914C864.486 730.916 864.989 731.124 865.362 731.493L891.617 716.419V683.363L920.523 700.016L920.773 700.166V732.083L947.959 716.419V683.373L975.224 699.096C975.468 698.848 975.777 698.672 976.115 698.587V667.709L1005.27 650.896V683.373L1033.38 667.129V700.766L1005.73 716.709L1032.88 732.373L1061.53 715.84V748.896L1088.68 764.55V700.756L1060.78 684.662L1060.53 684.522V650.886L1087.79 666.609C1088 666.368 1088.26 666.179 1088.56 666.06C1088.85 665.941 1089.17 665.894 1089.49 665.924C1089.81 665.954 1090.11 666.059 1090.38 666.231C1090.65 666.404 1090.88 666.638 1091.04 666.914C1091.2 667.19 1091.29 667.501 1091.3 667.819C1091.32 668.138 1091.26 668.456 1091.12 668.746C1090.99 669.036 1090.79 669.29 1090.54 669.487C1090.29 669.684 1089.99 669.818 1089.68 669.878V700.176L1117.58 716.279L1117.83 716.419V748.317L1144.99 732.653V702.355C1144.57 702.241 1144.21 701.995 1143.94 701.655C1143.68 701.314 1143.53 700.897 1143.52 700.466C1143.52 700.293 1143.55 700.121 1143.6 699.956L1117.05 684.662L1116.8 684.522V650.896L1145.45 667.419L1173.61 651.176L1201.76 667.419L1229.91 651.176L1257.56 667.169V637.411C1257.2 637.324 1256.86 637.134 1256.59 636.864C1256.33 636.594 1256.15 636.255 1256.07 635.885C1255.99 635.515 1256.02 635.131 1256.15 634.776C1256.28 634.421 1256.51 634.111 1256.81 633.88C1257.11 633.65 1257.46 633.509 1257.84 633.475C1258.22 633.44 1258.6 633.513 1258.93 633.685C1259.27 633.857 1259.55 634.121 1259.75 634.446C1259.94 634.771 1260.04 635.144 1260.03 635.522H1260.06ZM1285.74 652.035L1259.48 636.891C1259.24 637.14 1258.93 637.316 1258.59 637.401V667.709L1259.09 667.999L1285.74 683.363V652.035ZM1230.44 715.84L1257.59 700.186V668.858L1230.44 684.522V715.84ZM1258.59 700.176L1285.74 715.84V684.522L1258.59 668.858V700.176ZM1285.74 717.009L1258.59 701.335V732.653L1285.74 748.317V717.009ZM1313.94 764.56V734.472C1313.52 734.356 1313.15 734.11 1312.89 733.769C1312.63 733.429 1312.48 733.013 1312.47 732.583C1312.47 732.523 1312.47 732.463 1312.47 732.403L1286.79 717.559V748.886L1313.94 764.56ZM1258.63 796.977L1285.79 781.323V749.996L1258.63 765.7V796.977ZM1230.44 747.247C1230.78 747.335 1231.09 747.511 1231.34 747.757L1257.59 732.613V701.335L1230.44 717.009V747.247ZM1173.64 717.259L1146.49 732.913L1158.82 740.03L1173.64 748.577L1200.79 732.913L1188.45 725.806L1173.64 717.259ZM1145.99 763.501C1146.33 763.59 1146.63 763.766 1146.88 764.01L1172.64 749.156L1145.99 733.782V763.501ZM1173.14 749.996L1147.37 764.91C1147.42 765.075 1147.45 765.247 1147.45 765.42C1147.45 765.593 1147.42 765.765 1147.37 765.93L1173.14 780.794V749.996ZM1173.14 716.369V685.102L1147.37 699.956C1147.42 700.121 1147.45 700.293 1147.45 700.466C1147.44 700.896 1147.3 701.312 1147.03 701.652C1146.77 701.993 1146.41 702.239 1145.99 702.355V732.083L1173.14 716.369ZM1145.99 698.527C1146.33 698.616 1146.63 698.792 1146.88 699.036L1172.64 684.182L1145.99 668.808V698.527ZM1201.29 700.706L1174.14 685.052V716.419L1201.29 732.083V700.706ZM1202.29 797.557L1229.44 813.221V781.983L1202.29 766.289V797.557ZM1201.29 765.08V733.762L1174.14 749.426V780.794L1201.29 765.08ZM1172.64 781.613L1146.88 766.749C1146.64 766.998 1146.33 767.174 1145.99 767.259V796.977L1172.64 781.613ZM1116.83 813.211V781.983L1089.68 766.289V797.597L1116.83 813.211ZM1032.38 764.55V733.233L1005.23 717.579V748.896L1032.38 764.55ZM977.075 764.55L1004.23 748.896V717.579L990.653 725.406L977.075 733.233V764.55ZM1004.23 685.102L990.653 692.929L978.466 699.926C978.51 700.092 978.534 700.264 978.536 700.436C978.528 700.866 978.382 701.282 978.119 701.622C977.856 701.963 977.49 702.209 977.075 702.325V732.083L990.653 724.256L1004.23 716.419V685.102ZM947.959 717.579L920.773 733.233V764.56L947.959 748.896V717.579ZM892.617 780.794L919.773 765.13V733.812L892.617 749.476V780.794ZM865.852 733.463L892.117 748.607L919.272 732.943L906.935 725.836L892.117 717.289L865.852 732.433C865.903 732.598 865.93 732.77 865.932 732.943C865.931 733.119 865.904 733.294 865.852 733.463ZM919.773 700.766L892.617 685.102V716.419L919.773 732.083V700.766ZM948.959 685.102V716.419L976.074 732.083V702.365C975.66 702.249 975.294 702.003 975.031 701.662C974.768 701.322 974.621 700.906 974.614 700.476C974.616 700.304 974.639 700.132 974.684 699.966L948.959 685.102ZM1004.27 652.625L977.075 668.289V698.587C977.413 698.672 977.721 698.848 977.966 699.096L990.653 691.779L1004.23 683.952L1004.27 652.625ZM1032.42 668.868L1005.23 684.522V715.84L1032.38 700.186L1032.42 668.868ZM1060.53 717.569L1033.38 733.233V764.55L1060.53 748.896V717.569ZM1061.53 750.046V781.363L1088.68 796.977V765.66L1061.53 750.046ZM1116.83 780.784V749.476L1089.68 733.812V765.12L1116.83 780.784ZM1061.53 652.615V683.942L1088.68 699.596V669.878C1088.27 669.764 1087.91 669.524 1087.65 669.191C1087.38 668.859 1087.23 668.452 1087.22 668.029C1087.22 667.856 1087.24 667.684 1087.3 667.519L1061.53 652.615ZM1116.83 717.009L1089.68 701.335V732.653L1116.83 748.317V717.009ZM1117.83 780.804L1143.6 765.94C1143.55 765.775 1143.52 765.603 1143.52 765.43C1143.53 764.999 1143.68 764.582 1143.94 764.241C1144.21 763.901 1144.57 763.655 1144.99 763.541V733.822L1117.83 749.476V780.804ZM1117.83 683.952L1144.07 699.086C1144.32 698.84 1144.63 698.665 1144.97 698.577V668.289L1117.83 652.625V683.952ZM1173.64 652.345L1146.49 668.029L1173.14 683.393L1173.64 683.683L1174.14 683.393L1200.79 668.029L1173.64 652.345ZM1202.79 668.029L1229.94 683.683L1257.13 668.029L1229.94 652.335L1202.79 668.029Z" fill="url(#paint1_linear_343_2)"/>
</g>
<g clip-path="url(#clip2_343_2)">
<path d="M-27.0003 643.03L1.1297 626.79L-26.2303 610.93L-26.4803 610.79V578.3L-26.9803 578.01L-26.4803 577.72V545.24L1.13971 529.24L-26.2603 513.42L-26.5103 513.28V479.68L2.3797 496.36L2.6297 496.5V528.43V561.5L28.8697 576.63C29.1198 576.384 29.4302 576.208 29.7697 576.12V512.75L57.8997 496.51V464.03L84.6497 448.59C84.6062 448.42 84.5827 448.245 84.5798 448.07C84.5827 447.898 84.6061 447.727 84.6497 447.56L58.1497 432.26L57.8997 432.12V400.21L30.7697 415.86V481.42L3.52972 465.69C3.32141 465.931 3.05847 466.119 2.76288 466.238C2.46729 466.357 2.14771 466.403 1.83051 466.374C1.51331 466.344 1.2077 466.239 0.93927 466.067C0.670837 465.896 0.447327 465.662 0.287292 465.387C0.127258 465.112 0.0352783 464.802 0.019104 464.484C0.00292969 464.165 0.0630493 463.848 0.194397 463.558C0.325745 463.268 0.524414 463.013 0.774109 462.815C1.0238 462.617 1.31714 462.482 1.6297 462.42V399.66L-26.3002 383.53L-26.5502 383.39V349.74L1.64972 366.03L30.2897 382.56L58.9297 366.03V399.03L86.7697 415.14L87.0197 415.29V446.17C87.4127 446.306 87.7535 446.561 87.9947 446.9C88.2359 447.239 88.3655 447.644 88.3655 448.06C88.3655 448.476 88.2359 448.881 87.9947 449.22C87.7535 449.559 87.4127 449.814 87.0197 449.95V480.84L58.8797 497.09V529.03L86.0197 544.69V512.75L114.16 496.5V495.93L114.66 496.21L115.16 495.93V496.5L143.04 512.6L143.29 512.75V546.39L116.05 530.66C115.869 530.847 115.652 530.996 115.412 531.098C115.173 531.199 114.915 531.252 114.655 531.252C114.394 531.252 114.137 531.199 113.897 531.098C113.657 530.996 113.441 530.847 113.26 530.66L87.0197 545.81V611.37L58.3797 594.84L30.7697 610.79L3.1297 626.79L30.2697 642.45L30.7697 642.16V642.74L31.2697 643.03L30.7697 643.32V675.81L2.6297 692.03V722.34C2.99768 722.427 3.3335 722.617 3.59808 722.887C3.86267 723.157 4.0451 723.497 4.12445 723.867C4.2038 724.236 4.17664 724.621 4.0462 724.976C3.91577 725.331 3.68726 725.642 3.38739 725.872C3.08752 726.103 2.72845 726.243 2.35187 726.278C1.97528 726.312 1.59668 726.24 1.25983 726.068C0.922974 725.896 0.641724 725.632 0.448792 725.307C0.255859 724.981 0.159119 724.608 0.169739 724.23C0.171997 724.058 0.195435 723.886 0.239685 723.72L-26.2503 708.42L-26.5003 708.28V674.61L1.6297 690.86V659.52L-27.0003 643.03ZM1.60968 497.08L-25.5303 481.42V512.75L1.60968 528.41V497.08ZM-25.5003 610.21L1.6297 625.88V594.55L-25.5003 578.88V610.21ZM-25.5003 577.15L1.6297 561.48V530.15L-25.5003 545.81V577.15ZM2.1297 562.35L-25.0003 578.03L-12.6802 585.15L2.1297 593.7L28.3797 578.54C28.2776 578.215 28.2776 577.866 28.3797 577.54L2.1297 562.35ZM30.7697 545.82V576.12C31.1057 576.21 31.4124 576.386 31.6597 576.63L44.3397 569.32L57.8997 561.48V530.15L44.3397 537.98L30.7697 545.82ZM29.7697 415.87L2.6297 400.2V431.53L29.7697 447.2V415.87ZM29.7697 479.68V448.35L2.6297 432.69V462.42C3.04584 462.534 3.41382 462.78 3.67877 463.121C3.94373 463.461 4.09137 463.879 4.09967 464.31C4.09259 464.482 4.0658 464.654 4.01971 464.82L29.7697 479.68ZM1.58966 367.14L-25.5502 351.47V382.81L1.60968 398.48L1.58966 367.14ZM2.58966 399.04L29.7697 414.71V383.38L2.6297 367.71L2.58966 399.04ZM57.8697 367.71L30.7697 383.38V414.71L57.8997 399.03V398.44L57.8697 367.71ZM58.8697 400.2V431.53L85.1197 446.68C85.367 446.436 85.6737 446.26 86.0097 446.17V415.87L58.8697 400.2ZM86.0097 480.27V449.95C85.6748 449.863 85.3681 449.691 85.1197 449.45L58.8697 464.6V495.93L86.0097 480.27ZM30.7697 513.33V544.66L44.3397 536.83L57.8997 529.03V497.66L30.7697 513.33ZM142.31 544.66V513.33L115.18 497.66V527.39C115.594 527.506 115.96 527.753 116.223 528.093C116.486 528.434 116.632 528.85 116.64 529.28C116.639 529.453 116.612 529.625 116.56 529.79L142.31 544.66ZM114.18 527.39V497.66L87.0397 513.33V544.66L112.77 529.79C112.717 529.625 112.69 529.453 112.69 529.28C112.699 528.846 112.85 528.427 113.119 528.086C113.387 527.745 113.76 527.501 114.18 527.39ZM86.0397 545.82L58.8997 530.15V561.48L86.0397 577.15V545.82ZM86.0397 578.3L58.8997 562.64V593.97L86.0397 609.64V578.3ZM57.8997 593.97V562.64L44.3397 570.47L32.1497 577.47C32.2014 577.635 32.2284 577.807 32.2297 577.98C32.222 578.41 32.0758 578.826 31.8128 579.167C31.5498 579.507 31.184 579.754 30.7697 579.87V609.63L57.8997 593.97ZM29.7697 579.9C29.4289 579.815 29.1177 579.639 28.8697 579.39L2.6297 594.55V625.88L29.7697 610.21V579.9ZM2.6297 627.61L2.1297 627.32L1.6297 627.61L-25.0003 643.03L2.1297 658.7L29.2697 643.03L2.6297 627.61ZM29.7697 643.86L2.6297 659.52V690.86L29.7697 675.19V643.86ZM-25.5003 676.34V707.68L0.769714 722.83C1.01703 722.586 1.32379 722.41 1.65973 722.32V692.03L-25.5003 676.34ZM140.85 480.55C140.852 480.378 140.875 480.206 140.92 480.04L114.43 464.74L114.18 464.6V399.66L88.0897 384.6C87.9055 384.852 87.6649 385.058 87.387 385.2C87.1092 385.342 86.8019 385.418 86.4897 385.42C85.9593 385.42 85.4506 385.209 85.0755 384.834C84.7004 384.459 84.4897 383.95 84.4897 383.42C84.498 382.989 84.6457 382.571 84.9106 382.231C85.1755 381.89 85.5435 381.644 85.9597 381.53V349.74L114.13 366.03V334.08L143.27 317.25V350.9L115.66 366.84L142.77 382.51L169.02 367.36C168.974 367.194 168.947 367.022 168.94 366.85C168.94 366.32 169.15 365.811 169.525 365.436C169.901 365.061 170.409 364.85 170.94 364.85C171.47 364.85 171.979 365.061 172.354 365.436C172.729 365.811 172.94 366.32 172.94 366.85C172.932 367.28 172.786 367.696 172.523 368.037C172.26 368.377 171.894 368.624 171.48 368.74V398.47V431.53L199.11 447.53L226.25 431.86L198.83 416.03L198.58 415.88V383.38L198.08 383.09L198.58 382.8V350.89L170.7 334.79L170.45 334.64V301.03L199.33 317.71L199.58 317.85V349.73L226.72 334.03V333.45L227.22 333.74L255.85 317.2V348.67C256.192 348.752 256.503 348.929 256.75 349.18L282.99 334.03V301.03L311.13 317.26L340.01 333.92L340.26 334.07V366.03L367.4 350.31V349.73L367.9 350.02L368.4 349.73V350.31L396.03 366.31L424.67 349.73V382.8L451.77 398.46V366.55L480.94 349.73L509.08 333.49V366.55L535.32 381.7C535.692 381.331 536.195 381.122 536.72 381.12C537.25 381.12 537.759 381.331 538.134 381.706C538.509 382.081 538.72 382.59 538.72 383.12C538.72 383.65 538.509 384.159 538.134 384.534C537.759 384.909 537.25 385.12 536.72 385.12C536.195 385.118 535.692 384.909 535.32 384.54L509.08 399.62V432.69L480.19 416.03L479.94 415.88V383.95L452.77 399.62V432.68L425.52 416.95C425.275 417.198 424.968 417.375 424.63 417.46V448.35L395.49 465.17V432.68L367.4 448.93V415.28L395.03 399.33L367.9 383.66L339.26 400.2V367.13L312.13 351.47V415.29L340.01 431.39L340.26 431.53V465.18L313.02 449.45C312.811 449.692 312.548 449.88 312.252 450C311.956 450.119 311.636 450.166 311.318 450.136C311 450.106 310.694 450.001 310.425 449.828C310.156 449.656 309.933 449.422 309.773 449.145C309.613 448.869 309.522 448.558 309.507 448.24C309.492 447.921 309.553 447.603 309.686 447.312C309.819 447.022 310.019 446.768 310.27 446.571C310.521 446.374 310.816 446.24 311.13 446.18V415.87L283.24 399.76L282.99 399.62V367.71L255.85 383.38V413.69C256.266 413.804 256.634 414.05 256.899 414.391C257.164 414.731 257.311 415.149 257.32 415.58C257.318 415.753 257.291 415.925 257.24 416.09L283.77 431.39L284.02 431.53V465.17L255.39 448.64L227.25 464.89L199.11 448.64L170.98 464.89L143.34 448.89V478.66C143.708 478.747 144.043 478.937 144.308 479.207C144.573 479.477 144.755 479.817 144.834 480.187C144.914 480.556 144.887 480.941 144.756 481.296C144.626 481.651 144.397 481.962 144.097 482.192C143.797 482.423 143.438 482.563 143.062 482.598C142.685 482.632 142.307 482.56 141.97 482.388C141.633 482.216 141.352 481.952 141.159 481.627C140.966 481.301 140.869 480.928 140.88 480.55H140.85ZM115.18 464.03L141.42 479.18C141.664 478.932 141.972 478.755 142.31 478.67V448.35L141.81 448.06L115.18 432.69V464.03ZM170.45 400.2L143.31 415.86V447.2L170.45 431.53V400.2ZM142.31 415.87L115.18 400.2V431.53L142.31 447.2V415.87ZM115.18 399.03L142.31 414.71V383.38L115.18 367.71V399.03ZM86.9997 351.46V381.56C87.414 381.676 87.7798 381.923 88.0428 382.263C88.3058 382.604 88.452 383.02 88.4597 383.45C88.4646 383.51 88.4646 383.57 88.4597 383.63L114.13 398.48V367.14L86.9997 351.46ZM142.27 319.03L115.13 334.69V366.03L142.27 350.32V319.03ZM170.45 368.78C170.11 368.692 169.8 368.516 169.55 368.27L143.31 383.42V414.71L170.45 399.03V368.78ZM227.22 398.78L254.35 383.12L242.03 376L227.22 367.45L200.08 383.12L212.41 390.23L227.22 398.78ZM254.85 352.52C254.514 352.43 254.207 352.254 253.96 352.01L228.22 366.87L254.85 382.25V352.52ZM227.72 366.03L253.47 351.11C253.417 350.945 253.39 350.773 253.39 350.6C253.39 350.427 253.417 350.255 253.47 350.09L227.72 335.22V366.03ZM227.72 399.67V430.95L253.47 416.09C253.419 415.925 253.392 415.753 253.39 415.58C253.397 415.15 253.544 414.734 253.807 414.393C254.07 414.053 254.435 413.806 254.85 413.69V383.95L227.72 399.67ZM254.85 417.52C254.514 417.43 254.207 417.254 253.96 417.01L228.22 431.87L254.85 447.25V417.52ZM199.58 415.34L226.72 431V399.62L199.58 383.95V415.34ZM198.58 318.45L171.45 302.78V334.03L198.58 349.73V318.45ZM199.58 350.94V382.27L226.72 366.6V335.22L199.58 350.94ZM228.22 334.4L253.96 349.27C254.204 349.022 254.512 348.845 254.85 348.76V319.03L228.22 334.4ZM283.99 302.79V334.03L311.13 349.73V318.41L283.99 302.79ZM368.4 351.47V382.8L395.53 398.46V367.13L368.4 351.47ZM423.67 351.47L396.53 367.13V398.46L410.1 390.63L423.67 382.8V351.47ZM396.53 430.95L410.1 423.12L422.28 416.12C422.235 415.954 422.212 415.782 422.21 415.61C422.217 415.18 422.364 414.764 422.627 414.423C422.89 414.083 423.255 413.836 423.67 413.72V383.95L410.1 391.78L396.53 399.62V430.95ZM452.77 398.46L479.94 382.8V351.46L452.77 367.13V398.46ZM508.08 335.22L480.94 350.89V382.22L508.08 366.55V335.22ZM534.83 382.57L508.58 367.42L481.44 383.09L493.77 390.2L508.58 398.75L534.83 383.6C534.779 383.435 534.752 383.263 534.75 383.09C534.751 382.914 534.778 382.739 534.83 382.57ZM480.94 415.28L508.08 430.95V399.62L480.94 383.95V415.28ZM451.77 430.95V399.62L424.67 383.95V413.68C425.084 413.796 425.45 414.043 425.713 414.383C425.976 414.724 426.122 415.14 426.13 415.57C426.127 415.742 426.104 415.914 426.06 416.08L451.77 430.95ZM396.49 463.44L423.67 447.77V417.46C423.332 417.375 423.024 417.198 422.78 416.95L410.1 424.27L396.53 432.1L396.49 463.44ZM368.36 447.19L395.53 431.53V400.2L368.4 415.86L368.36 447.19ZM340.26 398.47L367.4 382.8V351.47L340.26 367.13V398.47ZM339.26 365.98V334.65L312.13 319.03V350.36L339.26 365.98ZM283.99 335.23V366.55L311.13 382.22V350.9L283.99 335.23ZM339.26 463.45V432.11L312.13 416.45V446.18C312.538 446.294 312.899 446.535 313.161 446.867C313.424 447.2 313.574 447.607 313.59 448.03C313.589 448.203 313.562 448.375 313.51 448.54L339.26 463.45ZM283.99 399.03L311.13 414.71V383.38L283.99 367.71V399.03ZM282.99 335.21L257.24 350.08C257.292 350.245 257.319 350.417 257.32 350.59C257.311 351.021 257.164 351.439 256.899 351.779C256.634 352.12 256.266 352.366 255.85 352.48V382.21L282.99 366.55V335.21ZM282.99 432.1L256.77 416.96C256.52 417.206 256.209 417.382 255.87 417.47V447.77L282.99 463.44V432.1ZM227.22 463.72L254.35 448.03L227.72 432.66L227.22 432.37L226.72 432.66L200.08 448.03L227.22 463.72ZM198.08 448.03L170.95 432.37L143.77 448.03L170.95 463.73L198.08 448.03Z" fill="url(#paint2_linear_343_2)"/>
</g>
<g clip-path="url(#clip3_343_2)">
<path d="M55.9181 -158.775L82.2707 -158.775L96.6201 -133.81L68.4076 -133.81L55.0479 -110.56L82.757 -110.56L68.655 -86.0321L82.3048 -62.3529L108.129 -62.3529C108.226 -62.7094 108.436 -63.0247 108.726 -63.2516C109.017 -63.4786 109.373 -63.6051 109.741 -63.6122C109.888 -63.6061 110.034 -63.5831 110.176 -63.5437L123.229 -86.2463L123.348 -86.4605L152.047 -86.4605L137.945 -61.9245L151.808 -37.8254L137.945 -13.7178L151.595 9.95292L178.783 9.95292L192.885 -14.5745L206.987 9.99575L235.2 9.99575L220.97 34.7288L220.85 34.943L193.619 34.943L206.305 57.0031C206.446 56.9623 206.592 56.9393 206.74 56.9345C207.108 56.9417 207.464 57.0682 207.754 57.2952C208.045 57.5221 208.255 57.8374 208.352 58.1939L261.928 58.1939L275.663 34.3004L275.782 34.0863L304.489 34.0863L290.259 58.8279L290.14 59.042L262.422 59.042L248.773 82.7128L262.175 105.947L275.663 82.4814L275.782 82.2673L304.489 82.2673L290.259 107.017L290.14 107.232L235.191 107.232L247.877 129.292C248.017 129.247 248.164 129.224 248.312 129.223C248.68 129.23 249.036 129.357 249.326 129.584C249.617 129.811 249.827 130.126 249.924 130.483L276.277 130.483L289.927 154.153L303.286 130.911L303.039 130.483L303.534 130.483L303.781 130.054L304.029 130.483L331.746 130.483L344.918 153.391C345.06 153.353 345.206 153.333 345.353 153.331C345.806 153.331 346.24 153.511 346.56 153.833C346.88 154.154 347.06 154.59 347.06 155.044C347.06 155.499 346.88 155.934 346.56 156.256C346.24 156.577 345.806 156.758 345.353 156.758C344.986 156.751 344.631 156.626 344.341 156.4C344.05 156.175 343.84 155.862 343.741 155.507L317.883 155.507L303.781 180.043L289.927 155.935L276.43 179.4L276.311 179.614L248.568 179.614L248.32 180.043L248.073 179.614L220.347 179.614L206.765 155.901L193.269 179.375L193.116 179.623L164.425 179.623L178.613 154.839L178.732 154.624L206.015 154.624L234.21 154.624L247.135 132.145C246.926 131.933 246.776 131.67 246.699 131.382L220.355 131.382L206.765 107.66L193.278 131.125L193.158 131.339L165.432 131.339L152.516 153.802C152.674 153.957 152.799 154.142 152.884 154.347C152.969 154.551 153.012 154.771 153.011 154.993C153.011 155.447 152.831 155.883 152.511 156.204C152.191 156.526 151.757 156.706 151.305 156.706C150.938 156.7 150.582 156.574 150.292 156.349C150.002 156.124 149.791 155.81 149.692 155.455L96.1508 155.455L82.3901 179.383L82.2707 179.597L53.5635 179.597L26.3151 179.597L12.4605 155.498L11.9658 155.498L12.2131 155.07L11.9658 154.642L12.4605 154.642L26.1957 130.748L26.3151 130.534L55.0479 130.534L41.637 153.879C41.9501 154.196 42.1277 154.623 42.1318 155.07C42.1277 155.516 41.9501 155.944 41.637 156.261L54.3227 178.338L67.4521 155.498L81.5541 130.962L67.4522 106.435L95.6475 106.435L109.366 82.5586L109.494 82.3444L135.838 82.3444C135.937 81.9895 136.147 81.6761 136.437 81.4508C136.728 81.2254 137.083 81.1002 137.45 81.0936C137.903 81.0936 138.336 81.2741 138.656 81.5954C138.976 81.9167 139.156 82.3526 139.156 82.807C139.156 83.2614 138.976 83.6972 138.656 84.0185C138.336 84.3399 137.903 84.5204 137.45 84.5204C137.303 84.5157 137.157 84.4927 137.015 84.4519L123.962 107.155L123.843 107.369L96.6286 107.369L109.98 130.594L164.963 130.594L178.536 106.803L164.434 82.2673L192.638 82.2673L205.562 59.7874C205.354 59.5755 205.204 59.3127 205.127 59.0249L178.775 59.0249L165.603 36.1081C165.461 36.146 165.315 36.1661 165.168 36.1681C165.021 36.1661 164.875 36.146 164.732 36.1081L151.68 58.8279L151.552 59.042L96.1594 59.042L83.303 81.3848C83.5196 81.5417 83.6965 81.7475 83.8195 81.9856C83.9425 82.2236 84.0081 82.4874 84.0111 82.7556C84.0111 83.21 83.8313 83.6458 83.5113 83.9671C83.1913 84.2885 82.7573 84.469 82.3048 84.469C81.9378 84.4624 81.5828 84.3371 81.2923 84.1118C81.0018 83.8865 80.7915 83.5731 80.6924 83.2182L53.5379 83.2182L67.4009 59.1106L40.1782 59.1106L25.8203 34.1548L54.5616 34.1548L68.1603 57.7998L81.5285 34.5403L68.5612 12.0261C68.4201 12.0697 68.2737 12.0928 68.1261 12.0947C67.6736 12.0947 67.2396 11.9142 66.9196 11.5928C66.5996 11.2715 66.4199 10.8357 66.4199 10.3813C66.4199 9.92684 66.5996 9.49103 66.9196 9.1697C67.2396 8.84838 67.6736 8.66785 68.1261 8.66785C68.4931 8.67446 68.8482 8.79972 69.1386 9.02504C69.4291 9.25037 69.6394 9.56374 69.7385 9.91864L123.348 9.91865L136.998 -13.7521L123.63 -37.003L110.108 -13.4779L109.98 -13.2637L82.2707 -13.2637L82.0233 -12.8354L81.7759 -13.2637L54.5531 -13.2637L40.818 10.6211L40.69 10.8353L11.9913 10.8353L26.2212 -13.9063L26.3407 -14.1205L53.5635 -14.1205L40.1952 -37.3714L39.7089 -37.3714L39.9564 -37.7997L25.8459 -62.3271L52.6933 -62.3271C52.7658 -62.6191 52.9162 -62.8857 53.1284 -63.0982L40.2037 -85.5781L11.9999 -85.5781L25.8544 -109.677L40.0758 -134.427L40.2037 -134.642L67.4266 -134.642L54.7408 -156.702C54.5991 -156.661 54.453 -156.638 54.3057 -156.633C53.8532 -156.633 53.4192 -156.814 53.0992 -157.135C52.7792 -157.456 52.5995 -157.892 52.5995 -158.347C52.5995 -158.801 52.7792 -159.237 53.0992 -159.558C53.4192 -159.879 53.8532 -160.06 54.3057 -160.06C54.6771 -160.051 55.0356 -159.921 55.3266 -159.689C55.6176 -159.457 55.8253 -159.136 55.9181 -158.775ZM289.671 106.375L303.039 83.124L276.302 83.124L262.943 106.375L289.671 106.375ZM179.27 155.481L165.91 178.766L192.638 178.766L205.998 155.515L179.27 155.481ZM53.572 131.339L26.844 131.339L13.4757 154.59L38.8388 154.59C38.9378 154.235 39.1482 153.922 39.4386 153.697C39.7291 153.471 40.0842 153.346 40.4511 153.339C40.6009 153.342 40.7497 153.362 40.8947 153.399L53.572 131.339ZM38.8388 155.447L13.4757 155.447L26.844 178.689L53.572 178.689L40.8947 156.638C40.7497 156.675 40.6009 156.695 40.4511 156.698C40.0842 156.691 39.7291 156.566 39.4386 156.34C39.1482 156.115 38.9378 155.802 38.8388 155.447ZM54.5616 -109.677L41.1934 -86.4348L67.9128 -86.4348L81.2811 -109.677L54.5616 -109.677ZM55.9181 -61.4705C55.8415 -61.1826 55.6916 -60.9198 55.483 -60.708L68.1603 -38.6564L81.2811 -61.4705L55.9181 -61.4705ZM96.1252 -38.2281L122.853 -38.2281L110.176 -60.2539C110.035 -60.2103 109.888 -60.1873 109.741 -60.1854C109.374 -60.192 109.019 -60.3173 108.728 -60.5426C108.438 -60.7679 108.228 -61.0813 108.129 -61.4362L82.757 -61.4362L96.1252 -38.2281ZM111.353 -61.4705C111.277 -61.1826 111.127 -60.9198 110.918 -60.708L123.595 -38.6564L136.716 -61.4705L111.353 -61.4705ZM95.383 -37.7997L82.0233 -61.0421L75.9492 -50.4875L68.655 -37.7997L82.0233 -14.5488L88.0889 -25.112L95.383 -37.7997ZM67.4266 -38.2281L54.7408 -60.2539C54.6001 -60.209 54.4533 -60.1859 54.3057 -60.1854C54.158 -60.1859 54.0113 -60.209 53.8706 -60.2539L41.1849 -38.1938L67.4266 -38.2281ZM123.843 -85.5781L110.918 -63.0982C111.128 -62.884 111.278 -62.618 111.353 -62.3271L137.203 -62.3271L150.571 -85.5781L123.843 -85.5781ZM166.78 34.0863L192.143 34.0863L178.783 10.8525L152.047 10.8525L164.732 32.9126C164.875 32.8747 165.021 32.8545 165.168 32.8526C165.532 32.8581 165.886 32.9809 166.176 33.2029C166.466 33.4249 166.678 33.7345 166.78 34.0863ZM163.555 34.0862C163.628 33.7969 163.778 33.5331 163.99 33.3238L151.313 11.2722L138.192 34.0862L163.555 34.0862ZM179.517 10.407L192.885 33.6579L199.437 22.2552L206.262 10.407L192.894 -12.8354L179.517 10.407ZM220.355 34.0863L233.724 10.8525L206.987 10.8525L193.627 34.0863L220.355 34.0863ZM289.645 58.1939L303.013 34.943L276.277 34.943L262.917 58.1939L289.645 58.1939ZM234.705 59.0506L230.328 66.6496L221.336 82.293L248.064 82.293L261.433 59.0506L234.705 59.0506ZM193.627 83.1497L200.307 94.8094L206.987 106.435L233.715 106.435L227.035 94.8094L220.355 83.1839L193.627 83.1497ZM261.433 106.401L248.064 83.1497L221.336 83.1497L228.016 94.8094L234.705 106.435L261.433 106.401ZM249.924 131.365C249.852 131.654 249.701 131.918 249.489 132.127L262.422 154.607L289.15 154.607L275.782 131.365L249.924 131.365ZM331.217 131.365L304.489 131.365L317.849 154.607L343.707 154.607C343.783 154.319 343.933 154.057 344.142 153.845L331.217 131.365ZM317.115 155.036L303.747 131.793L290.626 154.607L290.379 155.036L290.626 155.464L303.747 178.287L317.115 155.036ZM275.782 178.715L289.15 155.464L262.422 155.464L249.054 178.715L275.782 178.715ZM247.578 178.715L234.21 155.464L207.482 155.464L220.842 178.715L247.578 178.715ZM234.918 155.036L248.312 178.287L254.386 167.723L261.68 155.036L248.747 132.504C248.606 132.549 248.46 132.572 248.312 132.573C248.164 132.572 248.017 132.549 247.877 132.504L234.918 155.036ZM246.674 130.508C246.749 130.217 246.899 129.951 247.109 129.737L234.184 107.257L207.482 107.257L220.842 130.508L246.674 130.508ZM192.612 130.508L205.98 107.257L179.27 107.257L165.91 130.508L192.612 130.508ZM149.675 154.59C149.775 154.231 149.99 153.915 150.285 153.689C150.581 153.463 150.942 153.34 151.313 153.339C151.46 153.343 151.606 153.363 151.748 153.399L164.425 131.339L137.663 131.339L124.304 154.59L149.675 154.59ZM109.963 131.339L96.5944 154.59L123.348 154.59L136.716 131.339L109.963 131.339ZM68.3906 155.481L55.0479 178.766L81.7844 178.766L95.1527 155.515L68.3906 155.481ZM95.6048 154.624L108.973 131.374L82.2451 131.374L68.8768 154.624L95.6048 154.624ZM123.322 106.435L136.247 83.955C136.037 83.7407 135.887 83.4748 135.812 83.1839L109.963 83.1839L96.5944 106.435L123.322 106.435ZM95.1271 107.292L68.9024 107.292L82.2707 130.534L108.999 130.534L95.6475 107.309L95.1442 107.309L95.1271 107.292ZM165.884 83.2011L179.244 106.452L206.006 106.452L199.318 94.8094L192.638 83.1839L165.884 83.2011ZM193.602 82.3444L220.355 82.3444L227.991 69.0655L233.715 59.102L208.352 59.102C208.245 59.4432 208.035 59.7423 207.75 59.9574C207.466 60.1725 207.121 60.2928 206.765 60.3014C206.618 60.3009 206.471 60.2778 206.33 60.2329L193.602 82.3444ZM179.244 58.2453L205.127 58.2453C205.203 57.9544 205.353 57.6885 205.562 57.4743L192.638 34.9944L166.78 34.9944C166.707 35.2838 166.557 35.5475 166.345 35.7568L179.244 58.2453ZM151.04 58.2453L163.99 35.6969C163.778 35.4876 163.628 35.2238 163.555 34.9344L137.663 34.9344L137.416 35.3628L124.304 58.1853L151.04 58.2453ZM95.5878 58.2453L108.956 34.9944L82.228 34.9944L68.8598 58.2453L95.5878 58.2453ZM109.946 34.9944L96.5774 58.2453L123.348 58.2453L136.716 34.9944L109.946 34.9944ZM55.0053 82.3872L80.6839 82.3872C80.7814 82.0307 80.9911 81.7154 81.2817 81.4885C81.5723 81.2615 81.9282 81.135 82.2963 81.1278C82.3475 81.1278 82.3987 81.1278 82.4499 81.1278L95.11 59.1191L68.3735 59.1191L55.0053 82.3872ZM27.2961 35.0372L40.6559 58.2796L67.4351 58.2796L54.0583 34.9858L27.2961 35.0372ZM69.7811 10.8525C69.7059 11.1433 69.5559 11.4092 69.346 11.6235L82.2707 34.1034L108.999 34.1034L95.6304 10.8525L69.7811 10.8525ZM109.988 34.1034L136.716 34.1034L123.348 10.8525L96.62 10.8525L109.988 34.1034ZM124.09 10.4241L137.45 33.675L150.818 10.4327L150.571 9.99575L137.45 -12.8183L124.09 10.4241ZM150.818 -37.7826L137.45 -61.025L124.338 -38.211L124.09 -37.7826L124.338 -37.3543L137.45 -14.5317L150.818 -37.7826ZM109.511 -14.1204L122.87 -37.3714L96.1423 -37.3714L82.7741 -14.1204L109.511 -14.1204ZM26.8525 -13.2637L13.4672 9.99574L40.2037 9.99574L53.5635 -13.2466L26.8525 -13.2637ZM54.5702 -14.1205L81.2811 -14.1204L67.9128 -37.3714L41.1849 -37.3714L54.5702 -14.1205ZM40.4085 -38.6564L53.0942 -60.708C52.8824 -60.9173 52.7319 -61.181 52.6592 -61.4705L27.2962 -61.4705L40.4085 -38.6564ZM55.884 -62.3271L81.2811 -62.3271L67.9128 -85.5781L41.1849 -85.5781L53.8706 -63.518C54.0123 -63.5588 54.1584 -63.5818 54.3057 -63.5865C54.6738 -63.5794 55.0297 -63.4529 55.3203 -63.2259C55.6109 -62.9989 55.8206 -62.6837 55.9181 -62.3271L55.884 -62.3271ZM13.4416 -86.4348L40.2037 -86.4348L53.5635 -109.677L26.844 -109.677L13.4416 -86.4348ZM40.6644 -133.785L27.2962 -110.534L54.0583 -110.534L67.4266 -133.785L40.6644 -133.785ZM68.3735 -134.642L95.1442 -134.642L81.7759 -157.918L55.9181 -157.918C55.8429 -157.627 55.6929 -157.361 55.483 -157.147L68.3735 -134.642Z" fill="url(#paint3_linear_343_2)"/>
</g>
<defs>
<linearGradient id="paint0_linear_343_2" x1="1453.74" y1="140.001" x2="1189.03" y2="-42.6526" gradientUnits="userSpaceOnUse">
<stop stop-color="#C8CACC"/>
<stop offset="0.14" stop-color="#D5D6D7"/>
<stop offset="0.38" stop-color="#E4E6E6"/>
<stop offset="0.57" stop-color="#EAEBEB"/>
<stop offset="0.75" stop-color="#EEEFEF"/>
<stop offset="0.93" stop-color="#FAFBFB"/>
<stop offset="0.98" stop-color="white"/>
</linearGradient>
<linearGradient id="paint1_linear_343_2" x1="1112.37" y1="527.185" x2="1331.67" y2="843.957" gradientUnits="userSpaceOnUse">
<stop stop-color="#C8CACC"/>
<stop offset="0.14" stop-color="#D5D6D7"/>
<stop offset="0.38" stop-color="#E4E6E6"/>
<stop offset="0.57" stop-color="#EAEBEB"/>
<stop offset="0.75" stop-color="#EEEFEF"/>
<stop offset="0.93" stop-color="#FAFBFB"/>
<stop offset="0.98" stop-color="white"/>
</linearGradient>
<linearGradient id="paint2_linear_343_2" x1="288.45" y1="588.93" x2="68.9897" y2="272.23" gradientUnits="userSpaceOnUse">
<stop stop-color="#C8CACC"/>
<stop offset="0.14" stop-color="#D5D6D7"/>
<stop offset="0.38" stop-color="#E4E6E6"/>
<stop offset="0.57" stop-color="#EAEBEB"/>
<stop offset="0.75" stop-color="#EEEFEF"/>
<stop offset="0.93" stop-color="#FAFBFB"/>
<stop offset="0.98" stop-color="white"/>
</linearGradient>
<linearGradient id="paint3_linear_343_2" x1="-3.74002" y1="140.001" x2="260.965" y2="-42.6526" gradientUnits="userSpaceOnUse">
<stop stop-color="#C8CACC"/>
<stop offset="0.14" stop-color="#D5D6D7"/>
<stop offset="0.38" stop-color="#E4E6E6"/>
<stop offset="0.57" stop-color="#EAEBEB"/>
<stop offset="0.75" stop-color="#EEEFEF"/>
<stop offset="0.93" stop-color="#FAFBFB"/>
<stop offset="0.98" stop-color="white"/>
</linearGradient>
<clipPath id="clip0_343_2">
<rect width="180" height="335" fill="white" transform="translate(1103 180) rotate(-90)"/>
</clipPath>
<clipPath id="clip1_343_2">
<rect width="566" height="270" fill="white" transform="matrix(1 0 0 -1 862 660)"/>
</clipPath>
<clipPath id="clip2_343_2">
<rect width="541" height="359" fill="white" transform="matrix(-1 0 0 1 539 301)"/>
</clipPath>
<clipPath id="clip3_343_2">
<rect width="180" height="335" fill="white" transform="matrix(4.37114e-08 -1 -1 -4.37114e-08 347 180)"/>
</clipPath>
</defs>
</svg>
