<svg width="81" height="45" viewBox="0 0 81 45" fill="none" xmlns="http://www.w3.org/2000/svg">
<path fill-rule="evenodd" clip-rule="evenodd" d="M6.76016 8.84896H4.1238V12.3618H6.81743C8.11662 12.3618 8.88083 11.7453 8.88083 10.6428C8.88083 9.52165 8.05935 8.84896 6.76016 8.84896ZM6.56917 3.56069H4.1238V6.83087H6.56917C7.83001 6.83087 8.55612 6.27021 8.55612 5.20516C8.55612 4.15873 7.83001 3.56069 6.56917 3.56069ZM7.19965 14.4922H1.44922V1.44922H6.95127C9.74051 1.44922 11.288 2.86937 11.288 4.81268C11.288 6.401 10.3136 7.39141 9.01453 7.80253C10.5239 8.0641 11.5938 9.42824 11.5938 10.9604C11.5938 13.0346 9.96985 14.4922 7.19965 14.4922Z" fill="white"/>
<path fill-rule="evenodd" clip-rule="evenodd" d="M22.4629 14.3656H19.9474V13.0998C19.323 13.9497 18.2347 14.4922 17.0035 14.4922C14.7021 14.4922 13.043 12.9733 13.043 10.2245V4.34766H15.5408V9.86296C15.5408 11.4724 16.4147 12.3403 17.735 12.3403C19.091 12.3403 19.9474 11.4724 19.9474 9.86296V4.34766H22.4629V14.3656Z" fill="white"/>
<path fill-rule="evenodd" clip-rule="evenodd" d="M29.9357 14.4922C27.3082 14.4922 25.4745 12.9531 25.3613 10.9957H28.0265C28.121 11.7938 28.8582 12.4019 29.9169 12.4019C30.9565 12.4019 31.5236 11.927 31.5236 11.3188C31.5236 9.43766 25.607 10.6348 25.607 6.77734C25.607 5.02918 27.1571 3.62305 29.7467 3.62305C32.2798 3.62305 33.8107 5.01024 33.962 7.10042H31.4291C31.3534 6.28337 30.7108 5.73231 29.671 5.73231C28.6882 5.73231 28.1778 6.1313 28.1778 6.73945C28.1778 8.65863 33.981 7.4614 34.0566 11.3188C34.0566 13.1241 32.4877 14.4922 29.9357 14.4922Z" fill="white"/>
<mask id="mask0_0_2863" style="mask-type:alpha" maskUnits="userSpaceOnUse" x="0" y="0" width="81" height="45">
<path fill-rule="evenodd" clip-rule="evenodd" d="M0 44.9258H80.4316V0H0V44.9258Z" fill="white"/>
</mask>
<g mask="url(#mask0_0_2863)">
<path fill-rule="evenodd" clip-rule="evenodd" d="M35.0341 14.4922H37.3933V4.25157H35.0341V14.4922ZM34.7812 1.51569C34.7812 0.665449 35.3878 0 36.2306 0C37.0562 0 37.6797 0.665449 37.6797 1.51569C37.6797 2.36605 37.0562 3.0315 36.2306 3.0315C35.3878 3.0315 34.7812 2.36605 34.7812 1.51569Z" fill="white"/>
<path fill-rule="evenodd" clip-rule="evenodd" d="M46.7756 8.57407C46.7756 6.8529 45.9014 5.92463 44.5812 5.92463C43.2253 5.92463 42.3511 6.8529 42.3511 8.57407V14.4922H39.8535V3.77782H42.3511V5.11218C42.9934 4.20333 44.0638 3.62305 45.3306 3.62305C47.632 3.62305 49.2734 5.24768 49.2734 8.20667V14.4922H46.7756V8.57407Z" fill="white"/>
<path fill-rule="evenodd" clip-rule="evenodd" d="M53.3555 8.06947H58.1975C58.1608 6.6824 57.093 5.80824 55.7674 5.80824C54.5337 5.80824 53.5579 6.62531 53.3555 8.06947ZM55.8409 14.4922C52.8767 14.4922 50.7227 12.364 50.7227 9.05755C50.7227 5.73234 52.8215 3.62305 55.8409 3.62305C58.7867 3.62305 60.8672 5.69419 60.8672 8.82957C60.8672 9.17161 60.8488 9.51364 60.7935 9.8558H53.3371C53.466 11.4139 54.4969 12.288 55.7856 12.288C56.8903 12.288 57.4979 11.7179 57.8293 11.0149H60.6093C60.0572 12.9532 58.3632 14.4922 55.8409 14.4922Z" fill="white"/>
<path fill-rule="evenodd" clip-rule="evenodd" d="M66.8909 14.4922C64.2634 14.4922 62.4297 12.9531 62.3164 10.9957H64.9816C65.0761 11.7938 65.8134 12.4019 66.8719 12.4019C67.9117 12.4019 68.4787 11.927 68.4787 11.3188C68.4787 9.43766 62.562 10.6348 62.562 6.77734C62.562 5.02918 64.1121 3.62305 66.7018 3.62305C69.2348 3.62305 70.766 5.01024 70.9171 7.10042H68.3842C68.3084 6.28337 67.6659 5.73231 66.6262 5.73231C65.6433 5.73231 65.1329 6.1313 65.1329 6.73945C65.1329 8.65863 70.9361 7.4614 71.0117 11.3188C71.0117 13.1241 69.4428 14.4922 66.8909 14.4922Z" fill="white"/>
<path fill-rule="evenodd" clip-rule="evenodd" d="M76.3107 14.4922C73.6832 14.4922 71.8495 12.9531 71.7363 10.9957H74.4015C74.496 11.7938 75.2332 12.4019 76.2919 12.4019C77.3316 12.4019 77.8986 11.927 77.8986 11.3188C77.8986 9.43766 71.982 10.6348 71.982 6.77734C71.982 5.02918 73.5321 3.62305 76.1217 3.62305C78.6546 3.62305 80.1857 5.01024 80.337 7.10042H77.8041C77.7284 6.28337 77.0858 5.73231 76.046 5.73231C75.0632 5.73231 74.5528 6.1313 74.5528 6.73945C74.5528 8.65863 80.3559 7.4614 80.4316 11.3188C80.4316 13.1241 78.8627 14.4922 76.3107 14.4922Z" fill="white"/>
<path fill-rule="evenodd" clip-rule="evenodd" d="M4.43363 44.9258C2.35722 44.9258 0.753402 43.9245 0.724609 42.1855H2.87267C2.92985 42.9232 3.45991 43.4106 4.39064 43.4106C5.33571 43.4106 5.89429 42.9496 5.89429 42.2907C5.89429 40.3014 0.738939 41.5003 0.753402 38.1673C0.753402 36.5071 2.21392 35.5059 4.27601 35.5059C6.32377 35.5059 7.72737 36.4677 7.8562 38.1276H5.65082C5.60783 37.5217 5.07805 37.0474 4.21883 37.0341C3.43125 37.0077 2.84401 37.3635 2.84401 38.1145C2.84401 39.9589 7.9707 38.9314 7.9707 42.1722C7.9707 43.6215 6.71052 44.9258 4.43363 44.9258Z" fill="white"/>
<path fill-rule="evenodd" clip-rule="evenodd" d="M10.764 40.2157H14.5684C14.5396 39.1983 13.7004 38.5574 12.6591 38.5574C11.6898 38.5574 10.9231 39.1566 10.764 40.2157ZM12.7169 44.9258C10.3879 44.9258 8.69531 43.3649 8.69531 40.9404C8.69531 38.5017 10.3445 36.9551 12.7169 36.9551C15.0313 36.9551 16.666 38.4739 16.666 40.7729C16.666 41.0239 16.6514 41.2748 16.6081 41.5256H10.7496C10.8508 42.6683 11.6609 43.3092 12.6734 43.3092C13.5414 43.3092 14.0188 42.8912 14.2792 42.3757H16.4635C16.0295 43.797 14.6987 44.9258 12.7169 44.9258Z" fill="white"/>
<path fill-rule="evenodd" clip-rule="evenodd" d="M29.2734 40.5858C29.2734 39.3378 28.6137 38.6854 27.6174 38.6854C26.6077 38.6854 25.9482 39.3378 25.9482 40.5858V44.9258H24.0634V40.5858C24.0634 39.3378 23.4036 38.6854 22.4074 38.6854C21.3842 38.6854 20.7245 39.3378 20.7245 40.5858V44.9258H18.8398V37.0685H20.7245V38.0188C21.1958 37.3665 21.9901 36.9551 22.9189 36.9551C24.0768 36.9551 25.0325 37.4798 25.5442 38.4586C26.0289 37.565 27.0116 36.9551 28.1022 36.9551C29.8927 36.9551 31.1582 38.1464 31.1582 40.3165V44.9258H29.2734V40.5858Z" fill="white"/>
<path fill-rule="evenodd" clip-rule="evenodd" d="M32.0724 44.9258H33.8418V37.2453H32.0724V44.9258ZM31.8828 35.1935C31.8828 34.5559 32.3377 34.0566 32.9698 34.0566C33.589 34.0566 34.0566 34.5559 34.0566 35.1935C34.0566 35.8313 33.589 36.3304 32.9698 36.3304C32.3377 36.3304 31.8828 35.8313 31.8828 35.1935Z" fill="white"/>
<path fill-rule="evenodd" clip-rule="evenodd" d="M40.8306 40.5858C40.8306 39.3236 40.1581 38.6429 39.1426 38.6429C38.0996 38.6429 37.427 39.3236 37.427 40.5858V44.9258H35.5059V37.0685H37.427V38.0473C37.9212 37.3807 38.7445 36.9551 39.7189 36.9551C41.4894 36.9551 42.752 38.1464 42.752 40.3165V44.9258H40.8306V40.5858Z" fill="white"/>
<path fill-rule="evenodd" clip-rule="evenodd" d="M47.4689 38.6688C46.4327 38.6688 45.4519 39.4493 45.4519 40.9125C45.4519 42.3756 46.4327 43.2116 47.4689 43.2116C48.5325 43.2116 49.4995 42.4034 49.4995 40.9404C49.4995 39.4771 48.5325 38.6688 47.4689 38.6688ZM46.9714 36.9551C48.201 36.9551 49.0435 37.5402 49.4995 38.1812V37.0803H51.4473V44.8003H49.4995V43.6716C49.0435 44.3403 48.1733 44.9258 46.9577 44.9258C45.0237 44.9258 43.4766 43.3232 43.4766 40.9125C43.4766 38.5017 45.0237 36.9551 46.9714 36.9551Z" fill="white"/>
<path fill-rule="evenodd" clip-rule="evenodd" d="M54.1353 44.9258H52.1719V37.0686H54.1353V38.2884C54.6262 37.4798 55.4395 36.9551 56.5195 36.9551V39.0402H56.0007C54.8366 39.0402 54.1353 39.494 54.1353 41.0115V44.9258Z" fill="white"/>
<path fill-rule="evenodd" clip-rule="evenodd" d="M11.5225 23.8246H7.35698C7.05446 23.3627 6.48484 23.0718 5.66591 23.0718C4.13499 23.0718 3.2805 24.1155 3.2805 25.7237C3.2805 27.6056 4.17068 28.5466 6.11106 28.5466C7.00099 28.5466 7.73089 28.2386 8.31841 27.4858H5.16741V24.7998H11.5938V28.598C10.7215 30.0523 8.94124 31.8828 5.68369 31.8828C1.71414 31.8828 -0.724609 29.3337 -0.724609 25.7237C-0.724609 22.1137 1.69623 19.5645 5.648 19.5645C8.99471 19.5645 11.1486 21.2412 11.5225 23.8246Z" fill="white"/>
<path fill-rule="evenodd" clip-rule="evenodd" d="M18.2843 22.0759H16.7966V24.1639H18.2843C18.9944 24.1639 19.3663 23.8507 19.3663 23.1199C19.3663 22.4935 18.9944 22.0759 18.2843 22.0759ZM18.6225 18.8398C21.632 18.8398 23.1706 20.6145 23.1706 22.8764C23.1706 24.4943 22.2915 25.8689 20.5837 26.4432L23.1875 31.1582H19.0621L16.8133 26.7388H16.7966V31.1582H13.043V18.8398H18.6225Z" fill="white"/>
<path fill-rule="evenodd" clip-rule="evenodd" d="M31.5374 28.3753C33.0433 28.3753 33.8726 27.3078 33.8726 25.7152C33.8726 24.0885 33.0433 23.038 31.5374 23.038C29.9977 23.038 29.1854 24.0885 29.1854 25.7152C29.1854 27.3078 29.9977 28.3753 31.5374 28.3753ZM31.5374 31.8828C28.1363 31.8828 25.3613 29.3242 25.3613 25.7152C25.3613 22.106 28.1363 19.5645 31.5374 19.5645C34.9555 19.5645 37.6797 22.106 37.6797 25.7152C37.6797 29.3242 34.9217 31.8828 31.5374 31.8828Z" fill="white"/>
<path fill-rule="evenodd" clip-rule="evenodd" d="M57.2441 18.8398H67.3887V21.902H64.1887V31.1582H60.41V21.902H57.2441V18.8398Z" fill="white"/>
<path fill-rule="evenodd" clip-rule="evenodd" d="M75.0529 26.3561H71.3182V31.1582H67.3887V18.8398H71.3182V23.2765H75.0529V18.8398H78.9824V31.1582H75.0529V26.3561Z" fill="white"/>
<path fill-rule="evenodd" clip-rule="evenodd" d="M37.6797 27.6287L38.8876 26.7228L41.7943 33.7999L46.7016 26.2699L50.8727 34.7812L55.7949 17.3906L50.6652 29.8179L46.8117 22.2313L41.9076 30.9879L39.0527 26.0199L37.6797 27.6287Z" fill="white"/>
</g>
</svg>
