<svg width="16" height="16" viewBox="0 0 16 16" fill="none" xmlns="http://www.w3.org/2000/svg">
<path fill-rule="evenodd" clip-rule="evenodd" d="M7.84314 15.6863C12.1748 15.6863 15.6863 12.1748 15.6863 7.84314C15.6863 3.51149 12.1748 0 7.84314 0C3.51149 0 0 3.51149 0 7.84314C0 12.1748 3.51149 15.6863 7.84314 15.6863ZM4.42157 5.88232C4.42157 5.07556 5.07559 4.42154 5.88235 4.42154H9.80392C10.6107 4.42154 11.2647 5.07556 11.2647 5.88232V9.80389C11.2647 10.6107 10.6107 11.2647 9.80392 11.2647H5.88235C5.07559 11.2647 4.42157 10.6107 4.42157 9.80389V5.88232ZM5.88235 3.42154C4.5233 3.42154 3.42157 4.52327 3.42157 5.88232V9.80389C3.42157 11.1629 4.5233 12.2647 5.88235 12.2647H9.80392C11.163 12.2647 12.2647 11.1629 12.2647 9.80389V5.88232C12.2647 4.52327 11.163 3.42154 9.80392 3.42154H5.88235ZM8.01686 6.76905C7.79452 6.73608 7.56745 6.77406 7.36793 6.87758C7.16842 6.98111 7.00663 7.1449 6.90558 7.34568C6.80452 7.54645 6.76935 7.77398 6.80506 7.99589C6.84076 8.21781 6.94554 8.42282 7.10448 8.58175C7.26342 8.74069 7.46842 8.84547 7.69034 8.88118C7.91226 8.91689 8.13978 8.88171 8.34056 8.78066C8.54133 8.6796 8.70513 8.51781 8.80865 8.3183C8.91217 8.11879 8.95015 7.89171 8.91718 7.66937C8.88355 7.44257 8.77787 7.23261 8.61575 7.07049C8.45362 6.90836 8.24366 6.80268 8.01686 6.76905ZM6.90736 5.98996C7.29358 5.78956 7.73314 5.71605 8.16355 5.77987C8.60257 5.84497 9.00902 6.04955 9.32285 6.36338C9.63669 6.67721 9.84126 7.08366 9.90636 7.52269C9.97019 7.95309 9.89667 8.39266 9.69627 8.77887C9.49588 9.16508 9.1788 9.47827 8.79015 9.67389C8.40149 9.86951 7.96105 9.9376 7.53147 9.86848C7.10189 9.79935 6.70504 9.59653 6.39737 9.28886C6.0897 8.98119 5.88688 8.58435 5.81776 8.15476C5.74863 7.72518 5.81672 7.28474 6.01234 6.89609C6.20796 6.50743 6.52115 6.19036 6.90736 5.98996ZM10 5.18631C9.72386 5.18631 9.5 5.41016 9.5 5.68631C9.5 5.96245 9.72386 6.18631 10 6.18631H10.0049C10.2811 6.18631 10.5049 5.96245 10.5049 5.68631C10.5049 5.41016 10.2811 5.18631 10.0049 5.18631H10Z" fill="white"/>
</svg>
