<svg width="16" height="16" viewBox="0 0 16 16" fill="none" xmlns="http://www.w3.org/2000/svg">
<path fill-rule="evenodd" clip-rule="evenodd" d="M7.84314 15.6863C12.1748 15.6863 15.6863 12.1748 15.6863 7.84314C15.6863 3.51149 12.1748 0 7.84314 0C3.51149 0 0 3.51149 0 7.84314C0 12.1748 3.51149 15.6863 7.84314 15.6863ZM5.09208 4.7059H10.5942C11.6737 4.7059 12.549 5.63289 12.549 6.77775V9.69287C12.549 10.8367 11.6737 11.7647 10.5942 11.7647H5.09208C4.01256 11.7647 3.13726 10.8377 3.13726 9.69287V6.77775C3.13726 5.6339 4.01256 4.7059 5.09208 4.7059ZM6.69867 9.67875L9.27279 8.37754C9.34997 8.3382 9.35091 8.2222 9.27467 8.17983L6.7015 6.79793C6.68578 6.78933 6.66828 6.78518 6.65065 6.78587C6.63302 6.78656 6.61585 6.79207 6.60076 6.80187C6.58568 6.81168 6.57318 6.82545 6.56445 6.84188C6.55573 6.85831 6.55106 6.87686 6.55091 6.89577V9.57889C6.55098 9.59756 6.55544 9.6159 6.56389 9.63223C6.57233 9.64855 6.58448 9.66233 6.59922 9.67229C6.61395 9.68224 6.63079 9.68806 6.64817 9.68919C6.66556 9.69031 6.68293 9.68673 6.69867 9.67875Z" fill="white"/>
</svg>
