<svg width="16" height="16" viewBox="0 0 16 16" fill="none" xmlns="http://www.w3.org/2000/svg">
<path fill-rule="evenodd" clip-rule="evenodd" d="M7.84314 15.6863C12.1748 15.6863 15.6863 12.1748 15.6863 7.84314C15.6863 3.51149 12.1748 0 7.84314 0C3.51149 0 0 3.51149 0 7.84314C0 12.1748 3.51149 15.6863 7.84314 15.6863ZM11.2057 4.59474C11.6858 4.44705 12.1394 4.22123 12.549 3.92598C12.4039 4.53473 12.0958 5.09019 11.6592 5.53013C11.6816 5.64972 11.693 5.77117 11.6934 5.89292C11.6934 10.9195 6.98754 13.105 3.13727 10.9195C4.20129 10.9628 5.25086 10.6564 6.13192 10.0453C2.28165 8.29696 3.99288 4.36308 3.99288 4.36308C4.42511 4.9919 5.00283 5.50175 5.6746 5.84722C6.34637 6.19269 7.09134 6.36305 7.84315 6.34313V5.90603C7.83789 5.50492 7.95332 5.11184 8.17384 4.77995C8.39436 4.44805 8.70932 4.19336 9.07613 4.05031C9.44294 3.90727 9.84389 3.88278 10.2248 3.98015C10.6056 4.07752 10.9481 4.29205 11.2057 4.59474Z" fill="white"/>
</svg>
