<svg width="37" height="37" viewBox="0 0 37 37" fill="none" xmlns="http://www.w3.org/2000/svg">
<mask id="mask0_0_2812" style="mask-type:alpha" maskUnits="userSpaceOnUse" x="0" y="0" width="37" height="37">
<path fill-rule="evenodd" clip-rule="evenodd" d="M0 0H36.5885V36.5885H0V0Z" fill="white"/>
</mask>
<g mask="url(#mask0_0_2812)">
<path fill-rule="evenodd" clip-rule="evenodd" d="M11.3028 4.07825C7.31909 4.07825 4.07841 7.31929 4.07841 11.3026V25.2853C4.07841 29.269 7.31909 32.51 11.3028 32.51H25.2858C29.2691 32.51 32.5102 29.269 32.5102 25.2853V11.3026C32.5102 7.31929 29.2691 4.07825 25.2858 4.07825H11.3028ZM25.2858 36.5885H11.3028C5.07054 36.5885 0 31.5183 0 25.2853V11.3027C0 5.07042 5.07054 -0.00012207 11.3028 -0.00012207H25.2858C31.518 -0.00012207 36.5886 5.07042 36.5886 11.3027V25.2853C36.5886 31.5183 31.518 36.5885 25.2858 36.5885Z" fill="#F2A819"/>
</g>
<path fill-rule="evenodd" clip-rule="evenodd" d="M18.4393 12.3967C15.2675 12.3967 12.6871 14.9771 12.6871 18.1488C12.6871 21.3208 15.2675 23.9011 18.4393 23.9011C21.6111 23.9011 24.1916 21.3208 24.1916 18.1488C24.1916 14.9771 21.6111 12.3967 18.4393 12.3967ZM18.4393 27.6179C13.2179 27.6179 8.97046 23.3699 8.97046 18.1487C8.97046 12.928 13.2179 8.67993 18.4393 8.67993C23.6606 8.67993 27.9085 12.928 27.9085 18.1487C27.9085 23.3699 23.6606 27.6179 18.4393 27.6179Z" fill="#F2A819"/>
<path fill-rule="evenodd" clip-rule="evenodd" d="M30.8987 9.17833C30.8987 10.004 30.2292 10.6734 29.4036 10.6734C28.5779 10.6734 27.9084 10.004 27.9084 9.17833C27.9084 8.35266 28.5779 7.68323 29.4036 7.68323C30.2292 7.68323 30.8987 8.35266 30.8987 9.17833Z" fill="#F2A819"/>
</svg>
