<svg width="113" height="55" viewBox="0 0 113 55" fill="none" xmlns="http://www.w3.org/2000/svg">
<path d="M21.4979 43.6857C22.9284 43.6857 24.4356 43.68 25.9807 43.68C27.1269 43.68 28.8336 43.68 29.9821 43.68L50.85 0H43.2598L25.7606 37.1888L25.0729 35.6738L20.8652 26.3909C18.6782 21.5646 16.4924 16.7462 14.3077 11.936C14.2229 11.9933 14.1404 12.0506 14.059 12.1102C12.1276 13.5067 10.4511 15.2253 9.10278 17.1905L21.4979 43.6857Z" fill="white"/>
<path d="M46.7695 14.457V32.3713H51.1639V14.457H46.7695Z" fill="white"/>
<path d="M61.3373 21.4611C58.5751 20.8645 57.133 20.5505 57.133 19.3236C57.133 18.2874 58.0724 17.3466 60.0834 17.3466C61.8401 17.3466 63.2183 18.1606 63.973 19.4562L67.5828 17.6315C66.171 15.2742 63.8174 13.8286 60.0834 13.8286C55.7177 13.8286 52.8637 16.5034 52.8637 19.4574C52.8637 23.3207 56.1601 24.3278 59.2973 24.9884C61.5568 25.4908 63.5933 25.742 63.5933 27.0945C63.5933 28.3203 62.5577 29.3262 60.4584 29.3262C58.4497 29.3262 56.9113 28.3842 56.0323 26.6514L52.1055 28.5354C53.5824 31.4254 56.1566 33 60.268 33C65.508 33 67.8 29.5728 67.8 26.9957C67.8035 23.1265 64.3515 22.0589 61.3373 21.4611Z" fill="white"/>
<path d="M69.6833 14.457V32.3713H73.7639V14.457H69.6833Z" fill="white"/>
<path d="M85.0622 13.8286C79.8129 13.8286 75.6478 18.0317 75.6478 23.3926C75.634 24.6492 75.8674 25.8961 76.3345 27.0611C76.8015 28.2261 77.4929 29.2861 78.3686 30.1796C79.2443 31.0731 80.287 31.7825 81.4363 32.2666C82.5855 32.7508 83.8185 33 85.0639 33C86.3093 33 87.5423 32.7508 88.6915 32.2666C89.8408 31.7825 90.8834 31.0731 91.7592 30.1796C92.6349 29.2861 93.3263 28.2261 93.7933 27.0611C94.2603 25.8961 94.4937 24.6492 94.48 23.3926C94.48 18.0317 90.2838 13.8286 85.0622 13.8286ZM85.0622 28.9437C82.0501 28.9437 79.7807 26.4355 79.7807 23.3926C79.7807 20.2893 82.0501 17.8101 85.0622 17.8101C88.0512 17.8101 90.3505 20.2893 90.3505 23.3926C90.347 26.4355 88.0466 28.9437 85.0622 28.9437Z" fill="white"/>
<path d="M105.868 13.8286C103.531 13.8286 101.687 14.8525 100.485 16.4393V14.2009H96.3639V32.3715H100.518V22.402C100.518 19.2018 102.363 17.4609 104.729 17.4609C107.436 17.4609 108.789 19.1995 108.789 22.0262V32.368H113V21.5942C113.007 16.6554 110.39 13.8286 105.868 13.8286Z" fill="white"/>
<path d="M46.7695 35.2V36.7672H49.2086V44H50.9101V36.7672H53.3611V35.2H46.7695Z" fill="white"/>
<path d="M57.7592 36.9008C57.3512 36.8899 56.9462 36.9724 56.5766 37.1418C56.2071 37.3112 55.8831 37.5628 55.6307 37.8764V35.2H53.9889V44H55.6435V40.1828C55.6435 38.9693 56.3736 38.2908 57.297 38.2908C58.3682 38.2908 58.9038 38.9567 58.9038 40.0519V43.9988H60.5806V39.8743C60.5806 37.9834 59.5477 36.9008 57.7592 36.9008Z" fill="white"/>
<path d="M64.7479 37.0863C63.918 37.0863 63.3502 37.4292 63.0443 38.1149V37.0863H61.5222V44H63.0552V40.3123C63.0552 39.1185 63.5216 38.6218 64.4185 38.6218C64.7452 38.6081 65.0675 38.7037 65.3383 38.8945L65.9167 37.3816C65.5586 37.1786 65.1556 37.0768 64.7479 37.0863Z" fill="white"/>
<path d="M73.45 40.4985C73.45 38.3572 71.9351 36.7716 69.8582 36.7716C69.3784 36.7679 68.9028 36.8637 68.4593 37.0533C68.0157 37.243 67.6132 37.5226 67.2753 37.8759C66.9374 38.2292 66.6709 38.6489 66.4916 39.1105C66.3122 39.572 66.2236 40.0661 66.2309 40.5637C66.2309 42.6565 67.723 44.3143 69.9176 44.3143C71.493 44.3143 72.5669 43.5346 73.1758 42.359L71.8506 41.5662C71.517 42.3472 70.8224 42.8425 69.9176 42.8425C68.7751 42.8425 67.9971 42.1611 67.7698 41.1337H73.45V40.4985ZM67.8521 39.7294C67.9869 39.2906 68.2551 38.9088 68.6165 38.6411C68.9779 38.3735 69.4131 38.2344 69.857 38.2446C70.8589 38.2446 71.5707 38.7518 71.814 39.7294H67.8521Z" fill="white"/>
<path d="M80.9834 40.4985C80.9834 38.3572 79.4676 36.7716 77.3921 36.7716C76.9124 36.7677 76.4367 36.8634 75.9931 37.053C75.5495 37.2425 75.1468 37.5222 74.8089 37.8755C74.4709 38.2288 74.2044 38.6485 74.025 39.1102C73.8456 39.5718 73.757 40.066 73.7643 40.5637C73.7643 42.6565 75.2561 44.3143 77.4504 44.3143C79.0267 44.3143 80.0993 43.5346 80.7081 42.359L79.3831 41.5662C79.0507 42.3472 78.355 42.8425 77.4504 42.8425C76.3081 42.8425 75.5303 42.1611 75.3041 41.1337H80.9834V40.4985ZM75.3863 39.7294C75.5211 39.2906 75.7893 38.9088 76.1506 38.6411C76.512 38.3735 76.9471 38.2344 77.391 38.2446C78.3916 38.2446 79.1044 38.7518 79.3477 39.7294H75.3863Z" fill="white"/>
<path d="M88.2534 38.9292C87.3175 38.6024 86.5104 38.3954 86.5104 37.6779C86.5104 37.1082 86.919 36.6709 87.7026 36.6709C88.0091 36.6582 88.3135 36.7301 88.5846 36.8792C88.8557 37.0283 89.084 37.2493 89.2463 37.5198L90.556 36.4884C89.8653 35.7476 89.0593 35.2 87.6914 35.2C86.0548 35.2 84.8615 36.3186 84.8615 37.7396C84.8615 39.428 86.1242 39.8769 87.2828 40.2664C88.1784 40.5571 89.0593 40.799 89.0593 41.5455C89.0593 42.1642 88.6026 42.7363 87.7619 42.7363C86.9783 42.7363 86.3235 42.3107 85.8914 41.5327L84.4361 42.7235C85.2197 43.634 86.235 44.3142 87.7675 44.3142C89.6381 44.3142 90.7139 42.9537 90.7139 41.5572C90.7195 39.8525 89.4097 39.3187 88.2534 38.9292Z" fill="white"/>
<path d="M91.5304 36.9891V43.9999H93.0373V36.9891H91.5304ZM92.2823 34.2571C91.7086 34.2571 91.3417 34.6633 91.3417 35.2749C91.3417 35.8864 91.6747 36.2812 92.2823 36.2812C92.8708 36.2812 93.225 35.8864 93.225 35.2749C93.225 34.6633 92.8698 34.2571 92.2812 34.2571H92.2823Z" fill="white"/>
<path d="M98.3135 40.5004L100.897 37.0857H98.9269L97.3044 39.2822L95.6689 37.0857H93.6401L96.247 40.4789L93.5389 44H95.5688L97.2785 41.6926L99.0446 43.9966H101.072L98.3135 40.5004Z" fill="white"/>
<path d="M105.152 38.4835V37.0469H103.785V34.8857L102.222 35.9913V37.048H101.072V38.4846H102.222V41.1007C102.222 43.3107 102.854 44 104.933 44H105.153V42.4872C103.958 42.4872 103.786 42.2984 103.786 41.0859V38.4835H105.152Z" fill="white"/>
<path d="M111.29 37.0857L109.448 41.8649L107.5 37.0857H105.781L108.655 43.83L107.182 47.4571H108.822L113 37.0857H111.29Z" fill="white"/>
<path d="M43.4391 44.6662C43.154 44.9904 42.8585 45.3076 42.5573 45.6146C40.3753 47.8447 37.7721 49.6157 34.9001 50.8242C32.0281 52.0327 28.9449 52.6543 25.8308 52.6528C12.8776 52.6528 2.33732 42.0776 2.33732 29.0691C2.33732 16.0606 12.873 5.48662 25.8308 5.48662C29.7907 5.48168 33.6868 6.48714 37.1532 8.40856L38.1404 6.27975C34.3638 4.21546 30.131 3.1368 25.8308 3.14285C11.5881 3.14285 0 14.7732 0 29.0691C0 43.365 11.5858 55 25.8308 55C29.6279 55.0004 33.3783 54.1594 36.8143 52.537C40.2502 50.9146 43.287 48.5509 45.7078 45.6146C45.9643 45.3053 46.2128 44.9881 46.4556 44.6662H43.4391Z" fill="#7F7F7F"/>
<path d="M51.1639 10.0571H46.7695V12.5714H51.1639V10.0571Z" fill="#7F7F7F"/>
<path d="M73.7639 10.0571H69.6833V12.5714H73.7639V10.0571Z" fill="#7F7F7F"/>
</svg>
