<svg width="524" height="519" viewBox="0 0 524 519" fill="none" xmlns="http://www.w3.org/2000/svg">
<g clip-path="url(#clip0_0_2732)">
<path d="M1.88806 68.0404V108.867L40.3625 131.098V87.3899L76.1964 66.6923V109.621L113.997 87.7732L150.491 108.92V148.928C149.942 149.079 149.456 149.404 149.106 149.854C148.756 150.304 148.562 150.855 148.551 151.426C148.56 151.654 148.595 151.88 148.656 152.1L113.667 172.322L113.337 172.507V216.968L151.152 195.121L188.292 216.598L225.447 195.121L261.927 216.268V258.39L224.126 280.237L261.993 302.085V345.793L300.111 323.747L300.441 323.562V281.374L334.44 301.027C334.377 301.247 334.342 301.473 334.334 301.701C334.345 302.272 334.54 302.823 334.89 303.273C335.24 303.724 335.726 304.048 336.275 304.199V387.201L299.451 408.481L299.121 408.666V453.14L337.252 431.095L337.582 430.91V387.968L374.063 366.821L409.871 387.585L373.707 408.481L373.377 408.666V453.14L411.521 431.095L411.851 430.91V345.78L445.85 365.433C445.78 365.651 445.745 365.878 445.744 366.107C445.755 366.678 445.95 367.229 446.3 367.679C446.65 368.129 447.135 368.454 447.685 368.605V409.432L484.166 430.579L448.345 451.277L447.685 450.893V451.66L447.025 452.043L447.685 452.427V495.368L482.991 515.775C482.932 515.995 482.901 516.222 482.898 516.449C482.898 517.15 483.176 517.823 483.672 518.318C484.167 518.814 484.838 519.093 485.539 519.093C486.239 519.093 486.911 518.814 487.406 518.318C487.901 517.823 488.179 517.15 488.179 516.449C488.169 515.881 487.976 515.331 487.629 514.881C487.282 514.431 486.799 514.105 486.252 513.951V473.891L524.066 452.043L486.912 430.579L523.076 409.67L523.406 409.485V366.504L524.066 366.12L523.406 365.737V322.782L486.859 301.741L523.036 280.832L523.419 280.594V236.146L485.222 258.125L484.892 258.31V300.578V344.26L450.246 364.283C449.92 363.96 449.515 363.728 449.071 363.609V322.796L412.511 301.741L448.675 280.845L449.005 280.66V237.705L483.624 217.695C483.863 217.94 484.148 218.134 484.464 218.266C484.779 218.398 485.118 218.464 485.46 218.462C486.16 218.462 486.832 218.183 487.327 217.687C487.822 217.192 488.1 216.519 488.1 215.818C488.09 215.25 487.897 214.7 487.55 214.25C487.202 213.8 486.72 213.474 486.173 213.32V130.371L523.049 109.052L523.379 108.867V64.3925V22.1779L486.239 0.713684V-0.0528564L485.578 0.330383L484.918 -0.0528564V0.713684L448.094 21.9929L447.764 22.1779V66.6923L483.743 45.9154C484.232 46.4005 484.89 46.6756 485.578 46.6819C486.267 46.6756 486.925 46.4005 487.414 45.9154L521.439 65.5688L486.239 85.9096L448.424 107.757L410.623 85.9096V129.591L373.826 150.844L373.495 151.042V191.856C372.948 192.009 372.465 192.335 372.118 192.785C371.771 193.235 371.578 193.785 371.568 194.354C371.568 195.055 371.846 195.727 372.341 196.223C372.836 196.719 373.508 196.997 374.208 196.997C374.909 196.997 375.58 196.719 376.076 196.223C376.571 195.727 376.849 195.055 376.849 194.354C376.842 194.126 376.806 193.899 376.743 193.68L411.732 173.458L412.062 173.273V131.111L447.856 151.796V236.978L411.191 258.007L373.377 236.159V279.854L338.731 299.878C338.405 299.554 338 299.322 337.556 299.203V258.377L302.237 237.97C302.296 237.75 302.327 237.523 302.33 237.296C302.327 237.068 302.296 236.842 302.237 236.622L337.252 216.4L337.582 216.202V130.384L372.017 110.467C372.258 110.802 372.576 111.076 372.942 111.267C373.309 111.457 373.716 111.559 374.129 111.564C374.83 111.564 375.501 111.285 375.996 110.789C376.492 110.294 376.77 109.621 376.77 108.92C376.76 108.352 376.567 107.802 376.219 107.352C375.872 106.902 375.389 106.576 374.842 106.422V64.3529L337.688 85.8303V43.6553L299.227 21.4113V65.939L335.668 87.0067L299.821 107.717L265.123 87.6278C265.19 87.4093 265.225 87.1823 265.228 86.9538C265.228 86.2527 264.95 85.5804 264.455 85.0846C263.96 84.5889 263.288 84.3104 262.588 84.3104C261.887 84.3104 261.216 84.5889 260.72 85.0846C260.225 85.5804 259.947 86.2527 259.947 86.9538C259.957 87.5223 260.15 88.0724 260.497 88.5224C260.845 88.9724 261.328 89.2983 261.875 89.4517V172.507L225.394 193.654L189.56 172.943L225.816 151.994L226.146 151.796V108.867L226.807 108.484L226.146 108.101V65.9257L262.957 44.6465L263.287 44.4483V-0.0132446L225.156 22.0325L224.826 22.2175V64.3925L188.992 43.6817V42.9283L188.332 43.3117L150.531 21.4509V63.0445C150.081 63.1567 149.67 63.3898 149.343 63.7185L114.697 43.6949V-6.10352e-05L77.5563 21.4641L39.4119 43.4967L39.0818 43.6949V85.87L5.08331 66.2165C5.14618 65.997 5.18164 65.7706 5.1889 65.5424C5.1889 64.8413 4.91071 64.169 4.41547 63.6733C3.92023 63.1776 3.2486 62.899 2.54822 62.899C1.8479 62.899 1.17621 63.1776 0.68103 63.6733C0.185791 64.169 -0.0924072 64.8413 -0.0924072 65.5424C-0.0790405 66.1179 0.121704 66.6732 0.479126 67.1241C0.836609 67.5749 1.3313 67.8966 1.88806 68.0404ZM410.531 430.183L374.697 450.893V409.472L410.531 388.774V430.183ZM486.212 259.143L522.099 238.446V279.854L486.265 300.552L486.212 259.143ZM449.005 64.4058V22.9973L484.839 2.28644V41.5803C484.292 41.7337 483.809 42.0596 483.462 42.5096C483.115 42.9596 482.921 43.5097 482.911 44.0782C482.915 44.3102 482.946 44.5408 483.004 44.7655L449.005 64.4058ZM486.159 41.5803V2.28644L521.98 22.9973V64.4058L487.995 44.7655C488.052 44.5408 488.083 44.3102 488.087 44.0782C488.077 43.5097 487.884 42.9596 487.537 42.5096C487.189 42.0596 486.706 41.7337 486.159 41.5803ZM77.5563 65.939L113.377 45.2281V86.6234L77.5563 107.334V65.939ZM151.851 68.0404C152.295 67.9218 152.7 67.6895 153.026 67.3664L187.012 87.0067L151.851 107.334V68.0404ZM187.672 130.332V171.74L153.726 152.1C153.793 151.881 153.829 151.654 153.832 151.426C153.822 150.857 153.629 150.307 153.281 149.857C152.934 149.407 152.451 149.081 151.904 148.928V109.621L187.672 130.332ZM151.851 153.924C152.295 153.805 152.7 153.573 153.026 153.25L187.012 172.89L151.851 193.217V153.924ZM188.332 129.182L152.512 108.484L168.778 99.0736L188.332 87.7732L224.166 108.484L207.886 117.881L188.332 129.182ZM187.672 85.87L153.726 66.2165C153.796 65.9985 153.831 65.7712 153.832 65.5424C153.831 65.3137 153.796 65.0864 153.726 64.8684L187.725 45.2149L187.672 85.87ZM114.697 173.273L149.343 153.25C149.673 153.575 150.083 153.807 150.531 153.924V193.971L114.697 214.682V173.273ZM299.121 239.794V279.087L263.314 258.39V216.968L297.312 236.622C297.254 236.842 297.223 237.068 297.22 237.296C297.228 237.861 297.418 238.408 297.76 238.858C298.102 239.307 298.579 239.635 299.121 239.794ZM299.121 234.798C298.675 234.91 298.269 235.143 297.946 235.472L263.961 215.831L299.121 195.504V234.798ZM262.627 259.526L298.461 280.237L280.887 290.388L262.627 300.961L226.807 280.25L262.627 259.526ZM299.121 322.796L263.314 343.506V302.085L299.121 281.387V322.796ZM336.275 430.143L300.441 450.854V409.432L336.275 388.735V430.143ZM337.596 345.026L349.307 338.246L373.416 324.316V365.724L337.596 386.435V345.026ZM374.737 281.387L392.706 291.736L410.623 302.085V343.493L392.706 333.144L374.789 322.796L374.737 281.387ZM410.57 386.435L374.737 365.724V324.316L392.706 334.664L410.623 345.026L410.57 386.435ZM449.045 368.605C449.491 368.493 449.897 368.259 450.22 367.931L484.865 387.968V429.376L449.045 408.666V368.605ZM449.045 494.549V453.14L484.865 473.838V513.898C484.422 514.017 484.017 514.249 483.69 514.572L449.045 494.549ZM485.526 472.701L449.705 451.99L484.865 431.663L485.526 431.28L486.186 431.663L521.359 451.99L485.526 472.701ZM522.02 408.666L486.186 429.376V387.968L522.02 367.257V408.666ZM522.02 364.971L486.186 344.26V302.851L522.02 323.549V364.971ZM485.526 345.357L521.359 366.107L505.08 375.518L485.526 386.818L450.801 366.781C450.87 366.563 450.906 366.336 450.906 366.107C450.906 365.878 450.87 365.651 450.801 365.433L485.526 345.357ZM447.724 363.57C447.276 363.686 446.866 363.919 446.536 364.244L411.891 344.22V302.851L447.724 323.549V363.57ZM447.724 279.814L411.891 300.525V259.143L447.724 238.446V279.814ZM484.839 213.294C484.286 213.449 483.798 213.781 483.45 214.239C483.102 214.697 482.913 215.256 482.911 215.831C482.916 216.059 482.947 216.285 483.004 216.505L449.005 236.146V194.684L484.839 173.987V213.294ZM449.005 151.769L484.839 131.058V172.507L449.005 193.217V151.769ZM486.212 87.3635L522.099 66.6923V108.114L486.265 128.825L486.212 87.3635ZM484.892 129.525L449.058 150.236V108.828L484.892 88.1168V129.525ZM410.623 172.467L375.978 192.49C375.647 192.165 375.238 191.933 374.789 191.816V151.769L410.623 131.058V172.467ZM411.943 128.785V88.1565L447.764 108.867V150.276L411.97 129.591V128.812L411.943 128.785ZM374.816 238.406L410.65 259.103V300.565L392.706 290.203L374.789 279.854L374.816 238.406ZM373.495 281.347V322.796L353.03 334.625L337.675 343.493V304.199C338.201 304.034 338.662 303.708 338.993 303.267C339.325 302.826 339.51 302.293 339.523 301.741C339.523 301.512 339.487 301.285 339.418 301.067L373.495 281.347ZM336.355 259.103V299.203C335.906 299.32 335.496 299.552 335.166 299.878L300.521 279.854V239.794C300.967 239.681 301.373 239.448 301.696 239.12L336.355 259.103ZM336.355 215.409L301.603 235.472C301.281 235.143 300.874 234.91 300.428 234.798V194.684L301.088 194.301L336.262 173.987L336.355 215.409ZM336.355 129.499L300.521 150.21V108.801L336.355 88.0904V129.499ZM300.521 151.743L336.355 131.032V172.507L300.521 193.217V151.743ZM373.561 66.6262V106.409C373.012 106.56 372.526 106.885 372.176 107.335C371.827 107.785 371.632 108.337 371.621 108.907C371.621 108.986 371.621 109.066 371.621 109.145L337.701 128.759V87.3371L373.561 66.6262ZM300.587 23.6978L336.407 44.3954V85.8831L300.507 65.1591L300.587 23.6978ZM263.314 89.5178C263.762 89.4013 264.172 89.1689 264.502 88.8438L299.148 108.867V150.276L263.314 129.565V89.5178ZM299.148 151.809V193.217L263.314 172.507V131.098L299.148 151.809ZM262.654 173.656L298.487 194.354L262.667 215.065L261.993 214.682L226.833 194.354L262.654 173.656ZM188.359 215.065L152.538 194.354L187.698 174.04L188.359 173.656L189.019 174.04L224.192 194.354L188.359 215.065ZM224.826 151.069L188.992 171.766V130.358L224.826 109.647V151.069ZM226.146 23.0105L261.993 2.27325V43.6949L226.173 64.3925L226.146 23.0105ZM224.826 65.9522V107.334L188.992 86.6234V45.2149L224.826 65.9522ZM187.012 44.0121L153.026 63.6656C152.704 63.3373 152.297 63.1042 151.851 62.9916V23.6978L187.012 44.0121ZM150.531 67.9875V107.334L114.697 86.6234V45.2149L148.696 64.8684C148.633 65.0878 148.597 65.3142 148.59 65.5424C148.601 66.1127 148.796 66.6641 149.146 67.1143C149.496 67.5645 149.982 67.8893 150.531 68.0404V67.9875ZM113.377 2.23364V43.6949L77.5563 64.3925V22.9973L113.377 2.23364ZM40.4021 44.4087L76.2359 23.6978V65.1591L40.4021 85.87V44.4087ZM39.0818 87.3371V128.812L3.20837 108.101V68.0404C3.65668 67.9239 4.06653 67.6915 4.39667 67.3664L39.0818 87.3371Z" fill="url(#paint0_linear_0_2732)"/>
</g>
<defs>
<linearGradient id="paint0_linear_0_2732" x1="462.354" y1="-24.3851" x2="178.856" y2="384.325" gradientUnits="userSpaceOnUse">
<stop stop-color="#C8CACC"/>
<stop offset="0.14" stop-color="#D5D6D7"/>
<stop offset="0.38" stop-color="#E4E6E6"/>
<stop offset="0.57" stop-color="#EAEBEB"/>
<stop offset="0.75" stop-color="#EEEFEF"/>
<stop offset="0.93" stop-color="#FAFBFB"/>
<stop offset="0.98" stop-color="white"/>
</linearGradient>
<clipPath id="clip0_0_2732">
<rect width="524" height="519" fill="white" transform="translate(524 519) rotate(-180)"/>
</clipPath>
</defs>
</svg>
