<svg width="1439" height="760" viewBox="0 0 1439 760" fill="none" xmlns="http://www.w3.org/2000/svg">
<g clip-path="url(#clip0_343_4)">
<path d="M522.112 691.96V651.133L483.638 628.902V672.61L447.804 693.308V650.379L410.003 672.227L373.509 651.08V611.072C374.058 610.921 374.544 610.596 374.894 610.146C375.244 609.696 375.439 609.145 375.45 608.574C375.44 608.346 375.405 608.12 375.344 607.9L410.333 587.678L410.663 587.493V543.032L372.849 564.879L335.708 543.402L298.553 564.879L262.073 543.732V501.61L299.874 479.763L262.007 457.915V414.207L223.889 436.253L223.559 436.438V478.626L189.56 458.973C189.623 458.753 189.658 458.527 189.666 458.299C189.655 457.728 189.46 457.177 189.11 456.727C188.76 456.276 188.274 455.952 187.725 455.801V372.799L224.549 351.519L224.879 351.334V306.86L186.748 328.905L186.418 329.09V372.032L149.937 393.179L114.13 372.415L150.293 351.519L150.624 351.334V306.86L112.479 328.905L112.149 329.09V414.22L78.1505 394.567C78.2198 394.349 78.2554 394.122 78.2561 393.893C78.2451 393.322 78.0502 392.771 77.7004 392.321C77.3506 391.871 76.8647 391.546 76.3152 391.395V350.568L39.8345 329.421L75.6551 308.723L76.3152 309.107V308.34L76.9754 307.957L76.3152 307.573V264.632L41.0096 244.225C41.068 244.005 41.0991 243.778 41.102 243.551C41.102 242.85 40.8238 242.177 40.3286 241.682C39.8334 241.186 39.1617 240.907 38.4613 240.907C37.761 240.907 37.0893 241.186 36.5941 241.682C36.0989 242.177 35.8207 242.85 35.8207 243.551C35.8309 244.119 36.0239 244.669 36.3712 245.119C36.7184 245.569 37.2014 245.895 37.7484 246.049V286.109L-0.065918 307.957L37.0882 329.421L0.924331 350.33L0.594248 350.515V393.496L-0.065918 393.88L0.594248 394.263V437.218L37.141 458.259L0.963939 479.168L0.581032 479.406V523.854L38.7782 501.875L39.1083 501.69V459.422V415.74L73.7538 395.717C74.0803 396.04 74.4853 396.272 74.9289 396.391V437.204L111.489 458.259L75.325 479.155L74.9949 479.34V522.295L40.3758 542.305C40.1374 542.06 39.8518 541.866 39.5364 541.734C39.221 541.602 38.8823 541.536 38.5406 541.538C37.8402 541.538 37.1686 541.817 36.6733 542.313C36.1781 542.808 35.8999 543.481 35.8999 544.182C35.9101 544.75 36.1031 545.3 36.4504 545.75C36.7977 546.2 37.2806 546.526 37.8276 546.68V629.629L0.950723 650.948L0.62064 651.133V695.607V737.822L37.7616 759.286V760.053L38.4217 759.67L39.0819 760.053V759.286L75.9059 738.007L76.236 737.822V693.308L40.257 714.085C39.7684 713.599 39.1099 713.324 38.4217 713.318C37.7336 713.324 37.0751 713.599 36.5865 714.085L2.56153 694.431L37.7616 674.09L75.5759 652.243L113.377 674.09V630.409L150.175 609.156L150.505 608.958V568.144C151.052 567.991 151.535 567.665 151.882 567.215C152.229 566.765 152.422 566.215 152.432 565.646C152.432 564.945 152.154 564.273 151.659 563.777C151.164 563.281 150.492 563.003 149.792 563.003C149.091 563.003 148.42 563.281 147.924 563.777C147.429 564.273 147.151 564.945 147.151 565.646C147.158 565.874 147.194 566.101 147.257 566.32L112.268 586.542L111.938 586.727V628.889L76.1436 608.204V523.022L112.809 501.993L150.624 523.841V480.146L185.269 460.122C185.596 460.446 186.001 460.678 186.444 460.797V501.623L221.763 522.03C221.705 522.25 221.674 522.477 221.671 522.704C221.674 522.932 221.705 523.158 221.763 523.378L186.748 543.6L186.418 543.798V629.616L151.983 649.533C151.742 649.198 151.425 648.924 151.058 648.733C150.691 648.543 150.284 648.441 149.871 648.436C149.171 648.436 148.499 648.715 148.004 649.211C147.508 649.706 147.23 650.379 147.23 651.08C147.24 651.648 147.434 652.198 147.781 652.648C148.128 653.098 148.611 653.424 149.158 653.578V695.647L186.312 674.17V716.345L224.773 738.589V694.061L188.332 672.993L224.179 652.283L258.878 672.372C258.81 672.591 258.775 672.818 258.772 673.046C258.772 673.747 259.05 674.42 259.545 674.915C260.041 675.411 260.712 675.69 261.413 675.69C262.113 675.69 262.785 675.411 263.28 674.915C263.775 674.42 264.053 673.747 264.053 673.046C264.043 672.478 263.85 671.928 263.503 671.478C263.155 671.028 262.673 670.702 262.126 670.548V587.493L298.606 566.346L334.44 587.057L298.184 608.006L297.854 608.204V651.133L297.194 651.516L297.854 651.899V694.074L261.043 715.353L260.713 715.552V760.013L298.844 737.968L299.174 737.782V695.607L335.008 716.318V717.072L335.668 716.688L373.469 738.549V696.956C373.919 696.843 374.33 696.61 374.657 696.281L409.303 716.305V760L446.444 738.536L484.588 716.503L484.918 716.305V674.13L518.917 693.784C518.854 694.003 518.818 694.229 518.811 694.458C518.811 695.159 519.089 695.831 519.585 696.327C520.08 696.822 520.752 697.101 521.452 697.101C522.152 697.101 522.824 696.822 523.319 696.327C523.814 695.831 524.093 695.159 524.093 694.458C524.079 693.882 523.878 693.327 523.521 692.876C523.164 692.425 522.669 692.103 522.112 691.96ZM113.469 329.817L149.303 309.107V350.528L113.469 371.226V329.817ZM37.788 500.857L1.90136 521.554V480.146L37.7352 459.448L37.788 500.857ZM74.9949 695.594V737.003L39.1611 757.714V718.42C39.7081 718.266 40.191 717.94 40.5383 717.49C40.8856 717.04 41.0786 716.49 41.0888 715.922C41.0849 715.69 41.0538 715.459 40.9964 715.234L74.9949 695.594ZM37.8408 718.42V757.714L2.02019 737.003V695.594L36.0055 715.234C35.948 715.459 35.917 715.69 35.9131 715.922C35.9233 716.49 36.1163 717.04 36.4636 717.49C36.8108 717.94 37.2938 718.266 37.8408 718.42ZM446.444 694.061L410.623 714.772V673.377L446.444 652.666V694.061ZM372.149 691.96C371.705 692.078 371.3 692.311 370.974 692.634L336.988 672.993L372.149 652.666V691.96ZM336.328 629.668V588.26L370.274 607.9C370.207 608.119 370.171 608.346 370.168 608.574C370.178 609.143 370.371 609.693 370.719 610.143C371.066 610.593 371.549 610.919 372.096 611.072V650.379L336.328 629.668ZM372.149 606.076C371.705 606.195 371.3 606.427 370.974 606.75L336.988 587.11L372.149 566.783V606.076ZM335.668 630.818L371.489 651.516L355.222 660.926L335.668 672.227L299.834 651.516L316.114 642.119L335.668 630.818ZM336.328 674.13L370.274 693.784C370.205 694.001 370.169 694.229 370.168 694.458C370.169 694.686 370.205 694.914 370.274 695.132L336.275 714.785L336.328 674.13ZM409.303 586.727L374.657 606.75C374.327 606.425 373.917 606.193 373.469 606.076V566.029L409.303 545.318V586.727ZM224.879 520.206V480.913L260.686 501.61V543.032L226.688 523.378C226.746 523.158 226.777 522.932 226.78 522.704C226.772 522.139 226.583 521.592 226.24 521.142C225.898 520.693 225.421 520.365 224.879 520.206ZM224.879 525.202C225.325 525.09 225.732 524.857 226.054 524.528L260.039 544.169L224.879 564.496V525.202ZM261.373 500.474L225.539 479.763L243.113 469.612L261.373 459.039L297.194 479.75L261.373 500.474ZM224.879 437.204L260.686 416.494V457.915L224.879 478.613V437.204ZM187.725 329.857L223.559 309.146V350.568L187.725 371.265V329.857ZM186.404 414.974L174.693 421.754L150.584 435.684V394.276L186.404 373.565V414.974ZM149.264 478.613L131.294 468.264L113.377 457.915V416.507L131.294 426.856L149.211 437.204L149.264 478.613ZM113.43 373.565L149.264 394.276V435.684L131.294 425.336L113.377 414.974L113.43 373.565ZM74.9553 391.395C74.5093 391.507 74.1028 391.741 73.7802 392.069L39.1347 372.032V330.624L74.9553 351.334V391.395ZM74.9553 265.451V306.86L39.1347 286.162V246.102C39.5783 245.983 39.9833 245.751 40.3098 245.428L74.9553 265.451ZM38.4746 287.299L74.2951 308.01L39.1347 328.337L38.4746 328.72L37.8144 328.337L2.64075 308.01L38.4746 287.299ZM1.98058 351.334L37.8144 330.624V372.032L1.98058 392.743V351.334ZM1.98058 395.029L37.8144 415.74V457.149L1.98058 436.451V395.029ZM38.4746 414.643L2.64075 393.893L18.9205 384.482L38.4746 373.182L73.1993 393.219C73.13 393.437 73.0944 393.664 73.0937 393.893C73.0944 394.122 73.13 394.349 73.1993 394.567L38.4746 414.643ZM76.2756 396.43C76.7239 396.314 77.1338 396.081 77.464 395.756L112.109 415.78V457.149L76.2756 436.451V396.43ZM76.2756 480.186L112.109 459.475V500.857L76.2756 521.554V480.186ZM39.1611 546.706C39.7146 546.551 40.2022 546.219 40.5501 545.761C40.898 545.303 41.0872 544.744 41.0888 544.169C41.084 543.941 41.0529 543.715 40.9964 543.495L74.9949 523.854V565.316L39.1611 586.013V546.706ZM74.9949 608.231L39.1611 628.942V587.493L74.9949 566.783V608.231ZM37.788 672.637L1.90136 693.308V651.886L37.7352 631.175L37.788 672.637ZM39.1083 630.475L74.9421 609.764V651.172L39.1083 671.883V630.475ZM113.377 587.533L148.022 567.51C148.353 567.835 148.762 568.067 149.211 568.184V608.231L113.377 628.942V587.533ZM112.057 631.215V671.844L76.236 651.133V609.724L112.03 630.409V631.188L112.057 631.215ZM149.184 521.594L113.351 500.897V459.435L131.294 469.797L149.211 480.146L149.184 521.594ZM150.505 478.653V437.204L170.97 425.375L186.325 416.507V455.801C185.799 455.966 185.338 456.292 185.007 456.733C184.675 457.174 184.49 457.707 184.477 458.259C184.478 458.488 184.513 458.715 184.582 458.933L150.505 478.653ZM187.646 500.897V460.797C188.094 460.68 188.504 460.448 188.834 460.122L223.479 480.146V520.206C223.033 520.319 222.627 520.552 222.304 520.88L187.646 500.897ZM187.646 544.591L222.397 524.528C222.719 524.857 223.126 525.09 223.572 525.202V565.316L222.912 565.699L187.738 586.013L187.646 544.591ZM187.646 630.501L223.479 609.79V651.199L187.646 671.91V630.501ZM223.479 608.257L187.646 628.968V587.493L223.479 566.783V608.257ZM150.439 693.374V653.591C150.988 653.44 151.474 653.115 151.824 652.665C152.174 652.215 152.369 651.663 152.38 651.093C152.38 651.014 152.38 650.934 152.38 650.855L186.299 631.241V672.663L150.439 693.374ZM223.413 736.302L187.593 715.605V674.117L223.493 694.841L223.413 736.302ZM260.686 670.482C260.238 670.599 259.828 670.831 259.498 671.156L224.853 651.133V609.724L260.686 630.435V670.482ZM224.853 608.191V566.783L260.686 587.493V628.902L224.853 608.191ZM261.347 586.344L225.513 565.646L261.333 544.935L262.007 545.318L297.167 565.646L261.347 586.344ZM335.642 544.935L371.462 565.646L336.302 585.96L335.642 586.344L334.981 585.96L299.808 565.646L335.642 544.935ZM299.174 608.931L335.008 588.234V629.642L299.174 650.353V608.931ZM297.854 736.989L262.007 757.727V716.305L297.827 695.607L297.854 736.989ZM299.174 694.048V652.666L335.008 673.377V714.785L299.174 694.048ZM336.988 715.988L370.974 696.334C371.296 696.663 371.703 696.896 372.149 697.008V736.302L336.988 715.988ZM373.469 692.012V652.666L409.303 673.377V714.785L375.304 695.132C375.367 694.912 375.403 694.686 375.41 694.458C375.399 693.887 375.204 693.336 374.854 692.886C374.504 692.435 374.019 692.111 373.469 691.96V692.012ZM410.623 757.766V716.305L446.444 695.607V737.003L410.623 757.766ZM483.598 715.591L447.764 736.302V694.841L483.598 674.13V715.591ZM484.918 672.663V631.188L520.792 651.899V691.96C520.343 692.076 519.934 692.309 519.603 692.634L484.918 672.663Z" fill="url(#paint0_linear_343_4)"/>
</g>
<g clip-path="url(#clip1_343_4)">
<path d="M916.888 68.0404V108.867L955.362 131.098V87.3899L991.196 66.6923V109.621L1029 87.7732L1065.49 108.92V148.928C1064.94 149.079 1064.46 149.404 1064.11 149.854C1063.76 150.304 1063.56 150.855 1063.55 151.426C1063.56 151.654 1063.6 151.88 1063.66 152.1L1028.67 172.322L1028.34 172.507V216.968L1066.15 195.121L1103.29 216.598L1140.45 195.121L1176.93 216.268V258.39L1139.13 280.237L1176.99 302.085V345.793L1215.11 323.747L1215.44 323.562V281.374L1249.44 301.027C1249.38 301.247 1249.34 301.473 1249.33 301.701C1249.35 302.272 1249.54 302.823 1249.89 303.273C1250.24 303.724 1250.73 304.048 1251.28 304.199V387.201L1214.45 408.481L1214.12 408.666V453.14L1252.25 431.095L1252.58 430.91V387.968L1289.06 366.821L1324.87 387.585L1288.71 408.481L1288.38 408.666V453.14L1326.52 431.095L1326.85 430.91V345.78L1360.85 365.433C1360.78 365.651 1360.74 365.878 1360.74 366.107C1360.75 366.678 1360.95 367.229 1361.3 367.679C1361.65 368.129 1362.14 368.454 1362.68 368.605V409.432L1399.17 430.579L1363.34 451.277L1362.68 450.893V451.66L1362.02 452.043L1362.68 452.427V495.368L1397.99 515.775C1397.93 515.995 1397.9 516.222 1397.9 516.449C1397.9 517.15 1398.18 517.823 1398.67 518.318C1399.17 518.814 1399.84 519.093 1400.54 519.093C1401.24 519.093 1401.91 518.814 1402.41 518.318C1402.9 517.823 1403.18 517.15 1403.18 516.449C1403.17 515.881 1402.98 515.331 1402.63 514.881C1402.28 514.431 1401.8 514.105 1401.25 513.951V473.891L1439.07 452.043L1401.91 430.579L1438.08 409.67L1438.41 409.485V366.504L1439.07 366.12L1438.41 365.737V322.782L1401.86 301.741L1438.04 280.832L1438.42 280.594V236.146L1400.22 258.125L1399.89 258.31V300.578V344.26L1365.25 364.283C1364.92 363.96 1364.51 363.728 1364.07 363.609V322.796L1327.51 301.741L1363.68 280.845L1364.01 280.66V237.705L1398.62 217.695C1398.86 217.94 1399.15 218.134 1399.46 218.266C1399.78 218.398 1400.12 218.464 1400.46 218.462C1401.16 218.462 1401.83 218.183 1402.33 217.687C1402.82 217.192 1403.1 216.519 1403.1 215.818C1403.09 215.25 1402.9 214.7 1402.55 214.25C1402.2 213.8 1401.72 213.474 1401.17 213.32V130.371L1438.05 109.052L1438.38 108.867V64.3925V22.1779L1401.24 0.713684V-0.0528564L1400.58 0.330383L1399.92 -0.0528564V0.713684L1363.09 21.9929L1362.76 22.1779V66.6923L1398.74 45.9154C1399.23 46.4005 1399.89 46.6756 1400.58 46.6819C1401.27 46.6756 1401.92 46.4005 1402.41 45.9154L1436.44 65.5688L1401.24 85.9096L1363.42 107.757L1325.62 85.9096V129.591L1288.83 150.844L1288.5 151.042V191.856C1287.95 192.009 1287.47 192.335 1287.12 192.785C1286.77 193.235 1286.58 193.785 1286.57 194.354C1286.57 195.055 1286.85 195.727 1287.34 196.223C1287.84 196.719 1288.51 196.997 1289.21 196.997C1289.91 196.997 1290.58 196.719 1291.08 196.223C1291.57 195.727 1291.85 195.055 1291.85 194.354C1291.84 194.126 1291.81 193.899 1291.74 193.68L1326.73 173.458L1327.06 173.273V131.111L1362.86 151.796V236.978L1326.19 258.007L1288.38 236.159V279.854L1253.73 299.878C1253.4 299.554 1253 299.322 1252.56 299.203V258.377L1217.24 237.97C1217.3 237.75 1217.33 237.523 1217.33 237.296C1217.33 237.068 1217.3 236.842 1217.24 236.622L1252.25 216.4L1252.58 216.202V130.384L1287.02 110.467C1287.26 110.802 1287.58 111.076 1287.94 111.267C1288.31 111.457 1288.72 111.559 1289.13 111.564C1289.83 111.564 1290.5 111.285 1291 110.789C1291.49 110.294 1291.77 109.621 1291.77 108.92C1291.76 108.352 1291.57 107.802 1291.22 107.352C1290.87 106.902 1290.39 106.576 1289.84 106.422V64.3529L1252.69 85.8303V43.6553L1214.23 21.4113V65.939L1250.67 87.0067L1214.82 107.717L1180.12 87.6278C1180.19 87.4093 1180.23 87.1823 1180.23 86.9538C1180.23 86.2527 1179.95 85.5804 1179.45 85.0846C1178.96 84.5889 1178.29 84.3104 1177.59 84.3104C1176.89 84.3104 1176.22 84.5889 1175.72 85.0846C1175.22 85.5804 1174.95 86.2527 1174.95 86.9538C1174.96 87.5223 1175.15 88.0724 1175.5 88.5224C1175.84 88.9724 1176.33 89.2983 1176.87 89.4517V172.507L1140.39 193.654L1104.56 172.943L1140.82 151.994L1141.15 151.796V108.867L1141.81 108.484L1141.15 108.101V65.9257L1177.96 44.6465L1178.29 44.4483V-0.0132446L1140.16 22.0325L1139.83 22.2175V64.3925L1103.99 43.6817V42.9283L1103.33 43.3117L1065.53 21.4509V63.0445C1065.08 63.1567 1064.67 63.3898 1064.34 63.7185L1029.7 43.6949V-6.10352e-05L992.556 21.4641L954.412 43.4967L954.082 43.6949V85.87L920.083 66.2165C920.146 65.997 920.182 65.7706 920.189 65.5424C920.189 64.8413 919.911 64.169 919.415 63.6733C918.92 63.1776 918.248 62.899 917.548 62.899C916.848 62.899 916.176 63.1776 915.681 63.6733C915.186 64.169 914.907 64.8413 914.907 65.5424C914.921 66.1179 915.122 66.6732 915.479 67.1241C915.836 67.5749 916.331 67.8966 916.888 68.0404ZM1325.53 430.183L1289.7 450.893V409.472L1325.53 388.774V430.183ZM1401.21 259.143L1437.1 238.446V279.854L1401.26 300.552L1401.21 259.143ZM1364.01 64.4058V22.9973L1399.84 2.28644V41.5803C1399.29 41.7337 1398.81 42.0596 1398.46 42.5096C1398.11 42.9596 1397.92 43.5097 1397.91 44.0782C1397.92 44.3102 1397.95 44.5408 1398 44.7655L1364.01 64.4058ZM1401.16 41.5803V2.28644L1436.98 22.9973V64.4058L1402.99 44.7655C1403.05 44.5408 1403.08 44.3102 1403.09 44.0782C1403.08 43.5097 1402.88 42.9596 1402.54 42.5096C1402.19 42.0596 1401.71 41.7337 1401.16 41.5803ZM992.556 65.939L1028.38 45.2281V86.6234L992.556 107.334V65.939ZM1066.85 68.0404C1067.29 67.9218 1067.7 67.6895 1068.03 67.3664L1102.01 87.0067L1066.85 107.334V68.0404ZM1102.67 130.332V171.74L1068.73 152.1C1068.79 151.881 1068.83 151.654 1068.83 151.426C1068.82 150.857 1068.63 150.307 1068.28 149.857C1067.93 149.407 1067.45 149.081 1066.9 148.928V109.621L1102.67 130.332ZM1066.85 153.924C1067.29 153.805 1067.7 153.573 1068.03 153.25L1102.01 172.89L1066.85 193.217V153.924ZM1103.33 129.182L1067.51 108.484L1083.78 99.0736L1103.33 87.7732L1139.17 108.484L1122.89 117.881L1103.33 129.182ZM1102.67 85.87L1068.73 66.2165C1068.8 65.9985 1068.83 65.7712 1068.83 65.5424C1068.83 65.3137 1068.8 65.0864 1068.73 64.8684L1102.72 45.2149L1102.67 85.87ZM1029.7 173.273L1064.34 153.25C1064.67 153.575 1065.08 153.807 1065.53 153.924V193.971L1029.7 214.682V173.273ZM1214.12 239.794V279.087L1178.31 258.39V216.968L1212.31 236.622C1212.25 236.842 1212.22 237.068 1212.22 237.296C1212.23 237.861 1212.42 238.408 1212.76 238.858C1213.1 239.307 1213.58 239.635 1214.12 239.794ZM1214.12 234.798C1213.67 234.91 1213.27 235.143 1212.95 235.472L1178.96 215.831L1214.12 195.504V234.798ZM1177.63 259.526L1213.46 280.237L1195.89 290.388L1177.63 300.961L1141.81 280.25L1177.63 259.526ZM1214.12 322.796L1178.31 343.506V302.085L1214.12 281.387V322.796ZM1251.28 430.143L1215.44 450.854V409.432L1251.28 388.735V430.143ZM1252.6 345.026L1264.31 338.246L1288.42 324.316V365.724L1252.6 386.435V345.026ZM1289.74 281.387L1307.71 291.736L1325.62 302.085V343.493L1307.71 333.144L1289.79 322.796L1289.74 281.387ZM1325.57 386.435L1289.74 365.724V324.316L1307.71 334.664L1325.62 345.026L1325.57 386.435ZM1364.04 368.605C1364.49 368.493 1364.9 368.259 1365.22 367.931L1399.87 387.968V429.376L1364.04 408.666V368.605ZM1364.04 494.549V453.14L1399.87 473.838V513.898C1399.42 514.017 1399.02 514.249 1398.69 514.572L1364.04 494.549ZM1400.53 472.701L1364.7 451.99L1399.87 431.663L1400.53 431.28L1401.19 431.663L1436.36 451.99L1400.53 472.701ZM1437.02 408.666L1401.19 429.376V387.968L1437.02 367.257V408.666ZM1437.02 364.971L1401.19 344.26V302.851L1437.02 323.549V364.971ZM1400.53 345.357L1436.36 366.107L1420.08 375.518L1400.53 386.818L1365.8 366.781C1365.87 366.563 1365.91 366.336 1365.91 366.107C1365.91 365.878 1365.87 365.651 1365.8 365.433L1400.53 345.357ZM1362.72 363.57C1362.28 363.686 1361.87 363.919 1361.54 364.244L1326.89 344.22V302.851L1362.72 323.549V363.57ZM1362.72 279.814L1326.89 300.525V259.143L1362.72 238.446V279.814ZM1399.84 213.294C1399.29 213.449 1398.8 213.781 1398.45 214.239C1398.1 214.697 1397.91 215.256 1397.91 215.831C1397.92 216.059 1397.95 216.285 1398 216.505L1364.01 236.146V194.684L1399.84 173.987V213.294ZM1364.01 151.769L1399.84 131.058V172.507L1364.01 193.217V151.769ZM1401.21 87.3635L1437.1 66.6923V108.114L1401.26 128.825L1401.21 87.3635ZM1399.89 129.525L1364.06 150.236V108.828L1399.89 88.1168V129.525ZM1325.62 172.467L1290.98 192.49C1290.65 192.165 1290.24 191.933 1289.79 191.816V151.769L1325.62 131.058V172.467ZM1326.94 128.785V88.1565L1362.76 108.867V150.276L1326.97 129.591V128.812L1326.94 128.785ZM1289.82 238.406L1325.65 259.103V300.565L1307.71 290.203L1289.79 279.854L1289.82 238.406ZM1288.5 281.347V322.796L1268.03 334.625L1252.67 343.493V304.199C1253.2 304.034 1253.66 303.708 1253.99 303.267C1254.32 302.826 1254.51 302.293 1254.52 301.741C1254.52 301.512 1254.49 301.285 1254.42 301.067L1288.5 281.347ZM1251.35 259.103V299.203C1250.91 299.32 1250.5 299.552 1250.17 299.878L1215.52 279.854V239.794C1215.97 239.681 1216.37 239.448 1216.7 239.12L1251.35 259.103ZM1251.35 215.409L1216.6 235.472C1216.28 235.143 1215.87 234.91 1215.43 234.798V194.684L1216.09 194.301L1251.26 173.987L1251.35 215.409ZM1251.35 129.499L1215.52 150.21V108.801L1251.35 88.0904V129.499ZM1215.52 151.743L1251.35 131.032V172.507L1215.52 193.217V151.743ZM1288.56 66.6262V106.409C1288.01 106.56 1287.53 106.885 1287.18 107.335C1286.83 107.785 1286.63 108.337 1286.62 108.907C1286.62 108.986 1286.62 109.066 1286.62 109.145L1252.7 128.759V87.3371L1288.56 66.6262ZM1215.59 23.6978L1251.41 44.3954V85.8831L1215.51 65.1591L1215.59 23.6978ZM1178.31 89.5178C1178.76 89.4013 1179.17 89.1689 1179.5 88.8438L1214.15 108.867V150.276L1178.31 129.565V89.5178ZM1214.15 151.809V193.217L1178.31 172.507V131.098L1214.15 151.809ZM1177.65 173.656L1213.49 194.354L1177.67 215.065L1176.99 214.682L1141.83 194.354L1177.65 173.656ZM1103.36 215.065L1067.54 194.354L1102.7 174.04L1103.36 173.656L1104.02 174.04L1139.19 194.354L1103.36 215.065ZM1139.83 151.069L1103.99 171.766V130.358L1139.83 109.647V151.069ZM1141.15 23.0105L1176.99 2.27325V43.6949L1141.17 64.3925L1141.15 23.0105ZM1139.83 65.9522V107.334L1103.99 86.6234V45.2149L1139.83 65.9522ZM1102.01 44.0121L1068.03 63.6656C1067.7 63.3373 1067.3 63.1042 1066.85 62.9916V23.6978L1102.01 44.0121ZM1065.53 67.9875V107.334L1029.7 86.6234V45.2149L1063.7 64.8684C1063.63 65.0878 1063.6 65.3142 1063.59 65.5424C1063.6 66.1127 1063.8 66.6641 1064.15 67.1143C1064.5 67.5645 1064.98 67.8893 1065.53 68.0404V67.9875ZM1028.38 2.23364V43.6949L992.556 64.3925V22.9973L1028.38 2.23364ZM955.402 44.4087L991.236 23.6978V65.1591L955.402 85.87V44.4087ZM954.082 87.3371V128.812L918.208 108.101V68.0404C918.657 67.9239 919.066 67.6915 919.397 67.3664L954.082 87.3371Z" fill="url(#paint1_linear_343_4)"/>
</g>
<defs>
<linearGradient id="paint0_linear_343_4" x1="61.6464" y1="784.385" x2="345.144" y2="375.675" gradientUnits="userSpaceOnUse">
<stop stop-color="#C8CACC"/>
<stop offset="0.14" stop-color="#D5D6D7"/>
<stop offset="0.38" stop-color="#E4E6E6"/>
<stop offset="0.57" stop-color="#EAEBEB"/>
<stop offset="0.75" stop-color="#EEEFEF"/>
<stop offset="0.93" stop-color="#FAFBFB"/>
<stop offset="0.98" stop-color="white"/>
</linearGradient>
<linearGradient id="paint1_linear_343_4" x1="1377.35" y1="-24.3851" x2="1093.86" y2="384.325" gradientUnits="userSpaceOnUse">
<stop stop-color="#C8CACC"/>
<stop offset="0.14" stop-color="#D5D6D7"/>
<stop offset="0.38" stop-color="#E4E6E6"/>
<stop offset="0.57" stop-color="#EAEBEB"/>
<stop offset="0.75" stop-color="#EEEFEF"/>
<stop offset="0.93" stop-color="#FAFBFB"/>
<stop offset="0.98" stop-color="white"/>
</linearGradient>
<clipPath id="clip0_343_4">
<rect width="524" height="519" fill="white" transform="translate(0 241)"/>
</clipPath>
<clipPath id="clip1_343_4">
<rect width="524" height="519" fill="white" transform="translate(1439 519) rotate(-180)"/>
</clipPath>
</defs>
</svg>
