<svg width="27" height="21" viewBox="0 0 27 21" fill="none" xmlns="http://www.w3.org/2000/svg">
<path d="M10.911 0V7.08974C10.911 10.0812 10.5719 12.6838 9.89384 14.8974C9.21576 17.1111 8.16781 19.1453 6.75 21H0C1.5411 19.0855 2.74315 17.1111 3.60617 15.0769C4.46918 13.1026 4.90069 11.2479 4.90069 9.51282H0.0924664V0H10.911ZM27 0V7.08974C27 10.0214 26.6918 12.594 26.0753 14.8077C25.3973 17.0812 24.3493 19.1453 22.9315 21H16.089C17.6301 19.0855 18.8322 17.1111 19.6952 15.0769C20.5582 13.1026 20.9897 11.2479 20.9897 9.51282H16.1815V0H27Z" fill="#F10207"/>
</svg>
