<svg width="27" height="21" viewBox="0 0 27 21" fill="none" xmlns="http://www.w3.org/2000/svg">
<path d="M16.089 21V13.9103C16.089 10.9188 16.4281 8.31624 17.1062 6.10256C17.7842 3.88889 18.8322 1.8547 20.25 0H27C25.4589 1.91453 24.2568 3.88889 23.3938 5.92308C22.5308 7.89744 22.0993 9.75214 22.0993 11.4872H26.9075V21H16.089ZM0 21V13.9103C0 10.9786 0.308219 8.40598 0.924658 6.19231C1.60274 3.9188 2.65068 1.8547 4.06849 0H10.911C9.36986 1.91453 8.16781 3.88889 7.30479 5.92308C6.44178 7.89744 6.01027 9.75214 6.01027 11.4872H10.8185V21H0Z" fill="#FFD12E"/>
</svg>
