<svg width="1440" height="663" viewBox="0 0 1440 663" fill="none" xmlns="http://www.w3.org/2000/svg">
<g clip-path="url(#clip0_343_3)">
<path d="M1439.68 342.03L1411.55 325.79L1438.91 309.93L1439.16 309.79V277.3L1439.66 277.01L1439.16 276.72V244.24L1411.54 228.24L1438.94 212.42L1439.19 212.28V178.68L1410.3 195.36L1410.05 195.5V227.43V260.5L1383.81 275.63C1383.56 275.384 1383.25 275.208 1382.91 275.12V211.75L1354.78 195.51V163.03L1328.03 147.59C1328.07 147.42 1328.1 147.246 1328.1 147.07C1328.1 146.898 1328.07 146.727 1328.03 146.56L1354.53 131.26L1354.78 131.12V99.21L1381.91 114.86V180.42L1409.15 164.69C1409.36 164.931 1409.62 165.119 1409.92 165.238C1410.21 165.357 1410.53 165.403 1410.85 165.374C1411.17 165.344 1411.47 165.239 1411.74 165.067C1412.01 164.896 1412.23 164.663 1412.39 164.387C1412.55 164.112 1412.64 163.802 1412.66 163.484C1412.68 163.166 1412.62 162.848 1412.49 162.558C1412.35 162.268 1412.16 162.013 1411.91 161.815C1411.66 161.617 1411.36 161.482 1411.05 161.42V98.66L1438.98 82.53L1439.23 82.39V48.74L1411.03 65.03L1382.39 81.56L1353.75 65.03V98.03L1325.91 114.14L1325.66 114.29V145.17C1325.27 145.306 1324.93 145.561 1324.68 145.9C1324.44 146.239 1324.31 146.644 1324.31 147.06C1324.31 147.476 1324.44 147.881 1324.68 148.22C1324.93 148.559 1325.27 148.814 1325.66 148.95V179.84L1353.8 196.09V228.03L1326.66 243.69V211.75L1298.52 195.5V194.93L1298.02 195.21L1297.52 194.93V195.5L1269.64 211.6L1269.39 211.75V245.39L1296.63 229.66C1296.81 229.847 1297.03 229.996 1297.27 230.098C1297.51 230.199 1297.76 230.252 1298.02 230.252C1298.29 230.252 1298.54 230.199 1298.78 230.098C1299.02 229.996 1299.24 229.847 1299.42 229.66L1325.66 244.81V310.37L1354.3 293.84L1381.91 309.79L1409.55 325.79L1382.41 341.45L1381.91 341.16V341.74L1381.41 342.03L1381.91 342.32V374.81L1410.05 391.03V421.34C1409.68 421.427 1409.35 421.617 1409.08 421.887C1408.82 422.157 1408.63 422.497 1408.56 422.867C1408.48 423.236 1408.5 423.621 1408.63 423.976C1408.76 424.331 1408.99 424.642 1409.29 424.872C1409.59 425.103 1409.95 425.243 1410.33 425.278C1410.7 425.312 1411.08 425.24 1411.42 425.068C1411.76 424.896 1412.04 424.632 1412.23 424.307C1412.42 423.981 1412.52 423.608 1412.51 423.23C1412.51 423.058 1412.48 422.887 1412.44 422.72L1438.93 407.42L1439.18 407.28V373.61L1411.05 389.86V358.52L1439.68 342.03ZM1411.07 196.08L1438.21 180.42V211.75L1411.07 227.41V196.08ZM1438.18 309.21L1411.05 324.88V293.55L1438.18 277.88V309.21ZM1438.18 276.15L1411.05 260.48V229.15L1438.18 244.81V276.15ZM1410.55 261.35L1437.68 277.03L1425.36 284.15L1410.55 292.7L1384.3 277.54C1384.4 277.215 1384.4 276.866 1384.3 276.54L1410.55 261.35ZM1381.91 244.82V275.12C1381.57 275.21 1381.27 275.386 1381.02 275.63L1368.34 268.32L1354.78 260.48V229.15L1368.34 236.98L1381.91 244.82ZM1382.91 114.87L1410.05 99.2V130.53L1382.91 146.2V114.87ZM1382.91 178.68V147.35L1410.05 131.69V161.42C1409.63 161.534 1409.27 161.78 1409 162.121C1408.74 162.461 1408.59 162.879 1408.58 163.31C1408.59 163.483 1408.61 163.654 1408.66 163.82L1382.91 178.68ZM1411.09 66.14L1438.23 50.47V81.81L1411.07 97.48L1411.09 66.14ZM1410.09 98.04L1382.91 113.71V82.38L1410.05 66.71L1410.09 98.04ZM1354.81 66.71L1381.91 82.38V113.71L1354.78 98.03V97.44L1354.81 66.71ZM1353.81 99.2V130.53L1327.56 145.68C1327.31 145.436 1327.01 145.26 1326.67 145.17V114.87L1353.81 99.2ZM1326.67 179.27V148.95C1327 148.863 1327.31 148.691 1327.56 148.45L1353.81 163.6V194.93L1326.67 179.27ZM1381.91 212.33V243.66L1368.34 235.83L1354.78 228.03V196.66L1381.91 212.33ZM1270.37 243.66V212.33L1297.5 196.66V226.39C1297.09 226.506 1296.72 226.753 1296.46 227.093C1296.19 227.434 1296.05 227.85 1296.04 228.28C1296.04 228.453 1296.07 228.625 1296.12 228.79L1270.37 243.66ZM1298.5 226.39V196.66L1325.64 212.33V243.66L1299.91 228.79C1299.96 228.625 1299.99 228.453 1299.99 228.28C1299.98 227.846 1299.83 227.427 1299.56 227.086C1299.29 226.745 1298.92 226.501 1298.5 226.39ZM1326.64 244.82L1353.78 229.15V260.48L1326.64 276.15V244.82ZM1326.64 277.3L1353.78 261.64V292.97L1326.64 308.64V277.3ZM1354.78 292.97V261.64L1368.34 269.47L1380.53 276.47C1380.48 276.635 1380.45 276.807 1380.45 276.98C1380.46 277.41 1380.6 277.826 1380.87 278.167C1381.13 278.507 1381.5 278.754 1381.91 278.87V308.63L1354.78 292.97ZM1382.91 278.9C1383.25 278.815 1383.56 278.639 1383.81 278.39L1410.05 293.55V324.88L1382.91 309.21V278.9ZM1410.05 326.61L1410.55 326.32L1411.05 326.61L1437.68 342.03L1410.55 357.7L1383.41 342.03L1410.05 326.61ZM1382.91 342.86L1410.05 358.52V389.86L1382.91 374.19V342.86ZM1438.18 375.34V406.68L1411.91 421.83C1411.66 421.586 1411.36 421.41 1411.02 421.32V391.03L1438.18 375.34ZM1271.83 179.55C1271.83 179.378 1271.8 179.207 1271.76 179.04L1298.25 163.74L1298.5 163.6V98.66L1324.59 83.6C1324.77 83.8521 1325.01 84.0576 1325.29 84.2C1325.57 84.3423 1325.88 84.4177 1326.19 84.42C1326.72 84.42 1327.23 84.2093 1327.6 83.8342C1327.98 83.4592 1328.19 82.9505 1328.19 82.42C1328.18 81.9886 1328.03 81.5714 1327.77 81.2307C1327.5 80.8901 1327.14 80.6443 1326.72 80.53V48.74L1298.55 65.03V33.08L1269.41 16.25V49.9L1297.02 65.84L1269.91 81.51L1243.66 66.36C1243.71 66.1936 1243.73 66.0225 1243.74 65.85C1243.74 65.3196 1243.53 64.8109 1243.15 64.4358C1242.78 64.0607 1242.27 63.85 1241.74 63.85C1241.21 63.85 1240.7 64.0607 1240.33 64.4358C1239.95 64.8109 1239.74 65.3196 1239.74 65.85C1239.75 66.2802 1239.89 66.6964 1240.16 67.0369C1240.42 67.3774 1240.79 67.6239 1241.2 67.74V97.47V130.53L1213.57 146.53L1186.43 130.86L1213.85 115.03L1214.1 114.88V82.38L1214.6 82.09L1214.1 81.8V49.89L1241.98 33.79L1242.23 33.64V0.0300293L1213.35 16.71L1213.1 16.85V48.73L1185.96 33.03V32.45L1185.46 32.74L1156.83 16.2V47.67C1156.49 47.7525 1156.18 47.9292 1155.93 48.18L1129.69 33.03V0.0300293L1101.55 16.26L1072.67 32.92L1072.42 33.07V65.03L1045.28 49.31V48.73L1044.78 49.02L1044.28 48.73V49.31L1016.65 65.31L988.01 48.73V81.8L960.91 97.46V65.55L931.74 48.73L903.6 32.49V65.55L877.36 80.7C876.987 80.3305 876.485 80.1222 875.96 80.12C875.43 80.12 874.921 80.3307 874.546 80.7058C874.171 81.0809 873.96 81.5896 873.96 82.12C873.96 82.6505 874.171 83.1592 874.546 83.5342C874.921 83.9093 875.43 84.12 875.96 84.12C876.485 84.1178 876.987 83.9095 877.36 83.54L903.6 98.62V131.69L932.49 115.03L932.74 114.88V82.95L959.91 98.62V131.68L987.16 115.95C987.404 116.198 987.712 116.375 988.05 116.46V147.35L1017.19 164.17V131.68L1045.28 147.93V114.28L1017.65 98.33L1044.78 82.66L1073.42 99.2V66.13L1100.55 50.47V114.29L1072.67 130.39L1072.42 130.53V164.18L1099.66 148.45C1099.87 148.692 1100.13 148.88 1100.43 149C1100.72 149.119 1101.04 149.166 1101.36 149.136C1101.68 149.106 1101.99 149.001 1102.25 148.828C1102.52 148.656 1102.75 148.422 1102.91 148.145C1103.07 147.869 1103.16 147.558 1103.17 147.24C1103.19 146.921 1103.13 146.603 1102.99 146.312C1102.86 146.022 1102.66 145.768 1102.41 145.571C1102.16 145.374 1101.86 145.24 1101.55 145.18V114.87L1129.44 98.76L1129.69 98.62V66.71L1156.83 82.38V112.69C1156.41 112.804 1156.05 113.05 1155.78 113.391C1155.52 113.731 1155.37 114.149 1155.36 114.58C1155.36 114.753 1155.39 114.925 1155.44 115.09L1128.91 130.39L1128.66 130.53V164.17L1157.29 147.64L1185.43 163.89L1213.57 147.64L1241.7 163.89L1269.34 147.89V177.66C1268.97 177.747 1268.64 177.937 1268.37 178.207C1268.11 178.477 1267.92 178.817 1267.85 179.187C1267.77 179.557 1267.79 179.941 1267.92 180.296C1268.05 180.651 1268.28 180.962 1268.58 181.192C1268.88 181.423 1269.24 181.563 1269.62 181.598C1269.99 181.632 1270.37 181.56 1270.71 181.388C1271.05 181.216 1271.33 180.952 1271.52 180.627C1271.71 180.301 1271.81 179.928 1271.8 179.55H1271.83ZM1297.5 163.03L1271.26 178.18C1271.02 177.932 1270.71 177.755 1270.37 177.67V147.35L1270.87 147.06L1297.5 131.69V163.03ZM1242.23 99.2L1269.37 114.86V146.2L1242.23 130.53V99.2ZM1270.37 114.87L1297.5 99.2V130.53L1270.37 146.2V114.87ZM1297.5 98.03L1270.37 113.71V82.38L1297.5 66.71V98.03ZM1325.68 50.46V80.56C1325.27 80.6761 1324.9 80.9227 1324.64 81.2632C1324.37 81.6037 1324.23 82.0199 1324.22 82.45C1324.22 82.5099 1324.22 82.5701 1324.22 82.63L1298.55 97.48V66.14L1325.68 50.46ZM1270.41 18.03L1297.55 33.69V65.03L1270.41 49.32V18.03ZM1242.23 67.78C1242.57 67.6919 1242.88 67.516 1243.13 67.27L1269.37 82.42V113.71L1242.23 98.03V67.78ZM1185.46 97.78L1158.33 82.12L1170.65 75L1185.46 66.45L1212.6 82.12L1200.27 89.23L1185.46 97.78ZM1157.83 51.52C1158.17 51.4303 1158.47 51.2545 1158.72 51.01L1184.46 65.87L1157.83 81.25V51.52ZM1184.96 65.03L1159.21 50.11C1159.26 49.9451 1159.29 49.7731 1159.29 49.6C1159.29 49.4269 1159.26 49.255 1159.21 49.09L1184.96 34.22V65.03ZM1184.96 98.67V129.95L1159.21 115.09C1159.26 114.925 1159.29 114.753 1159.29 114.58C1159.28 114.15 1159.14 113.734 1158.87 113.393C1158.61 113.053 1158.24 112.806 1157.83 112.69V82.95L1184.96 98.67ZM1157.83 116.52C1158.17 116.43 1158.47 116.255 1158.72 116.01L1184.46 130.87L1157.83 146.25V116.52ZM1213.1 114.34L1185.96 130V98.62L1213.1 82.95V114.34ZM1214.1 17.45L1241.23 1.78003V33.03L1214.1 48.73V17.45ZM1213.1 49.94V81.27L1185.96 65.6V34.22L1213.1 49.94ZM1184.46 33.4L1158.72 48.27C1158.48 48.0216 1158.17 47.8452 1157.83 47.76V18.03L1184.46 33.4ZM1128.69 1.79003V33.03L1101.55 48.73V17.41L1128.69 1.79003ZM1044.28 50.47V81.8L1017.15 97.46V66.13L1044.28 50.47ZM989.01 50.47L1016.15 66.13V97.46L1002.58 89.63L989.01 81.8V50.47ZM1016.15 129.95L1002.58 122.12L990.4 115.12C990.444 114.954 990.468 114.782 990.47 114.61C990.462 114.18 990.316 113.764 990.053 113.423C989.79 113.083 989.424 112.836 989.01 112.72V82.95L1002.58 90.78L1016.15 98.62V129.95ZM959.91 97.46L932.74 81.8V50.46L959.91 66.13V97.46ZM904.6 34.22L931.74 49.89V81.22L904.6 65.55V34.22ZM877.85 81.57L904.1 66.42L931.24 82.09L918.91 89.2L904.1 97.75L877.85 82.6C877.901 82.4347 877.928 82.263 877.93 82.09C877.929 81.9137 877.902 81.7386 877.85 81.57ZM931.74 114.28L904.6 129.95V98.62L931.74 82.95V114.28ZM960.91 129.95V98.62L988.01 82.95V112.68C987.596 112.796 987.23 113.043 986.967 113.383C986.704 113.724 986.558 114.14 986.55 114.57C986.552 114.742 986.576 114.914 986.62 115.08L960.91 129.95ZM1016.19 162.44L989.01 146.77V116.46C989.348 116.375 989.656 116.198 989.9 115.95L1002.58 123.27L1016.15 131.1L1016.19 162.44ZM1044.32 146.19L1017.15 130.53V99.2L1044.28 114.86L1044.32 146.19ZM1072.42 97.47L1045.28 81.8V50.47L1072.42 66.13V97.47ZM1073.42 64.98V33.65L1100.55 18.03V49.36L1073.42 64.98ZM1128.69 34.23V65.55L1101.55 81.22V49.9L1128.69 34.23ZM1073.42 162.45V131.11L1100.55 115.45V145.18C1100.14 145.294 1099.78 145.535 1099.52 145.867C1099.26 146.2 1099.11 146.607 1099.09 147.03C1099.09 147.203 1099.12 147.375 1099.17 147.54L1073.42 162.45ZM1128.69 98.03L1101.55 113.71V82.38L1128.69 66.71V98.03ZM1129.69 34.21L1155.44 49.08C1155.39 49.245 1155.36 49.417 1155.36 49.59C1155.37 50.0215 1155.52 50.4387 1155.78 50.7793C1156.05 51.1199 1156.41 51.3658 1156.83 51.48V81.21L1129.69 65.55V34.21ZM1129.69 131.1L1155.91 115.96C1156.16 116.206 1156.47 116.382 1156.81 116.47V146.77L1129.69 162.44V131.1ZM1185.46 162.72L1158.33 147.03L1184.96 131.66L1185.46 131.37L1185.96 131.66L1212.6 147.03L1185.46 162.72ZM1214.6 147.03L1241.73 131.37L1268.91 147.03L1241.73 162.73L1214.6 147.03Z" fill="url(#paint0_linear_343_3)"/>
</g>
<g clip-path="url(#clip1_343_3)">
<path d="M0.000183105 320.14L28.1302 336.38L0.770203 352.24L0.520203 352.38V384.87L0.0202026 385.16L0.520203 385.45V417.93L28.1402 433.93L0.740173 449.75L0.490173 449.89V483.49L29.3802 466.81L29.6302 466.67V434.74V401.67L55.8702 386.54C56.1203 386.786 56.4307 386.962 56.7702 387.05V450.42L84.9002 466.66V499.14L111.65 514.58C111.607 514.75 111.583 514.924 111.58 515.1C111.583 515.272 111.607 515.443 111.65 515.61L85.1502 530.91L84.9002 531.05V562.96L57.7702 547.31V481.75L30.5302 497.48C30.3219 497.239 30.059 497.051 29.7634 496.932C29.4678 496.813 29.1482 496.767 28.831 496.796C28.5138 496.826 28.2082 496.931 27.9398 497.103C27.6713 497.274 27.4478 497.507 27.2878 497.783C27.1277 498.058 27.0358 498.368 27.0196 498.686C27.0034 499.004 27.0635 499.322 27.1949 499.612C27.3262 499.902 27.5249 500.157 27.7746 500.355C28.0243 500.553 28.3176 500.688 28.6302 500.75V563.51L0.700256 579.64L0.450256 579.78V613.43L28.6502 597.14L57.2902 580.61L85.9302 597.14V564.14L113.77 548.03L114.02 547.88V517C114.413 516.864 114.754 516.609 114.995 516.27C115.236 515.931 115.366 515.526 115.366 515.11C115.366 514.694 115.236 514.289 114.995 513.95C114.754 513.611 114.413 513.356 114.02 513.22V482.33L85.8802 466.08V434.14L113.02 418.48V450.42L141.16 466.67V467.24L141.66 466.96L142.16 467.24V466.67L170.04 450.57L170.29 450.42V416.78L143.05 432.51C142.869 432.323 142.653 432.174 142.413 432.072C142.173 431.97 141.916 431.918 141.655 431.918C141.395 431.918 141.137 431.97 140.898 432.072C140.658 432.174 140.441 432.323 140.26 432.51L114.02 417.36V351.8L85.3802 368.33L57.7702 352.38L30.1302 336.38L57.2702 320.72L57.7702 321.01V320.43L58.2702 320.14L57.7702 319.85V287.36L29.6302 271.14V240.83C29.9982 240.743 30.334 240.553 30.5986 240.283C30.8632 240.013 31.0456 239.673 31.1249 239.303C31.2043 238.933 31.1771 238.549 31.0467 238.194C30.9163 237.839 30.6877 237.528 30.3879 237.298C30.088 237.067 29.7289 236.927 29.3524 236.892C28.9758 236.857 28.5972 236.93 28.2603 237.102C27.9235 237.274 27.6422 237.538 27.4493 237.863C27.2563 238.189 27.1596 238.562 27.1702 238.94C27.1725 239.112 27.1959 239.283 27.2402 239.45L0.750183 254.75L0.500183 254.89V288.56L28.6302 272.31V303.65L0.000183105 320.14ZM28.6102 466.09L1.47015 481.75V450.42L28.6102 434.76V466.09ZM1.50018 352.96L28.6302 337.29V368.62L1.50018 384.29V352.96ZM1.50018 386.02L28.6302 401.69V433.02L1.50018 417.36V386.02ZM29.1302 400.82L2.00018 385.14L14.3203 378.02L29.1302 369.47L55.3802 384.63C55.278 384.955 55.278 385.304 55.3802 385.63L29.1302 400.82ZM57.7702 417.35V387.05C58.1062 386.96 58.4129 386.784 58.6602 386.54L71.3401 393.85L84.9002 401.69V433.02L71.3401 425.19L57.7702 417.35ZM56.7702 547.3L29.6302 562.97V531.64L56.7702 515.97V547.3ZM56.7702 483.49V514.82L29.6302 530.48V500.75C30.0463 500.636 30.4143 500.39 30.6793 500.049C30.9442 499.709 31.0919 499.291 31.1002 498.86C31.0931 498.687 31.0663 498.516 31.0202 498.35L56.7702 483.49ZM28.5901 596.03L1.45026 611.7V580.36L28.6102 564.69L28.5901 596.03ZM29.5901 564.13L56.7702 548.46V579.79L29.6302 595.46L29.5901 564.13ZM84.8702 595.46L57.7702 579.79V548.46L84.9002 564.14V564.73L84.8702 595.46ZM85.8702 562.97V531.64L112.12 516.49C112.367 516.734 112.674 516.91 113.01 517V547.3L85.8702 562.97ZM113.01 482.9V513.22C112.675 513.307 112.369 513.479 112.12 513.72L85.8702 498.57V467.24L113.01 482.9ZM57.7702 449.84V418.51L71.3401 426.34L84.9002 434.14V465.51L57.7702 449.84ZM169.31 418.51V449.84L142.18 465.51V435.78C142.595 435.664 142.96 435.417 143.223 435.077C143.486 434.736 143.633 434.32 143.64 433.89C143.64 433.717 143.613 433.545 143.56 433.38L169.31 418.51ZM141.18 435.78V465.51L114.04 449.84V418.51L139.77 433.38C139.718 433.545 139.691 433.717 139.69 433.89C139.7 434.324 139.85 434.743 140.119 435.084C140.388 435.425 140.76 435.669 141.18 435.78ZM113.04 417.35L85.9002 433.02V401.69L113.04 386.02V417.35ZM113.04 384.87L85.9002 400.53V369.2L113.04 353.53V384.87ZM84.9002 369.2V400.53L71.3401 392.7L59.1502 385.7C59.2019 385.535 59.2289 385.363 59.2302 385.19C59.2225 384.76 59.0763 384.344 58.8133 384.003C58.5503 383.663 58.1845 383.416 57.7702 383.3V353.54L84.9002 369.2ZM56.7702 383.27C56.4294 383.355 56.1182 383.531 55.8702 383.78L29.6302 368.62V337.29L56.7702 352.96V383.27ZM29.6302 335.56L29.1302 335.85L28.6302 335.56L2.00018 320.14L29.1302 304.47L56.2702 320.14L29.6302 335.56ZM56.7702 319.31L29.6302 303.65V272.31L56.7702 287.98V319.31ZM1.50018 286.83V255.49L27.7702 240.34C28.0175 240.584 28.3243 240.76 28.6602 240.85V271.14L1.50018 286.83ZM167.85 482.62C167.852 482.792 167.876 482.963 167.92 483.13L141.43 498.43L141.18 498.57V563.51L115.09 578.57C114.906 578.318 114.665 578.112 114.388 577.97C114.11 577.828 113.802 577.752 113.49 577.75C112.96 577.75 112.451 577.961 112.076 578.336C111.701 578.711 111.49 579.219 111.49 579.75C111.499 580.181 111.646 580.599 111.911 580.939C112.176 581.28 112.544 581.526 112.96 581.64V613.43L141.13 597.14V629.09L170.27 645.92V612.27L142.66 596.33L169.77 580.66L196.02 595.81C195.974 595.976 195.947 596.147 195.94 596.32C195.94 596.85 196.151 597.359 196.526 597.734C196.901 598.109 197.41 598.32 197.94 598.32C198.471 598.32 198.979 598.109 199.354 597.734C199.729 597.359 199.94 596.85 199.94 596.32C199.933 595.89 199.786 595.474 199.523 595.133C199.26 594.793 198.894 594.546 198.48 594.43V564.7V531.64L226.11 515.64L253.25 531.31L225.83 547.14L225.58 547.29V579.79L225.08 580.08L225.58 580.37V612.28L197.7 628.38L197.45 628.53V662.14L226.33 645.46L226.58 645.32V613.44L253.72 629.14V629.72L254.22 629.43L282.85 645.97V614.5C283.192 614.417 283.504 614.241 283.75 613.99L309.99 629.14V662.14L338.13 645.91L367.01 629.25L367.26 629.1V597.14L394.4 612.86V613.44L394.9 613.15L395.4 613.44V612.86L423.03 596.86L451.67 613.44V580.37L478.77 564.71V596.62L507.94 613.44L536.08 629.68V596.62L562.32 581.47C562.693 581.839 563.196 582.048 563.72 582.05C564.251 582.05 564.759 581.839 565.134 581.464C565.509 581.089 565.72 580.58 565.72 580.05C565.72 579.519 565.509 579.011 565.134 578.636C564.759 578.261 564.251 578.05 563.72 578.05C563.196 578.052 562.693 578.26 562.32 578.63L536.08 563.55V530.48L507.19 547.14L506.94 547.29V579.22L479.77 563.55V530.49L452.52 546.22C452.276 545.972 451.968 545.795 451.63 545.71V514.82L422.49 498V530.49L394.4 514.24V547.89L422.03 563.84L394.9 579.51L366.26 562.97V596.04L339.13 611.7V547.88L367.01 531.78L367.26 531.64V497.99L340.02 513.72C339.812 513.478 339.549 513.29 339.253 513.17C338.956 513.051 338.636 513.004 338.318 513.034C338 513.064 337.694 513.169 337.425 513.342C337.157 513.514 336.933 513.748 336.773 514.025C336.614 514.301 336.522 514.612 336.507 514.93C336.492 515.249 336.554 515.567 336.686 515.857C336.819 516.148 337.02 516.402 337.271 516.599C337.522 516.796 337.817 516.93 338.13 516.99V547.3L310.24 563.41L309.99 563.55V595.46L282.85 579.79V549.48C283.266 549.366 283.634 549.12 283.899 548.779C284.164 548.439 284.312 548.021 284.32 547.59C284.318 547.417 284.291 547.245 284.24 547.08L310.77 531.78L311.02 531.64V498L282.39 514.53L254.25 498.28L226.11 514.53L197.98 498.28L170.34 514.28V484.51C170.708 484.423 171.044 484.233 171.309 483.963C171.573 483.693 171.756 483.353 171.835 482.983C171.914 482.613 171.887 482.229 171.757 481.874C171.626 481.519 171.398 481.208 171.098 480.978C170.798 480.747 170.439 480.607 170.062 480.572C169.686 480.537 169.307 480.61 168.97 480.782C168.633 480.954 168.352 481.218 168.159 481.543C167.966 481.869 167.87 482.242 167.88 482.62H167.85ZM142.18 499.14L168.42 483.99C168.665 484.238 168.972 484.415 169.31 484.5V514.82L168.81 515.11L142.18 530.48V499.14ZM197.45 562.97L170.31 547.31V515.97L197.45 531.64V562.97ZM169.31 547.3L142.18 562.97V531.64L169.31 515.97V547.3ZM142.18 564.14L169.31 548.46V579.79L142.18 595.46V564.14ZM114 611.71V581.61C114.414 581.494 114.78 581.247 115.043 580.907C115.306 580.566 115.452 580.15 115.46 579.72C115.465 579.66 115.465 579.6 115.46 579.54L141.13 564.69V596.03L114 611.71ZM169.27 644.14L142.13 628.48V597.14L169.27 612.85V644.14ZM197.45 594.39C197.111 594.478 196.8 594.654 196.55 594.9L170.31 579.75V548.46L197.45 564.14V594.39ZM254.22 564.39L281.35 580.05L269.03 587.17L254.22 595.72L227.08 580.05L239.41 572.94L254.22 564.39ZM281.85 610.65C281.514 610.74 281.207 610.915 280.96 611.16L255.22 596.3L281.85 580.92V610.65ZM254.72 597.14L280.47 612.06C280.418 612.225 280.391 612.397 280.39 612.57C280.391 612.743 280.418 612.915 280.47 613.08L254.72 627.95V597.14ZM254.72 563.5V532.22L280.47 547.08C280.419 547.245 280.392 547.417 280.39 547.59C280.398 548.02 280.544 548.436 280.807 548.777C281.07 549.117 281.436 549.364 281.85 549.48V579.22L254.72 563.5ZM281.85 545.65C281.514 545.74 281.207 545.915 280.96 546.16L255.22 531.3L281.85 515.92V545.65ZM226.58 547.83L253.72 532.17V563.55L226.58 579.22V547.83ZM225.58 644.72L198.45 660.39V629.14L225.58 613.44V644.72ZM226.58 612.23V580.9L253.72 596.57V627.95L226.58 612.23ZM255.22 628.77L280.96 613.9C281.204 614.148 281.512 614.325 281.85 614.41V644.14L255.22 628.77ZM310.99 660.38V629.14L338.13 613.44V644.76L310.99 660.38ZM395.4 611.7V580.37L422.53 564.71V596.04L395.4 611.7ZM450.67 611.7L423.53 596.04V564.71L437.1 572.54L450.67 580.37V611.7ZM423.53 532.22L437.1 540.05L449.28 547.05C449.236 547.216 449.212 547.388 449.21 547.56C449.218 547.99 449.364 548.406 449.627 548.747C449.89 549.087 450.256 549.334 450.67 549.45V579.22L437.1 571.39L423.53 563.55V532.22ZM479.77 564.71L506.94 580.37V611.71L479.77 596.04V564.71ZM535.08 627.95L507.94 612.28V580.95L535.08 596.62V627.95ZM561.83 580.6L535.58 595.75L508.44 580.08L520.77 572.97L535.58 564.42L561.83 579.57C561.779 579.735 561.752 579.907 561.75 580.08C561.752 580.256 561.778 580.431 561.83 580.6ZM507.94 547.89L535.08 532.22V563.55L507.94 579.22V547.89ZM478.77 532.22V563.55L451.67 579.22V549.49C452.084 549.374 452.45 549.127 452.713 548.787C452.976 548.446 453.122 548.03 453.13 547.6C453.128 547.428 453.104 547.256 453.06 547.09L478.77 532.22ZM423.49 499.73L450.67 515.4V545.71C450.332 545.795 450.025 545.972 449.78 546.22L437.1 538.9L423.53 531.07L423.49 499.73ZM395.36 515.98L422.53 531.64V562.97L395.4 547.31L395.36 515.98ZM367.26 564.7L394.4 580.37V611.7L367.26 596.04V564.7ZM366.26 597.19V628.52L339.13 644.14V612.81L366.26 597.19ZM310.99 627.94V596.62L338.13 580.95V612.27L310.99 627.94ZM366.26 499.72V531.06L339.13 546.72V516.99C339.538 516.876 339.899 516.635 340.162 516.303C340.424 515.97 340.574 515.563 340.59 515.14C340.59 514.967 340.563 514.795 340.51 514.63L366.26 499.72ZM310.99 564.14L338.13 548.46V579.79L310.99 595.46V564.14ZM309.99 627.96L284.24 613.09C284.293 612.925 284.32 612.753 284.32 612.58C284.312 612.148 284.164 611.731 283.899 611.391C283.634 611.05 283.266 610.804 282.85 610.69V580.96L309.99 596.62V627.96ZM309.99 531.07L283.77 546.21C283.52 545.964 283.21 545.788 282.87 545.7V515.4L309.99 499.73V531.07ZM254.22 499.45L281.35 515.14L254.72 530.51L254.22 530.8L253.72 530.51L227.08 515.14L254.22 499.45ZM225.08 515.14L197.95 530.8L170.77 515.14L197.95 499.44L225.08 515.14Z" fill="url(#paint1_linear_343_3)"/>
</g>
<defs>
<linearGradient id="paint0_linear_343_3" x1="1124.23" y1="287.93" x2="1343.69" y2="-28.77" gradientUnits="userSpaceOnUse">
<stop stop-color="#C8CACC"/>
<stop offset="0.14" stop-color="#D5D6D7"/>
<stop offset="0.38" stop-color="#E4E6E6"/>
<stop offset="0.57" stop-color="#EAEBEB"/>
<stop offset="0.75" stop-color="#EEEFEF"/>
<stop offset="0.93" stop-color="#FAFBFB"/>
<stop offset="0.98" stop-color="white"/>
</linearGradient>
<linearGradient id="paint1_linear_343_3" x1="315.45" y1="374.24" x2="95.9902" y2="690.94" gradientUnits="userSpaceOnUse">
<stop stop-color="#C8CACC"/>
<stop offset="0.14" stop-color="#D5D6D7"/>
<stop offset="0.38" stop-color="#E4E6E6"/>
<stop offset="0.57" stop-color="#EAEBEB"/>
<stop offset="0.75" stop-color="#EEEFEF"/>
<stop offset="0.93" stop-color="#FAFBFB"/>
<stop offset="0.98" stop-color="white"/>
</linearGradient>
<clipPath id="clip0_343_3">
<rect width="565.68" height="425.17" fill="white" transform="translate(874)"/>
</clipPath>
<clipPath id="clip1_343_3">
<rect width="565.68" height="425.17" fill="white" transform="translate(565.68 662.17) rotate(-180)"/>
</clipPath>
</defs>
</svg>
