<svg width="43" height="33" viewBox="0 0 43 33" fill="none" xmlns="http://www.w3.org/2000/svg">
<mask id="mask0_0_2798" style="mask-type:alpha" maskUnits="userSpaceOnUse" x="0" y="0" width="43" height="33">
<path fill-rule="evenodd" clip-rule="evenodd" d="M0 0H42.8597V32.8923H0V0Z" fill="white"/>
</mask>
<g mask="url(#mask0_0_2798)">
<path fill-rule="evenodd" clip-rule="evenodd" d="M35.8096 2.4977C35.8096 2.4977 33.5516 -0.119529 29.6032 0.00425648C24.9292 0.150845 20.5867 2.88896 21.0882 9.90492C21.0882 9.90492 14.0479 11.9586 3.09071 1.98446C3.09071 1.98446 -0.434507 7.48495 5.79797 12.6677C5.79797 12.6677 4.04822 13.132 1.71118 11.8855C1.71118 11.8855 0.459466 16.5303 8.47952 20.0506C8.47952 20.0506 5.77226 20.7839 4.54626 20.0506C4.54626 20.0506 5.26174 24.989 12.4646 26.1621C12.4646 26.1621 8.76087 29.6824 0 29.5846C0 29.5846 18.2179 38.508 30.8504 27.0416C39.8707 18.8526 38.6194 7.92508 38.6194 7.92508C38.6194 7.92508 41.2756 7.14255 42.8597 4.38018C42.8597 4.38018 39.8454 5.28468 38.1085 5.1381C38.1085 5.1381 41.4287 3.15536 41.6844 0.809586C41.6844 0.809586 38.8493 2.74201 35.8096 2.4977Z" fill="#F2A819"/>
</g>
</svg>
