<svg width="29" height="28" viewBox="0 0 29 28" fill="none" xmlns="http://www.w3.org/2000/svg">
<path d="M14.2491 0C11.4801 0 8.77336 0.821086 6.47108 2.35943C4.16879 3.89776 2.37437 6.08427 1.31475 8.64243C0.25512 11.2006 -0.0221267 14.0155 0.518066 16.7313C1.05826 19.447 2.39163 21.9416 4.34956 23.8995C6.3075 25.8574 8.80206 27.1908 11.5178 27.731C14.2335 28.2712 17.0485 27.9939 19.6066 26.9343C22.1648 25.8747 24.3513 24.0803 25.8896 21.778C27.428 19.4757 28.2491 16.7689 28.2491 14C28.2451 10.2882 26.7689 6.72949 24.1442 4.10483C21.5196 1.48017 17.9609 0.00391976 14.2491 0ZM15.326 25.7963V17.2308H18.5567C18.8424 17.2308 19.1163 17.1173 19.3182 16.9153C19.5202 16.7134 19.6337 16.4395 19.6337 16.1538C19.6337 15.8682 19.5202 15.5943 19.3182 15.3923C19.1163 15.1904 18.8424 15.0769 18.5567 15.0769H15.326V11.8462C15.326 11.2749 15.5529 10.7271 15.9568 10.3232C16.3608 9.91923 16.9086 9.69231 17.4798 9.69231H19.6337C19.9193 9.69231 20.1932 9.57885 20.3952 9.37688C20.5971 9.17492 20.7106 8.901 20.7106 8.61538C20.7106 8.32977 20.5971 8.05585 20.3952 7.85388C20.1932 7.65192 19.9193 7.53846 19.6337 7.53846H17.4798C16.3374 7.53846 15.2417 7.9923 14.4338 8.80015C13.626 9.608 13.1721 10.7037 13.1721 11.8462V15.0769H9.94137C9.65575 15.0769 9.38183 15.1904 9.17987 15.3923C8.9779 15.5943 8.86444 15.8682 8.86444 16.1538C8.86444 16.4395 8.9779 16.7134 9.17987 16.9153C9.38183 17.1173 9.65575 17.2308 9.94137 17.2308H13.1721V25.7963C10.1363 25.5192 7.32412 24.0824 5.32061 21.7847C3.3171 19.4871 2.27646 16.5055 2.41518 13.4602C2.55389 10.4149 3.86126 7.54028 6.06535 5.4343C8.26945 3.32831 11.2006 2.15309 14.2491 2.15309C17.2975 2.15309 20.2287 3.32831 22.4328 5.4343C24.6369 7.54028 25.9442 10.4149 26.0829 13.4602C26.2217 16.5055 25.181 19.4871 23.1775 21.7847C21.174 24.0824 18.3618 25.5192 15.326 25.7963Z" fill="#E5E5E5"/>
</svg>
