<svg width="28" height="28" viewBox="0 0 28 28" fill="none" xmlns="http://www.w3.org/2000/svg">
<path d="M25.1721 0.5H2.32598C1.77514 0.5 1.24687 0.718818 0.857371 1.10832C0.467872 1.49782 0.249054 2.02609 0.249054 2.57692V25.4231C0.249054 25.9739 0.467872 26.5022 0.857371 26.8917C1.24687 27.2812 1.77514 27.5 2.32598 27.5H25.1721C25.723 27.5 26.2512 27.2812 26.6407 26.8917C27.0302 26.5022 27.2491 25.9739 27.2491 25.4231V2.57692C27.2491 2.02609 27.0302 1.49782 26.6407 1.10832C26.2512 0.718818 25.723 0.5 25.1721 0.5ZM25.1721 25.4231H2.32598V2.57692H25.1721V25.4231ZM9.59521 11.9231V20.2308C9.59521 20.5062 9.4858 20.7703 9.29105 20.9651C9.0963 21.1598 8.83216 21.2692 8.55675 21.2692C8.28133 21.2692 8.01719 21.1598 7.82244 20.9651C7.62769 20.7703 7.51828 20.5062 7.51828 20.2308V11.9231C7.51828 11.6477 7.62769 11.3835 7.82244 11.1888C8.01719 10.994 8.28133 10.8846 8.55675 10.8846C8.83216 10.8846 9.0963 10.994 9.29105 11.1888C9.4858 11.3835 9.59521 11.6477 9.59521 11.9231ZM21.0183 15.5577V20.2308C21.0183 20.5062 20.9089 20.7703 20.7141 20.9651C20.5194 21.1598 20.2552 21.2692 19.9798 21.2692C19.7044 21.2692 19.4403 21.1598 19.2455 20.9651C19.0508 20.7703 18.9414 20.5062 18.9414 20.2308V15.5577C18.9414 14.8692 18.6678 14.2088 18.181 13.7219C17.6941 13.2351 17.0338 12.9615 16.3452 12.9615C15.6567 12.9615 14.9963 13.2351 14.5094 13.7219C14.0226 14.2088 13.7491 14.8692 13.7491 15.5577V20.2308C13.7491 20.5062 13.6396 20.7703 13.4449 20.9651C13.2501 21.1598 12.986 21.2692 12.7106 21.2692C12.4352 21.2692 12.171 21.1598 11.9763 20.9651C11.7815 20.7703 11.6721 20.5062 11.6721 20.2308V11.9231C11.6734 11.6687 11.768 11.4237 11.938 11.2344C12.108 11.0452 12.3415 10.9249 12.5943 10.8964C12.847 10.8679 13.1015 10.9332 13.3093 11.0798C13.5171 11.2265 13.6639 11.4443 13.7218 11.692C14.4243 11.2155 15.2433 10.9393 16.091 10.8931C16.9386 10.8469 17.7828 11.0325 18.5329 11.4299C19.2831 11.8273 19.9108 12.4215 20.3486 13.1488C20.7865 13.876 21.018 14.7088 21.0183 15.5577ZM10.1144 8.28846C10.1144 8.59654 10.0231 8.89771 9.85192 9.15387C9.68076 9.41003 9.43748 9.60968 9.15285 9.72758C8.86822 9.84548 8.55502 9.87633 8.25286 9.81622C7.95069 9.75612 7.67314 9.60776 7.45529 9.38992C7.23744 9.17207 7.08909 8.89452 7.02898 8.59235C6.96888 8.29019 6.99973 7.97699 7.11763 7.69236C7.23552 7.40773 7.43518 7.16445 7.69134 6.99329C7.9475 6.82213 8.24866 6.73077 8.55675 6.73077C8.96987 6.73077 9.36608 6.89488 9.6582 7.18701C9.95033 7.47913 10.1144 7.87534 10.1144 8.28846Z" fill="#E5E5E5"/>
</svg>
