<svg width="28" height="28" viewBox="0 0 28 28" fill="none" xmlns="http://www.w3.org/2000/svg">
<path d="M13.7491 7.53846C12.5167 7.53846 11.3121 7.91743 10.2874 8.62743C9.26278 9.33743 8.46417 10.3466 7.99257 11.5273C7.52098 12.708 7.39759 14.0072 7.63801 15.2606C7.87842 16.514 8.47185 17.6653 9.34324 18.569C10.2146 19.4727 11.3248 20.0881 12.5335 20.3374C13.7421 20.5867 14.9949 20.4587 16.1335 19.9697C17.272 19.4806 18.2451 18.6524 18.9297 17.5898C19.6144 16.5272 19.9798 15.278 19.9798 14C19.9781 12.2868 19.3211 10.6444 18.153 9.43297C16.9849 8.22158 15.401 7.54024 13.7491 7.53846ZM13.7491 18.3077C12.9275 18.3077 12.1244 18.0551 11.4413 17.5817C10.7582 17.1084 10.2258 16.4356 9.9114 15.6485C9.59701 14.8614 9.51475 13.9952 9.67502 13.1596C9.8353 12.324 10.2309 11.5564 10.8118 10.954C11.3928 10.3516 12.1329 9.94129 12.9387 9.77508C13.7444 9.60887 14.5796 9.69417 15.3387 10.0202C16.0977 10.3463 16.7464 10.8984 17.2029 11.6068C17.6593 12.3152 17.9029 13.148 17.9029 14C17.9029 15.1425 17.4653 16.2381 16.6863 17.046C15.9073 17.8538 14.8507 18.3077 13.7491 18.3077ZM19.9798 0H7.51828C5.591 0.002138 3.74324 0.797053 2.38044 2.21033C1.01764 3.6236 0.251116 5.53979 0.249054 7.53846V20.4615C0.251116 22.4602 1.01764 24.3764 2.38044 25.7897C3.74324 27.2029 5.591 27.9979 7.51828 28H19.9798C21.9071 27.9979 23.7549 27.2029 25.1177 25.7897C26.4805 24.3764 27.247 22.4602 27.2491 20.4615V7.53846C27.247 5.53979 26.4805 3.6236 25.1177 2.21033C23.7549 0.797053 21.9071 0.002138 19.9798 0ZM25.1721 20.4615C25.1721 21.8896 24.6251 23.2592 23.6513 24.269C22.6776 25.2788 21.3569 25.8462 19.9798 25.8462H7.51828C6.1412 25.8462 4.82052 25.2788 3.84677 24.269C2.87302 23.2592 2.32598 21.8896 2.32598 20.4615V7.53846C2.32598 6.11037 2.87302 4.74078 3.84677 3.73096C4.82052 2.72115 6.1412 2.15385 7.51828 2.15385H19.9798C21.3569 2.15385 22.6776 2.72115 23.6513 3.73096C24.6251 4.74078 25.1721 6.11037 25.1721 7.53846V20.4615ZM22.0567 7C22.0567 7.31949 21.9654 7.63181 21.7942 7.89746C21.6231 8.16311 21.3798 8.37016 21.0952 8.49242C20.8105 8.61469 20.4973 8.64668 20.1952 8.58435C19.893 8.52202 19.6154 8.36817 19.3976 8.14225C19.1798 7.91633 19.0314 7.6285 18.9713 7.31515C18.9112 7.00179 18.942 6.67699 19.0599 6.38182C19.1778 6.08665 19.3775 5.83436 19.6336 5.65686C19.8898 5.47936 20.191 5.38462 20.4991 5.38462C20.9122 5.38462 21.3084 5.55481 21.6005 5.85775C21.8926 6.16069 22.0567 6.57157 22.0567 7Z" fill="#E5E5E5"/>
</svg>
